<?xml version="1.0" standalone="no"?>
<!DOCTYPE svg PUBLIC "-//W3C//DTD SVG 1.1//EN" "http://www.w3.org/Graphics/SVG/1.1/DTD/svg11.dtd" >
<svg xmlns="http://www.w3.org/2000/svg" xmlns:xlink="http://www.w3.org/1999/xlink" version="1.1">
<metadata>
Created by FontForge 20170731 at Wed Feb  8 19:33:26 2023
 By Aleksey,,,
Dalek by Keith Bates is a free font based on the lettering used in the Dalek Book of 1964 and in the Daleks strip in TV21 comic.    K-Type Freebie 2005,  www.k-type.com
</metadata>
<defs>
<font id="Dalek" horiz-adv-x="1333" >
  <font-face 
    font-family="Dalek"
    font-weight="400"
    font-stretch="normal"
    units-per-em="2048"
    panose-1="2 0 4 0 0 0 0 0 0 0"
    ascent="1638"
    descent="-410"
    x-height="1595"
    cap-height="1722"
    bbox="-219 -571 3881.5 2478"
    underline-thickness="61"
    underline-position="-363"
    unicode-range="U+0020-F000"
  />
<missing-glyph horiz-adv-x="1024" 
d="M897 0h-768v1843h768v-1843zM256 1716v-1587h512v1587h-512z" />
    <glyph glyph-name=".notdef" horiz-adv-x="1024" 
d="M897 0h-768v1843h768v-1843zM256 1716v-1587h512v1587h-512z" />
    <glyph glyph-name=".null" horiz-adv-x="0" 
 />
    <glyph glyph-name="nonmarkingreturn" horiz-adv-x="682" 
 />
    <glyph glyph-name="space" unicode=" " horiz-adv-x="700" 
 />
    <glyph glyph-name="exclam" unicode="!" horiz-adv-x="557" 
d="M422 1735h53q0 -73 -6 -285q-18 -27 -18 -72q0 -10 2 -16q0 -1 0.5 -2t1.5 -3.5t2 -4.5l-2 -2l6 -15q0 -6 2 -8q0 -82 -2 -166t-2 -166q-23 -54 -23 -180q0 -90 2 -104q3 -60 17 -82q2 -10 2 -39l-35 -23h-6q-26 -33 -23 -59l4 -25q15 -20 17 -22l10 -8h-88
q-45 42 -64 92q0 -60 19 -88l-96 -11l-15 578q16 46 13 80q-5 58 -5 98q0 16 5.5 69t5.5 68q0 31 -29 68l-6 86q11 13 14 33l2 2l-33 2q46 15 46 55q0 55 -43 107q0 21 -3 39q70 2 115 2q18 -15 39 -15q7 0 23 4q21 -18 45 -18q28 0 53 31zM446 43l3 -35q-5 0 -27 -3t-29 -3
l-43 43q-2 0 -2 -4q0 -3 8.5 -20t8.5 -21q0 -2 -3 -2q-33 26 -69 16q-20 17 -39 17q-24 0 -51 -27q-12 -2 -47 -2q3 103 14 166q0 7 8 31t8 32q0 11 -14 43v13q2 6 2 14h82l12 -72l13 78l149 -6q0 -5 2 -23t2 -22q0 -9 -17.5 -24.5t-17.5 -18.5q0 -8 35 -23q-4 -8 -4 -16
q0 -5 3 -23.5t3 -23.5q0 -7 -9 -24t-9 -21q0 -3 28 -39z" />
    <glyph glyph-name="quotedbl" unicode="&#x22;" horiz-adv-x="796" 
d="M678 1212l2 -30q-5 0 -25 -4q-12 -3 -24 0l-37 36q6 -15 10 -40q-24 17 -33 14q-14 14 -34 14q-8 0 -9 -10.5t-4 -13.5h-41q0 64 11 147l10 27q6 15 6 28q0 4 -3.5 13.5t-6.5 16.5l-4 7v2q-3 49 0 156q0 8 8 27q6 15 6 28l-12 37v25h41l10 -64l12 68l105 -4q0 -4 2 -21
t2 -20q0 -5 -16.5 -20t-16.5 -17q0 -4 2 -6l31 -15q-4 -5 -2 -35.5t-2 -35.5q-15 -18 -15 -29q0 -5 17 -29v-41h-2q2 -12 2 -22q0 -5 -15.5 -20t-15.5 -17q0 -4 2 -6l29 -15q-3 -6 0 -34q3 -29 -2 -37q-13 -16 -13 -25q0 -4 25 -35zM350 1212l2 -30q-4 0 -24 -4
q-12 -3 -25 0l-37 36q6 -15 10 -40q-24 17 -32 14q-14 14 -35 14q-8 0 -8.5 -10.5t-3.5 -13.5h-41q0 72 10 147l10 27q6 15 6 28q0 4 -3.5 13.5t-6.5 16.5l-4 7v2q-3 49 0 156q0 8 8 27q6 15 6 28l-12 37v25h41l10 -64l12 68l105 -4q0 -4 2 -21t2 -20q0 -5 -16.5 -20
t-16.5 -17q0 -4 2 -6l31 -15q-4 -5 -2 -35.5t-2 -35.5q-14 -17 -14 -29q0 -7 16 -29v-41h-2q2 -12 2 -22q0 -5 -15.5 -20t-15.5 -17q0 -4 2 -6l29 -15q-3 -6 0 -34q3 -29 -2 -37q-12 -15 -12 -25q0 -5 24 -35z" />
    <glyph glyph-name="numbersign" unicode="#" horiz-adv-x="1298" 
d="M1210 748q14 -36 -12 -70q13 -29 10 -68v-67h-22q-21 6 -62 20q-21 6 -55 -6q-21 -6 -68 -6q-1 0 -8 -2t-26 -7t-37 -10q4 -33 4 -34q-2 -2 -12 -31q17 -17 20 -105q0 -77 2 -116l-213 4l-10 43q7 5 4 113q-3 107 2 112l27 29l-242 -2l29 -31l2 -65q0 -7 -9.5 -32
t-9.5 -32q0 -65 29 -109l2 -26l-70 -2q-9 0 -32 10l-15 -4l-28 14l-35 -20h-33l-12 -2q1 11 -2 127q-3 79 12 125q-3 1 -1.5 13.5t3.5 23t-2 12.5q-36 -22 -119 -19q-116 3 -125 0q-5 35 -2 111q3 73 0 111l74 10q9 -9 92 -15q85 -6 94 -12q-6 75 -6 113l4 37q1 13 2 20
q3 34 -10 55q-3 -3 -13 2t-20.5 12t-13.5 7q-4 0 -6 -2q-30 -12 -49 -12q-3 0 -23 6t-33 6q-55 0 -71 -19l-23 -6q-7 41 -10 107q-3 79 4 106q136 13 182 13q3 0 18 -8.5t19 -8.5l23 8q1 0 4 -6t7.5 -12.5t8.5 -7.5l-8 133q3 -1 7.5 2.5t8 9t9.5 13t12 12.5l-43 16l-12 103
l215 6q-3 -75 -23 -201q14 -22 14 -57v-27l43 -12l23 4q6 3 53 6q32 4 47 16l25 4l22 -41l-8 308h12q42 0 72 -23l29 12l14 -4q21 14 70 11l31 -2q0 -12 -15.5 -51.5t-15.5 -53.5q0 -21 6 -82t6 -88l84 17l6 -11q-6 3 21 6q16 3 39 -16l100 14l6 -202l-264 -13l-2 -229
q6 1 23.5 15.5t27.5 11.5q30 10 57 10q16 0 69 -7.5t69 -7.5q17 0 32 3zM438 254l4 -2h-10zM330 246h-6h2l4 57l-2 45q0 -71 2 -102zM745 766q0 13 -3 38t-3 42q0 14 6.5 41t6.5 33q0 14 -9 32q-2 0 -96 4q-84 3 -127 -4q0 -29 5 -104.5t5 -102.5q0 -13 -18 -22
q-24 -15 -27 -21l58 11q-3 6 12 43l47 -4q14 -7 27 -7q49 0 116 21z" />
    <glyph glyph-name="dollar" unicode="$" horiz-adv-x="1247" 
d="M1120 520l8 -67l-112 -91l-10 3q-70 -57 -289 -203l-4 -37q-8 -24 -8 -154q0 -77 34 -155v-54l-30 -2h-62q-11 7 -31 21l2 -21l-18 4l-14 -4q-1 0 -11.5 19.5t-11.5 19.5q-22 0 -43 -43q-8 0 -18 6t-17 5q-3 -3 -6 0h6q33 39 23 69l-27 64q6 76 6 114q-12 -8 -18 -10
l-18 -57q-25 -20 -29 -31q15 3 20 -2q0 -1 -12 -4l-8 6q-8 0 -14 -2l-172 205q32 19 118 63q76 43 95 92q65 49 131 88l41 -86l4 125q77 9 86 74l71 39l-114 57q-2 5 -4.5 17t-4.5 19t-5.5 15.5t-8.5 12.5t-12 4q-5 0 -17 -4q-35 18 -6 47l-39 -4l-45 41l15 16q65 3 96 -22
l29 14q-195 79 -232 109l-141 135l35 47q-51 6 -101 24l-170 191l127 86q81 57 99 111l26 22l43 -14h29l47 96l25 -8l30 28v15q-1 3 3.5 13t10.5 26.5t9 31.5q-27 94 -27 134q0 16 6 22q-8 10 -14 72q-3 58 -10 76l22 41l236 4q0 -137 -2 -246l39 -33q1 4 14 109l41 14
l168 -191l-8 -51l-137 -108q-14 -11 -70 -27q-18 -40 -39 -55l-53 -39l-60 12q-18 -16 -98 -61l57 2l-114 -86q46 -31 94 -101q45 -67 72 -94q49 -43 135 -55l-17 -37q25 -45 39 -76q27 -41 66 -35q6 -4 125 -133l6 -43l27 21q9 -3 36 -43q25 -43 56 -60l-54 -61z" />
    <glyph glyph-name="percent" unicode="%" horiz-adv-x="1908" 
d="M926 1401q-131 -155 -133 -162q-3 -9 -64 -70q-44 -41 -47 -61l-12 16l-15 -47q-24 -44 -75 -86l-72 -92l-14 8l-88 92q-20 23 -17 39l12 47l-32 -47l-78 86q-30 42 -53 103v-31l-45 68q-20 -6 -54 43q1 4 -15 26t-15 31q-17 10 -43 16l-15 13q5 8 2 8q85 95 152 190
l59 -30l-35 45l117 131q105 117 105 135q0 7 16 29l12 -9l2 2q11 0 31 -26q24 -27 27 -33l-23 -27l39 11l102 -113q60 -72 80 -131v31q16 -16 60 -72q12 0 39 -41q-3 -10 8 -16q3 -17 20 -27l2 -14q25 -12 43 -17l15 -12q-8 -3 2 -6zM1278 2001l172 -80q-9 -25 -59 -147
q-39 -89 -74 -138l4 -51q0 -29 -49 -139l-66 -143l11 8q0 -1 -240 -643q-3 -7 -22.5 -23.5t-22.5 -23.5q6 -18 6 -54q-190 -517 -178 -551l-27 -79q-55 -21 -55 -89q0 -16 6 -69q-16 0 -38 -4l-21 -4q-13 0 -43 24q-15 35 -54 35q-19 0 -32 -8l-45 22q26 62 63 164
q52 125 80 150q0 38 47 159q132 322 371 1012q9 25 14 25q3 0 12 -22.5t13 -22.5q5 0 14 20l-27 107l70 -39l2 57l-63 51l133 336q21 34 47 37h41q-32 32 -56 68zM1855 393q-129 -157 -131 -162q-3 -8 -65 -67q-42 -42 -45 -62l-12 15l-17 -47q-20 -38 -74 -86l-71 -93
l-15 11l-88 90q-18 21 -18 39l12 49l-31 -49l-77 86q-35 44 -54 102v-31l-45 70q-19 -8 -53 41q1 5 -15.5 27.5t-15.5 29.5q-25 13 -45 17l-12 14q3 5 0 8q85 92 154 189l59 -29l-37 43l119 131q102 120 102 137q0 5 19 27l12 -8q0 2 2 4q5 0 31 -29q24 -27 24 -31l-20 -28
l37 12l102 -115q58 -66 82 -129v31l57 -72q14 0 41 -43q-7 -10 9 -16q3 -16 18 -25l4 -16q19 -11 43 -14l14 -15q-9 0 0 -6zM686 1335l59 -14q-30 41 -34 41q3 21 28 24l-16 23h-4q-18 31 -60 74q-44 50 -59 71l-41 66q-35 42 -57 47q-10 10 -19 25q-19 -34 -77 -95l-48 -57
l-63 -57q-31 -36 -31 -60l-10 -14v-6q0 -8 16.5 -27.5t16.5 -21.5h8q22 -28 88 -121q72 -97 90 -100q2 -2 6 -6.5t8.5 -8.5t8.5 -8q59 78 153 162h-6zM1618 328l57 -15q-10 14 -17.5 24t-12 14t-5.5 3q7 24 29 27l-14 20h-6q-12 21 -56 72q-42 47 -61 74l-43 65
q-30 44 -55 50l-21 24q-19 -34 -78 -96l-47 -58q-48 -39 -61 -57q-30 -35 -33 -57l-10 -17v-6q0 -6 8 -17.5t16 -20.5l9 -9h8l90 -123q71 -95 90 -98q14 -19 22 -25q61 81 154 164h-6z" />
    <glyph glyph-name="ampersand" unicode="&#x26;" horiz-adv-x="1294" 
d="M1174 713v-54l-134 9q-103 4 -133 2q-22 16 -61 16q-5 0 -13.5 -2.5t-11.5 -3.5h-2l-12 -6h-31q21 -52 37 -68l8 -90q-6 -10 -10 -33q-10 -27 -10 -55q0 -58 45 -115l4 -34q-79 -8 -107 -9q-18 11 -32 11q-3 0 -23 -5q-20 17 -41 17q-22 0 -49 -35q-6 -1 -22.5 -2
t-24.5 -2l-8 295q12 21 12 55q0 16 -6 37l-6 21q-2 2 -2 6l-2 2q-54 28 -113 28q-112 0 -139 -18h-35l-6 12q-26 51 -62 51q-31 0 -59 -22v223h2q18 0 31 8h61q59 -2 318 4q8 44 8 86q0 141 -25 189q0 21 -2 41q2 2 43 33v6q10 17 10 43q-12 35 -28 57l209 12l2 -10l6 -24
q10 -63 16 -207l8 -246h33q20 0 53 33q28 0 86 4q56 -29 78 -29q51 0 103 43q4 0 32 4q0 -94 2 -117q-12 -18 -12 -40q0 -9 4 -21q-16 -22 -16 -45q0 -34 27 -55z" />
    <glyph glyph-name="quotesingle" unicode="'" horiz-adv-x="487" 
d="M350 1212l2 -30q-4 0 -24 -4q-12 -3 -25 0l-37 36q6 -15 10 -40q-24 17 -32 14q-14 14 -35 14q-8 0 -8.5 -10.5t-3.5 -13.5h-41q0 72 10 147l10 27q6 15 6 28q0 4 -3.5 13.5t-6.5 16.5l-4 7v2q-3 49 0 156q0 8 8 27q6 15 6 28l-12 37v25h41l10 -64l12 68l105 -4
q0 -4 2 -21t2 -20q0 -5 -16.5 -20t-16.5 -17q0 -4 2 -6l31 -15q-4 -5 -2 -35.5t-2 -35.5q-14 -17 -14 -29q0 -7 16 -29v-41h-2q2 -12 2 -22q0 -5 -15.5 -20t-15.5 -17q0 -4 2 -6l29 -15q-3 -6 0 -34q3 -29 -2 -37q-12 -15 -12 -25q0 -5 24 -35z" />
    <glyph glyph-name="parenleft" unicode="(" horiz-adv-x="688" 
d="M606 1974q-27 -52 -88 -184q-26 -9 -47 -59v-9l-4 -32l4 -9q-19 -80 -80 -174l10 4l-2 -6l2 -6q-4 -12 -4 -16q-14 -32 -14 -60q-82 -300 -82 -544q0 -262 82 -539l-2 -10l2 -23q2 -39 27 -86q13 -63 32 -133q21 -40 47 -59l29 -78l-2 -10q10 -79 25 -111.5t57 -69.5
l4 -14h-22q-7 0 -52 10q-33 7 -53 -2q-35 21 -41 21q-17 0 -33 -25v-2h-47q-72 132 -121 277q0 61 -20 90v-2q-8 20 -14 26q-74 328 -74 707q0 278 37 399l-6 31l8 35q1 1 33 24h4q18 25 26 49l2 25q0 53 -20 70l-2 6q79 252 88 280l12 7l8 18l27 39l29 24l-13 29l4 33
l-12 10l17 51h204q19 0 35 -2z" />
    <glyph glyph-name="parenright" unicode=")" horiz-adv-x="681" 
d="M555 823q0 -154 -20 -350q-24 -256 -60 -334l-6 -8v-14q16 -4 18 -4q8 0 5 12q-20 7 -23 4v-2q-26 -39 -20 -88q-58 -160 -121 -272h-54l11 -15l-2 17q-15 24 -33 24q-6 0 -41 -18q-12 4 -14 4q-9 0 -43 -7.5t-43 -7.5h-27l6 13q83 80 80 174l-2 4l-2 8l31 80
q17 13 43 47q1 2 2 5.5t2 4.5q11 51 32 121l17 60q7 25 10 65h-35v-47h21q12 21 12 47q82 274 82 535q0 207 -82 534q0 41 -39 109v-115q34 54 21 76l-7 4q-11 3 -32 -35l55 -14l-12 43q-2 6 -2 26l-19 37l-2 2l-10 17q-37 87 -37 118q0 21 -2 31q-22 48 -47 66l-2 2l4 -4
l-88 180q16 2 33 2h202q3 -11 17 -49l8 -21v25l2 6l-20 -20l2 -31q0 -37 16 -53q3 -10 25 -35q3 -14 14 -25l8 -4q16 -58 90 -289v11l15 -5q10 0 10 54q-12 -19 -18 -30t-8.5 -16t-4.5 -8q-18 -18 -18 -67l2 -27q11 -30 26 -47h2l35 -22l6 -29q-4 -12 -4 -25v-14
q21 -182 23 -207q12 -123 12 -209z" />
    <glyph glyph-name="asterisk" unicode="*" horiz-adv-x="747" 
d="M623 1341l75 -45l-14 -26q-24 -3 -33 -21l6 -12q-2 2 -6 -5q-1 -2 -2 -3v-2q6 3 6 -2l-6 -8l-6 -9l-22 13q-10 23 -48 43q-39 22 -49 22l-49 29q-4 12 -29 26q-10 7 -26 13l-19 -19q21 -9 39 -24v1v0v0v0v0v0v-1v0v-1v-1v-1v-1v-1v-1v-1v-1v-1v-1v-1v-1v-1v-1v-1v-1v-1
v-1v-1v-1v-1v-1v-1v-1v-1v-1v-1v-1v-1v-10l-24 -12l16 -27l-4 -43l-20 -5q-21 -5 -21 -9t19.5 -3.5t21.5 -3.5v-90q-8 2 -29 2q-17 17 -34 17q-3 -5 -9 -13q0 5 -12 5q-5 0 -2 -3q5 -3 2 -6h-10q-6 2 -10 2q0 15 2 27q12 15 12 64q0 44 -6 53q2 18 2 55q8 8 8 39q0 9 -4 37
l-25 6q-2 0 -2 -23q3 -22 0 -22l-32 -21l-25 15l-14 -25l-39 -20q-18 18 -33 28q-2 0 -2 -4l6 -8q5 -8 9 -16t1 -11l-76 -45l-16 27q9 21 0 39h-14q2 2 -4 12q0 -1 -6 -4l-7 8q2 0 2 2l-4 9l23 14q21 -3 61 18q20 10 43 33q29 14 49 27q16 -3 54 22l-217 129q-4 7 -17 15
l27 39l26 34l31 -12l-4 -6h-18q-17 -24 -15 -29q2 -2 2 -4q3 6 6 6.5t10.5 -1t22.5 2.5l21 11l33 -17q6 -9 30 -18l29 -13q26 -20 72 -47h4q2 51 2 240l6 23l45 -3l43 -6l6 -32h-8l-8 16h-17q-8 0 -13.5 -1.5t-7.5 -3.5l-1 -1q1 -1 8.5 -6.5t22.5 -22.5l18 -12l2 -37
q-3 -12 0 -37l4 -31q0 -3 -3 -39t-3 -45q14 8 51 29t77.5 44.5t82.5 47.5q13 0 22 6l21 -41l16 -41l-26 -20q0 2 -4 6l10 17q1 0 -3.5 6.5t-9.5 13t-6 6.5h-4q3 -7 2.5 -7.5t-6 -9.5t-8.5 -22v-22l-31 -19q-10 -3 -32 -18l-25 -19l-76 -38l-18 -13l6 -16q10 7 41 20l33 -18
l-2 -29l30 2l37 -24q-6 -13 -10 -43q3 -3 8.5 5t11 17.5t9.5 9.5z" />
    <glyph glyph-name="plus" unicode="+" horiz-adv-x="1443" 
d="M1251 795v-54q-50 3 -145 -12q-107 -15 -141 -18q-22 16 -64 16q-5 0 -12.5 -2.5t-11.5 -3.5h-3l-12 -6h-31q21 -52 37 -68q5 -53 11 -90q-10 -17 -13 -33q-10 -27 -10 -55q0 -104 25 -135l4 -35q-50 -6 -84 -8q-17 10 -35 10q-7 0 -23 -4q-19 16 -41 16t-49 -34
q-3 -1 -47 -5l-8 316q12 21 12 55q0 16 -6 37l-6 20q0 5 -2 7l-2 2q-54 28 -113 28q-112 0 -139 -18h-35l-6 12q-26 51 -61 51q-32 0 -60 -22v223h2q18 0 31 8h63q56 -2 318 4q2 16 -8 72q-8 44 -8 55l6 74q3 53 -9 74q0 21 -2 41q3 2 43 33v6q2 2 7 2q3 0 20.5 -10.5
t20.5 -10.5q2 0 2 4q0 17 -4 95q0 15 -5 20l181 12v-10q-2 -6 -2 -24q3 -25 0 -91q-7 -92 -5 -116q5 -136 11 -246h30q21 0 54 33q9 0 33.5 -18t33.5 -17q12 -4 23 -4q12 0 50.5 7t45.5 7q4 0 53 -8q34 -3 47 10q7 0 35 4v-76q-10 -20 -10 -41q0 -8 4 -20q-16 -22 -16 -45
q0 -15 6 -12q11 2 20 -2z" />
    <glyph glyph-name="comma" unicode="," horiz-adv-x="567" 
d="M444 133h-9t-4 -8.5t-3 -28.5q37 -3 31 -55q-10 0 -27 -10l17 -17q-3 -17 -31 -45l-203 -323q-16 0 -57 20q-56 24 -56 51q0 9 2 13q55 70 64 84q11 19 47 84q3 3 31 -9q27 -15 30 -8q4 8 -20 29q-23 23 -20 29q34 73 36 73q-14 9 -47 0q-2 2 -2 11q0 5 4 29t4 28
q0 10 -6 10q-13 0 -22 -39q-6 -27 -15 -45q-14 -2 -53 -2q-6 65 0 205q1 7 19 19.5t18 25.5q0 6 -9 15t-18.5 15t-9.5 7q0 3 9.5 22.5t9.5 22.5h92l12 -80l14 86l172 -6q0 -4 2.5 -25.5t2.5 -25.5q0 -9 -23 -13t-23 -6q0 -1 3 -4l43 -49q-3 -3 -3 -8t9.5 -24t9.5 -23
q0 -19 -21 -25z" />
    <glyph glyph-name="hyphen" unicode="-" horiz-adv-x="774" 
d="M682 825l49 -41q0 5 -2 7l-10 -43q-2 0 -32.5 15t-39.5 15q-6 0 -10 -4v-4l-16 -33h-13l2 2q-31 17 -94 17q-10 0 -53 -19q-5 -5 -76 -8l-55 6l-23 62l-18 -60q-3 -3 -10 4q-4 2 -13 2q-27 0 -53 -16q-63 0 -133 2q0 5 -25.5 20.5t-25.5 20.5q22 22 22 51q0 21 -14 41
q4 12 4 21q0 18 -10 35v8q0 13 2 34.5t2 32.5q10 -2 29 -2q5 -5 18 -28q6 -13 25 -13q16 0 45 13h2v2q14 3 26 12q6 -1 16 -1.5t25 -1t27 -1.5q7 -7 22 -4q23 10 27 10q12 0 84 10q4 1 6 -1t2 -7v-3q0 -3 -0.5 -7.5t-1.5 -9.5q0 -13 6 -13q18 37 35 37h94l21 -49l49 49h133
q21 -61 0 -135z" />
    <glyph glyph-name="hyphen" unicode="&#x2010;" horiz-adv-x="774" 
d="M682 825l49 -41q0 5 -2 7l-10 -43q-2 0 -32.5 15t-39.5 15q-6 0 -10 -4v-4l-16 -33h-13l2 2q-31 17 -94 17q-10 0 -53 -19q-5 -5 -76 -8l-55 6l-23 62l-18 -60q-3 -3 -10 4q-4 2 -13 2q-27 0 -53 -16q-63 0 -133 2q0 5 -25.5 20.5t-25.5 20.5q22 22 22 51q0 21 -14 41
q4 12 4 21q0 18 -10 35v8q0 13 2 34.5t2 32.5q10 -2 29 -2q5 -5 18 -28q6 -13 25 -13q16 0 45 13h2v2q14 3 26 12q6 -1 16 -1.5t25 -1t27 -1.5q7 -7 22 -4q23 10 27 10q12 0 84 10q4 1 6 -1t2 -7v-3q0 -3 -0.5 -7.5t-1.5 -9.5q0 -13 6 -13q18 37 35 37h94l21 -49l49 49h133
q21 -61 0 -135z" />
    <glyph glyph-name="period" unicode="." horiz-adv-x="573" 
d="M449 49l2 -39q-7 0 -28.5 -3t-33.5 -3l-47 47q11 -21 14 -51q-42 31 -82 16q-21 21 -45 21q-27 0 -55 -31q-14 -2 -51 -2q0 107 14 184q1 4 10 30.5t9 39.5q0 6 -4 18t-8 20l-5 9v17q2 6 2 14h92l13 -80l14 86l172 -6q0 -4 2 -25.5t2 -25.5q0 -9 -20.5 -26.5t-20.5 -20.5
l4 -7l37 -18q-8 -8 -2 -45t-2 -45q-14 -17 -14 -29q0 -3 31 -45z" />
    <glyph glyph-name="slash" unicode="/" horiz-adv-x="1009" 
d="M1032 1874q-47 -107 -57 -125q-29 -62 -68 -113l2 -51q3 -27 -47 -139l-65 -143l10 8q-4 -4 -240 -643q-3 -7 -22.5 -23.5t-22.5 -23.5q6 -18 6 -54q-190 -517 -178 -551l-26 -79q-62 -24 -62 -123q0 -14 4 -64q-95 -3 -155 45q-15 35 -54 35q-18 0 -34 -8l-43 22
q37 102 63 164q52 125 80 150q-3 38 47 159q132 322 371 1012q9 25 14 25q3 0 11 -22.5t12 -22.5q7 0 16 20l-27 107l68 -39l2 57l-62 51l134 336q21 34 45 37h43q-38 38 -58 68l68 55q72 -48 225 -127z" />
    <glyph glyph-name="zero" unicode="0" horiz-adv-x="1656" 
d="M1620 872q-233 -278 -236 -297q-11 -15 -122 -120q-78 -78 -84 -113l-21 29l-29 -86q-44 -78 -137 -156l-129 -168l-26 16l-160 164q-31 42 -31 68q0 3 21 92l-58 -88l-141 156q-54 73 -96 188v-57q-24 24 -43 61q-32 56 -39 64q-40 -12 -99 77q3 15 -26 48
q-30 35 -27 57q-41 22 -82 29l-24 22q16 19 8 19q-3 0 -6 -3l164 187q111 129 114 158l107 -54l-64 78l213 240q189 216 189 248q0 11 32 51l23 -17q0 7 4 7q11 0 55 -50q45 -48 45 -57l-38 -51l69 20l187 -207q106 -127 145 -237v57q2 -1 12.5 -14t39 -48.5t54.5 -68.5
q26 0 46 -26l28 -50q-9 -21 15 -30q6 -30 36 -45l4 -29q42 -22 78 -29l27 -22q-4 -4 -2 -6zM1186 754l106 -25q-26 40 -63 72q9 41 51 47l-27 41h-10q-22 43 -102 129q-87 97 -111 135q-68 107 -78 117q-61 80 -102 88q-4 4 -9.5 11t-13 17.5t-12.5 16.5q-25 -28 -65 -92
q-23 -39 -76 -80l-86 -105q-80 -70 -113 -104q-56 -62 -59 -107l-19 -26v-12q0 -16 31 -52q32 -32 29 -37h16q102 -138 162 -221q128 -174 164 -180q10 -14 41 -45q109 144 278 299h-10z" />
    <glyph glyph-name="one" unicode="1" horiz-adv-x="804" 
d="M670 8h-15v-57h-43q-23 26 -53 26q-26 0 -41 -18l12 -4l-18 -4q0 2 6 8q-12 4 -18 4q-26 0 -41 -12h-107l4 35q5 59 19 153q0 19 12 19q4 0 18 -4t17 -4q14 0 14 20l-69 12q1 16 2 47.5t2 44.5l6 9v6q12 15 12 71q0 7 -16 50l4 73q-6 6 -6 11q3 14 0 28l-17 -2l115 23
q-44 10 -76 20q-16 -6 -33 2l-2 8l4 238l31 -4q-1 3 -4 8t-4 6l-12 19v53q-11 22 -11 25q4 4 5 4q6 0 32 -23q-3 33 -8 45l-4 14q0 3 -4 11v4l-8 20l14 56q-2 32 -14 77q0 -6 -2 -8q2 2 2 8q3 12 6 58l-2 2q-1 0 -27 -23q-3 -6 -12 -12q-8 -5 -8 0q0 -8 -4 -8q-20 0 -23 31
l-33 40l-2 -22q-3 -3 9 -37q12 -30 6 -45l-64 -55l-26 16q-30 20 -56 59l33 41l-72 -8q2 2 2 8q0 11 -30 35q-31 28 -31 39q0 4 2 6l12 13l17 12l22 -14l2 45l13 -4l30 12l47 45l-22 8q6 8 33 31l16 10q3 0 -1 -7.5t-9.5 -16t-5.5 -9.5l20 6q0 5 14 25q0 20 33 29
q34 9 31 18q-3 13 37 37q52 35 59 41l25 33q4 -11 12 -19h18l3 -10q8 -2 26 -2l-10 76l133 123l55 4v-150h-6l-2 -43q12 -20 14 -26l-14 -11v-12q-3 -3 -20 -31l4 -8l-2 -22l14 -7l-4 -41l2 -2l4 -16v-106l-86 -35q0 -3 39 0h37q0 -7 -2 -13v-16q0 -10 2 -16q1 -1 -2 -43
v-13l-2 -4l-68 -37l74 -10q0 -90 2 -153l8 -269q-18 -7 -37 -26h29q0 -55 2 -90v-2v-11q-3 -102 0 -172l-2 -6l12 -14l4 -88l-3 -6q-4 -5 -5 -9l6 -159q-9 -5 -22 -27q0 -4 20.5 -17.5t20.5 -17.5z" />
    <glyph glyph-name="two" unicode="2" horiz-adv-x="1257" 
d="M1145 1122l43 -57l-60 -35l9 10l-2 -22l-7 12l-28 -26q3 -16 -70 -70l12 -8q-22 -42 -28 -70q-20 -9 -17 -33l-59 -61q-14 -1 -28.5 -13.5t-21 -22.5t-18.5 -30l-18 -45l-14 -43l-52 82l9 -76l20 -24l-162 -178l-61 24l39 -55q-36 -60 -96 -98q39 8 380 8l19 -55l24 57
l218 4l-2 -80l-62 -22l62 -35l-5 -154l-94 -8l-2 2l-12 47l-45 12l-23 -57l-37 23l-20 55l-8 -68q-56 -7 -140 -10q-80 6 -483 6q-37 0 -72 2q-31 2 -71 2q-47 -3 -72 -10l-4 55l39 35l18 12l29 -2q26 23 27 23q-3 41 -31 57v15l108 20l7 12l-2 4l-62 -4q-6 0 -20.5 13
t-16.5 14h-2l39 20l98 7l-51 59q104 163 250 293l107 -45l-37 72q3 13 -7 43.5t-10 35.5q0 10 6 13q130 163 156 198q4 4 8 4q7 0 34 -18t32 -18q4 0 8 4q5 5 -22 32q-29 29 -25 33q1 9 -8.5 24.5t-9.5 16.5q0 -1 2.5 1.5t9 10t13.5 15l21 22.5t25 27l-149 18q0 11 4 15
q6 3 26 -6l-8 41l-2 40l-69 -4q-6 3 -172 172l34 103q-2 2 -8 2q-8 0 -47 -25q-39 -22 -47 -22q-4 0 -6 2q-24 24 -72 55q-61 40 -76 55l84 93h43v47l86 96l78 -105v-30q0 -13 -29 -23q-26 -6 -26 -16l4 -6q45 26 53 26l84 -4q73 -90 129 -139q91 -73 94 -76t-6 -43
q-14 -43 -14 -59q0 -4 4 -8q5 -5 37 28q34 34 41 31q194 -173 256 -242zM1004 918v2v-2z" />
    <glyph glyph-name="three" unicode="3" horiz-adv-x="1220" 
d="M1124 543q-137 -115 -223 -181q-29 -16 -43 -16q-5 0 -12 2l-8 2q-16 0 -43 -61l-254 -150q-21 -12 -62 -12q-30 3 -39 -12l-34 -39q-73 -42 -101 -56q-60 3 -94 -43q-3 -1 -7 5t-9 18q-13 25 -19 23q-5 0 -14 -33q-9 -35 -15 -35q-2 2 -2 4l-39 -8v250q0 20 23 20
q4 0 23 -3t24 -3q36 0 39 41q0 -4 4 -4q9 0 68 35q51 34 59 26q3 -26 31 -26q44 0 41 90l217 129q41 21 80 55l-80 43l-37 33q-8 9 -16.5 18t-11.5 12.5t-3 4.5q39 -3 39 2q-24 37 -47 37l-17 3q-16 4 -37 7.5t-32 3.5q-15 0 -24 -6l-152 94l-123 61q9 41 19 41q1 0 8 -7
t10 -7q10 0 22 39q15 -6 37 25q19 32 41 32q9 0 13 -2l86 56q38 39 88 79q31 8 110 78l45 41q-9 0 -84 37q-73 37 -82 31l-22 6v14q0 12 -27 9l-317 151l-2 74l24 26l-16 54q8 33 8 53q0 4 -2 13.5t-2 13.5q0 14 12 55q3 -3 76 -25l6 -26q13 -2 45 -11l136 -59l200 -92
l29 -43l41 -8q6 2 174 -90q111 -61 213 -121q-18 -10 -82 -90q-57 -75 -80 -88l-47 -50q-37 -32 -127 -41l16 -34q-23 -29 -116 -90q40 -12 80 -46l57 -49q5 -5 -14 -20q-11 -8 -14.5 -12.5t-3.5 -9t-3 -9.5h2q1 0 86 31q18 -23 101 -92q6 -3 102 -90q76 -67 104 -78z" />
    <glyph glyph-name="four" unicode="4" horiz-adv-x="1363" 
d="M877 1094q-14 17 -21 22l6 43l-121 -180q-33 -19 -41 -31.5t-12 -56.5q8 -8 8 -12t-15.5 -10t-16.5 -9l-17 4q-3 1 -12 14t-12 13q-8 0 -5 -33q6 -39 0 -51l-32 -6l-19 -6q-4 -4 -4 -9q-1 -6 -4 -14.5t-4 -11.5q0 -18 8 -29v-8v-8q2 -2 2 -8q-1 0 -8 -1t-16 -3.5
t-19 -6.5t-20.5 -12t-18.5 -20q33 0 33 -6v-3v-2l-10 -20l65 20q7 3 13 0q4 -1 9 -2l7.5 -1.5t3.5 -0.5t21 4l84 -20l-29 14h22l117 6h23q18 64 18 127q0 122 -18 156v39q20 11 20 82q0 8 6 14.5t12 10.5l5 3q0 4 -8 9zM860 1393l-57 -2h8q22 29 25 77q3 5 34.5 23.5
t38.5 26.5l-12 28l43 15l-6 43q8 8 47 30q16 10 16 33l37 41q4 -4 8 -4l9 37q9 36 51 39q5 -5 2 -97q-3 -89 4 -96q-8 -8 -8 -18q0 -1 2 -8t2 -11q0 -10 -12 -22l20 -66v-4q-27 -35 -27 -57q0 -21 23 -51l2 -7q6 -18 6 -90q0 -78 -2 -133l-2 -84l-20 -104l-88 -64l83 6
l3 -258l32 29q-2 0 -2 -2q13 0 62 -6t65 -6q28 0 56 22l4 -141l-78 -10l78 -41l-13 -82q-6 2 -16 2q-14 0 -23 -6q-6 3 -49 0q-34 -3 -141 6q12 -47 16 -51q10 -53 17 -68q-7 -14 -4 -76l4 -77q0 -14 -10.5 -32.5t-10.5 -19.5q0 -7 21 -16q-3 -19 -11 -27q-11 0 -30 -9
t-31 -9l-8 2q-15 12 -37 12q-6 0 -18 -4q-19 19 -41 19q-44 0 -50 -9l-26 31q3 47 0 62q12 27 12 49q0 12 -27 104q15 53 15 66q0 1 -1 7.5t-3.5 21.5t-5.5 32q-9 -36 4 -39q-2 0 -2 -2q4 8 4 10l-6 17l-5 10q0 -4 5 -4l-17 22q-16 -2 -31 -2q-32 -4 -45 -14h-38
q-8 12 -11 27q-27 37 -57 37q-15 0 -29 -7t-21.5 -14t-20 -21.5t-17.5 -19.5q-2 -2 -4 -2q-28 -1 -114 8t-120 8l-6 15l-31 -4l-6 -4q-11 0 -22 32q-9 33 -15 33q-2 0 -2 -2q-2 1 -4.5 -2t-6.5 -11.5t-9 -21.5q-12 -39 -23 -39q-4 0 -6 2l-14 -14l-55 23l-80 -15q2 22 -2 56
l41 51l36 43l91 10l-64 27l70 63q24 4 29.5 10t7.5 25q6 35 8 37l37 57l37 33q15 13 30 20q15 29 17 41l47 -4l-33 47q39 46 84 95q77 103 88 120l59 58l9 28q9 33 49 60l33 -25l65 99l64 6l69 88z" />
    <glyph glyph-name="five" unicode="5" horiz-adv-x="1161" 
d="M1083 1030q-69 -103 -129 -176l-28 -37q-9 -13 -15.5 -22t-10.5 -12.5t-5 -2.5q-59 0 -59 -32l2 -68l-238 -303q-3 -6 -57 0q-16 2 -47 2l61 -45l-6 -6l-10 -6q-23 -3 -45 -17l-25 -14l47 -12l-6 -15l-41 -80q-2 -2 -14 -5t-24.5 -9.5t-20.5 -17.5q-20 -26 -11 -52l-2 -6
l-123 -166q-18 15 -45.5 40.5t-73 67.5t-79.5 73q22 6 80 32l-13 56l97 112q27 30 73 99q21 33 70 96l51 80v-45l-6 -27l-6 -25q6 -1 26.5 18t22.5 19q4 4 10 62q9 59 13 63l57 -16l-49 55l61 62q25 -7 43 -7q48 0 62 33l-72 33l64 61l-166 9q-5 0 -2 26q3 25 -15 29
q-6 -26 -22 -55q-11 0 -127 26q-14 0 -25 -10.5t-17.5 -21.5t-8.5 -11q-60 -2 -177 8q-6 3 -6 13q0 11 15 49q16 40 16 51q-3 54 -16 80v41l24 14l23 17v6q1 1 -4.5 6.5t-16.5 13.5q-22 19 -22 27q0 9 4 67q0 5 -13 31q-1 21 10.5 84.5t8.5 104.5q17 -17 22 -17q11 0 11 27
l-4 22q7 18 4 33q-3 28 -27 25l-2 155l129 11l25 -21l53 -20l29 26q12 4 18 10l10 5q11 -2 105 -5q20 -10 43 -10q47 0 141 -6l-25 12q68 -2 404 -2l-4 -170l-41 -26l41 -29l4 -51l-14 2q-46 22 -121 22q-92 0 -92 2q-54 -3 -72 -16h-37l-2 6q-16 32 -74 17q-3 -1 -19 13
t-24 13q-10 -10 -22 -30q-12 -4 -27 -19h-45l-113 12l-20 -41q-55 6 -55 -16q0 -4 12.5 -6t26 -2.5t14.5 -1.5l2 -8l8 -11q-47 -11 -100 -30l84 -9l-11 -28l-2 -19l-6 -16v-10q-15 -87 2 -123l-35 -66l64 4q3 -5 47 -2q29 2 38 0.5t13 -5t6 -3.5q4 0 22 9.5t21 9.5
q10 0 35.5 -15.5t28.5 -15.5q4 0 15.5 14t13.5 19h30h-6q-4 0 -2 2l29 4q13 -13 47 2l27 -15l24 -24l16 24q4 3 10 -0.5t10 -8.5l5 -5q4 4 4 6q30 -9 105 0l49 17q4 2 12 2q7 0 15.5 -5t13.5 -11l4 -5l-4 -6q35 -2 71 21q9 -24 9 -54q0 -11 -9 -8zM350 1270q-2 -14 -2 -29
q0 23 2 29z" />
    <glyph glyph-name="six" unicode="6" horiz-adv-x="1556" 
d="M1501 926l-88 -156q2 -7 -4 -10l-8 33q-1 2 -5.5 -4t-14 -12t-19.5 -3q3 -38 -66 -131q-12 -27 -168 -272q-142 -219 -145 -252l-22 -31l-17 6l-47 -94l-51 -68l-33 2l-25 72l-32 -55l-41 67q-19 28 -56 52l-264 403q8 -14 35 -14q25 0 25 22q0 12 -17 43l-94 17l-51 86
q-17 -8 -70 57q-36 45 -57 82q-3 27 0 88h-29q-24 -21 -37 -18l-24 32l-15 15l2 2l3 2v2v2q45 45 178 188q6 0 11 4t7.5 8t6 13t5.5 12l9 19q3 6 12 12l6 20q8 8 174 201q128 70 143 148l25 30q3 -1 10 9.5l14 21t11 10.5q12 0 45 8q37 9 47 19q4 -2 12 -2t29 10t25 10
q6 0 14 -4q2 4 2 8t-25.5 14t-29.5 23v31q0 18 77 104l183 -204q-16 -12 -58 -50q-10 -4 -17.5 -8.5t-13.5 -11.5t-9.5 -12t-7 -14.5t-4.5 -13.5t-3.5 -14.5t-3.5 -13.5q-63 -71 -147 -149q-100 -93 -148 -156q-10 -6 -47 -35l-29 -8q-6 -3 -6 -10q0 -2 3.5 -14t2.5 -15
q-18 -14 -73 -69l122 -17l60 27l2 -2q37 -29 68 -29q32 0 53 21q5 0 57 -11q5 0 26 6t46 5q5 -1 11 -8t9 -7t32 -11.5t32 -12.5q-43 3 -43 -8q0 -7 20 -7q42 0 90 48l201 -11l-6 -86l59 86l156 4q10 -10 10 -18q0 -4 -5 -12.5t-12.5 -19.5t-8.5 -13q3 -1 11.5 -4t14.5 -4z
M53 891l8 -8l-6 -13zM1028 629l125 6q-43 24 -86 37q5 20 9.5 33.5t8.5 19t7 4.5l6 6q-80 0 -84 2q25 22 53 70l-49 -19q-4 0 -19 -30q-13 -10 -18 -17l-10 -4q-33 2 -221 2l-84 -2h-25q-27 15 -49 15l-21 12l-88 -27l47 -57q2 -18 2 -55q3 -13 41 -25l93 -141
q62 -92 92 -101q-6 -38 20 -47q23 -8 37 -10q33 49 49 90q10 25 62 76zM158 946zM1067 672q-2 0 -2 -4q0 -2 1 1z" />
    <glyph glyph-name="seven" unicode="7" horiz-adv-x="1224" 
d="M1059 1706l119 4l-131 -326q-38 -94 -64 -137q-2 -10 -2 -65q0 -7 -53 -107l16 12l-96 -51l53 -14l-6 -47q-13 -22 -45.5 -60t-46.5 -65l31 33q-26 -79 -129 -293l-70 -111q-6 -29 -49 -98q-37 -61 -37 -105q0 -6 4 -26q-9 -18 -12 -12q-10 14 -29 -2l20 -41h-65l14 -66
l-30 -57q-25 -22 -25 -31q20 -22 20 -55q-4 -12 -12 -35l-104 45q-69 30 -84 63l30 91l-67 -76l-43 22l231 453q174 344 164 371l31 88l8 -31l18 72l39 -58l33 31q-3 17 -20 57q-19 46 -19 64q0 10 2 16l113 281q-50 4 -64 4q-22 0 -54 -7t-42 -7q-17 0 -69 10l-31 51
l-21 -45q-54 8 -67 4q-32 -16 -35 -16h-2q0 -6 6 12q3 10 -12 10q-11 0 -17 -2l-41 41q-4 -4 -4 -6q0 -9 13 -29l8 -10l-47 -20l-62 4q4 4 4 10q0 20 -24 57l-4 -51l-47 72l-11 -41l9 -23q16 -29 16 -33q0 -2 -2 -2q-8 0 -15 2.5t-10.5 6l-6.5 6.5l-3 2q-8 0 -16 -8l-33 -5
v52q0 13 -6 53q-3 29 0 51l-4 -4q-12 0 0 12l2 2l2 -10l6 86q-6 9 -6 12l5 4q5 4 10.5 10.5t6.5 14.5q53 -3 117 2q77 9 117 6l67 -55l21 47q60 -8 133 -8q37 0 145 6q118 4 162 2l35 -2l33 -57l12 43l72 -37q21 31 47 49z" />
    <glyph glyph-name="eight" unicode="8" horiz-adv-x="1421" 
d="M1380 518q-9 -6 -92 -86q-65 -65 -94 -65l-6 4q1 0 -21.5 -23t-87.5 -88q-113 -116 -202 -137l-21 -64q3 -10 -59 -45l-31 41l4 -67l-33 -54l-26 33l-19 -28q-10 2 -65 57q-50 50 -60 70l27 63l-64 -37l-245 223l-17 35q-9 27 -22 27l-15 -2q-46 18 -98 67q-73 70 -90 82
q22 9 231 250l48 -20l22 -6l10 -3l-6 11l-26 39q13 11 49 65q27 44 59 55q-18 10 -56.5 47.5t-49.5 43.5l16 36q-79 9 -125 52q-27 24 -57 86q-27 52 -54 69q64 45 144 127l45 -33l14 74l271 262q11 11 43 52l59 -21l-12 57q4 0 14.5 10.5t13.5 10.5q6 0 9 -8l30 14l6 -29
l15 -4l4 -26l43 -11q4 -7 18.5 -24t22.5 -27l155 -129l15 -74l84 -18q44 -49 108 -113q64 -65 117 -102q-30 -21 -94 -119q-48 -72 -146 -84l15 -35q-19 -24 -105 -90q33 -11 60 -55q37 -57 49 -66q-16 -16 -23 -22q-12 -12 -12 -25l2 -2q7 0 80 29q209 -241 231 -250z
M1008 1229q0 23 -82 90t-95 61l-20 6q2 20 -8.5 33.5t-28.5 12.5l-57 53l-135 -117q-27 3 -27 -14q0 -7 2 -11l-59 -40q-4 4 -6 4q-7 0 -7 -9q-5 -21 -14 -49q-11 -20 -47 -20q185 -170 278 -236l25 -2q93 68 272 232q9 3 9 6zM1018 543q-47 37 -94 96h34q-26 51 -106 51
q-15 0 -35 -4l-108 105l-103 -99q-9 6 -22 6q-91 0 -121 -53h37q-50 -60 -97 -96l3 -4l30 -19q0 -2 -2 -2l178 -153v-17q-3 -57 17 -57q22 22 22 37l4 2q4 0 10.5 -7t17 -20.5t15.5 -19.5q1 -1 5 -2t6 -2q0 -9 4 -29l2 23q0 -7 2 -7q3 0 22 29t27 29l4 -2q3 -37 25 -37
q19 16 16 74l176 153q0 3 15.5 12t15.5 13z" />
    <glyph glyph-name="nine" unicode="9" horiz-adv-x="1556" 
d="M1499 870l2 -20l-8 8zM1481 872l12 -14l-2 -2h2l-2 -2l-2 -2l2 -2q-44 -42 -180 -188q-5 0 -9 -2t-7.5 -6.5t-5 -7.5t-4 -10.5t-3.5 -8.5q-3 -6 -10 -16t-11.5 -18.5t-7.5 -17.5l-172 -202q-130 -71 -145 -148l-23 -28q-4 1 -10 -10t-13 -22t-13 -11l-46 -11
q-38 -9 -45 -16q-4 2 -12 2q-9 0 -30 -10t-25 -10t-12 4q-5 -5 -5 -9t26 -13.5t30 -22.5v-31q0 -15 -78 -105l-180 205l57 49q20 8 33 25.5t16.5 29t9.5 35.5q40 48 148 150q87 83 147 154q22 13 45 34l29 9q8 3 8 10q0 5 -6 14q-4 11 0 15l74 69l-123 17l-61 -25h-3
q-37 29 -67 29q-32 0 -53 -21q-34 8 -56 10q-9 0 -28 -5t-43 -5q-7 3 -13.5 8.5t-9.5 5.5t-30.5 12t-30.5 13q41 -3 41 8q0 8 -19 8q-46 0 -92 -49l-201 11l7 86l-60 -84l-156 -7q-8 8 -8 19q0 4 4.5 12.5t12 19.5t8.5 13l-12 4t-15 4l88 156q0 7 6 10l7 -33q1 -2 6.5 4
t15 12t17.5 3q-3 39 65 131q7 17 170 272q142 219 145 252l21 31l16 -6l47 94l52 67l32 -2l27 -71l31 55l43 -68q15 -23 53 -51l266 -403q-8 14 -35 14q-24 0 -24 -22q0 -18 14 -43l94 -17l60 -88q13 5 61 -53q33 -41 58 -82q2 -18 2 -90h26q27 21 37 18zM983 977l88 27
l-47 57q0 37 -2 55q-3 14 -41 25l-92 141q-61 91 -92 100q3 9 1 17t-2.5 13t-6 9.5t-8 6.5t-9.5 4.5t-10.5 3t-10.5 2t-10 2.5q-32 -48 -49 -88q-15 -30 -63 -78l-103 -162l-125 -6q43 -24 86 -37q-5 -20 -9.5 -33.5t-7.5 -19t-5 -4.5l-8 -6q80 0 84 -2q-25 -18 -52 -70
l48 18q1 0 20 31l18 16l9 7q88 -5 221 -5l84 5h24q31 -17 50 -17zM489 1073q0 -4 -2 -4l2 5v-1z" />
    <glyph glyph-name="colon" unicode=":" horiz-adv-x="544" 
d="M442 1122q0 -107 -14 -184q-1 -4 -9.5 -30.5t-8.5 -39.5q0 -6 4 -18t8 -20l4 -9v-16q-2 -6 -2 -14h-133l-12 79l-35 -86l-111 7q0 4 -2 25.5t-2 25.5q0 9 20.5 26.5t20.5 20.5l-4 6l-37 18q8 8 2 43q-6 40 2 48q14 17 14 30q0 6 -30 43l-2 39l82 6l32 -41q4 0 10.5 22.5
t10.5 22.5q42 -31 82 -16q20 -20 24 -20q5 0 9.5 1.5t8 5.5t5.5 6.5t6 8.5t6 8q14 2 51 2zM428 49l2 -39q-7 0 -28 -3t-33 -3l-47 47q11 -21 14 -51q-42 31 -82 16q-21 21 -45 21q-27 0 -55 -31q-14 -2 -52 -2q0 101 15 184q1 4 9.5 30.5t8.5 39.5q0 6 -4 18t-8 20l-4 9v17
q2 6 2 14h92l12 -80l15 86l172 -6q0 -4 2 -25.5t2 -25.5q0 -9 -20.5 -26.5t-20.5 -20.5l4 -7l37 -18q-8 -8 -2 -45t-2 -45q-15 -18 -15 -29q0 -3 31 -45z" />
    <glyph glyph-name="semicolon" unicode=";" horiz-adv-x="577" 
d="M475 1122q0 -107 -14 -184q0 -6 -8.5 -31.5t-8.5 -38.5q0 -6 4 -18t8 -20l3 -9v-16q-2 -6 -2 -14h-133l-13 79l-35 -86l-110 7q1 5 -1.5 27t-2.5 24q0 9 20.5 26.5t20.5 20.5q0 2 -4 6l-37 18q8 8 2 43q-3 40 2 48q14 17 14 30q0 6 -30 43l-3 39l82 6l33 -41q4 0 11 22.5
t10 22.5q41 -31 84 -16q17 -20 22 -20q18 0 35 30q14 2 51 2zM444 133h-9t-4 -8.5t-3 -28.5q37 -3 31 -55q-10 0 -27 -10l17 -17q-3 -17 -31 -45l-203 -323q-16 0 -57 20q-56 24 -56 51q0 9 2 13q55 70 64 84q11 19 47 84q3 3 31 -9q27 -15 30 -8q4 8 -20 29q-23 23 -20 29
q34 73 36 73q-14 9 -47 0q-2 2 -2 11q0 5 4 29t4 28q0 10 -6 10q-13 0 -22 -39q-6 -27 -15 -45q-14 -2 -53 -2q-6 65 0 205q1 7 19 19.5t18 25.5q0 6 -9 15t-18.5 15t-9.5 7q0 3 9.5 22.5t9.5 22.5h92l12 -80l14 86l172 -6q0 -4 2.5 -25.5t2.5 -25.5q0 -9 -23 -13t-23 -6
q0 -1 3 -4l43 -49q-3 -3 -3 -8t9.5 -24t9.5 -23q0 -19 -21 -25z" />
    <glyph glyph-name="less" unicode="&#x3c;" horiz-adv-x="1058" 
d="M1036 539l-125 -172q-76 47 -84 55q3 27 9 27q-11 -7 -31 -7l-29 19v-4q-109 62 -192 112l-88 54l-45 43l2 39q-14 -14 -35 -23l-53 23q-22 22 -74 43q-8 3 -28.5 14.5t-31.5 17.5l-2 8l-12 9q16 14 33 37l-29 -5l-14 -6l10 -8h-22q-5 -8 -7.5 -10.5t-3.5 -1.5l-22 12
l-27 10q-20 6 -20 19h-4q-12 4 -39 28l22 9l2 12q13 0 27 2l49 -23q-21 21 -35 31l-20 10l24 19q20 12 55.5 23t53.5 24q19 3 33 9.5t19.5 13t9.5 12.5t5 6l162 102q40 13 85 39.5t52 44.5l27 21q16 -3 19 -17l-7 25q-2 5 4.5 7.5t18.5 2.5q70 0 74 4q12 -3 49 6
q-19 3 -31 15v18q80 64 145 107l113 -156l-57 -31q-11 -3 -19 -6.5t-13 -9t-7 -7.5t-6 -10.5t-4 -9.5q-142 -74 -273 -155q-12 -2 -45 -19l-24 23q-2 -10 -2 -29l2 -2q6 -8 0 -14q-104 -50 -101 -82q-24 4 -43 4l27 -21q4 -6 20 -22q1 0 164 -94l-8 -62q9 15 16 26
t11.5 15.5t5.5 3.5q15 -18 94 -61q84 -44 115 -47l-39 -39q8 4 26 12q27 12 29 12l37 -24q8 -6 37 -12q50 -31 65 -39z" />
    <glyph glyph-name="equal" unicode="=" horiz-adv-x="1425" 
d="M1237 1040v-53q-31 0 -133 6q-104 4 -133 2q-24 17 -64 17q-2 0 -51 -15q2 0 27 7q-8 -12 -62 -15l35 8q-38 0 -98 -8t-101 -8q-17 0 -78 12.5t-79 12.5q-120 0 -152 -19h-35l-30 51q-3 -1 -18 5t-17 6q-34 0 -62 -25v236q19 -5 146 4q148 8 231 8q82 0 105 -10l-13 18
q16 -13 31 -16q10 -3 27 0q14 2 32 2q16 0 62 -17q46 -16 65 -16q33 0 62 33q14 1 43.5 2t40.5 2q54 -31 78 -31q50 0 102 43l35 4v-78q-16 -29 -8 -67l-2 -2q-15 -15 -15 -43q0 -30 29 -56zM1239 627l4 -68l-4 -76l-6 -45q-10 3 -10 15t-4 16q-4 0 -5 15t-4 16q-2 2 -7 -13
q-2 -6 -5 -16q-6 -29 -12 -29q-9 0 -6 82l-13 -32l2 -21l-18 -25l-18 -2l6 41l-21 39q-5 -8 -2 -18q4 -10 2 -12q0 -14 -4 -50h-39q-49 19 -155 19q-58 0 -105 -21l-250 -8l-6 4q-33 11 -43 11q-7 0 -31 8q-20 3 -30 -4q-219 -9 -242 -9q0 5 -7 15.5t-7 15.5q8 8 8 25l-4 30
q0 6 6.5 10t12.5 4l7 1l-4 4l-28 22h30q1 3 -10.5 14t-11.5 15q-3 24 -12 39l4 98q28 -4 34 -4q33 -33 117 -33q4 0 9 -5t7 -10l3 -5l4 4q3 -3 4.5 3t3.5 15t4 11q29 2 111 2q10 -10 59 -10q14 0 62.5 6t60.5 6q19 -8 61 -8q9 0 15 2q0 -7 32 -4l-2 20l29 -33l-6 31l29 -31
q-11 15 -11 21q0 10 19 10q250 -4 364 -4l13 -8q4 0 8 3.5t8 2.5l4 -21l-22 -16l20 -6z" />
    <glyph glyph-name="greater" unicode="&#x3e;" horiz-adv-x="1058" 
d="M1014 881l22 -9q-21 -17 -39 -28h-4v-2q0 -11 -20 -17q-1 -1 -4.5 -2t-10 -3t-12.5 -5q-22 -16 -22 -12q-1 -1 -3.5 1.5t-7.5 10.5h-22l10 8l-14 6l-29 5q-4 -4 14 -19q11 -8 15.5 -12.5t3.5 -5.5l-12 -9l-2 -8l-60 -32q-23 -5 -60 -29.5t-67 -36.5q-22 17 -35 23l2 -39
l-45 -43l-88 -54l-192 -112v4l-29 -19q-11 7 -31 7q6 0 9 -27q-11 -9 -84 -55l-125 172q15 8 65 39q3 -3 37 12l37 24q2 0 29 -12l26 -12l-39 39q32 3 113 47q81 42 96 61q1 1 5.5 -3.5t11.5 -15.5t16 -26l-8 62l164 94q4 6 20 22l27 21q-24 -4 -43 -4q3 32 -101 82
q-6 6 0 14l2 2q0 23 -2 29l-24 -23q-33 17 -45 19q-37 24 -137 77q-114 63 -136 78q-1 2 -3.5 8t-4 8.5t-5.5 7t-8 7.5t-11.5 6.5t-16.5 5.5l-57 31l113 156q63 -38 145 -107v-18q-12 -12 -31 -15q37 -9 49 -6q4 -4 74 -4q12 0 18.5 -2.5t4.5 -7.5l-7 -25q3 14 19 17l27 -21
q11 -22 57 -47q49 -27 80 -37l162 -102q0 -2 1.5 -5.5t18.5 -14.5t47 -21q18 -13 53.5 -24t55.5 -23l24 -19l-20 -10l-35 -31l49 23q15 0 27 -2z" />
    <glyph glyph-name="question" unicode="?" horiz-adv-x="1021" 
d="M977 1260l2 -56q-15 -26 -176 -162q-43 -3 -164 -92q-98 -73 -154 -129q-11 4 -44.5 -16.5t-34.5 -20.5q3 -110 -17 -200q3 -32 23 -76l-13 -62l-53 7q-18 2 -74 26l-24 -22l-47 2q-15 -15 -29 -15l-25 7q0 43 13 153q12 105 12 152q-4 34 -14 106q3 3 10 8t20.5 14.5
t26.5 18.5l53 -20l-22 39l94 65q95 65 98 80q43 24 74 39q38 25 47 74l96 28q-4 2 -15 6.5t-15.5 7t-13 7t-12.5 9t-8 11t-5 13.5l-15 49q-16 16 -20 16q-5 0 -11 -17.5t-8 -17.5q-5 0 -20 21q-29 40 -127 102q-101 64 -135 98l29 72l-72 -39q-37 19 -111 68l60 49
q13 49 32 74q65 80 72 80q2 0 2 -5l37 -24l4 6q51 -97 199 -160l20 -69q12 -4 19 -4q3 0 10.5 8t11.5 8q12 0 137 -107q127 -110 170 -127l-30 -55q38 15 63 15q20 0 23 -15q16 -13 51 -28zM428 43l2 -35q-3 0 -25 -3t-30 -3l-43 43q-2 0 -2 -4q0 -3 8 -20t8 -21v-2
q-33 25 -72 16q-17 17 -38 17q-26 0 -50 -27q-14 -2 -47 -2q0 90 13 166q1 5 8.5 29.5t7.5 33.5q0 11 -14 43q0 7 2 13v14h84l10 -72l12 78l152 -6q0 -5 2 -23t2 -22q0 -9 -18.5 -24.5t-18.5 -18.5q0 -8 37 -23q-4 -8 -4 -16q0 -5 2 -23.5t2 -23.5q0 -7 -8.5 -24t-8.5 -21
t27 -39z" />
    <glyph glyph-name="at" unicode="@" horiz-adv-x="2109" 
d="M2068 934l7 -33q8 -3 8 -8q0 -11 -41 -29t-41 -22q0 -1 6 -4l21 -17v-4q-30 -33 -205 -172q-151 -121 -154 -129l-51 -10q0 -85 -43 -119q-47 -55 -123 -135q-61 -52 -94 -102l-90 67l32 25q-14 17 -81 20l-35 33q-2 9 -13 39q-11 -7 -34 -10l-62 59q-1 1 -5 -1
t-7.5 -5.5t-3.5 -7.5h2l-62 41l2 2q-28 55 -116 118l-76 48q12 19 -37 65q-45 48 -76 51l-39 41v2q-1 2 -25 16.5t-24 22.5q-20 12 -45 15l47 40l-75 15l20 43q64 45 68 47q60 46 63 59q80 60 184 185q30 -9 66 39l53 75q17 -23 33 -37l-2 72q39 26 145 141q45 3 64 -8
l16 -137l-14 -29l20 -55l-34 23l10 -27v-39l28 -14l-18 -23q3 -39 8 -39l25 -26v-62q0 -1 -10.5 -22.5t-10.5 -36.5q0 -10 11 -25h2l-11 -39l27 -55q-3 -3 0 -49q6 -71 6 -135l-2 -205q-9 -82 29 -82q14 0 32 21l152 188l74 -21l63 33l-55 10q-8 11 -2 27q8 19 8 23
q0 7 -10 14q32 48 164 102q73 76 82 148l-33 31q-71 107 -139 169q-22 30 -142 187q-6 6 -6 12q0 3 12.5 12t12.5 13q0 18 -17 18q-3 0 -16 -16.5t-18 -16.5q-9 0 -21 15q-163 190 -219 202l-59 50q-55 45 -72 67q-60 -64 -84 -96l-55 -74q-69 -93 -160 -155l-121 -123
q-318 -235 -336 -324l-27 -33v-20q0 -32 89 -103q26 -8 75 -30q8 -4 11 -39q6 -34 0 -55l47 22q68 -62 213 -215q134 -148 231 -184q56 -56 158 -138l117 -94l-144 -164l-213 193l-35 37q-6 9 -4 16q2 2 6 17q4 1 9 4.5t6 3.5q14 9 30 63l-86 -65l-135 112q-10 8 -41.5 22.5
t-40.5 24.5l-84 93q-54 74 -110 202v-114l-47 67l-39 51q-52 -15 -123 74q0 24 -47 68q-36 31 -27 61q-14 6 -41.5 29t-42.5 24l-12 13q4 12 4 16q69 86 168 193q131 131 156 174l159 -33l-57 102q114 106 285 269q297 284 297 331q0 9 26 35l19 -10l14 8v-6q9 0 55 -43
q50 -44 62 -59l2 -88l41 53q104 -88 272 -244q110 -110 242 -403l-21 180l97 -123q13 -13 26 -47.5t19 -40.5q31 0 53 -25q22 -27 35 -49q-3 -11 24 -20l37 -13q2 -4 2 -38q0 -23 12 -29zM1124 535q2 3 1 14t-3 22t-4 21l-2 10q0 30 -6 92q-4 82 -4 92v105l-3 30l-5 60
q0 3 8 17.5t8 19.5q0 85 -10 112q-18 -24 -96 -102q-88 -88 -107 -100h6q-41 -25 -94 -78l33 -41q50 -44 127 -133q17 -27 67 -60q60 -37 84 -81zM1106 881v8v-8z" />
    <glyph glyph-name="A" unicode="A" 
d="M1292 41l-78 -21l-75 25l14 -39l-178 -45l-57 191q2 2 2 10q0 4 -5.5 26t-5.5 29q0 18 -10 35q-11 -1 -19.5 14t-9.5 15q-56 12 -159 12q-43 0 -72 -19l-113 -4q-2 2 -12 2h-2h-2h-2h-2h-2h-2h-2h-2h-2h-2h-2h-2h-2h-2h-2h-3h-2h-2h-2h-2h-2h-2h-2h-2h-2h-2h-2h-2h-2h-2
h-2h-2h-3h-2h-2h-2h-2h-8l-10 -32q-37 -27 -37 -113q0 -6 -13 -44.5t-10 -47.5l-26 -82l-60 12q-10 17 -65 25q-3 10 -10 10q-3 0 -16 -5t-17 -5q-54 39 -66 35l-43 26l129 357q21 14 35 49t8 59l105 244q28 28 69 125q38 84 35 135l15 37q24 0 41 10l-17 25q8 0 25 10
q3 12 0 31q3 7 8 20l16 37l-10 33q32 87 94 282h15l6 27q19 18 26 29q7 3 7 12t-17 33q6 15 12 39l-6 12q2 9 12.5 45t14.5 53q1 -5 13.5 -4.5t13.5 -1.5q5 -12 8 -94q0 -57 37 -84q40 -169 34 -189l37 -34q-12 -12 -12 -19q0 -20 18 -26q15 -86 74 -252v-9q-2 -37 27 -137
q34 -98 61 -125l15 -37q-5 -10 -29 -34l43 -29q5 -20 8.5 -34.5t5.5 -20t2 -4.5q0 -4 -1.5 -8t-3.5 -8.5t-3 -6.5l14 -4l23 -12q59 -159 111 -279l-11 -14l13 -23q0 -3 11 -12t11 -18q0 -1 -1 -6.5t-4 -18t-5 -25.5q14 -23 49 -26l2 -2q7 -20 51 -117zM836 512l-54 106
q-20 29 -20 62l-6 59q-72 224 -88 269l-9 4q-18 -72 -71 -246q-11 -11 -25 -61q-11 -50 -18 -60h6l-72 -135q52 6 84 6l66 2h73q5 0 19.5 -25.5t19.5 -25.5l19 51q18 0 36 -3.5t40 -2.5z" />
    <glyph glyph-name="B" unicode="B" horiz-adv-x="1247" 
d="M1210 543l-270 -181q-29 -16 -43 -16q-5 0 -13 2l-7 2q-16 0 -43 -61l-281 -174q-15 -9 -27 -9q-7 0 -16 4t-15 8l-6 5q-7 0 -10 -8l-26 -58q-62 -23 -109 -37q-60 3 -94 -43l-33 -18q-4 9 -11 20.5t-11 20t-7 14.5l-41 -39l-4 187q0 26 7 194q26 62 26 101q0 4 -4.5 31
t-9 66.5t-4.5 74.5q3 84 24 172q0 34 -10 86q6 27 6 41q0 10 -8 22t-8 19q0 12 10 45q6 -2 9.5 2t4.5 14v29q3 18 15 18q8 0 12 -2q2 4 2 12q0 21 -27 48q-1 9 8 29t9 22q0 4 -35 45l-12 307v33l24 26l-16 54q8 33 8 53q0 4 -2 13.5t-2 13.5q0 14 12 55q3 -3 76 -25l6 -26
q13 -2 45 -11q51 -30 105 -67l231 -84l29 -43l41 -8q5 3 174 -105l213 -137q-19 -11 -82 -74q-57 -60 -80 -73l-47 -50q-37 -32 -127 -41l16 -34q-23 -29 -116 -90q98 -34 204 -127q112 -95 170 -111l82 -74q54 -51 88 -63zM760 1217q-8 0 -117 65q-107 64 -115 59l-22 7v16
q0 11 -27 8l-20 4l-4 -106l-4 -15l-2 -2l-5 -24q0 -4 2 -2q0 1 3 4q0 -2 2 -8v-4l-5 -13q10 -93 7 -176l-2 29q26 -3 65 0q47 14 76 37q127 90 168 121zM815 569l-182 109q-2 4 -4 14q0 4 2 10q-27 37 -47 37q-1 0 -36 7.5t-50 7.5q-18 0 -27 -6l-25 61q-15 -35 -12 -113
q0 -60 10 -102q-14 -118 -14 -131q0 -36 29 -68q0 -4 -6.5 -25t-6.5 -51l283 173q49 37 86 77z" />
    <glyph glyph-name="C" unicode="C" horiz-adv-x="1161" 
d="M1112 166l-194 -246q-54 60 -56 66h2l10 -9q-10 37 -40 58l-50 59v-8l-188 201l-111 135l-14 65l-37 11q-2 2 -20 14q-7 9 -29 22.5t-29 20.5l-37 51q-27 35 -49 35l-59 61l-2 19l-14 14q-5 63 -27 70l-10 -29l6 -31q0 8 -62 52q-12 7 -17 22.5t-11 16.5q-15 9 -37 34
l2 -20l10 18v2l178 209q30 3 60 56q3 6 12 12l6 20q8 8 174 201q33 17 92 76q51 53 60 96l24 29q3 -1 10 9.5l14 21t11 10.5q80 0 84 4q4 -2 12 -2t29 10t25 10q6 0 14 -4q2 4 2 8t-25.5 14t-29.5 23v31q0 17 78 104l182 -204q-12 -8 -57 -50q-9 -3 -16 -8t-12 -9t-9.5 -11
t-7 -11t-5.5 -12.5t-4 -12t-3 -13t-3 -11.5q-63 -71 -147 -149q-100 -93 -148 -156q-10 -6 -47 -35l-29 -8q-6 -3 -6 -10q0 -2 3.5 -14t2.5 -15q-117 -102 -114 -166q-6 -7 -17 -24v-12q0 -33 27 -54l217 -231q15 -37 98 -117q81 -78 125 -88l19 -39q35 -41 72.5 -78.5
t50.5 -38.5q32 -36 61 -65z" />
    <glyph glyph-name="D" unicode="D" horiz-adv-x="1366" 
d="M1335 854l4 -6l-24 -25q-40 -5 -80 -28l-6 -23q-34 -9 -37 -51q-8 -8 -18 -31l2 -2q-23 -25 -58 -55q-100 -9 -137 -66q-23 -31 -27 -37q-46 -27 -55 -67q4 -4 -14 -19l-119 -65q-12 -8 -70 -78t-75 -70l-27 -28l-14 -17l10 7q-87 -43 -105 -72l13 8q16 16 10 16l-51 7
l-4 -41q-31 -20 -66 -35q-4 4 -20 -19q-11 -15 -20.5 -21.5t-16.5 -19.5q-3 -6 -6 -10t-5.5 -5.5t-3.5 -0.5l-11 -9q-11 -9 -17 -9q-26 0 -49 -29q-38 0 -50 -2q1 31 5 352q16 29 16 72q0 10 -2 16q0 1 -0.5 2.5l-1.5 4.5t-2 5h2l-6 15q0 6 -2 8q0 64 6 270q18 50 18 115
q0 140 -18 170v41l30 20h5q28 28 22 60l-4 26q-12 12 -55 70l-15 303l13 8l-2 21q5 16 10 24q-2 2 -2 7q1 1 4 10v2l18 22l-18 21q-12 37 -37 43q-16 91 -20 117q47 0 63 -19q17 -17 66 -14l49 -55l73 -52q6 -6 60 -18q55 -12 59 -19v-28q-9 -22 -4 -27q123 -123 178 -123
q3 0 23 4l10 2q2 -3 9.5 -12t13.5 -14q0 -33 63 -84q89 -73 107 -96l200 -148q2 -11 11 -24q22 -54 59 -60l6 -4l141 -127zM948 864l6 6l-24 33q0 14 -21 17q-8 2 -13.5 4.5t-11.5 8t-9.5 9.5t-13 15.5t-17.5 19.5q-7 9 -34 25.5t-34 23.5h19l-86 59q-40 52 -99 76
q-52 25 -112 101q-23 -58 -23 -68q0 -28 23 -51q1 -1 2 -4.5t2 -5.5l-6 -74q-13 -29 -13 -58q2 -11 6 -34q-1 -3 -2 2v18q0 -129 2 -172q-16 -45 -10 -80q1 -10 2 -19t1.5 -13t0.5 -5q0 -17 -5 -69.5t-5 -67.5q0 -108 21 -129q21 27 61 70q8 6 44 29t50 34t34 35t28 49
q22 25 87 70.5t83 64.5q15 8 34 21l11 12q16 22 22 47z" />
    <glyph glyph-name="E" unicode="E" horiz-adv-x="1183" 
d="M1118 166l-194 -246q-54 60 -56 66h2l11 -9q-9 36 -41 58l-49 59v-8l-189 201l-53 63l-64 72l-32 72l-13 4l-8 4v-6q-6 6 -18 14l-13 18q-6 2 -39 27q-20 33 -71 84q-6 2 -21 2l-59 61v19l16 39q-3 12 -30 12l-33 4l6 -28q-6 9 -61 49q-10 6 -14.5 14.5t-5.5 14t-3 5.5
q-15 5 -37 27l-4 -8l-2 20l4 -4q19 21 45.5 53t65.5 78.5t69 81.5q43 6 68 66l2 2q6 12 8 22q81 86 172 199q39 20 90 78l72 94q17 38 39 66l8 -2q3 6 10 6v0v0v0h1h1h1h1h1h1h1h1h1h1h1h10q14 -2 35 -2l8 6h4q4 4 4 8t-7 15t-7 14q0 5 6 8q27 0 47 14v31q0 17 78 104
l137 -153l18 -13l-4 -6l31 -32q-12 -8 -57 -50q-9 -3 -16 -8t-12 -9t-9.5 -11t-7 -11t-5.5 -12.5t-4 -12t-3 -13t-3 -11.5q-63 -71 -147 -149q-100 -93 -148 -156q-10 -6 -47 -35l-10 -2l-18 -32q3 -10 0 -13q-25 -20 -91 -82q29 0 105 -6q54 -6 100 6q2 -1 51 2q44 6 54 9
l8 -2l2 -2l25 -5l22 -12l39 2q52 0 59 21l70 -13l4 -249q-182 -27 -201 -27q-32 16 -45 16l-14 5q-15 4 -34 9t-29 5q-14 0 -21 -11l-14 -6l-101 2q44 -56 123 -149q14 -35 99 -117q82 -79 124 -88q-7 1 -10.5 -6t-3.5 -21q0 -88 156 -129q32 -36 61 -65zM639 1540l-2 -2v2
h2zM49 858l2 4l-4 4l-2 -2z" />
    <glyph glyph-name="F" unicode="F" horiz-adv-x="1177" 
d="M1135 1720v-276l-17 2q-46 22 -123 22l-70 2h1q-52 -3 -70 -16h-37l-4 6q-16 32 -74 17q-4 -1 -20 13t-21 13q-15 -15 -24 -30q-9 -3 -25 -19h-47l-143 12h-8q-25 3 -25 -47q0 -10 10 -20l2 -8l11 -11q0 -6 4 -14v-55l-2 -39v-19q-11 -26 -11 -53q0 -8 4 -24v-11
q-9 -33 7 -61l-21 -98h45q3 -8 45 -17q19 -3 31.5 -7t16 -6t6 -3.5t4.5 -1.5q4 0 22.5 9t22.5 9q9 0 34 -15.5t27 -15.5q5 0 16 13.5t13 19.5h6h6h8q-3 3 31 6q15 -12 47 2l29 -14l22 -24l17 24q1 0 9 0.5t14 3t7 8.5l39 7l4 -275q-52 -9 -161 -12q-31 31 -56 28l-45 -22
q22 0 80 -6q-3 0 -6 8q-27 6 -41 6q-2 0 -18 -4q-1 -1 -54 27l-30 -33l-174 16q-1 -16 2 -143q6 -123 6 -125t-0.5 -6l-1.5 -12t-2 -15q-3 -25 0 -37q0 -21 8 -26q-3 -37 0 -105q0 -11 -4 -57v-2q-13 -37 -13 -57q0 -58 39 -109l-6 -39h-98q-13 8 -35 14l-18 -6
q-19 19 -43 19t-50 -29q-14 -2 -49 -2q3 30 6 145q4 124 3 146q14 20 14 65q0 5 -4 29v2l-2 8q-4 9 -6 15q0 64 6 270q20 47 20 119q0 131 -18 166v41l24 14l23 14v6q3 3 -21 23q-22 19 -22 24q0 22 4 68q4 7 -12 29q-2 98 -13 272q8 -14 17 -14q8 0 8 16q-2 29 -12 49
q7 31 1.5 45.5t-24.5 12.5l-2 155l178 11l23 -21l55 -20l27 26q12 4 18 10l12 5q12 -2 103 -5q20 -10 45 -10q45 0 139 -6l-24 12q68 -2 385 -2z" />
    <glyph glyph-name="G" unicode="G" horiz-adv-x="1275" 
d="M987 991h168l-4 -137q-6 -77 -31 -129q25 -58 25 -63q0 -116 -27 -330l23 49l-4 -160l4 -4q-12 -37 -15 -129q-2 -43 -2 -133h-45l-108 88q3 15 -31 33q-33 17 -33 39q-49 47 -125 112q-76 70 -135 88l33 21q-9 15 -68 53q-136 83 -237 193q-5 7 -15 22t-16.5 24t-16 20
t-19 16t-19.5 6l-37 37h-8q-24 43 -51 81q0 11 -5 21l2 -10h3h-3l-71 59h2q2 0 14 -4l-57 8l-6 -12q-3 0 -3 12t-3 12q-1 0 -5 -4l-22 21l-4 14q82 104 184 213q66 0 74 25l-8 39q8 19 8 24l184 160q167 154 176 205l82 59l47 -8q35 0 35 41q0 10 -16 76q46 21 73 67
l226 -139l-23 -29q-45 -22 -246 -254q-186 -216 -256 -219l19 -49q-72 -28 -109 -72q-12 -16 -28.5 -63.5t-28.5 -56.5v-11q2 -10 8 -30l39 -6l-10 -78q29 3 67 18q129 -122 357 -315l-15 278q14 0 17 29l8 41l25 -27q-51 36 -66 166zM78 862l4 4l-10 2zM70 868h2l-2 2v-2z
" />
    <glyph glyph-name="H" unicode="H" horiz-adv-x="1376" 
d="M1206 1706h45q-10 -232 -10 -291q-16 -29 -16 -65q0 -13 2 -19q0 -1 1 -4.5t4 -12t5 -16.5q-8 -152 -10 -274q-21 -46 -21 -113v-67q2 -31 2 -82l2 -60l4 -129q-4 4 -4 -2q0 -3 12.5 -25t12.5 -26q0 -8 -12 -8q0 -134 10 -291l-12 -6v-25q-12 -24 -15 -43l-12 -20l10 -18
q9 -34 39 -46l6 -59h-295q4 49 7 211q9 9 12 18q16 16 16 48q0 25 -20 51l-2 6v4q0 248 4 342q2 2 2 6q10 23 10 58q0 2 -4 18q2 12 8 35l-47 -17q-28 -9 -41 -32q-10 -5 -18 -17l-11 -4q-78 4 -241 4l-84 -4h-25q-24 13 -49 17l-20 12l-29 -19q-10 -95 -10 -346
q0 -36 26 -65q0 -2 4 -88q-9 -15 -12 -31q-12 -27 -12 -61q0 -54 39 -107q0 -25 2 -39q-63 -2 -99 -2h-8q-14 14 -37 14q-6 0 -18 -4q-16 19 -39 19t-45 -25l-6 -6h-47q0 74 6 289q16 26 16 69l-14 45q6 163 6 277q23 58 23 121q0 132 -21 166v37q60 35 60 79q0 10 -3 20
t-12 22t-13 18t-18 21.5t-16 17.5q-2 68 -16 301l14 8l-2 25q9 15 12 43l15 22q-18 25 -54 64q3 34 0 86q39 0 146 -13q97 -13 143 -10q-4 -196 -4 -215l-10 -14q-17 -20 -17 -49q0 -27 21 -48q4 -28 4 -57v-65l-12 -27v-33q0 -12 2 -22q3 -6 0 -25h2q-3 -40 0 -145
q3 -27 8 -27q2 0 16 20q9 6 11 -12h45l59 25h2q37 -29 68 -29t55 21q62 -10 76 -11q6 0 26 5.5t45 5.5q4 -2 8 -6t7 -6.5t6 -2.5q8 0 33 -14q29 -13 32 -10q-34 3 -34 -6q0 -15 51 -15q64 0 117 39l-43 53q8 19 8 31q0 4 -10 13t-11 18l8 59q2 7 3 15l-15 -17q2 47 5 109
l3 49q0 29 -28 65q-2 31 -2 88q13 15 16 39q10 27 10 54q0 50 -37 108q-2 14 -2 37l123 25q3 -3 6.5 -13t7 -17.5t7.5 -6.5l22 6q0 -2 2 -4l4 -4q15 -15 31 -15q26 0 49 29z" />
    <glyph glyph-name="I" unicode="I" horiz-adv-x="641" 
d="M492 57l2 -39h-39h-78q-12 5 -37 13l4 -13l-25 2l-16 -2q-3 0 -14.5 13.5t-14.5 13.5q-25 0 -53 -31q-10 1 -23 5.5t-26 3.5q2 1 6.5 3.5t8 5t6.5 5.5q23 23 12 33l-31 45q9 62 6 92q-6 49 -6 92l27 31l28 82q-34 4 -49 8q-8 31 -8 76q0 46 16 161q19 117 19 160
q0 29 -10 101q-9 67 -9 100q35 15 35 76q0 40 -35 75l-12 261q-2 2 3 9t13 19t11 23q-31 67 -31 92q0 10 6 16q-10 10 -16 49q-6 43 -15 52l29 28l291 4q3 -73 -6 -217q-17 -25 -29 -61q27 -58 27 -55l-5 -14l-8 -40l-6 -47l15 -10l-17 -25q25 -9 25 -49q-38 8 -41 -2
l43 -69q-8 -24 -8 -99q0 -8 0.5 -26t1.5 -51.5t2 -65.5q2 -66 2 -154q-3 -70 -14 -125l14 -88l-35 37q-12 -41 -12 -59q0 -20 20 -23q9 -1 14.5 -6t7 -13.5t2.5 -19.5t0.5 -23t0.5 -24q0 -42 12 -51l-14 -72q-10 -17 -10 -106q0 -55 43 -107z" />
    <glyph glyph-name="J" unicode="J" horiz-adv-x="1056" 
d="M846 1737h53q-3 -141 -12 -285q-19 -25 -19 -72q0 -10 13 -47q-11 -211 -11 -272q-24 -49 -24 -119q0 -139 18 -166v-20l-2 -17q-61 -34 -61 -77q0 -33 16 -52q7 -17 29 -28l6 -9q9 -3 12 -12q0 -116 10 -301l-14 -8l2 -21q-1 -1 -2 -4.5t-3.5 -12.5t-4.5 -17l15 -10
t16 -10t12 -7l-35 -70h29q-2 -43 -2 -149l-56 4l-133 121l11 76q-11 2 -27 -2v-9h-18q-14 -14 -15 -18l-24 33l-60 41q-20 12 -29.5 20.5t-7.5 13.5q2 6 -5.5 11.5t-24.5 9.5q-33 9 -33 29q-33 22 -66 55q-22 14 -58 54.5t-52 51.5l-62 25l35 20q-16 20 -31 35l-77 29v45
l-64 18l-47 45q-2 2 -2 9q0 12 31 37q30 24 30 36q0 5 -2 7l72 -7q-18 21 -18 39q0 33 41 60l26 18q2 -2 34 -32t50 -46q6 -14 31 -30q39 -23 61 -45q3 -3 -6 -31t-6 -31l72 -2q-4 -12 35 -35q40 -24 40 -35q0 -1 39 -34q41 -35 41 -37q2 0 2 2q0 5 -4 59q-2 0 -2 8
q2 -4 2 -8q10 34 13 78l-13 55l37 107q-38 -35 -47 -35q-2 0 -2 4q0 5 10 25v51q-2 2 10 18l9 17l-29 -4l-6 237l4 6q4 9 8 39l-14 8l16 -2q3 15 0 29q-1 4 3.5 8t4.5 8q0 16 6.5 69t6.5 69q0 33 -29 65q0 14 -4 92q31 60 31 88q0 51 -41 107q-2 12 -2 37h112q15 -15 39 -15
q7 0 19 4l-7 9l19 -2l-12 -7q16 -16 43 -16t51 27zM606 1159l2 6h-2l-2 -6h2z" />
    <glyph glyph-name="K" unicode="K" horiz-adv-x="1337" 
d="M1266 254l24 -27q-6 6 -10 6l-1 -11q-1 -11 -5 -26t-12 -22l-17 -27q-1 0 -22 9q-9 3 -15 -13q4 10 -21 28.5t-44 18.5q-8 0 -8 -6l8 -57l49 -23q-8 -18 -21 -38q-38 0 -44.5 -4.5t-6.5 -32.5q-5 -9 -43 -66q-39 39 -98 109q-6 8 -76 78q-9 52 -65 61q-18 26 -70.5 70
t-67.5 63q-12 39 -19.5 47t-43.5 21l-80 88q2 10 0 23.5t-6 30.5t-4 19q0 22 -6 37l-23 -53l-16 31l-39 59q-3 -18 -6 -125q-3 -99 -2 -106q0 -26 30 -60l4 -90q-30 -64 -30 -90q0 -47 41 -106l-4 -56q-13 0 -49.5 8.5t-47.5 8.5q-11 -14 -37 -17q-15 3 -36 0l32 66l-39 -12
l-4 4q-4 0 -21.5 -22.5t-21.5 -22.5q-11 0 -20 6q-6 3 -10 -4h-49l8 288q14 49 14 60q0 21 -10 51q0 6 -2 8q0 66 6 271q10 23 4 57q-8 44 -8 57q0 1 12.5 24t11.5 38q0 24 -36 65v84l63 23l-29 18q0 12 -2 35h-22q-22 19 -56 4l41 25q-4 4 -3 15.5t-3 16.5q11 11 11 23v14
q-3 9 -3 13q0 16 19 32l-16 256l14 9l-4 28l-2 -8l10 20l4 11q-12 12 -18 22l36 15l-16 16q-3 41 -41 47l-2 4l4 -8l-2 4q0 7 8.5 23t8.5 20q33 0 78 -11t79 -11q56 35 139 26q-8 -27 -16 -100q-4 -7 2 -43q4 -25 5 -19q1 3 1 13q-11 -11 -8 -29q3 -17 0 -20q-2 -2 -2 -7
l4 9q-26 -29 -26 -56q0 -36 18 -57q4 -11 -8 -45q-13 -37 -13 -41q3 -27 17 -59q-6 -102 -6 -111l139 145q16 16 53 25q29 3 29 20q0 5 -4 17q12 9 92 98q79 87 145 123q15 18 31 6q18 -9 33 6q1 1 -1.5 10.5t-5.5 21t-3 15.5q0 10 6 13l123 123l178 -170q-27 -22 -101 -99
t-88 -108l-94 -76q-4 4 -4 8t5 20.5t5 20.5q0 6 -6 6q-7 0 -47 -69l-41 -72q2 0 4 2q8 0 -37 -45q-42 -45 -65 -45q-18 0 -21 29l-32 -111q-21 -12 -95 -86q-68 -68 -112 -82q6 -9 61 -55l66 -52q49 -66 63 -75v10l37 -27q13 -18 45 -71l6 6l-37 -27l9 6q8 -9 30.5 -11.5
t28.5 -6.5l33 -23l30 -2q24 -3 46 -35q11 -25 40 -65l27 -49q11 -11 53 -17q9 -6 37 -34q0 -4 7.5 -11t17.5 -14.5t12 -9.5q9 -42 43 -60q15 -9 68 -18z" />
    <glyph glyph-name="L" unicode="L" horiz-adv-x="1118" 
d="M1036 115l39 -37q14 -25 -2 -62q-123 13 -262 13q-31 0 -61 -37q-59 -8 -84 -10q-6 2 -35 34q-25 31 -39 31q-32 0 -37.5 -2t-28.5 -25q-4 0 -26.5 -3.5t-38.5 -4.5l-35 21l-68 -19q-15 9 -36 15q-17 -3 -29 -11l14 -2l-2 2q-23 23 -43 23q-28 0 -51 -29h-31l-35 -2
l21 23l-16 16l4 14q9 34 20 37q-15 18 -24 52q9 28 18 145q18 27 18 70q0 7 -6 28l-8 27q-1 -2 -2 -9t-2 -10q-3 -13 10 -16q-2 0 -2 -2l4 12l-8 19q0 61 -2 106q-3 55 0 107q10 26 4 86l-6 84q0 1 7.5 34t6.5 48q-3 58 -14 80q0 28 -2 38q24 15 47 35q25 22 25 58
q0 55 -68 120l-8 283l12 8l-2 23q-2 23 -2 82l-20 104l96 4q13 -13 24 -43q-1 5 19.5 22.5t19.5 24.5l152 -2q-4 -152 -4 -217l-2 -2q-27 -37 -27 -59q0 -26 23 -49l-5 -62q-22 -143 -8 -168q19 -49 19 -137q0 -135 -6 -135q2 0 2 4q0 -123 -2 -193l-11 -59h-18l-10 21
q2 4 2 8l-15 -39q-1 -5 21 -24.5t22 -24.5q1 -10 2 -19t1.5 -13t0.5 -5q0 -54 -2 -115q-2 -59 -2 -115q0 -6 -6 -13t-12 -12l-6 -5q0 -5 4 -9q33 0 125.5 2t136.5 3q21 -15 47 -15q21 0 41 10q5 0 16 7q5 0 7 2h274q9 -128 -33 -170z" />
    <glyph glyph-name="M" unicode="M" horiz-adv-x="1748" 
d="M1686 53l20 -55l-307 -76l-17 98q0 1 -13.5 27.5t-12.5 34.5l8 33l-12 32q-8 6 14 14l20 5q5 0 7.5 -2t1.5 -6l65 55l-57 41q-23 -57 -33 -57q-4 0 -4 4q8 22 2 61q-33 18 -55 33l8 63q-1 29 -13 53t-14 31q6 -14 25 -14q14 0 14 33q0 9 -4 41l-26 26l-9 33l-16 -57
q-3 13 -13 40.5t-14 39.5q2 -4 8 -19t9 -22l-31 102l-61 287q1 -3 -10 -27t-11 -26q0 -65 3 -60q1 0 1 2l-43 -26q13 -9 31 -37l-14 -37q-29 -26 -29 -27q3 14 5 -30q1 -5 1 -11v-6q-59 -169 -74 -252q-20 -6 -20 -26q0 -10 14 -21l-47 -33q3 -20 -37 -188q-7 -93 -26 -178
q-22 3 -46 -6q-30 75 -49 133l4 12q-6 12 -12 39q4 4 23 -2q18 -6 18 0q0 2 -14 22q-4 7 -5.5 10.5t-3.5 7t-4 6t-3 4.5t-4.5 5.5l-5 5l-7 7l-8.5 8.5l-8 28h-15q-25 98 -82 281q2 11 11 33q0 -4 -25 57q3 22 0 31q-17 10 -25 10l17 27q-11 7 -41 10l-14 37q3 48 -17 116
q-17 68 -47 101q-27 -57 -37 -82q-2 -2 -2 -41v-43l-37 -64q0 -44 -8 -112q-10 -10 -31 -53h4q-11 -36 -8 -60l-41 -119q-9 -45 9 -82l-25 -120q-14 -11 -21 -29q-19 -22 -26 -55q-14 -50 10 -113l-6 -37q-24 4 -102 23q-16 25 -54 22q0 19 -32 27q-27 6 -56 -17l-45 35
l84 289q25 21 33 64q1 4 -2 51q20 66 72 264q34 43 49 111q26 98 26 135q0 14 -4 30l10 39l11 2q65 18 65 76q0 22 -35 94l62 336l14 4l2 23q15 19 23 37l16 14l-6 41l-10 8l-2 4l-6 66l20 65l39 2l20 7l37 -111q-3 -13 25 -70q31 -54 31 -65q0 -10 -3.5 -21.5t-7.5 -18.5
l-4 -7q0 -7 19 -23l55 -182l37 -70q24 -91 78 -215q38 -114 84 -227q33 72 82 194l18 95q12 58 43 80l14 73q6 6 29 121q24 120 39 117q10 17 10 37q0 7 5 28t5 25q0 1 9 12t18 21.5t8 11.5l29 70l20 125l70 -7q7 -31 10 -75t10 -74q-12 -26 0 -72q3 -20 25 -45
q53 -285 111 -516q-9 -58 8 -129l20 -78q16 -54 35 -71l6 -35q-46 -49 -37 -90q8 -31 27 -47q15 -21 37 -21l18 -16q38 -150 84 -291l-12 -10l18 -7q0 -1 2.5 -8t2.5 -8l-15 -10l10 -8l-6 -9l-18 11l12 -27q-15 -15 -12 -29l20 -12q13 -29 47 -35z" />
    <glyph glyph-name="N" unicode="N" horiz-adv-x="1355" 
d="M1200 66l6 -60l-65 6l-41 62l-133 172q0 33 -2 49q-3 34 -13 41q-14 -2 -49 2l-6 4q-43 64 -63 102q-30 55 -60 99q-12 48 -55 106q-32 25 -94 123q-18 37 -64 55l-22 33q9 24 16 53l-2 2q0 4 -12 6.5t-25.5 5t-15.5 5.5q-8 24 -47 108l-11 9l-6 2q4 -10 8.5 -19l6.5 -13
t2 -5l-13 -53l-8 -48l17 -8l-19 -26q27 -9 27 -50q-41 9 -41 -2l43 -69q-8 -24 -8 -99q0 -39 2 -47q3 6 4 6q-2 -5 -4 -6q-8 -25 -9 -30l15 -88l-37 36q-10 -45 -10 -57q0 -21 20 -24t23 -29q0 -4 -5.5 -28t-5.5 -32q0 -9 9 -18l-15 -72q-10 -17 -10 -112q0 -52 43 -107v-39
h-39h-76q-12 5 -37 13l3 -13l-23 2l-16 -2q-3 0 -16 14l-13 13q-24 0 -53 -29q-13 0 -25 3t-18 3q-4 -4 -8 0h8q42 28 26 47l-32 46q9 61 6 94q-4 70 -4 96l26 31l29 82q-34 4 -51 8q-6 34 -6 76q0 46 16 161q18 111 18 160q0 29 -10 101q-4 28 -10 100q53 21 53 76
q0 28 -53 75l-12 261q-1 2 8.5 9t21.5 18.5t15 23.5q-12 16 -27 47q-20 33 -20 49q0 8 4 12q-10 10 -4 62q9 52 -2 63l24 8l25 -8q13 3 32 12l86 -114q15 15 56 -68l-17 -55l52 10l161 -213q-7 0 -4 -14q4 -25 2 -27q0 -15 -18 -12l78 -33q22 -80 258 -371l37 -47
q1 15 2 55.5t2 59.5l-2 55q0 -40 -9 9q-6 50 -6 86l13 81q2 12 -7 48l-10 34q5 20 8.5 34.5t5 20.5t1.5 5q0 28 2 30l4 -4q4 4 4 31q0 25 -29 68q-2 27 -2 86q10 13 14 35q13 29 13 57q0 53 -37 108q0 21 -2 37l82 4q10 -10 41 -34q32 -46 45 -62l8 92q17 1 23 -13t8 -15
q28 0 49 30q25 -2 47 -2q-12 -212 -12 -288l-29 -87l25 -30q4 -8 4 -31q0 -28 -9 -117q-6 -88 -6 -127q-9 -24 -6 -65l6 -64v-2v-3v-2v-2v-2v-3v-2v-2v-3v-2v-2v-3v-2v-2v-3v-2v-2v-3v-2v-3v-2v-3v-2v-3v-2v-3v-2v-3v-3v-3v-7q0 -51 15 -75v-39l-11 -6q-22 -13 -22 -19
q0 -3 4.5 -11.5t11 -19.5t8.5 -18q0 -5 -21 -25t-20 -24q10 -27 35 -35l15 -20q4 -214 10 -312l-14 -8l16 -37q-16 -8 -47 -26q22 -79 57 -88v6l4 -9l-2 3h-2z" />
    <glyph glyph-name="O" unicode="O" horiz-adv-x="1636" 
d="M1589 879l-78 -146q7 0 7 6q0 15 -22 38t-44 24q4 4 8 4t4 -12q0 -40 -47 -189l-209 -250q-173 -206 -176 -241l-20 -31l-19 6l-45 -94l-53 -68l-53 2l-25 72l-31 -55l-43 67q-15 27 -53 51l-266 404q8 -14 35 -14q24 0 24 22q0 14 -16 43l-94 17q-6 15 -51 86
q-19 -9 -78 47q-56 47 -68 71q-3 28 0 97q-4 4 -8 4t-26.5 -17t-30.5 -14l-39 49q22 36 30 55l191 240q43 15 94 41q4 5 -13.5 22.5t-13.5 22.5q225 285 228 324l49 8l25 69q24 21 129 138q26 3 40 -35l11 33h41l92 -117l233 -344q35 -47 35 -53q0 -2 -2 -2l-17 5
q-16 5 -22 5q-16 0 -16 -25q0 -19 12 -59l105 18q7 -5 14 -39t14 -43q54 0 101 -78q-9 -20 14 -30q3 -30 33 -47l4 -29q81 -53 106 -59zM1161 723l111 104q4 4 4 9q0 6 -10 6q-11 0 -17 -2h-14q-10 0 -10 4q0 2 4 10v35h-8q-18 41 -101 133q-87 97 -108 137q-40 88 -47 105
q-31 66 -70 75q-42 47 -86 121q-29 -42 -66 -117q-37 -69 -77 -104h-56l23 -39l-8 -31q-25 0 -25 -2l-45 39q-2 2 -4 2q-1 0 -0.5 -4t2.5 -13t6 -22q14 -43 14 -63q0 -6 -4 -14q-7 -12 -69 -58q-40 -30 -43 -80l-84 -71l53 -39q25 -18 49 -51q29 -38 27 -45q9 -124 102 -154
l92 -141q62 -92 92 -101q-6 -38 19 -47q23 -8 37 -10l61 92q1 2 70 74l67 108l183 60q-1 0 -39 18q-36 19 -45 19q-4 0 -4 -4l3 10l5 20q9 34 16 31z" />
    <glyph glyph-name="P" unicode="P" horiz-adv-x="1304" 
d="M1239 1012l29 -33l-29 -47l-92 -74l-109 -92q-45 -3 -243 -148q-166 -122 -267 -217q-10 1 -48 -8.5t-44 -9.5l6 -166l-6 -16q-7 -16 -13.5 -37t-6.5 -33q0 -9 2 -16.5t9 -17t10 -13t15 -15t13 -12.5l-12 -65l-88 -4h-1q-1 1 -4.5 2.5t-8 3t-11 4t-14.5 6t-18 7.5t-21 9
l-33 -26h-57q-18 -18 -47 -12q0 145 26 323q6 0 6 12q0 8 -6 37.5t-6 32.5q0 19 4 297q4 254 4 297q29 16 29 72q0 23 -11 61t-22 45l-8 223q7 0 16 39q9 41 25 54l-45 26l39 86l-11 209l21 -4q42 -33 143 -106q91 -60 97 -60l2 2l-17 17l82 -99l74 -30l258 -238
q13 -6 119 -86q83 -62 139 -82l-35 -61q0 -11 12 -11q7 0 41 9.5t41 9.5q15 0 15 -13q12 -14 57 -32zM809 936l63 20l-41 19q-29 13 -52 44t-17 42h-19q-28 25 -122 86q-91 61 -113 92q-30 41 -94 117q-10 0 -13 -15q-3 -13 5 -18q28 -39 28 -59q0 -27 -8 -27q-1 0 -9 5
t-9 5q-9 0 -9 -26q0 -7 41 -78q5 -14 2 -49q-36 -45 -80 -121l23 12q31 25 37 25q2 0 2 -4q0 -352 2 -418q24 46 68 110l180 105q135 85 135 133z" />
    <glyph glyph-name="Q" unicode="Q" horiz-adv-x="1548" 
d="M1464 940l52 -57q-3 -9 0 -15q-56 -85 -160 -209l-8 -2q-31 -27 -62 -75q-47 -75 -55 -86q20 -20 106 -84q72 -54 117 -115l-154 -195q-44 63 -110 107q-68 45 -109 104q-54 -81 -143 -198l-18 4l-66 -64l47 -8l-86 -113l-22 15l-11 -10q-55 72 -112 143q-97 111 -97 145
q0 7 2 9q-21 23 -45 48t-53 55t-45 46q-92 95 -119 172l35 76q-26 16 -33 16l-1 -1q-1 -1 -4 -2t-7 -2.5t-10 -3t-12.5 -2t-15 -0.5t-17.5 1l-53 61q3 10 -27 48q-26 36 -23 59q-6 3 -24 9.5t-27 11t-22.5 13t-22.5 19.5l2 4l-2 4l164 219q24 8 188 226l193 264l108 61
l-16 52q0 26 66 110l34 -2l19 -31q0 5 2 5q24 0 242 -299q58 -76 61 -117l4 -121l60 20q56 -41 100 -104q24 -3 74 -53q36 -36 59 -74l-29 43q20 -49 43 -127q8 -8 21 -4q14 7 22 4zM1149 829l70 45q-16 33 -150 207q15 7 25.5 12.5t14.5 8.5t3 4q-3 7 -37 4q-31 -3 -35 4
q-88 114 -104 117l-152 215l-327 -428q-21 -18 -39 -39q-2 -20 -2 -61l-58 -39h41q22 0 37 -37q16 -41 29 -54l24 -86l109 -155q108 -141 141 -150l45 -121q43 71 129 199l-92 98l6 17l-14 16q0 31 -10 41l12 47q-21 -3 -61 0q-4 -1 -8.5 -2t-7 -1.5t-3.5 -0.5h-4l-35 43
l178 185l146 -136v-24q-3 -20 16 -51q28 15 45 -9l49 56q22 31 19 75z" />
    <glyph glyph-name="R" unicode="R" 
d="M1305 106q2 -2 -8.5 -13.5t-33 -33t-57.5 -51.5q-103 -93 -114 -90l-56 8q-10 18 -106 135l-2 41l-37 78q-17 -15 -41 -28q-60 39 -113 114q-69 96 -98 129l-53 45q-39 -32 -86 -75q-15 4 -31 34q-14 33 -29 33v-215l-6 -16q-7 -16 -13.5 -37t-6.5 -33q0 -9 2 -16.5
t9 -17t10 -13t15 -15t13 -12.5l-12 -65l-89 -4h-1q-1 1 -4 2.5t-7.5 3t-11.5 4t-14.5 6t-17.5 7.5t-21 9l-33 -26h-57q-19 -19 -48 -12q0 138 27 323q6 0 6 12q0 8 -6 37.5t-6 32.5q0 111 2 158v160q29 16 29 69q0 22 -11 60.5t-22 48.5l-2 499q7 0 16 39q9 41 25 54l20 63
l-26 49l-11 209l21 -4q261 -214 381 -291l-6 10q6 -9 6 -10l76 -88l73 -31l109 -104q25 -14 86 -84q61 -67 110 -84l-32 -61q-4 -11 10 -11q7 0 41.5 9.5t42.5 9.5q15 0 12 -13q14 -14 60 -32l28 -33l-28 -47l-93 -74l-110 -92q-17 0 -64 -47q-81 -81 -120 -111
q63 -69 98 -131l72 -53l-82 -27q26 -51 49 -51q8 0 31 15.5t30 15.5q11 0 21 -10q21 -18 39 -39q32 -29 45 -29l41 -61q3 -19 65 -84q39 -39 105 -48zM807 936l63 20l-41 19q-29 13 -52 44t-17 42h-19q-74 52 -190 168q-14 21 -68 65q-55 46 -71 62q-10 0 -13 -15
q-3 -13 4 -18q29 -40 29 -59q0 -27 -8 -27q-1 0 -9 5t-9 5q-9 0 -9 -26q0 -7 41 -78q5 -14 2 -49q0 12 -47 18q-54 9 -55 10q3 -14 43 -59q41 -47 41 -57q0 -352 2 -418q24 46 68 110q3 3 18.5 -2.5t34 -12.5t28.5 -7q9 0 13.5 1.5t8.5 13.5t3 36q-2 23 -2 37l6 -2
q202 117 205 174z" />
    <glyph glyph-name="S" unicode="S" horiz-adv-x="1177" 
d="M1120 520l8 -67l-112 -91l-10 3q-102 -82 -111 -89q-55 -42 -119 -75l31 -2l-197 -164q-141 -112 -202 -121l-172 205q32 19 118 63q76 43 95 92q65 49 131 88l41 -86l4 125q77 9 86 74l71 39l-114 57q-2 5 -4.5 17t-4.5 19t-5.5 15.5t-8.5 12.5t-12 4q-5 0 -17 -4
q-35 18 -6 47l-39 -4l-45 41l15 16q65 3 96 -22l29 14q-195 79 -232 109l-141 135l35 47q-51 6 -101 24l-170 191l127 86q81 57 99 111l26 22l43 -14h29l47 96l25 -8q91 74 188 164h41l27 61l22 -39q9 31 17 105l63 16l168 -191l-8 -51l-137 -108q-14 -11 -70 -27
q-18 -40 -39 -55l-53 -39l-60 12q-18 -16 -98 -61l57 2l-114 -86q46 -31 94 -101q45 -67 72 -94q49 -43 135 -55l-17 -37q25 -45 39 -76q27 -41 66 -35q6 -4 125 -133l6 -43l27 21q9 -3 36 -43q25 -43 56 -60l-54 -61z" />
    <glyph glyph-name="T" unicode="T" horiz-adv-x="1171" 
d="M1116 1731l2 -41q-6 -86 -6 -260q-32 0 -90 6l-88 8q-26 26 -57 26q-25 0 -72 -8t-84 -8q1 -7 -2 -61q-6 -52 -6 -54l-2 -110l-76 -31l65 -12l-24 -47h29q16 -138 16 -283q0 -69 -6 -213q-4 -192 -4 -221q0 -10 -5.5 -44t-5.5 -56q-38 -23 -38 -50q0 -15 22 -25t27 -16
q3 -185 34 -251q-5 0 -333 16l12 135q10 92 10 133q12 24 15 66l26 32l-8 -2q-31 0 -31 21q0 176 2 299q3 238 6 297l52 27l16 30l-43 10l66 60h-5q-58 -3 -92 51l-12 277l-340 -11l-37 49l6 91l49 43l-49 6l11 121q35 0 104 -29q64 -27 80 -27q34 0 104 15q66 14 103 14
l16 -31l125 4q0 11 6 20.5t12 12.5l7 4q30 2 73 5t108.5 8.5t113.5 9.5l8 -15l22 4l-12 -65l29 10l20 43l23 -16q11 17 47 45z" />
    <glyph glyph-name="U" unicode="U" horiz-adv-x="1363" 
d="M1229 55l2 -37l-94 -2q-12 -2 -47 13l-19 -2l-41 16q-46 -46 -98 -31q0 11 -12 11q-7 0 -32.5 -10.5t-33.5 -10.5q-19 0 -16 23h-33q-1 -7 -30.5 -15t-43.5 -8l-96 4q-30 1 -55.5 13t-41.5 24t-22 12q-40 0 -76 -28q-15 -12 -55 -64l-6 82l-39 -39l-53 -10l-8 -16l4 12
q0 25 -62 28l16 -2h-96l9 58l53 63q-29 40 -29 76q0 10 2 14l-12 9q12 224 14 301q3 3 20 21.5t22.5 26t12.5 23.5t7 31q-10 18 -33 57l-25 15q0 43 8 106q11 86 11 107q0 32 -11 190q-8 115 -8 195q0 12 2 26q3 17 0 27l52 27q-41 15 -56 36q0 9 -4 95t-4 98q9 29 25 88
l67 6l19 -39q66 48 137 39l33 -74q-31 -45 -31 -73q0 -47 24 -88q0 -20 -16 -82q-14 -55 -14 -72q0 -37 10 -170q12 -117 12 -172q0 -30 -8 -121q-8 -77 -4 -129v2q3 -3 6 -39l-6 37l-10 -133h-41l59 -57q-13 -81 -26 -260l51 -37q40 16 100 16q23 0 39 -29l33 13l39 -35h6
l18 35l17 -35l59 25h14q36 0 39 20l78 -6l41 41q0 21 -4 201t-4 204q0 16 16.5 57t16.5 56q0 14 -4.5 49.5t-4.5 42.5q0 29 17 68l-35 41q12 9 12 26q0 9 -6 37t-6 31l49 16l-4 23l25 55l-49 -33q-10 17 -25 29q0 102 -6 301l16 6l-4 27l2 11q2 11 6 11l2 4q7 24 19 39
l-56 62l31 74q31 0 160 -9l37 -84l18 82l45 -32l-4 -125q-3 -71 -28 -119q24 -37 24 -121q-2 -23 -6 -68l-2 -2l-41 -8l41 -29q0 -58 -35 -174l41 56q-2 -48 2 -217q2 -106 2 -215q-2 -10 -8 -33l-64 4l-2 -6q0 -5 27 -11q28 -6 31 -28l12 -78q6 -52 6 -80q0 -9 -8 -22
t-8 -21q0 -19 8 -43l-107 82q70 -67 87 -117q14 -41 14 -149q0 -51 41 -107z" />
    <glyph glyph-name="V" unicode="V" horiz-adv-x="1325" 
d="M1274 1675l-119 -356q-54 -45 -45 -98q9 -45 -80 -230q-94 -195 -94 -293q0 -22 -14 -47l-39 -10l14 -27l-23 -8q9 -35 -24 -88l10 -33l-35 -98h-14q0 -20 -41 -70q-8 -10 -18 -21t-21.5 -23t-17.5 -19l75 22q-32 -63 -92 -305l-49 -2q-28 22 -31 70q-3 49 -30 70
q-37 151 -37 180v8l-35 33l23 41l-31 6q-2 15 -39 137l-33 115q0 85 -45 190q-72 168 -74 176l29 35l-43 29l-18 59l8 23q-18 3 -35 16q-23 90 -92 279l10 14q-6 24 -35 53l13 49l-54 29l-49 117l76 20l76 -24l-15 39l179 45l59 -191q37 -125 84 -297q4 -11 -53 -33
q-15 -6 -24.5 -9.5t-17 -7.5t-10.5 -6.5t-2 -4.5q3 -6 17 -6t51 6q33 8 47 8q10 0 10 -4q18 -59 74 -295q-30 -3 -61 -20q4 -12 34 -15q32 -3 35 -12q27 -127 62 -221l8 -4q18 46 24 100q1 7 6.5 28t8.5 33l63 252q3 16 51 19q48 6 48 10q0 5 -29 37l-35 33l45 163
q1 17 10 66q12 50 31 47l8 31q25 19 52 133l36 154l58 -11q75 -25 219 -86z" />
    <glyph glyph-name="W" unicode="W" horiz-adv-x="1748" 
d="M1659 1718l45 -37q-39 -124 -84 -286q-24 -20 -35 -64q-1 -4 2 -51q-13 -44 -71 -264q-8 -11 -46 -162q-26 -98 -26 -135q0 -17 4 -29l-10 -41l-11 -2q-65 -18 -65 -76q0 -22 35 -94l-62 -336l-14 -2l-2 -24q-15 -15 -23 -37l-16 -15l6 -40l10 -9l2 -4l-28 -24l14 -56
l-39 -2l-41 -6l-16 60q3 10 -10 48t-13 44q0 85 -37 112l-55 183l-37 69q-23 87 -78 217q-40 120 -84 228q-18 -39 -81 -197l-19 -92q-12 -61 -43 -82l-14 -74q-5 0 -29 -121q-12 -60 -21.5 -89t-17.5 -27q-10 -17 -10 -35q0 -9 -5 -29.5t-5 -23.5t-9 -14t-18 -21.5
t-8 -11.5l-39 -70l-20 -74l-60 6q0 9 -20 99q12 26 0 71q-3 18 -25 47q-53 286 -111 514q9 59 -8 127l-20 80q-16 56 -35 72l-10 86q48 48 39 90q-7 31 -25 49.5t-39 18.5l-18 16q-54 200 -84 291l12 10l-8 23l3 2q4 3 3 8l-10 -4l4 14l8 -4l14 4q0 3 -5 6t-10 4l-5 2v11
l12 26l-20 15q-12 28 -47 34l-2 2l-21 54l307 78l17 -99q0 -2 14 -27.5t10 -33.5l-8 -33l14 -33q7 -5 -13 -13q-12 -5 -21 -5q-5 0 -7.5 1.5t-1.5 4.5l-65 -53l57 -41q23 57 33 57q2 0 2 -4q-5 -24 -2 -61q33 -18 55 -33l-6 -64q-3 -24 4 -34q7 -12 12.5 -27.5t10.5 -22.5
q-9 15 -27 15q-14 0 -14 -33q0 -9 4 -41l27 -27l8 -32l18 55l25 -78q-6 14 -15 41l31 -102l64 -338q-1 3 9.5 27t10.5 26q0 64 -3 59q-1 0 -1 -2l43 29q-13 7 -29 35l13 37q26 23 26 55l-6 63v7q59 173 72 251q20 6 20 27q0 9 -12 21l47 32q-3 23 37 189q6 87 27 178
q18 -3 45 6q30 -75 49 -133l-6 -12q6 -12 12 -39q-4 -4 -23 2q-18 6 -18 0q0 -2 13.5 -24t17.5 -23q2 -8 26 -31l6 -27h17q13 -60 82 -280q-9 -22 -11 -33q0 4 25 -57q-3 -22 0 -31q17 -10 23 -10l-15 -27q11 -6 39 -10l19 -86q-3 -52 14 -119q20 -68 49 -100l23 82
q2 2 2 43v41l37 63q-3 47 6 164q7 7 30 51l-6 2q10 33 10 60q17 46 39 116q12 47 -6 84l25 121q12 10 20 29q23 23 41 55q2 6 2 21q0 19 -28 92q9 41 14 41q5 -2 6 -4q28 -5 103 -23q17 -25 55 -22q-3 -18 31 -27q28 -6 57 16z" />
    <glyph glyph-name="X" unicode="X" horiz-adv-x="1212" 
d="M1112 176l66 -117q-9 -4 -74 -41h-4q-15 0 -15 -2q-3 -14 -6 -14h-10q-28 -5 -39 -7t-31 -7.5t-28.5 -13.5t-9.5 -19h-48q-76 155 -170 362q-3 6 35 15q40 9 37 12q-61 0 -92 2l-117 246l-33 -84q-4 -4 -13 2t-17 14l-8 8q-3 0 -5 -2q8 -23 11 -67q-32 -50 -29 -76
q-82 -143 -127 -227q-24 -49 -31 -49q-14 -7 -32 -25h-7q-17 -41 -14 -59q1 -5 1 -10t0.5 -7.5t0.5 -5v-2.5l-20 -47q-36 31 -121 74q-84 46 -123 77q5 15 45 111h4q6 -2 25 -2l28 18l23 11l-4 28q6 17 10 47l14 21l-8 16l25 41l24 45q12 2 45 13l13 -2q32 18 53 51l-43 16
q-3 10 18 45q24 37 21 45l119 232l20 24q-9 22 -16 25l-21 41q3 5 -2 15.5t-2 17.5l27 32q-6 -6 -29 -6q-9 0 -12 8l22 52q-5 8 -10 8q-2 0 -13.5 -8.5t-19.5 -8.5l-47 58l-160 282l9 19l-15 18q0 9 -17 37t-18 31v72l-22 4q-3 3 -5.5 17t-5 26t-5.5 12q-6 -10 -25 -29
l-27 88q52 27 129 52q36 12 131 47q14 -30 101 -209l-2 -4v-11q-4 -23 -2 -28q0 -7 8 -31l4 -4q15 -27 37 -33l8 -10q16 -35 53 -105q3 -47 33 -81l43 -113v41l10 -8q49 84 103 200q14 14 16 17l-12 -6q46 43 49 100q69 136 141 281q30 -3 78 -15q0 -25 -2 -35q3 -9 33 -22
q2 1 5.5 2t4.5 2q10 -19 80 -10q3 -1 51 -33l-47 -133q-30 -15 -57 -64q-12 -24 -19 -45q-1 -3 -26.5 -8.5t-28.5 -15.5v-68q-5 -9 -3 -31.5t-3 -31.5q-37 -16 -45 -27l-8 -12q-13 -18 -35 -76q-4 -13 -31 -59q-3 -3 -12 -41q-6 -27 -23 -27h-71q-10 0 12 -18l10 -7
q35 -24 35 -30q-19 -29 -49 -90l69 -123l9 -29q8 -24 8 -57t-17 -86l47 45l9 -17q18 -45 51 -112q17 -36 55 -45q40 -70 47 -84l-2 -15l12 -57q4 -11 13.5 -43t20.5 -48.5t34 -29.5z" />
    <glyph glyph-name="Y" unicode="Y" horiz-adv-x="1196" 
d="M1159 1708q-39 -181 -100 -311q-89 -202 -189 -228l-2 -12q0 -2 3 -2.5t9 0.5t15 4q24 8 29 8q12 0 12 -14l-111 -322l-75 -12l63 -22l-4 -33q-24 -12 -51 0l39 -37l-25 -74q-22 -80 -22 -299l-62 -28l66 -41q-15 -18 0 -43l12 -242h-47l-31 70v-64l-88 31l-29 -37h-86
q-1 20 11 70t12 71q0 30 -10 47l2 166q0 24 -11 125q-10 95 -10 129l-4 33l2 2q-11 26 -2 74q6 28 -49 86q-12 61 -74 182q-61 122 -73 172q21 38 18 47l-4 4q-1 0 -14.5 -6t-14.5 -6q-4 0 -4 4q0 5 -22 47q-23 44 -25 53l29 11l-2 32l43 43l-80 -43l-74 150l41 59l-55 -32
l-11 61l-24 12l-35 88l102 50l52 -48q0 -8 -2 -8v4l-2 21l-2 59l81 43l123 -289q101 -235 101 -256l-19 -57l47 14q70 -125 88 -251l33 77l-12 7l16 34l47 2l-36 39l104 244l68 -37l-13 53l-22 -4q-16 29 -25 29q6 32 27 66q16 29 16 69l44 134q6 19 19 62l13 40l82 -19
l10 -41l78 19q33 -11 96 -29z" />
    <glyph glyph-name="Z" unicode="Z" horiz-adv-x="1163" 
d="M575 1718l517 4l-11 -43q-34 -58 -102 -49l76 -37l-13 -67q-29 -57 -79 -137q-11 -7 -52 -43q0 -8 0.5 -16.5t1.5 -14.5l2 -12t2.5 -10t2.5 -6.5t2 -3.5v-1q0 -4 -25 -43l-27 -39l11 -14l-27 -17q6 9 10 9v-2q0 -6 -6 -21q-36 22 -39 16l10 -81q-58 -63 -69 -86
q-36 -98 -70 -203q-40 -131 -76 -176l-4 -43l-37 49l-8 -8q4 -31 2 -70q17 -14 8 -35l-24 -53q-14 -35 -8 -51l-90 -6l71 -29q-2 -1 -5.5 -2t-4.5 -2l-14 -21q-31 -3 -68 -24l60 -19l-9 -6l-10 -22q49 3 201 6q153 6 178 6q5 -29 18 -66q4 -4 7 6q3 9 4 25q6 37 12 37l39 -4
q26 -3 35 6l96 10v-325q-40 3 -51 8l-4 2q0 10 2 26q4 18 -13 21l-47 12l-20 -57q-6 0 -17 12t-14 12q-4 0 -6 -2q-3 23 -21 56l-8 -70q-52 3 -94 -2l-45 -6l-281 22q-4 2 -22 2q-20 0 -82 -10q-49 -8 -59 -8q-8 0 -34.5 7t-33.5 7q-15 0 -27 -6l-118 -8l28 43l-10 8l14 45
h4q13 0 23 -2q20 10 29 19l20 4q-3 19 -29 33q-27 15 -24 24v14l131 21l6 12l-4 4q-23 10 -61 -4q-6 9 -35 25q-2 0 -6 4l6 -4q25 4 36 12.5t9 20.5l-10 53q32 46 32 84q3 38 27 84l37 16l59 62q-29 9 -61 28q14 69 69 168l88 160q13 47 62 166q38 0 65 55q10 23 13 23
l-13 20l99 242l-64 -12q-49 -6 -88 -3q-72 7 -90 7q-1 1 -2.5 1.5t-4.5 1t-5 1.5q-16 8 -8 8q-44 0 -66 -19q-91 -6 -231 -6v52l6 4q22 22 22 49q0 21 -18 45q4 12 4 20q0 25 -14 39v111q12 -2 34 -2l9 -9t9.5 -10t9.5 -8t12 -7.5t12.5 -4.5t15.5 -2q48 0 84 31l80 -5
q28 -28 41 -28q20 0 52 4t52 4q26 0 51 14z" />
    <glyph glyph-name="bracketleft" unicode="[" horiz-adv-x="735" 
d="M725 -31q-4 -20 -14 -61l-82 -23l84 -18l-8 -82l-76 29l24 -39h-12l2 2q-27 18 -78 18h-16l4 -6l-92 -22l-39 67l-16 -57l-21 4v-12l-72 -5l-98 3l-16 16l-15 -21l-34 11q22 42 22 69q0 7 -13.5 32t-13.5 32q0 72 17 215l28 213l-38 10q-9 141 -9 195q0 71 9 221
q6 144 6 219q28 25 28 113q0 60 -28 108q9 212 12 447l-45 303l35 59l28 -2l13 -16l164 4l-3 -6h11q33 4 69 16l13 -41l37 37h53l18 -49l49 49l21 -2l12 2h62l12 -53q-4 -21 -14 -62l-43 -2l45 -39l-9 -41l-41 29l-16 -39h-12l2 2q-29 19 -78 19h-16l4 -7l-92 -22l-23 41
h-43l-21 -29q0 -39 -14 -102q-12 -64 -12 -101q0 -8 2 -48.5t2 -55.5q0 -108 -53 -143l67 8l-14 -37l20 -70l-34 -2l36 -100q0 -73 -6 -223q-6 -147 -6 -222q0 -104 10 -206l-28 51l-10 -82q0 -12 16.5 -33.5t17.5 -42.5q6 -69 -2 -170q-9 -125 -6 -168v-80q37 -8 107 15
l12 -41l37 37h53l18 -50l50 50h88q1 -5 6.5 -6.5t5.5 -6.5z" />
    <glyph glyph-name="backslash" unicode="\" horiz-adv-x="1009" 
d="M967 8l65 -164l-45 -22q-13 8 -33 8q-38 0 -53 -35q-60 -48 -158 -45q5 62 5 64q0 98 -60 123l-26 79q11 33 -179 551q4 28 4 54q-3 6 -22.5 23t-20.5 24l-229 635l-65 143q-53 112 -50 139l2 51q-49 66 -122 238q48 22 114 63q84 53 109 64l67 -55l-57 -68h43
q24 -3 45 -37l133 -336l-61 -51l2 -57l67 39l-26 -107q9 -20 16 -20q4 0 12.5 22.5t12.5 22.5q3 0 12 -25q244 -698 371 -1012q49 -119 49 -159q29 -26 78 -150z" />
    <glyph glyph-name="bracketright" unicode="]" horiz-adv-x="735" 
d="M573 2009l35 -59l-47 -303q7 -146 14 -447q-28 -48 -28 -108q0 -88 28 -113q-3 -66 7 -219q8 -133 8 -221q0 -70 -8 -195l-41 -10l28 -213q17 -143 17 -215q0 -7 -12.5 -32t-12.5 -32q0 -28 21 -69l-35 -11l-12 21l-19 -16l-96 -3l-72 5v12l-20 -4l-19 57l-37 -67l-92 22
l2 6h-14q-51 0 -78 -18l2 -2h-12l24 39l-75 -29l-11 82l86 18l-84 23l-12 61q0 5 5.5 6.5t6.5 6.5h86l50 -50l20 50h51l37 -37l12 41q71 -23 109 -15v80q-10 127 -10 338q1 21 19 42.5t18 33.5q-5 27 -11 82l-28 -51q10 102 10 206q0 75 -6 222q-6 150 -6 223q12 32 35 100
l-33 2l20 70l-14 37l67 -8q-53 35 -53 143q0 15 2 55.5t2 48.5q0 41 -14 101q-12 68 -12 102l-21 29h-43l-22 -41l-92 22l2 7h-15q-50 0 -78 -19l2 -2h-12l-16 39l-41 -29l-10 41l45 39l-43 2l-13 62q5 18 13 53h61l12 -2l19 2l49 -49l20 49h52l36 -37l13 41q38 -12 71 -16
h9v6l163 -4l13 16z" />
    <glyph glyph-name="asciicircum" unicode="^" horiz-adv-x="1150" 
d="M1098 948l-172 -125q-11 21 -39 66q2 2 -13 37l-24 37q0 1 12 28l12 27l-38 -39q-3 30 -48 113q-42 81 -61 96q-1 1 3.5 5.5t15.5 11.5t26 16l-61 -9l-95 164q-3 2 -22 21l-21 26q5 -30 5 -43q-32 3 -82 -100q-6 -6 -15 0l-2 2q-22 0 -28 -2l22 -25q-15 -30 -18 -45
q-23 -35 -80 -137q-51 -98 -76 -135q-2 -1 -8 -3.5t-8.5 -4t-7 -5.5t-7.5 -8t-6.5 -11.5t-5.5 -16.5l-31 -58l-155 113q42 70 106 146h19q11 -11 14 -31q9 37 6 49q4 4 4 74q0 12 2.5 18t7.5 4l25 -6q-13 3 -16 19l20 26q22 11 47 57q27 49 37 80l102 162q2 0 5.5 2t14.5 19
t21 47q13 18 24 53t23 55l19 25l10 -21l31 -34l-23 49q0 14 2 26l13 2l8 23q21 -26 29 -39v-4h2q10 0 16 -21q1 -2 7 -14.5t11.5 -23.5t4.5 -11q2 -2 -5 -5l-2 -2l-6 -3v-23l-8 11l-6 -15l-4 -28q3 -3 18 14q15 22 19 18l8 -12l8 -2l33 -59q1 -9 6 -20t10 -18t14 -18.5
t13 -17.5q2 -7 22 -53q-15 -19 -22 -35l39 2l43 -45l53 -88l113 -193h-4l18 -28q-6 -9 -6 -31q0 5 26 8q13 -16 56 -84z" />
    <glyph glyph-name="underscore" unicode="_" horiz-adv-x="1288" 
d="M1278 -98l-6 -82l-10 -80l-60 -8v14l29 14q2 2 2 29q-1 14 -2.5 22.5t-3 10.5t-4.5 5.5t-4 4.5q-3 0 -6.5 -13.5t-6.5 -13.5q6 0 -1 1l-50 6q-43 3 -53 -7q-6 -8 19 -14q4 -1 9 -2q18 -5 25 -8t6 -6l-82 -37q-16 4 -30 4q-16 0 -53.5 -6t-39.5 -6q-6 0 -77 6q-56 6 -78 2
q-4 -1 -14 -2t-13 -2q-44 0 -65 24q-23 23 -86 23q-9 0 16 -16l14 -9q31 -23 31 -26l-145 4l-56 51q-20 -37 -45 -70h1v0h1v0h1v0v0v0v0v0v0h-1v0v0h-1v0h-1v0h-1v0h-1h-1h-1v0h-1h-1h-1h-1h-1h-1h-1h-1h-1h-1h-1h-1h-1h-1h-1h-1h-1h-1h-1h-1h-1h-1h-1h-1h-1h-1h-1h-1h-1h-1
h-1h-1h-1h-1h-1h-1h-1h-1h-1h-1h-1h-1h-1h-1h-1h-1h-1h-1h-1h-1h-1h-1h-1h-1h-1h-10l-25 45l-45 -28l-80 4q-6 3 -12 39q-6 37 -12 37q-11 0 -11 -15q0 -4 2 -21t2 -22q0 -15 -8 -18q-89 3 -160 0v55q33 23 33 62q0 12 -8 12q-15 -3 -18 4q2 -2 4 -2q6 0 6 22q0 10 -4 2
q-6 -9 -10 -2v2v2v3v2v2v8q1 -1 2 2v16q26 0 49 -2q30 -24 116 -24q78 0 95 14q70 -4 102 -4q14 -14 72 -14q17 0 75 7t74 7q7 0 34.5 -5t35.5 -5q18 0 59 18q163 -6 500 -6q12 -6 41 -10z" />
    <glyph glyph-name="grave" unicode="`" horiz-adv-x="788" 
d="M657 2028q-18 -22 -30 -29q-10 0 -13 10q-3 6 -12 0q-14 -14 -14 -35q-12 -8 -15 -35q-13 30 -20 39v-53l-39 -31l-20 23q0 2 -0.5 9t-1 9.5t-1.5 8t-2 7.5t-3.5 6t-5.5 5.5t-8 3.5t-11 2q-5 1 -25.5 25.5t-25.5 25.5l10 31q0 6 -11.5 6.5t-23 -0.5t-16.5 4q-7 7 -13 17
l-2 -2l-28 30q-1 26 -7 32t-32 11q-5 1 -25.5 25.5t-25.5 24.5l10 30q0 9 -23 6q-8 -1 -13.5 0t-10.5 5t-7.5 6.5t-10 11.5t-11.5 14l72 76l55 -41l-37 53l29 29l18 -18q3 -13 19 -35l49 -31l106 -113q1 -6 17 -37q3 -2 19.5 -11t29.5 -17q55 -40 110 -98z" />
    <glyph glyph-name="a" unicode="a" horiz-adv-x="1120" 
d="M1087 164l-77 -19l-47 15l10 -25l-168 -43l-53 174q2 2 2 6q0 36 -13 68q-9 0 -22 22q-57 11 -129 11q-34 0 -55 -15l-99 -4q-2 2 -10 2l-65 -1l1 -1l-6 -22q-28 -22 -28 -88q0 -8 -11 -39.5t-10 -38.5l-24 -80l-62 12q-9 14 -57 23q-2 5 -14 2q-12 -4 -19 -4
q-40 32 -51 28q-10 3 -23 13l-10 6q-6 6 -14 8l110 311q46 34 37 86l88 209q27 27 58 103q29 74 26 110l17 39q4 1 13.5 2t12.5 2l-18 29q19 -3 29 4q3 6 0 21l20 47q-7 22 -8 26q36 96 80 246h12l6 18l23 27l2 2q0 9 -15 27l11 33l-5 12q8 26 23 84l18 2v2h5q12 4 18 -8
t8 -41v-58q3 -29 29 -49q34 -140 31 -160l34 -32l-14 -13h-2q3 -13 16 -18q15 -79 62 -217q-3 -36 22 -115q23 -81 52 -106l12 -37q-2 -9 -17 -31l27 -16l16 -56q0 -6 -4 -14h2l23 -14q47 -128 96 -242l-8 -10l8 -17l4 -2q15 -9 15 -24q0 -3 -4 -23l-5 -16q10 -12 35 -16
l6 -2q6 -19 47 -115zM678 578l-35 73q-20 26 -20 56q0 27 -5 47q-57 178 -69 211q-14 -59 -53 -191q-7 -7 -27 -78l-2 -8h4q-11 -26 -57 -110q20 2 55 2l52 2h63q12 0 24 -27l4 -8l11 35q31 0 43 -4q3 -3 12 0z" />
    <glyph glyph-name="b" unicode="b" horiz-adv-x="1060" 
d="M1020 598l-242 -162q-29 -17 -51 -14q-4 0 -8 2q-6 0 -27 -49l-235 -148q-29 -20 -54 2l-6 4v-2v2l-22 -55l-96 -31q-50 3 -74 -32l-37 -25l-23 45l-41 -37l-4 178q0 28 6 166q25 66 19 101q-12 83 -12 127q0 71 20 141q0 26 -10 68q8 40 4 49v2l-2 2q-13 13 2 72l8 -5v9
v10q0 40 25 37q0 4 -11.5 19t-11.5 24t10 26l3 6l2 5l-29 34l-10 263v30l18 23l-12 41q8 36 4 55q-3 14 12 72q35 -15 78 -27l6 -29q2 1 5 2t4.5 2t2.5 1q16 -3 62 -33l29 -19l18 -10l195 -72l22 -34l31 -7h-2q12 -3 143 -94q88 -57 197 -121q-40 -22 -86 -71
q-47 -50 -64 -60q-1 -1 -7 -8.5t-10 -11.5t-12.5 -12t-18 -13.5t-22 -11.5t-28.5 -10t-35 -6l12 -27q-28 -25 -86 -68q55 -23 152 -104q88 -76 139 -88l74 -68q43 -40 86 -55zM500 1085l104 74q-13 5 -84 49q-82 52 -88 52q-1 0 -6.5 1t-9 2t-8 3.5t-6.5 5.5t-1 8v2l17 -2
q0 5 -11.5 14t-17.5 9l-22 10q6 -41 12 -111l-4 -12l-2 -2v-10q2 -2 2 -11l2 -6l-4 -10q4 -70 4 -111l40 -1l-1 -1q38 11 84 47zM588 559l67 55l-143 86q-6 3 -6 13v6q-2 2 -2 8q-16 25 -29 25l-7 1q-19 4 -36 7q-35 6 -53 -6l-14 34q-12 -80 6 -147q-3 -32 -6.5 -60.5
t-5 -40t-1.5 -12.5q0 -25 23 -51q1 -14 -3 -28t-5 -23z" />
    <glyph glyph-name="c" unicode="c" horiz-adv-x="991" 
d="M952 279l-174 -222q-16 16 -53 66q-4 4 -4 6l6 8l-27 25l-24 28v-6q-43 43 -174 189l-94 114l-11 52l-28 8q-4 4 -19 14q-18 11 -47 37l-31 41q-20 26 -39 29l-53 55l-2 16l-12 11q0 22 -8 49l-4 -8l6 -23q-7 -7 -10 -2q-2 -2 -11 -2q-11 8 -26 19t-21 16t-11.5 12.5
t-6.5 15.5v4q0 -2 -4 -2l-27 27l-6 8l16 6l2 -16l-18 4l6 8l-2 2l158 187q21 0 32 20q6 10 12 18.5t8 11t4 6t2 5t1 6.5q40 40 148 172q36 22 75 64q41 47 49 78l25 30q4 0 8 11l4 6q6 18 21 18q61 0 65 4q11 -4 45 11q-19 8 -28 26v27q0 21 75 102l164 -186l-55 -49
q-24 -11 -35 -29l-12 -43q-38 -47 -123 -127q-85 -82 -125 -131l-41 -31l-22 -6q-2 -2 0 -4l2 -4q7 -13 0 -23q-95 -83 -92 -135q-8 -8 -15 -22v-7q0 -20 19 -36l30 -33l62 -66l90 -98q13 -32 80 -96q69 -66 98 -72l-2 -10h8q6 -15 43 -55q52 -61 74 -64q21 -27 59 -65z" />
    <glyph glyph-name="d" unicode="d" horiz-adv-x="1124" 
d="M1085 854l5 -4l-31 -31q-31 -3 -62 -20l-6 -21q-25 -8 -28 -39q-5 -5 -15 -20v-4q-27 -34 -53 -56q-84 -6 -111 -49l-22 -32q-40 -21 -43 -54v-2q0 -8 -19 -18q-49 -27 -75 -39q-24 -13 -45 -41q-40 -50 -99 -100l-28 -31l2 -2q-66 -31 -84 -58q0 3 2 3q-14 0 -11 12h-4
l9 6l-19 2l-2 -33q-12 -1 -35.5 -15.5t-31.5 -14.5q-3 -5 -7 -11l-4 -6q-12 -18 -22 -18q0 -10 -29 -35q-8 -8 -20 -8q-16 0 -35 -25q-40 0 -56 -2q0 113 3 309q14 20 14 58l-4 24l-4 8q0 5 -2 7q0 58 6 233q14 38 14 92q0 117 -14 139v43l31 23h4q16 22 10 57
q-21 21 -47 60l-13 264l9 6l-2 14q4 4 4 9l4 6l2 4l-2 2v-6l-13 -76l23 84q-10 3 -6 14l12 17l-12 12q-9 27 -31 33q-9 48 -18 116q53 0 69 -16l2 -2q10 -13 52 -10l43 -49l61 -43q3 -6 49 -15q44 -9 53 -20v-29l-6 -14q101 -101 142 -101q6 0 30 9q6 -11 25 -33
q0 -24 59 -74q74 -65 80 -74l168 -125l10 -20q18 -41 43 -47l9 -2l127 -115zM739 868l2 2l-18 25q0 3 -8 6l-6 2q-15 3 -23 15q-10 12 -43 45q-24 14 -59 47h6l-47 32q-34 43 -80 64q-41 20 -86 74q-12 -27 -12 -39q0 -21 16 -37l4 -6v-8l-4 -66q-10 -23 -10 -45l3 -14
q2 -9 3 -15q-3 -8 -10 0q-8 -8 -11 -2v2v8q0 3 -2 9h11q10 7 10 0v-72q0 -27 2 -74q-13 -39 -10 -63l2 -16l1.5 -12t0.5 -5q0 -13 -4.5 -58t-4.5 -59q0 -75 9 -90q24 30 54.5 55t54.5 40.5t28 19.5q27 23 35 55q18 23 71 60q44 29 72 57l29 16q8 11 24 47z" />
    <glyph glyph-name="e" unicode="e" horiz-adv-x="1007" 
d="M944 279l-176 -222q-30 35 -53 66q-2 2 -2 6t4 8l-25 25q-5 2 -24 28v-6q-20 20 -176 189l-43 53l-54 61l-26 56v-8q-12 12 -33 26l-10 14q-10 3 -33 23q-16 29 -55 68q-4 2 -19 2l-55 55v22l14 33h-31l3 -8q-4 -4 -9 -4q-6 1 -57 33q-18 12 -18 30h-11l-12 15l-14 -23
l-6 78l16 -18l145 174q32 3 54 51l2 2l2 6q2 2 2 10q44 47 145 170q80 45 131 142v-2l12 32q2 3 11.5 14t15.5 19l8 -2q4 4 11 4q6 0 16 -2h27q2 0 6 4l-2 2q-13 25 -4 31q3 6 12 6l14 2q10 3 15 -2v27q0 20 73 102l121 -135l25 -16l-7 -7l25 -28l-55 -49q-24 -11 -35 -29
q-8 -27 -10 -43q-43 -49 -123 -127q-85 -82 -125 -131l-41 -31l-6 -2l-12 -20q1 -2 -3 -15l-59 -53l72 -6q41 -3 76 6q1 0 5.5 0.5t14 1.5t20.5 2q37 3 46 6l12 -2l2 -4l18 -2l17 -8h28q17 0 29 2q11 3 14 16l78 -14l2 -225q-166 -25 -180 -23q-26 13 -33 13q-3 0 -29 8
t-34 8q-10 0 -13 -6l-16 -8h-63l77 -97l11 -12q13 -32 80 -96q69 -66 98 -72l-4 -20q0 -2 2 -4q-15 -72 123 -107q18 -23 61 -63z" />
    <glyph glyph-name="f" unicode="f" horiz-adv-x="964" 
d="M926 1591v-252l-25 4q-36 19 -96 19q-97 0 -117 -14h-39l-6 12q-6 16 -33 10q-28 -6 -39 8q-3 6 -10 13q-3 -3 -15 -17.5t-26 -25.5h-43l-119 12h-8q-10 0 -10 -29q0 -7 8 -12l2 -8l8 -8l4 -17v-47v-33l-2 -18q-8 -13 -8 -41q0 -9 4 -21v-10q-6 -26 4 -49l-14 -76h33
q3 -6 33 -12q22 -4 45 -14q0 -1 10 2q21 12 27 12q14 0 41 -18l6 -9q0 -2 2 0q12 19 22 29q11 0 18 -1.5t9.5 -3.5t1.5 -5q3 -10 0 -10h-4q-13 3 -15 10q0 9 15 12q12 0 24 2q9 -9 37 4l29 -14l12 -14l8 14q6 2 23 2v8q3 0 21 3.5t30 4.5l4 -254q-8 2 -110 -8h-37
q-25 25 -41 25l-35 -19l6 8q-10 -10 -12 -10q-7 10 0 10q-7 0 2 9h4q17 0 29 -2l34 -2q3 -8 0 -11q6 0 -2 -8h-2l-8 6q-21 6 -28 6q-1 0 -13 -4q-1 0 -45 21l-22 -27q-4 0 -142 12q0 -2 4 -116q1 -27 2 -50.5t2 -34.5l1 -12q0 -2 -2.5 -24t-2.5 -31q0 -13 7 -20q0 -54 2 -95
q0 -9 -4 -49v-2q-11 -42 -11 -45q0 -44 33 -86q-4 -16 -4 -47h-96q-8 8 -27 12l-16 -6q-17 17 -33 17q-15 0 -37 -25q-14 -2 -55 -2q3 30 6 131q4 97 2 125q12 21 12 53q0 7 -6 25v2l-2 8q-2 2 -2 8q0 16 0.5 46t1.5 86t2 100q17 46 17 98q0 108 -15 135v41l25 17l14 8v4
q-2 -2 -12 8l-8 6q-17 14 -17 23q0 19 4 55q0 2 -10 22q-3 110 -12 259q22 -28 22 -19q-4 23 -8 29q1 4 2.5 6.5t3 3.5t2.5 0l-2 4q0 1 -1 7t-2.5 10t-7.5 7.5t-15 2.5l-2 151l159 11l23 -19l37 -14l20 18q11 4 15 10l14 5q12 -2 90 -5q13 -8 33 -8q44 0 73 -2l-18 8
q168 -4 369 -4z" />
    <glyph glyph-name="g" unicode="g" horiz-adv-x="1091" 
d="M840 983h149l-4 -119q-3 -67 -24 -114q18 -41 18 -54q0 -95 -14 -215l12 27l-4 -176l-12 -238h-50l-96 80q3 9 -10 16l-25 17q-13 10 -16 26l-107 97q-61 52 -125 73l37 23q-3 6 -49 33q-159 101 -215 186l-20 31q-15 15 -31 18l-31 31h-8q-23 42 -47 76v6v2l2 -4
q-24 17 -59 47l-23 2l-6 -8q-19 0 -19 16l-22 23l-6 18q69 87 158 184q25 0 59 15l-8 33q6 18 6 20l168 152q126 114 135 157l74 58l43 -9q27 0 12 60q-1 2 -2 7.5t-3 12.5t-5 13q46 21 69 65l205 -129l-26 -33q-34 -16 -203 -213q-148 -171 -207 -186l14 -37
q-90 -41 -110 -88q-5 -21 -31 -72v-6q0 -6 2 -10l2 -6l35 -4l-6 -64q4 1 11 3t17.5 6t16.5 6l284 -254l-10 223q3 0 5 1t4 3.5t3.5 5.5t3 8.5t2.5 10t3 13t4 15.5q-32 50 -41 117z" />
    <glyph glyph-name="h" unicode="h" horiz-adv-x="1153" 
d="M993 1579h54q-11 -226 -11 -256q-12 -21 -12 -51q0 -12 8 -43q-1 -24 -4 -103t-4 -129q-16 -43 -16 -94q0 -74 2 -125v-49l6 -119l6 -10q21 -35 0 -41q0 -128 8 -240l-10 -4v-18q-12 -21 -12 -37l-9 -14l7 -10q6 -26 32 -37l6 -66h-266q3 40 6 191q8 8 11 16q12 12 12 35
q0 19 -14 39l-2 6q-3 3 -3 6q0 184 5 291q2 2 2 6q8 13 8 43v2v2v3v2v2v2v2v3v2v2v9q-17 -5 -53 -33q-14 -9 -17 -14l-12 -7q-35 2 -203 2l-69 -2h-25q-23 13 -41 13l-14 10l-15 -10q-8 -81 -8 -285q0 -21 23 -51q0 -6 4 -80q-11 -18 -13 -27q-10 -23 -10 -47q0 -44 33 -88
q0 -25 2 -43q-59 -2 -100 -2q-17 10 -29 10q-1 0 -3 -0.5t-6.5 -1.5t-8.5 -2q-17 17 -29 17q-15 0 -37 -25h-55l6 254q14 20 14 55q-3 17 -12 37q4 184 4 236q18 41 18 98q0 109 -16 135v41q49 27 49 60q0 21 -18 45l-33 36q-1 32 -6.5 125t-7.5 138l12 6l-2 14q8 14 12 39
l8 14l-41 49q0 50 -2 89q28 0 129 -11q95 -10 134 -10l-7 -192l-4 -5q-3 -6 -4 -10q-12 -15 -12 -35q0 -17 16 -36q4 -28 4 -52v-57l-3 -8q-3 -9 -7 -15v1v1v1v1v0v0v0v0v-1v0v-1v-1v-1v-1v-1v-1v-1v-1v-1v-1v-1v-1v-1v-1v-1v-1v-1v-10q0 -29 4 -33v-129v-4q0 -4 -2 -8
q-1 1 2 8l2 4q10 10 17 8t10 -14h25l53 22l6 -4q28 -22 51 -22t39 16q6 3 59 -6l11 -2q12 0 14 2l4 2q9 6 43 6l19 -10l49 -22l2 -17q46 -6 98 23l-35 43l10 26l-4 2q-11 8 -14 29q0 13 2 23l-6 -7l6 160q0 23 -22 51q-3 40 -3 80q23 33 23 74q0 40 -31 88q-2 14 -2 43
l115 23q13 -10 16 -29q0 -1 -1 -2q-1 -4 -3 -2l25 6q4 -4 4 -6l4 -2q10 -13 18 -13q18 0 37 25z" />
    <glyph glyph-name="i" unicode="i" horiz-adv-x="569" 
d="M438 193l2 -46l-41 -2h-59q-1 0 -16 5v-5l-31 2q-17 -3 -37 21q-15 -3 -37 -25q-4 0 -24 4h-5q-3 3 -14 3l8 10q-5 0 -8 8q25 16 19 25l-27 40q6 60 4 80q-4 54 -4 82l22 27l21 63q-6 -9 -23 -6q-14 3 -16 10q-6 35 -6 68q0 50 14 133q15 88 15 135q0 27 -9 86
q-8 52 -8 88q29 16 29 60q0 28 -29 57l-8 221q-4 11 4 19l4 4q9 9 12 20q-31 66 -22 90q0 6 -14 66q-4 16 -11 23l31 32l246 2q2 -54 -4 -190q-17 -35 -23 -51q13 -25 17 -37q4 -13 2 -25l-13 -65l15 -11l-13 -20q17 -14 17 -59q-12 6 -33 12l35 -55q-8 -21 -8 -84
q0 -47 2 -88q2 -45 2 -97q3 -114 -10 -170l16 -102l-39 41q-10 -36 -2 -39q22 -6 27 -11t6 -24q-3 -34 12 -86l-12 -70q-8 -11 -8 -83q0 -43 32 -86z" />
    <glyph glyph-name="j" unicode="j" horiz-adv-x="851" 
d="M696 1604h58q-1 -45 -11 -254q-14 -17 -14 -56q0 -7 10 -37q-4 -65 -10 -233q-18 -40 -18 -96q0 -117 14 -137v-23l-2 -18q-51 -26 -51 -58q0 -24 12 -39q5 -13 23 -20l4 -8q5 -2 14 -15q0 -134 8 -262l-10 -6l2 -14l-10 -23l39 -22l-27 -54h16q-2 -28 2 -145l-61 4
l-117 109l8 57h-2q-10 -10 -20 -10q-6 -6 -14 -25l-29 41l-49 33q-36 28 -33 37q-3 3 -18 6q-32 8 -35 31q-7 4 -51 43q-14 9 -46.5 44.5t-44.5 43.5q-6 4 -67 26l35 23l-6 8q-12 15 -21 18q-18 4 -57 17v39l-47 14l-41 41q-4 4 -4 10q0 16 20 33l27 27q2 2 -15 22l66 -6
q-6 9 -6 21q0 30 65 77q17 -17 78 -71q3 -8 45 -39q15 -9 31 -25q9 -9 0 -24q-2 -10 -10 -25l67 -2q-7 -13 19 -29q39 -23 39 -37l28 -22l19 -14q-2 6 -2 24q-7 10 4 17l6 49l-12 49l20 57q-17 -14 -27 -4q-5 7 5 33v6l2 14q-3 8 4 31l2 6l-15 -2l-4 211l8 29v4l-61 29
l64 -9q-4 11 6 27q0 14 5 58.5t5 56.5q0 25 -23 51q0 14 -4 84q25 52 25 72q0 42 -33 86q-2 12 -2 45h107q10 -10 26 -13l-14 15l72 -11l-23 -12q8 -4 18 -4q17 0 39 25z" />
    <glyph glyph-name="k" unicode="k" horiz-adv-x="1093" 
d="M1042 360l23 -24l-16 -12q4 6 8 6q0 -12 -17 -51l-14 -27l-29 8v-4l-18 8q1 1 -10 8l-22 14l-11 7l6 -39l37 -16l-6 -19q3 3 8 0q-15 -38 -25 -35h2q-7 0 -14 0.5t-9.5 0t-5.5 0t-3 -2t-0.5 -4t0 -7.5t0.5 -11l-29 -45q-6 -9 -18 -21q-39 39 -91 99q-6 9 -61 67
q-9 41 -51 47q-20 27 -62 60q-42 35 -57 57q-10 32 -14.5 36.5t-36.5 16.5l-70 80q3 9 0 31q-6 28 -8 30l-12 -34l-25 43l-14 24q-6 -153 -6 -162q0 -17 24 -47l4 -82q-24 -52 -24 -73q0 -37 35 -84q0 -11 -2 -17v-12q-2 -10 -2 -33q-12 0 -72 13q-6 2 -23 2q-12 9 2 12
q4 11 9 6q6 -9 0 -18q-15 -18 -46 -15l-8 2q-8 0 -37 -16l31 63q-17 -3 -20 0q2 -2 -4 -12q-17 -26 -29 -26q-8 0 -12 2q-46 0 -64 -2q3 253 6 256q13 47 13 49q0 18 -9 39q0 6 -2 8q0 54 6 229q6 19 3 47q-2 10 -3.5 22.5t-2.5 17.5t-1 7q0 7 10.5 25.5t10.5 26.5
q0 13 -12 28q-19 22 -19 25v82l39 14q-9 6 -12 31h-13q-16 16 -38 6l-9 16l25 17q0 6 2 12v2q-2 2 -6 8q15 15 12 31q-6 25 12 43q0 6 -14 217l14 6l-4 19q7 0 21 -2l-2 -7l-10 3q-3 2 -9 4l9 16l2 6q-2 -2 -3.5 -2t-1.5 2l-4 2l-2 4q-7 4 -4 17l23 10l-6 6q-3 32 -29 35
l-4 6l8 4q2 2 8 4l2 -6l-8 -2q-4 0 -10 -2q-3 17 6 29l4 4q3 3 0 18q38 0 77 -9.5t62 -8.5q53 29 133 20q-6 -15 -16 -96q-3 -3 0 -21q0 -20 2 -22v-2l2 -2q-4 -3 -3.5 -18.5t-2.5 -18.5v-2h-2q-18 -21 -18 -39q0 -27 16 -43q4 -16 -4 -37q-12 -34 -12 -37q0 -7 8 -43
q0 -2 -6 -2l10 -8q-1 -6 -1.5 -16t-1 -25t-1.5 -27l98 105q15 15 55 24q15 3 6 25q13 8 80 84q68 77 123 104q16 19 29 11q15 -9 22 -2h-2q-9 44 -2 51l111 110l164 -157q-141 -120 -164 -178l-84 -70q-21 6 -12 33q0 -1 -6.5 -12t-19 -33.5t-26.5 -48.5q-4 -20 -45 -58
t-63 -22l-6 -19q-12 -49 -19 -53q-18 -10 -77 -70q-47 -50 -84 -65q69 -63 96 -78l43 -64l10 9l33 -23q0 -8 33 -55q4 2 8 -2t-4 -15l-31 -22q-14 -3 -16 2q-3 5 6 14l14 13q10 -10 35 -13q15 -5 45 -26q33 -3 39 -6q8 -4 16 -14.5t20.5 -31.5t24.5 -36q15 -31 23 -43
q13 -7 43 -9l35 -36q0 -5 18 -17q8 -8 10 -12q8 -32 35 -45q13 -9 55 -17z" />
    <glyph glyph-name="l" unicode="l" horiz-adv-x="929" 
d="M874 233l29 -24q15 -26 -4 -68q-125 11 -223 11q-21 0 -47 -29q-42 -9 -76 -12q-13 9 -35 36q-18 21 -26 21q-24 0 -50 -23l-59 -8l-29 17l-57 -17q-14 10 -27 13q-15 -4 -16 -5l-2 -2h-2l-4 19h12l-6 -19l-2 2q-17 17 -31 17q-18 0 -37 -25h-30l-52 -2l27 29l-8 6l4 2
l-6 4q1 8 20 51q-22 22 -20 39q3 37 12 66q0 2 4 57q14 20 14 55q0 6 -12 43h21q-6 -15 6 -18l-4 -12l-19 8q2 2 2 4l-6 14q0 53 -2 92v91q7 17 4 69q0 10 -0.5 20t-1 17t-1 13.5t-0.5 10.5t-0.5 6.5t-0.5 3.5v1q0 7 6 34t6 36q-2 36 -14 63v41q18 11 41 31q18 15 18 41
q0 36 -47 86q0 -1 -8 2v2v6q0 79 -10 246l12 8l-2 14q3 6 0 33l-2 23v12l-18 98l82 4q9 9 20 -4l10 -16l2 -4h2l7 6q13 9 10 20l147 -2l-6 -192l-2 -6q-20 -26 -20 -43q0 -21 18 -39l-4 -72q-12 -106 -6 -121q21 -53 12 -217q-2 -6 -2 -12v2q-10 -3 -12 4q-2 -2 -4 -2l18 -6
q-2 -4 -2 -78v-82l-10 -59h-29l-2 4v-4q4 -5 12 -11l6 -6q21 -15 21 -53q0 -45 -2 -96t-2 -92q0 -15 -10 -25q40 -2 202 2q18 -12 37 -12q18 0 31 8q14 0 20 6q232 0 240 2q9 -114 -25 -154z" />
    <glyph glyph-name="m" unicode="m" horiz-adv-x="1490" 
d="M1432 188l22 -59l-278 -70q-9 45 -39 148l6 24l-8 23l22 29h25l37 30l-29 21l-21 -37l-22 4q4 46 4 47q-6 3 -49 33l6 57l-8 31l-8 18l8 -14l30 -59l-34 94q3 9 8 4q9 -6 12 -6l2 12l-2 33l-20 20l-13 -41l-32 93l4 2q-22 52 -62 258q-5 -14 -2 -64l-26 -18l18 -29
q-9 -49 -37 -55l4 -39q-14 -49 -61 -219q-4 -4 -8.5 -8t-6.5 -6t-2 -3q7 -4 19 -14l-47 -33l2 -6l-53 -297l-29 -8h-2q-11 0 -21 -29q-10 39 -51 146l6 10l-10 35l29 6q-6 10 -22 32t-23 33h-13q-31 120 -71 246l8 29q-27 47 -19 67l-30 3l18 30l-26 2q-15 34 -15 54
q0 87 -43 151q-22 -55 -22 -108q0 -9 -16.5 -47.5t-16.5 -61.5q0 -50 -27 -88h2q-37 -118 -37 -225q0 -54 -32 -111q-33 -59 -33 -92q0 -6 3 -19.5t6.5 -27.5t4.5 -17q0 -3 -6 -30v-6q2 2 4 8l21 43q-25 -36 -25 -47l-2 -11q-81 14 -149 37l-19 25l-45 -17l-49 39l41 154
q29 99 59 147l-2 41q-3 59 60 209q63 149 63 211q0 13 -4 33l10 41q62 15 62 61q0 11 -29 74q12 80 53 291q3 -1 8 6t11 21q16 29 24 34l-2 25q-16 10 -16 74q6 20 18 63q41 -3 64 10l45 -110q31 -79 31 -119q0 -9 -5 -29q39 -107 218 -575q54 157 110 287q5 33 31 137
q26 110 43 127l-4 -2q16 47 51 137q32 85 35 145l76 -6q18 -86 18 -194q0 -76 55 -250q56 -177 56 -262q0 -34 16 -103q19 -68 39 -88l8 -37q-25 -29 -33 -69l21 -35q30 -13 47 -33q40 -147 74 -252l4 -4q3 -6 0 -18l-2 -13l6 -4l-19 -22l-22 14l14 8q5 0 8.5 -10.5
t1.5 -15.5q0 -1 -5 -7.5t-5 -7.5q0 -20 58 -39z" />
    <glyph glyph-name="n" unicode="n" horiz-adv-x="1120" 
d="M991 270l51 -139l-22 31q1 -3 1.5 -6.5t1 -10.5t1.5 -12l-72 8l-37 56l-112 145q0 30 -6 70q-13 -3 -43 4l-6 4l-105 172q-15 56 -49 90l-6 6q-48 48 -70 96q-12 26 -49 41l-25 35q10 21 17 43l-2 2h-10q-14 1 -25 11t-16.5 21t-14 33t-14.5 34l-8 6l-2 2l10 12
q16 -36 14 -41l-2 -8l-12 -64l16 -10l-14 -20q16 -13 16 -62q-12 9 -30 15l34 -58q-8 -21 -8 -82v-30q13 -17 -2 -23l-4 -14l19 -101l-41 39q-9 -35 -3 -37l25 -8q14 -11 2 -65q-3 -16 6 -25l-12 -68q-10 -17 -10 -90q0 -40 37 -86l2 -45l-43 -2h-64q-4 0 -16 6v-6l-33 2
q-15 -3 -39 21h2q-16 0 -41 -25q-13 0 -31 6h-6q-7 -4 -11.5 2t-4.5 19h10q19 13 19 22q0 1 -3 5t-10.5 14.5t-15.5 21.5q9 55 6 82q-7 51 -4 86l23 27l22 63q-9 -9 -27 -6q-12 3 -14 10q-6 35 -6 68q0 50 14 133q15 88 15 135q0 29 -9 84q-8 52 -8 90q43 21 43 58
q0 19 -43 59q-8 187 -10 221q-3 4 5 11.5t19 16.5t13 15q-40 75 -37 90q0 31 2 86q0 13 -12 25l37 14l18 -6h4l29 13q46 -64 74 -101q31 -11 49 -69l-9 -31l33 6l137 -182l-6 -15h4q3 -33 0 -36l52 -21q18 -66 215 -313q0 -5 8 -13l2 -4l4 70v27h-2q-12 21 -12 98l10 69
l-12 70l6 25l6 22q0 32 8 35v14q0 21 -22 52q-5 67 -5 81q10 14 13 27q10 27 10 45q0 40 -31 88q0 25 -2 43l82 4l10 -8l11 -8q10 -10 14 -12h-4q20 -3 31 -35l4 51q1 1 2 2.5t3 3.5t5 4l4 -2l14 -2h-2q4 -4 4 -6l5 2q6 -6 6 -12v-4q15 3 30 24h54q-11 -229 -11 -254
l-22 -67l18 -25q9 -9 0 -96q-1 -11 -2.5 -36t-3 -51t-2.5 -52q-9 -22 -6 -54l6 -53q0 -108 12 -129v-41q-8 -3 -28 -16l4 -4q25 -39 10 -54l-6 -6l-8 -4l-13 -10q7 -17 25 -23q4 -4 16 -24q3 -162 11 -270l-11 -5q15 -28 7 -36l-33 -17q13 -32 24 -49z" />
    <glyph glyph-name="o" unicode="o" horiz-adv-x="1372" 
d="M1339 881l-71 -133l-11 14l-4 -4l-24 30q-26 -134 -158 -313l-227 -280l-13 4q-28 -72 -83 -133l-56 2l-16 45l-25 -41q-140 196 -311 450l16 13l27 -7l2 9q0 14 -6 26l-78 12q-28 40 -45 72q-28 10 -68 45q-45 39 -59 64l2 35l-2 40q-21 -18 -49 -24l-43 55l35 39
q8 0 4 4l-6 6l106 136q68 74 133 98l-8 6l-14 31q96 122 190 274l43 8l19 56q30 25 110 118h8q18 0 29 -14l4 14h45q207 -233 309 -444h-30q-19 0 -19 -10q0 -18 6 -39l84 14q16 -9 19 -33l8 -39q34 -3 84 -65q50 -59 47 -92q31 -22 96 -49zM1047 834l-29 -3q-15 9 -6 25v16
h-4q-22 52 -88 121t-89 113l-36 84q-25 54 -58 63q-14 16 -67 93l-52 -93q-26 -54 -63 -86h-33l13 -20l-11 -33l-6 10q-3 0 0 -16q0 -2 -18 -2q-5 0 -31 20q12 -47 12 -59q0 -22 -47 -57q-46 -34 -49 -76l-63 -55q105 -76 102 -113l-2 -2l2 2q9 -100 80 -121l74 -117
q55 -79 86 -88l-2 -18q0 -16 34 -25q24 30 162 226l133 43q-19 12 -39 20l2 6q0 3 -10 0l-8 4q3 50 111 138z" />
    <glyph glyph-name="p" unicode="p" horiz-adv-x="1077" 
d="M1020 1001l31 -36l-27 -45l-78 -64l-94 -80q-37 -3 -201 -123q-146 -108 -225 -184q-12 2 -35 -4q-10 -3 -18.5 -5.5t-12 -3.5t-4.5 -1l9 -103q2 -13 -15 -59q-10 -27 -10 -39q0 -16 22 -41l19 -20l-12 -66q-77 -3 -78 -2q-14 0 -66 25l-26 -21h-47q-15 -17 -54 -8
q0 108 23 287q7 0 4 18l-10 41q0 14 4 252q4 199 2 254q26 12 26 53q0 64 -28 86l-8 201q8 0 8 2l22 63l-37 21l37 78l-10 186l33 -6q96 -81 184 -133l6 6l66 -82l61 -25l215 -200q31 -20 107 -76q65 -49 117 -66l-31 -57q2 0 30 8t37 8q18 0 21 -16q8 -8 43 -23zM647 936
l35 10q-65 30 -74 78h-10q-22 22 -104 74q-73 48 -95 80q-48 64 -71 90q-3 -5 0 -8q26 -33 26 -56q0 -33 -16 -33q-2 0 -12 7v-11q0 -8 18 -39.5t18 -46.5q0 -10 -2 -20h-6v-6q-29 -29 -59 -99v5q-9 -4 -10 -3q0 5 2 9q10 10 37 28q22 16 22 -8v-317l12 20q24 44 31 47
l150 88q108 71 108 111z" />
    <glyph glyph-name="q" unicode="q" horiz-adv-x="1310" 
d="M1268 872l8 -10q-39 -62 -135 -178l-6 -2q-27 -20 -50 -59l-41 -66q24 -24 78 -63q63 -46 109 -107l-144 -178q-34 52 -116 113q-40 26 -66 63q-54 -78 -117 -162l-14 4l-37 -37l35 -6l-88 -112l-18 12l-9 -12q-41 55 -104 129q-77 89 -80 133l-123 127q-75 78 -98 145
l29 62q-12 9 -25 2q-12 -7 -53 -4l-49 59q2 7 -21 37q-20 26 -20 49q-55 18 -82 49l2 4l-2 6l141 191q25 7 158 186q57 82 162 223l83 48l-10 38q0 27 60 105l41 -4l12 -21q16 -3 98 -108l111 -148l33 -47l7.5 -15t5.5 -12t3.5 -13.5t2.5 -13t1.5 -16.5t0.5 -19t0.5 -25
t0.5 -29l43 14q45 -34 88 -90q33 -9 90 -78l4 -4q13 -17 19 -28l-17 -11l-22 35l16 10q12 -24 17 -39l4 -14q12 -37 14 -51h4l4 2q13 4 25 2l45 -51l-2 -8q-2 -3 -4 -9l4 4q-2 -2 -6 -2zM952 840l56 37q-26 43 -129 174l28 12l-4 -2q-28 -3 -39 8q-76 91 -86 94l-121 174
l-266 -350q-19 -25 -33 -31q3 -25 0 -53l-24 -16q28 0 39 -33q19 -42 26 -47l21 -74l98 -139q78 -106 109 -113l32 -88l95 146l-76 79l4 15l-10 10q0 14 -10 37l8 31q-25 -3 -39 2l-4 -2q-2 -2 -11 -2l-10 2l-35 45l162 168l131 -125q0 -35 8 -54q20 9 33 -4l17 17
q33 33 30 82z" />
    <glyph glyph-name="r" unicode="r" horiz-adv-x="1114" 
d="M1085 236q16 -16 -77 -99q-90 -81 -107 -78l-49 9q-50 69 -94 116l-2 37l-29 60q0 -10 -12.5 -20t-18.5 -5q-47 35 -110 121q-62 89 -105 119q-68 -62 -69 -64q-19 6 -31 27l-4 10l-8 14l2 -164q0 -1 -11.5 -31t-11.5 -40q0 -17 25 -39q3 -3 8.5 -11.5t7.5 -11.5l-12 -65
q-51 -2 -78 -2q-18 4 -66 24l-26 -20h-47q-17 -17 -54 -8q0 107 23 286q7 4 4 19l-10 41q0 67 2 137v137q25 13 25 53q0 61 -29 84l-2 435q8 0 8 4q3 13 29 71l14 45l-20 39l-11 191l33 -6q169 -138 311 -240l2 2q5 -3 13 -14l55 -68l61 -24l91 -88q24 -15 77 -74
q43 -51 97 -70l-31 -57q48 16 67 16q12 0 25.5 -14.5t38.5 -22.5l31 -36l-29 -48l-78 -63l-92 -78q-15 -3 -51 -39q-52 -55 -94 -86l32 -37q20 -20 43 -65l74 -56l-76 -24q15 -27 27 -27q6 0 37 23q19 8 39 -8q60 -54 67 -54l39 -57q4 -18 51 -68q26 -29 86 -38zM655 930
l35 12q-65 27 -74 78h-10q-81 68 -270 244q-3 -6 0 -9q26 -33 26 -57q0 -33 -14 -33q-5 0 -14 6v-10q0 -6 18.5 -37.5t18.5 -48.5q0 -10 -2 -20l-19 2q0 3 -31 6q-14 0 -26 2q61 -79 61 -82q0 -278 2 -317l11 18q16 27 24 38.5t9.5 12t7.5 0.5q4 0 29 -10t34 -10q8 0 10 2
q1 3 -2 53v6v2h10q3 10 5 10q161 93 161 142z" />
    <glyph glyph-name="s" unicode="s" horiz-adv-x="1011" 
d="M967 516l-103 -84l-8 4q-64 -53 -160 -121h19q-17 -15 -43.5 -37t-67.5 -55t-72 -59q-122 -98 -178 -107l-155 185l108 59q60 35 74 76q66 51 123 80l20 -45l4 73q63 9 72 62l47 24l-82 41l-12 45q-3 14 -23 7q-26 12 -20 36l-21 -2l-49 45l23 25q21 0 53 -4l-88 35
q-41 21 -80 55q-22 25 -100 100l24 33q-34 6 -69 21l-152 168l109 75q68 48 84 97l28 22q9 -3 22 -8l15 -6l19 2l41 82l22 -6q50 38 154 135h35l26 63l15 -28l10 69l63 17l148 -168l-8 -52l-89 -73q-37 -29 -86 -43q-16 -37 -51 -58q-10 -6 -30 -22l-50 10q-15 -15 -36 -27
l-7 -4l37 2l-108 -84q36 -27 73 -86q40 -56 58 -69q42 -36 119 -45l-19 -39q1 -2 6 -13t6.5 -14.5t6.5 -13t7.5 -13l7.5 -10.5t9.5 -10t10 -6.5t11.5 -4t13 0.5q18 -11 111 -117l4 -22l12 10q10 -4 41 -43t53 -51l-37 -43l41 4l-8 -8l18 2l5 -33q2 -11 4 -31z" />
    <glyph glyph-name="t" unicode="t" horiz-adv-x="974" 
d="M934 1597l2 -41q-6 -71 -6 -227q-14 0 -84 4q-52 6 -76 6q-30 23 -45 23q-11 0 -57 -6t-62 -6q0 -25 -2 -43q-5 -35 -8 -144l-39 -16l37 -6l-21 -37h17q12 -91 12 -203q2 -42 -2 -205q-4 -192 -4 -202t-4 -38t-4 -46q0 -4 -16.5 -18.5t-16.5 -24.5q0 -9 6 -9l6 -2
q17 -3 29 -18q3 -157 35 -225q-22 -2 -303 14l12 121q9 74 6 114q9 21 12 56l13 16q-23 7 -23 25q0 148 2 252q1 52 2 113t1.5 93.5t0.5 47.5l45 24l7 10l-39 11l49 47q-45 10 -64 47l-12 227l-279 -10l-34 49l6 82l26 25l-28 4l10 118q41 0 137 -38q18 -7 25 -7q25 0 88 13
q62 13 90 10l14 -25l90 4q3 15 17 23l2 2v-2l8 8q31 1 252 21l6 -13l27 4l-11 -53l5 2l20 43l20 -14q21 21 39 35z" />
    <glyph glyph-name="u" unicode="u" horiz-adv-x="1122" 
d="M1022 186l4 -45l-88 -2q-15 0 -41 13l-18 -5l-31 15q-21 -6 -37 -25q-13 0 -57 -5t-56 -5q-17 0 -20 20h-12q-2 0 -26 -10t-32 -10q-31 2 -119 23q-73 20 -77 20q-12 -2 -37 -8l-70 -80l-6 70l-20 -19l-41 -8l-7 -10l-16 8q2 2 2 6q0 15 -119 12l8 68l41 45q-8 12 -16 45
q-9 31 -14 31q12 199 14 262q4 6 14.5 19t17 21.5t12 20.5t5.5 21q0 25 -47 55q0 30 6 92q8 55 8 90q0 54 -6 162q-6 111 -6 166l1 44l1 -1q2 2 12.5 5.5t19.5 7.5t9 8l-10 6l-35 22q-7 138 -8 174l8 4q3 57 14 64l56 12l22 -31q52 37 115 31l16 -22l-2 -7q7 0 25 -47
q-27 -37 -27 -57q0 -40 21 -74q0 -82 -27 -131l4 -18l2 -2l2 -2q13 -57 13 -262q0 -20 -11 -132q-10 -98 -10 -135q0 -38 6 -65h-24l34 -37q-20 -139 -26 -213l39 -27q10 0 67 11l39 -19l4 -4l39 12l33 -28l12 24l25 -20q30 18 65 18l7 6q47 9 67 -2l31 31q0 16 -4 168
q-2 76 -2 170q0 31 14 108q16 93 23 113l-37 45l14 25l-10 51q18 4 41 18l-2 13v-2l4 20h-29q0 7 -16 23q0 28 -4 262l12 6l-4 16q9 9 12 68q-25 28 -37 31l31 77q33 0 141 -6l27 -65l23 63l43 -31l-5 -161q-13 -20 -22 -49q20 -41 20 -95q0 -33 -6 -67l-12 -13q-1 0 10 -14
q0 -43 -14 -100l20 28q0 -116 2 -196q2 -100 2 -199q-4 -12 -10 -35h-14q15 -21 18 -88v-96q3 -53 11 -74l-43 35q28 -45 28 -160q0 -42 33 -86zM784 1468l2 2q0 5 -4 9z" />
    <glyph glyph-name="v" unicode="v" horiz-adv-x="1130" 
d="M1092 1550l-103 -309q-35 -27 -35 -84q0 -44 -159 -477l-25 -8l12 -21l-24 -8l-21 -70l8 -26l-30 -92h-13q-11 -33 -57 -82l51 16q-33 -63 -88 -283l-53 -2q-25 22 -31 64q-6 43 -26 57q-34 146 -31 160l-33 31l17 28l-19 5q-20 105 -74 266q-86 260 -88 262l21 27
l-29 18l-16 57l4 13l-25 14q-27 91 -82 242l11 10l-29 41l8 39l-39 22l-49 113l78 18l47 -14l-8 25l168 43q49 -156 121 -418q-48 -33 -82 -51q27 6 37 6l61 -4q14 -39 61 -248l-34 -21l43 -20q20 -95 45 -168q24 67 43 162q31 157 34 168l80 24q-10 8 -51 53l29 121
q26 108 45 119l8 25q19 19 41 114l33 131q44 -3 127 -36q91 -31 121 -52z" />
    <glyph glyph-name="w" unicode="w" horiz-adv-x="1488" 
d="M1401 1591l49 -39l-41 -153q-25 -86 -59 -148l2 -41q3 -51 -60 -221q-63 -168 -63 -235q0 -24 6 -39l-10 -41q-64 -15 -64 -62q0 -13 31 -73q-15 -97 -53 -291q-6 3 -21 -27q-13 -29 -22 -35l2 -24q11 -4 14 -19l-27 -22l15 -51q-51 -3 -86 -11q-15 61 -27 123
q-22 93 -39 107q-39 139 -205 559q-54 -157 -110 -287q-5 -33 -31 -137q-27 -111 -43 -127l4 2q-8 -30 -53 -119q-37 -73 -43 -119l-66 7q-18 76 -18 149q0 76 -55 250q-56 177 -56 262q0 37 -18 102q-16 68 -37 89l-10 79q25 29 33 70l-21 35q-30 13 -47 33
q-40 147 -74 252q11 4 11 10q-3 6 -9 6l-4 -4l10 37q-1 4 1 11.5t4 12.5l2 6q0 20 -54 39l-22 60l278 69q5 -27 37 -147l-6 -25l8 -22l-20 -29h-27l-35 -31l29 -20l18 37l25 -4q-4 -46 -4 -47q6 -3 49 -33q-14 -59 14 -121l-14 -14l-16 10l-2 -12l4 -33l20 -21l13 41l32 -92
l-4 -2q27 -52 41 -145q4 -38 23 -156q5 14 2 64l26 18l-18 29q9 30 35 73l-6 64q42 143 63 219l16 16l-18 15l45 32v7l51 297l31 8h2q9 0 21 26l49 -143l-4 -10l10 -35l-29 -6q6 -10 22.5 -33.5t22.5 -32.5h13q29 -115 71 -245l-8 -29q27 -47 18 -68l31 -2l-18 -30l26 -3
q17 -83 17 -98q0 -80 41 -145q12 35 12 104q0 15 33 68l-2 76q0 60 26 96h-2q37 118 37 225q0 68 37 123q39 56 39 63q0 19 -25 80l23 39l-10 2l-2 4l14 -2l2 2l4 -4q87 -17 139 -35l19 -24z" />
    <glyph glyph-name="x" unicode="x" horiz-adv-x="1042" 
d="M952 295l60 -109q-8 -8 -54 -30l-18 -13l-8 2h2q-2 2 -2 5v-5q0 -6 -8 -14h-15l-49 -8q-30 -9 -33 -31l-53 -2l-145 311q-4 11 10 19h-6q-13 0 -21 4l-86 188l-22 -53q-13 -9 -31 6q9 -35 4 -43q-25 -39 -22 -61l-107 -193q-20 -37 -29 -47h-2q-12 -6 -26 -20h-2
q-6 -15 -6 -62l-25 -53q-28 23 -109 69.5t-110 71.5q15 47 45 103l8 2q6 -2 19 -2q12 6 20 14l14 6l-2 19l9 43l10 12l-8 14l24 39q4 5 10.5 -2t6.5 -10q-2 -2 -5 1t-4 7l4 -10q-7 -1 -10.5 3.5t-1.5 10.5q2 7 23 41q3 0 43 14l10 -2q13 8 29 27l-27 10q-4 12 29 74
q3 7 0 10l100 199l6 4l8 14q-3 8 -8 13l-20 41l2 4l-2 2q-10 10 0 26l4 7q-15 3 -21 18l17 35q-6 -6 -27 -10l-43 53l-137 243l8 15l-10 12q0 16 -31 57l2 54l-14 4q-13 13 -13 37q-12 -18 -26 -15l-25 86q47 24 117 49q73 24 117 43q58 -129 88 -186v-6q-3 -31 2 -53l2 -2
q12 -22 29 -25l10 -12q20 -47 47 -92q0 -36 25 -64l18 -47v4l14 -14q33 60 80 160l8 4l-4 4q39 33 39 80l125 249q8 -8 39 -12.5t39 -11.5q0 -11 -2 -31q0 -3 18 -12l13 6q8 -14 24 -14q3 0 8 0.5t14 1.5t17 2q8 -8 31 -21q12 -6 22 -14l-43 -123q-27 -9 -49 -51
q-5 -9 -12 -35q-3 -9 -24.5 -12.5t-22.5 -5.5v-60q-3 -6 -1.5 -24.5t-6.5 -32.5q-29 -13 -37 -21q-17 -23 -33 -71q-5 -15 -27 -51q-8 -23 -10 -37q-9 -25 -27 -25h-38l2 -2q35 -24 32 -37l-39 -74q6 -10 14.5 -25t21.5 -37t22 -38v-6l4 -8q14 -48 4 -101l25 23
q14 -37 55 -121q11 -25 43 -35l43 -75l-2 -15q3 -26 22 -82q1 -4 3.5 -12.5t4 -12t4.5 -10t6.5 -10.5t9.5 -8t13 -6z" />
    <glyph glyph-name="y" unicode="y" horiz-adv-x="1007" 
d="M979 1585q-26 -119 -244 -469q-6 0 -6 8q8 0 12 2l15 7q6 2 14 2q21 0 21 -25l-95 -274l-32 -7l26 -10l-6 -39q-6 -4 -22 -8l14 -14l-21 -64q-20 -64 -20 -258l-39 -18l47 -31q-14 -17 -4 -37l10 -215h-55l-8 19v-19l-80 29l-23 -29h-88q0 25 9.5 69t9.5 60q0 24 -8 37
l2 141q0 34 -9 105q-8 63 -8 108l-4 29q-10 34 -2 55q0 7 2 11q4 18 -39 63q-12 61 -63 156q-51 102 -62 147l17 33v4q6 3 6 -6h-2l-6 -2l-13 -6q-16 -3 -16 12q0 1 -19 37q-19 37 -22 55l25 10l-3 19l-24 -12l-70 139l15 16l-21 -10l-10 59l-19 11l-34 86l98 47l29 -25
l-2 43l84 45l104 -250q86 -201 86 -223l-10 -31l28 9q52 -93 72 -187l10 23l-10 6l21 45h22l-18 20l94 222l47 -25l-4 14l-19 -4q-5 25 -24 25q6 41 24 71q13 23 13 52q0 -1 7 21t22.5 72.5t35.5 117.5l84 -19l8 -31l23 7q24 6 35 6q3 0 92 -27z" />
    <glyph glyph-name="z" unicode="z" horiz-adv-x="960" 
d="M477 1589l443 4l-13 -51q-22 -32 -57 -43l37 -18l-13 -66q-52 -95 -65 -117l-43 -34q0 -24 8 -43q3 -10 -20 -47l-19 -27l10 -17l-94 -57q10 13 43 39q17 14 25 14q6 0 6 -6q0 -7 -10 -30l-13 14l-12 12l8 -67q-51 -57 -57 -72q-11 -22 -57 -168q-35 -114 -66 -150
l-4 -57l-37 47q0 -7 1 -19l2 -25q1 1 1 3q15 -15 6 -39q-26 -65 -26 -71q0 -9 4 -21l-47 -2l49 -20l-33 -9l-12 -18q-11 -5 -35 -8l-2 -2h2q31 -9 31 -21l-8 -8l-2 -2q12 0 33 0.5t60.5 1.5t71.5 2l64 2t49 1.5t23 0.5q8 -3 14 -30q8 32 18 32q56 0 58 2q35 0 41 2
q11 4 53 9v-295q-16 1 -57 8l-7 4q-3 9 0 31q0 2 -4 6l-28 8l-19 -45q-16 -3 -26 10l-4 4q-3 3 -3 2q-11 3 -14 17l-2 2l-2 -29q-51 3 -86 -2l-39 -4l-235 16q-17 7 -109 -8l-12 -2l-9 -1.5t-4 -0.5q-7 0 -38 8q-23 7 -37 -2l-121 -8l29 45l-7 6l17 51q14 0 28 -2
q12 8 19 15l10 2q-6 6 -16 12l-8 4q-20 12 -17 25v20l105 17q-14 0 -35 -9q-9 4 -27 19l-4 4q-12 -3 -12 8q-3 6 4 16l10 -4q27 3 27 19l-4 20l-4 23q25 40 28 67q3 36 23 80l33 15l38 41l-12 4q-36 12 -33 24q17 65 60 142q69 128 71 135q7 21 56 145q8 0 15.5 2.5t12 5
t10 10t7.5 10.5t7.5 13t6.5 12l-10 21q13 27 78 188q-66 -11 -113 -8q-66 4 -74 4l-8 4l-4 2q-4 0 -8 4q-31 0 -45 -14q-82 -6 -207 -6v57q22 22 22 41q0 15 -14 35q2 8 2 21q0 11 -10 28v107q16 -2 43 -2l25 -27q8 -8 26 -8q40 0 66 26q54 -4 75 -4q10 -10 11 -12l4 -4
l2 -4q4 -4 12 -4q16 0 42 4t46 4q14 0 41 10z" />
    <glyph glyph-name="braceleft" unicode="{" horiz-adv-x="835" 
d="M813 -31q-4 -20 -14 -61l-82 -23l84 -18l-8 -82l-76 29l24 -39h-12l2 2q-27 18 -78 18h-16l4 -6l-92 -22l-39 67l-16 -57l-21 4v-12l-72 -5l-61 23l-18 16l-11 66l-41 -6q2 2 2 10t-13 36t-13 36q0 7 -3 43t-3 43q0 85 14 151q22 112 25 152l-23 182q-3 39 -33 98l-49 95
q-41 95 -151 135q1 1 4 55q178 34 178 72q69 57 69 276q0 61 -28 109q9 132 12 291l-8 118l41 127l55 66l47 35l60 2l-2 -6h10q33 4 69 16l13 -41l37 37h53l18 -49l49 49l21 -2l12 2h62l12 -53q-4 -21 -14 -62l-43 -2l45 -39l-9 -41l-41 29l-16 -39h-12l2 2q-28 19 -78 19
h-16l4 -7l-54 -8l-26 21l-76 -25l-20 -29q0 -23 -14.5 -86t-14.5 -86q0 -8 2 -48.5t2 -55.5q0 -108 -53 -143l67 8l-14 -37l21 -70l-35 -2l37 -100q0 -153 -119 -293l-15 -16q3 6 9 6q10 0 10 -25q87 -68 113 -323l-29 51l-10 -82q0 -19 16 -35q23 -16 23 -94q0 -24 -11 -74
q-14 -68 -16 -96l-14 -115q21 -71 90 -71q24 0 45 6l12 -41l37 37h53l19 -50l49 50h88q1 -5 6.5 -6.5t5.5 -6.5z" />
    <glyph glyph-name="bar" unicode="|" horiz-adv-x="518" 
d="M383 -178l2 -53l-33 -2h-61q-11 6 -31 20l4 -20l-20 4l-13 -4q-2 6 -2 18q3 20 -2 20q-22 0 -43 -43q-8 0 -19.5 6t-19.5 5l17 20q15 35 10 49l-27 64q10 94 7 133q-7 85 -5 133l21 45l22 117q-24 4 -38 10q-7 61 -7 98q0 48 13 168q14 104 14 185q0 35 -7 94t-7 90
q28 25 28 113q0 60 -28 108q-6 225 -11 375q-1 3 3.5 13.5t10.5 27t9 31.5q-25 98 -25 133q0 12 5 22q-9 12 -15 72q-3 58 -10 76l22 41l218 4q0 -72 -7 -312q-10 -31 -22 -88l20 -77q0 1 0 -1t-1 -9t-1.5 -16t-2 -23.5t-3.5 -30.5l-6 -68l12 -14l-14 -37q20 -9 20 -70
q-31 8 -34 -2l36 -100q-6 -41 -6 -141q0 -87 2 -148q3 -75 0 -115q0 -48 -10 -120l12 -127l-28 51q-10 -62 -10 -82q0 -29 16 -35q18 -3 18 -41q0 -57 13 -153l-13 -105q-8 -24 -8 -154q0 -74 35 -155z" />
    <glyph glyph-name="braceright" unicode="}" horiz-adv-x="835" 
d="M813 844q-26 -9 -59 -31q-66 -41 -92 -104q-27 -46 -52 -95q-27 -59 -30 -98l-25 -182q6 -48 27 -152q14 -66 14 -151q0 -7 -3 -43t-3 -43q0 -8 -14.5 -36t-14.5 -36q0 -6 4 -10l-41 6l-10 -66l-18 -16l-62 -23l-72 5v12l-20 -4l-18 57l-37 -67l-92 22l2 6h-15
q-51 0 -78 -18l2 -2h-12l25 39l-76 -29l-10 82l86 18l-84 23l-12 61q0 5 5.5 6.5t6.5 6.5h86l49 -50l18 50h54l37 -37l12 41q21 -6 45 -6q71 0 92 71l-14 115l-19 96q-8 36 -8 74q0 33 2 51q1 22 19 44t18 34q-4 27 -10 82l-29 -51q7 85 27 161q29 118 86 162q0 25 8 25
q4 0 10 -6l-14 16q-119 140 -119 293q12 32 35 100l-33 2l21 70l-15 37l68 -8q-53 35 -53 143q0 15 2 55.5t2 48.5q0 23 -14.5 86t-14.5 86l-21 29l-75 25l-27 -21l-53 8l2 7h-14q-49 0 -78 -19l2 -2h-13l-16 39l-41 -29l-10 41l45 39l-43 2l-12 62q4 18 12 53h61l13 -2
l18 2l49 -49l19 49h53l37 -37l12 41q38 -12 72 -16h8v6l59 -2l47 -35l56 -66l41 -127l-11 -118q9 -112 15 -291q-31 -48 -31 -109q0 -216 72 -276q-2 -19 42.5 -37t135.5 -35q0 -1 0.5 -7t1.5 -19.5t2 -28.5z" />
    <glyph glyph-name="asciitilde" unicode="~" horiz-adv-x="1064" 
d="M309 1094l35 -4h2h-2l-4 -33l35 35q45 -45 51 -50l-10 -12l22 -2q61 -44 70 -53q1 -4 -0.5 -7t2 -6.5t4.5 -5.5t6.5 -5t8 -4.5t8.5 -4t9 -3.5t9.5 -3.5t9.5 -3.5l19 8q9 -50 53 -74q61 -33 78 -53l45 47v-22q23 33 31 41l-7 24q40 36 50 39q11 26 14 29l55 57l39 6
l88 -73l-20 -27l-43 -6l20 -10l-31 -11v-16l-86 -80l4 -10l-51 -19v-12q2 -6 8 -18l-77 -72q-22 -6 -37 0l-19 6q-10 0 -20 -10l-60 43q-11 23 -14 41l-22 -15q-17 13 -72 60q-14 12 -57 96l-7 -12q11 -15 11 -29l6 -35l-35 37l2 17q-15 -12 -24 2q4 6 -15 13l-33 9l7 -6v2
q0 11 -23 49l-20 -28q-33 -3 -39 -35l-64 -4l43 -17q-5 -7 -21 -25.5t-24 -29.5q-14 -4 -27 -14.5t-19.5 -19.5t-19 -28.5t-16.5 -25.5l-96 88q3 22 57 76l80 73l2 -12q59 73 86 96l-2 5z" />
    <glyph glyph-name="nbspace" unicode="&#xa0;" horiz-adv-x="700" 
 />
    <glyph glyph-name="exclamdown" unicode="&#xa1;" horiz-adv-x="559" 
d="M360 1731h48q-3 -85 -13 -166l-8 -26q-8 -26 -8 -36q0 -11 14 -43q0 -8 -2 -14v-12h-84l-10 71l-14 -78l-150 7q0 5 -2 23t-2 22q0 8 18.5 24t18.5 19q0 4 -37 22q4 4 4 17q0 5 -2 23.5t-2 23.5q0 8 8 23t8 20q0 8 -26 41l-2 34q3 0 25 2.5t30 2.5l41 -41q2 0 2 2
q0 3 -8 21t-8 22h2q34 -27 71 -15q15 -18 39 -18q20 0 49 29zM416 4q-68 -2 -115 -2q-14 14 -39 14q-11 0 -20 -6q-22 19 -45 19q-30 0 -56 -29q-39 0 -53 -2l8 287q19 29 19 71q0 3 -4 15q0 6 -2 12v2l-7 14q0 5 -2 7q0 81 2 165t2 168q23 54 23 181v104q-3 58 -18 82
q-3 15 -3 39l35 22h6q26 33 23 60l-4 24l-16 21l-9 10h88q40 -37 64 -92q-3 56 -19 88l97 10l12 -577q-15 -46 -12 -80q6 -35 6 -99q0 -17 -6 -69.5t-6 -67.5q0 -37 30 -67l4 -86q-11 -13 -14 -33v-2l31 -4q-45 -15 -45 -53q0 -54 43 -109q2 -12 2 -37z" />
    <glyph glyph-name="cent" unicode="&#xa2;" horiz-adv-x="714" 
d="M643 905l-104 -92q-27 33 -31 14q0 5 2 7q-2 3 -4.5 5.5t-6 5.5t-5.5 5q2 7 -9 39l-8 -25q-20 39 -67 101l-4 -119q-7 -18 -7 -96q0 -44 23 -101l2 -35h-21h-41q-6 5 -18 13l2 -13l-12 2l-8 -2q-2 4 -2 13q3 12 0 12q-14 0 -29 -27q-5 0 -12 3t-11 3q-2 -2 -2 0h2
q23 30 15 44l-17 40q0 80 2 172l13 27l22 113l-22 22q-3 35 -6 35q2 0 4 2l-15 4q-2 4 -10 8q-2 3 -9 15.5t-9.5 17t-9.5 14t-12 13.5t-12.5 8t-15.5 4q-3 23 -18 60l-2 10l-8 6q0 3 -4 31l-2 -7l2 -12q-3 -5 -6 -2q-2 -2 -7 -2l-30 23q-11 11 -13 20h-2q-3 2 -5.5 4.5
t-5.5 6t-5 5.5h-4l2 5h-2l4 2l-2 2l78 94q14 4 23 15t13 20l3 8q16 16 88 102l-4 109q-1 1 1 6.5t6 17t7 21.5q-21 88 -14 100q-3 34 -15 94l15 25l137 4q2 -38 -2 -199l-12 -38h2q39 0 43 4q8 -3 28 6q-13 3 -16 16v19q0 -1 4.5 3t14 14.5t22.5 25.5l110 -99l-34 -30
q-20 -10 -31 -45l-129 -132v-2l-2 -2q-15 -15 -27 -30l-26 -21l-15 -4v-2v-2q4 -11 2 -14q-36 -26 -43 -40q-6 -11 -6 -24l-10 -14v-4q17 -17 8 -37q7 3 25 -6l39 -43l53 -68q12 -27 49 -70q42 -54 59 -57l-2 -6q3 3 6 0q2 -7 27 -35q35 -41 47 -41q20 -24 39 -43z" />
    <glyph glyph-name="sterling" unicode="&#xa3;" horiz-adv-x="1329" 
d="M856 285h274q9 -109 -55 -170l41 -37q15 -26 -4 -62q-124 13 -260 13q-34 0 -61 -37q-69 -9 -84 -10q-6 2 -35 34q-28 31 -41 31q-31 0 -36.5 -2t-29.5 -25q-5 -1 -27 -4t-36 -4l-37 21l-68 -19q-16 10 -35 15l-20 -6l4 -5v-2l-14 2l10 5q-21 18 -41 18q-8 0 -14 -2
l-27 -35l-4 12l-6 -4h-29l-37 -2l21 21l-37 4h-31q-17 0 -20 -15l-70 21v47l37 21q3 -4 -7 -2q-9 2 -34 12q-5 5 4 176q40 -3 109 0q20 2 53 2q16 29 16 70q0 7 -6 28q-1 -2 -2 -5.5t-2 -4.5l2 2q-13 3 -10 16l4 19l2 -2q0 170 2 233l-2 86l-39 2l-35 -4q-21 -3 -24 -16
l-72 14l4 152l51 6l-55 35l14 24l-12 31q48 10 94 16q58 9 66 9q11 -22 24 -35l7 55q21 3 63 51q37 43 47 66l2 2q6 12 8 22q81 86 172 199q37 20 88 78l74 94q9 20 12 37q12 16 25 29l10 -2q3 6 8 6h23q14 -2 35 -2l8 6h4q2 2 2 8q0 4 -7 15t-7 14l6 8q29 0 49 14v31
q0 17 78 104l137 -153l19 -13l-5 -6l29 -32l-55 -50q-11 -4 -20 -11t-14.5 -12.5t-10.5 -16t-7 -15.5t-5.5 -17.5t-4.5 -15.5q-52 -63 -145 -149q-97 -90 -147 -156q-14 -8 -48 -35l-10 -2l-20 -32q4 -11 2 -13q-19 -15 -90 -82q38 0 53 -6q9 -3 49 6q1 -1 43 11l6 -2l4 -2
l25 -5l22 -12l37 2q55 0 62 21l69 -13l4 -249q-182 -27 -200 -27q-32 16 -45 16q-3 0 -13.5 9.5t-13.5 9.5q-6 0 -10 -11l16 -20l-86 20q7 -7 -69 -10q0 -3 -2 -14.5t-3 -20.5l-10 -59h-18l-10 21l4 8q-1 -2 -17 -39q0 -5 22 -24.5t23 -24.5q1 -10 2 -19t1.5 -13t0.5 -5
q0 -8 7 -115q8 -79 8 -115q0 -6 -6 -13t-12.5 -11.5t-6.5 -5.5q0 -5 4 -9q33 0 125.5 2t136.5 3q21 -15 48 -15q23 0 40 10q5 0 19 7q4 0 6 2zM213 416l12 37l-12 -33v-4zM287 39l2 2zM256 16l31 23q-13 -3 -31 -21v-2zM190 47l-2 2v-5z" />
    <glyph glyph-name="currency" unicode="&#xa4;" horiz-adv-x="1329" 
d="M1194 166l-195 -246q-53 58 -55 66l12 -9q-9 36 -41 58l-49 59v-8q-64 64 -188 201l-53 63l-64 72l-35 72l-12 4l-6 4v-6q-4 4 -19 14l-12 18q-6 2 -39 27q-20 33 -71 84q-6 2 -21 2l-61 61v19l2 2l-33 -4l-8 2l-4 4l-25 2l-20 12l-39 2l-35 -4q-22 -3 -25 -16l-61 20
l2 248q5 1 19 2t31 3t34 5q81 11 106 9l11 -4l63 75q40 6 68 66l2 2q6 12 8 22q81 86 172 199q37 20 88 78l74 94q9 20 12 37q12 16 25 29l10 -2q3 6 8 6h23q14 -2 34 -2l9 6h4q2 2 2 8q0 4 -7.5 15t-7.5 14l7 8q29 0 49 14v31q0 17 78 104l137 -153l18 -13l-4 -6l29 -32
l-56 -50q-13 -5 -23 -12t-16.5 -18.5t-9 -17.5t-7 -22t-5.5 -18q-52 -63 -145 -149q-100 -93 -148 -156q-10 -6 -47 -35l-10 -2l-21 -32q4 -11 2 -13q-19 -15 -90 -82q33 0 74 -6q24 -6 70 6q13 -5 63 11l6 -2l4 -2l25 -5l22 -12l37 2q55 0 62 21l69 -13l4 -249
q-182 -27 -200 -27q-32 16 -45 16q-2 0 -20 9.5t-23 9.5q-11 0 -15 -11l-14 -6l-39 2q44 -56 123 -149q15 -37 98 -117q82 -79 123 -88q-6 1 -9 -6t-3 -21q0 -88 156 -129q32 -36 61 -65zM715 1540l-2 -2v2h2zM354 727z" />
    <glyph glyph-name="yen" unicode="&#xa5;" horiz-adv-x="1196" 
d="M1159 1708q-39 -181 -100 -311q-89 -202 -189 -228l-2 -12q0 -2 3 -2.5t9 0.5t15 4q24 8 29 8q12 0 12 -14l-59 -172h12q45 -25 67 -25q40 0 86 37l29 2q0 -45 2 -65q-17 -24 -8 -58q-14 -14 -14 -38q0 -27 24 -48v-45q-8 0 -22.5 0.5t-41.5 1.5t-50 2q-17 1 -41.5 2
t-41.5 2t-30 1q-15 12 -43 12q-17 -4 -29 -2q-1 -1 -4.5 -2t-5.5 -2l2 -2l6 2l-4 -4l27 -25l-25 -74q-14 -48 -20 -110q9 -3 6 -6q-6 -5 -2 -9q8 -4 41 -4q67 0 254 15l12 -7q17 2 17 5q0 1 -3 2l2 -19l-18 -14l16 -4l2 -43l4 -58l-4 -63l-4 -39q-10 3 -10 10v19t-10 24
q-1 1 -2 0t-2 -4.5t-3 -8t-4 -11.5q-6 -25 -10 -25q-7 0 -4 70l-12 -29l2 -16l-14 -21l-17 -2l6 35l-18 33q-5 -8 -2 -17t2 -10q0 -13 -4 -41h-33q-38 14 -131 14q-46 0 -86 -16l31 -18q-15 -18 0 -43l12 -242h-47l-31 70v-64l-88 31l-29 -37h-86q-1 20 11 70t12 71
q0 30 -10 47v111q-20 10 -33 10q-4 0 -25 6q-19 3 -26 -4l-207 -6q-6 3 -12 25q4 4 4 47q0 4 5.5 7t11.5 4l5 1l-4 4l-22 19h24q-6 4 -11.5 14.5t-10.5 24t-7 18.5l3 84l30 -4q27 -27 99 -27q4 0 8 -4.5t6 -9.5l2 -4l4 4q2 -1 3 1t1.5 5t1 6.5t1.5 6.5t3 5q35 3 94 3
q10 -14 39 -11q-6 50 -6 84l-4 33l2 2q-10 29 -4 64q6 29 -8 49q-6 2 -16 2q-99 0 -130 -17h-28l-27 43q-4 -1 -16 5l-12 6q-30 0 -54 -21v199q9 -3 174 6q-34 69 -77 178q21 38 18 47l-4 4q-1 0 -14.5 -6t-14.5 -6q-4 0 -4 4q0 5 -22 47q-23 44 -25 53l29 11l-2 32l43 43
l-80 -43l-74 150l41 59l-55 -32l-11 61l-24 12l-35 88l102 50l50 -43l-2 12l-2 59l81 43l123 -289q101 -235 101 -256l-19 -57l47 14q62 -115 86 -237q2 -1 5 -1t4 1l26 63l-12 7l16 34l47 2l-36 39l104 244l68 -37l-13 53l-22 -4q-16 29 -25 29q6 32 27 66q16 29 16 69
l44 134q6 19 19 62l13 40l82 -19l10 -41l78 19q33 -11 96 -29z" />
    <glyph glyph-name="brokenbar" unicode="&#xa6;" horiz-adv-x="518" 
d="M147 1991l218 4q0 -72 -7 -312q-10 -31 -22 -88l20 -77q0 1 0 -1t-1 -9t-1.5 -16t-2 -23.5t-3.5 -30.5l-8 -68l14 -14l-14 -37q20 -29 20 -90q-14 -3 -34 -23l36 -80q-103 -28 -153 -28q-32 0 -41 12q-9 156 -21 465q-1 3 3.5 13.5t10.5 27t9 31.5q-25 98 -25 133
q0 12 5 22q-9 12 -15 72q-3 58 -10 76zM383 -178l2 -53l-33 -2h-61q-11 6 -31 20l4 -20l-20 4l-13 -4q-2 6 -2 18q0 20 -2 20q-22 0 -43 -43q-7 0 -19 6t-22 5l19 20q15 35 10 49l-27 64q10 95 7 143q-7 100 -5 144l21 45l22 116q-20 3 -38 11q-7 61 -7 98q0 48 13 168
q14 104 14 184l182 23l27 -197l-21 -121q-7 -39 -4 -110q-3 -61 13 -154l-13 -125q-8 -24 -8 -154q0 -74 35 -155z" />
    <glyph glyph-name="section" unicode="&#xa7;" horiz-adv-x="2002" 
d="M1425 1724l-18 -28q-13 -16 -6 -33q-12 -4 -17 -4q-9 0 -24 21t-19 22l-8 31q16 4 31 14q-24 88 -133 115l-187 28l56 31q-13 13 -58 24.5t-49 14.5q-21 -12 -39 -68q-10 3 -30 -14l-9 -8q11 18 11 24q0 5 -2 7l6 8l-6 6q-2 -5 -25 -21t-14 -36q-4 15 -17 28
q-7 1 -18 -15t-19 -16q3 67 132 144q8 -8 20 -8q6 0 25.5 7.5t23.5 8.5q41 -4 160 -35q-31 -25 -31 -47q0 -11 6 -20q14 -20 70 -41q20 8 23 32v41q-16 22 -37 19q-1 0 -9 -12.5t-16 -8.5q16 48 49 105q26 9 39 -8l6 -15q-3 -8 -7.5 -19t-12 -27.5t-12.5 -28.5
q150 -82 165 -218zM1311 1733q-8 -5 -8 -25v-29h-23q3 28 -14 39l-19 -37q-5 16 -14 31l-14 -31q-10 13 -19 13q-3 0 -12.5 -2t-13.5 -2q-9 0 -17 8q-9 -12 -20 -12q-4 0 -20 6t-21 6l-6 47q77 3 221 -12zM1059 1745q-2 -2 -9 -28.5t-16 -26.5q-8 0 -14 2l-33 2q3 12 -6 30
q-3 3 -14 -8l-2 -22q-6 -3 -11.5 1t-9 10t-6.5 13l-2 6q-8 -3 -8 -12v-18h-23q0 11 -8 24l-25 -30q-3 8 -12 8h-2h-2h-3h-9l-8 -8q-3 20 -15 61q-20 0 -26 -35q-6 -36 -37 -33l-45 2q1 8 -2.5 41.5t-3.5 38.5q0 30 16 49q-3 13 5 46.5t5 46.5q2 2 12 2q4 0 16 -3t15 -3
q12 0 12 24q-3 3 -36 6q-22 3 -19 27q-1 10 0 13t8 12.5t9 13.5q3 -10 12 -10h18l15 16q10 -16 45 -16q51 0 53 -2l-41 -7q-3 -7 -21 0l-22 9q-29 -43 -8 -138q-5 -3 -17 9q-12 -12 -8 -15l8 -8q-6 -2 -22 8l-39 -45q24 -18 78 -18q63 0 82 -8q-12 0 -35 2q-20 0 -27 -17
l23 -16q41 9 106 6q12 0 24 -0.5t21.5 -0.5t18 -0.5t15 -0.5h12.5h9.5h6h2.5zM1315 1520l6 -70q-29 6 -113 10q-73 0 -108 2q-5 5 -7.5 31t-7.5 31l7 6zM1333 1327q-3 -3 -14 8l8 8q9 -13 6 -16zM1227 1352v-15l-23 9q3 6 23 6zM694 1942q3 -50 -14 -64q-6 -6 -41 -18
q-63 -12 -90 47l31 30q-12 12 -15 9v22q10 0 23 -8l22 31q21 -12 47 -9l21 -86q7 5 16 46zM1090 1354v-6l-31 8zM1047 1532l8 -23q0 -2 -1 -10.5t-1.5 -12t-2 -9.5t-4.5 -9.5t-8 -5.5q-20 -2 -69 8q-45 -12 -90 3q-9 -9 -31 -9l-33 2l-6 54q40 9 119 6t119 6zM535 1937
q0 -19 -22 -43t-40 -24q-7 0 -28.5 8t-26.5 8q-27 27 -12 92q16 23 47 23q28 0 55 -19.5t27 -44.5zM1026 1255q2 10 2 31q0 19 -16 25q-14 -3 -31 8q-3 17 12 20q21 3 27 9q34 -18 6 -93zM944 1358q0 -12 -8 -25l-84 19q3 9 37 6h2h2h2h2h3h2h2h2h2h2h2h2h2h3h2h2h2h2h2h2h3
h2h8zM1061 1432l160 -11q-21 3 -56 0q-40 -6 -51 -6q-23 0 -39 8q-40 -9 -119 -6q-85 3 -118 -4q-8 8 -15 8q-15 -15 -18 -45q0 -33 2 -47l-12 -49q-3 -30 10 -43q30 9 82 6q53 -2 86 -2v-14q-16 -8 -41 -8q-11 0 -46.5 5t-47.5 5q-23 0 -41 -6q-33 26 -33 80q0 40 20 104
q-8 8 -32 8h-35q-10 -10 -10 -24v-29l8 -8q3 6 22 6v-14q-9 -2 -30 8q-3 -1 -8.5 -16.5t-14.5 -14.5q-1 9 7.5 33t8.5 30q0 13 -8 21q-29 -10 -35 -68q-6 -56 -34 -69q0 -23 36 -23q12 12 9 15q10 -9 28 -23q7 7 35.5 3.5t34.5 10.5q6 -39 -25 -67q-3 39 -45 45
q-14 4 -28 -2l-25 -12q36 -25 45 -84q-14 32 -67 47q-50 14 -68 39q4 5 26 7t27 7q8 16 8 49v27q-2 12 -2 28q0 60 41 72q-8 3 -8 14q0 12 10 15l398 -15zM1145 1106q1 -5 -11 -15l-12 -10q-55 -8 -159 -8q43 15 182 33zM971 1133l145 18l-162 -37zM942 1090q1 -11 -3.5 -14
t-18.5 -3q-10 3 -13 14q-3 13 11 17q11 9 20 0q4 -4 4 -14zM932 1053l14 4l10 -31zM909 1053l-6 -19q-3 5 -8 19h14zM909 1143q-10 -13 -98 -37q-66 -21 -57 -82q-16 -16 -29 -6l47 121q98 -3 137 4zM893 1028l8 -6l-92 2q6 14 20 14q5 0 26.5 -6t25.5 -6q10 0 12 2z
M1573 -330l-199 -35l-391 -38l-360 -3l-267 60q-51 29 -63 76q-10 38 -10 123q3 21 61 61q48 31 82 39q9 -3 27 4l-33 53q-21 34 -21 58q0 21 19 43l18 9t20.5 11t15.5 10.5t16 14.5t8 16q4 16 4 25q0 26 -33 59q-31 36 -31 55q0 13 17 37q86 21 77 90q2 6 2 17q0 19 -34 37
t-27 47l12 36q9 20 27 31q39 -3 45 39l10 68l-37 30q-15 15 -22 39q6 65 69 68l13 51q8 30 4 49h-23q0 7 8.5 30t8.5 30q0 15 -15 24l-39 2q0 8 7.5 43.5t7.5 44.5q0 38 -49 41q-33 -3 -90 39q-53 41 -78 41q-36 0 -62 -45q-69 3 -90 55q-21 47 0 84q41 66 94 60
q55 -6 76 -47q8 -8 8 -27q0 -8 -3 -28t-3 -23q0 -32 41 -29l8 6q-11 11 -8 17q9 2 19 -8t20 -31q32 -8 98 -51q68 -45 90 -52q6 -10 39 -32q-6 -9 -16 -23q-4 -2 -14 8q-3 -4 -5.5 -7.5t-4.5 -6t-3.5 -4l-2.5 -2.5t-1 -2q42 -28 90 -25q7 -15 -18 -20q-5 0 -15 -2h-3
q-27 3 -39 -15q3 -9 0 -24q-1 -6 -2 -11.5t-1.5 -8t-0.5 -3.5q0 -14 24 -14l903 -8q4 18 -16 53q-18 37 -12 61q-11 11 -15 9l-8 -9q-11 33 -41 33q-4 0 -25 -3t-28 -3q-21 0 -35 14l-78 -12l8 -55q-30 3 -79 -6q-55 -15 -74 -15q-29 0 -53 17q-45 7 -115 10q-2 4 8 14
q3 -6 23 -6q23 16 86 25q64 9 90 32q15 12 18 68q-23 39 -78 33q-34 -39 -69 -31q-9 9 -6 23q0 27 0 24l8 8l-23 17v14q23 14 58 -4q44 -23 47 -23q17 0 26 31q-5 2 -9.5 5.5t-8.5 6.5t-7 7.5t-5.5 8t-5.5 9t-4.5 9t-3.5 10.5t-3 10t-3 10t-3 10q12 1 21 14t16 29t10 19
q18 -7 15 -35q0 -35 8 -43l-8 -8l6 -7q-9 -9 -9 -14q0 -3 9 -18q3 -13 0 -23q4 -5 26.5 -7t26.5 -7q-16 -32 -16 -94v-25q-3 -53 -11 -74l17 -14q16 32 16 90q0 98 2 100q10 -3 31 15q-13 20 -31 92q31 28 25 70h16l25 -293q43 -19 61 -17q8 24 8 62q0 17 -6 77t-6 76
q-9 15 -6 47v46h16l33 -293q3 -9 16 -9h21q13 11 4 39q-10 30 12 39q3 87 -57 168q22 3 22 17q0 5 -7 23t-7 22l-160 26q73 -4 168 4q-2 6 -31.5 20t-35.5 28l-6 45q0 3 36 0q21 -3 31 14q-39 12 -67 47q0 21 2 31q0 14 -17 24q-19 3 -22 -14v-33l-2 -22h-23v26
q-3 16 -14 21q-20 -23 -17 -31l9 -8l-9 -6l-14 53q-16 -7 -16 -53q-6 3 -6 30q-3 20 -23 17q-8 -5 -8 -23v-24q-14 0 -17 12q0 17 2 23q-3 12 -16 12q-8 -5 -8 -21v-24h-23q3 17 -6 45q-7 3 -16 -6v-25q-3 3 -6.5 30t-16.5 32q-5 -1 -9.5 -4t-7.5 -6t-6 -9t-4.5 -10
t-3.5 -11.5t-3 -11t-3 -12t-2 -10.5q-9 6 -24 6q-23 0 -25 2q-15 3 -12 31q-7 1 -10.5 -5t-3.5 -18q-3 -13 -9 -16l-22 47q-10 -3 -15.5 -23t-9.5 -22q-6 0 -6 10v19q-3 10 -14 10q-15 -41 -33 -41q-8 0 -14 2l-8 -6l-6 30q-6 30 -25 31q-27 -61 -62 -67h-30q-16 0 -23 -17
v-6q11 -6 47 -10h51q15 -47 -38 -68l-76 -6l8 7q8 7 16.5 17t8.5 17q0 6 -3 12q-13 20 -38 17q1 9 25 39.5t24 38.5q0 18 -25 34l-22 2v7q52 7 192 4q118 -3 191 4l282 -19q15 -5 52.5 8t41.5 13q21 0 37 -25l-35 -12q-20 -11 -20 -33q-4 -12 -4 -16q0 -16 22 -29
q33 -20 35 -24q-11 2 -29 -11t-18 -26q0 -9 6 -15l54 -47q-31 -31 -31 -55q0 -16 6 -37q0 14 22 14q22 3 19 23q5 -16 14 -29l-24 -16q0 -5 43 -193l8 9q2 -2 2 -7t-5 -14l-5 -8q0 -5 8 -10q-27 0 -27 -15q0 -6 2 -8q11 -11 15 -6l10 6q5 -3 8.5 -8.5t6.5 -14.5t5 -16.5
t4.5 -20t4.5 -18.5q-9 -149 49 -198q-2 0 -23.5 17t-32.5 17q-4 0 -12.5 -6t-13.5 -6q-4 0 -22 8.5t-23 8.5q-10 0 -19 -15q-21 -41 -2 -84q19 -22 47 -22q5 21 27 24.5t44.5 6t29.5 20.5q10 -7 -2 -37q-5 -4 -9 -9t-7.5 -12.5t-5 -12t-5 -14t-4.5 -13.5q-3 -35 43 -62
q45 -26 39 -63q-1 -3 -35 -49q-23 -33 -23 -54q0 -17 9 -32q47 -51 45 -78q-24 30 -60 39q-31 -18 -10 -76q14 -33 53 -10l17 24q2 -6 2 -16q0 -15 -41 -62q-4 -12 -4 -20q0 -27 41 -62q43 -34 43 -59q0 -12 -6 -27q-2 -2 -12.5 -9.5t-18.5 -16.5t-8 -19q0 -8 6 -20
q5 -11 88 -14q24 -3 55 -31l6 -3q5 -4 6.5 -5.5t6.5 -6t7 -8.5l5.5 -11t5 -14t3 -17.5t1.5 -22.5q0 -52 -16 -62q-15 -12 -125 -67q-108 -59 -125 -62zM1237 1483l12 -2v12h-12v-10zM1491 1096q2 14 2 43q0 66 -37 178q5 -63 35 -221zM641 1890l12 13q0 23 -12 57v-70z
M612 1907q3 5 -16 53l-2 -64q16 13 18 11zM969 1487h12v12h-12v-12zM1157 1270v22q-8 -3 -8 -12q0 -7 8 -10zM502 1937q-17 20 -45 11q20 -20 45 -11zM1253 1053l11 137q-1 -5 -10 -46.5t-9 -56.5q0 -21 8 -34zM438 1915q9 9 0 37q-15 15 -20 4q-7 -17 2 -41q9 -6 18 0z
M1626 557q-34 37 -61 31v-6q-3 -23 -17 -23q-21 0 -43 31q-12 3 -30 -15q0 -37 -2 -55q3 -32 22 -45q15 -3 39 6q9 28 25 31h45q31 6 22 45zM1561 305q-20 33 -60 39q-18 -15 -18 -37q3 -42 0 -45q23 -30 53 -33q31 35 25 76zM1657 51q8 13 8 27q0 19 -37 59q-18 -3 -18 -28
v-41q7 -23 30 -23q8 0 17 6zM1511 100q-27 0 -24 -39q0 -73 53 -73q11 0 23 4q1 4 8.5 23.5t7.5 25.5q7 12 -17 35t-51 24zM1579 -23l10 -2v13h-10v-11zM684 879l6 8q-10 10 -14 8zM268 1262q-2 2 -6 20t-14 18l-8 -16q11 -25 28 -22zM737 836q-35 0 -47 -25
q3 -13 -12.5 -25.5t-15.5 -15.5l4 -12q0 -23 20 -33.5t47 -5.5q51 20 51 72q0 45 -47 45zM637 834q-10 16 -23 16q-6 0 -47 -23l23 -22q0 -2 -15 -23q0 -1 1.5 -6.5t3.5 -11t4.5 -12t6 -10t7.5 -3.5q2 0 14 4q22 16 25 91zM1753 -133q14 14 14 24q0 12 -34 27q-33 11 -33 25
q-15 9 -35 0q-26 -13 -29 -13q-11 0 -20 15q-17 -3 -27 -13q-16 -22 -20 -24q-9 3 -25 0q-13 -8 -20 -8q-10 0 -15 8q-24 -17 -32 -14q-7 4 -7 24l4.5 4.5t8.5 6.5t10 3q-6 7 -16 19q-11 11 -21 4q-38 -60 -86 -51q-59 41 -59 100q0 2 3.5 17.5t5 20.5t5.5 17.5t8 18.5
t10.5 13t14.5 11q55 0 69 -16q-5 -8 -18 -8l-20 2q-24 -9 -27 -35q0 2 0 -7t0.5 -19t1.5 -23q35 -42 68 -33q34 15 34 43q0 9 -12 43t-12 43q0 30 33 47q12 2 36 -8q7 14 7 21q0 21 -35 36q-33 14 -39 27q8 13 8 37q0 9 -6 43t-6 43q-1 22 18 32.5t43 4.5q0 39 -14 47
q-15 24 -33 24q-7 0 -37.5 -20t-44.5 -20q-27 0 -51 30.5t-25 81.5q-3 52 47 90q41 3 62 -24q-22 0 -62 -29q-3 -13 9 -31l-9 -8q0 -5 -1 -7t1.5 -7t4 -7t5.5 -6.5t6 -6.5l6.5 -6.5l6.5 -6.5q28 -4 35 -4q29 0 29 31q0 7 -4.5 40.5t-4.5 43.5q0 38 25 57q3 -8 14 -8h17
q6 12 6 20q0 7 -31 24t-35 34q-22 -48 -69 -45q-71 35 -68 145q27 27 47 39q9 6 19 6q20 0 43 -23q-38 -17 -45 -24q-19 -16 -19 -43q3 -16 23 -29l30 -18q26 -2 39 14t9 45q-17 14 -17 29q0 7 9.5 29.5t9.5 29.5q0 15 -15 27q-7 3 -16 -6q-59 -9 -68 -9q-46 0 -61 27
q-15 3 -47 -8q-36 8 -86 8q-33 0 -94 -6q-82 -4 -93 -4q-60 0 -116 16q-19 -74 -35 -219q-27 -214 -27 -223l6 -8l-6 -8l-53 -390l-27 -227q-14 -3 -54 4t-52 4q-20 20 -74 29q-55 9 -72 29q11 11 9 14q-6 2 -21 2q-49 0 -98 -55q-9 -25 16 -54l246 -49q17 -24 14 -67
q-3 -53 4 -70l193 4l436 23l23 14q12 -4 18 -4q7 0 32 10t32 10q13 0 26 -10q14 19 45 10q33 -9 47 5q3 38 43 38q4 0 24.5 -2t25.5 -2q21 0 30 9q3 52 60 61q69 11 89 29.5t15 52.5zM694 627q6 9 6 18q0 19 -24 19q-20 0 -27 -13q27 -27 45 -24zM739 565q-14 17 -45 39
q-15 -3 -55 -37q-14 -14 -14 -39q0 -33 28 -61l54 6q35 21 32 92zM594 567q2 4 2 13q0 35 -39 26q-32 -8 -16 -37q18 -27 -9 -39l9 -8q11 -25 28 -22q31 28 25 67zM690 383q4 11 -14 29q-9 -6 -17 -6q-9 0 -26.5 26t-18.5 27l-6 -6q-14 -70 -16 -64q0 -31 33 -31q8 0 20 4.5
t27.5 12t17.5 8.5zM688 238q0 4 8.5 29t8.5 32q0 13 -17 23q-9 22 -31 22q-9 0 -59 -20q-16 -16 -16 -31q0 -11 14 -41l14 -29q22 -3 78 15zM543 279q8 11 8 36q0 50 -25 50q-12 0 -28 -19q-3 -26 14 -37l-14 -16l6 -29q5 -8 14 -8q22 0 25 23zM672 168l-62 -14l-39 61
q-12 -3 -16 -38t-6 -38q-3 -19 18 -28q21 -4 41 -2q3 23 33 26q34 6 31 33zM662 53q-14 39 -58 39q-33 0 -49 -29q-21 -41 -2 -75q36 -25 59 -25q13 0 25 6q28 36 25 84zM492 10l16 62l-6 39q-20 4 -27 4q-18 0 -18 -17q0 -5 4 -26.5t4 -26.5q0 -17 -10 -27zM522 -66l8 62
l-16 -70zM545 -76l8 8l-8 9v-17zM410 -61h36l-20 6zM479 -287l-37 15l-2 -23q5 8 19 8h20zM1239 756v14q6 -48 -22 -84q-60 -18 -78 -6q-52 21 -52 84q0 26 9 47q20 33 71 33q54 0 66 -43v-6q-9 33 -76 30l-24 -30q7 -2 -9 -31q10 -29 62 -47q46 9 53 39zM1034 766
q-3 -72 -63 -98q-80 -12 -107 47q-20 44 2 86q6 20 33 26l43 9q-41 -15 -41 -41q0 -9 10 -19l-30 -14q9 -26 75 -47q24 -5 45 12t21 41q0 11 -16.5 34.5t-16.5 24.5q9 2 27.5 -19t17.5 -42zM1243 510q9 -42 -39 -90q-39 -20 -84 16q-6 3 -11.5 9t-8.5 10.5t-6.5 14t-4.5 13
t-3.5 16t-2.5 13.5l19 53q16 28 43 31q6 2 20 2q61 0 70 -57q-4 1 -19.5 19.5t-23.5 19.5q-34 6 -43 -21q-15 -41 -21 -47q-3 -27 37 -45q12 -4 21 -4q42 0 57 47zM1391 209h47q-12 -30 -64 -45q-59 21 -59 98q0 26 10 64q14 20 43 20q24 0 41 -14q-56 -3 -70 -29
q9 -78 52 -94zM1006 537q3 -94 -39 -113q-78 -15 -107 8q-8 6 -14 17.5t-8 20t-5 25.5t-4 21q4 26 48 70q21 6 41 6q73 0 88 -55zM1247 266q0 -8 -8 -16q9 -25 -8 -45q-20 -45 -64 -45q-17 0 -28 8q-33 11 -54 70q0 2 3 17.5t4 20t4.5 17t7 17.5t9 12.5t12.5 10.5t16 3
l51 -2q30 -7 39 -31v-14q-12 39 -37 30q-32 6 -53 -20q2 -14 -17 -47q39 -48 84 -39q12 18 39 53zM1462 -106q-13 -13 -69 -13q40 34 69 13zM1473 -178v-12h-13v12h13zM1354 -127h-15h15zM1294 -133h15l-9 -8zM1243 20q15 -102 -63 -120q-72 3 -93 55q-9 88 50 129
q80 6 98 -47q-8 -1 -18.5 15t-18.5 16q-29 6 -55 -23q6 -6 6 -12q0 -8 -11.5 -22.5t-11.5 -16.5q0 -7 17 -17q9 -21 67 -24q42 31 33 67zM1421 -197q-13 0 -63 -8t-66 -8q-10 0 -30 4q30 17 73 14zM987 285q9 -94 -55 -121q-13 -8 -29 -8q-29 0 -63 24q-26 20 -29 53v0v0v0
v0v1v0v1v0v1v0v1v1v1v0v1v1v1v1v1v1v1v1v1v1v1v1v1v1v1v1v1v1v1v1v1v1v1v1v1v1v1v1v1v1v1v1v1v1v1v1v1v1v1v1v1v1v1v1v1v1v1v9q27 41 84 41q72 0 92 -51zM1217 -147h38q-8 2 -30 -9zM1139 -223h14q-25 -18 -57 -15q-9 0 -17.5 0.5t-15 0.5t-12 0.5t-9 0.5h-6.5h-4l8 31
q-3 -13 15 -31zM950 -59q-34 -40 -78 -43q-5 -1 -10.5 -1.5t-11 1.5t-9.5 3t-9.5 5t-8.5 6t-9.5 8t-8.5 8l-9 9l-8 8q-18 49 3 98q17 20 55 37q86 3 106 -39q20 -46 -2 -100zM1124 -154q-52 -22 -125 -22q-5 0 -16 0.5t-31 1.5t-37 2q-37 2 -90 2q-16 -23 -14 -25
q8 -8 14 -8q-10 -10 -20 -10q-6 0 -23 6l-18 6l22 15q-2 0 -14.5 8t-17.5 8q-7 0 -13 -6q-8 -3 -22 6l366 10q5 8 19 8q4 -1 7.5 -1t6 -0.5t4.5 -0.5h2zM983 539q-15 48 -76 39q0 -6 -9.5 -17.5t-6.5 -21.5q5 -13 -2.5 -25t-20.5 -6q0 -9 6.5 -16.5t13.5 -11t21.5 -10
t20.5 -9.5q55 3 55 57q0 15 -2 21zM963 270q-12 49 -50 49q-4 0 -20 -4q-8 -1 -18.5 -27t-18.5 -30q-5 -3 -14 6l-2 -14q22 -36 92 -33q40 9 31 53zM936 18q-27 58 -76 48q-12 -5 -16 -23v-31l-23 -14v-16q36 -28 84 -25q40 9 31 61zM944 1153l-6 -33l-12 4zM889 1116l26 21
q-27 -18 -24 -62q-12 27 -2 41z" />
    <glyph glyph-name="dieresis" unicode="&#xa8;" horiz-adv-x="1173" 
d="M918 2200q0 -69 -11 -148q0 -1 -8 -23.5t-8 -33.5q0 -4 3.5 -13.5t7.5 -16.5l3 -7q0 -6 -2 -12v-13h-74l-10 64l-12 -68l-137 4v21q-2 10 -2 20q0 8 15 21.5t15 15.5q0 4 -2 6l-28 15q3 9 0 36q-3 30 2 35q12 15 12 25q0 4 -25 35l-2 30q49 7 50 7l36 -39q-6 15 -10 41
q31 -25 66 -13q16 -16 34 -16q24 0 46 25q10 2 41 2zM506 1964l2 -31q-7 0 -24 -2t-25 -2l-37 37q10 -23 10 -41q-29 23 -65 14q-15 15 -35 15t-45 -25h-41q0 81 12 148q0 4 7 25t7 30q0 6 -6 22l-6 17v22h74l10 -63l12 70l138 -7q0 -3 2 -20t2 -21q0 -5 -16.5 -18.5
t-16.5 -17.5q0 -3 2 -5l31 -16q-4 -4 -2 -35.5t-2 -36.5q-13 -16 -13 -22t25 -37z" />
    <glyph glyph-name="copyright" unicode="&#xa9;" horiz-adv-x="2109" 
d="M2075 901l8 -6q0 -16 -41 -31q-39 -14 -39 -22l4 -4q24 -18 21 -21q-284 -287 -410 -311q0 -73 -100 -191q-18 -23 -160 -165q-32 -32 -53 -5l10 -49l-199 -248l-135 117q-117 105 -117 129q0 15 10 15q20 0 41 73l-86 -65q-70 67 -172 139q-78 55 -122 109
q-61 73 -117 206v-114q-44 66 -86 118l-15 -2q-45 -3 -110 80q-56 75 -72 125q-45 30 -84 53l-12 13q0 20 149 182q167 179 179 201l159 -33l-57 102q89 85 309 308q249 258 252 292l27 35q8 -11 20 -8q13 3 13 0l8 -4q71 -59 108 -98l2 -88l41 53l310 -277
q113 -116 225 -370l-21 180l82 -98q45 -59 60 -113l53 -25q24 -60 96 -82zM1819 930q-20 18 -172 205q-148 183 -148 192q0 5 12.5 14t12.5 13q0 18 -19 18q-2 0 -13 -16.5t-19 -16.5q-6 0 -21 15q-32 32 -190 157q-126 95 -181 162q-126 -130 -399 -448q-56 -66 -178 -176
q-130 -118 -185 -181v-20q65 -99 164 -133q19 -68 11 -94l47 22q61 -67 282 -272q245 -230 273 -230q9 0 127 154q0 -4 6 -4q22 0 114 115l152 188l74 -21l63 33l-55 10l-4 11q2 10 6 28q6 16 -6 25q26 36 90 70q80 39 98 57q49 43 58 123zM1249 1356q-161 -164 -252 -271
q-3 -8 -39 -24q-26 -12 -26 -27q0 -5 6 -14q-95 -83 -92 -133l-15 -21v-8q0 -28 103 -143q108 -120 156 -129q53 -87 77 -90l52 -54l-134 -163q-25 29 -45 47l9 -15q-3 19 0 41l-35 -24q-20 13 -58 57v-8l-4 6l-2 2q0 -14 17 -14q0 2 -58 69q-56 65 -53 105q-46 10 -96 65
q-54 60 -64 60l-47 49l-2 -6l-12 10q-6 40 -6 45q-10 32 -21 35q-9 -45 2 -70l-49 41q-7 5 -15.5 28.5t-13.5 24.5l-28 29l2 -16q5 5 8 14l-2 2q34 35 150 164q7 0 28.5 -6t28.5 -6q9 0 12 6l-22 49q57 44 129 143l116 156h80q4 0 20 8t21 8q6 0 10 -2q2 2 2 8l-5 2
q-5 1 -11.5 4t-13.5 8t-11.5 15t-3.5 23l52 61q93 -57 155 -141z" />
    <glyph glyph-name="ordfeminine" unicode="&#xaa;" horiz-adv-x="720" 
d="M621 1610l14 -41l-27 16l8 -20l-4 -56l21 -10l-12 -18q3 -29 6 -29l-21 -31l23 -32l-3 -1q-3 -2 -8.5 -3.5t-10.5 -4t-9 -7t-4 -9.5q0 -3 7 -8t15 -10l9 -5l-4 -28l-25 2l33 -51q-9 -9 -6 -134l2 -319l-27 -16q-38 23 -51 51q-14 9 -66 28l-18 35q-14 6 -14 -10l2 -2
l-48 33v2q-18 39 -88 90l-57 37q8 14 -29 51q-36 36 -59 39l-31 31l2 2q-2 2 -12 7t-18.5 11t-8.5 10q-14 10 -32 13l34 30l-57 11l14 34q46 26 103 80q64 50 141 144q22 -9 49 28l41 58l25 -27v55q30 18 110 107q33 3 86 24l15 -135zM465 1053l24 -37l15 17q14 17 14 22
q0 8 -13 24.5t-13 28.5q0 9 -3 27v26v80l-6 68q0 3 6.5 13.5t6.5 14.5q0 156 -11 185q-58 -80 -120 -150l-72 -59q-17 -13 -43 -45l115 -115q10 -11 45 -39.5t43 -42.5zM489 1233v6v-6z" />
    <glyph glyph-name="guillemotleft" unicode="&#xab;" horiz-adv-x="1374" 
d="M762 621l-90 -125q-49 28 -62 41l6 18q-8 -4 -22 -4l-21 12v-2q-80 46 -137 82l-65 37l-33 31l2 28q-2 -3 -25 -16q-7 2 -39 16q-18 18 -53 31l-43 25l-2 6l-8 6q14 8 25 27l-21 -5l-12 -4l8 -6h-16q-7 -11 -7 -8q-8 0 -16 8l-20 8q-15 3 -15 15q0 -2 -4 -2l-26 20l16 6
v11q3 -3 20 0l35 -17q-12 16 -24 23q-3 -3 -15 8l17 12q15 9 40.5 17.5t39.5 17.5q16 3 28 10t15 13l4 6q52 31 116 75q85 24 101 60l18 14q13 -3 15 -10l-5 18q-1 3 2 4.5t11 1.5h32q21 0 60 9q-19 4 -23 10v12q78 61 105 78l82 -113q-3 -3 -9.5 -6t-15.5 -7.5t-16 -8.5
q-22 -6 -37 -33q-83 -43 -197 -110l-30 -15l-19 17q0 -11 -2 -21l2 -2q3 -3 0 -10q-74 -35 -74 -58q-8 2 -30 2l20 -14q2 -4 14 -16l119 -68l-6 -45q20 33 23 33q9 -15 67 -45t84 -33l-28 -29l41 17l26 -17q3 -2 13 -6.5t27 -12t34 -17.5zM1315 621l-90 -125q-49 28 -62 41
l6 18q-8 -4 -22 -4l-21 12v-2q-80 46 -137 82l-65 37l-33 31l2 28q-2 -3 -25 -16q-7 2 -39 16q-18 18 -53 31l-43 25l-2 6l-8 6q14 8 25 27l-21 -5l-12 -4l8 -6h-16q-7 -11 -7 -8q-8 0 -16 8l-20 8q-15 3 -15 15q0 -2 -4 -2l-27 20l17 6v11q3 -3 20 0l35 -17q-12 16 -24 23
q-4 -3 -15 8l17 12q15 9 40.5 17.5t39.5 17.5q16 3 28 10t16 13l3 6q52 31 116 75q85 24 101 60l18 14q12 -3 14 -10l-4 18q-1 3 2 4.5t11 1.5h32q21 0 60 9q-19 4 -23 10v12q78 61 105 78l82 -113q-3 -3 -9.5 -6t-15.5 -7.5t-16 -8.5q-22 -6 -37 -33q-83 -43 -197 -110
l-30 -15l-19 17q0 -11 -2 -21l2 -2q3 -3 0 -10q-74 -35 -74 -58q-8 2 -30 2l20 -14q2 -4 14 -16l119 -68l-6 -45q20 33 23 33q9 -15 67 -45t84 -33l-28 -29l40 17l27 -17q3 -2 13 -6.5t27 -12t34 -17.5z" />
    <glyph glyph-name="logicalnot" unicode="&#xac;" horiz-adv-x="964" 
d="M913 981l-4 -29l-8 -8q3 -35 -12 -94l-2 -2q4 -8 8 -10l-6 -50l2 -2q0 3 3 0q0 -1 1 -2l-4 2q3 -35 -6 -38q6 -23 7.5 -28.5t4.5 -11t6 -12.5q2 -5 -8 -8h-1q-1 0 -7 0.5t-13 1.5q-11 3 -14 -4q37 -21 37 -37q0 -49 -2 -74l-49 -18l49 -49v-6q0 -6 -0.5 -17.5t-1 -26.5
t-1 -37.5t-1.5 -47.5q-57 -18 -133 4l-25 43l-39 -45q2 0 -2 -2l2 2q-39 0 -39 10q0 2 16.5 32.5t16.5 39.5q0 6 -4 10h-6l-31 16v15l2 -4q19 28 19 73q0 14 -19 54q0 32 -4 36t-4 41l8 -8l62 23l-58 18q-2 2 -1 5t4 9t3 9q0 18 -2 24q-16 0 -20 -4v-4q-4 -6 -16 -33h-15
l4 2q-31 17 -94 17q53 0 53 -15l-4 -4q-100 -6 -159 -8l-54 6l-24 62l-19 -60q0 -4 -8 4q-4 2 -12 2q-27 0 -56 -16q-63 0 -133 2q0 5 -24.5 20.5t-24.5 20.5q23 23 23 51q0 20 -15 41q4 12 4 21q0 20 -12 35v8q0 13 3 34.5t3 32.5q10 -2 29 -2q5 -5 18 -28q6 -13 25 -13
q16 0 45 13l2 2q16 3 25 12q6 -1 16 -1.5t25.5 -1t27.5 -1.5q5 -7 21 -4q23 10 28 10q10 0 82 10q7 3 11 -8q-1 1 -2 -2v-18q0 -13 4 -13q21 37 37 37h73l19 -49l49 49q31 -2 86 -2q5 8 12 8l8 -8h66q31 2 70 2l4 2h8q23 0 33 -2h12v-2q6 -2 22 -2z" />
    <glyph glyph-name="minus" unicode="&#xad;" horiz-adv-x="1488" 
d="M1245 913l4 -67l-4 -76l-6 -45q-10 3 -10 15t-4 16q-4 0 -4.5 14.5t-3.5 15.5q-2 2 -5 -6q-4 -7 -8 -22q-6 -29 -12 -29q-9 0 -6 82l-12 -33l2 -20l-19 -25l-18 -2l6 41l-21 39q-5 -8 -2 -18q4 -11 2 -13l-4 -49h-39q-49 19 -155 19q-58 0 -105 -21l-250 -8l-6 4
q-30 10 -43 10q-39 0 -61 -16q-172 -7 -242 -8q-7 12 -14 51q8 8 8 24l-4 31q0 6 6.5 9.5t13.5 3.5l7 1l-5 5l-28 22h30q1 3 -10.5 14t-11.5 15q-3 24 -12 39l4 98q28 -4 35 -4q33 -33 116 -33q4 0 9 -5t7 -10l3 -5l4 4q3 -3 4.5 2.5t3.5 14.5t4 11q29 2 111 2
q10 -10 59 -10q14 0 62.5 6.5t60.5 6.5q21 -9 61 -9q9 0 15 2q0 -7 33 -4l-3 21l29 -33l-6 31l29 -31q-11 15 -11 20q0 11 19 11q250 -4 364 -4l13 -9q4 0 8 4t8 3l4 -21l-22 -16l20 -6z" />
    <glyph glyph-name="minus" unicode="&#x2212;" horiz-adv-x="1488" 
d="M1245 913l4 -67l-4 -76l-6 -45q-10 3 -10 15t-4 16q-4 0 -4.5 14.5t-3.5 15.5q-2 2 -5 -6q-4 -7 -8 -22q-6 -29 -12 -29q-9 0 -6 82l-12 -33l2 -20l-19 -25l-18 -2l6 41l-21 39q-5 -8 -2 -18q4 -11 2 -13l-4 -49h-39q-49 19 -155 19q-58 0 -105 -21l-250 -8l-6 4
q-30 10 -43 10q-39 0 -61 -16q-172 -7 -242 -8q-7 12 -14 51q8 8 8 24l-4 31q0 6 6.5 9.5t13.5 3.5l7 1l-5 5l-28 22h30q1 3 -10.5 14t-11.5 15q-3 24 -12 39l4 98q28 -4 35 -4q33 -33 116 -33q4 0 9 -5t7 -10l3 -5l4 4q3 -3 4.5 2.5t3.5 14.5t4 11q29 2 111 2
q10 -10 59 -10q14 0 62.5 6.5t60.5 6.5q21 -9 61 -9q9 0 15 2q0 -7 33 -4l-3 21l29 -33l-6 31l29 -31q-11 15 -11 20q0 11 19 11q250 -4 364 -4l13 -9q4 0 8 4t8 3l4 -21l-22 -16l20 -6z" />
    <glyph glyph-name="registered" unicode="&#xae;" horiz-adv-x="2109" 
d="M2068 934l7 -33q8 -3 8 -8q0 -11 -41 -29t-41 -22q0 -1 6 -4l21 -17v-4q-30 -33 -205 -172q-151 -121 -154 -129l-51 -10q0 -85 -43 -119q-47 -55 -123 -135q-61 -52 -94 -102q-16 -19 -23 -19q-3 0 -14 7t-16 7l10 -49l-199 -248l-213 193q-21 18 -35 37q-6 9 -4 16
q2 2 6 17q4 1 9 4.5t6 3.5q14 9 30 63l-86 -65l-135 112q-10 8 -41.5 22.5t-40.5 24.5l-84 93q-54 74 -110 202v-114l-47 67l-39 51q-52 -15 -123 74q0 24 -47 68q-36 31 -27 61q-14 6 -41.5 29t-42.5 24l-12 13q4 12 4 16q69 86 168 193q131 131 156 174l159 -33l-57 102
q122 127 264 269q297 284 297 331q0 8 27 35l18 -10l15 8v-6q9 0 55 -43q46 -41 61 -59l2 -88l41 53q46 -43 146 -119q106 -81 147 -125q148 -148 248 -368l-27 145l97 -123q13 -13 26 -47.5t19 -40.5q31 0 53 -25q22 -27 35 -49q-3 -11 24 -20l37 -13q2 -4 2 -38
q0 -23 12 -29zM1851 930l-39 57q-18 27 -133 133q-102 119 -174 197q-6 6 -6 12q0 3 12.5 12t12.5 13q0 18 -17 18q-3 0 -16 -16.5t-18 -16.5q-9 0 -21 15q-30 36 -115 114q-88 79 -125 88l-59 50q-55 45 -72 67q-60 -64 -84 -96l-36 -49q116 -90 135 -101l47 -57l47 -18
l70 -68q16 -8 55 -53q38 -44 71 -53l-22 -41q0 -7 8 -7q4 0 26 6.5t27 6.5q9 0 9 -8q13 -13 36 -21l19 -22l-19 -29l-59 -47l-70 -60q-11 0 -41 -30q-54 -54 -77 -70q45 -52 63 -86l45 -33l-51 -18q16 -31 31 -31q5 0 20 9.5t19 9.5q7 0 14 -7q46 -43 53 -43l27 -39
q4 -20 35 -47l16 23l74 -21l63 33l-55 10q-8 11 -2 27q8 19 8 23q0 7 -10 14q32 48 164 102l86 90q25 32 28 58zM1233 1065l41 12l-27 13q-18 7 -33 28t-10 27h-12q-56 41 -123 106l-88 82q-5 0 -8 -8q-3 -7 2 -12q18 -21 18 -37q0 -19 -4 -19q-1 0 -6 3.5t-6 3.5
q-6 0 -6 -17q0 -6 26 -51q3 -6 0 -29q1 2 -1.5 4t-10 4t-18.5 3q-30 6 -33 6q0 -7 27 -37q26 -29 26 -37v-268q8 16 45 71q3 1 23.5 -7.5t27.5 -8.5t15 4q3 3 0 53h6q129 74 129 111zM1343 406l25 30q-6 12 -55 70l-2 24l-25 52q-12 -12 -24 -19q-34 23 -72 74l-64 82
l-34 29q-28 -22 -56 -50q-4 1 -17.5 23t-21.5 22l2 -139q-16 -37 -16 -53q0 -8 3 -15.5t6.5 -11.5t11 -11t10.5 -11l-8 -41l-56 -2q-16 6 -51 20l-20 -16h-37q-11 -11 -31 -8q4 108 16 207q7 0 4 20l-6 31v102v100q19 9 19 48q0 52 -21 67l-2 320q3 0 15 39q-33 -29 -54 -41
l-100 -123q-87 -65 -193 -168q-107 -101 -143 -156l-27 -33v-20q0 -32 89 -103q26 -8 75 -30q8 -4 11 -39q6 -34 0 -55l47 22q68 -62 213 -215q134 -148 231 -184l51 -60q40 -43 60 -43q8 0 14 9l113 145q4 -4 6 -4q19 0 114 115zM1096 1427l-6 7q6 -3 6 -7z" />
    <glyph glyph-name="overscore" unicode="&#xaf;" horiz-adv-x="1241" 
d="M877 2011l32 -31q0 5 -2 7l-6 -31q-1 0 -5 1t-13.5 3.5t-20.5 5.5q-34 12 -49 12q-6 0 -10 -4v-4q-2 -4 -12 -22h-9l2 2q-18 12 -65 12q-12 0 -37 -14l-135 -6l-39 6l-16 43l-13 -41q-2 -3 -4 -2t-6 3.5t-6 2.5q-22 0 -37 -12h-115q0 4 -27.5 15t-27.5 15q16 16 16 35
q0 12 -10 29q2 6 2 14q0 17 -8 25v6q0 8 2 23.5t2 23.5q16 0 41 -2l12 -21q3 -8 19 -8q10 0 30 10v-2l3 2q10 3 16 9q18 -2 70 -2q3 -7 14 -3q6 3 78 15l6 -15q-2 -12 2 -16q15 27 27 27v0v0v0v0h1v0h1h1v0h1h1h1h1h1h1h1h1h1h1h1h1h1h1h1h1h1h1h1h1h1h1h1h1h1h10h70h39
l12 -35q3 3 9.5 10t13 13.5t12.5 11.5h135q15 -43 0 -94z" />
    <glyph glyph-name="overscore" unicode="&#x2c9;" horiz-adv-x="1241" 
d="M877 2011l32 -31q0 5 -2 7l-6 -31q-1 0 -5 1t-13.5 3.5t-20.5 5.5q-34 12 -49 12q-6 0 -10 -4v-4q-2 -4 -12 -22h-9l2 2q-18 12 -65 12q-12 0 -37 -14l-135 -6l-39 6l-16 43l-13 -41q-2 -3 -4 -2t-6 3.5t-6 2.5q-22 0 -37 -12h-115q0 4 -27.5 15t-27.5 15q16 16 16 35
q0 12 -10 29q2 6 2 14q0 17 -8 25v6q0 8 2 23.5t2 23.5q16 0 41 -2l12 -21q3 -8 19 -8q10 0 30 10v-2l3 2q10 3 16 9q18 -2 70 -2q3 -7 14 -3q6 3 78 15l6 -15q-2 -12 2 -16q15 27 27 27v0v0v0v0h1v0h1h1v0h1h1h1h1h1h1h1h1h1h1h1h1h1h1h1h1h1h1h1h1h1h1h1h1h1h10h70h39
l12 -35q3 3 9.5 10t13 13.5t12.5 11.5h135q15 -43 0 -94z" />
    <glyph glyph-name="degree" unicode="&#xb0;" horiz-adv-x="894" 
d="M836 1348q-8 0 -11 8l4 -10l2 -9q3 -4 5 -10q-64 -75 -109 -137l-61 -64l-25 -26q-11 -25 -16 -56l-15 19l-4 -10q-20 -39 -67 -80l-47 -60l-23 -30l-29 16l-78 80q-12 16 -14 22l-2 -4q-34 34 -108 131q-14 14 -56 78q-28 11 -51 41l-2 15v-2l-4 4l-4 6q-15 19 -17 26
q-25 8 -30 9l-15 14l7 31q0 -2 -7 -2h2q13 8 21 8q15 0 -2 -33l-21 29l76 88q17 18 35 43q17 28 20 47l17 -8q190 217 190 225q0 10 27 47l16 -10q36 0 66 -64h4q58 -61 147 -180q24 -18 64 -67q13 -3 41 -48l8 -10l6 -10l-4 2q-15 6 -6 27q4 -20 20 -39l2 -15q19 -6 29 -8
l17 -14l-11 -31q-9 18 13 21zM649 1266l-33 30q10 24 17 33q-21 38 -53 70q-22 26 -36.5 45.5t-28.5 41t-21 30.5q-22 31 -45 38l-7 9l-6 -7q-8 -17 -49 -59l-41 -49l-45 -43q-28 -31 -31 -51l-8 -13l21 -24h6q4 -5 32 -45.5t44 -61.5q62 -83 79 -86l9 -10q41 53 106 115
l51 74l6 -7l-4 -14l6 -4l-8 -10q-1 -3 1 -4.5t7 -1.5q3 0 31 4z" />
    <glyph glyph-name="plusminus" unicode="&#xb1;" horiz-adv-x="1435" 
d="M1251 1020v-53q-46 3 -145 -13q-107 -15 -141 -18q-22 16 -64 16q-5 0 -12.5 -2.5t-11.5 -3.5h-3l-12 -6h-31q21 -52 37 -68q5 -53 11 -90q-11 -18 -13 -32q-10 -27 -10 -56q0 -104 25 -135l4 -35q-50 -6 -84 -8q-17 10 -35 10q-7 0 -23 -4q-20 17 -41 17q-22 0 -49 -35
q-6 -1 -22.5 -2t-24.5 -2l-8 315q12 21 12 55q0 16 -6 37l-6 21q0 4 -2 6l-2 2q-56 29 -113 29q-111 0 -139 -19h-35l-6 12q-27 52 -61 52q-30 0 -60 -23v223h2q16 0 31 9h63q56 -2 318 4q2 15 -8 71q-8 44 -8 56l6 73q3 53 -9 74q0 21 -2 41q3 1 43 33v6q2 2 7 2
q3 0 20.5 -10t20.5 -10q2 0 2 4q0 16 -4 94q0 15 -5 20l181 13v-11q-2 -6 -2 -24q3 -24 0 -90q-7 -92 -5 -117q5 -136 11 -246h30q21 0 54 33q9 0 33.5 -18t33.5 -17q12 -4 23 -4q12 0 50.5 7t45.5 7q4 0 53 -8q34 -3 47 10q4 0 9.5 1t13 2t12.5 2v-76q-10 -20 -10 -41
q0 -9 4 -21q-16 -22 -16 -45q0 -15 6 -12q11 2 20 -2zM1225 246l4 -68l-4 -76l-6 -45q-10 3 -10.5 15t-4.5 16q-4 0 -4.5 15t-3.5 16q-2 2 -7 -13q-2 -6 -5 -16q-6 -29 -13 -29q-9 0 -6 82l-12 -32l2 -21l-18 -24l-19 -3l6 41l-20 39q-5 -8 -2 -18q4 -11 2 -12l-4 -50h-41
q-49 19 -154 19q-57 0 -104 -21l-250 -8l-6 4q-33 11 -43 11q-38 0 -62 -17q-173 -7 -241 -8q-9 14 -15 51q9 9 9 25q-3 33 -5 31q0 6 7 9.5t13 4.5h7l-4 4l-29 22h31q1 3 -11 14t-12 15q-3 24 -12 39l2 98q28 -4 35 -4q36 -33 119 -33q4 0 8.5 -5t7.5 -10l2 -5l4 4
q3 -3 4.5 3t4 15t4.5 11q27 2 110 2q10 -10 60 -10q14 0 62.5 6t60.5 6q19 -8 61 -8q8 0 14 2q0 -7 33 -4l-2 20l29 -33l-6 31l28 -31q-10 13 -10 21q0 10 18 10q250 -4 365 -4l12 -8q4 0 8.5 3.5t8.5 2.5l4 -21l-23 -16l21 -6z" />
    <glyph glyph-name="twosuperior" unicode="&#xb2;" horiz-adv-x="940" 
d="M815 1329l31 -39l-43 -24l8 6l-2 -15l-6 9l-19 -19q3 -15 -49 -49l8 -6q-15 -27 -18 -49q-15 -6 -12 -23l-41 -41q-14 -3 -49 -47l-13 -31l-8 -30l-37 57l4 -53l15 -19l-111 -122l-45 16l27 -39q-23 -41 -66 -70q27 6 266 9l13 -41l16 41l154 4l-2 -58l-43 -16l43 -23
l-2 -108l-68 -6v2l-8 33l-33 8l-14 -39l-27 14l-14 41l-6 -49l-97 -6q-74 4 -340 4q-125 0 -149 -4l-4 39l26 22l15 10l20 -2q17 17 19 17q0 29 -23 39v10l78 14l4 9l-2 4l-43 -2q-4 -1 -14.5 7.5t-12.5 8.5l27 14l70 4l-37 43q79 123 174 205l76 -31l-27 50q1 9 -4.5 30.5
t-5.5 24.5q0 6 4 10l108 137q4 4 6 4q4 0 23.5 -13t24.5 -13l4 4q-18 18 -33 45q1 4 -2 11t-6.5 12t-3.5 6l29 31q5 6 17 19l1 1l1 1l1 1l-105 12q0 10 4 10q5 5 19 -4l-8 29v29l-49 -2l-121 118l24 72q-6 6 -39 -14q-31 -21 -37 -15q-20 12 -102 76l57 66h31v33l62 67
l53 -74v-20q0 -8 -18.5 -16t-18.5 -11v-6q35 21 39 19l59 -2q66 -78 156 -150q-9 -34 -12 -78q29 25 55 41q146 -133 178 -170z" />
    <glyph glyph-name="threesuperior" unicode="&#xb3;" horiz-adv-x="876" 
d="M799 907q-43 -37 -156 -127q-18 -12 -31 -12q-4 0 -9 2l-5 2q-10 0 -31 -43l-176 -106q-11 -5 -39.5 -7.5t-32.5 -7.5l-22 -28l-72 -39q-43 3 -65 -29q-12 20 -23 29q-2 3 -6 -6q-2 -6 -6 -17q-9 -26 -12 -20l-27 -6v176q0 14 16 14q3 0 16 -2t17 -2q27 0 27 29
q0 -5 4 -5q3 0 45 25q40 24 43 18q3 -18 22 -18q32 0 29 64l152 90q33 20 55 39l-55 30q-4 0 -27 23l-22 24q28 -3 28 0q-15 27 -33 27l-34 8q-32 3 -43 -2l-107 66l-86 43q9 28 12 28t9 -5l6 -5q8 0 14 29q11 -4 27 18q19 25 39 19l59 39q33 33 61 55q25 11 78 55l31 29
q-7 0 -59 24q-53 27 -58 25q-8 0 -14 2v10q0 9 -19 6l-223 107l-2 51l19 19l-13 36q0 27 13 97q4 -4 53 -19l4 -18l33 -6l92 -43l141 -64l21 -31l28 -6q22 3 271 -147q-15 -9 -58 -64q-40 -52 -55 -61l-33 -35q-22 -20 -90 -29l12 -24q-14 -17 -81 -62q14 -3 96 -67
q-9 -7 -21 -27q-2 -2 -4 -8q6 0 62 20q36 -36 71 -63q44 -44 144 -117z" />
    <glyph glyph-name="acute" unicode="&#xb4;" horiz-adv-x="788" 
d="M586 2347l71 -76l-24 -33q-6 -4 -17.5 -3t-22.5 0t-11 -7l10 -30q-5 0 -25.5 -24.5t-25.5 -25.5q-26 -5 -32 -11t-7 -32l-29 -30l-2 2q-5 -10 -12 -17q-5 -5 -16.5 -4t-23 0.5t-11.5 -6.5l10 -31q-5 -1 -25.5 -25.5t-25.5 -25.5q-6 0 -11 -2t-8 -3.5t-5.5 -5.5t-3.5 -6
t-2 -7.5t-1.5 -8t-1 -9.5t-0.5 -9l-21 -23l-37 31l-2 53q-8 -27 -20 -39q0 27 -14 35q0 20 -15 35q-7 5 -10 0q-7 -10 -14 -10q-14 8 -31 29q52 55 111 98q9 3 49 28l18 37q22 34 105 113l49 31l18 35l19 18l28 -29l-37 -53z" />
    <glyph glyph-name="mu" unicode="&#xb5;" horiz-adv-x="1122" 
d="M1006 580l-27 -64l-39 -8q-16 -4 -41 10l-16 -4l-33 16q-23 -10 -37 -24q-13 0 -57 -5t-56 -5q-17 0 -20 18h-12q-2 0 -25.5 -9t-32.5 -9q-72 5 -155 16q-109 14 -119 14q-5 0 -8 -65t-9 -68l-40 -31l40 -26l17 -191l-74 -26l-33 80l-14 -76q2 2 2 6q0 15 -119 12l8 68
l41 45q-8 12 -16 45q-9 31 -14 31q12 199 14 262q4 6 14.5 19t17 21.5t12 20.5t5.5 21q0 25 -47 55q0 30 6 92q8 55 8 90q0 54 -6 162q-6 111 -6 166l1 44l1 -1q2 2 12.5 5.5t19.5 7.5t9 8l-10 6l-35 22q-7 138 -8 174l8 4q3 57 14 64l56 12l22 -31q52 37 115 31l16 -22
l-2 -7q7 0 25 -47q-27 -37 -27 -57q0 -40 21 -74q0 -82 -27 -131l4 -18l2 -2l2 -2q8 -36 8 -66q0 -10 -0.5 -19t-1 -15.5t-1 -12t-0.5 -9.5t-0.5 -6.5t-0.5 -3.5v-1q0 -39 -2 -41q-5 5 -2 8q2 -2 8 -37l-32 -25l35 -34q-23 -167 -27 -213l39 -29q59 8 67 10l39 -16l4 -6
l41 14l31 -31l12 27l25 -21v-2q31 22 66 19l8 8q43 9 65 -4l31 33q0 51 4 63t4 66q0 18 6 30l15 31l-21 23l-2 47l-10 51q18 4 41 18l-2 13v-2l4 20h-29q0 7 -16 23q0 28 -4 262l12 6l-4 16q9 9 12 68q-25 28 -37 31l31 77q33 0 141 -6l27 -65l23 63l43 -31l-5 -161
q-13 -20 -22 -49q20 -41 20 -95q0 -33 -6 -67l-12 -13q-1 0 10 -14q0 -43 -14 -100l20 28q2 -4 2 -14l3 26q1 -3 1 -38q-2 -12 -8 -37l-16 2q17 -24 20 -88v-96q0 -50 9 -74l-43 33q28 -42 28 -158q0 -40 15 -61zM784 1468l2 2q0 5 -4 9z" />
    <glyph glyph-name="mu" unicode="&#x3bc;" horiz-adv-x="1122" 
d="M1006 580l-27 -64l-39 -8q-16 -4 -41 10l-16 -4l-33 16q-23 -10 -37 -24q-13 0 -57 -5t-56 -5q-17 0 -20 18h-12q-2 0 -25.5 -9t-32.5 -9q-72 5 -155 16q-109 14 -119 14q-5 0 -8 -65t-9 -68l-40 -31l40 -26l17 -191l-74 -26l-33 80l-14 -76q2 2 2 6q0 15 -119 12l8 68
l41 45q-8 12 -16 45q-9 31 -14 31q12 199 14 262q4 6 14.5 19t17 21.5t12 20.5t5.5 21q0 25 -47 55q0 30 6 92q8 55 8 90q0 54 -6 162q-6 111 -6 166l1 44l1 -1q2 2 12.5 5.5t19.5 7.5t9 8l-10 6l-35 22q-7 138 -8 174l8 4q3 57 14 64l56 12l22 -31q52 37 115 31l16 -22
l-2 -7q7 0 25 -47q-27 -37 -27 -57q0 -40 21 -74q0 -82 -27 -131l4 -18l2 -2l2 -2q8 -36 8 -66q0 -10 -0.5 -19t-1 -15.5t-1 -12t-0.5 -9.5t-0.5 -6.5t-0.5 -3.5v-1q0 -39 -2 -41q-5 5 -2 8q2 -2 8 -37l-32 -25l35 -34q-23 -167 -27 -213l39 -29q59 8 67 10l39 -16l4 -6
l41 14l31 -31l12 27l25 -21v-2q31 22 66 19l8 8q43 9 65 -4l31 33q0 51 4 63t4 66q0 18 6 30l15 31l-21 23l-2 47l-10 51q18 4 41 18l-2 13v-2l4 20h-29q0 7 -16 23q0 28 -4 262l12 6l-4 16q9 9 12 68q-25 28 -37 31l31 77q33 0 141 -6l27 -65l23 63l43 -31l-5 -161
q-13 -20 -22 -49q20 -41 20 -95q0 -33 -6 -67l-12 -13q-1 0 10 -14q0 -43 -14 -100l20 28q2 -4 2 -14l3 26q1 -3 1 -38q-2 -12 -8 -37l-16 2q17 -24 20 -88v-96q0 -50 9 -74l-43 33q28 -42 28 -158q0 -40 15 -61zM784 1468l2 2q0 5 -4 9z" />
    <glyph glyph-name="paragraph" unicode="&#xb6;" horiz-adv-x="1484" 
d="M1382 -16q-49 -4 -94 -2l-31 20l3 -18q-19 3 -31 0l-4 36q-3 -1 -28.5 -23t-39.5 -22h-6v33q41 24 41 43q0 6 -49 70q-2 97 14 356l55 23l7 35q0 61 -19 61q-20 -54 -35 -57q-7 7 -16 114q-10 113 -10 131q49 40 49 111q0 61 -29 111q-7 285 -10 374q22 36 22 72
q0 16 -14 59q-12 47 -12 70q0 18 6 27q-11 16 -14 71q-3 58 -11 74l23 41l215 4q4 -130 -4 -309q0 -8 -11.5 -43t-11.5 -47q0 -25 6 -107q3 -67 -2 -116l15 -15l-15 -39q21 -3 21 -67l-35 -4l37 -101q0 -171 -6 -192v94q0 6 -4 18q-5 0 -8 -32l12 -127l-29 53
q-10 -65 -10 -84q0 -23 16 -33q19 -9 19 -43v-80q0 -55 12 -73l-20 -197q0 -51 18 -139t18 -131zM1022 -18q-20 -5 -27 -5q-5 0 -22 17h-37l10 26l-80 -32l-88 4l-10 65q4 5 19.5 21.5t22.5 28.5t7 24q0 35 -12 121q-10 89 -8 131q-62 21 -92 18l-222 220q-180 171 -225 174
q-124 89 -182 196l28 35q11 1 23 13.5t22 28t13 17.5q-3 13 6 13q7 0 24.5 -14.5t22.5 -14.5t23 82q34 12 204 176q55 53 103.5 99t71.5 67.5t24 22.5q8 5 40 23t45.5 27t34 29t32.5 43l-13 -6h4q13 0 13 13l-4 -7l106 91q82 67 102 67q-27 -210 9 -295l-25 -26
q33 -29 33 -316q0 -7 -17 -53q-16 -43 -16 -53q0 -56 29 -72q0 -75 -10 -338q-9 -217 -9 -338q0 -45 13 -162q14 -101 14 -161zM870 973q0 13 -51 90q-15 22 -28 31l-3 26q0 14 23 51.5t23 49.5q0 26 -9 26q-10 -10 -14 -10q-12 0 -12 27q0 13 16 41.5t16 31.5q0 16 -12 19
q-30 -30 -94 -117q-28 -36 -82 -78q-68 -50 -90 -69h-18v-5q0 -53 -111 -102l63 -20q3 -89 252 -267l68 -110q2 66 2 418q0 4 4 4q8 0 29 -21q20 -20 24 -20t4 2q-2 2 0 2z" />
    <glyph glyph-name="middot" unicode="&#xb7;" horiz-adv-x="532" 
d="M428 739l2 -39q-7 0 -28 -3t-33 -3l-47 47q11 -21 14 -51q-43 32 -82 17q-20 20 -45 20q-27 0 -55 -31q-14 -2 -52 -2q0 102 15 185q1 4 9.5 30t8.5 39q0 6 -4 18t-8 20l-4 9v17q2 6 2 14h92l12 -80l15 86l172 -6q0 -4 2 -25.5t2 -25.5q0 -9 -20.5 -26.5t-20.5 -20.5
l4 -6l37 -19q-8 -8 -2 -45t-2 -45q-15 -18 -15 -29q0 -3 31 -45z" />
    <glyph glyph-name="middot" unicode="&#x2219;" horiz-adv-x="532" 
d="M428 739l2 -39q-7 0 -28 -3t-33 -3l-47 47q11 -21 14 -51q-43 32 -82 17q-20 20 -45 20q-27 0 -55 -31q-14 -2 -52 -2q0 102 15 185q1 4 9.5 30t8.5 39q0 6 -4 18t-8 20l-4 9v17q2 6 2 14h92l12 -80l15 86l172 -6q0 -4 2 -25.5t2 -25.5q0 -9 -20.5 -26.5t-20.5 -20.5
l4 -6l37 -19q-8 -8 -2 -45t-2 -45q-15 -18 -15 -29q0 -3 31 -45z" />
    <glyph glyph-name="cedilla" unicode="&#xb8;" horiz-adv-x="1161" 
d="M801 -168l2 -2q5 -1 26 8q7 -25 5 -31q-4 -12 -17 -2q8 5 10 -2l-18 -28q-5 -5 -25 -33l-6 -8q-16 -19 -18 -17q-10 0 -10 -28q-3 -5 -12.5 -22.5t-14.5 -25t-14.5 -21.5t-17 -20.5t-18 -12t-20.5 -5.5l11 -6l-11 -8l-4 -2q-4 -4 -10 -4h-2l-6 -4q-9 3 -6 10h2
q1 0 2 -0.5t3.5 -1.5t4.5 -2h2h2q3 -3 -2 -6l6 -4l-2 -5l-14 -28l-4 -2q-22 -12 -19 -21v-6l-47 -63q-4 4 -30 27.5t-46 43.5q5 4 29 15l-4 16l35 41l45 66l30 45v-39q0 -2 -2 -4v-7q-2 -2 -2 -6q-5 0 -8 8q0 -1 4 3l4 4q4 4 7 4v14q0 16 8 29l-4 6l26 29q15 -6 25 -3
l-23 11l17 18h-11h-28q-8 3 -8 17l2 4l2 -2l2 -2q-3 -9 -11 -17q-3 0 -24 6l-12 2q-7 2 -11 -2q-6 -13 -12 -10q-19 3 -37 0q-20 0 -26 5.5t0 23.5q6 15 6 18q0 13 -4 25v20l10 6l4 2v2q-2 -2 -4 -2l-2 4q-8 5 -8 11q0 14 2 24q0 1 -4 9q3 9 6 49l10 6v2v2q0 -2 2 -2
q2 2 4 2l-6 4q2 5 -0.5 7t-9.5 1l8 41h49l4 -12l6 12l29 -2q4 1 6 -1t2 -7q3 -3 0 -12v-11l-2 -2h2v-30l-8 -27v18l4 -2q0 -7 -6 -10h4l-6 -18l-2 -6q0 -5 -2 -5v-4q-3 -28 2 -41l-6 -14l12 2q2 -2 10 -2q18 3 23 -2v2l4 2q2 2 8 2q8 0 16 -8q2 -2 0 -4l5 6l6 6h6h2
q2 2 14 2q2 -2 13 2l14 -6l2 -2l2 2q4 2 12 -2h4h4q16 -3 41 6q12 3 21 -6l2 -2q-4 0 -6 2z" />
    <glyph glyph-name="onesuperior" unicode="&#xb9;" horiz-adv-x="647" 
d="M518 567h-10l2 -41h-31q-18 21 -37 21q-21 0 -30 -12q-4 2 -13 2q-13 0 -28 -11h-74q0 19 2 27q3 46 12 106q0 15 11 15l10 -3q10 -3 14 -3q8 0 8 14l-49 8q4 54 4 64l4 6v4q9 12 9 49q0 2 -11 35q2 18 2 53q-4 4 -4 6q3 11 0 21l-10 -2l78 16q-18 2 -53 14q-10 -3 -21 2
l-2 5l2 165l23 -2l-7 11q-8 11 -8 14v37q-6 12 -6 16q0 2 2 2q6 0 23 -14l-6 31l-2 10l-5 6v4l-4 14l9 39q-6 53 -9 56q2 6 2 39v2l-18 -17l-8 -8q-6 -3 -6 0q0 -6 -2 -6q-16 0 -19 22q-7 12 -22 27v-14q7 -15 10 -58q-14 -12 -45 -39l-19 13q-15 10 -39 41l23 28l-51 -6
q2 2 2 6q0 5 -25 27q-21 21 -16 29l8 8l12 8l15 -8l2 31l8 -2l22 8l33 30l-16 7q28 28 35 28q1 0 -2.5 -5t-7 -10.5t-3.5 -6.5q16 3 25 20q0 15 22 21q13 3 18.5 6t4.5 6q-3 8 25 27q37 22 43 28l16 23q3 -8 10 -12h12v-7q14 -4 21 -2l-8 54l92 86l41 2v-105h-6v-31l10 -18
l-10 -6v-8q-14 -18 -15 -23q2 -2 2 -6l-2 -14l11 -6l-2 -29h2q0 -8 2 -12v-74l-62 -25q5 -5 29 -2q8 2 27 2q0 -6 -2 -10v-10q0 -6 2 -10q0 -15 -2 -33v-8l-3 -2l-47 -25l52 -8q0 -64 2 -107l6 -188q-11 -3 -27 -19l21 -2q0 -59 2 -63v-6q-3 -71 0 -121l-2 -4l8 -10l4 -62
l-6 -10l4 -113q-12 -8 -17 -18q10 -6 29 -25zM422 530l-14 -2l4 7z" />
    <glyph glyph-name="ordmasculine" unicode="&#xba;" horiz-adv-x="874" 
d="M838 1280l-43 -82l-7 8q0 -2 -4 -2q-3 14 -14 19q-3 -25 -25 -90l-108 -132q-88 -108 -90 -122l-12 -21l-9 2l-22 -43l-29 -39l-35 2l-10 29l-14 -25q-10 17 -54 68l-139 209l10 6q11 -7 17 -4q4 4 4 6q0 4 -6 16l-47 9l-27 43q-15 3 -43 28q-27 25 -32 37.5t-5 46.5
l-4 -4l-4 -4q-9 -9 -23 -6l-14 16q0 14 6 35l4 8q2 0 0 -2q2 2 4 0l-4 6l99 123l49 21q-2 0 -6 4q-14 9 -8 18q110 142 114 170l27 4l12 35q13 8 68 72q15 24 24 24q4 0 6 -2l23 -22l51 -64l119 -178q20 -26 20 -30q-3 -9 -20 -3q-7 2 -10 0q-2 -2 4 -28l51 8
q4 -4 7.5 -12.5t6.5 -19.5l2 -11q31 -3 56 -45q-3 -9 6 -12q4 -18 16 -25l2 -14q42 -28 60 -31zM606 1202l51 49q-13 -3 -16 0q-13 3 -4 15v10h-2q-13 29 -55 74q-10 11 -18.5 21t-14.5 17.5t-11.5 16.5t-8.5 13.5t-7.5 14t-5.5 12t-5 13t-5 12.5q-14 32 -35 39
q-22 27 -41 56q-14 -32 -72 -109h-20l8 -12l-6 -21l-4 7q0 -3 -2 -5q5 -3 2 -6h-2h-4q-9 -3 -25 13q12 -41 6 -50q-4 -6 -35 -30q-19 -13 -22 -39l-39 -35l20 -14q41 -27 41 -54v-2q2 0 0 2q6 -60 52 -75l47 -74q36 -48 51 -51q-3 -22 8 -25l6 -2h4l41 55l25 27l35 57l82 27
l-11 4l-14 8q0 4 2 4h-2q-4 -4 -4 -2q-3 -3 -6 4q4 18 16 35z" />
    <glyph glyph-name="guillemotright" unicode="&#xbb;" horiz-adv-x="1374" 
d="M618 621q17 10 34 17.5t27 12t13 6.5l27 17l39 -17l-27 29q22 3 80 33q62 32 70 45q4 0 24 -33l-6 45q76 45 119 68q12 12 14 16l19 14q-21 0 -31 -2q3 23 -72 58q-7 7 0 10l2 2q-2 10 -2 21l-18 -17l-31 15q-114 67 -197 110q-15 27 -36 33q-7 4 -16 8.5t-15.5 7.5
t-9.5 6l80 113q24 -14 106 -78v-12q-4 -6 -23 -10q39 -9 60 -9h31q8 0 11.5 -1.5t2.5 -4.5l-4 -18q2 7 14 10l19 -14q13 -36 98 -60l117 -75l22 -21q8 -8 27 -8q14 -9 39.5 -17.5t40.5 -17.5l16 -12q-11 -11 -14 -8q-14 -8 -25 -23l35 17q15 -3 18 0l2 -11l17 -6
q-27 -19 -29 -20q-2 0 -2 2q0 -12 -14 -15l-21 -8q-11 -8 -16 -8q0 -1 -1 1l-2 2q-2 3 -3 5h-17l7 6l-11 4l-20 5q12 -20 24 -27l-8 -6l-2 -6l-43 -25q-38 -14 -55 -31q-27 -13 -37 -16q-23 13 -25 16v-28l-30 -31l-66 -37q-72 -46 -139 -82v2l-19 -12q-14 0 -22 4l6 -18
q-14 -14 -61 -41zM66 621q17 10 33.5 18t26.5 12t13 6l27 17l39 -17l-27 29q22 3 80 33q62 32 70 45q4 0 24 -33l-6 45q76 45 119 68q12 12 14 16l19 14q-21 0 -31 -2q3 23 -72 58q-7 7 0 10l2 2q-2 10 -2 21l-18 -17l-31 15q-120 71 -196 110q-15 27 -37 33q-7 4 -16 8.5
t-15.5 7.5t-9.5 6l80 113q24 -14 106 -78v-12q-4 -6 -22 -10q39 -9 59 -9h31q8 0 11.5 -1.5t2.5 -4.5l-4 -18q2 7 14 10l19 -14q13 -36 98 -60l117 -75l22 -21q8 -8 27 -8q14 -9 39.5 -17.5t40.5 -17.5l16 -12q-11 -11 -14 -8q-14 -8 -25 -23l35 17q15 -3 18 0l2 -11l17 -6
q-27 -19 -29 -20q-2 0 -2 2q0 -12 -14 -15l-21 -8q-11 -8 -16 -8q0 -1 -1 1l-2 2q-2 3 -3 5h-17l7 6l-11 4l-20 5q12 -20 24 -27l-8 -6l-2 -6l-43 -25q-38 -14 -55 -31q-27 -13 -37 -16q-23 13 -25 16v-28l-30 -31l-66 -37q-72 -46 -139 -82v2l-19 -12q-14 0 -22 4l6 -18
q-14 -14 -61 -41z" />
    <glyph glyph-name="onequarter" unicode="&#xbc;" horiz-adv-x="1966" 
d="M1534 711q0 1 -21 22l5 29l-84 -127q-34 -18 -37 -62q4 -4 4 -8t-11 -8l-12 -4l-10 2q-3 1 -9 10.5t-9 9.5q-5 0 -2 -24q3 -26 0 -35l-25 -4l-12 -4q-2 -2 -2 -8q-4 -15 -6 -17q0 -11 6 -20v-6v-11q-1 -2 -11 -4t-23.5 -8t-21.5 -18q24 -1 23 -6v-2l-8 -15l47 15q4 4 8 0
q6 -2 14 -2q9 0 15 2l57 -15l-18 10h16q73 4 82 5h14q13 50 13 88q0 85 -13 108v29q15 9 15 57q0 6 4 11t8 7t4 3zM1516 926l-39 -2h6q13 15 16 53q25 22 51 37l-8 18l31 10l-4 31q6 6 33 21q9 9 12 24q9 9 24 29q4 -4 7 -4q-2 0 0.5 13t13 26t27.5 14q7 -78 4 -135
q-4 -4 -4 -18t-7 -23l15 -45l-2 -4q-17 -27 -17 -39q0 -19 15 -37l2 -4q2 -4 2 -215l-15 -74l-63 -43l59 4l2 -180q13 13 23 18h-2q8 0 43 -5t47 -5q19 0 39 17l2 -99l-55 -8l55 -29l-8 -57q-4 2 -13 2q-6 0 -14 -4h-35q-7 0 -20 0.5t-37 1.5t-43 2q8 -31 12 -35
q6 -34 12 -49q-7 -10 -4 -51l4 -55q0 -7 -3.5 -15.5t-7.5 -13.5l-3 -6q0 -6 14 -12q-3 -14 -8 -19q-7 0 -21.5 -6t-21.5 -6h-6q-10 10 -24 10q-3 0 -15 -4q-12 12 -28 12q-29 0 -35 -6l-17 23v43q9 25 6 47l-16 61q10 38 10 45t-8 43q-6 -23 2 -26v-2q2 2 2 8l-4 10
q0 4 -2 6q0 -2 2 -2l-10 16q-12 -2 -23 -2q-23 -3 -32 -10h-27l-6 19q-17 26 -41 26q-11 0 -21 -5t-15.5 -10t-14 -15t-11.5 -13q0 -2 -2 -2q-18 0 -79 6.5t-84 5.5l-5 11l-22 -4q-2 -2 -4 -2q-8 0 -17 24q-8 21 -10 21q-1 1 -5 -5l-9 -22q-9 -27 -17 -27q-2 0 -4 2l-10 -8
l-39 15l-55 -11q2 15 -2 39l29 35l26 31l64 8l-45 18l49 43q14 -1 19.5 8t7 24t3.5 20l27 39l25 24q4 2 11.5 7.5t10.5 6.5q5 8 10 29l35 -4l-24 33l59 67q18 22 64 84l38 39l7 21q11 25 34 43l23 -19l45 70l45 4l49 61zM1237 2001l172 -80l-61 -147q-38 -86 -72 -138l2 -51
q3 -29 -49 -139l-66 -143l11 8q0 -1 -240 -643q-3 -7 -21.5 -23.5t-21.5 -23.5q4 -24 4 -54q-190 -517 -178 -551l-27 -79q-55 -21 -55 -89q0 -22 8 -69q-14 0 -27.5 -2t-22.5 -4t-11 -2q-13 0 -43 24q-15 35 -54 35q-19 0 -32 -8l-45 22l65 164q49 124 78 150q0 40 49 159
q127 314 371 1012q2 6 4 10.5t3.5 7.5t2.5 4.5t2 0.5q4 0 12.5 -21.5t12.5 -21.5q7 0 16 20l-27 107l68 -39l2 57l-61 51l133 336q21 34 45 37h43q-38 38 -58 68zM518 567h-10v-41h-31q-15 21 -37 21q-19 0 -28 -12q-4 2 -13 2q-17 0 -28 -11h-74q0 19 2 27q3 46 12 106
q0 15 8 15q3 0 14 -3l11 -3q10 0 10 14l-49 8q2 27 2 64l6 6v4q9 12 9 49q0 2 -11 35q0 35 2 53q-4 4 -4 6q3 11 0 21l-12 -2l80 16q-17 2 -53 14q-10 -3 -23 2v5l2 165l21 -2l-7 11q-9 11 -6 14q-3 15 0 37q-8 11 -8 16q0 2 2 2q8 0 25 -14l-6 31l-5 10q0 4 -2 6v4l-6 14
l11 39q-9 54 -11 56l4 39v2l-20 -17l-8 -8q-4 -4 -4 0q0 -6 -4 -6q-14 0 -17 22q-7 12 -22 27l-2 -14q10 -23 10 -58q1 0 -3 -3.5t-17 -14t-25 -21.5l-17 13q-15 10 -39 41l23 28l-51 -6q2 2 2 6q0 5 -25 27q-21 21 -16 29l8 8l10 8l17 -8l2 31l8 -2l20 8l35 30l-16 7
q3 5 22 20q8 8 13 8q1 0 -2.5 -5t-7 -10.5t-3.5 -6.5l15 4q0 1 1 2.5t4 5.5t5 8q0 15 22 21q11 3 16.5 6t4.5 6q0 9 27 27q37 22 43 28l16 23q3 -8 10 -12h12v-7q12 -4 19 -2l-6 54l92 86l39 2q3 -46 0 -105h-4v-31l10 -18l-10 -6v-8q-14 -18 -15 -23q0 -4 2 -6l-2 -14
l11 -6l-2 -29l4 -12v-74l-62 -25q0 -5 29 -2q8 2 27 2q-2 -2 -2 -10v-10q0 -6 2 -10q0 -2 -1 -6t-2 -11.5t-2 -15.5v-8v-2l-49 -25l54 -8q0 -64 2 -107l6 -188q-11 -3 -27 -19l21 -2v-63v-6q-3 -71 0 -121v-4l8 -10l4 -62l-8 -10l6 -113q-12 -8 -17 -18q10 -6 29 -25z
M412 535l8 -5l-12 -2q2 3 4 7z" />
    <glyph glyph-name="onehalf" unicode="&#xbd;" horiz-adv-x="1966" 
d="M1849 745l31 -38l-43 -25l8 6l-2 -14l-6 8l-18 -18q3 -15 -50 -50l9 -6q-16 -29 -19 -49q-15 -6 -12 -22l-41 -41q-14 -3 -49 -47l-12 -31l-9 -31l-37 57l5 -53l14 -18l-111 -123l-45 16l27 -39q-22 -40 -66 -69q22 5 267 8l12 -41l16 41l154 4l-2 -57l-43 -17l43 -22
l-2 -109l-68 -6v2l-8 33l-33 8l-14 -39l-27 14l-14 41l-6 -49l-96 -6q-74 4 -340 4q-126 0 -150 -4l-4 39l27 23l14 10l20 -2q16 16 19 16q0 29 -23 39v10l78 15l4 8l-2 4l-43 -2q-4 -1 -14 7.5t-12 8.5l26 15l70 4l-37 43q79 123 174 205l76 -31l-27 49q1 9 -4.5 30.5
t-5.5 24.5q0 6 4 10l109 138q4 4 6 4q4 0 23 -13.5t24 -13.5l4 4q-18 18 -33 45q1 4 -2 11t-6.5 12t-3.5 6l29 31q5 6 17 19l1 1l1 1l1 1l-104 13q0 10 4 10q4 4 18 -4l-8 28v29l-49 -2l-121 119l24 71q-6 6 -38 -14q-30 -21 -37 -14q-24 15 -103 76l58 65h30v33l62 67
l53 -73v-21q0 -8 -18.5 -15.5t-18.5 -10.5v-7q35 21 39 19l60 -2q68 -81 155 -150q-9 -34 -12 -78q29 25 55 41q146 -133 178 -170zM1237 2001l172 -80q-50 -123 -59 -147q-39 -89 -74 -138l2 -51q3 -27 -47 -139l-66 -143l11 8q-4 -4 -240 -643q-3 -7 -22.5 -23.5
t-22.5 -23.5q6 -18 6 -54q-190 -517 -178 -551l-27 -79q-55 -21 -55 -89q0 -16 6 -69q-14 0 -28 -2t-23 -4l-8 -2q-13 0 -43 24q-15 35 -54 35q-18 0 -34 -8l-43 22q37 102 63 164q52 125 80 150q-3 38 47 159q132 322 371 1012q5 13 8 18.5t6 4.5q3 0 11 -21.5t12 -21.5
q7 0 16 20l-27 107l68 -39l2 57l-61 51l133 336q21 34 45 37h43q-38 38 -58 68zM518 567h-10l2 -41h-31q-18 21 -37 21q-21 0 -30 -12q-4 2 -13 2q-13 0 -28 -11h-74q0 19 2 27q3 46 12 106q0 15 11 15l10 -3q10 -3 14 -3q8 0 8 14l-49 8q4 54 4 64l4 6v4q9 12 9 49
q0 2 -11 35q2 18 2 53q-4 4 -4 6q3 11 0 21l-10 -2l78 16q-18 2 -53 14q-10 -3 -21 2l-2 5l2 165l23 -2l-7 11q-8 11 -8 14v37q-6 12 -6 16q0 2 2 2q6 0 23 -14l-6 31l-2 10l-5 6v4l-4 14l9 39q-6 53 -9 56q2 6 2 39v2l-18 -17l-8 -8q-6 -3 -6 0q0 -6 -2 -6q-16 0 -19 22
q-7 12 -22 27v-14q7 -15 10 -58q-14 -12 -45 -39l-19 13q-15 10 -39 41l23 28l-51 -6q2 2 2 6q0 5 -25 27q-21 21 -16 29l8 8l12 8l15 -8l2 31l8 -2l22 8l33 30l-16 7q28 28 35 28q1 0 -2.5 -5t-7 -10.5t-3.5 -6.5q16 3 25 20q0 15 22 21q13 3 18.5 6t4.5 6q-3 8 25 27
q37 22 43 28l16 23q3 -8 10 -12h12v-7q14 -4 21 -2l-8 54l92 86l41 2v-105h-6v-31l10 -18l-10 -6v-8q-14 -18 -15 -23q2 -2 2 -6l-2 -14l11 -6l-2 -29h2q0 -8 2 -12v-74l-62 -25q5 -5 29 -2q8 2 27 2q0 -6 -2 -10v-10q0 -6 2 -10q0 -15 -2 -33v-8l-3 -2l-47 -25l52 -8
q0 -64 2 -107l6 -188q-11 -3 -27 -19l21 -2q0 -59 2 -63v-6q-3 -71 0 -121l-2 -4l8 -10l4 -62l-6 -10l4 -113q-12 -8 -17 -18q10 -6 29 -25zM422 530l-14 -2l4 7z" />
    <glyph glyph-name="threequarters" unicode="&#xbe;" horiz-adv-x="2011" 
d="M1616 711q0 1 -21 22l7 29l-86 -127q-34 -18 -37 -62q4 -4 4 -8t-11 -8l-12 -4l-10 2q-3 1 -9 10.5t-9 9.5q-5 0 -2 -24q3 -26 0 -35l-25 -4l-12 -4q-2 -2 -2 -8q-1 -3 -2 -7t-2 -6.5t-1 -3.5q0 -5 5 -20v-6v-11q-1 -2 -11 -4t-23.5 -8t-21.5 -18q24 -1 23 -6v-2l-8 -15
l47 15q4 4 8 0q6 -2 14 -2q9 0 15 2l59 -15l-20 10h16q73 4 82 5h14q12 46 12 88q0 85 -10 108v29q12 9 12 57q0 6 4.5 11t8.5 7t4 3zM1597 926l-38 -2h6q16 19 16 53q34 27 51 37l-8 18l31 10l-4 31q7 7 32 21q10 10 13 24q9 9 24 29q4 -4 6 -4q-2 0 0.5 13t13 26t27.5 14
q7 -86 5 -135q-3 -4 -3 -18t-8 -23l15 -45l-2 -4q-17 -27 -17 -39q0 -19 15 -37l2 -4q2 -4 2 -215l-15 -74l-61 -43l57 4l2 -180q13 13 23 18h-2q12 0 45 -5t45 -5q19 0 39 17l2 -99l-53 -8l53 -29l-8 -57q-4 2 -13 2q-6 0 -14 -4h-35q-6 0 -18.5 0.5t-36 1.5t-43.5 2
q9 -34 10 -35q6 -34 12 -49q-7 -10 -4 -51l4 -55q0 -7 -3.5 -15.5t-7.5 -13.5l-3 -6q0 -6 14 -12q-3 -14 -8 -19q-7 0 -21 -6t-22 -6h-6q-10 10 -25 10q-2 0 -14 -4q-12 12 -29 12q-28 0 -34 -6l-17 23v43q9 25 6 47l-16 61q10 38 10 45t-8 43q-6 -23 2 -26v-2q2 2 2 8
l-4 10q0 4 -2 6q0 -2 2 -2l-10 16q-12 -2 -23 -2q-23 -3 -32 -10h-25q-3 5 -8 19q-17 26 -41 26q-11 0 -21 -5t-15.5 -10t-14 -15t-11.5 -13q0 -2 -2 -2q-18 0 -79.5 6.5t-84.5 5.5l-4 11l-22 -4q-2 -2 -4 -2q-8 0 -17 24q-8 21 -10 21q-1 1 -5 -5l-9 -22q-9 -27 -17 -27
q-2 0 -4 2l-8 -8l-41 15l-55 -11q2 15 -2 39l28 35l27 31l64 8l-45 18l49 43q14 -1 20 7t8 26l2 19l27 39l25 24q4 2 11.5 7.5t10.5 6.5q8 14 12 29l33 -4l-24 33l59 67l63 84l41 39l5 21q11 25 34 43l23 -19l45 70l45 4l49 61zM1319 2001l172 -80l-61 -147
q-38 -86 -72 -138l2 -51q3 -29 -49 -139l-66 -143l10 8q0 -1 -237 -643q-3 -7 -22.5 -23.5t-22.5 -23.5q4 -24 4 -54q-190 -517 -178 -551l-25 -79q-57 -20 -57 -89q0 -22 8 -69q-14 0 -28 -2t-23 -4l-8 -2q-10 0 -45 24q-15 35 -52 35q-21 0 -34 -8l-43 22q37 102 63 164
q49 125 80 150q-3 38 47 159q132 322 371 1012q10 23 12 23q4 0 12.5 -21.5t12.5 -21.5q7 0 16 20l-27 107l68 -39l2 57l-62 51l134 336q21 34 45 37h43q-38 38 -58 68zM799 907q-58 -50 -158 -127q-15 -12 -29 -12l-14 4q-10 0 -31 -43l-178 -106q-17 -10 -43 -7
q-22 0 -27 -8l-22 -28l-72 -39q-43 3 -65 -29q-12 20 -23 29q-2 4 -8 -8l-6 -15q-8 -20 -10 -20l-27 -6v176q0 14 14 14q4 0 17.5 -2t17.5 -2q24 0 27 29q0 -5 2 -5q5 0 47 25q40 24 43 18q3 -18 20 -18q34 0 31 64l150 90q31 16 57 39l-57 30q-2 0 -25 23q-22 22 -22 24
q28 -3 28 0q-15 27 -33 27l-34 8q-35 3 -43 -2l-107 66l-86 43q6 28 12 28q1 0 7.5 -5t7.5 -5q4 0 14 29q11 -4 27 18q19 25 39 19l59 39q33 33 61 55q25 11 78 55l31 29q-7 0 -59 24q-53 27 -58 25q-10 0 -16 2q2 4 2 10q0 9 -21 6l-221 107l-2 51l17 19l-11 36q0 18 11 97
q4 -4 53 -19l4 -18l33 -6l94 -43l141 -64l19 -31l30 -6q22 3 271 -147q-15 -9 -58 -64q-38 -50 -57 -61l-33 -35q-19 -19 -88 -29l12 -24q-14 -17 -81 -62q15 -4 96 -67q-9 -7 -21 -27q-2 -2 -4 -8q6 0 62 20q36 -36 71 -63q44 -44 144 -117z" />
    <glyph glyph-name="questiondown" unicode="&#xbf;" horiz-adv-x="1021" 
d="M827 1812h47q0 -94 -12 -165l-8 -26q-8 -26 -8 -36q0 -11 14 -43q0 -8 -2 -14v-12h-84l-10 71l-12 -78l-152 7q0 5 -2 23t-2 22q0 8 18.5 24t18.5 19q0 4 -37 22q4 4 4 16q0 5 -2 24t-2 24q0 8 8 23t8 20q0 8 -26 41l-2 34q3 0 25 2t30 2l43 -40q2 0 2 2q0 3 -8 21t-8 22
q34 -27 71 -15q15 -18 39 -18t49 28zM807 270l111 -67l-60 -49q-12 -47 -33 -74q-64 -82 -71 -82q-2 2 -2 6l-37 25l-4 -6q-52 93 -199 159l-20 70q-12 4 -19 4q-3 0 -10.5 -9t-11.5 -9q-12 0 -138 108q-130 112 -170 125l31 57q-40 -16 -63 -16q-20 0 -23 14q-16 16 -51 31
l-2 55q12 20 176 162q43 3 164 92q95 70 153 129q11 -4 45 16.5t35 20.5q-3 111 17 201q-4 33 -23 76l12 61l54 -6q13 -2 73 -27l25 21h47q14 14 29 14l24 -6q0 -51 -12 -156q-12 -102 -12 -149q4 -35 14 -107q-12 -12 -57 -41l-54 21l23 -39l-94 -66q-96 -69 -99 -79
q-5 -3 -24.5 -13t-27 -14.5t-22.5 -15t-22 -19.5t-14.5 -22.5t-9.5 -28.5l-97 -29q5 -2 18 -7.5t18.5 -8.5t14.5 -8.5t13 -12.5t6 -16l14 -49q17 -17 21 -17q5 0 10 17.5t8 17.5q7 0 21 -20q31 -41 127 -103q101 -64 135 -98l-29 -72z" />
    <glyph glyph-name="Agrave" unicode="&#xc0;" 
d="M1292 41l-78 -21l-75 25l14 -39l-178 -45l-57 191q2 2 2 10q0 4 -5.5 26t-5.5 29q0 18 -10 35q-11 -1 -19.5 14t-9.5 15q-56 12 -159 12q-43 0 -72 -19l-113 -4q-2 2 -12 2h-2h-2h-2h-2h-2h-2h-2h-2h-2h-2h-2h-2h-2h-2h-2h-3h-2h-2h-2h-2h-2h-2h-2h-2h-2h-2h-2h-2h-2h-2
h-2h-2h-3h-2h-2h-2h-2h-8l-10 -32q-37 -27 -37 -113q0 -6 -13 -44.5t-10 -47.5l-26 -82l-60 12q-10 17 -65 25q-3 10 -10 10q-3 0 -16 -5t-17 -5q-54 39 -66 35l-43 26l129 357q21 14 35 49t8 59l105 244q28 28 69 125q38 84 35 135l15 37q24 0 41 10l-17 25q8 0 25 10
q3 12 0 31q3 7 8 20l16 37l-10 33q32 87 94 282h15l6 27q19 18 26 29q7 3 7 12t-17 33q6 15 12 39l-6 12q2 9 12.5 45t14.5 53q1 -5 13.5 -4.5t13.5 -1.5q5 -12 8 -94q0 -57 37 -84q40 -169 34 -189l37 -34q-12 -12 -12 -19q0 -20 18 -26q15 -86 74 -252v-9q-2 -37 27 -137
q34 -98 61 -125l15 -37q-5 -10 -29 -34l43 -29q5 -20 8.5 -34.5t5.5 -20t2 -4.5q0 -4 -1.5 -8t-3.5 -8.5t-3 -6.5l14 -4l23 -12q59 -159 111 -279l-11 -14l13 -23q0 -3 11 -12t11 -18q0 -1 -1 -6.5t-4 -18t-5 -25.5q14 -23 49 -26l2 -2q7 -20 51 -117zM836 512l-54 106
q-20 29 -20 62l-6 59q-72 224 -88 269l-9 4q-18 -72 -71 -246q-11 -11 -25 -61q-11 -50 -18 -60h6l-72 -135q52 6 84 6l66 2h73q5 0 19.5 -25.5t19.5 -25.5l19 51q18 0 36 -3.5t40 -2.5zM944 2028q-17 -21 -31 -29q-9 0 -12 10q-3 6 -12 0q-15 -15 -15 -35q-11 -7 -14 -35
q-13 30 -20 39v-53l-39 -31l-21 23q0 3 -0.5 9t-0.5 9t-1 8.5t-2.5 8t-3.5 6t-5.5 5.5t-8 3.5t-10.5 1.5q-5 1 -26 25.5t-26 25.5l11 31q0 6 -11.5 6.5t-23.5 -0.5t-17 4q-5 4 -12 17l-2 -2l-29 30q-1 26 -7 32t-32 11q-5 1 -25.5 25.5t-25.5 24.5l10 30q0 9 -22 6
q-8 -1 -13.5 0t-10.5 5t-7.5 6.5t-10 11.5t-11.5 14l71 76l56 -41l-37 53l28 29l19 -18q4 -15 18 -35l50 -31l106 -113q2 -10 16 -37q3 -2 20 -11t30 -17q55 -40 110 -98z" />
    <glyph glyph-name="Aacute" unicode="&#xc1;" 
d="M1292 41l-78 -21l-75 25l14 -39l-178 -45l-57 191q2 2 2 10q0 4 -5.5 26t-5.5 29q0 18 -10 35q-11 -1 -19.5 14t-9.5 15q-56 12 -159 12q-43 0 -72 -19l-113 -4q-2 2 -12 2h-2h-2h-2h-2h-2h-2h-2h-2h-2h-2h-2h-2h-2h-2h-2h-3h-2h-2h-2h-2h-2h-2h-2h-2h-2h-2h-2h-2h-2h-2
h-2h-2h-3h-2h-2h-2h-2h-8l-10 -32q-37 -27 -37 -113q0 -6 -13 -44.5t-10 -47.5l-26 -82l-60 12q-10 17 -65 25q-3 10 -10 10q-3 0 -16 -5t-17 -5q-54 39 -66 35l-43 26l129 357q21 14 35 49t8 59l105 244q28 28 69 125q38 84 35 135l15 37q24 0 41 10l-17 25q8 0 25 10
q3 12 0 31q3 7 8 20l16 37l-10 33q32 87 94 282h15l6 27q19 18 26 29q7 3 7 12t-17 33q6 15 12 39l-6 12q2 9 12.5 45t14.5 53q1 -5 13.5 -4.5t13.5 -1.5q5 -15 8 -94q0 -57 37 -84q40 -169 34 -189l37 -34q-12 -12 -12 -19q0 -20 18 -26q15 -86 74 -252v-9q-2 -37 27 -137
q34 -98 61 -125l15 -37q-5 -10 -29 -34l43 -29q5 -20 8.5 -34.5t5.5 -20t2 -4.5q0 -4 -1.5 -8t-3.5 -8.5t-3 -6.5l14 -4l23 -12q59 -159 111 -279l-11 -14l13 -23q0 -3 11 -12t11 -18q0 -1 -1 -6.5t-4 -18t-5 -25.5q14 -23 49 -26l2 -2q7 -20 51 -117zM836 512l-54 106
q-20 29 -20 62l-6 59q-72 224 -88 269l-9 4q-18 -72 -71 -246q-11 -11 -25 -61q-11 -50 -18 -60h6l-72 -135q52 6 84 6l66 2h73q5 0 19.5 -25.5t19.5 -25.5l19 51q18 0 36 -3.5t40 -2.5zM639 1540l-2 -2v2h2zM831 2347l72 -76l-24 -33q-6 -4 -17.5 -3t-23 0t-11.5 -7l11 -30
q-5 0 -26 -24.5t-26 -25.5q-26 -4 -31 -10.5t-7 -32.5l-29 -30l-2 2q-5 -10 -12 -17q-5 -5 -17 -4t-23.5 0.5t-11.5 -6.5l11 -31q-5 -1 -26 -25.5t-26 -25.5q-7 0 -12 -1.5t-8.5 -5t-5.5 -6t-3 -8.5l-1.5 -9t-1 -10.5t-0.5 -10.5l-21 -23l-37 31l-2 53q-8 -27 -20 -39
q0 26 -15 35q0 21 -14 35q-7 5 -10 0q-7 -10 -15 -10q-12 7 -30 29q55 58 110 98q9 3 49 28l19 37q24 36 104 113l50 31l18 35l18 18l29 -29l-37 -53z" />
    <glyph glyph-name="Acircumflex" unicode="&#xc2;" 
d="M1292 41q-44 97 -51 117l-2 2q-35 3 -49 26q2 13 5 25.5t4 18t1 6.5q0 9 -11 18t-11 12l-13 23l11 14q-52 120 -111 279l-23 12l-14 4q1 2 3 6.5t3.5 8.5t1.5 8q0 -1 -2 4.5t-5.5 20t-8.5 34.5l-43 29q24 24 29 34l-15 37q-27 27 -61 125q-29 100 -27 137v9
q-59 166 -74 252q-18 6 -18 26q0 7 12 19l-37 34q6 20 -34 189q-37 27 -37 84q-3 79 -8 94q-1 3 -13.5 1.5t-13.5 4.5q-4 -17 -14.5 -53t-12.5 -45l6 -12q-6 -24 -12 -39q17 -24 17 -33t-7 -12q-7 -11 -26 -29l-6 -27h-15q-62 -195 -94 -282l10 -33l-16 -37q-5 -13 -8 -20
q3 -19 0 -31q-17 -10 -25 -10l17 -25q-17 -10 -41 -10l-15 -37q3 -51 -35 -135q-41 -97 -69 -125l-105 -244q6 -24 -8 -59t-35 -49l-129 -357l43 -26q12 4 66 -35q4 0 17 5t16 5q7 0 10 -10q55 -8 65 -25l60 -12l26 82q-3 9 10 47.5t13 44.5q0 86 37 113l10 32v0v0v0v0h1v0
v0h1v0h1v0h1v0h1h1v0h1h1h1h1h1h1h1h1h1h1h1h1h1h1h1h1h1h1h1h1h1h1h1h1h1h1h1h1h1h1h1h1h1h1h1h1h1h1h1h1h1h1h1h1h1h1h1h1h1h1h1h1h1h1h1h1h1h1h1h1h1h1h1h1h1h1h1h1h10q10 0 12 -2l113 4q29 19 72 19q103 0 159 -12q1 0 9.5 -15t19.5 -14q10 -17 10 -35q0 -7 5.5 -29
t5.5 -26q0 -8 -2 -10l57 -191l178 45l-14 39l75 -25zM836 512q-22 -1 -40 2.5t-36 3.5l-19 -51q-5 0 -19.5 25.5t-19.5 25.5q-139 0 -139 -2q-31 0 -84 -6l72 135h-6q7 10 18 60q14 50 25 61q53 174 71 246l9 -4q16 -45 88 -269l6 -59q0 -33 20 -62zM1028 1997l-4 -10l-2 -5
v-2l-10 -4l-2 -12q-7 -1 -15.5 8t-19.5 29l16 -47q-5 -2 -11.5 -2.5t-10 -0.5t-7 -4.5t-6.5 -13.5q0 -4 -5 -12t-5 -12l-37 41l15 -41l-13 -17q-15 29 -18 50l-12 -19l-13 21l-34 43l-41 20q-66 62 -97 102l-45 -24q-16 -3 -61 -57l-58 -74q-2 0 -55 -56q-26 20 -37 25
l13 25l-29 -19l-16 10l12 35l-21 -18q-22 19 -39 26q2 0 5 3h-3l-12 2l4 7q5 6 10 11.5t9 5.5v-2q3 34 53 55q16 37 27 56q17 39 30 39q25 0 97 69q84 78 108 90q15 -26 78 -69q67 -45 86 -82l16 18q3 -17 43 -51l60 -53q3 -18 57 -84z" />
    <glyph glyph-name="Atilde" unicode="&#xc3;" 
d="M1292 41l-78 -21l-75 25l14 -39l-178 -45l-57 191q2 2 2 10q0 4 -5.5 26t-5.5 29q0 18 -10 35q-11 -1 -19.5 14t-9.5 15q-56 12 -159 12q-43 0 -72 -19l-113 -4q-2 2 -12 2h-2h-2h-2h-2h-2h-2h-2h-2h-2h-2h-2h-2h-2h-2h-2h-3h-2h-2h-2h-2h-2h-2h-2h-2h-2h-2h-2h-2h-2h-2
h-2h-2h-3h-2h-2h-2h-2h-8l-10 -32q-37 -27 -37 -113q0 -6 -13 -44.5t-10 -47.5l-26 -82l-60 12q-10 17 -65 25q-3 10 -10 10q-3 0 -16 -5t-17 -5q-54 39 -66 35l-43 26l129 357q21 14 35 49t8 59l105 244q28 28 69 125q38 84 35 135l15 37q24 0 41 10l-17 25q8 0 25 10
q3 12 0 31q3 7 8 20l16 37l-10 33q32 87 94 282h15l6 27q19 18 26 29q7 3 7 12t-17 33q6 15 12 39l-6 12q2 9 12.5 45t14.5 53q1 -5 13.5 -4.5t13.5 -1.5q5 -15 8 -94q0 -57 37 -84q40 -169 34 -189l37 -34q-12 -12 -12 -19q0 -20 18 -26q15 -86 74 -252v-9q-2 -37 27 -137
q34 -98 61 -125l15 -37q-5 -10 -29 -34l43 -29q5 -20 8.5 -34.5t5.5 -20t2 -4.5q0 -4 -1.5 -8t-3.5 -8.5t-3 -6.5l14 -4l23 -12q59 -159 111 -279l-11 -14l13 -23q0 -3 11 -12t11 -18q0 -1 -1 -6.5t-4 -18t-5 -25.5q14 -23 49 -26l2 -2q7 -20 51 -117zM836 512l-54 106
q-20 29 -20 62l-6 59q-72 224 -88 269l-9 4q-18 -72 -71 -246q-11 -11 -25 -61q-11 -50 -18 -60h6l-72 -135q52 6 84 6l66 2h73q5 0 19.5 -25.5t19.5 -25.5l19 51q18 0 36 -3.5t40 -2.5zM684 2120v-4q1 0 2.5 -1t4.5 -2t5 -2l35 15l10 -37q9 -16 25 -25l12 -4l23 -12l20 20
l-4 9q15 15 45 39q5 10 56 61l49 8l96 -67l-37 -50l-25 -2l7 41l65 -24l-72 -25q-4 -5 -53 -51l8 -14l-36 -15l4 -10l-74 -65q-28 -8 -51 -2l-15 -13l-69 41l-2 4l-4 -2l-41 29l6 -23l-101 82q-2 1 -14 13q-6 3 -33 6q-1 -2 -2 -9t-2 -10h-14q-15 -21 -39 -45
q-21 -7 -35 -32l-33 -39l-104 79q3 40 49 80l96 90v-2l4 2l-2 2l56 54l43 -2l16 16q30 -26 59 -57q34 -21 66 -45z" />
    <glyph glyph-name="Adieresis" unicode="&#xc4;" 
d="M1292 41l-78 -21l-75 25l14 -39l-178 -45l-57 191q2 2 2 10q0 4 -5.5 26t-5.5 29q0 18 -10 35q-11 -1 -19.5 14t-9.5 15q-56 12 -159 12q-43 0 -72 -19l-113 -4q-2 2 -12 2h-2h-2h-2h-2h-2h-2h-2h-2h-2h-2h-2h-2h-2h-2h-2h-3h-2h-2h-2h-2h-2h-2h-2h-2h-2h-2h-2h-2h-2h-2
h-2h-2h-3h-2h-2h-2h-2h-8l-10 -32q-37 -27 -37 -113q0 -6 -13 -44.5t-10 -47.5l-26 -82l-60 12q-10 17 -65 25q-3 10 -10 10q-3 0 -16 -5t-17 -5q-54 39 -66 35l-43 26l129 357q21 14 35 49t8 59l105 244q28 28 69 125q38 84 35 135l15 37q24 0 41 10l-17 25q8 0 25 10
q3 12 0 31q3 7 8 20l16 37l-10 33q32 87 94 282h15l6 27q19 18 26 29q7 3 7 12t-17 33q6 15 12 39l-6 12q2 9 12.5 45t14.5 53q1 -5 13.5 -4.5t13.5 -1.5q5 -12 8 -94q0 -57 37 -84q40 -169 34 -189l37 -34q-12 -12 -12 -19q0 -20 18 -26q15 -86 74 -252v-9q-2 -37 27 -137
q34 -98 61 -125l15 -37q-5 -10 -29 -34l43 -29q5 -20 8.5 -34.5t5.5 -20t2 -4.5q0 -4 -1.5 -8t-3.5 -8.5t-3 -6.5l14 -4l23 -12q59 -159 111 -279l-11 -14l13 -23q0 -3 11 -12t11 -18q0 -1 -1 -6.5t-4 -18t-5 -25.5q14 -23 49 -26l2 -2q7 -20 51 -117zM836 512l-54 106
q-20 29 -20 62l-6 59q-72 224 -88 269l-9 4q-18 -72 -71 -246q-11 -11 -25 -61q-11 -50 -18 -60h6l-72 -135q52 6 84 6l66 2h73q5 0 19.5 -25.5t19.5 -25.5l19 51q18 0 36 -3.5t40 -2.5zM999 2200q0 -76 -10 -148q0 -1 -8 -23.5t-8 -33.5q0 -4 3.5 -13.5t7.5 -16.5l3 -7
q0 -6 -2 -12v-13h-74l-10 64l-12 -68l-137 4v21q-2 10 -2 20q0 8 15 21.5t15 15.5q0 4 -2 6l-28 15q3 9 0 36q-3 30 2 35q12 15 12 25q0 4 -25 35l-2 30l49 7l37 -39q-6 15 -10 41q31 -25 66 -13q16 -16 34 -16q23 0 45 25q10 2 41 2zM588 1964l2 -31q-7 0 -24 -2t-25 -2
l-37 37q10 -23 10 -41q-29 23 -65 14q-15 15 -35 15t-45 -25h-41q0 81 12 148q0 4 7 25t7 30q0 6 -6 22l-6 17v22h74l10 -63l12 70l137 -7q0 -3 2.5 -20t2.5 -21q0 -5 -16.5 -18.5t-16.5 -17.5q0 -3 2 -5l31 -16q-4 -4 -2.5 -35.5t-2.5 -36.5q-12 -15 -12 -22q0 -6 25 -37z
" />
    <glyph glyph-name="Aring" unicode="&#xc5;" 
d="M1292 41l-78 -21l-75 25l14 -39l-178 -45l-57 191q2 2 2 10q0 4 -5.5 26t-5.5 29q0 18 -10 35q-11 -1 -19.5 14t-9.5 15q-56 12 -159 12q-43 0 -72 -19l-113 -4q-2 2 -12 2h-2h-2h-2h-2h-2h-2h-2h-2h-2h-2h-2h-2h-2h-2h-2h-3h-2h-2h-2h-2h-2h-2h-2h-2h-2h-2h-2h-2h-2h-2
h-2h-2h-3h-2h-2h-2h-2h-8l-10 -32q-37 -27 -37 -113q0 -6 -13 -44.5t-10 -47.5l-26 -82l-60 12q-10 17 -65 25q-3 10 -10 10q-3 0 -16 -5t-17 -5q-54 39 -66 35l-43 26l129 357q21 14 35 49t8 59l105 244q28 28 69 125q38 84 35 135l15 37q24 0 41 10l-17 25q8 0 25 10
q3 12 0 31q3 7 8 20l16 37l-10 33q32 87 94 282h15l6 27q19 18 26 29q7 3 7 12t-17 33q6 15 12 39l-6 12q2 9 12.5 45t14.5 53q1 -5 13.5 -4.5t13.5 -1.5q5 -12 8 -94q0 -57 37 -84q40 -169 34 -189l37 -34q-12 -12 -12 -19q0 -20 18 -26q15 -86 74 -252v-9q-2 -37 27 -137
q34 -98 61 -125l15 -37q-5 -10 -29 -34l43 -29q5 -20 8.5 -34.5t5.5 -20t2 -4.5q0 -4 -1.5 -8t-3.5 -8.5t-3 -6.5l14 -4l23 -12q59 -159 111 -279l-11 -14l13 -23q0 -3 11 -12t11 -18q0 -1 -1 -6.5t-4 -18t-5 -25.5q14 -23 49 -26l2 -2q7 -20 51 -117zM836 512l-54 106
q-20 29 -20 62l-6 59q-72 224 -88 269l-9 4q-18 -72 -71 -246q-11 -11 -25 -61q-11 -50 -18 -60h6l-72 -135q52 6 84 6l66 2h73q5 0 19.5 -25.5t19.5 -25.5l19 51q18 0 36 -3.5t40 -2.5zM954 2165l-10 6l6 -12q0 -3 2 -9q-9 -10 -75 -96l-43 -43q-14 -11 -29 -57l-10 12
l-2 -8q-13 -24 -48 -55l-32 -41l-17 -23l-20 12l-53 58q-8 8 -11 14l-2 -2q-36 36 -75 90q-28 38 -39 55q-24 10 -35 29l-2 10v-2q-2 2 -2 4l-4 4q-10 10 -13 19l-20 6l-10 10l4 21q0 -2 -4 -2h2q16 9 18 2q3 -3 -6 -19l-14 21l53 61q19 22 39 64l10 -6q133 151 133 157
t21 33l10 -6q25 0 45 -45h4q35 -35 102 -127q17 -11 45 -47q9 -3 29 -33l6 -6l4 -8l-2 2q-12 3 -6 18q3 -13 15 -28l2 -9l20 -6l10 -10l-6 -23q-3 15 10 15zM821 2107l-20 23q2 10 10 22q-28 31 -74 95q-17 31 -55 63l-4 6l-4 -4q-12 -20 -35 -43l-29 -35l-32 -28
q-18 -21 -21 -37l-6 -8q4 -7 14 -17h4q54 -75 109 -135l6 -8q19 29 76 82l35 51l6 -4q-1 -2 -2 -5.5t-2 -4.5q0 -4 2 -6q-9 -9 2 -9q12 0 20 2z" />
    <glyph glyph-name="AE" unicode="&#xc6;" horiz-adv-x="1869" 
d="M1745 256l61 -66l-194 -245l-41 47l-15 18l13 -8q-16 38 -90 117v-10l-189 202q-104 119 -151 228l-19 8v-6q-19 0 -43 37q-20 38 -41 38l-8 -18q0 -3 5 -6t11 -5t13 -3.5t8 -1.5q59 -159 111 -279l-11 -14q0 -15 35 -53l-10 -50l51 -28l51 -117l-78 -21l-75 25l14 -39
l-178 -45q-15 50 -55 201q-7 37 -21 90l-29 29q-58 12 -159 12q-35 0 -140 -10q-115 -11 -141 -11l-10 -32q-22 -19 -49 -134l-37 -153q-159 15 -277 98l129 357q52 43 43 108l119 242q90 197 90 262q5 12 15 37l41 10l-17 25l25 10q-9 31 24 88l-10 33q32 87 94 282h15
q0 13 19 38t20 30l-17 33l12 39l-6 12l27 98l27 -6q5 -12 8 -94q3 -57 37 -84q40 -168 34 -189l37 -34l-12 -19q16 -20 43 -110q2 -10 35 -127l26 32q5 0 211 228q209 234 213 250l25 8l10 -2l8 6l58 -2q6 9 12 6l-6 45l49 14v31l109 82l186 -197q-17 -14 -82 -49
q-53 -27 -72 -53q-43 -67 -163 -178l-187 -164q-27 -27 -18 -45q-36 -19 -90 -64h12q23 3 80 -20q58 -23 80 -23q3 0 9.5 1t21 2.5t28.5 3.5q47 8 70 8q14 0 18 -4l25 16q11 -14 32 -14q13 0 46.5 12t39.5 12q25 -4 72 -14l4 -248q-175 -31 -248 -31q-50 0 -96 9l-14 12
l-101 2l152 -203q100 -130 193 -151l-5 -25q0 -94 148 -129zM815 512h21l-50 94q-24 49 -24 92q0 44 -94 310l-9 4q-18 -72 -71 -246q-13 -10 -25 -59q-9 -50 -18 -62h6l-72 -135q60 8 223 8q8 0 21.5 -25.5t17.5 -25.5l19 51q8 0 29 -3t26 -3z" />
    <glyph glyph-name="Ccedilla" unicode="&#xc7;" horiz-adv-x="1161" 
d="M801 -168l2 -2q5 -1 26 8q7 -25 5 -31q-4 -12 -17 -2q8 5 10 -2l-18 -28q-5 -5 -25 -33l-6 -8q-16 -19 -18 -17q-10 0 -10 -28q-3 -5 -12.5 -22.5t-14.5 -25t-14.5 -21.5t-17 -20.5t-18 -12t-20.5 -5.5l11 -6l-11 -8l-4 -2q-4 -4 -10 -4h-2l-6 -4q-9 3 -6 10h2
q1 0 2 -0.5t3.5 -1.5t4.5 -2h2h2q3 -3 -2 -6l6 -4l-2 -5l-14 -28l-4 -2q-22 -12 -19 -21v-6l-47 -63q-4 4 -30 27.5t-46 43.5q5 4 29 15l-4 16l35 41l45 66l30 45v-39q0 -2 -2 -4v-7q-2 -2 -2 -6q-5 0 -8 8q0 -1 4 3l4 4q4 4 7 4v14q0 16 8 29l-4 6l26 29q15 -6 25 -3
l-23 11l17 18h-11h-28q-8 3 -8 17l2 4l2 -2l2 -2q-3 -9 -11 -17q-3 0 -24 6l-12 2q-7 2 -11 -2q-6 -13 -12 -10q-19 3 -37 0q-20 0 -26 5.5t0 23.5q6 15 6 18q0 13 -4 25v20l10 6l4 2v2q-2 -2 -4 -2l-2 4q-8 5 -8 11q0 14 2 24q0 1 -4 9q3 9 6 49l10 6v2v2q0 -2 2 -2
q2 2 4 2l-6 4q2 5 -0.5 7t-9.5 1l8 41h49l4 -12l6 12l29 -2q4 1 6 -1t2 -7q3 -3 0 -12v-11l-2 -2h2v-30l-8 -27v18l4 -2q0 -7 -6 -10h4l-6 -18l-2 -6q0 -5 -2 -5v-4q-3 -28 2 -41l-6 -14l12 2q2 -2 10 -2q18 3 23 -2v2l4 2q2 2 8 2q8 0 16 -8q2 -2 0 -4l5 6l6 6h6h2
q2 2 14 2q2 -2 13 2l14 -6l2 -2l2 2q4 2 12 -2h4h4q16 -3 41 6q12 3 21 -6l2 -2q-4 0 -6 2zM1112 166l-194 -246q-54 60 -56 66l10 -9q-6 36 -38 58q-9 6 -50 59v-8q-64 64 -188 201l-111 135l-14 65l-39 11q-6 6 -18 14q-7 9 -30 22t-30 21l-37 51q-24 35 -47 35l-59 61
l-2 19l-14 14q-1 5 -3 16.5t-4 18.5t-4.5 15.5t-6.5 13t-9 6.5l-12 -29q3 -11 6 -24l2 -7q-3 9 -64 52q-12 7 -16 22.5t-12 16.5q-15 11 -35 34l2 -20l10 18l-2 2l180 209q30 3 60 56q13 18 18 32q26 27 172 201q43 21 90 74q55 58 64 98l22 29q4 -1 10.5 9.5t13.5 21
t11 10.5q80 0 84 4q4 -2 12 -2q9 0 30.5 10t25.5 10t12 -4l4 8q0 4 -25.5 14t-29.5 23v31q0 17 78 104l180 -204l-58 -50q-20 -8 -33 -25.5t-16.5 -28t-9.5 -34.5q-52 -63 -145 -149q-96 -89 -150 -156q-18 -11 -45 -35l-29 -8q-8 -3 -8 -10q0 -5 6 -14q4 -11 0 -15
q-115 -103 -112 -166q-11 -11 -19 -24v-12q0 -31 29 -54q138 -150 215 -231q13 -34 100 -117q82 -79 123 -88q3 -8 11 -21.5t10 -17.5q96 -114 121 -117q33 -38 63 -65z" />
    <glyph glyph-name="Egrave" unicode="&#xc8;" horiz-adv-x="1183" 
d="M1118 166l-194 -246q-54 60 -56 66h2l11 -9q-9 36 -41 58l-49 59v-8l-189 201l-53 63l-64 72l-32 72l-13 4l-8 4v-6q-6 6 -18 14l-13 18q-6 2 -39 27q-20 33 -71 84q-6 2 -21 2l-59 61v19l16 39q-3 12 -30 12l-33 4l6 -28q-6 9 -61 49q-10 6 -14.5 14.5t-5.5 14t-3 5.5
q-15 5 -37 27l-4 -8l-2 20l4 -4q19 21 45.5 53t65.5 78.5t69 81.5q43 6 68 66l2 2q6 12 8 22q81 86 172 199q39 20 90 78l72 94q17 38 39 66l8 -2q3 6 10 6v0v0v0h1h1h1h1h1h1h1h1h1h1h1h10q14 -2 35 -2l8 6h4q4 4 4 8t-7 15t-7 14q0 5 6 8q27 0 47 14v31q0 17 78 104
l137 -153l18 -13l-4 -6l31 -32q-12 -8 -57 -50q-9 -3 -16 -8t-12 -9t-9.5 -11t-7 -11t-5.5 -12.5t-4 -12t-3 -13t-3 -11.5q-63 -71 -147 -149q-100 -93 -148 -156q-10 -6 -47 -35l-10 -2l-18 -32q3 -10 0 -13q-25 -20 -91 -82q29 0 105 -6q54 -6 100 6q2 -1 51 2q44 6 54 9
l8 -2l2 -2l25 -5l22 -12l39 2q52 0 59 21l70 -13l4 -249q-182 -27 -201 -27q-32 16 -45 16l-14 5q-15 4 -34 9t-29 5q-14 0 -21 -11l-14 -6l-101 2q44 -56 123 -149q14 -35 99 -117q82 -79 124 -88q-7 1 -10.5 -6t-3.5 -21q0 -88 156 -129q32 -36 61 -65zM639 1540l-2 -2v2
h2zM49 858l2 4l-4 4l-2 -2zM862 2028q-17 -21 -31 -29q-9 0 -12 10q-3 6 -12 0q-14 -14 -14 -35q-12 -8 -15 -35q-13 30 -20 39v-53l-39 -31l-21 23q0 3 -0.5 9t-0.5 9t-1 8.5t-2.5 8t-3.5 6t-5.5 5.5t-8 3.5t-10.5 1.5q-5 1 -26 25.5t-26 25.5l11 31q0 6 -11.5 6.5
t-23.5 -0.5t-17 4q-5 4 -12 17l-2 -2l-29 30q-2 26 -7 32.5t-31 10.5q-5 1 -26 25.5t-26 24.5l11 30q0 9 -23 6q-8 -1 -13.5 0t-10.5 5t-7.5 6.5t-10 11.5t-11.5 14l71 76l56 -41l-37 53l29 29l18 -18q4 -15 18 -35l50 -31l106 -113q2 -10 16 -37q3 -2 20 -11t30 -17
q55 -40 110 -98z" />
    <glyph glyph-name="Eacute" unicode="&#xc9;" horiz-adv-x="1183" 
d="M1118 166l-194 -246q-54 60 -56 66h2l11 -9q-9 36 -41 58l-49 59v-8l-189 201l-53 63l-64 72l-32 72l-13 4l-8 4v-6q-6 6 -18 14l-13 18q-6 2 -39 27q-20 33 -71 84q-6 2 -21 2l-59 61v19l16 39q-3 12 -30 12l-33 4l6 -28q-6 9 -61 49q-10 6 -14.5 14.5t-5.5 14t-3 5.5
q-15 5 -37 27l-4 -8l-2 20l4 -4q19 21 45.5 53t65.5 78.5t69 81.5q43 6 68 66l2 2q6 12 8 22q81 86 172 199q39 20 90 78l72 94q17 38 39 66l8 -2q3 6 10 6v0v0v0h1h1h1h1h1h1h1h1h1h1h1h10q14 -2 35 -2l8 6h4q4 4 4 8t-7 15t-7 14q0 5 6 8q27 0 47 14v31q0 17 78 104
l137 -153l18 -13l-4 -6l31 -32q-12 -8 -57 -50q-9 -3 -16 -8t-12 -9t-9.5 -11t-7 -11t-5.5 -12.5t-4 -12t-3 -13t-3 -11.5q-63 -71 -147 -149q-100 -93 -148 -156q-10 -6 -47 -35l-10 -2l-18 -32q3 -10 0 -13q-25 -20 -91 -82q29 0 105 -6q54 -6 100 6q2 -1 51 2q44 6 54 9
l8 -2l2 -2l25 -5l22 -12l39 2q52 0 59 21l70 -13l4 -249q-182 -27 -201 -27q-32 16 -45 16l-14 5q-15 4 -34 9t-29 5q-14 0 -21 -11l-14 -6l-101 2q44 -56 123 -149q14 -35 99 -117q82 -79 124 -88q-7 1 -10.5 -6t-3.5 -21q0 -88 156 -129q32 -36 61 -65zM639 1540l-2 -2v2
h2zM49 858l2 4l-4 4l-2 -2zM770 2347l72 -76l-25 -33q-6 -4 -17.5 -3t-22.5 0t-11 -7l10 -30q-5 0 -25.5 -24.5t-25.5 -25.5q-26 -5 -32 -11t-7 -32l-29 -30l-2 2q-5 -10 -12 -17q-5 -5 -16.5 -4t-23 0.5t-11.5 -6.5l10 -31q-5 -1 -25.5 -25.5t-25.5 -25.5q-6 0 -11 -2
t-8 -3.5t-5.5 -5.5t-3.5 -6t-2 -7.5t-1.5 -8t-1 -9.5t-0.5 -9l-20 -23l-37 31l-2 53q-7 -25 -21 -39q0 27 -14 35q0 21 -14 35q-8 5 -11 0q-7 -10 -14 -10q-14 8 -31 29q52 55 111 98q9 3 49 28l18 37q22 34 105 113l49 31l19 35l18 18l29 -29l-37 -53z" />
    <glyph glyph-name="Ecircumflex" unicode="&#xca;" horiz-adv-x="1183" 
d="M678 1606l8 -2l10 6l56 -2q9 9 12 6l-4 45l47 14v31l78 104q61 -75 155 -166l-4 -6l31 -32q-81 -73 -258 -256q-204 -214 -229 -256v-13q-26 -20 -91 -82q76 -2 310 11q7 2 10 -4l145 6q23 -5 70 -13l4 -249q-175 -27 -190 -27q-14 0 -60 16q-46 19 -65 19q-27 0 -68 -8
q-51 -10 -76 -7l162 -200q118 -139 184 -154l-6 -29q0 -92 148 -127l61 -65l-194 -246l-37 43l-13 14l-6 9l13 -9q-2 6 -90 117v-8q-89 89 -187 195q-117 126 -151 213q-3 0 -10.5 4.5t-10.5 3.5v-6q-27 15 -82 82q-51 60 -80 63l-59 61q-6 17 16 58l-63 16l6 -28
q-82 64 -82 83l-14 5l-25 22l-4 -8l-2 20l4 -4l180 213q22 3 45 35l25 33l8 22l172 199q41 37 103 123q65 89 98 115zM49 858l2 4l-4 4l-2 -2zM946 2017l-6 -16l-10 -4l-2 -12q-8 -2 -16.5 7t-18.5 29l16 -47q-48 -15 -45 -45l-37 41l15 -41l-13 -16q-6 9 -18 49l-12 -18
q-12 24 -82 88q-86 77 -103 98q-28 -15 -61.5 -44t-49 -45t-60 -66.5t-48.5 -55.5q-15 6 -37 25l13 24l-29 -18l-16 10l12 35l-21 -19q-25 22 -38 27l4 2q-7 0 -15 2q6 11 23 25v-2q3 34 53 55l25 53q21 41 32 41q23 0 99 70q83 80 106 90q15 -26 78 -72q66 -45 86 -80
l16 19q4 -21 45 -54q14 -12 29.5 -25t21.5 -18.5t7 -7.5q2 -17 57 -84z" />
    <glyph glyph-name="Edieresis" unicode="&#xcb;" horiz-adv-x="1183" 
d="M938 2200q0 -76 -10 -148q0 -2 -8.5 -25t-8.5 -32q0 -10 15 -37q0 -6 -2 -12v-13h-74l-10 64l-13 -68l-137 4v21q-2 10 -2 20q0 8 15.5 21.5t15.5 15.5q0 5 -31 21q2 2 2 14q0 5 -2 21.5t-2 21.5t8 19.5t8 19.5t-24 35l-2 30q28 7 49 7l37 -39q2 0 2 4q0 3 -7 18t-7 19h2
q31 -25 65 -13q16 -16 35 -16q23 0 45 25q10 2 41 2zM526 1964l2 -31q-3 0 -22 -2t-27 -2l-37 37q-2 0 -2 -2q0 -3 7.5 -18.5t7.5 -18.5q0 -2 -2 -2q-29 24 -66 14q-15 15 -35 15t-45 -25h-41q0 78 13 148q0 5 7 26t7 29q0 12 -12 39v22h73l11 -63l12 70l137 -7v-20
q4 -20 4 -21q0 -5 -16.5 -18.5t-16.5 -17.5q0 -7 33 -21q-4 -4 -4 -14q0 -4 2 -20.5t2 -20.5q0 -8 -8 -22t-8 -17q0 -7 24 -37zM1057 231l61 -65l-194 -246l-37 43l-13 14l-6 9l13 -9q-2 6 -90 117v-8q-89 89 -187 195q-117 126 -151 213q-3 0 -10.5 4.5t-10.5 3.5v-6
q-27 15 -82 82q-51 60 -80 63l-59 61q-6 17 16 58l-63 16l6 -28q-82 64 -82 83l-14 5l-25 22l-4 -8l-2 20l4 -4l180 213q22 3 45 35l25 33l8 22l172 199q41 37 103 123q65 89 98 115l8 -2l10 6l56 -2q9 9 12 6l-4 45l47 14v31l78 104q61 -75 155 -166l-4 -6l31 -32
q-81 -73 -258 -256q-204 -214 -229 -256v-13q-26 -20 -91 -82q76 -2 310 11q7 2 10 -4l145 6q23 -5 70 -13l4 -249q-175 -27 -190 -27q-14 0 -60 16q-46 19 -65 19q-27 0 -68 -8q-51 -10 -76 -7l162 -200q118 -139 184 -154l-6 -29q0 -92 148 -127zM49 858l2 4l-4 4l-2 -2z
" />
    <glyph glyph-name="Igrave" unicode="&#xcc;" horiz-adv-x="641" 
d="M492 57l2 -39h-39h-78q-12 5 -37 13l4 -13l-25 2l-16 -2q-3 0 -14.5 13.5t-14.5 13.5q-25 0 -53 -31q-10 1 -23 5.5t-26 3.5q2 1 6.5 3.5t8 5t6.5 5.5q23 23 12 33l-31 45q9 62 6 92q-6 49 -6 92l27 31l28 82q-34 4 -49 8q-8 31 -8 76q0 46 16 161q19 117 19 160
q0 29 -10 101q-9 67 -9 100q35 15 35 76q0 40 -35 75l-12 261q-2 2 3 9t13 19t11 23q-31 67 -31 92q0 10 6 16q-10 10 -16 49q-6 43 -15 52l29 28l291 4q3 -73 -6 -217q-17 -25 -29 -61q27 -58 27 -55l-5 -14l-8 -40l-6 -47l15 -10l-17 -25q25 -9 25 -49q-38 8 -41 -2
l43 -69q-8 -24 -8 -99q0 -8 0.5 -26t1.5 -51.5t2 -65.5q2 -66 2 -154q-3 -70 -14 -125l14 -88l-35 37q-12 -41 -12 -59q0 -20 20 -23q9 -1 14.5 -6t7 -13.5t2.5 -19.5t0.5 -23t0.5 -24q0 -42 12 -51l-14 -72q-10 -17 -10 -106q0 -55 43 -107zM561 2028q-17 -21 -31 -29
q-9 0 -12 10q-3 6 -12 0q-14 -14 -14 -35q-12 -8 -15 -35q-13 30 -20 39v-53l-39 -31l-21 23q0 3 -0.5 9t-0.5 9t-1 8.5t-2.5 8t-3.5 6t-5.5 5.5t-8 3.5t-10.5 1.5q-5 1 -26 25.5t-26 25.5l11 31q0 6 -11.5 6.5t-23.5 -0.5t-17 4q-4 4 -12 17l-2 -2l-29 30q-1 26 -7 32
t-32 11q-5 1 -25.5 25.5t-25.5 24.5l11 30q0 9 -23 6q-8 -1 -13.5 0t-10.5 5t-7.5 6.5t-10 11.5t-11.5 14l71 76l56 -41l-37 53l29 29l18 -18q4 -15 18 -35l50 -31l106 -113q3 -10 16 -37q3 -2 20 -11t30 -17q55 -40 110 -98z" />
    <glyph glyph-name="Iacute" unicode="&#xcd;" horiz-adv-x="641" 
d="M492 57l2 -39h-39h-78q-12 5 -37 13l4 -13l-25 2l-16 -2q-3 0 -14.5 13.5t-14.5 13.5q-25 0 -53 -31q-10 1 -23 5.5t-26 3.5q2 1 6.5 3.5t8 5t6.5 5.5q23 23 12 33l-31 45q9 62 6 92q-6 49 -6 92l27 31l28 82q-34 4 -49 8q-8 31 -8 76q0 46 16 161q19 117 19 160
q0 29 -10 101q-9 67 -9 100q35 15 35 76q0 40 -35 75l-12 261q-2 2 3 9t13 19t11 23q-31 67 -31 92q0 10 6 16q-10 10 -16 49q-6 43 -15 52l29 28l291 4q3 -73 -6 -217q-17 -25 -29 -61q27 -58 27 -55l-5 -14l-8 -40l-6 -47l15 -10l-17 -25q25 -9 25 -49q-38 8 -41 -2
l43 -69q-8 -24 -8 -99q0 -8 0.5 -26t1.5 -51.5t2 -65.5q2 -66 2 -154q-3 -70 -14 -125l14 -88l-35 37q-12 -41 -12 -59q0 -20 20 -23q9 -1 14.5 -6t7 -13.5t2.5 -19.5t0.5 -23t0.5 -24q0 -42 12 -51l-14 -72q-10 -17 -10 -106q0 -55 43 -107zM494 2331l71 -76l-26 -31
q-5 -5 -17 -4t-23.5 0.5t-11.5 -6.5l13 -31q-7 -1 -27 -25.5t-27 -25.5q-24 -1 -29 -8t-7 -35l-29 -29h-2q-2 -4 -12 -14q-4 -4 -17.5 -4t-24 -1t-10.5 -7l11 -31q-4 -1 -25 -25t-29 -24q-21 -3 -28 -17q0 -24 -2 -36l-21 -23l-39 31v53q-11 -26 -20 -37q0 1 -1 7.5t-1.5 8
l-2 6t-4 7t-6.5 4.5q-3 21 -14 35q-9 6 -12 0q-5 -8 -15 -11l-30 29q57 57 110 98q13 5 50 31l18 37q29 39 106 113q12 5 50 28l18 37l16 17l31 -29l-37 -53z" />
    <glyph glyph-name="Icircumflex" unicode="&#xce;" horiz-adv-x="641" 
d="M494 18l-2 39q-43 52 -43 107q0 89 10 106l14 72q-12 9 -12 51q-1 12 -0.5 24t-0.5 23t-2.5 19.5t-7 13.5t-14.5 6q-20 3 -20 23q0 18 12 59l35 -37l-14 88q11 55 14 125q0 88 -2 154q-1 32 -2 65.5t-1.5 51.5t-0.5 26q0 75 8 99l-43 69q3 10 41 2q0 40 -25 49l17 25
l-15 10l6 47q11 58 13 54q0 -3 -27 55q12 36 29 61q9 144 6 217l-291 -4l-29 -28q9 -9 15 -52q6 -39 16 -49q-6 -6 -6 -16q0 -25 31 -92q-3 -11 -11 -23t-13 -19t-3 -9l12 -261q35 -35 35 -75q0 -61 -35 -76q0 -33 9 -100q10 -72 10 -101q0 -43 -19 -160q-16 -115 -16 -161
q0 -45 8 -76q15 -4 49 -8l-28 -82l-27 -31q0 -43 6 -92q3 -30 -6 -92l31 -45q11 -10 -12 -33l-21 -14q13 1 26 -3.5t23 -5.5q28 31 53 31q3 0 14.5 -13.5t14.5 -13.5l16 2l25 -2l-4 13l37 -13h78h39zM651 2017l-4 -10l-2 -4v-2l-10 -4l-2 -12q-8 -2 -16.5 7t-18.5 29l16 -47
q-9 -4 -15 -2.5t-10.5 -2t-8.5 -15.5q0 -4 -5.5 -12.5t-5.5 -12.5l-37 41l15 -41l-12 -16q-16 32 -19 49l-12 -18l-12 20l-35 43l-41 21q-66 62 -97 102l-45 -25q-16 -3 -61 -57l-57 -74q-4 0 -56 -55q-26 19 -37 25l13 24l-29 -18l-16 10l12 35l-20 -19q-24 21 -39 27
q2 0 4 2h-2l-13 2l5 7q4 7 9 12.5t9 5.5v-2q3 34 53 55q14 32 27 55q17 39 30 39q24 0 97 70q84 78 108 90q15 -28 78 -70q67 -45 86 -82l17 19q3 -18 43 -52l59 -53q3 -18 57 -84z" />
    <glyph glyph-name="Idieresis" unicode="&#xcf;" horiz-adv-x="641" 
d="M492 57l2 -39h-39h-78q-12 5 -37 13l4 -13l-25 2l-16 -2q-3 0 -14.5 13.5t-14.5 13.5q-25 0 -53 -31q-10 1 -23 5.5t-26 3.5q2 1 6.5 3.5t8 5t6.5 5.5q23 23 12 33l-31 45q9 62 6 92q-6 49 -6 92l27 31l28 82q-34 4 -49 8q-8 31 -8 76q0 46 16 161q19 117 19 160
q0 29 -10 101q-9 67 -9 100q35 15 35 76q0 40 -35 75l-12 261q-2 2 3 9t13 19t11 23q-31 67 -31 92q0 10 6 16q-10 10 -16 49q-6 43 -15 52l29 28l291 4q3 -73 -6 -217q-17 -25 -29 -61q27 -58 27 -55l-5 -14l-8 -40l-6 -47l15 -10l-17 -25q25 -9 25 -49q-38 8 -41 -2
l43 -69q-8 -24 -8 -99q0 -8 0.5 -26t1.5 -51.5t2 -65.5q2 -66 2 -154q-3 -70 -14 -125l14 -88l-35 37q-12 -41 -12 -59q0 -20 20 -23q9 -1 14.5 -6t7 -13.5t2.5 -19.5t0.5 -23t0.5 -24q0 -42 12 -51l-14 -72q-10 -17 -10 -106q0 -55 43 -107zM651 2179q0 -75 -10 -147
q0 -1 -8 -24t-8 -34q0 -4 3.5 -13.5t7.5 -16.5l3 -7q0 -6 -2 -12v-12h-74l-10 63l-12 -67l-138 4v20q-2 10 -2 21q0 8 15.5 21.5t15.5 15.5q0 4 -2 6l-29 14q3 9 0 37q-3 30 2 35q13 16 13 24q0 4 -25 35l-2 31q42 6 49 6l37 -39q-6 14 -10 41q30 -24 65 -12q17 -17 35 -17
q23 0 45 25q10 2 41 2zM240 1944l2 -31q-7 0 -24 -2t-25 -2l-37 37q10 -23 10 -41q-29 24 -66 14q-14 14 -34 14q-22 0 -46 -24h-40q0 79 12 147q0 4 7 25t7 30q0 6 -6 23l-6 16v23h74l10 -64l12 70l137 -6q0 -3 2 -20t2 -21q0 -5 -16 -19t-16 -18q0 -2 2 -4l30 -16
q-4 -4 -2 -35.5t-2 -36.5q-12 -15 -12 -23q0 -5 25 -36z" />
    <glyph glyph-name="Eth" unicode="&#xd0;" horiz-adv-x="1366" 
d="M1335 854l4 -6l-24 -25q-40 -5 -80 -28l-6 -23q-34 -9 -37 -51q-8 -8 -18 -31l2 -2q-23 -25 -58 -55q-100 -9 -137 -66q-23 -31 -27 -37q-25 -15 -43 -43q0 -17 -26 -43l-119 -65q-12 -8 -70 -78t-75 -70l-27 -28l-14 -17l10 7q-22 -12 -80 -50q-16 -16 -25 -22
q2 3 25 22q0 2 -2 2l-51 7l-4 -41q-31 -20 -66 -35q-4 4 -20 -19q-11 -15 -20.5 -21.5t-16.5 -19.5q-3 -6 -6 -10t-5.5 -5.5t-3.5 -0.5l-11 -9q-11 -9 -17 -9q-26 0 -49 -29q-38 0 -50 -2q1 31 5 352q16 29 16 72q0 10 -2 16q0 1 -0.5 2.5l-1.5 4.5t-2 5h2l-6 15q0 6 -2 8
q0 64 6 270q8 21 10 29l-82 4q0 5 -25.5 20.5t-25.5 20.5q22 22 22 51q0 21 -14 41q4 12 4 21q0 18 -10 35v8q0 13 2 34.5t2 32.5q10 -2 29 -2q5 -5 18 -28q7 -13 25 -13q16 0 45 13l2 2l18 6l-20 10v41l30 20h5q28 28 22 60l-4 26q-12 12 -55 70l-15 303l13 8l-2 21
q24 3 57 10q-28 3 -47 14q-2 2 -2 7q1 1 4 10v2l18 22l-18 21q-12 37 -37 43q-16 91 -20 117q47 0 63 -19q17 -17 66 -14l49 -55l73 -52q6 -6 60 -18q55 -12 59 -19v-28q-9 -22 -4 -27q123 -123 178 -123q3 0 23 4l10 2q2 -3 9.5 -12t13.5 -14q0 -33 63 -84q89 -73 107 -96
l200 -148q2 -11 11 -24q22 -54 59 -60l6 -4l141 -127zM948 864l6 6l-24 33q0 14 -21 17q-8 2 -13.5 4.5t-11.5 8t-9.5 9.5t-13 15.5t-17.5 19.5q-7 9 -34 25.5t-34 23.5h19l-86 59q-40 52 -99 76q-52 25 -112 101q-23 -58 -23 -68q0 -28 23 -51q1 -1 2 -4.5t2 -5.5l-6 -74
q-13 -29 -13 -58q0 -18 4 -18v-8v-2v10q-3 0 111 0q21 -65 0 -139l-41 -21l45 -16q0 -3 -4 -49q-3 -41 -12 -41q-3 0 -35 16q-34 17 -43 17q-5 0 -10 -5v-4l-17 -32h-6v-2q0 -4 4 -4.5t4 -4.5q0 -17 -5 -69.5t-5 -67.5q0 -108 21 -129q21 27 61 70q8 6 44 29t50 34t34 35
t28 49q22 25 87 70.5t83 64.5q15 8 34 21l11 12q16 22 22 47z" />
    <glyph glyph-name="Ntilde" unicode="&#xd1;" horiz-adv-x="1355" 
d="M1200 66l6 -60l-65 6l-41 62l-133 172q0 33 -2 49q-3 34 -13 41q-14 -2 -49 2l-6 4q-43 64 -63 102q-30 55 -60 99q-12 48 -55 106q-32 25 -94 123q-18 37 -64 55l-22 33q9 24 16 53l-2 2q0 4 -12 6.5t-25.5 5t-15.5 5.5q-8 24 -47 108l-11 9l-6 2q4 -10 8.5 -19l6.5 -13
t2 -5l-13 -53l-8 -48l17 -8l-19 -26q27 -9 27 -50q-41 9 -41 -2l43 -69q-8 -24 -8 -99q0 -39 2 -47q3 6 4 6q-2 -5 -4 -6q-8 -25 -9 -30l15 -88l-37 36q-10 -45 -10 -57q0 -21 20 -24t23 -29q0 -4 -5.5 -28t-5.5 -32q0 -9 9 -18l-15 -72q-10 -17 -10 -112q0 -52 43 -107v-39
h-39h-76q-12 5 -37 13l3 -13l-23 2l-16 -2q-3 0 -16 14l-13 13q-24 0 -53 -29q-13 0 -25 3t-18 3q-4 -4 -8 0h8q42 28 26 47l-32 46q9 61 6 94q-4 70 -4 96l26 31l29 82q-34 4 -51 8q-6 34 -6 76q0 46 16 161q18 111 18 160q0 29 -10 101q-4 28 -10 100q53 21 53 76
q0 28 -53 75l-12 261q-1 2 8.5 9t21.5 18.5t15 23.5q-12 16 -27 47q-20 33 -20 49q0 8 4 12q-10 10 -4 62q9 52 -2 63l24 8l25 -8q13 3 32 12l86 -114q15 15 56 -68l-17 -55l52 10l161 -213q-7 0 -4 -14q4 -25 2 -27q0 -15 -18 -12l78 -33q22 -80 258 -371l37 -47
q1 15 2 55.5t2 59.5l-2 55q0 -40 -9 9q-6 50 -6 86l13 81q2 12 -7 48l-10 34q5 20 8.5 34.5t5 20.5t1.5 5q0 28 2 28t4 -2q4 4 4 31q0 25 -29 68q-2 27 -2 86q10 13 14 35q13 29 13 57q0 53 -37 108q0 21 -2 37l82 4q10 -10 41 -34q32 -46 45 -62l8 92q17 1 23 -13t8 -15
q28 0 49 30q25 -2 47 -2q-12 -212 -12 -288l-29 -87l25 -30q4 -8 4 -31q0 -28 -9 -117q-6 -88 -6 -127q-9 -24 -6 -65l6 -64v-2v-3v-2v-2v-2v-3v-2v-2v-3v-2v-2v-3v-2v-2v-3v-2v-2v-3v-2v-3v-2v-3v-2v-3v-2v-3v-2v-3v-3v-3v-7q0 -54 15 -75v-39l-11 -6q-22 -13 -22 -19
q0 -3 4.5 -11.5t11 -19.5t8.5 -18q0 -5 -21 -25t-20 -24q10 -27 35 -35l15 -20q4 -214 10 -312l-14 -8l16 -37q-16 -8 -47 -26q22 -79 57 -88v6l4 -9l-2 3h-2zM684 2120v-4q1 0 2.5 -1t4.5 -2t5 -2l35 15l10 -37q9 -16 25 -25l12 -4l23 -12l20 20l-4 9q15 15 45 39
q5 10 56 61l49 8l96 -67l-37 -50l-25 -2l7 41l65 -24l-72 -25q-4 -5 -53 -51l8 -14l-36 -15l4 -10l-74 -65q-28 -8 -51 -2l-15 -13l-69 41l-2 4l-4 -2l-41 29l6 -23l-101 82q-2 1 -14 13q-6 3 -33 6q-1 -2 -2 -9t-2 -10h-14q-15 -21 -39 -45q-21 -7 -35 -32l-33 -39l-104 79
q3 40 49 80l96 90v-2l4 2l-2 2l56 54l43 -2l16 16q30 -26 59 -57q34 -21 66 -45z" />
    <glyph glyph-name="Ograve" unicode="&#xd2;" horiz-adv-x="1636" 
d="M1589 879l-78 -146q7 0 7 6q0 15 -22 38t-44 24q4 4 8 4t4 -12q0 -40 -47 -189l-209 -250q-173 -206 -176 -241l-20 -31l-19 6l-45 -94l-53 -68l-53 2l-25 72l-31 -55l-43 67q-15 27 -53 51l-266 404q8 -14 35 -14q24 0 24 22q0 14 -16 43l-94 17q-6 15 -51 86
q-19 -9 -78 47q-56 47 -68 71q-3 28 0 97q-4 4 -8 4t-26.5 -17t-30.5 -14l-39 49q22 36 30 55l191 240q43 15 94 41q4 5 -13.5 22.5t-13.5 22.5q225 285 228 324l49 8l25 69q24 21 129 138q26 3 40 -35l11 33h41l92 -117l233 -344q35 -47 35 -53q0 -2 -2 -2l-17 5
q-16 5 -22 5q-16 0 -16 -25q0 -19 12 -59l105 18q7 -5 14 -39t14 -43q54 0 101 -78q-9 -20 14 -30q3 -30 33 -47l4 -29q81 -53 106 -59zM1161 723l111 104q4 4 4 9q0 6 -10 6q-11 0 -17 -2h-14q-10 0 -10 4q0 2 4 10v35h-8q-18 41 -101 133q-87 97 -108 137q-40 88 -47 105
q-31 66 -70 75q-42 47 -86 121q-29 -42 -66 -117q-37 -69 -77 -104h-56l23 -39l-8 -31q-25 0 -25 -2l-45 39q-2 2 -4 2q-1 0 -0.5 -4t2.5 -13t6 -22q14 -43 14 -63q0 -6 -4 -14q-7 -12 -69 -58q-40 -30 -43 -80l-84 -71l53 -39q25 -18 49 -51q29 -38 27 -45q9 -124 102 -154
l92 -141q62 -92 92 -101q-6 -38 19 -47q23 -8 37 -10l61 92q1 2 70 74l67 108l183 60q-1 0 -39 18q-36 19 -45 19q-4 0 -4 -4l3 10l5 20q9 34 16 31zM1108 2028q-17 -21 -31 -29q-7 0 -14 10q-3 7 -10 0q-15 -15 -15 -35q-11 -7 -14 -35q-13 30 -20 39l-3 -53l-36 -31
l-21 23q0 2 -0.5 9t-1 9.5t-1.5 8t-2 7.5t-3.5 6t-5.5 5.5t-8 3.5t-11 2q-7 1 -26.5 25.5t-26.5 25.5l12 31q0 6 -11.5 6.5t-23 -0.5t-16.5 4q-5 4 -12 17l-2 -2l-29 30q-1 26 -7 32t-32 11q-5 1 -25.5 25.5t-25.5 24.5l10 30q0 9 -22 6q-11 -1 -18.5 1.5t-10.5 5.5
t-11 13.5t-13 16.5l71 76l56 -41l-37 53l28 29l19 -18q3 -12 16 -35l49 -31q62 -62 109 -113q2 -10 16 -37q3 -2 19.5 -11t29.5 -17q57 -44 111 -98z" />
    <glyph glyph-name="Oacute" unicode="&#xd3;" horiz-adv-x="1636" 
d="M1589 879l-78 -146q7 0 7 6q0 15 -22 38t-44 24q4 4 8 4t4 -12q0 -40 -47 -189l-209 -250q-173 -206 -176 -241l-20 -31l-19 6l-45 -94l-53 -68l-53 2l-25 72l-31 -55l-43 67q-15 27 -53 51l-266 404q8 -14 35 -14q24 0 24 22q0 14 -16 43l-94 17q-6 15 -51 86
q-19 -9 -78 47q-56 47 -68 71q-3 28 0 97q-4 4 -8 4t-26.5 -17t-30.5 -14l-39 49q22 36 30 55l191 240q43 15 94 41q4 5 -13.5 22.5t-13.5 22.5q225 285 228 324l49 8l25 69q24 21 129 138q26 3 40 -35l11 33h41l92 -117l233 -344q35 -47 35 -53q0 -2 -2 -2l-17 5
q-16 5 -22 5q-16 0 -16 -25q0 -19 12 -59l105 18q7 -5 14 -39t14 -43q54 0 101 -78q-9 -20 14 -30q3 -30 33 -47l4 -29q81 -53 106 -59zM1161 723l111 104q4 4 4 9q0 6 -10 6q-11 0 -17 -2h-14q-10 0 -10 4q0 2 4 10v35h-8q-18 41 -101 133q-87 97 -108 137q-40 88 -47 105
q-31 66 -70 75q-42 47 -86 121q-29 -42 -66 -117q-37 -69 -77 -104h-56l23 -39l-8 -31q-25 0 -25 -2l-45 39q-2 2 -4 2q-1 0 -0.5 -4t2.5 -13t6 -22q14 -43 14 -63q0 -6 -4 -14q-7 -12 -69 -58q-40 -30 -43 -80l-84 -71l53 -39q25 -18 49 -51q29 -38 27 -45q9 -124 102 -154
l92 -141q62 -92 92 -101q-6 -38 19 -47q23 -8 37 -10l61 92q1 2 70 74l67 108l183 60q-1 0 -39 18q-36 19 -45 19q-4 0 -4 -4l3 10l5 20q9 34 16 31zM981 2349l72 -76l-27 -30q-3 -4 -16 -4t-24 -0.5t-11 -6.5l12 -30q-7 -1 -26.5 -26t-26.5 -26q-23 -1 -28.5 -8t-10.5 -35
l-27 -28h-2q-3 -6 -12 -15q-4 -4 -17 -4t-23.5 -1t-10.5 -7l10 -31q-7 -1 -26.5 -25t-26.5 -24q-23 -3 -29 -16q-2 -12 -2 -37l-20 -23l-39 31v53q-9 -21 -21 -36q0 2 -0.5 7.5t-1 7.5t-2 6t-4.5 6.5t-8 4.5q0 20 -15 35q-7 7 -10 0q-5 -7 -14 -10l-31 29q54 54 111 98
q10 4 49 31l18 36q26 35 107 113q4 2 49 29l16 37l19 16l31 -29l-39 -53z" />
    <glyph glyph-name="Ocircumflex" unicode="&#xd4;" horiz-adv-x="1636" 
d="M1589 879q-25 6 -106 59l-4 29q-30 17 -33 47q-23 10 -14 30q-47 78 -101 78q-7 9 -14 43t-14 39l-105 -18q-12 40 -12 59q0 25 16 25q6 0 22 -5l17 -5q2 0 2 2q0 6 -35 53l-233 344l-92 117h-41l-11 -33q-14 38 -40 35q-105 -117 -129 -138l-25 -69l-49 -8
q-3 -39 -228 -324q-4 -5 13.5 -22.5t13.5 -22.5q-51 -26 -94 -41l-191 -240q-8 -19 -30 -55l39 -49q8 -3 30.5 14t26.5 17t8 -4q-3 -69 0 -97q12 -24 68 -71q59 -56 78 -47q45 -71 51 -86l94 -17q16 -29 16 -43q0 -22 -24 -22q-27 0 -35 14l266 -404q38 -24 53 -51l43 -67
l31 55l25 -72l53 -2l53 68l45 94l19 -6l20 31q3 35 176 241l209 250q47 149 47 189q0 12 -4 12t-8 -4q22 -1 44 -24t22 -38q0 -6 -7 -6zM1272 827l-111 -104q-7 3 -16 -31l-5 -20l-3 -10q0 4 4 4q9 0 45 -19q38 -18 39 -18l-183 -60l-67 -108q-69 -72 -70 -74l-61 -92
q-14 2 -37 10q-25 9 -19 47q-30 9 -92 101l-92 141q-93 30 -102 154q2 7 -27 45q-24 33 -49 51l-53 39l84 71q3 50 43 80q62 46 69 58q4 8 4 14q0 20 -14 63q-4 13 -6 22t-2.5 13t0.5 4q2 0 4 -2l45 -39q0 2 25 2l8 31l-23 39h56q40 35 77 104q37 75 66 117q44 -74 86 -121
q39 -9 70 -75q7 -17 47 -105q21 -40 108 -137q83 -92 101 -133h8v-35q-4 -8 -4 -10q0 -4 10 -4h14q6 2 17 2q10 0 10 -6q0 -5 -4 -9zM1171 2017l-4 -10l-2 -4v-2l-10 -4l-2 -12q-8 -2 -16.5 7t-18.5 29l17 -47q-9 -4 -15 -2.5t-11 -2t-9 -15.5q0 -4 -5.5 -12.5t-4.5 -12.5
l-37 41l14 -41l-12 -16q-16 32 -19 49l-12 -18l-12 20l-35 43l-41 21q-62 58 -96 102l-45 -25q-19 -3 -64 -57l-57 -74q-1 0 -53 -55q-26 19 -37 25l12 24l-29 -18l-16 10l12 35l-20 -19q-24 21 -39 27q2 0 4 2h-2l-12 2q0 3 8.5 14t13.5 11v-2q3 33 51 55q13 23 27 55
q20 39 31 39q25 0 98 70q84 78 108 90q15 -28 78 -70q67 -45 86 -82l17 19q3 -18 43 -52l59 -53q4 -22 57 -84z" />
    <glyph glyph-name="Otilde" unicode="&#xd5;" horiz-adv-x="1636" 
d="M1589 879l-78 -146q7 0 7 6q0 15 -22 38t-44 24q4 4 8 4q6 0 6 -12q0 -43 -49 -189l-209 -250q-171 -207 -176 -241l-20 -31l-17 6l-47 -94l-51 -68l-53 2l-27 72l-31 -55l-43 67q-15 27 -53 51l-266 404q8 -14 35 -14q24 0 24 22q0 18 -14 43l-94 17l-53 86
q-19 -9 -78 47q-56 47 -68 71q-3 28 0 97q-4 4 -8 4t-26.5 -17t-30.5 -14l-39 49q24 35 30 55l191 240q43 15 94 41q4 5 -13.5 22.5t-13.5 22.5q225 285 228 324l51 8l23 69q24 21 129 138q26 3 40 -35l11 33h41l94 -117l231 -344q35 -47 35 -53q0 -2 -2 -2l-17 5
q-16 5 -22 5q-16 0 -16 -25q0 -19 12 -59l105 18q7 -5 14 -39t14 -43q56 0 103 -78q-9 -21 12 -30q6 -32 33 -47l4 -29q84 -54 106 -59zM1161 723l111 104q4 4 4 9q0 6 -10 6q-11 0 -17 -2h-14q-10 0 -10 4q0 2 4 10v35h-8q-18 41 -101 133q-87 97 -108 137q-40 88 -47 105
q-31 66 -68 75q-42 47 -86 121q-28 -36 -68 -117q-37 -69 -77 -104h-56l25 -39l-10 -31q-23 0 -23 -2l-47 39l-2 2q-1 0 0 -9t6 -30q14 -43 14 -63q0 -6 -4 -14q-9 -15 -67 -58q-40 -30 -43 -80l-84 -71l51 -39q25 -18 49 -51q29 -38 27 -45q12 -124 102 -154l92 -141
q62 -92 92 -101q-6 -38 19 -47q23 -8 37 -10l61 92l72 74l65 108l183 60q-1 0 -39 18q-36 19 -45 19q-4 0 -4 -4l3 10l5 20q9 34 16 31zM827 2120v-4q1 0 3 -1t5 -2t5 -2l34 15l11 -37q10 -17 24 -25l13 -4l22 -12l21 20l-4 9q15 15 45 39q6 12 55 61l49 8l96 -67l-37 -50
l-24 -2l6 41l66 -24l-72 -25q-4 -5 -53 -51l8 -14l-37 -15l4 -10l-74 -65q-28 -8 -51 -2l-14 -13l-70 41l-2 4l-4 -2l-41 29l6 -23l-100 82q-4 2 -15 13q-6 3 -32 6q-1 -2 -2 -9t-2 -10h-15q-15 -21 -39 -45q-20 -7 -34 -32l-33 -39l-105 79q3 40 49 80l97 90v-2l4 2l-2 2
l55 54l43 -2l16 16q35 -30 60 -57q27 -17 65 -45z" />
    <glyph glyph-name="Odieresis" unicode="&#xd6;" horiz-adv-x="1636" 
d="M1589 879l-78 -146q7 0 7 6q0 15 -22 38t-44 24q4 4 8 4q6 0 6 -12q0 -43 -49 -189l-209 -250q-171 -207 -176 -241l-20 -31l-17 6l-47 -94l-51 -68l-53 2l-27 72l-31 -55l-43 67q-15 27 -53 51l-266 404q8 -14 35 -14q24 0 24 22q0 18 -14 43l-94 17l-53 86
q-19 -9 -78 47q-56 47 -68 71q-3 28 0 97q-4 4 -8 4t-26.5 -17t-30.5 -14l-39 49q24 35 30 55l191 240q43 15 94 41q4 5 -13.5 22.5t-13.5 22.5q225 285 228 324l51 8l23 69q24 21 129 138q26 3 40 -35l11 33h41l94 -117l231 -344q35 -47 35 -53q0 -2 -2 -2l-17 5
q-16 5 -22 5q-16 0 -16 -25q0 -19 12 -59l105 18q7 -5 14 -39t14 -43q56 0 103 -78q-9 -21 12 -30q6 -32 33 -47l4 -29q84 -54 106 -59zM1161 723l111 104q4 4 4 9q0 6 -10 6q-11 0 -17 -2h-14q-10 0 -10 4q0 2 4 10v35h-8q-18 41 -101 133q-87 97 -108 137q-40 88 -47 105
q-31 66 -68 75q-42 47 -86 121q-28 -36 -68 -117q-37 -69 -77 -104h-56l25 -39l-10 -31q-23 0 -23 -2l-47 39l-2 2q-1 0 0 -9t6 -30q14 -43 14 -63q0 -6 -4 -14q-9 -15 -67 -58q-40 -30 -43 -80l-84 -71l51 -39q25 -18 49 -51q29 -38 27 -45q12 -124 102 -154l92 -141
q62 -92 92 -101q-6 -38 19 -47q23 -8 37 -10l61 92l72 74l65 108l183 60q-1 0 -39 18q-36 19 -45 19q-4 0 -4 -4l3 10l5 20q9 34 16 31zM1174 2200q0 -69 -11 -148q0 -1 -8 -23.5t-8 -33.5q0 -4 3.5 -13.5t7.5 -16.5l3 -7q0 -6 -2 -12v-13h-74l-10 64l-12 -68l-137 4v21
q-2 10 -2 20q0 8 15 21.5t15 15.5q0 4 -2 6l-28 15q3 9 0 36q-3 30 2 35q12 15 12 25q0 4 -25 35l-2 30q49 7 50 7l36 -39q-6 15 -10 41q31 -25 66 -13q16 -16 34 -16q24 0 46 25q10 2 41 2zM762 1964l2 -31q-7 0 -24 -2t-25 -2l-37 37q10 -23 10 -41q-29 23 -65 14
q-15 15 -35 15t-45 -25h-41q0 81 12 148q0 4 7 25t7 30q0 6 -6 22l-6 17v22h74l10 -63l12 70l138 -7q0 -3 2 -20t2 -21q0 -5 -16.5 -18.5t-16.5 -17.5q0 -3 2 -5l31 -16q-4 -4 -2 -35.5t-2 -36.5q-13 -16 -13 -22t25 -37z" />
    <glyph glyph-name="multiply" unicode="&#xd7;" horiz-adv-x="1452" 
d="M1190 608l29 -22q-7 -9 -56 -66q-31 -6 -43 -37q-62 0 -51 -73q-7 -11 -31 -39l-227 217q-12 42 -61 69l-21 11l-4 4h-4q-54 -14 -100 -60q-22 -21 -56 -71q-37 -58 -43 -82l-24 -25l-13 4q-92 29 -104 -65l-158 157l2 2q12 12 15 29l45 43q83 99 233 268q-17 24 -53 48
q-36 21 -47 32l-49 58q-33 35 -58 45l-30 26l6 56l-2 4q-1 3 4.5 6t17.5 6q27 6 21 12q-42 42 -86 76l118 133l9 -4q1 -2 14 -20q17 -10 63 -62q35 -41 82 -88l179 -166l22 23q13 13 16 61q5 7 35 11t37 12q15 3 66 63q2 3 59 74q3 2 18 13t20 15t14.5 13t13 16t4.5 15
l22 26l56 -51q6 -34 36 -49q6 -51 31 -51q1 0 3.5 3.5t7 7.5t8.5 5l36 -37q-48 -59 -229 -272q-25 -3 -55 -33q-3 -3 -8 -11t-7 -11l-6 -13l-20 -22q48 -16 74 -21q8 -8 32.5 -28t36.5 -31q3 -15 17 -29q10 -26 30 -49q76 -73 113 -76z" />
    <glyph glyph-name="Oslash" unicode="&#xd8;" horiz-adv-x="1636" 
d="M1589 879l-71 -138q3 -8 -7 -8l7 8q-9 39 -54 56q4 -42 -47 -193l-209 -250q-171 -207 -176 -241l-20 -31l-17 6l-47 -94l-51 -68l-53 2l-27 72l-31 -55l-43 67q-15 27 -53 51l-20 31q-9 -43 -6 -51l-27 -80q-43 -18 -55 -74l-25 -96q-41 0 -41 -2l-31 31q-15 35 -53 35
q-18 0 -33 -9l-34 43q13 36 59 154q47 115 74 139q-3 49 30 123l-104 160q8 -14 35 -14q24 0 24 22q0 18 -14 43l-94 17l-53 86q-19 -9 -78 47q-56 47 -68 71q-3 28 0 97q-4 4 -8 4t-26.5 -17t-30.5 -14l-39 49q24 35 30 55l191 240q43 15 94 41q4 5 -13.5 22.5t-13.5 22.5
q225 285 228 324l51 8l23 69q24 21 129 138q26 3 40 -35l11 33h41l94 -117l18 -29l45 113q21 34 45 37h43q-55 67 -59 88l68 55l172 -80q-10 -30 -60 -157q-38 -101 -71 -148l2 -51q0 -23 -27 -90l55 -82q31 -48 31 -58l-27 9q-28 9 -28 -19q0 -23 14 -61l105 18
q7 -5 14 -39t14 -43q56 0 103 -78q-9 -21 12 -30q6 -32 33 -47l4 -29q84 -54 106 -59zM1161 723l111 104q4 4 4 9q0 6 -10 6q-11 0 -17 -2h-14q-10 0 -10 4q0 2 4 10v35h-8q-20 44 -82 112q-22 25 -47 53l-37.5 42t-16.5 20l-157 -422q-3 -7 -22.5 -23.5t-22.5 -23.5
q6 -18 6 -53l-82 -223q16 -16 28 -19q-6 -38 19 -47q23 -8 37 -10l61 92l72 74l65 108l183 60q-43 24 -86 37q5 20 9.5 33.5t7.5 19t5 4.5zM899 1337l31 -18q-17 17 -33 20q-42 47 -86 121q-28 -36 -68 -117q-37 -69 -77 -104h-56l25 -39l-10 -31q-23 0 -23 -2l-47 39l-2 2
q-1 0 0 -9t6 -30q14 -43 14 -63q0 -6 -4 -14q-9 -15 -67 -58q-40 -30 -43 -80l-84 -71l51 -39q25 -18 49 -51q29 -38 27 -45q12 -124 102 -154l25 -37q85 219 243 674q9 22 13 22t12 -21.5t12 -21.5q8 0 17 21zM1139 666q-2 0 -2 -4q0 -2 1 1z" />
    <glyph glyph-name="Ugrave" unicode="&#xd9;" horiz-adv-x="1363" 
d="M1229 55l2 -37l-94 -2q-12 -2 -47 13l-19 -2l-41 16q-46 -46 -98 -31q0 11 -12 11q-7 0 -32.5 -10.5t-33.5 -10.5q-19 0 -16 23h-33q-1 -7 -30.5 -15t-43.5 -8l-96 4q-30 1 -55.5 13t-41.5 24t-22 12q-40 0 -76 -28q-15 -12 -55 -64l-6 82l-39 -39l-53 -10l-8 -16l4 12
q0 25 -62 28l16 -2h-96l9 58l53 63q-29 40 -29 76q0 10 2 14l-12 9q12 224 14 301q3 3 20 21.5t22.5 26t12.5 23.5t7 31q-10 18 -33 57l-25 15q0 43 8 106q11 86 11 107q0 32 -11 190q-8 115 -8 195q0 12 2 26q3 17 0 27l52 27q-41 15 -56 36q0 9 -4 95t-4 98q9 29 25 88
l67 6l19 -39q66 48 137 39l33 -74q-31 -45 -31 -73q0 -47 24 -88q0 -20 -16 -82q-14 -55 -14 -72q0 -37 10 -170q12 -117 12 -172q0 -30 -8 -121q-8 -77 -4 -129v2q3 -3 6 -39l-6 37l-10 -133h-41l59 -57q-13 -81 -26 -260l51 -37q40 16 100 16q23 0 39 -29l33 13l39 -35h6
l18 35l17 -35l59 25h14q36 0 39 20l78 -6l41 41q0 21 -4 201t-4 204q0 16 16.5 57t16.5 56q0 14 -4.5 49.5t-4.5 42.5q0 29 17 68l-35 41q12 9 12 26q0 9 -6 37t-6 31l49 16l-4 23l25 55l-49 -33q-10 17 -25 29q0 102 -6 301l16 6l-4 27l2 11q2 11 6 11l2 4q7 24 19 39
l-56 62l31 74q31 0 160 -9l37 -84l18 82l45 -32l-4 -125q-3 -71 -28 -119q24 -37 24 -121q-2 -23 -6 -68l-2 -2l-41 -8l41 -29q0 -58 -35 -174l41 56q-2 -48 2 -217q2 -106 2 -215q-2 -10 -8 -33l-64 4l-2 -6q0 -5 27 -11q28 -6 31 -28l12 -78q6 -52 6 -80q0 -9 -8 -22
t-8 -21q0 -19 8 -43l-107 82q70 -67 87 -117q14 -41 14 -149q0 -51 41 -107zM944 2028q-17 -21 -31 -29q-9 0 -12 10q-3 6 -12 0q-15 -15 -15 -35q-11 -7 -14 -35q-13 30 -20 39v-53l-39 -31l-21 23q0 3 -0.5 9t-0.5 9t-1 8.5t-2.5 8t-3.5 6t-5.5 5.5t-8 3.5t-10.5 1.5
q-5 1 -26 25.5t-26 25.5l11 31q0 6 -11.5 6.5t-23.5 -0.5t-17 4q-5 4 -12 17l-2 -2l-29 30q-1 26 -7 32t-32 11q-5 1 -25.5 25.5t-25.5 24.5l10 30q0 9 -22 6q-8 -1 -13.5 0t-10.5 5t-7.5 6.5t-10 11.5t-11.5 14l71 76l56 -41l-37 53l28 29l19 -18q4 -15 18 -35l50 -31
l106 -113q2 -10 16 -37q3 -2 20 -11t30 -17q55 -40 110 -98z" />
    </font>
</defs>
</svg>
