<?xml version="1.0" standalone="no"?>
<!DOCTYPE svg PUBLIC "-//W3C//DTD SVG 1.1//EN" "http://www.w3.org/Graphics/SVG/1.1/DTD/svg11.dtd" >
<svg xmlns="http://www.w3.org/2000/svg" xmlns:xlink="http://www.w3.org/1999/xlink" version="1.1">
<metadata>
Created by FontForge 20170731 at Tue Apr 28 16:34:26 2009
 By Aleksey,,,
2009 Iconian Fonts - www.iconian.com
</metadata>
<defs>
<font id="ElderMagicItalic" horiz-adv-x="687" >
  <font-face 
    font-family="Elder Magic Italic"
    font-weight="400"
    font-style="italic"
    font-stretch="normal"
    units-per-em="1000"
    panose-1="0 0 0 0 0 0 0 0 0 0"
    ascent="800"
    descent="-200"
    x-height="736"
    cap-height="742"
    bbox="-43 -150 1251.26 956"
    underline-thickness="50"
    underline-position="-175"
    slope="-12"
    unicode-range="U+0020-20AC"
  />
<missing-glyph horiz-adv-x="500" 
 />
    <glyph glyph-name=".notdef" horiz-adv-x="500" 
 />
    <glyph glyph-name=".null" horiz-adv-x="0" 
 />
    <glyph glyph-name="nonmarkingreturn" horiz-adv-x="500" 
 />
    <glyph glyph-name="space" unicode=" " horiz-adv-x="409" 
 />
    <glyph glyph-name="space" unicode="&#xa0;" horiz-adv-x="409" 
 />
    <glyph glyph-name="FL0021h" unicode="!" horiz-adv-x="316" 
d="M270 283l-73 9q5 25 10.5 47.5t11.5 43.5l22 85l60 224q-9 -8 -8 2.5t12.5 25.5t33.5 27t55 8l-21 -79q-3 -13 -8 -24.5t-11 -24.5q0 -5 -1 -9l-3 -9l-5 -19l-10 -37zM122 20l-36 86q-6 9 -1 23q1 9 12 16q7 4 21 12.5t28.5 18t26 17t13.5 9.5q7 5 18.5 12t12.5 7
l3.5 0.5t5.5 0.5q11 0 11.5 -1.5t7.5 -9.5l50 -101l-2 -8l-8.5 -8t-15.5 -13q-15 -12 -28.5 -21.5t-26.5 -18.5t-27.5 -18.5t-31.5 -21.5q-2 0 -5 -0.5t-4 -0.5q-12 0 -17 4t-7 16zM138 121q5 -14 12 -34t17 -29q9 7 13 8l51 40l1 2q1 4 -1 13t-6 18t-9 17t-9 11
q-7 -3 -17 -8.5t-20 -11.5t-19 -13t-13 -13z" />
    <glyph glyph-name="FL0022h" unicode="&#x22;" horiz-adv-x="777" 
d="M655 409q-14 -17 -29 -17q-7 0 -7 2l-22 31l-1 2q1 2 1.5 2.5l0.5 0.5l7 11l111 124q1 1 1.5 2l0.5 1q2 8 -11 26.5t-31 39t-35.5 38l-23.5 23.5q-3 4 -2.5 9.5t1 10.5t0 9.5t-4.5 6.5q8 11 23 15t24 6h92q9 -1 30.5 -3.5t44.5 -4.5t44 -4.5t29 -3.5q21 -19 13 -48l-1 -4
q-1 -1 -4 -5t-5 -5q-62 -69 -122.5 -134t-123.5 -131zM828 679q-4 0 -16.5 1t-27.5 2t-27.5 2t-16.5 1h-10l46 -73h11zM915 742q2 0 1 -6q-2 -5 -4 -5q-6 0 -4 5q1 6 7 6zM289 410q-14 -17 -29 -17q-4 0 -6 2l-23 31l-0.5 0.5t0.5 1.5q0 2 0.5 2.5l0.5 0.5l8 11l111 124
q0 1 0.5 2l0.5 1q2 8 -11 26.5t-31 39t-35.5 38l-23.5 23.5q-3 4 -3 9q0 6 1 11t1 9q0 5 -4 7q8 11 23 15t24 6h93q9 -1 29.5 -3.5t44 -4.5t44 -4.5t28.5 -3.5q21 -19 13 -49v-3q-2 -1 -4.5 -5t-4.5 -5q-64 -69 -124 -134t-123 -131zM462 679q-4 1 -16.5 2.5t-27 2.5
t-27.5 1.5t-17 0.5h-10l47 -73h11zM549 742q4 0 2 -5q0 -5 -5 -5q-3 0 -3 5q2 5 6 5z" />
    <glyph glyph-name="FL0023h" unicode="#" horiz-adv-x="628" 
d="M179 458q-2 13 1 25l4 15q2 8 7 17.5t11 9.5h102l20 76q14 52 23.5 85.5t11.5 38.5q7 17 19 26t12 10h46q2 0 5.5 -7t-2.5 -31l-53 -198h91q4 3 13 3q2 0 6 -0.5t9 -1.5l20 75q14 52 23.5 85.5t11.5 38.5q7 17 19 26t12 10h46q2 0 5.5 -7t-2.5 -31l-53 -198h91q4 3 13 3
q8 0 15 -1.5t11 -6.5l-6 -6l-14 -51l-7 -6q-1 0 -5.5 -0.5t-17.5 -1.5t-36.5 -1.5t-62.5 -0.5l-42 -157h89q6 3 14 3t15.5 -1.5t11.5 -6.5l-8 -6l-13 -51l-7 -6q-1 0 -5.5 -0.5t-17.5 -1.5t-36 -1.5t-60 -0.5l-48 -179q-6 -23 -15 -45h-79l-5 4l17 64q22 70 45 156h-116
l-48 -179q-6 -23 -15 -45h-79l-5 4l17 64q22 70 45 156h-42q-17 0 -33.5 1t-31.5 4v12t2 13l4 15q2 8 7 17.5t10 9.5h103l42 157h-41q-17 0 -33 1t-31 4zM444 453h-77l-42 -157h89q6 3 14 3q3 0 7 -0.5t9 -1.5l41 156h-41z" />
    <glyph glyph-name="FL0024h" unicode="$" horiz-adv-x="655" 
d="M300 -85l32 -20q6 -2 8 -2q6 0 13 2.5t13 5.5t10.5 7t5.5 7l29 107q22 14 44 34.5t43 42t39.5 42t32.5 35.5l95 104l23 31q-5 8 -21 23.5t-38.5 35.5t-49 43t-51.5 46l57 211q12 -10 27.5 -23t29.5 -24t25.5 -19t16.5 -8q8 0 16.5 4.5t16.5 10.5t14 12t10 9
q-2 18 -13.5 32.5t-27 26.5t-32.5 22t-30 18q-5 2 -13 7.5t-18 10.5l2 14q4 1 5 7q2 7 2 17t-1 19.5t-3.5 16.5t-5.5 7q-14 0 -25 -4t-19.5 -9.5t-13 -10.5t-5.5 -8q0 -2 2 -2l-11 -30l-4 -17q-3 -3 -7 -6t-8 -7q-4 -5 -19 -19t-32.5 -30.5t-33 -30.5t-19.5 -18
q-9 -9 -21.5 -18t-24.5 -19t-21.5 -21t-12.5 -24q-1 -2 -1 -4v-2l38 -57q1 -2 7.5 -8.5t17 -16t23.5 -21t27 -23.5l-17 -63q-10 11 -21.5 26t-23.5 28t-24.5 22t-24.5 9q-2 0 -4 -0.5t-3 -0.5q-62 -48 -114 -107t-102 -116l-1 -7q15 -26 38.5 -53t49.5 -53t53 -50t49 -44
q10 -10 29 -13q-3 -8 -5.5 -14.5t-3.5 -9.5zM269 156l-39 30l-33 32l1 2q4 15 16.5 33t29 35.5t34 33.5t31.5 28q4 3 6 5l3 3q2 -2 8 -7t13 -11t13 -11.5t8 -7.5q3 -4 9.5 -9.5t13 -12t11.5 -13t5 -12.5q-2 -1 -6 -5t-8.5 -9.5t-9 -10l-5.5 -5.5q-3 -4 -7.5 -7.5t-6.5 -3.5
h-1q-6 0 -12.5 7.5t-13.5 16t-15.5 16t-17.5 7.5q-19 0 -31.5 -16t-17.5 -33q-3 -11 8.5 -25.5t29 -28.5t35.5 -23.5t29 -9.5q6 0 21 9l-19 -71q-12 6 -24 16t-23 21t-20 21t-15 16zM508 367q5 -3 15 -12t20.5 -18.5t20.5 -18.5t15 -12q4 -4 3 -8l-1 -3q-1 -4 -7.5 -12.5
t-15 -17.5t-17 -16.5t-12.5 -10.5q-5 -5 -15.5 -16t-23 -24.5t-25 -27.5t-21.5 -24l27 102q10 13 16.5 22.5t8.5 16.5l1 3q-4 5 -5.5 8.5t-4.5 6.5l17 66zM428 570l8 10q6 8 25.5 28t41.5 40l-36 -133q-19 19 -30 33t-9 22z" />
    <glyph glyph-name="FL0025h" unicode="%" horiz-adv-x="753" 
d="M536 213q6 10 18 20t26.5 19t28.5 16.5t23 12.5q6 -6 13 -17t12.5 -24t8.5 -25t1 -20v-2l-74 -58q-2 -1 -8.5 -4.5t-9.5 -5.5q-6 6 -12 17t-11 24t-9 25.5t-7 21.5zM513 68q5 -16 11 -22t22 -6q1 0 5.5 0.5t6.5 1.5q24 16 44 29.5t38.5 26.5t37.5 27t41 32q3 3 9 8
t11.5 9.5t9.5 8.5l4 4l3 11l-71 145q-6 11 -8.5 14t-15.5 3q-3 0 -7.5 -0.5t-5.5 -1.5t-9 -5.5t-18.5 -11t-15.5 -9.5q-4 -3 -20.5 -14t-37 -24.5t-40 -26t-28.5 -18.5q-14 -9 -17 -23q-6 -19 2 -33zM270 531q6 9 18 19.5t26 19.5t28.5 16.5t23.5 11.5q6 -5 13 -16t12.5 -24
t8.5 -25.5t1 -19.5v-3l-74 -57q-2 -1 -8 -4.5t-9 -5.5q-6 6 -12.5 17t-11.5 24t-9 25.5t-7 21.5zM247 386q4 -17 10.5 -22.5t22.5 -5.5q1 0 5.5 0.5t6.5 1.5q24 16 44 29t38.5 26t37.5 27t41 32q3 3 9 8t11.5 10t9.5 9l4 4l3 11l-71 145q-6 11 -8 14t-15 3q-3 0 -8 -0.5
t-6 -1.5t-9 -5.5t-18.5 -11t-15.5 -9.5q-4 -3 -20.5 -14t-37 -24.5t-40 -26t-28.5 -18.5q-14 -9 -17 -23q-4 -16 2 -34zM206 -3l586 712q1 4 -4 14.5t-25 10.5q-5 0 -7 -1q-5 -2 -13 -7.5t-16.5 -12.5t-15.5 -13.5t-10 -10.5l-1 -1v-2q-1 -4 -8 -14t-27 -35.5t-57.5 -71.5
t-99.5 -121.5t-153 -185t-218 -261.5h69z" />
    <glyph glyph-name="FL0026h" unicode="&#x26;" horiz-adv-x="621" 
d="M150 70h254l11 6l9 32q7 25 -4 43.5t-26 34.5t-26.5 32.5t-5.5 37.5q3 10 26 32t51.5 44.5t54 40t32.5 17.5l7 -1q2 -4 8.5 -13t14 -19t14.5 -18.5t9 -11.5l25 -26q3 -3 6.5 -8t7.5 -10t6 -9l2 -4l-4 -15q-17 -12 -33 -27.5t-31.5 -30.5t-30 -29t-28.5 -23
q-1 -3 -2.5 -9.5t-3.5 -14.5q-2 -7 -4 -13.5t-2 -8.5q-7 -21 -13.5 -44.5t-20.5 -43.5q-2 -4 -4.5 -7.5t-3.5 -3.5h-378q-3 0 -4 7t-1 15t0.5 15.5t0.5 9.5q28 85 51 166.5t46 166.5t45.5 167t47.5 167q7 1 8 5q2 3 6.5 13t5.5 13h342q4 0 5 -6.5t1 -14.5q0 -7 -1.5 -14.5
t-1.5 -8.5l-47 -174q66 0 104.5 -1t40.5 -1l4 -7l-14 -51l4 -5h-193q-2 0 -20 -8t-43.5 -20.5t-56 -27.5t-57 -29t-46 -25.5t-23.5 -16.5l-47 -3zM260 409l225 118l40 129l-1 3q2 8 -4.5 12.5t-16.5 7t-20.5 3t-16.5 0.5h-4l-2.5 -2t-3.5 -4q-8 0 -25.5 0.5t-37.5 0.5h-20
l-26 -5q-2 0 -6.5 -0.5t-9.5 -0.5t-9.5 0.5t-6.5 0.5l-7 -11l-8 -29l-59 -223h19zM440 262l36 -50h5l6 6l28 26l6 4q6 5 8 10v1l-29 42h-10z" />
    <glyph glyph-name="FL0027h" unicode="'" horiz-adv-x="412" 
d="M290 409q-14 -17 -29 -17q-7 0 -7 2l-22 31l-1 2q1 2 1.5 2.5l0.5 0.5l7 11l111 124q1 1 1.5 2l0.5 1q2 8 -11 26.5t-31 39t-35.5 38l-23.5 23.5q-3 4 -2.5 9.5t1 10.5t0 9.5t-4.5 6.5q8 11 23 15t24 6h92q9 -1 30.5 -3.5t44.5 -4.5t44 -4.5t29 -3.5q21 -19 13 -48l-1 -4
q-1 -1 -4 -5t-5 -5q-62 -69 -122.5 -134t-123.5 -131zM463 679q-4 0 -16.5 1t-27.5 2t-27.5 2t-16.5 1h-10l46 -73h11zM550 742q3 0 2 -6q-2 -5 -5 -5q-6 0 -4 5q1 6 7 6z" />
    <glyph glyph-name="FL0028h" unicode="(" horiz-adv-x="464" 
d="M605 711q-2 -8 -10.5 -17.5t-19 -19.5t-21 -19.5t-16.5 -16.5l-320 -317q-2 -2 -4 -5t-3 -5l-1 -5q1 -6 6.5 -22.5l11.5 -34.5t11 -34.5t6 -22.5q9 -26 15 -54t14 -54q1 -3 4.5 -9t7 -13.5t6 -14.5t1.5 -13l-3 -8q-11 -8 -24 -17.5t-27 -9.5t-23 15.5t-15 36.5t-9.5 42
t-5.5 32q-2 7 -7 25t-11 37.5t-12 37t-10 23.5q-12 19 -12 43t6.5 46.5t19 40t26.5 22.5h3q2 0 7.5 7t7.5 9q11 10 35 32t49 45t46.5 42.5t27.5 25.5q9 8 27 25.5t40 38.5t45.5 44t45 41.5t38.5 30.5t24 12q5 -3 9.5 -9.5t7.5 -13t4.5 -12.5t1.5 -7z" />
    <glyph glyph-name="FL0029h" unicode=")" horiz-adv-x="465" 
d="M241 711q-2 -8 1 -17.5t8 -19.5t10.5 -19.5t7.5 -16.5l150 -317q0 -2 1.5 -5t0.5 -5l-1 -5q-5 -6 -19 -22.5t-30 -34.5t-30 -34.5t-19 -22.5q-23 -26 -43.5 -54t-41.5 -54q-3 -3 -10 -9t-14.5 -13.5t-14 -15t-7.5 -12.5l-1 -8q7 -8 15 -17.5t22 -9.5q13 0 30.5 15.5
t34.5 36.5t31 42t22 32q6 7 21 25t31.5 37.5t31.5 37t22 23.5q24 19 37 43t17.5 46.5t1 39.5t-13.5 23h-2q-2 0 -3.5 7t-3.5 9q-5 10 -17.5 31.5t-25.5 45t-24 43t-13 25.5q-8 12 -22.5 43.5t-32 64.5t-34 58.5t-27.5 25.5q-7 -3 -15 -9t-15 -13t-11.5 -12.5t-4.5 -7.5z" />
    <glyph glyph-name="FL002Ah" unicode="*" horiz-adv-x="465" 
d="M207 586l28 103l25 73q4 12 13 19.5t23 7.5q7 0 11 -5.5t5 -14t0 -17.5t-3 -15q-1 -5 -6 -35.5t-20 -84.5q-3 -12 -7 -30.5t-8 -36t-6.5 -30l-2.5 -12.5l10 -5l16 -1t39 -1.5t49.5 -1t47.5 -0.5h49q9 13 15.5 29.5t11.5 34.5l3 13l16 59q4 14 8 31t6 23h-123l-21 -77
l15 -2.5t26 -2.5h4q13 -1 22 -2t13.5 -5.5t4 -13.5t-4.5 -26l-2 -9q-1 -5 -8 -7q-15 -2 -27.5 -3.5t-22.5 -1.5h-48l-11 1h-43q-9 3 -6 16l9 35q3 11 9 30.5t12 38.5t11 33.5t6 17.5q6 18 12.5 26.5t16 12.5t22 5t29.5 3q3 0 20 0.5t38 1.5t41.5 1.5t31.5 0.5h14
q29 0 34 -19t-2 -44l-28 -106q-12 -45 -28.5 -85t-48.5 -78q-2 -1 -4 -2.5l-2 -1.5h-321q2 15 4.5 31.5t7.5 35.5l4 14z" />
    <glyph glyph-name="FL002Bh" unicode="+" horiz-adv-x="426" 
d="M328 554q10 4 14.5 5t12.5 1h16q8 0 17 -2.5t7 -7.5l-31 -118h87q4 3 14 3q7 0 14 -1.5t11 -6.5l-6 -6l-14 -51l-6 -6q-1 0 -6 -0.5t-17.5 -1.5t-35.5 -1.5t-61 -0.5l-23 -86q0 -8 -1 -12q-2 -8 -5.5 -16t-10.5 -13l-3 5h-51l-6 6q0 1 1 5t3.5 16t8 34.5t15.5 60.5h-55
q-17 0 -33 1t-31 3q-2 8 -1 13t3 13l4 15q2 8 6.5 17.5t10.5 9.5h116l15 57q9 36 21 65z" />
    <glyph glyph-name="comma" unicode="," horiz-adv-x="411" 
d="M174 -18q-14 -17 -28 -17q-5 0 -7 2l-23 30v3q1 2 1.5 2.5l0.5 0.5l7 10l111 125q0 1 1 1.5l1 0.5q2 8 -11 26.5t-30.5 39t-35 38t-24.5 23.5q-3 4 -3.5 9t0.5 10.5t0.5 9.5t-3.5 7q8 12 22.5 15.5t24.5 6.5h93q9 -1 30 -3.5t44.5 -4.5t44 -4.5t28.5 -3.5q20 -22 13 -49
l-1 -4q-1 0 -4 -4.5t-5 -4.5q-63 -69 -123.5 -134t-123.5 -131zM347 251q-4 1 -16.5 2t-27 2t-27.5 1.5t-17 0.5h-10l47 -73h11zM434 314q5 0 3 -5q-2 -6 -6 -6t-2 6q2 5 5 5z" />
    <glyph glyph-name="FL002Dh" unicode="-" horiz-adv-x="426" 
d="M153 364q-2 8 -1 13t3 13l4 15q2 8 6.5 17.5t10.5 9.5h275q4 3 14 3q7 0 14 -1.5t11 -6.5l-6 -6l-14 -51l-6 -6q-1 0 -6 -0.5t-19.5 -1.5t-41.5 -1.5t-72 -0.5h-108q-17 0 -33 1t-31 3z" />
    <glyph glyph-name="period" unicode="." horiz-adv-x="402" 
d="M151 26q4 -17 10 -22.5t22 -5.5q1 0 6 0.5t7 1.5q24 16 44 29t39 26t37.5 27t40.5 32q3 3 9 8t11.5 10t9.5 9l4 4l3 11l-71 145q-6 11 -8.5 14t-15.5 3q-3 0 -7.5 -0.5t-5.5 -1.5t-9 -5.5t-19 -11t-15 -9.5t-20.5 -14t-37 -24.5t-40 -26t-29.5 -18.5q-12 -9 -17 -23
q-4 -16 2 -34zM174 171q6 9 18.5 19.5t27 19.5t28.5 16.5t22 11.5q6 -5 12.5 -16t12.5 -24t9 -25.5t1 -19.5l-1 -3l-73 -57q-2 -1 -8.5 -4.5t-9.5 -5.5q-7 6 -13 17t-11 24t-9 25.5t-6 21.5z" />
    <glyph glyph-name="FL002Fh" unicode="/" horiz-adv-x="564" 
d="M119 0l586 712q1 4 -4.5 14.5t-25.5 10.5q-5 0 -6 -1q-5 -2 -13 -7.5t-16.5 -12.5t-16 -13.5t-10.5 -10.5v-1v-2q-1 -4 -8 -14t-27 -35.5t-57.5 -71.5t-99.5 -121.5t-153 -185t-218 -261.5h69z" />
    <glyph glyph-name="FL0030h" unicode="0" horiz-adv-x="686" 
d="M395 -4l-86 5q-8 20 -19.5 51.5t-25.5 69.5t-29 79t-29 79t-26.5 71.5t-20.5 55.5l9 5l307 339h100l175 -324l-1 -7q-46 -53 -99 -113t-102.5 -118t-90 -108.5t-62.5 -84.5zM283 330q13 -30 27 -64.5t27 -65.5t25 -55t23 -33l6 6l207 254l40 47l2 5l-0.5 4t-2.5 5
q-16 31 -30.5 57.5t-29.5 52t-30.5 52t-31.5 58.5q-2 3 -6 9.5t-5 6.5l-0.5 0.5t-1.5 0.5l-3 -1q-2 0 -6.5 -4t-6.5 -7q-49 -51 -95 -95.5t-97 -98.5l-47 -53z" />
    <glyph glyph-name="FL0031h" unicode="1" horiz-adv-x="464" 
d="M78 4q-9 8 -14 18.5t-2 23.5q7 23 26 29t42 6l46 -2q10 0 20 -1t13 1q18 60 29.5 99.5t20.5 72t18 65.5t22 81l32 118q10 35 21.5 79t26.5 98q-17 0 -29 -2t-27 -2q-13 0 -23 2t-19 10q-8 5 -10 4.5t-1 2.5l3 8q1 4 5 11t9 14t11.5 12t12.5 5l160 -2l-21 -79
q-3 -13 -7.5 -24.5t-10.5 -24.5q0 -5 -1 -9l-3 -9l-5 -19l-10 -37l-127 -473h122q18 0 20 -10.5t-2 -24.5l-3 -9l-39 -32q-1 0 -14.5 -0.5t-31.5 -1.5t-37.5 -1.5t-32.5 -0.5h-11q-7 0 -17.5 -0.5t-23.5 -0.5h-42q-26 0 -48 1t-48 4z" />
    <glyph glyph-name="FL0032h" unicode="2" horiz-adv-x="655" 
d="M663 215l1 7q-9 28 -18.5 57.5t-20.5 59t-24.5 56.5t-32.5 50q-1 0 -1.5 0.5t-2.5 0.5q-13 0 -35 -12.5t-46 -29t-46 -33t-34 -24.5q-15 -10 -26.5 -15.5t-21 -11t-19 -12t-21.5 -18.5l-1 -3q-3 -13 3.5 -37t18 -47.5t25 -41t24.5 -17.5q10 0 33 9.5t47.5 23.5t44.5 28.5
t23 25.5q5 17 0 33t-23 16q-9 0 -22 -8t-26.5 -17.5t-24 -16.5t-14.5 -5q-2 0 -4 3.5t-4 7.5q-2 2 -6.5 14t-6.5 16q4 6 13 12.5t19 13t19.5 12t14.5 9.5q4 2 13 7t18.5 11t18 11t11.5 8q7 -11 16.5 -27.5t18 -35.5t12.5 -39t0 -36l-1 -2l-50 -32l-55 -30q-11 -7 -30.5 -20
t-41 -26.5t-41 -23.5t-30.5 -10q-2 0 -2.5 0.5l-0.5 0.5q-4 4 -8.5 12.5t-9 17.5t-8 16.5t-5.5 10.5l-7 21t-11.5 31.5t-12.5 31t-8 20.5q-3 3 -7 10.5t-8 16.5t-6 17.5t-1 12.5l2 6q0 3 6 5q6 3 22.5 12t35.5 19t35.5 19t22.5 12q14 8 34.5 20.5t43 26t45.5 28t41.5 26
t31 19.5t14.5 10l40 31l1 2t1 4q4 13 0.5 24.5t-10 21t-14 18.5t-12.5 18q-2 4 -9.5 18t-16 30.5t-16 31t-9.5 18.5q-9 16 -17.5 22t-26.5 10q-4 -3 -15.5 -8t-24.5 -10.5t-25 -10.5t-17 -8q-17 -8 -39 -17.5t-44 -21.5t-41.5 -27t-30.5 -33q1 -3 4.5 -9t8 -12t11 -10.5
t13.5 -4.5q4 0 18 7t32.5 17.5t39 22.5t38.5 22.5t31.5 17.5t17.5 7q5 0 14.5 -14.5t19.5 -33t18 -36.5t10 -25q0 -2 1.5 -6t1.5 -5q-2 -9 -28.5 -27t-66 -41t-85.5 -48.5t-88.5 -49t-74.5 -43t-43 -29.5l8 -31l38 -104q8 -20 19 -50t26 -58.5t34.5 -48.5t45.5 -20
q14 0 30 4t31 12q33 19 72.5 43t80 50t78.5 53.5t67 53.5z" />
    <glyph glyph-name="FL0033h" unicode="3" horiz-adv-x="498" 
d="M457 34l188 700l-26 26h-358l-8 -6q-2 0 -3 -9l-3 -11q-4 -14 -6 -23.5t0 -15.5t8.5 -9t20.5 -5q26 -2 43.5 -3.5t36.5 -1.5h25h122q12 3 19.5 -2t16.5 -5h2q3 0 5.5 -0.5t3.5 -5.5q-2 -5 -5 -14.5t-6 -21.5q-3 -11 -5 -21t-4 -15l-27 -106q0 -2 -2 -6.5t-4.5 -10.5
t-4.5 -11.5t-3 -7.5t-3.5 -3t-3.5 -2q-22 -4 -43 -5t-41 -1h-83q-20 0 -39 -1t-40 -4q-15 -17 -21 -36l-2 -9q-1 -4 3 -6q18 -15 33 -26.5t27.5 -23t22.5 -25.5t18 -34q2 -2 7 -3.5t7 -1.5q21 0 36 14.5t29 32.5t30 32.5t38 14.5q5 0 3 -19t-8 -47.5t-15 -62.5t-17 -64
q-8 -32 -15.5 -57t-11.5 -39h-247q-8 0 -3 17q4 13 9 29.5t10 34.5q8 26 4 47t-34 21q-14 0 -21.5 -14.5t-11.5 -28.5q-2 -6 -2.5 -10.5t-1.5 -8.5l-35 -156h311l71 -4q1 1 3.5 5.5t4.5 10t3.5 10t1.5 5.5zM387 378q-2 -2 -8.5 -7t-13.5 -10t-13.5 -9.5t-9.5 -5.5h-3
q-5 0 -11.5 3.5t-12.5 9t-10 12.5t-2 13q1 3 7 5t14 3.5t16.5 2.5t14.5 3q14 0 18.5 -3.5t13.5 -16.5z" />
    <glyph glyph-name="FL0034h" unicode="4" horiz-adv-x="574" 
d="M534 315l3 10q1 3 2 10t2.5 14.5t3 13.5t2.5 9h-357l-23 6q1 1 5 -4.5t5 -3.5l-12 23q-3 8 0 24.5t7.5 35.5t9.5 36t7 25l53 198q1 4 11.5 14.5t30.5 10.5q6 0 7 -1q7 -5 10.5 -16.5t6.5 -19.5q-2 -8 -6.5 -22.5t-10.5 -34.5l-21 -80q-5 -18 -8.5 -33t-5.5 -22
q-2 -6 -4 -16.5t-4.5 -20.5t-3.5 -17.5t-1 -8.5l4 -4q1 0 8.5 -0.5t12.5 -0.5h257l41 6l7 10l5 14.5t11 34t12 40.5t10 33l30 111q0 1 2.5 6.5t5.5 12.5t6.5 13.5t6.5 9.5q3 5 7 5h41q6 0 4 -8q-1 -3 -2 -4.5t-1 -2.5l-6 -47l-39 -143l-15 -56l-15 -58l-19 -70
q-16 -58 -40 -141t-61 -206h-69z" />
    <glyph glyph-name="FL0035h" unicode="5" horiz-adv-x="655" 
d="M747 530l-2 -7q-49 -56 -101 -117t-115 -106q-1 0 -2 -0.5t-3 -0.5q-13 0 -28 12.5t-30 29t-28 33t-21 24.5q-10 10 -18 15.5t-15 11t-13 12t-12 18.5l1 3q2 8 12 22t24 30t30 32t32 29t29 21.5t20 8.5q10 0 28 -9.5t35.5 -23.5t29.5 -29t9 -25q-5 -17 -18 -33t-31 -16
q-10 0 -19 8t-16.5 17.5t-14 16.5t-12.5 5q-2 0 -6 -3.5t-8 -7.5q-2 -1 -6 -5.5t-8.5 -9.5t-9 -9.5l-5.5 -5.5q0 -6 5.5 -12.5t12.5 -13t13.5 -12t9.5 -9.5q3 -2 9.5 -7t12.5 -11t11.5 -11t7.5 -8q13 12 31.5 28.5t37 35.5t33 38t19.5 36v2l-33 32l-39 30q-7 7 -19.5 20
t-26.5 26.5t-28.5 23.5t-25.5 10q-2 0 -3 -0.5l-1 -0.5q-6 -5 -15 -13.5l-18 -17t-16.5 -16t-11.5 -10.5q-5 -6 -18.5 -21t-28.5 -31.5t-29 -31t-19 -20.5q-5 -3 -13 -10.5t-16.5 -16.5t-15 -17.5t-7.5 -12.5l-2 -7q-2 -2 4 -4l16 -12t25 -19t24.5 -19t16.5 -12
q15 -12 38 -33t45.5 -41.5t39 -36.5t18.5 -19l23 -31v-2t-1 -4q-3 -13 -12.5 -24t-21 -21t-24 -19t-22.5 -18q-4 -4 -19 -18t-32.5 -30.5t-33 -31t-19.5 -18.5q-17 -16 -29 -22t-32 -10q-2 3 -10.5 8t-19 10.5t-20 10.5t-12.5 8q-12 8 -29.5 17.5t-33 21.5t-27 27t-12.5 33
q3 3 9.5 9t14.5 12t17 10.5t16 4.5q6 0 24.5 -14.5t39 -32.5t38.5 -32.5t24 -14.5q5 0 22.5 14.5t37 33t37.5 36.5t24 25q1 2 4.5 6t4.5 5q2 8 -14.5 26.5t-43.5 41.5t-60 48.5t-62.5 49.5t-51.5 43t-27 29l25 31l93 104q19 20 46 50t57 58.5t60.5 48.5t56.5 20
q14 0 28 -3.5t25 -12.5q21 -20 47.5 -44t53.5 -50t50.5 -53t38.5 -53z" />
    <glyph glyph-name="FL0036h" unicode="6" horiz-adv-x="734" 
d="M748 238l2 10q-2 3 -7 12.5t-10.5 20.5t-10 20.5t-5.5 14.5q-6 9 -15.5 28t-21 41.5t-24.5 46t-25.5 43t-24.5 32t-21 12.5q-2 0 -22.5 -12t-50 -31t-63 -42t-63 -44.5t-50 -39t-22.5 -25.5q-3 -11 9 -39t30.5 -57t38.5 -51.5t32 -22.5q11 0 28 8.5t36 21.5t39 28.5
t36 31t27 28.5t13 20q4 18 -10 32.5t-30 16.5l-113 10l1 3l1 3l27 20l84 58h1q11 0 16 -11l11 -32q2 -4 14.5 -23.5t26.5 -43t24.5 -44t9.5 -26.5l-2 -1q-23 -21 -47.5 -37t-48.5 -32l-164 -109q-2 -1 -6 -2.5t-5 -1.5l-1.5 -0.5t-2.5 -0.5t-1.5 0.5l-0.5 0.5l-9 10
q-1 3 -6 13.5t-11 23t-11.5 23t-7.5 13.5l-114 155q-2 1 -2.5 4.5t0.5 5.5q41 41 86 79t91 74.5t92.5 73t90.5 74.5q9 8 23 18t28 21t25 23t14 24q3 13 2 24.5t-11 18.5q-22 4 -36 5t-29 1h-58q-18 0 -46 -1t-54 -2t-44 -2l-18 -1l-40 -30l-1 -5q-3 -9 13 -26.5t35 -37.5
t34 -42t10 -40q-1 -1 -2 -3l-1 -2l-283 -228q-7 -5 -9 -11t-4 -11v-3q-5 -18 6.5 -28t23.5 -20q2 -3 7 -9t10.5 -12.5t10.5 -12t7 -8.5l69 -92q1 -4 9.5 -19t18 -33t17.5 -33t10 -19q5 -10 12.5 -18.5t20.5 -8.5q34 0 72.5 20.5t77 48t73 55.5t60.5 43q11 7 28 13t33.5 13.5
t29.5 18t18 27.5zM507 270q-4 -4 -11.5 -10.5t-15.5 -12.5t-16 -10.5t-13 -4.5t-11 6.5t-11.5 15.5t-9 18.5t-1.5 14.5l1 3q7 -8 17.5 -9t23.5 -1h4q13 0 24.5 -1t18.5 -9zM559 674l-63 -49l-36 49l17 5h78z" />
    <glyph glyph-name="FL0037h" unicode="7" horiz-adv-x="626" 
d="M765 707q-3 -11 -11.5 -24t-19 -26t-21.5 -25t-18 -20q-42 -50 -95 -113.5t-109.5 -130t-111.5 -130.5t-101.5 -114.5t-80 -81.5t-45.5 -32l-62 -5q-4 5 -3.5 12t2.5 14l10 37q8 8 29.5 27.5t45.5 41.5t45.5 42t30.5 29q28 29 50.5 57t50.5 57l33 31q48 46 93.5 98.5
t90.5 103.5q20 20 37 42t37 57l-104 3l-19 -5q-21 -10 -47 -30.5t-55 -45t-58.5 -50.5t-57 -47.5t-51 -35t-39.5 -13.5q-18 0 -12 22l26 145l8 30l2 62l1 6q5 15 18.5 31t26.5 16h470q8 0 12.5 -12t1.5 -23zM420 653q-11 6 -23 7.5t-25 1.5h-43l-11 -1q-11 0 -18 3
q-8 -3 -10 -7.5t-4 -10.5l-3 -13q-2 -5 -4.5 -17.5t-5.5 -27t-5.5 -27l-3.5 -17.5l-1 -1q-1 -10 5 -10q2 0 3 1t2 1q7 5 23.5 19t35.5 29.5t35.5 29.5t23.5 20q4 3 15 10.5t14 9.5zM76 12q-4 0 -3 4q1 6 6 6q2 0 1 -6q-1 -4 -4 -4z" />
    <glyph glyph-name="FL0038h" unicode="8" horiz-adv-x="495" 
d="M453 28l176 659q3 29 -12 49.5t-37 28.5q-24 3 -48 4t-48 1t-48.5 -1t-51.5 -5q-19 -3 -31 -12.5t-20 -23t-12.5 -28.5t-8.5 -29l-1 -4q-11 -38 -8.5 -66t28.5 -57q-10 -4 -23.5 -6.5t-24.5 -2.5h-37q-22 0 -39 -7.5t-25 -33.5l-119 -446q4 -6 1 -21.5t-2 -21.5
q26 -3 55 -4.5t58 -1.5h244q14 5 20 10.5t14 18.5zM197 63q-3 0 -10.5 1t-15.5 1.5t-16 1.5t-12 1h-2l106 395q9 2 13 6t12 4q6 0 18 2.5t21 2.5h90q5 0 18.5 -0.5t27.5 -1.5t25 -1.5t11 -1.5l3 -5q1 0 -1 -11t-5.5 -26t-7 -30.5t-6.5 -25.5l-69 -259q-10 -39 -24 -53h-176z
M512 567q0 -1 -2.5 -3l-2.5 -2l-10 5h-9q-26 0 -50 5.5t-41 16t-25.5 25.5t-3.5 34q0 2 3.5 8.5t8.5 17.5l17 30q-1 0 -3.5 -2l-2.5 -2h137l6 1.5l2 0.5q8 0 10.5 -4.5t-1.5 -17.5l-11 -43q-1 -4 -4 -12.5t-6 -18.5t-6.5 -19.5t-4.5 -15.5z" />
    <glyph glyph-name="FL0039h" unicode="9" horiz-adv-x="646" 
d="M597 4q-9 -2 -14 -3t-11 -1h-127h-75q-28 0 -54 0.5t-47.5 1t-36.5 1t-19 1.5l22 67h186l132 494l6 22q5 19 10 39t4 26q-1 7 -8.5 9t-16.5 2h-232q-5 0 -10.5 -1t-5.5 -3l-98 -364h156l15 11l12 46q25 88 41 177q3 11 -6 13.5t-17 2.5h-12q-2 0 -7 -0.5l-5 -0.5l-8 -10
l-42 -156q-2 -5 -6 -5h-10h-18q-10 0 -18.5 1.5t-8.5 9.5l28 124l19 52q1 1 4 10q2 10 6 21.5t13 14.5l15 6h33q11 0 25.5 1t29.5 1q16 0 31 -2t25.5 -7t15.5 -15t1 -25l-69 -259q0 -2 -3 -8t-6 -13.5t-6 -14.5t-4 -11q-3 -8 -14 -19t-20 -11h-238q-27 0 -30.5 17t3.5 40
l90 336q6 21 11.5 41.5t13 37t16 27.5t20.5 14h462q10 1 19 -0.5t15 -7t7 -15t-4 -23.5l-4 -15l-5 -18q-15 -2 -29 -3.5t-29 -1.5l-22 1q-10 0 -19 -6t-20 -28l-147 -552q20 -2 33.5 -3.5t25.5 -1.5q17 0 27 -1.5t14 -7.5t3 -18t-7 -33z" />
    <glyph glyph-name="FL003Ah" unicode=":" horiz-adv-x="410" 
d="M151 26l-50 124q-6 18 -2 34q5 14 17 23q10 6 29.5 18.5t40 26t37 24.5t20.5 14q5 3 15.5 9.5t17.5 10.5q10 6 12.5 7t10.5 1q13 0 15.5 -3t8.5 -14l71 -145l-3 -11l-4 -4t-9.5 -9t-11.5 -10t-9 -8q-22 -18 -41 -32t-37.5 -27t-38.5 -26t-44 -29q-2 -1 -7 -1.5t-6 -0.5
q-16 0 -22 5.5t-10 22.5zM174 171q2 -9 6 -21.5t9.5 -25.5t11.5 -24t12 -17q3 2 9.5 5.5t8.5 4.5l73 57l1 3q2 7 -1 19.5t-9 25.5t-12.5 24t-12.5 16q-9 -4 -23.5 -11.5t-28.5 -16.5t-26 -19.5t-18 -19.5zM266 426l-50 124q-6 13 -1 33q5 15 17 24q9 6 28.5 18.5t39.5 25.5
t37 24t21 14q5 4 15.5 10.5t17.5 10.5q10 5 12.5 6t10.5 1q13 0 15.5 -3t8.5 -14l71 -145l-3 -11q-1 -1 -7 -6t-14.5 -12.5t-12.5 -11.5q-22 -18 -40.5 -32t-37.5 -27t-39 -26t-44 -29q-2 -1 -6.5 -1.5t-5.5 -0.5q-16 0 -22.5 5.5t-10.5 22.5zM289 571q3 -9 7 -22t9 -25.5
t10.5 -24t12.5 -17.5q3 2 9.5 5.5t8.5 4.5l73 58l1 3q2 7 -1 19.5t-8.5 25.5t-12.5 24t-13 16q-9 -5 -23.5 -12.5t-28.5 -16.5t-26 -19t-18 -19z" />
    <glyph glyph-name="FL003Bh" unicode=";" horiz-adv-x="412" 
d="M268 426l-50 124q-6 13 -1 33q5 15 17 24q9 6 28.5 18.5t39.5 25.5t37 24t21 14q5 4 15.5 10.5t17.5 10.5q10 5 12.5 6t10.5 1q13 0 15.5 -3t8.5 -14l71 -145l-3 -11q-1 -1 -7 -6t-14.5 -12.5t-12.5 -11.5q-22 -18 -40.5 -32t-37.5 -27t-39 -26t-44 -29q-2 -1 -6.5 -1.5
t-5.5 -0.5q-16 0 -22.5 5.5t-10.5 22.5zM291 571q3 -9 7 -22t9 -25.5t10.5 -24t12.5 -17.5q3 2 9.5 5.5t8.5 4.5l73 58l1 3q2 7 -1 19.5t-8.5 25.5t-12.5 24t-13 16q-9 -5 -23.5 -12.5t-28.5 -16.5t-26 -19t-18 -19zM174 -18q-14 -17 -28 -17q-5 0 -7 2l-23 30v3
q1 2 1.5 2.5l0.5 0.5l7 10l111 125q0 1 1 1.5l1 0.5q2 8 -11 26.5t-30.5 39t-35 38t-24.5 23.5q-3 4 -3.5 9t0.5 10.5t0.5 9.5t-3.5 7q8 12 22.5 15.5t24.5 6.5h93q9 -1 30 -3.5t44.5 -4.5t44 -4.5t28.5 -3.5q20 -22 13 -49l-1 -4q-1 0 -4 -4.5t-5 -4.5q-63 -69 -123.5 -134
t-123.5 -131zM347 251q-4 1 -16.5 2t-27 2t-27.5 1.5t-17 0.5h-10l47 -73h11zM434 314q5 0 3 -5q-2 -6 -6 -6t-2 6q2 5 5 5z" />
    <glyph glyph-name="FL003Ch" unicode="&#x3c;" horiz-adv-x="465" 
d="M426 41q2 8 -1.5 17.5t-8.5 19.5t-10.5 19t-6.5 17l-151 317q0 2 -1 5t0 5l2 5q4 6 18 22.5t30 35t29.5 35t18.5 22.5q23 26 44 54t42 54q3 3 10 9t14.5 13t13.5 14t8 13l2 8q-8 8 -15.5 17.5t-21.5 9.5t-31.5 -16t-34.5 -37t-32 -42t-22 -31q-6 -7 -21 -25t-31.5 -37.5
t-31.5 -37t-22 -23.5q-23 -19 -36 -43t-18 -46.5t-1.5 -39.5t14.5 -22q1 0 1.5 -0.5l0.5 -0.5q2 0 3.5 -6.5t3.5 -8.5q5 -10 17 -32t25 -45.5t24 -43t14 -24.5q5 -8 13.5 -25.5t19 -39t22 -44t23 -41.5t21.5 -31t18 -12q7 3 14.5 9.5t14.5 13.5t11.5 12.5t4.5 6.5z" />
    <glyph glyph-name="FL003Dh" unicode="=" horiz-adv-x="427" 
d="M161 391q-2 13 1 25l4 15q2 8 7 17.5t11 9.5h275q4 3 14 3q8 0 14.5 -1.5t10.5 -6.5l-6 -6l-14 -51l-6 -6q-1 0 -6 -0.5t-19.5 -1.5t-41.5 -1.5t-72 -0.5h-108q-17 0 -33 1t-31 4zM121 247q-2 14 2 25l4 15q2 8 7 17.5t10 9.5h275q6 3 14 3t15.5 -1.5t11.5 -6.5l-8 -6
l-13 -51l-7 -6q-1 0 -6 -0.5t-19.5 -1.5t-41 -1.5t-71.5 -0.5h-108q-17 0 -33.5 1t-31.5 4z" />
    <glyph glyph-name="FL003Eh" unicode="&#x3e;" horiz-adv-x="465" 
d="M61 41q2 8 10.5 17.5t19 19.5t21 19.5t16.5 16.5l319 317q2 2 4.5 5t3.5 5l2 5q-2 6 -7 22.5t-11.5 35t-12 35t-6.5 22.5q-8 26 -14 54t-14 54q-1 3 -4.5 8.5t-7.5 13t-6.5 14.5t-0.5 13l4 8q11 8 24 17.5t27 9.5q13 0 22 -16t14.5 -37t9 -42t5.5 -31q2 -7 7 -25
t11 -37.5t12 -37t10 -23.5q13 -19 13.5 -43t-7 -46.5t-20 -39.5t-25.5 -22q-1 0 -2 -0.5l-1 -0.5q-2 0 -7 -6.5t-8 -8.5q-7 -7 -20.5 -19t-30 -27t-34 -31t-32.5 -30t-26.5 -24.5t-14.5 -13.5q-9 -8 -27 -25.5t-40 -39t-45.5 -44.5t-45 -41.5t-38 -30.5t-23.5 -12
q-11 7 -18 22.5t-6 19.5z" />
    <glyph glyph-name="FL003Fh" unicode="?" horiz-adv-x="647" 
d="M202 568l2 6q28 23 65 46.5t76 46.5t77 44t70 39q15 8 30.5 11t29.5 3q25 0 44.5 -18t35 -43t27.5 -51.5t21 -43.5l41 -91l7 -27q-13 -11 -42.5 -29t-68.5 -39.5t-84 -44t-88 -43.5t-80.5 -37.5t-61.5 -25.5q-5 -2 -10.5 0.5t-10 6.5l-9 8t-7.5 6q-1 0 0 1q0 2 1.5 3.5
l1.5 1.5l38 27q3 3 28 16.5t57 31.5t65.5 36.5t53.5 29.5q7 3 22.5 11t33.5 16.5t33.5 16.5t22.5 11q6 1 6 4l2 5q1 4 -1.5 11.5t-6.5 15t-8 14.5t-7 9q-2 5 -8 18t-13 28t-13.5 28t-7.5 18q-2 2 -5.5 9t-8.5 15t-10 15.5t-9 10.5l-0.5 0.5t-2.5 0.5q-11 0 -30 -8.5t-39 -20
t-39 -23.5t-30 -18l-53 -27l-48 -28l-1 -2q-4 -15 0.5 -32t13 -33.5t18.5 -31t18 -24.5q3 2 11 6.5t17 9.5l18 10t14 7q4 3 13 8t18.5 10.5t18.5 11.5t12 11q-2 2 -7.5 13.5t-5.5 13.5l-4 6t-4 3q-6 1 -16.5 -5t-22 -14t-23.5 -15t-22 -7q-18 0 -23 14.5t-1 28.5q2 9 21 22
t42.5 25t46.5 20.5t33 8.5q11 0 25 -15t26 -36t19 -42t4 -33l-1 -2q-11 -11 -20.5 -16.5t-19 -10.5t-20.5 -10t-26 -14q-13 -7 -33.5 -21.5t-43 -29t-43.5 -25.5t-34 -11q-2 0 -3.5 0.5t-2.5 0.5q-19 19 -33.5 43t-26.5 50t-22 53t-19 51zM218 16l-41 82q-6 12 -3 22
q2 8 13 16q7 4 21.5 12.5t29.5 17t27.5 15.5t15.5 9q3 1 8.5 4t10.5 6t9.5 5.5t5.5 2.5l3.5 1t5.5 1q11 0 12.5 -2t6.5 -10l60 -95l-3 -9l-9.5 -7.5t-15.5 -10.5q-16 -12 -30 -21.5t-28 -18.5t-29 -17.5t-33 -19.5q-1 0 -5.5 -0.5t-5.5 -0.5q-13 0 -18 4t-8 14zM233 112
q5 -13 12.5 -31.5t19.5 -27.5q9 6 14 8l55 37l1 3q1 6 -1.5 13.5t-7.5 16t-11 15.5t-10 11q-6 -3 -17 -8t-22 -11.5t-20.5 -13t-12.5 -12.5z" />
    <glyph glyph-name="at" unicode="@" horiz-adv-x="523" 
d="M565 361l-5 -38l-68 -211q-7 -17 -17 -27.5t-26 -10.5q-9 0 -13.5 8t-5 19.5t1 24.5t4.5 22q2 7 10.5 49t29.5 120q4 16 10 42t11.5 51t9.5 43l4 18l-11 7l-21.5 1t-51.5 2t-62 2t-53 1h-41q-14 -20 -23.5 -48.5t-17.5 -57.5q-5 -20 -9 -37.5t-8 -31.5l-5 -18l-6 -22
q-3 -11 -5.5 -22t-4.5 -19l-3 -13h140l29 109q-1 0 -8.5 1.5t-19 3t-18.5 1.5h-5q-15 1 -25.5 3t-15 9t-3.5 20t7 36l3 12q1 7 10 9q16 5 29.5 6.5t27.5 2.5h55l62 -2q10 -5 5 -23l-13 -49q-5 -17 -12.5 -44t-15.5 -53.5t-14.5 -47.5t-7.5 -25q-9 -26 -17 -38t-19 -17.5
t-25 -6.5t-35 -4q-4 0 -23 -1t-43 -2t-47.5 -2t-36.5 -1h-17q-17 0 -25.5 7.5t-11.5 20t-1.5 28.5t6.5 33l39 146q17 63 38 121t62 112q3 2 5.5 5l2.5 3h369q-4 -27 -10.5 -56.5t-14.5 -59.5t-16 -59t-14 -52z" />
    <glyph glyph-name="FL0041h" unicode="A" horiz-adv-x="573" 
d="M412 671l-341 -619q-9 -13 -13 -26l-8 -26h53l7 4l46 73q14 23 25.5 48t30.5 46q2 -7 6 -24.5t8.5 -37.5t8.5 -37.5t6 -24.5q1 -6 1.5 -14.5t2.5 -16t6.5 -12.5t13.5 -5q14 0 22 8.5t21 18.5q2 4 10.5 15.5t19 25t20 25.5t13.5 17q4 4 9.5 11t12 13.5t13 11t12.5 4.5
q-2 -8 -6.5 -32.5t-6 -50.5t2 -46.5t17.5 -20.5q12 0 30 4t22 18v5q4 8 8 37.5t7.5 69.5t7 86t6.5 88t5 75t4 48q0 13 1.5 46t2.5 70.5t1.5 70.5t-0.5 46l3 11h158q14 0 19 5.5t8 16.5q4 8 7 20q3 11 3.5 20t-7.5 11q-32 2 -62 3.5t-60 1.5h-168q-36 0 -73 -1t-71 -4
q-13 -11 -17.5 -16.5t-6.5 -15.5q-1 -4 -2 -11t-1 -15q0 -7 1.5 -12.5t5.5 -5.5h155zM278 213l88 -6h10l-31 -41l-2 -2q-3 -4 -8.5 -10.5t-12 -13t-13 -11.5t-10.5 -5l-1 1q-2 5 -6.5 16.5t-8 24.5t-5.5 26t0 21zM283 303l1 3q32 60 62.5 116.5t62.5 116.5l32 62q2 2 4.5 6
l2.5 4l5 -4l-3 -162q5 -5 3 -11l-4 -15q-1 -3 -2.5 -20.5t-3.5 -38t-3.5 -38t-1.5 -21.5q-1 -1 -1 -5t-1 -6q-5 -18 -23 -22t-32 -4q-9 0 -26 3.5t-33.5 9t-28.5 12.5t-10 14z" />
    <glyph glyph-name="FL0042h" unicode="B" horiz-adv-x="541" 
d="M138 28q-1 -13 3 -18.5t15 -10.5h211q29 0 58.5 1t55.5 4q2 3 5 9t6 13t6 12.5t6 8.5l119 446q7 26 -6.5 33.5t-34.5 7.5h-38q-11 0 -23 2.5t-20 6.5q41 29 58.5 57t27.5 66l2 4q3 13 7 29.5t3 30.5t-8 23.5t-25 9.5h-284q-3 0 -10 -1t-15 -3t-14.5 -6t-8.5 -11l-11 -41
q-1 -2 3.5 -6t9.5 -4h1h73l4 -4zM378 62l-142 3q-4 5 -3 19t6 32l69 259q3 10 7.5 25.5t9.5 30.5t9 26t5 11l6 5q1 1 7 1.5t14.5 1t16.5 1t13 0.5h90q9 0 19.5 -2.5t16.5 -2.5q8 0 10 -4t10 -6l-106 -395h-2q-4 0 -12 -1t-17 -1.5t-16.5 -1.5t-10.5 -1zM366 567l1 4
q2 6 4 16t4 19q3 10 4.5 18.5t3.5 12.5l11 43q4 13 8 17.5t12 4.5l8 -2h102v-1h1l-1.5 2t-2.5 2l1 -30q0 -18 -2 -26q-11 -40 -47.5 -61t-90.5 -19q-2 0 -6 -2.5t-6 -2.5q-1 0 -2.5 2t-1.5 3z" />
    <glyph glyph-name="FL0043h" unicode="C" horiz-adv-x="453" 
d="M174 462l-116 -431q-3 -11 2 -16.5t7 -14.5h300q6 0 11 6t9.5 14t7.5 15.5t5 11.5l3 9l16 58q5 19 8.5 36t5.5 36q-2 9 -8 10.5t-14 1.5h-2q-23 0 -36 -23t-20 -50q-5 -17 -7.5 -30t-5.5 -23h-192q27 109 48 190.5t38 144.5q16 58 28.5 101.5t23.5 75t20.5 53.5t18.5 37
h171l3 -5q-18 -20 -36.5 -42t-35 -45t-29.5 -46.5t-19 -47.5q-4 -13 6.5 -14.5t19.5 -1.5q15 0 25.5 6t18.5 16t15 21.5t16 23.5l102 130l15 56q2 5 -1 10.5t-7 10.5l-2 2h-209q-30 0 -60.5 -1t-57.5 -6q-12 -25 -20.5 -49t-15.5 -49l-1 -6v-7l-26 -98q-5 -18 -10.5 -35
t-12.5 -35z" />
    <glyph glyph-name="d" unicode="D" horiz-adv-x="735" 
d="M114 238q-4 -15 3.5 -26t19.5 -19t25.5 -14.5t21.5 -12.5q18 -15 38.5 -43t43.5 -55.5t51 -48t61 -20.5q13 0 25 8.5t23 18.5q4 4 20 19t35 33t35 33t20 19l118 92q3 3 11.5 8.5t17.5 12t17.5 12.5t12.5 9q7 6 16 10.5t16.5 9.5t13.5 11.5t9 16.5v3q2 5 3 11t-3 11
l-162 228l2 5q3 12 16.5 26t32 28t39 28t38.5 26t30 22t14 16v5l-23 30l-18 1t-43.5 2t-52.5 2t-45 1h-57q-16 0 -30 -1t-40 -5q-24 -15 -31 -43q-3 -12 1.5 -24t12.5 -23t16.5 -21t13.5 -18q24 -38 50.5 -74.5l53 -73t51 -74.5t44.5 -79q-1 -2 -3 -5.5t-5 -4.5l-196 -155
q-4 -3 -15.5 -13.5t-24 -23t-23.5 -23t-14 -13.5l-13 -10l-3 -1q-1 0 -1.5 0.5l-0.5 0.5q-1 0 -5 1.5t-4 2.5l-107 109q-17 16 -32.5 32t-26.5 37v1q1 4 11.5 15t26 25.5t33.5 30.5t33.5 29.5t27.5 23.5t14 13l29 32q13 11 22 11h2l51 -58l17 -20l-1 -3l-1 -3l-116 -10
q-9 -1 -19.5 -5.5t-20 -11t-17 -15t-9.5 -17.5q-3 -11 7 -33.5t26 -46t35.5 -41t36.5 -17.5q8 0 25.5 10.5t39 27t44.5 36.5t42.5 39t33 34.5t15.5 22.5q2 8 -9 25.5t-28.5 39t-39.5 44.5t-41 42t-33 31t-16 12q-10 0 -28.5 -12.5t-41.5 -32t-48.5 -43t-49 -46t-42.5 -41.5
t-30 -28l-14 -14t-21.5 -21t-22 -20.5t-14.5 -12.5zM372 270q11 8 23.5 9t25.5 1h3q13 0 24.5 1t22.5 9l-1 -3q-2 -5 -10 -14.5t-18.5 -18.5t-20 -15.5t-13.5 -6.5q-5 0 -10.5 4.5t-10.5 10.5t-9 12.5t-6 10.5zM537 674l7 5h77l15 -5l-63 -49z" />
    <glyph glyph-name="FL0045h" unicode="E" horiz-adv-x="499" 
d="M59 34l-1 -3q0 -1 -0.5 -5.5t-1 -9.5l-1 -10t0.5 -6l73 4h310l50 156l5 19q4 14 4 28q0 15 -14 15q-31 0 -45.5 -21t-21.5 -47q-5 -18 -7.5 -34.5t-6.5 -29.5q-5 -17 -11 -17h-248q4 14 9.5 39t13.5 57q8 30 17.5 64t19 62.5t17.5 47.5t14 19q22 0 30 -14.5t13 -32.5
t12 -32.5t28 -14.5q2 0 7.5 1.5t8.5 3.5q19 21 36.5 34.5t36 25t39.5 22.5t47 27q5 3 7 6l2 9q6 17 -2 36q-18 3 -37 4t-39 1h-83q-21 0 -41 1t-40 5l-2 2t-2 3q1 2 1.5 7.5t1.5 11.5t1.5 10.5t0.5 6.5l29 106q2 5 5 15t6 21q3 12 5 21.5t4 14.5q4 5 6.5 5.5t5.5 0.5h2
q9 0 19 5t21 2h121h25q20 0 38 1.5t44 3.5q15 2 24 5t14 9t8 15.5t7 23.5l3 11l1 9l-3 6h-358l-41 -26zM313 378q16 13 22.5 16.5t21.5 3.5q4 -2 12 -3.5t15.5 -3t13 -3t4.5 -4.5q-2 -6 -9 -13t-16 -12.5t-18 -9t-13 -3.5h-4q-2 1 -6 5.5t-8.5 9.5l-9 10t-5.5 7z" />
    <glyph glyph-name="FL0046h" unicode="F" horiz-adv-x="582" 
d="M138 329l-82 -325q-1 -2 6.5 -3.5t15.5 -1.5h5q33 0 44 6t16 25q2 8 2.5 15t-1.5 18l76 283q47 -17 76.5 -43.5t55.5 -66.5h46l8 6l5 20l69 217q-30 0 -59 -6.5t-58 -14t-58 -14.5t-59 -8l1 3l12 28l3 11q7 21 17.5 53.5t20 63.5t17 53.5t7.5 23.5l9 16q1 1 16.5 2.5
t25.5 1.5h124q64 0 100 0.5t55.5 1t27.5 2.5t16 5h2q8 0 14.5 3t9.5 14l2 6q-2 4 -3 11t-2 13.5t-2 11.5t-2 5h-426l-29 -7q-1 0 -3.5 -5.5t-5 -13t-5 -15.5t-3.5 -13q-3 -6 -8.5 -25t-13.5 -47t-18 -64t-21 -76l-30 -112zM334 382q31 24 62 24q-1 -2 3.5 -6t2.5 -12
q-2 -6 -5 -15.5t-6.5 -18.5t-8.5 -15.5t-9 -6.5l-19 12q-3 1 -5.5 6.5t-4.5 12t-4.5 12t-5.5 7.5z" />
    <glyph glyph-name="FL0047h" unicode="G" horiz-adv-x="604" 
d="M63 47q0 -2 -0.5 -9.5t-0.5 -15.5t1 -15t4 -7h378q1 0 3.5 3.5t4.5 7.5q14 20 20.5 43.5t13.5 44.5q0 2 2 8.5t4 13.5q2 8 3.5 14.5t2.5 9.5q14 9 28.5 23t30 29t31.5 30.5t33 27.5l4 15l-2 4t-6 9t-7.5 10t-6.5 8l-25 26q-2 3 -9 11.5t-14.5 18.5t-14 19t-8.5 13l-7 1
q-7 0 -32.5 -17.5t-54 -40t-51.5 -44.5t-26 -32q-6 -21 5.5 -37.5t26.5 -32.5t26 -34.5t4 -43.5l-2 -7l-3 -10l-2 -10l-2 -5l-11 -6h-242h-12l142 532l8 30l8 29l7 11q2 0 6.5 -0.5t9.5 -0.5t9.5 0.5t6.5 0.5l26 5q8 0 25.5 0.5t38.5 0.5q20 0 36.5 -0.5t24.5 -0.5
q1 2 3.5 4l2.5 2h4q6 0 16.5 -0.5t20.5 -3t17 -7t5 -12.5l1 -3l-52 -164q-2 -5 -1 -12.5t6 -7.5h63l11 5l3 11q2 8 5 15t9 15l49 183q0 2 1 9t1.5 14.5t-1 13.5t-5.5 6h-384q-1 -3 -5.5 -13t-6.5 -13q-1 -4 -8 -5q-51 -169 -97 -334t-93 -333zM440 262l50 39h10l29 -42
q1 -1 -2 -5t-6 -6l-6 -4l-28 -26l-6 -6h-5z" />
    <glyph glyph-name="FL0048h" unicode="H" horiz-adv-x="599" 
d="M477 68q14 45 28 94t28 104l14 52q1 5 4 14.5t4 12.5q1 4 3 6v2l-325 3l-83 -311q-6 -23 -15 -45h-79l-5 4l17 64q14 45 28 94t28 104l90 335q14 52 23.5 85.5t11.5 38.5q7 17 19 26t12 10h46q2 0 5 -7t-3 -31l-73 -272q64 -3 115 -3q55 0 103.5 2t109.5 3l40 148
q14 52 23.5 85.5t11.5 38.5q7 17 19 26t12 10h46q2 0 5.5 -7t0.5 -31l-182 -678q-6 -23 -15 -45h-79l-5 4z" />
    <glyph glyph-name="FL0049h" unicode="I" horiz-adv-x="640" 
d="M332 212h5l-40 -147l-2 -1h-228l-17 -64h539l17 64h-207q-2 0 -3 3t-1 5h-20q4 11 7.5 21t6.5 21l12 45l9 35l5 17l2 9q2 6 1 9q12 16 31 30t38.5 26.5t35 24.5t18.5 25q2 8 -7 21.5t-21 28.5t-23.5 30t-14.5 26q-3 13 0 29t5 33l52 167l12 8h228l17 64h-539l-17 -64h207
q2 0 2.5 -3t1.5 -5q0 -17 -5.5 -43t-10.5 -44q-6 -24 -15 -44l-20 -77q-4 -4 -10.5 -11.5t-10.5 -9.5l-138 -109q-9 -9 -10 -16q-4 -14 10.5 -28t34.5 -27t39 -25.5t24 -23.5zM337 327l1 5q1 2 3 5.5t5 4.5q4 4 13.5 11.5t19.5 15t19 14.5t13 10q11 -13 19.5 -27t16.5 -29
l1 -2q-1 -1 -1.5 -2l-0.5 -1l-5 -5q-3 -3 -11.5 -9.5t-18 -13t-18 -12.5t-11.5 -7l-3 2q-11 8 -22.5 17.5t-19.5 22.5z" />
    <glyph glyph-name="FL004Ah" unicode="J" horiz-adv-x="591" 
d="M60 21l1 -8.5t4 -8.5h420q39 112 77 220.5t73 220.5l2 7l1 2q3 12 6.5 23t6.5 22l14 55q8 28 15.5 55t17.5 54q5 13 11 23.5t21 18.5l11 42l-7 10l-24 -1l-160 7q-13 0 -27 -1.5t-26 -6.5t-21 -14t-13 -25q-5 -16 6 -27t25 -15q4 -4 11.5 -14t16 -21.5t15.5 -22t10 -15.5
q3 -6 7.5 -19.5t9 -27.5t8 -25.5t3.5 -14.5v-22l-7 -24q-3 -11 -4.5 -19.5t-2.5 -13.5l-120 -368h-214q-18 -3 -29 -4.5t-28 -1.5q-11 0 -16.5 0.5t-13.5 5.5q0 3 1 13t3.5 20.5t4.5 20.5t3 13l58 176l5 17l-3 10q7 16 14.5 20t22.5 6q4 0 20 1t35 1.5t38 1.5t29 1h25h16
l4 -5q-1 -2 -2 -9.5t-3 -15.5l-3 -9q-5 -20 -10.5 -37.5t-11.5 -35t-13 -35.5t-16 -39q-7 -5 -11 -5l-1 1h-51q8 29 13.5 66t10.5 67q0 8 -5 9.5t-11 1.5q-3 0 -9 -0.5t-13 -2t-13 -5t-7 -8.5l-25 -94h6q-5 -15 -11.5 -29t-11.5 -31l-4 -14q-3 -12 -3 -24q0 -11 13 -11
q21 0 44 4.5t45 6.5h5q8 0 18.5 -1t21.5 -1q21 0 41.5 7t26.5 31q3 12 9 31.5t12 38.5t11 33.5t5 16.5q10 26 21 53t19 53q1 3 2.5 10t2 14t0 12.5t-4.5 6.5l-39 11q-50 -2 -100 -3.5t-101 -1.5l-55 5q-11 0 -18 -5t-12 -13t-8 -17.5t-5 -17.5l-4 -14q-2 -5 -9 -25.5
t-15 -44.5t-15 -44.5t-9 -26.5zM161 400q-3 0 -6 -7q0 -4 3 -4q5 0 5 4q3 7 -2 7zM582 691l33 6h8q5 0 9 -2.5t4 -3.5l-16 -83q-6 6 -11.5 17t-10.5 23t-9 23.5t-7 19.5z" />
    <glyph glyph-name="FL004Bh" unicode="K" horiz-adv-x="496" 
d="M61 41q-1 -2 -2 -13.5t0 -16.5q0 -4 0.5 -7.5t1.5 -3.5h47q4 0 9.5 8t14.5 35t23.5 77.5t37.5 135.5l20 78q7 23 11 40t6 26l12 1q35 8 68.5 13t66.5 5h14q10 0 26 -1t31 -2.5t25.5 -3.5t10.5 -3l-110 -409h64l56 182l23 108l15 31l21 79q3 12 6 25t3.5 24.5t-2 19
t-8.5 8.5q-23 3 -49.5 5.5t-54 4.5t-54 4t-48.5 4q56 54 118.5 99t123.5 95q8 5 11 17l2 5q3 13 -8 24.5t-24 11.5q-8 0 -12 -2.5t-9 -13.5q-7 -6 -25.5 -21t-39.5 -31.5t-40 -31t-27 -20.5q-2 -1 -7.5 -5t-12 -8t-12.5 -8t-7 -5q-28 -23 -53 -49.5t-55 -48.5l2 7
q5 17 16 53t22 74l9 34q2 8 3 15.5t3 14.5v5q3 20 2 30.5t-24 10.5q-9 0 -13.5 -2.5t-7.5 -5.5t-6 -7t-10 -7q-32 -75 -80.5 -251t-123.5 -433zM512 695q3 0 2 -6q-2 -5 -5 -5q-5 0 -3 5q1 6 6 6z" />
    <glyph glyph-name="FL004Ch" unicode="L" horiz-adv-x="575" 
d="M58 4q0 -4 7 -4h22q7 0 26.5 0.5t46.5 0.5t58.5 1t61.5 1t56 0.5t42 0.5q15 0 16 -4h108q5 0 9.5 1l13.5 3l6 17q8 30 9 66.5t2 62.5l4 52q0 9 -6 10.5t-14 1.5h-3q-22 0 -40.5 -12t-39.5 -20q-35 -16 -71.5 -34t-73.5 -33.5t-71.5 -25.5t-64.5 -10l159 591q1 3 2.5 16
t2 27.5t0 26t-4.5 11.5h-37l-7 -10l-1 -1q-2 -3 -6 -9.5t-10.5 -20.5t-15 -36t-18.5 -56q-8 -25 -20 -66.5t-26.5 -91.5t-30 -104.5t-30 -104.5t-26 -91.5t-17.5 -66.5l-7 -24q-4 -15 -7.5 -30t-3.5 -35zM357 73l6 4q0 1 10 5.5t23.5 10.5t27 11.5t21.5 9.5q9 3 13 4.5
t10 1.5q5 0 6 -1.5t1 -9.5l-12 -49h-7q-8 0 -17.5 1t-11.5 1q-8 0 -19 1t-21.5 1.5t-18.5 1.5l-8 1z" />
    <glyph glyph-name="FL004Dh" unicode="M" horiz-adv-x="737" 
d="M250 746l-192 -719l5 -15q1 -1 1 -2q3 -7 4.5 -8.5t6.5 -1.5h7q16 0 26.5 3.5t17.5 14t13.5 30t15.5 52.5l156 582h205q4 -7 4.5 -19t-4 -32.5t-14.5 -51.5t-26 -77q-17 -20 -42 -38.5t-50 -38t-45 -40t-27 -44.5l-1 -10l114 -152q3 0 9.5 -2t10.5 -2q1 0 16.5 12
t38.5 30.5t49.5 40t49 41t38 34t16.5 17.5q2 8 -1 14t-7.5 11t-9.5 9t-8 8q-5 6 -14 17.5t-18.5 23t-17 21t-8.5 11.5q-2 4 -5.5 10.5l-7 13t-5.5 11.5t-2 6l45 171q13 3 59 4t139 1l-17 -63q-25 -91 -42.5 -160.5t-31.5 -123.5l-67 -250l-8 -29q-2 -6 -2.5 -11.5
t-1.5 -10.5q-2 -6 2.5 -11t11.5 -9t15 -6t13 -2q11 0 15.5 3t12.5 13l183 682q4 16 2.5 25t-5.5 13.5t-10 6t-10 1.5h-601zM397 351l2 4l1 2l87 72h10l65 -80l-105 -87q-6 6 -17 16.5t-21.5 23t-17.5 25.5t-4 24z" />
    <glyph glyph-name="FL004Eh" unicode="N" horiz-adv-x="600" 
d="M466 0l45 168q2 2 -13 17t-39.5 37t-53.5 47t-55 48t-45.5 41t-24.5 24q-2 0 -8 2t-12.5 4.5l-13 5t-8.5 3.5q-7 -6 -9 -14l-93 -347l-16 -9q-2 -9 -5.5 -18t-11.5 -9h-46l-5 4q1 2 4 15t6 24l167 626l21 64q2 2 8 5t12.5 6t11.5 5t6 2h37q4 0 2 -5q0 -4 -1 -9l1 -22
l-50 -184q-1 -3 16 -22.5t44 -46.5t59 -57.5t61 -56.5t52 -43t30 -17l11 1q5 13 11 33t13 42.5t13.5 45.5t11.5 43l48 176q-1 2 1 11l3 11l6 21q10 35 21 70v2q8 8 22 10t21 2q21 0 23 -13.5t-3 -31.5l-7 -23q-18 -57 -33.5 -111.5t-30.5 -109.5l-117 -437l-16 -30h-71z" />
    <glyph glyph-name="FL004Fh" unicode="O" 
d="M69 39l-2 -11q-2 -8 -2.5 -15t5.5 -7l9 -6h551l6 16l2 7q3 11 -1 19.5t-6 10.5l-5 13h-101q-5 0 -15.5 0.5t-21.5 1.5t-21 1.5t-15 0.5q21 31 52.5 68.5t70 79.5t81.5 88.5t88 94.5l2 7l-161 271h172q4 0 12.5 3t10.5 5l1.5 3.5t1.5 5.5q5 14 4.5 27t3.5 26h-497l-3.5 -4
t-4.5 -6q0 -1 1.5 -3.5l1.5 -2.5l-5 -21q-2 -8 -4 -15t3 -10q2 0 14 -2.5t16 -2.5q8 0 24.5 -0.5t36.5 -0.5q21 0 38.5 0.5t25.5 0.5l1.5 -2t0.5 -4l-6 -9l-271 -273l-12 -18q14 -30 34 -69.5t40.5 -80.5t39 -79.5t29.5 -67.5l-30 -5h-52q-14 0 -24.5 -0.5t-15.5 -0.5h-37
q-21 0 -40 -5.5t-26 -28.5zM277 304l-35 89l46 48q49 50 94 91t94 89q2 2 6.5 5.5t6.5 4.5l0.5 0.5t1.5 0.5t2 -0.5l1 -0.5q1 -1 5 -6.5t6 -8.5q17 -29 33 -53t31.5 -47.5t31 -48t31.5 -54.5q2 -1 2 -5v-4l-1 -4l-41 -57l-203 -234l-5 -6q-11 7 -24 29t-27 51t-28.5 61
t-27.5 60z" />
    <glyph glyph-name="FL0050h" unicode="P" horiz-adv-x="646" 
d="M51 4l1 4q6 21 11 33t12.5 18t18.5 7.5t28 1.5q11 0 26.5 1.5t36.5 3.5l147 552q1 22 -4 28t-16 6l-23 -1q-15 0 -28 1.5t-27 3.5l3 18l4 14q4 13 10 24.5t15 15.5q10 5 19 6t19 1h462q10 -3 13 -14t1.5 -27.5t-6.5 -37t-11 -41.5l-90 -336q-7 -23 -19 -40t-39 -17h-239
q-9 0 -14.5 11t-3.5 19q1 4 2.5 11t2.5 14.5t2 13.5t1 8l69 259q4 15 14 25t24 15t30 7t32 2t29 -1t24 -1h33l12 -6q8 -3 5.5 -14.5t-4.5 -21.5q-3 -9 -2 -10l-10 -52l-37 -124q-5 -8 -14.5 -9.5t-19.5 -1.5h-18h-10q-5 0 -3 5l42 156l-3 10l-5 0.5t-7 0.5h-11
q-9 0 -18.5 -2.5t-13.5 -13.5q-16 -45 -29 -89.5t-25 -87.5l-12 -46l8 -11h156l98 364q0 4 -13 4h-233q-8 0 -17.5 -2t-13.5 -9q-2 -5 -6 -15.5t-8 -23t-7.5 -26t-6.5 -22.5l-132 -494h186l-13 -67q-5 -1 -20 -1.5t-36.5 -1t-48.5 -1t-55 -0.5h-74h-128q-11 0 -23 4z" />
    <glyph glyph-name="FL0051h" unicode="Q" horiz-adv-x="905" 
d="M65 57q5 15 9.5 28t12.5 29l152 570q6 20 21.5 39.5t39.5 19.5h384q4 0 7 -9t3 -11v-4q-1 -3 -1 -5q-1 -11 -2 -20.5t-3 -12.5l-8 -11q-11 -20 -18 -44t-13 -47q-7 -25 -11.5 -47t-10.5 -43q-9 -31 -18 -61t-17 -61l-32 -122l-44 -162h194q3 0 6.5 5.5t6.5 12t5.5 12.5
t2.5 8l-58 171q1 4 14 15t32 25t41 29t41.5 27t34 20t18.5 8q12 0 13.5 -5t8.5 -18q4 -6 13 -23t19 -36t18 -36t11 -24q5 -5 4.5 -8.5t-2.5 -9.5l-3 -8q-22 -15 -44.5 -35t-42.5 -37q-6 -5 -14 -12t-15.5 -14.5l-13 -13t-5.5 -6.5l-38 -104q-5 -9 -12.5 -16t-15.5 -7h-3
q-14 -2 -22.5 -3t-19.5 -1q-10 0 -25.5 0.5t-42.5 1t-68 1t-102 0.5h-162q-45 0 -93 -0.5t-100 -1.5q-5 0 -17 4.5t-17 4.5zM172 83h259l149 557l-14 25h-197l-7 1q-2 0 -8 0.5t-9 0.5q-5 0 -11.5 -0.5t-7.5 -0.5q-3 -1 -6.5 -2.5t-4.5 -3.5l-122 -453zM748 280
q-1 -2 -0.5 -2.5l0.5 -0.5l29 -70h6q3 1 13.5 8.5t22.5 17t22 18t11 11.5q1 4 -2.5 15t-8.5 22.5t-11 20t-9 8.5q-1 0 -2 -0.5l-1 -0.5q-9 -3 -20.5 -8.5t-22 -12t-18.5 -13.5t-9 -13z" />
    <glyph glyph-name="FL0052h" unicode="R" horiz-adv-x="656" 
d="M279 290q12 -6 24.5 -18t25 -26t24 -28t20.5 -24l89 -95l71 -63l2 -5q5 -2 15 -10t12 -10q5 -4 11 -7.5t7 -3.5l52 41l2 6q0 2 -6 11.5t-13 14.5q-26 26 -54.5 55.5t-57.5 52.5l-107 120q-2 2 -4 7.5t-2 7.5l-1 3h36q45 6 89 13.5t107 19.5l5 15l33 123q17 63 32 126.5
t18 123.5q-32 2 -53.5 3.5t-45.5 1.5h-122h-45q-22 0 -49.5 -0.5t-53 -1t-46.5 -1.5t-30 -2q-19 -10 -25 -33q-6 -24 6 -31t31 -7h5l28 4q-16 -52 -34.5 -117t-38 -132.5t-37.5 -132.5t-33.5 -117.5t-26.5 -88.5t-15 -44q-2 -2 -5 -8.5t-5 -12.5q-1 -9 2 -10l27 -14l40 8
l87 272q1 4 2.5 6.5t6.5 7.5zM406 672l194 -1q8 0 16 -0.5t9 -0.5l9 -3l-1 -7t-3 -17t-4.5 -20.5t-3.5 -17.5l-33 -125q-7 -24 -14 -46t-13 -33q-62 -5 -125.5 -12t-129.5 -7l71 264q4 13 9.5 19.5t18.5 6.5z" />
    <glyph glyph-name="FL0053h" unicode="S" horiz-adv-x="655" 
d="M108 215q15 -26 38.5 -53t49.5 -53t53 -50t49 -44q11 -8 25 -12t28 -4q25 0 55.5 20t60.5 48.5t57 58.5t46 50l95 104l23 31q-6 10 -28 31t-51.5 46.5t-62.5 54t-60 54t-43.5 45t-14.5 28.5q0 1 3.5 4.5t4.5 5.5q6 7 24 25t37.5 36.5t37 33t22.5 14.5q6 0 24 -14.5
t39 -32t39.5 -32t24.5 -14.5q8 0 16.5 4.5t16.5 10.5t14 12t10 9q-2 18 -13.5 32.5t-27 26.5t-32.5 22t-30 18q-4 3 -13.5 8t-19.5 10.5t-18.5 10.5t-10.5 8q-20 -4 -32 -10t-29 -22q-4 -5 -19 -19t-32.5 -30.5t-33 -30.5t-19.5 -18q-9 -9 -21.5 -18t-24.5 -19t-21.5 -21
t-12.5 -24q-1 -2 -1 -4v-2l38 -57q2 -3 19 -18.5t39.5 -35.5l45 -40t36.5 -32q5 -3 15 -12t20.5 -18.5t20.5 -18.5t15 -12q4 -1 4 -5l-2 -6q-1 -4 -7.5 -12.5t-15 -17.5t-17 -16.5t-12.5 -10.5q-5 -6 -19 -20.5t-29.5 -31t-29 -31.5t-17.5 -21q-3 -3 -11 -10.5t-17 -16.5
t-18 -17.5t-15 -12.5l-1.5 -0.5t-3.5 -0.5q-11 0 -25 10t-28 23t-26.5 26.5t-19.5 20.5l-39 30l-33 32l1 2q4 16 19 36t33 39t36.5 35.5t31.5 27.5q2 -2 8 -7t13 -11t13 -11.5t8 -7.5q3 -4 9.5 -9.5t13 -12t11.5 -13t5 -12.5q-2 -1 -6 -5t-8.5 -9.5t-9 -10l-5.5 -5.5
q-3 -4 -7.5 -7.5t-6.5 -3.5q-5 -2 -11.5 5t-14 16.5t-16.5 17.5t-18 8q-19 0 -31.5 -16t-17.5 -33q-3 -11 8.5 -25.5t29 -28.5t35.5 -23.5t29 -9.5t34 17.5t47 41t43.5 47.5t22.5 37l1 3q-6 12 -12.5 18.5t-13.5 12t-15 11t-17 15.5q-9 8 -21.5 24.5t-27.5 33t-30 29
t-28 12.5q-2 0 -4 -0.5t-3 -0.5q-62 -48 -114 -107t-102 -116z" />
    <glyph glyph-name="FL0054h" unicode="T" horiz-adv-x="639" 
d="M331 212h5l-57 -212h67q2 6 3.5 11t8.5 10q12 35 22 69t20 69l9 35l5 17l2 9q2 6 1 9q12 16 31 30t38.5 26.5t35 24.5t18.5 25q2 8 -7 21.5t-21 28.5t-23.5 30t-14.5 26q-3 13 0 29t5 33l52 167l12 8h228l17 64h-539l-17 -64h207q2 0 2.5 -3t1.5 -5q0 -17 -5.5 -43
t-10.5 -44q-6 -24 -15 -44l-20 -77q-4 -4 -10.5 -11.5t-10.5 -9.5l-138 -109q-9 -9 -10 -16q-4 -14 10.5 -28t34.5 -27t39 -25.5t24 -23.5zM336 328l1 4q1 2 3 5.5t5 4.5q4 4 13.5 11.5t19.5 15t19 14.5t13 10q11 -13 19.5 -27t16.5 -29l1 -2q-1 -1 -1.5 -2l-0.5 -1l-5 -5
q-3 -3 -11.5 -9.5t-18 -13t-18 -12.5t-11.5 -7l-3 2q-11 8 -22.5 17.5t-19.5 22.5v1z" />
    <glyph glyph-name="FL0055h" unicode="U" horiz-adv-x="577" 
d="M61 40l10 39l15 55l17 65l19 70l29 109l57 213l23 85q1 2 2 5l1 3q1 4 4.5 11.5t8.5 15.5t10.5 14t10.5 6h41q5 0 4 -6v-7q0 -4 1 -9t1 -9v-5l-168 -627h12q16 0 38.5 -0.5t43.5 -0.5h42q17 0 43.5 1t51.5 2t43 2l18 1l7 4l146 547q7 25 11.5 39.5t9 23.5t11.5 14.5
t18 13.5l7 6q2 2 5 8.5t4 6.5h47l-0.5 -4t-1 -10t-1.5 -12t-1 -10l-9 -31q-1 -6 -1.5 -12.5t-2.5 -12.5l-7 -23l-142 -531l-4 -23q2 -2 2.5 -15t-3.5 -26q-6 -22 -22 -22h-8q-49 -2 -87.5 -3.5t-78.5 -1.5h-54h-222q2 9 3 20t-4 21z" />
    <glyph glyph-name="FL0056h" unicode="V" horiz-adv-x="660" 
d="M121 192q-4 -16 1.5 -29.5t15.5 -25t21 -21.5t17 -19q9 -12 22.5 -25.5t29.5 -27.5t33 -27t32 -24q28 15 64 38t73 49.5t72 53t61 48.5l1 5q2 6 -5 24t-17.5 42t-24 50t-24 49t-17.5 38.5t-5 18.5l311 275q11 8 12.5 8.5t3.5 9.5q1 5 -0.5 13t-5.5 15t-9 12t-10 5h-5
q-90 -66 -170 -139t-159 -142l-3 -1l-10 12q-3 6 -9.5 20.5t-13.5 31t-13.5 31t-8.5 20.5q1 2 -6 20t-15.5 40t-16 40t-7.5 20q-5 6 -15 21t-15 20l-4 1l-61 -30q0 -1 -0.5 -7t1.5 -8l3 -11l127 -277q0 2 -13 -8.5t-33.5 -28t-45.5 -38.5t-47.5 -41t-39.5 -35t-22 -20
q-3 -2 -10 -8.5t-15 -13.5t-14.5 -12.5t-8.5 -6.5zM241 158l-26 35l154 129l32 15l69 -143v-1h-1q-14 -13 -34.5 -28.5t-42 -31.5t-41.5 -30.5t-35 -24.5z" />
    <glyph glyph-name="FL0057h" unicode="W" horiz-adv-x="736" 
d="M51 4l-1 -4h599q10 0 21 3t13 11l1 3q1 4 5.5 18.5t20.5 55.5l168 624q-2 10 -4.5 13t-13.5 3t-28 -6t-21 -18q-17 -46 -30 -90t-26 -89l-3 -13q-1 -3 -1 -12l-117 -436q-94 0 -142 1.5t-59 4.5l45 171q0 1 5 6t12 11.5t13.5 13t11.5 10.5q3 2 15.5 11.5t28.5 21t31 23
t23 17.5q10 8 27 17t21 25q1 3 -6.5 17.5t-20 34t-27 41t-27.5 40t-22.5 30.5t-10.5 12q-4 0 -11.5 -2t-10.5 -2q-50 -42 -98 -76t-98 -76l-3 -10q-7 -24 2 -44.5t24 -40t30 -38t20 -38.5q2 -7 1.5 -17t-2.5 -20.5t-4.5 -20t-2.5 -14.5l-7 -25q-5 -19 -15.5 -44t-25.5 -39
h-205l156 582q3 11 6.5 26t3 28.5t-7 23t-23.5 9.5h-7q-6 0 -8 -2l-10 -10q-8 -6 -8 -10l-20 -56zM410 399q3 11 17 24t31 25.5t34 23t26 16.5l57 -87l-107 -80h-10l-49 72v2t1 4z" />
    <glyph glyph-name="FL0058h" unicode="X" horiz-adv-x="854" 
d="M61 41q2 8 10.5 17.5t19 19.5t21 19.5t16.5 16.5l319 317q2 2 4.5 5t3.5 5l2 5q-2 6 -7 22.5t-11.5 35t-12 35t-6.5 22.5q-8 26 -14 54t-14 54q-1 3 -4.5 8.5t-7.5 13t-6.5 14.5t-0.5 13l4 8q11 8 24 17.5t27 9.5q13 0 22 -16t14.5 -37t9 -42t5.5 -31q2 -7 7 -25
t11 -37.5t12 -37t10 -23.5q35 25 62.5 56t63.5 65q37 34 75.5 67t76.5 60q2 0 8.5 0.5t11.5 0.5h5q19 0 38.5 -16t37 -37.5t30.5 -44.5t20 -38l-1 -5q-2 -9 -10 -14t-18 -11l-127 -89q-6 -3 -6 -4t-2 -6l-2 -6l35 -46q4 -8 5.5 -10t-0.5 -10q-4 -14 -23 -20.5t-32 -6.5
q-1 0 -4.5 0.5t-4.5 0.5q-7 6 -22 15t-29.5 20.5t-24 24t-6.5 25.5q3 12 13 22t22.5 18t25 15.5t21.5 14.5l83 57l4.5 3l1.5 1l2 6l1 5q-11 17 -23.5 32.5t-27.5 29.5q-37 -25 -67.5 -56.5t-60 -63.5t-60.5 -63t-67 -55l-0.5 -1.5t-1.5 -3.5q-2 -6 2.5 -14t6.5 -13
q25 -76 48 -156.5t49 -153.5q-1 -2 -0.5 -6t2.5 -5h2q18 0 40 14t37 28q-5 9 -16 22t-22.5 27t-19 28t-4.5 26q2 7 15.5 18.5t33.5 23.5t43 24t43.5 22t36 16t20.5 6q14 0 21.5 -13t3.5 -27q-2 -5 -2.5 -7.5t-6.5 -5.5l-116 -61l-1 -6q-3 -10 5 -24t17.5 -29t16.5 -30.5
t4 -27.5q-3 -10 -30.5 -28t-62 -36t-66.5 -31t-44 -13q-8 0 -14 3t2 14l-89 306q-2 5 -5.5 15.5t-11.5 10.5q-1 0 -2 -0.5l-1 -0.5q-2 0 -7 -6.5t-8 -8.5q-7 -7 -20.5 -19t-30 -27t-34 -31t-32.5 -30t-26.5 -24.5t-14.5 -13.5q-9 -8 -27 -25.5t-40 -39t-45.5 -44.5
t-45 -41.5t-38 -30.5t-23.5 -12q-11 7 -18 22.5t-6 19.5z" />
    <glyph glyph-name="FL0059h" unicode="Y" horiz-adv-x="574" 
d="M329 315l-88 -315h70l99 368h158q16 0 30 12t25 29q16 39 25.5 66t17.5 56l39 143l6 47q0 1 1 2.5t2 4.5q2 8 -4 8h-41q-4 0 -7 -5q-3 -3 -6.5 -9.5t-6.5 -13.5t-5.5 -12.5t-2.5 -6.5l-30 -111q-4 -13 -10 -33.5t-12 -40t-11 -34l-5 -14.5l-7 -10l-41 -6h-257
q-5 0 -12.5 0.5t-8.5 0.5l-4 4q0 1 1 8.5t3.5 17.5t4.5 20.5t4 16.5q2 7 5.5 22t8.5 33l21 80q6 20 10.5 34.5t6.5 22.5q-4 7 -6.5 19.5t-10.5 16.5q-1 1 -7 1q-20 0 -30.5 -10.5t-11.5 -14.5l-53 -198q-2 -8 -7.5 -25t-10 -36t-7 -36t0.5 -24l12 -23q-1 -2 -6 3t-4 5l23 -6
h151q0 -2 -1 -8.5t-2.5 -14t-3 -14.5t-2.5 -10z" />
    <glyph glyph-name="FL005Ah" unicode="Z" horiz-adv-x="785" 
d="M59 34q-3 -11 4.5 -22.5t18.5 -11.5h612q8 0 16.5 5t16.5 12t13.5 15t7.5 15v5l-2 62l8 31l22 145q4 21 -19 21q-21 0 -50.5 -13.5t-63 -35t-69.5 -47.5t-71.5 -50.5t-68 -45t-58.5 -30.5l-24 -4l-136 2q23 35 44.5 57t42.5 42q54 52 110.5 104.5t114.5 98.5l39 30
q33 29 61 57.5t63 57.5q11 9 37 28.5t55.5 41.5t55 41.5t36.5 27.5l10 37q2 8 2.5 14.5t-6.5 11.5h-119q-100 0 -194.5 4t-192.5 1h-5q-9 0 -19.5 -0.5t-21 -3.5t-19 -9.5t-12.5 -17.5q-7 -17 -12.5 -33.5t-9.5 -30.5l-16 -61l-37 -136q-6 -24 13 -24h20q5 0 12.5 0.5
t14.5 1.5t12.5 3t6.5 6l61 227l7 6l16 0.5t41 1t54.5 1.5t55.5 2q12 0 23 0.5t23 0.5t27 0.5t35 0.5h68q5 0 9 -0.5t9 -5.5q-77 -69 -151 -135t-146 -132.5t-144.5 -134t-146.5 -138.5q-9 -8 -22 -20t-25.5 -25.5t-23 -26.5t-13.5 -24zM506 88q1 1 6 4t10.5 6l11 6t7.5 5
l145 98q1 0 3 1t4 1q9 0 6 -10v-2q0 -5 -2.5 -17.5t-5 -26.5t-5.5 -26.5t-4 -17.5l-4 -14q-2 -6 -4 -10t-11 -8q-12 3 -25 3l-16 -1h-55q-17 0 -32 2t-29 7zM901 730q-4 0 -6 -5t3 -5q3 0 5 5t-2 5z" />
    <glyph glyph-name="FL005Bh" unicode="[" horiz-adv-x="379" 
d="M59 34l188 700l40 25h237l4 -7q2 0 -1 -9l-3 -10q-4 -14 -7 -23.5t-8 -15.5t-13.5 -9.5t-23.5 -5.5q-11 -2 -9 -2.5t4 -0.5h1h-8h-31h-65q-1 1 -7 1q-9 0 -17 -4t-16 -4h-5q-6 0 -9 -6q-2 -5 -4 -14.5t-5 -21.5q-3 -11 -7 -21t-14 -15l-113 -422q-8 -32 -13.5 -57
t-10.5 -41h135q7 0 17.5 -1.5t19 -6t13 -13t0.5 -23.5q-3 -12 -9 -23h-190l-73 -4q-1 1 -0.5 6l1 10t1 9.5t0.5 5.5z" />
    <glyph glyph-name="FL005Ch" unicode="\" horiz-adv-x="564" 
d="M445 0l-204 712q1 4 11.5 14.5t30.5 10.5q5 0 6 -1q7 -5 10.5 -16.5t6.5 -19.5q-1 -3 -1 -10q0 -6 5 -27.5t17.5 -65t35.5 -120.5t60 -193.5t91 -283.5h-69z" />
    <glyph glyph-name="FL005Dh" unicode="]" horiz-adv-x="378" 
d="M337 34l188 700l-28 25h-237l-8 -7l-3 -9l-3 -10q-4 -14 -6 -23.5t0 -15.5t9 -9.5t21 -5.5q8 -2 6.5 -2.5t-3.5 -0.5h-2h9h31h65q1 1 8 1q8 0 14 -4t14 -4h5q7 0 7 -6q-2 -5 -5 -14.5t-6 -21.5q-3 -11 -4.5 -21t5.5 -15l-113 -422q-8 -32 -15.5 -57t-12.5 -41h-135
q-7 0 -18 -1.5t-22 -6t-20.5 -13t-13.5 -23.5q-3 -11 -3 -23h190l71 -4q1 1 3.5 6l5 10t4 9.5t1.5 5.5z" />
    <glyph glyph-name="FL005Eh" unicode="^" horiz-adv-x="660" 
d="M737 548l-2 -5q-2 -2 -9 -8t-14.5 -12.5t-14.5 -12.5t-10 -9q-5 -5 -22 -20t-39.5 -34.5t-47.5 -41t-45.5 -38.5t-34 -27.5t-12.5 -8.5l127 -277l3 -11q2 -2 2 -8v-7l-62 -30l-3 1q-3 2 -7 7.5t-8.5 12t-8.5 12.5l-6 9q-1 2 -8.5 20t-16 39.5t-15.5 39.5t-6 20
q-3 6 -9.5 20.5t-13.5 31t-13 31.5t-9 21l-10 11h-3q-78 -69 -158 -142t-171 -139h-5q-5 0 -10 5t-9 12t-6 14.5t0 13.5q2 8 3.5 9t12.5 9l312 275q1 2 -5.5 17.5t-17.5 38.5t-24.5 49.5t-24.5 50.5t-18 42t-5 24l2 5q27 22 62 48.5t71.5 52.5t72.5 49.5t64 38.5
q15 -11 32 -24t33 -27t29.5 -27.5t22.5 -25.5q6 -9 16.5 -19t20.5 -22t16 -25.5t2 -28.5zM616 581l-74 80q-15 -10 -35.5 -24.5t-42 -30.5t-41.5 -31.5t-33 -27.5q-1 0 -2 -1v-1l69 -142l32 15l153 128z" />
    <glyph glyph-name="underscore" unicode="_" horiz-adv-x="521" 
d="M57 4q14 -2 30.5 -3t33.5 -1h162q59 0 93.5 0.5t52.5 1.5t24 1.5t8 0.5l7 7l14 51l7 5q-4 5 -11.5 7t-15.5 2q-9 0 -13 -3h-368q-6 0 -11.5 -10t-7.5 -18l-4 -15q-2 -8 -2.5 -13t1.5 -13z" />
    <glyph glyph-name="FL0060h" unicode="`" horiz-adv-x="412" 
d="M342 409q5 -17 19 -17q5 0 9 2l38 31l1 2q1 2 0.5 2.5l-0.5 0.5l-1 11l-45 124q1 1 0.5 2l-0.5 1q1 5 12.5 15.5t28 23.5t36.5 26.5t38 26t33 22t21 13.5q5 4 8 9.5t5 10.5t5 9.5t8 6.5q-2 11 -15 15t-22 6h-92l-31.5 -3.5t-47 -4.5t-46.5 -4.5t-31 -3.5q-32 -21 -39 -48
l-1 -4q1 -1 2 -5t3 -5q24 -69 50 -134t54 -131zM313 679q4 1 17.5 2t29 2t28.5 1.5t17 0.5h10l-86 -73h-11zM260 742q-4 0 -5 -6q-2 -5 2 -5t6 5q1 6 -3 6z" />
    <glyph glyph-name="a" unicode="a" horiz-adv-x="573" 
d="M412 671h-155q-4 0 -5.5 5.5t-1.5 12.5q0 8 1 15t2 11q2 10 6.5 15.5t17.5 16.5q34 3 71 4t73 1h168q30 0 60 -1.5t62 -3.5q8 -2 7.5 -11t-3.5 -20q-3 -12 -7 -20q-3 -11 -8 -16.5t-19 -5.5h-158l-3 -11q1 -13 0.5 -46t-1.5 -70.5t-2.5 -70.5t-1.5 -46q-2 -14 -4.5 -49.5
t-6 -80.5t-7 -93.5t-7 -88.5t-7 -66t-6.5 -26v-5q-4 -14 -22 -18t-30 -4q-11 0 -13 18t-1 42t4 49.5t3 40.5q-6 0 -12.5 -4.5t-13 -11t-12 -13.5t-9.5 -11q-4 -5 -13.5 -17t-20 -25.5t-19 -25t-10.5 -15.5q-13 -10 -21 -18.5t-22 -8.5q-9 0 -13.5 5t-6.5 12.5t-2.5 16
t-1.5 14.5q-2 7 -6 24.5t-8.5 37.5t-8.5 37.5t-6 24.5q-19 -21 -30.5 -46t-25.5 -48l-46 -73l-7 -4h-53l8 26t13 26zM278 213q-2 -8 0 -21t5.5 -26t8 -24.5t6.5 -16.5l1 -1q4 0 10.5 5t13 11.5t12 13t8.5 10.5l2 2l31 41h-10zM283 303q-2 -7 10 -14t28.5 -12.5t33.5 -9
t26 -3.5q14 0 32 4t23 22q1 2 1 6t1 5q0 4 1.5 21.5t3.5 38t3.5 38t2.5 20.5l4 15q2 6 -3 11l3 162l-5 4l-2.5 -4t-4.5 -6l-32 -62q-32 -60 -62.5 -116.5t-62.5 -116.5z" />
    <glyph glyph-name="b" unicode="b" horiz-adv-x="542" 
d="M139 28l174 646l-4 4h-74q-5 0 -9.5 4t-4.5 6l11 41q2 7 8.5 11t14.5 6t15.5 3t10.5 1h284q17 0 24 -9t8 -22t-2 -29t-7 -29l-1 -4l-1 -4q-11 -38 -28 -66t-58 -57q8 -4 20 -6.5t23 -2.5h38q20 0 33.5 -7t6.5 -32v-2l-116 -433q-3 -3 -6 -8.5t-6 -12.5t-6 -13t-5 -9
q-26 -3 -55.5 -4t-58.5 -1h-211q-11 5 -15 10.5t-3 18.5zM381 70q3 0 10.5 1t16.5 1.5t17 1.5t12 1h3l100 374q-8 2 -9.5 6t-9.5 4q-6 0 -17 2.5t-20 2.5h-90q-5 0 -13 -0.5l-16 -1t-14.5 -1t-7.5 -1.5l-5 -5q-2 0 -5.5 -9t-8 -21.5t-8.5 -26t-7 -23.5l-67 -251
q-9 -38 -3 -54h142zM364 554q0 -1 1.5 -3t2.5 -2l12 5h10q51 0 84.5 21t44.5 59q1 2 1 8q0 7 1 18l-1 30q1 0 2.5 -2l1.5 -2l-2 1h-102q-4 1 -5.5 1.5l-1.5 0.5q-8 0 -12.5 -4.5t-7.5 -17.5l-12 -43q-1 -4 -3 -12.5t-4 -18.5q-2 -9 -4 -19t-4 -16z" />
    <glyph glyph-name="c" unicode="c" horiz-adv-x="515" 
d="M199 464q4 6 7 19l8 28l3 13l13 46q6 21 12.5 44.5t13 46t13 42t11.5 33.5q23 5 52.5 8.5t56.5 3.5h14h246l2 -2q4 -5 7 -10.5t1 -10.5l-15 -56l-102 -130q-9 -12 -16 -23.5t-15 -21.5t-18.5 -16t-25.5 -6h-2q-9 0 -18.5 2t-5.5 14q6 24 19 47.5t29.5 46.5t35 45t36.5 42
l-3 7h-208q-9 -15 -17.5 -36.5t-18.5 -53t-22 -75l-28 -101.5q-11 -42 -25 -92.5t-31 -111.5l-17 -64q-5 -17 -9 -34t-9 -36h229q3 10 5.5 23t7.5 30q7 27 20 50t36 23h2q8 0 14 -1.5t8 -10.5q-2 -19 -5.5 -36t-8.5 -36l-16 -58l-3 -9q-2 -4 -5 -11.5t-7 -15t-8.5 -13
t-10.5 -5.5h-1h-337q-2 9 -7 14.5t-2 16.5z" />
    <glyph glyph-name="FL0065h" unicode="d" horiz-adv-x="695" 
d="M60 39q6 21 20.5 26t31.5 5l111 1l159 595q-2 2 0.5 3.5t2.5 3.5q3 7 -26 7l-20 -1q-20 0 -37.5 0.5t-24.5 0.5q-3 0 -15 2t-14 3q-5 3 -3.5 10t3.5 15t4 13.5t3 7.5q-1 0 -3 2.5t-2 3.5q1 2 4.5 6t4.5 4h454q-3 -13 -3.5 -25.5t-4.5 -26.5l-3 -9q-3 -2 -10.5 -4.5
t-12.5 -2.5h-125l-5 -9l197 -292l-1 -5q-32 -28 -72 -64t-85 -76t-93 -82t-95 -82h53l74 -9l9 -5q2 -1 4 -7t0 -14q-2 -6 -5 -9l-26 -25h-439l-10 4q-6 0 -5 8t3 16zM295 67l45 21l304 282l-165 273q-1 4 -4.5 9.5t-5.5 6.5h-3h-3q-3 -1 -6 -4.5t-6 -5.5z" />
    <glyph glyph-name="e" unicode="e" horiz-adv-x="499" 
d="M59 34l188 700l41 26h358l3 -6l-1 -9l-3 -11q-4 -14 -7 -23.5t-8 -15.5t-14 -9t-24 -5q-26 -2 -44 -3.5t-38 -1.5h-180l-20 -13q-1 -3 -8.5 -26t-17 -55t-19.5 -67t-16 -61q0 -2 1.5 -3t1.5 -2q20 -4 44 -7.5t45 -3.5h83q20 0 39 -1t37 -4q8 -19 2 -36l-2 -9q-2 -3 -7 -6
q-26 -16 -47 -27t-39.5 -22.5t-36 -25t-36.5 -34.5q-3 -2 -8.5 -3.5t-7.5 -1.5q-21 0 -28 14.5t-12 32.5t-13 32.5t-30 14.5q-6 0 -14 -19t-17.5 -47.5t-19 -62.5t-17.5 -64q-8 -32 -13.5 -57t-9.5 -39h248q6 0 11 17q4 13 6.5 29.5t7.5 34.5q7 26 21.5 47t45.5 21
q14 0 14 -15q0 -14 -4 -28l-5 -19l-51 -160h-382q-1 1 -0.5 6l1 10t1 9.5t0.5 5.5zM313 378q1 -2 5.5 -7l9 -10t8.5 -9.5t6 -5.5h4q4 0 13 3.5t18 9t16 12.5t9 13q1 3 -4.5 4.5t-13 3t-15.5 3t-12 3.5q-15 0 -21.5 -3.5t-22.5 -16.5z" />
    <glyph glyph-name="f" unicode="f" horiz-adv-x="582" 
d="M138 329l-82 -325q-1 -2 6.5 -3.5t15.5 -1.5h5q33 0 44 6t16 25q2 8 2.5 15t-1.5 18l76 283q47 -17 76.5 -43.5t55.5 -66.5h46l8 6l5 20l69 217q-30 0 -59 -6.5t-58 -14t-58 -14.5t-59 -8l1 3l12 28l3 11q7 21 17.5 53.5t20 63.5t17 53.5t7.5 23.5l9 16q1 1 16.5 2.5
t25.5 1.5h124q64 0 100 0.5t55.5 1t27.5 2.5t16 5h2q8 0 14.5 3t9.5 14l2 6q-2 4 -3 11t-2 13.5t-2 11.5t-2 5h-426l-29 -7q-1 0 -3.5 -5.5t-5 -13t-5 -15.5t-3.5 -13q-3 -6 -8.5 -25t-13.5 -47t-18 -64t-21 -76l-30 -112zM334 382q31 24 62 24q-1 -2 3.5 -6t2.5 -12
q-2 -6 -5 -15.5t-6.5 -18.5t-8.5 -15.5t-9 -6.5l-19 12q-3 1 -5.5 6.5t-4.5 12t-4.5 12t-5.5 7.5z" />
    <glyph glyph-name="g" unicode="g" horiz-adv-x="621" 
d="M63 47q0 -2 -0.5 -9.5t-0.5 -15.5t1 -15t4 -7h378q1 0 3.5 3.5t4.5 7.5q14 20 20.5 43.5t13.5 44.5q0 2 2 8.5t4 13.5q2 8 3.5 14.5t2.5 9.5q14 9 34.5 23t43 29.5t44.5 31t40 27.5l4 15l-2.5 4t-6.5 9t-7.5 10t-6.5 8l-25 26q-2 3 -15 11.5t-27.5 18t-27 18.5t-14.5 13
l-7 1q-7 0 -35.5 -16.5t-60.5 -38t-58 -42.5t-29 -31q-6 -21 8.5 -38.5t33 -35t32.5 -36.5t7 -44l-2 -7l-3 -10l-2 -10l-2 -5l-11 -6h-242h-12l142 532l8 30l8 29l7 11q2 0 6.5 -0.5t9.5 -0.5t9.5 0.5t6.5 0.5l203 -1l-48 -166q-2 -5 -1 -12.5t6 -7.5h63l11 5l3 11q2 8 4 15
t7 15l46 170q0 2 1 9t1 14q0 8 -1.5 14t-5.5 6h-364q0 -2 -4.5 -12t-6.5 -13q-1 -4 -8 -5q-52 -170 -96 -333.5t-94 -333.5zM422 268l68 33h10l68 -41q0 -1 -2.5 -5t-5.5 -6l-6 -4l-67 -27l-6 -6h-5z" />
    <glyph glyph-name="h" unicode="h" horiz-adv-x="599" 
d="M68 68l-17 -64l5 -4h79q9 22 15 45l7 25l76 286q7 10 21.5 25t33.5 31.5t40 33t40 31.5t34.5 26.5t24.5 16.5h1q3 0 5 -2l119 -176v-2q-5 -5 -19 -24.5t-30 -41.5t-30.5 -41t-19.5 -23l-93 -103l-18 -8l-33 58q-6 8 -9.5 10.5t-14.5 2.5t-26 -9.5t-18 -20.5l-1 -2
q-1 -4 0.5 -10t4 -12t5.5 -11.5t5 -8.5l13 -26l17 -34q4 -5 6 -9t4 -6q4 -5 15 -12t16 -9h3q10 0 30.5 15t45 38t51.5 51.5t51.5 56.5t44 51t28.5 36l61 97q4 13 0.5 20.5t-11.5 18.5l-147 218l-1 0.5t-2 0.5h-1q-3 0 -5 3t-6 3h-15q-1 0 -16 -5q0 -1 -3 -1h-3
q-12 -6 -24 -14t-31 -24t-47.5 -41.5t-72.5 -66.5l72 266q6 24 3 31t-5 7h-46q0 -1 -3.5 -1.5t-8.5 -2.5t-10 -6.5t-9 -13.5l-125 -471q-14 -55 -28 -104t-28 -94z" />
    <glyph glyph-name="i" unicode="i" horiz-adv-x="469" 
d="M78 4q-9 8 -14 18.5t-2 23.5q7 23 26 29t42 6l46 -2q18 0 26 4q13 38 25 76t25 82t28 98t34 125l61 227q-17 0 -27 -1.5t-25 -1.5q-13 0 -23 2t-19 10q-8 5 -10 4.5t-1 2.5l3 8q1 4 5 11t9 14t11.5 12t12.5 5h301q1 0 1.5 -6t0 -13.5t-1.5 -14.5t-1 -8q-2 -7 -8.5 -10
t-11.5 -5q-10 -2 -28.5 -3.5t-61.5 -1.5h-21q-8 0 -13 -1t-14 -5l-3 -13q-3 -13 -7.5 -24.5t-10.5 -24.5q0 -5 -4 -18l-5 -19l-10 -37l-127 -473h122q18 0 20 -10.5t-2 -24.5l-3 -9l-39 -32q-1 0 -14.5 -0.5t-31.5 -1.5t-37.5 -1.5t-32.5 -0.5h-11q-7 0 -17.5 -0.5
t-23.5 -0.5h-42q-26 0 -48 1t-48 4z" />
    <glyph glyph-name="j" unicode="j" horiz-adv-x="591" 
d="M60 21l53 201q2 6 9 26.5t15 44.5t15 44.5t9 25.5l4 14q2 8 5 17.5t8 17.5t12 13t18 5l55 -5q52 0 101.5 1.5t99.5 3.5l39 -11q4 -1 4.5 -6.5t0 -12.5t-2 -14t-2.5 -10q-8 -26 -19 -53t-21 -53q0 -2 -5 -16.5t-11 -33.5t-12 -38.5t-9 -31.5q-6 -24 -26.5 -31t-41.5 -7
q-11 0 -21.5 1t-18.5 1h-5q-3 -1 -12 -1h-9h-19h-39q-27 0 -20 25l4 14q5 17 11.5 31t11.5 29h-6l25 94q1 5 7 8.5t13 5t13 2t9 0.5q6 0 11 -1.5t5 -9.5q0 -2 0.5 -2.5t-0.5 -2.5q-5 -30 -11 -65.5t-13 -62.5h51l1 -1q4 0 11 5q9 21 16 39t13 35.5t11.5 35t10.5 37.5l3 9
q2 8 3 15.5t2 9.5l-4 5h-41q-10 0 -29 -1t-38 -1.5t-35 -1.5t-20 -1q-14 -2 -20.5 -6t-11.5 -22l-7 -25l-58 -176q-1 -3 -3 -13t-4.5 -20.5t-3.5 -20.5t-1 -13q8 -5 13.5 -5.5t16.5 -0.5q17 0 28 1.5t29 4.5h214q27 87 48 152.5t36 114.5t24.5 82.5t15.5 55.5q8 30 10.5 43
t4.5 18l-1 21q0 3 -4 8.5t-9.5 12t-10.5 13.5t-8 13q-3 5 -10 15.5t-15.5 22t-16 21.5t-11.5 14q-14 4 -25 15t-6 27q4 16 13 25t21 14t26 6.5t27 1.5l160 -7l31 -9l-11 -42q-15 -8 -21 -18.5t-11 -23.5q-4 -9 -8 -20.5t-12 -35.5t-21 -66.5t-35.5 -112.5t-55.5 -173.5
t-79 -250.5h-422q-3 0 -4 8.5zM161 400q5 0 2 -7q0 -4 -5 -4q-3 0 -3 4q3 7 6 7zM582 691q3 -7 8.5 -18l11.5 -23t13 -22.5t13 -15.5l26 76l-4 1.5t-9 3t-10.5 3t-7.5 1.5h-8z" />
    <glyph glyph-name="k" unicode="k" horiz-adv-x="496" 
d="M61 41q37 127 66.5 236t53.5 196t43.5 150.5t35.5 100.5l17 17t25 6q23 0 24 -10.5t-2 -30.5v-5q-2 -7 -3 -14.5t-3 -15.5l-9 -34q-11 -38 -22 -74t-16 -53q3 7 23 24t48.5 39t62.5 46.5t63.5 47t51.5 39.5t28 25q5 11 9 13.5t12 2.5q13 0 24 -11.5t8 -24.5l-2 -5
q-3 -12 -11 -17q-61 -50 -123.5 -95t-118.5 -99q46 -4 102.5 -8t103.5 -10q6 -1 8.5 -8.5t2 -19t-3.5 -24.5t-6 -25l-21 -79l-94 -321h-64l110 409q0 1 -10.5 3t-25.5 3.5t-31 2.5t-26 1h-14q-33 0 -62.5 -1t-64.5 -9l-20 -9q-2 -9 -6 -26t-11 -40l-20 -78
q-23 -85 -37.5 -135.5t-23.5 -77.5t-14.5 -35t-9.5 -8h-47q-1 0 -1.5 3.5t-0.5 7.5q-1 5 0 16.5t2 13.5zM512 695q-5 0 -6 -6q-2 -5 3 -5q3 0 5 5q1 6 -2 6z" />
    <glyph glyph-name="l" unicode="l" horiz-adv-x="575" 
d="M58 4q0 20 3.5 35t7.5 30l7 24l18 68l26 95l29 110q11 42 22.5 83t21.5 77t18 65t14 48q10 34 16 52.5t9 27.5t4 11.5t3 5.5l27 15h37q4 0 4.5 -11.5t0 -26t-2 -27.5t-2.5 -16l-159 -591q30 0 64.5 10t71.5 25.5t73.5 33.5t71.5 34q21 8 39.5 20t40.5 12h3q8 0 14 -1.5
t6 -10.5l-4 -52q-1 -26 -2 -62.5t-9 -66.5l-6 -17l-13.5 -3t-9.5 -1h-108q-1 4 -16 4q-16 0 -42 -0.5t-56 -0.5t-61.5 -1t-58.5 -1t-46.5 -0.5t-26.5 -0.5h-22q-7 0 -7 4zM357 73l3 -6l8 -1t18.5 -1.5t21.5 -1.5t19 -1q2 0 11.5 -1t17.5 -1h7l12 49q0 8 -1 9.5t-6 1.5
q-6 0 -10 -1.5t-13 -4.5q-8 -4 -21.5 -9.5t-27 -11.5t-23.5 -10.5t-10 -5.5z" />
    <glyph glyph-name="m" unicode="m" horiz-adv-x="769" 
d="M61 42l3 -22q-4 -14 -3.5 -18.5t8.5 -4.5q5 0 11.5 1t16.5 1q13 0 29 11t33.5 26.5t35.5 31.5t35 25q19 10 40.5 17.5t43 12.5t42.5 7.5t39 2.5l-31 -100q-5 -16 -3.5 -24.5t20.5 -8.5q29 0 42.5 18.5t19.5 41.5l14 53q2 9 5.5 15t9.5 6q34 0 62 -20.5t48.5 -44.5
t31.5 -44.5t12 -20.5h52l14 37q3 2 21.5 50.5t47.5 153.5q5 21 10 42.5t11 45.5l15 54l1 3v2q1 6 1.5 12t2.5 11q13 48 28 94.5t35 97.5q11 26 23.5 49t19.5 49l4 16q2 5 2 9t1 6q0 21 -22 21q-17 0 -26.5 -6t-16.5 -16t-12 -22t-13 -24q-28 -40 -63 -62l-107 -47
q-2 -2 -15 -5.5t-18 -3.5q-7 -2 -18.5 -4t-16.5 -2h-3l-3 6l2.5 14t6 33.5t8 41.5t8.5 38l9 35q3 11 0 16t-9 13q-6 3 -12 3q-14 0 -27 -11t-17 -25v-2l-33 -141q-2 -5 -3.5 -7t-11.5 -7q-19 8 -38.5 13.5t-37 12.5t-31.5 18.5t-21 31.5l-40 88q1 4 -2.5 7.5l-3.5 3.5h-48
l-8 -11l-22 -84q-1 -2 -3 -7t-4 -13t-4 -14.5t-3 -9.5zM304 593l12 -22q19 -17 32 -32t38 -21q7 -2 22.5 -4.5t32.5 -5.5t31.5 -7t20.5 -9q2 -2 0.5 -10t-9.5 -37l-55 -207q0 -1 -2 -5.5t-4 -9.5t-4 -9.5t-3 -6.5l-3 -3t-4 -2q-47 -7 -91 -17.5t-91 -28.5q-16 -6 -28 -15
t-29 -14v15q-1 1 5 23q6 21 19 60.5t29.5 88.5t33.5 102t30 101q5 22 9.5 40.5t7.5 35.5zM498 202l-10 5l78 291l7 5q17 8 38 7.5t37 3.5q11 3 30.5 10.5t38.5 15.5t33.5 14.5t14.5 7.5l-114 -423h-2q-2 0 -2 1q-18 13 -33.5 23t-32.5 17.5t-37 13t-46 8.5z" />
    <glyph glyph-name="n" unicode="n" horiz-adv-x="600" 
d="M466 0l45 168q2 2 -13 17t-39.5 37t-53.5 47t-55 48t-45.5 41t-24.5 24q-2 0 -8 2t-12.5 4.5l-13 5t-8.5 3.5q-7 -6 -9 -14l-93 -347l-16 -9q-2 -9 -5.5 -18t-11.5 -9h-46l-5 4q1 2 4 15t6 24l167 626l21 64q2 2 8 5t12.5 6t11.5 5t6 2h37q4 0 2 -5q0 -4 -1 -9l1 -22
l-50 -184q-1 -3 16 -22.5t44 -46.5t59 -57.5t61 -56.5t52 -43t30 -17l11 1q5 13 11 33t13 42.5t13.5 45.5t11.5 43l48 176q-1 2 1 11l3 11l6 21q10 35 21 70v2q8 8 22 10t21 2q21 0 23 -13.5t-3 -31.5l-7 -23q-18 -57 -33.5 -111.5t-30.5 -109.5l-117 -437l-16 -30h-71z" />
    <glyph glyph-name="o" unicode="o" 
d="M69 39q7 23 26 28.5t40 5.5h129l30 6q-11 29 -29.5 67.5t-39 79.5t-40.5 80.5t-34 69.5l12 18l271 273l6 9q1 2 -0.5 4l-1.5 2q-8 0 -25.5 -0.5t-38.5 -0.5q-20 0 -36.5 0.5t-24.5 0.5q-4 0 -16 2.5t-14 2.5q-5 3 -3 10t4 15l5 21l-1.5 2.5t-1.5 3.5q1 2 4.5 6l3.5 4h497
q-4 -13 -3.5 -26t-4.5 -27q0 -2 -1.5 -5.5l-1.5 -3.5q-2 -2 -10.5 -5t-12.5 -3h-172l161 -271l-2 -7q-45 -48 -88 -94.5t-81.5 -88.5t-70 -79.5t-52.5 -68.5q5 0 15 -0.5t21 -1.5t21.5 -1.5t15.5 -0.5h101l5 -13q2 -2 6 -10.5t1 -19.5l-2 -7l-6 -16h-551l-9 6q-6 0 -5.5 7
t2.5 15zM277 304q13 -28 27.5 -60t28.5 -61t27 -51t24 -29l5 6l203 234l41 57l1 4v4t-2 5q-16 30 -31.5 54.5t-31 48t-31.5 47.5t-33 53q-2 3 -6 8.5t-5 6.5l-1 0.5t-2 0.5t-1.5 -0.5l-0.5 -0.5q-5 -6 -25.5 -27t-52.5 -52.5t-72.5 -71.5t-83.5 -85z" />
    <glyph glyph-name="p" unicode="p" horiz-adv-x="646" 
d="M51 4l1 4q6 21 11 33t12.5 18t18.5 7.5t28 1.5q11 0 26.5 1.5t36.5 3.5l147 552q1 22 -4 28t-16 6l-23 -1q-15 0 -28 1.5t-27 3.5l3 18l4 14q4 13 10 24.5t15 15.5q10 5 19 6t19 1h462q10 -3 13 -14t1.5 -27.5t-6.5 -37t-11 -41.5l-90 -336q-7 -23 -19 -40t-39 -17h-239
q-9 0 -14.5 11t-3.5 19q1 4 2.5 11t2.5 14.5t2 13.5t1 8l69 259q4 15 14 25t24 15t30 7t32 2t29 -1t24 -1h33l12 -6q8 -3 5.5 -14.5t-4.5 -21.5q-3 -9 -2 -10l-10 -52l-37 -124q-5 -8 -14.5 -9.5t-19.5 -1.5h-18h-10q-5 0 -3 5l42 156l-3 10l-5 0.5t-7 0.5h-11
q-9 0 -18.5 -2.5t-13.5 -13.5q-16 -45 -29 -89.5t-25 -87.5l-12 -46l8 -11h156l98 364q0 4 -13 4h-233q-8 0 -17.5 -2t-13.5 -9q-2 -5 -6 -15.5t-8 -23t-7.5 -26t-6.5 -22.5l-132 -494h186l-13 -67q-5 -1 -20 -1.5t-36.5 -1t-48.5 -1t-55 -0.5h-74h-128q-11 0 -23 4z" />
    <glyph glyph-name="q" unicode="q" horiz-adv-x="892" 
d="M65 57l-2 -48q5 0 17 -4.5t17 -4.5q52 1 100 1.5t93 0.5h162q61 0 102 -0.5t68 -1t42.5 -1t25.5 -0.5q11 0 19.5 1t22.5 3h3q8 0 15.5 7t12.5 16l38 104q0 1 5.5 6.5l13 13t15.5 14.5t14 12q20 17 42.5 37t44.5 35l3 8q2 6 2.5 9.5t-4.5 8.5q-3 7 -11 24t-18 36t-19 36
t-13 23q-7 13 -8.5 18t-13.5 5q-4 0 -18.5 -8t-34 -20t-41.5 -27t-41 -29t-32 -25t-14 -15l58 -171q0 -2 -2.5 -8t-5.5 -12.5t-6.5 -12t-6.5 -5.5h-194l44 162l32 122q8 31 17 61t18 61q6 21 10.5 43t11.5 47q6 23 13 47t18 44l8 11q2 3 3 12.5t2 20.5q0 2 1 5v4q0 2 -3 11
t-7 9h-384q-24 0 -39.5 -19.5t-21.5 -39.5l-152 -570q-8 -16 -12.5 -29t-9.5 -28zM172 83l21 124l122 453q1 2 4.5 3.5t6.5 2.5q1 0 7.5 0.5t11.5 0.5q3 0 9 -0.5t8 -0.5l7 -1h197l14 -25l-149 -557h-259zM748 280q1 6 9 13t18.5 13.5t22 12t20.5 8.5l1 0.5t2 0.5
q3 0 9 -8.5t11 -20t8.5 -22.5t2.5 -15q-1 -3 -11 -11.5t-22 -18t-22.5 -17t-13.5 -8.5h-6l-29 70l-0.5 0.5t0.5 2.5z" />
    <glyph glyph-name="r" unicode="r" horiz-adv-x="654" 
d="M462 99l-192 177l-87 -272l-40 -8l-27 14q-3 1 -2 10q2 6 3 12t2 8q3 9 14 44.5t27 88.5t35 118t39 132.5t39.5 132.5t35.5 117l-28 -4h-5q-19 0 -31 7t-6 31q6 23 25 33q9 1 30 2t46.5 1.5t53 1t49.5 0.5h45h122q24 0 45.5 -1.5t53.5 -3.5q-3 -60 -18 -123.5t-32 -126.5
l-33 -123l-5 -15q-63 -12 -107 -19.5t-89 -13.5h-36l1 -3q0 -2 2 -7.5t4 -7.5l107 -120q29 -23 57.5 -52.5t54.5 -55.5q7 -5 13 -14.5t6 -11.5l-2 -6l-52 -41q-1 0 -7 3.5t-11 7.5q-2 2 -12 10t-15 10l-2 5zM406 672q-13 0 -18.5 -6.5t-9.5 -19.5l-71 -264q66 0 129.5 7
t125.5 12q6 11 13 33t14 46l33 125q1 7 3.5 17.5t4.5 20.5t3 17l1 7l-9 3q-1 0 -9 0.5t-16 0.5z" />
    <glyph glyph-name="s" unicode="s" horiz-adv-x="655" 
d="M107 211l1 7q50 57 102.5 117t114.5 108q1 0 2.5 0.5t3.5 0.5q13 0 28 -12.5t30 -29.5t27.5 -33.5t21.5 -24.5q9 -10 17 -15.5t15 -11t13.5 -12.5t12.5 -19l-1 -3q-4 -13 -23.5 -37t-43.5 -48t-47 -41.5t-34 -17.5t-29 10t-35 23.5t-28.5 28.5t-8.5 26q5 17 17.5 33
t31.5 16q9 0 18 -8t16.5 -17.5t14 -16.5t11.5 -5q2 0 6.5 3.5t7.5 7.5l5.5 5.5t9 10t8.5 9.5t6 5q0 6 -5 12.5t-11.5 13t-13 12.5t-9.5 10q-2 2 -8 7.5t-13 11.5t-13 11t-8 7q-12 -11 -31 -27.5t-37 -36t-33 -39.5t-19 -36l-1 -2l33 -32l38 -31q7 -7 19.5 -20.5t27 -26.5
t28.5 -23t25 -10q2 0 3 0.5l1 0.5q6 4 15 12.5t18.5 17.5t17.5 16.5t11 10.5q4 6 17.5 21t29 32t29.5 31.5t19 20.5q4 3 12.5 10.5t17 16.5t15 17.5t7.5 12.5l2 6q0 4 -4 5q-5 3 -15 12t-20.5 19t-20 19t-14.5 12q-14 12 -37 32t-45.5 40.5t-39 36t-18.5 18.5l-38 57v6
q4 13 13.5 24.5t21 21.5t24 19t22.5 18q4 4 19.5 18.5t33 31t32.5 30.5t19 19q17 16 29 22t32 10q2 -3 10.5 -8t18.5 -10.5t19.5 -10.5t13.5 -8q13 -8 30 -18t32.5 -22.5t27 -27t13.5 -32.5q-4 -3 -10.5 -9t-14 -12t-16.5 -10.5t-17 -4.5q-6 0 -24.5 14.5t-39.5 32t-39 32
t-24 14.5q-5 0 -22.5 -14.5t-37 -33t-37 -36.5t-23.5 -25q-2 -2 -5.5 -6t-3.5 -5q-2 -9 15 -28.5t44 -45t60 -54t62.5 -54.5t52 -46.5t27.5 -31.5l-24 -32l-95 -105q-19 -20 -46.5 -50t-57.5 -58.5t-60.5 -49t-55.5 -20.5q-14 0 -28 4t-25 12q-21 21 -48 45.5t-53 50.5
t-49.5 53t-38.5 53z" />
    <glyph glyph-name="t" unicode="t" horiz-adv-x="639" 
d="M331 212h5l-57 -212h67q2 6 3.5 11t8.5 10q12 35 22 69t20 69l9 35l5 17l2 9q2 6 1 9q12 16 31 30t38.5 26.5t35 24.5t18.5 25q2 8 -7 21.5t-21 28.5t-23.5 30t-14.5 26q-3 13 0 29t5 33l52 167l12 8h228l17 64h-539l-17 -64h207q2 0 2.5 -3t1.5 -5q0 -17 -5.5 -43
t-10.5 -44q-6 -24 -15 -44l-20 -77q-4 -4 -10.5 -11.5t-10.5 -9.5l-138 -109q-9 -9 -10 -16q-4 -14 10.5 -28t34.5 -27t39 -25.5t24 -23.5zM336 328l1 4q1 2 3 5.5t5 4.5q4 4 13.5 11.5t19.5 15t19 14.5t13 10q11 -13 19.5 -27t16.5 -29l1 -2q-1 -1 -1.5 -2l-0.5 -1l-5 -5
q-3 -3 -11.5 -9.5t-18 -13t-18 -12.5t-11.5 -7l-3 2q-11 8 -22.5 17.5t-19.5 22.5v1z" />
    <glyph glyph-name="u" unicode="u" horiz-adv-x="577" 
d="M61 40l10 39l15 55l17 65l19 70l29 109l57 213l23 85q1 2 2 5l1 3q1 4 4.5 11.5t8.5 15.5t10.5 14t10.5 6h41q5 0 4 -6v-7q0 -4 1 -9t1 -9v-5l-168 -627h12q16 0 38.5 -0.5t43.5 -0.5h42q17 0 43.5 1t51.5 2t43 2l18 1l7 4l146 547q7 25 11.5 39.5t9 23.5t11.5 14.5
t18 13.5l7 6q2 2 5 8.5t4 6.5h47l-0.5 -4t-1 -10t-1.5 -12t-1 -10l-9 -31q-1 -6 -1.5 -12.5t-2.5 -12.5l-7 -23l-142 -531l-4 -23q2 -2 2.5 -15t-3.5 -26q-6 -22 -22 -22h-8q-49 -2 -87.5 -3.5t-78.5 -1.5h-54h-222q2 9 3 20t-4 21z" />
    <glyph glyph-name="v" unicode="v" horiz-adv-x="660" 
d="M121 192l2 5q2 1 8.5 6.5t14.5 12.5t15 13.5t10 8.5q5 5 22 20t39.5 35t47.5 41t45.5 38.5t34 28t12.5 8.5l-127 277l-3 11q-2 2 -1.5 8t0.5 7l61 30l4 -1q5 -5 15 -20t15 -21q0 -2 7 -20t15.5 -40t15.5 -40.5t7 -19.5q2 -6 8.5 -20.5t13.5 -31t13.5 -31t9.5 -20.5
l10 -12l3 1q79 69 159 142t170 139h5q5 0 10 -5t9 -12t5.5 -15t0.5 -13q-2 -9 -3.5 -9.5t-12.5 -8.5l-311 -275q-2 -3 5 -18.5t17.5 -38.5t24 -49t24 -50t17.5 -42t5 -24l-1 -5q-26 -22 -62 -48.5t-74.5 -53.5t-74.5 -51.5t-61 -41.5q-15 11 -29.5 25.5t-27.5 30t-24.5 30
t-19.5 26.5q-6 9 -19.5 18.5t-25.5 21t-20 24.5t-4 29zM241 158l75 -80q15 10 35 24.5t41.5 30.5t42 31.5t34.5 28.5h1v1l-69 143l-32 -15l-154 -129z" />
    <glyph glyph-name="w" unicode="w" horiz-adv-x="737" 
d="M51 4l176 655l22 69q1 4 9 10q1 1 1 2q8 7 10 8.5t7 1.5h7q16 0 24 -4.5t9.5 -16t-2.5 -31t-12 -48.5l-156 -582h205q8 7 14.5 19t13.5 32.5t13.5 51.5t14.5 77q-5 20 -20 38.5t-30 38t-24 40t-2 44.5l3 10l196 152q3 0 10.5 2t11.5 2q1 0 10.5 -12t22.5 -30.5t27.5 -40
t27 -41t20 -34t6.5 -17.5q-4 -16 -21 -25t-27 -17q-8 -6 -23 -17.5t-31 -23t-28.5 -21t-15.5 -11.5q-5 -4 -11.5 -10.5t-13.5 -13t-12 -11.5t-5 -6l-45 -171q11 -3 56 -4t138 -1l17 63q25 91 44.5 160.5t33.5 123.5l67 250l8 28q2 7 4 12.5t4 10.5q1 6 8 11t16 9t18 6t14 2
q11 0 14.5 -3t5.5 -13l-183 -682q-4 -16 -10 -25t-13 -13.5t-13.5 -6t-10.5 -1.5h-601zM410 399q-1 -2 -1 -4v-2l49 -72h10l107 80l-57 87q-9 -6 -26 -16.5t-34 -23t-31 -25.5t-17 -24z" />
    <glyph glyph-name="x" unicode="x" horiz-adv-x="854" 
d="M61 41q2 8 10.5 17.5t19 19.5t21 19.5t16.5 16.5l319 317q2 2 4.5 5t3.5 5l2 5q-2 6 -7 22.5t-11.5 35t-12 35t-6.5 22.5q-8 26 -14 54t-14 54q-1 3 -4.5 8.5t-7.5 13t-6.5 14.5t-0.5 13l4 8q11 8 24 17.5t27 9.5q13 0 22 -16t14.5 -37t9 -42t5.5 -31q2 -7 7 -25
t11 -37.5t12 -37t10 -23.5q35 25 62.5 56t63.5 65q37 34 75.5 67t76.5 60q2 0 8.5 0.5t11.5 0.5h5q19 0 38.5 -16t37 -37.5t30.5 -44.5t20 -38l-1 -5q-2 -9 -10 -14t-18 -11l-127 -89q-6 -3 -6 -4t-2 -6l-2 -6l35 -46q4 -8 5.5 -10t-0.5 -10q-4 -14 -23 -20.5t-32 -6.5
q-1 0 -4.5 0.5t-4.5 0.5q-7 6 -22 15t-29.5 20.5t-24 24t-6.5 25.5q3 12 13 22t22.5 18t25 15.5t21.5 14.5l83 57l4.5 3l1.5 1l2 6l1 5q-11 17 -23.5 32.5t-27.5 29.5q-37 -25 -67.5 -56.5t-60 -63.5t-60.5 -63t-67 -55l-0.5 -1.5t-1.5 -3.5q-2 -6 2.5 -14t6.5 -13
q25 -76 48 -156.5t49 -153.5q-1 -2 -0.5 -6t2.5 -5h2q18 0 40 14t37 28q-5 9 -16 22t-22.5 27t-19 28t-4.5 26q2 7 15.5 18.5t33.5 23.5t43 24t43.5 22t36 16t20.5 6q14 0 21.5 -13t3.5 -27q-2 -5 -2.5 -7.5t-6.5 -5.5l-116 -61l-1 -6q-3 -10 5 -24t17.5 -29t16.5 -30.5
t4 -27.5q-3 -10 -30.5 -28t-62 -36t-66.5 -31t-44 -13q-8 0 -14 3t2 14l-89 306q-2 5 -5.5 15.5t-11.5 10.5q-1 0 -2 -0.5l-1 -0.5q-2 0 -7 -6.5t-8 -8.5q-7 -7 -20.5 -19t-30 -27t-34 -31t-32.5 -30t-26.5 -24.5t-14.5 -13.5q-9 -8 -27 -25.5t-40 -39t-45.5 -44.5
t-45 -41.5t-38 -30.5t-23.5 -12q-11 7 -18 22.5t-6 19.5z" />
    <glyph glyph-name="y" unicode="y" horiz-adv-x="574" 
d="M329 315l-88 -315h70l99 368h158q16 0 30 12t25 29q16 39 25.5 66t17.5 56l39 143l6 47q0 1 1 2.5t2 4.5q2 8 -4 8h-41q-4 0 -7 -5q-3 -3 -6.5 -9.5t-6.5 -13.5t-5.5 -12.5t-2.5 -6.5l-30 -111q-4 -13 -10 -33.5t-12 -40t-11 -34l-5 -14.5l-7 -10l-41 -6h-257
q-5 0 -12.5 0.5t-8.5 0.5l-4 4q0 1 1 8.5t3.5 17.5t4.5 20.5t4 16.5q2 7 5.5 22t8.5 33l21 80q6 20 10.5 34.5t6.5 22.5q-4 7 -6.5 19.5t-10.5 16.5q-1 1 -7 1q-20 0 -30.5 -10.5t-11.5 -14.5l-53 -198q-2 -8 -7.5 -25t-10 -36t-7 -36t0.5 -24l12 -23q-1 -2 -6 3t-4 5l23 -6
h151q0 -2 -1 -8.5t-2.5 -14t-3 -14.5t-2.5 -10z" />
    <glyph glyph-name="z" unicode="z" horiz-adv-x="695" 
d="M59 34q3 10 12 23.5t20.5 27t23.5 25.5l20 20q67 71 132 138.5t130.5 134t132 132.5t135.5 135q-5 5 -8 5.5t-7 0.5h-59q-18 0 -31 -0.5t-23 -0.5q-11 0 -20.5 -0.5t-20.5 -0.5q-23 -1 -48.5 -2t-47.5 -1.5t-36 -1l-14 -0.5l-5 -6l-61 -227q-1 -4 -6 -6t-11.5 -3
t-13 -1.5t-10.5 -0.5h-18q-16 0 -10 24l37 136l16 61q4 14 9.5 30.5t12.5 33.5q8 22 27.5 26.5t35.5 4.5h5q86 3 167 -1t169 -4h103q7 -5 6 -11.5t-3 -14.5l-10 -37q-10 -8 -33 -27.5t-49.5 -41t-49.5 -41.5t-33 -29q-31 -29 -56.5 -57.5t-55.5 -57.5l-34 -30
q-54 -46 -104 -98.5t-99 -104.5q-20 -20 -39.5 -42t-40.5 -57l118 -2l22 4q23 10 52 30.5t60.5 45t64 50.5t62.5 47.5t55.5 35t43.5 13.5q21 0 17 -21l-25 -145l-8 -31v-62v-5q-2 -7 -7 -15.5t-12 -15.5t-15 -11.5t-15 -4.5h-532q-10 0 -15.5 11.5t-2.5 22.5zM449 88
q11 -5 24.5 -7t27.5 -2h49l14 1q10 0 21 -3q8 4 9.5 8t3.5 10l4 14q1 5 4.5 17.5t6.5 26.5t5.5 26.5t2.5 17.5v2q3 10 -5 10q-2 0 -4 -1l-2 -1l-130 -98q-2 -2 -7 -5l-10 -6t-9 -6t-5 -4zM815 730q4 0 2 -5t-5 -5q-5 0 -3 5t6 5z" />
    <glyph glyph-name="FL007Bh" unicode="{" horiz-adv-x="571" 
d="M160 411l15 35q22 19 38 34.5t30 29t28.5 27.5t32.5 31q18 18 43 41.5t53.5 48.5t58 49.5t56.5 44.5q2 0 8.5 0.5t11.5 0.5h5q19 0 38.5 -16t37 -37.5t30.5 -44.5t20 -38l-1 -5q-2 -9 -9.5 -14t-17.5 -11l-128 -89q-6 -3 -6 -4t-2 -6q-1 -1 -1 -3v-3l35 -46l5 -10t-1 -10
q-2 -7 -8.5 -12t-14.5 -8.5t-16.5 -5t-14.5 -1.5q-1 0 -4.5 0.5t-4.5 0.5q-8 6 -23 15t-29.5 20.5t-24 24t-6.5 25.5q3 12 13 22t22.5 18t25 15.5t21.5 14.5l83 57l4.5 3l1.5 1l2 6l1 5q-10 17 -22.5 32.5t-27.5 29.5q-37 -25 -70 -55t-64.5 -61.5t-61.5 -63t-60 -58.5
l-0.5 -1.5t-1.5 -3.5q-2 -6 2.5 -14t6.5 -13q25 -76 48 -156.5t49 -153.5q-1 -2 0 -6t3 -5h2q17 0 39 14t37 28q-5 9 -16 22t-22.5 27t-19 28t-4.5 26q2 7 15.5 18.5t33.5 23.5t43 24t43.5 22t36 16t20.5 6q14 0 21.5 -13t3.5 -27l-2 -8q0 -1 -6 -5l-116 -61l-2 -6
q-3 -10 5 -24t17.5 -29t17 -30.5t4.5 -27.5q-3 -10 -30.5 -28t-62 -36t-67 -31t-44.5 -13q-8 0 -14 3t2 14z" />
    <glyph glyph-name="FL007Ch" unicode="|" horiz-adv-x="184" 
d="M25 -92l32 -21q0 -1 8 -1q6 0 13 2.5t13 5.5t10.5 7t5.5 7l193 719l4 15q3 11 7 24.5t8 27.5l7 26l6 22l3 14q3 3 3 7q2 7 2.5 17t-0.5 19.5t-3 16.5t-5 7q-14 0 -25 -4t-19.5 -9.5t-13.5 -10.5t-6 -8q0 -2 2 -2l-11 -30l-138 -515l-7 -27q-7 -25 -17.5 -64t-21.5 -77
t-20 -68t-12 -37z" />
    <glyph glyph-name="FL007Dh" unicode="}" horiz-adv-x="571" 
d="M631 411l5 35q-12 19 -21 34t-16 29t-13.5 28t-15.5 31q-8 18 -20.5 41.5t-27 48.5t-31 49.5t-33.5 44.5q-2 0 -7.5 0.5t-10.5 0.5h-6q-19 0 -47 -16t-57 -37.5t-55 -44.5t-41 -38l-1 -5q-2 -9 2.5 -14t11.5 -11l80 -89q5 -3 5.5 -4t-1.5 -6q-3 -3 -3 -6l-59 -46
q-8 -8 -11.5 -10t-5.5 -10q-2 -7 2 -12t10.5 -8.5t14.5 -5t14 -1.5q1 0 5.5 0.5t5.5 0.5q10 6 29.5 15t40 20.5t37 24t19.5 25.5q3 12 -1.5 22t-12 18t-16.5 15.5t-14 14.5l-52 57l-4.5 4.5t1.5 5.5l1 5q40 34 85 62q23 -25 40 -55t31 -61.5t27.5 -63t29.5 -58.5l0.5 -1.5
t-0.5 -3.5q-2 -6 -10.5 -14t-13.5 -13q-63 -76 -130.5 -156.5t-132.5 -153.5q-1 -2 -3.5 -6t-4.5 -5h-2q-17 0 -32 14t-23 28q9 9 27.5 22t37.5 27t34 28.5t18 25.5q2 7 -6 18t-21 23.5t-29.5 24.5t-32 22t-27.5 16t-16 6q-14 0 -28.5 -13t-18.5 -27l-2 -8q0 -2 4 -5l82 -61
l0.5 -2t-0.5 -4q-3 -10 -18 -24t-33 -29t-34 -30.5t-19 -27.5q-3 -10 15 -28t43 -36t50.5 -31t37.5 -13q8 0 16 3t6 14z" />
    <glyph glyph-name="FL007Eh" unicode="~" horiz-adv-x="487" 
d="M408 399l99 74l50 -24l-25 -25q-19 -15 -36 -29.5t-34.5 -28t-36.5 -26.5t-41 -23q-2 0 -8 -1.5t-9 -1.5q-2 0 -10.5 10t-19.5 25l-46 42l-99 -74l-51 24l26 25q37 29 70 57.5t78 49.5q2 0 8 1.5t9 1.5q1 0 9 -10.5t20 -25.5z" />
    <glyph glyph-name="FL007Fh" horiz-adv-x="171" 
 />
    <glyph glyph-name="FL00A1h" unicode="&#xa1;" horiz-adv-x="316" 
d="M248 472l74 -8q-5 -25 -10.5 -48t-10.5 -43l-23 -85l-60 -224q10 8 8.5 -2.5t-13.5 -25.5t-34 -27t-54 -8l21 79q7 23 19 49l4 18l5 19l10 36zM397 736l35 -86q4 -5 4 -12q0 -6 -2 -11q-3 -12 -12 -16q-8 -5 -21.5 -14t-27.5 -18t-25.5 -16.5t-15.5 -9.5
q-7 -5 -18.5 -11.5t-12.5 -6.5l-3.5 -0.5t-5.5 -0.5q-10 0 -10.5 1.5t-6.5 9.5l-52 101l2 8l9 8t16 13q16 12 29 21.5t26 18.5t27 18.5t32 21.5q2 0 5.5 0.5t4.5 0.5q11 0 16 -4.5t7 -15.5zM381 635q-3 6 -5.5 15t-6 18t-7.5 17t-9 12q-8 -6 -13 -7l-53 -40v-2
q-2 -5 0.5 -13.5t6.5 -17.5t9 -17t10 -11q6 3 15.5 8t20 11.5t19.5 13.5t13 13z" />
    <glyph glyph-name="FL00A2h" unicode="&#xa2;" horiz-adv-x="453" 
d="M149 -74l32 -21q0 -1 8 -1q6 0 13 2.5t13 5.5t10.5 7t5.5 7l20 74h116q6 0 11 6t9.5 14t7.5 15.5t5 11.5l3 9l16 58q5 19 8.5 36t5.5 36q-2 9 -8 10.5t-14 1.5h-2q-23 0 -36 -23t-20 -50q-5 -17 -7.5 -30t-5.5 -23h-70l109 407q4 -6 11.5 -6.5t14.5 -0.5q15 0 25.5 6
t18.5 16t15 21.5t16 23.5l102 130l15 56q2 5 -1 10.5t-7 10.5l-2 2h-135l4 12l2 14q4 1 5 7q2 7 2 17t-1 19.5t-3.5 16.5t-5.5 7q-14 0 -25 -4t-19 -9.5t-12.5 -10.5t-5.5 -8q0 -2 1 -2l-10 -30l-8 -29q-30 0 -60 -1t-56 -6q-12 -25 -20.5 -49t-15.5 -49l-1 -6v-7l-26 -98
q-5 -18 -10.5 -35t-12.5 -35l-116 -431q-3 -11 2 -16.5t7 -14.5h104q-2 -2 -4 -11zM234 407q16 58 28.5 101.5t23.5 75t20.5 53.5t18.5 37h32l-111 -412l-7 -26l-9 -34q-8 -28 -17.5 -63t-20.5 -67h-44q27 109 48 190.5t38 144.5zM496 674l3 -5q-29 -33 -60.5 -72t-48.5 -79
l34 127l8 29h64z" />
    <glyph glyph-name="FL00A3h" unicode="&#xa3;" horiz-adv-x="582" 
d="M166 434l92 325q1 2 9 3.5t16 1.5h5q33 0 40.5 -6t2.5 -25q-2 -7 -5 -14.5t-11 -18.5l-76 -283q56 17 100 43.5t91 66.5h46l5 -6l-6 -20l-47 -217q-30 0 -56 6.5t-50.5 14.5t-50 15t-54.5 8l-1 -4l-3 -28l-3 -11q-5 -21 -11.5 -54t-13.5 -63.5t-12 -53t-5 -23.5l1 -15
l4 -1t10.5 -1.5t13.5 -1.5t12 -1h124q64 0 100 -0.5t54.5 -1t26 -2.5t13.5 -5h2q8 0 13 -3t2 -14l-1 -5q-5 -5 -10 -12t-9.5 -14t-8 -11.5t-4.5 -4.5h-426l-25 7q-1 0 -0.5 5.5t2 13t3 15.5t3.5 13q1 7 5 26t11 46.5t16 63t20 75.5l31 113zM334 382q18 -25 49 -25q0 2 6.5 6
t8.5 12q2 6 4 15.5t3 18.5t-0.5 15.5t-5.5 6.5l-25 -12q-3 -1 -8.5 -6.5l-11.5 -11.5l-11.5 -11.5t-8.5 -7.5z" />
    <glyph glyph-name="FL00A5h" unicode="&#xa5;" horiz-adv-x="573" 
d="M181 220q14 -3 30.5 -4t33.5 -1h56l-20 -72h-118q-5 0 -10 -9.5t-7 -17.5l-4 -15q-2 -8 -2.5 -13t1.5 -12q14 -3 30.5 -4t33.5 -1h55l-19 -71h69l19 71q39 0 62.5 0.5t36.5 1.5t17.5 1.5t5.5 0.5l8 6l13 51l7 6q-4 5 -11.5 6.5t-15.5 1.5q-9 0 -13 -3h-91l20 72
q39 0 63 0.5t37 1.5t17.5 1.5t5.5 0.5l6 6l14 51l8 6q-5 5 -12 6.5t-15 1.5q-10 0 -14 -3h-91l22 81h158q16 0 30 12t25 29q16 39 25.5 66t17.5 56l39 143l6 47q0 1 1 2.5t2 4.5q2 8 -4 8h-41q-4 0 -7 -5q-3 -3 -6.5 -9.5t-6.5 -13.5t-5.5 -12.5t-2.5 -6.5l-30 -111
q-4 -13 -10 -33.5t-12 -40t-11 -34l-5 -14.5l-7 -10l-41 -6h-257q-5 0 -12.5 0.5t-8.5 0.5l-4 4q0 1 1 8.5t3.5 17.5t4.5 20.5t4 16.5q2 7 5.5 22t8.5 33l21 80q6 20 10.5 34.5t6.5 22.5q-4 7 -6.5 19.5t-10.5 16.5q-1 1 -7 1q-20 0 -30.5 -10.5t-11.5 -14.5l-53 -198
l-12 -43q-6 -23 -10.5 -45.5t-1.5 -32.5l9 -17l16 -4h151q0 -2 -1 -8.5t-2.5 -14t-3 -14.5t-2.5 -10l-10 -38h-118q-5 0 -10 -9.5t-7 -17.5l-4 -15q-2 -8 -2.5 -13t1.5 -12zM176 370l-3 6l-7 2q-1 0 4 -5t6 -3z" />
    <glyph glyph-name="FL00A6h" unicode="&#xa6;" horiz-adv-x="184" 
d="M25 -92l32 -21q0 -1 8 -1q6 0 13 2.5t13 5.5t10.5 7t5.5 7l193 719l4 15q3 11 7 24.5t8 27.5l7 26l6 22l3 14q3 3 3 7q2 7 2.5 17t-0.5 19.5t-3 16.5t-5 7q-14 0 -25 -4t-19.5 -9.5t-13.5 -10.5t-6 -8q0 -2 2 -2l-11 -30l-138 -515l-7 -27q-7 -25 -17.5 -64t-21.5 -77
t-20 -68t-12 -37z" />
    <glyph glyph-name="FL00A8h" unicode="&#xa8;" horiz-adv-x="438" 
d="M257 608l-23 62q-2 4 -2 7q0 4 2 9q2 8 6.5 11t14.5 9q14 10 29 20l18 12q4 3 12 8t9 5l2 0.5t4 0.5q6 0 6.5 -1.5t4.5 -7.5l34 -71l-1 -5l-6.5 -6t-10.5 -9q-23 -18 -38.5 -29t-38.5 -27q-2 -1 -5 -1h-2q-12 0 -15 13zM451 610l-23 61q-3 7 0 16q2 8 7 12q5 3 14.5 9.5
t19.5 13t17.5 11.5t9.5 6q4 3 12.5 8.5t9.5 5.5l2 0.5t4 0.5q6 0 6.5 -1.5t4.5 -7.5l34 -71l-2 -6l-6.5 -6t-10.5 -9q-11 -9 -20 -15.5t-18 -12.5t-18 -12.5t-21 -15.5q-1 -1 -3 -1h-3q-8 0 -11 3t-5 11z" />
    <glyph glyph-name="FL00A9h" unicode="&#xa9;" horiz-adv-x="451" 
d="M270 497l-22 49l29 31q30 33 57 59t58 58q2 6 8 6l1 1q1 0 1.5 -0.5l0.5 -0.5l6 -9q10 -19 19 -35t17.5 -31.5t17.5 -31.5t19 -34q2 -1 1.5 -3.5l-0.5 -2.5l-1 -3l-23 -28l-125 -152l-3 -4q-6 5 -13.5 19.5t-15 33t-16 39.5t-16.5 39zM285 300l52 -3q13 20 37.5 50.5
t54 65t61 70.5l59.5 68l1 4l-105 195h-60l-184 -204l-6 -3q7 -20 20 -53.5t26.5 -69.5t25.5 -69t18 -51zM322 563l-25 -91q0 -2 1.5 -3.5t2.5 -3.5h81q3 0 4.5 4t2.5 6l1 2l3 12l2 8q2 4 1 8q0 2 -6 2q-7 0 -9.5 -5t-4.5 -10l-3 -12h-51q5 23 10 40.5l9 31.5q7 25 10.5 37
t7.5 18h47v-1q-9 -8 -18 -17.5t-12 -20.5q-1 -2 2.5 -2.5t5.5 -0.5q8 0 11 4.5t8 9.5l25 27l4 12q0 2 -3 5h-57q-8 0 -16.5 -0.5t-16.5 -1.5q-4 -14 -6.5 -23.5t-4.5 -14.5l-4 -16z" />
    <glyph glyph-name="FL00AAh" unicode="&#xaa;" horiz-adv-x="384" 
d="M348 706l-205 -372q-5 -8 -7.5 -15.5t-4.5 -15.5h32l4 2l28 44q9 14 15.5 29t18.5 28q0 -5 2.5 -15.5t5.5 -22.5t5.5 -22.5t3.5 -14.5q1 -8 2 -18.5t12 -10.5q8 0 13 5.5t13 11.5q1 2 6 9t11.5 15t12.5 15.5t8 9.5q5 6 13 15t15 9q-1 -5 -3.5 -19.5t-3.5 -30t1 -28
t10 -12.5t19 3t13 11q0 1 -0.5 2l-0.5 1q2 5 4.5 22.5t4.5 41.5t4 51.5t4 52.5t3.5 45t2.5 29q0 7 0.5 27t1.5 42.5t1.5 42.5t-0.5 28l1 6h95q14 0 17 14q1 2 2 5t2 7q5 17 -2 18q-38 3 -73 3h-101q-22 0 -44 -0.5t-43 -2.5q-8 -7 -10 -10t-4 -9q-2 -5 -2.5 -15.5t4.5 -10.5
h93zM268 431l53 -4h6l-18 -24l-3 -2q-3 -5 -11.5 -14.5t-13.5 -9.5l-1 1q-1 3 -3.5 10t-5 15t-3.5 15.5t0 12.5zM271 485v2q20 36 38 69.5t38 69.5l19 38q1 1 2.5 3.5l1.5 2.5l3 -3l-1 -97q2 -4 1 -7l-3 -9q0 -2 -1.5 -12.5t-2.5 -22.5t-2 -22.5t0 -12.5q-1 -1 -0.5 -3
t-0.5 -4q-3 -11 -14 -13.5t-19 -2.5q-5 0 -15.5 2t-20.5 5.5t-17 7.5t-6 9z" />
    <glyph glyph-name="FL00ABh" unicode="&#xab;" horiz-adv-x="440" 
d="M244 407l45 -98q-6 -5 -6 -8q-1 -2 0 -2.5t1 -1.5q-2 -2 -2 -4q-8 -6 -17.5 -17t-20.5 -11q-3 0 -17.5 19t-31 41.5t-29 42t-12.5 21.5q1 3 4 8.5t4 7.5q31 39 66 64.5t72 54.5l30 19l9 -57zM425 406l45 -98q-6 -4 -7 -8q0 -2 1 -2.5t0 -1.5q0 -2 -2 -4q-7 -6 -16.5 -17
t-20.5 -11q-3 0 -17.5 19t-31 41.5t-29 42t-12.5 21.5q1 3 3.5 8.5t3.5 7.5q32 39 67 64.5t72 54.5l30 19l9 -57z" />
    <glyph glyph-name="FL00ACh" unicode="&#xac;" horiz-adv-x="426" 
d="M451 432q4 3 14 3q7 0 14 -1.5t11 -6.5l-6 -6l-40 -147q4 -1 1 -12q-2 -8 -5.5 -16t-10.5 -13l-3 5h-51l-6 6q0 1 1 5t3.5 16t8 34.5t15.5 60.5h-180q-17 0 -33 1t-31 3q-2 8 -1 13t3 13l4 15q2 8 6.5 17.5t10.5 9.5h275z" />
    <glyph glyph-name="FL00ADh" unicode="&#xad;" horiz-adv-x="343" 
d="M153 364q-2 8 -1 13t3 13l4 15q2 8 6.5 17.5t10.5 9.5h191q5 4 14 4q8 0 15 -2t11 -7l-7 -5l-14 -51l-6 -7q-1 0 -6 -0.5t-19.5 -1t-41 -1t-71.5 -0.5l-25 -1q-17 0 -33 1t-31 3z" />
    <glyph glyph-name="FL00AEh" unicode="&#xae;" horiz-adv-x="451" 
d="M270 497l-22 49l29 31q30 33 57 59t58 58q2 6 8 6l1 1q1 0 1.5 -0.5l0.5 -0.5l6 -9q10 -19 19 -35t17.5 -31.5t17.5 -31.5t19 -34q2 -1 1.5 -3.5l-0.5 -2.5l-1 -3l-23 -28l-125 -152l-3 -4q-6 5 -13.5 19.5t-15 33t-16 39.5t-16.5 39zM285 300l52 -3q13 20 37.5 50.5
t54 65t61 70.5l59.5 68l1 4l-105 195h-60l-184 -204l-6 -3q7 -20 20 -53.5t26.5 -69.5t25.5 -69t18 -51zM322 563l-25 -91q0 -2 1.5 -3.5t2.5 -3.5l21 15q5 23 10 40.5l9 31.5q7 25 10.5 37t7.5 18h47v-1q-9 -8 -18 -17.5t-12 -20.5q-1 -2 2.5 -2.5t5.5 -0.5q8 0 11 4.5
t8 9.5l25 27l4 12q0 2 -3 5h-57q-8 0 -16.5 -0.5t-16.5 -1.5q-4 -14 -6.5 -23.5t-4.5 -14.5l-4 -16z" />
    <glyph glyph-name="FL00AFh" unicode="&#xaf;" horiz-adv-x="520" 
d="M239 685q14 -3 30.5 -4t33.5 -1h162q59 0 93.5 1t53 1.5t24.5 1.5t7 1l7 6l14 51l6 6q-4 5 -11 6.5t-15 1.5q-10 0 -13 -3h-368q-6 0 -11.5 -10t-7.5 -18l-4 -15q-2 -8 -2.5 -12.5t1.5 -12.5z" />
    <glyph glyph-name="FL00B0h" unicode="&#xb0;" horiz-adv-x="244" 
d="M254 597l-24 61q-2 8 1 16q2 8 7 12q5 3 14.5 9.5t19.5 13t18 11.5t9 6q4 3 12 8.5t9 5.5l2.5 0.5t4.5 0.5q6 0 6 -2q0 -1 4 -7l34 -71l-1 -6l-6.5 -6t-11.5 -9q-11 -9 -20 -15.5t-17.5 -12.5t-18 -12.5t-21.5 -15.5q-1 -1 -3 -1h-3q-8 0 -10.5 3t-4.5 11z" />
    <glyph glyph-name="FL00B1h" unicode="&#xb1;" horiz-adv-x="432" 
d="M335 573q9 4 13.5 5t12.5 1h15q8 0 17 -2.5t7 -7.5l-31 -118h87q4 3 14 3q8 0 15 -2t11 -7l-7 -5l-14 -51l-7 -7q-1 0 -5.5 -0.5t-16.5 -1t-35 -1t-61 -0.5l-23 -86q2 -4 -1 -12q-2 -8 -5.5 -16t-9.5 -13l-5 5h-51l-5 6q0 1 0.5 5t3 16t8 34.5t16.5 60.5h-55
q-17 0 -33.5 1t-30.5 3q-2 8 -1.5 13t2.5 13l4 15q2 8 7 17.5t10 9.5h116l15 57q5 17 10 33.5t13 31.5zM84 85q-2 7 -1.5 12t2.5 13l4 15q2 8 7 17.5t10 9.5h276q4 3 13 3q8 0 15 -1.5t11 -6.5l-6 -6l-14 -51l-7 -6q-1 0 -6 -0.5t-19 -1.5t-41 -1.5t-72 -0.5h-108
q-17 0 -33 1t-31 4z" />
    <glyph glyph-name="FL00B4h" unicode="&#xb4;" horiz-adv-x="412" 
d="M429 735q14 17 28 17q6 0 8 -2l22 -31v-2q-1 -2 -1.5 -2.5l-0.5 -0.5l-7 -11l-111 -124q0 -1 -1 -2l-1 -1q-2 -8 11 -26.5t31 -39t35.5 -38l23.5 -23.5q3 -4 3 -10q0 -5 -1 -10.5t-0.5 -9.5t5.5 -6q-8 -11 -23 -15t-25 -6h-92q-9 1 -30 3.5t-44.5 4.5t-44 4.5t-29.5 3.5
q-20 20 -13 48l1 4q2 1 5 5t5 5q62 69 122.5 134t123.5 131zM256 465q3 -1 16 -2t27.5 -2t27.5 -1.5t17 -0.5h10l-46 73h-11zM169 402q-4 0 -2 6q2 5 5 5q5 0 3 -5q-2 -6 -6 -6z" />
    <glyph glyph-name="FL00B6h" unicode="&#xb6;" horiz-adv-x="626" 
d="M507 652q7 0 25.5 1.5t35.5 1.5q12 0 20 -2t6 -7l-22 -77t-18 -65q-18 -66 -28 -108.5t-15 -68t-6 -36.5t-1 -14l-59 -273l36 -8l34 14q5 2 7 10q2 6 2 12v9q-1 8 7 43.5t21 88.5t29.5 118t34 132.5t33.5 132.5t28 117l26 -4h5q19 0 35 7t22 31q6 23 -7 33q-9 1 -29 2
t-45 1.5t-52 1t-49 0.5h-168q-23 0 -46 -1.5t-56 -3.5q-29 -60 -48 -123.5t-36 -126.5l-33 -123l-4 -15q25 -5 47 -7.5t37 -9t20.5 -21t-1.5 -42.5q-3 -10 -7.5 -22.5t-12.5 -27.5q-43 -46 -91 -82t-87 -62q-10 -5 -21 -14.5t-12 -11.5l-1 -5l29 -42q1 0 9.5 4t14.5 7
q4 2 17.5 10t19.5 10l6 5l105 63l93 90q9 6 18 26t19 47t20 58.5t21 60.5z" />
    <glyph glyph-name="FL00B7h" unicode="&#xb7;" horiz-adv-x="402" 
d="M203 222l-49 124q-6 18 -2 34q3 14 17 23q9 6 28.5 18.5t40 26t37 24.5t20.5 14q5 3 15.5 9.5t18.5 10.5q10 6 12.5 7t10.5 1q13 0 14.5 -3t8.5 -14l71 -145l-3 -11l-4 -4t-9.5 -8.5t-11.5 -10t-9 -8.5q-22 -18 -41 -32t-37.5 -27t-38.5 -26t-43 -29q-3 -1 -8 -1.5
l-5 -0.5q-16 0 -22 6t-11 22zM226 367q3 -9 7 -21.5t9 -25.5t11.5 -24t12.5 -17q3 2 9 5.5t8 4.5l74 57l1 3q2 8 -1.5 20t-9 25t-12.5 24t-12 17q-9 -5 -23.5 -12.5t-28.5 -16.5t-26.5 -19t-18.5 -20z" />
    <glyph glyph-name="FL00B8h" unicode="&#xb8;" horiz-adv-x="214" 
d="M78 0l8 -23q-1 -5 -16.5 -17.5t-35 -26.5t-37 -26.5t-23.5 -16.5q-7 -5 -8.5 -13.5t-8.5 -10.5q1 -8 9.5 -10.5t13.5 -4.5h61l103 10q10 8 17 16.5t9 18.5v1q0 1 -0.5 4t-0.5 4q-12 32 -17.5 52.5t-13.5 42.5h-60zM119 -98q-3 -1 -12 -2t-19 -1.5t-18.5 -1t-11.5 -0.5h-7
l58 51h7zM153 -142q2 0 4 3q2 5 -2 5q-2 0 -4 -5q-2 -3 2 -3z" />
    <glyph glyph-name="FL00BAh" unicode="&#xba;" horiz-adv-x="402" 
d="M285 586q6 9 18 19.5t26 19.5t28.5 16.5t23.5 11.5q6 -5 13 -16t12.5 -24t8.5 -25.5t1 -19.5l-1 -3l-73 -57q-2 -1 -8.5 -4.5t-9.5 -5.5q-6 6 -12 17t-11 24t-9 25.5t-7 21.5zM262 441q4 -17 10.5 -22.5t22.5 -5.5q1 0 5.5 0.5t6.5 1.5q24 16 44 29t38.5 26t37.5 27
t41 32q3 3 9 8t11.5 10t9.5 9l4 4l3 11l-71 145q-6 11 -8.5 14t-15.5 3q-3 0 -7.5 -0.5t-5.5 -1.5t-9 -5.5t-18.5 -11t-15.5 -9.5q-4 -3 -20.5 -14t-37 -24.5t-40 -26t-28.5 -18.5q-14 -9 -17 -23q-5 -18 1 -34z" />
    <glyph glyph-name="FL00BBh" unicode="&#xbb;" horiz-adv-x="440" 
d="M414 407l-97 -98q2 -3 2 -8q-1 -2 -2 -2.5t-1 -1.5v-4q3 -6 7 -17t15 -11q2 0 14.5 9t29.5 22.5t36.5 29t36.5 29.5t28 23.5t11 10.5q1 3 1 8q0 6 1 8q-6 19 -14.5 35t-18.5 29.5t-21 26.5t-22 28l-20 19l-39 -57zM233 406l-97 -98q2 -4 1 -8q0 -2 -1 -2.5t-2 -1.5v-4
q4 -6 8 -17t15 -11q2 0 14.5 9t29.5 22.5t36.5 29t36.5 29.5t28 23.5t11 10.5q1 3 0.5 8.5t0.5 7.5q-11 39 -32 64.5t-43 54.5l-20 19l-39 -57z" />
    <glyph glyph-name="FL00BDh" unicode="&#xbc;" horiz-adv-x="1231" 
d="M1251 262q0 -2 -3 -3l-21 -27h-67l31 -51q1 0 0 -6l-2 -6q-6 -23 -31 -27l-71 12l-28 -76q-14 -15 -33 -15q-14 0 -31 7t-38 20l-94 -71l-39 -7l-34 39l-161 -65l-20 7l11 39l-194 -25l-20 12l16 32l-192 13l7 26l29 20l-114 19q-22 0 -16 25l55 33l-75 33l2 33l85 12
l-33 45l19 39l86 -6q24 91 58 91h5l77 -25q71 65 109 76l58 -38l150 58l24 -20l-12 -19l5 -6l157 25l51 -5l-18 -39h179l12 -14q-8 -32 -41 -38l141 -33q1 -1 0 -4l-1 -4q-8 -32 -63 -38q90 -30 85 -48zM1226 253l-5 12l-106 52l80 20h8l-4 12l-164 33l71 39h-202l27 45
l-202 -25l4 39l-14 5l-152 -58l-48 39l-103 -77q-11 -3 -18 -3q-25 0 -65 29l-39 -91l-95 7l-1 -27l37 -58l-99 -7l111 -58l-90 -32l171 -34l-70 -37l207 -8l-34 -45l196 33l15 -26l-14 -25l167 63l58 -38l94 78l91 -27l32 92l93 -14q3 3 4 6q5 20 -40 79zM1091 298l-38 -84
l-21 3l28 87zM1047 178l-26 -18l-12 14l20 12zM993 185q-33 0 -66 56l-15 -55l-20 -2l28 114l55 -73l26 79l22 -6zM868 186l-16 4q-6 27 -23 27t-41 -27h-27q21 57 84 114q10 3 18 3q26 0 26 -36zM775 304l-37 -112l-33 -8l44 116zM679 181q-33 0 -65 56l-16 -56l-20 -3
l28 115l57 -73l25 80l22 -7zM582 261q-33 -80 -73 -80q-6 -1 -11.5 -1.5t-10.5 -0.5q-37 0 -40 20q19 72 77 99q4 0 5.5 0.5t0.5 0.5h8q42 0 44 -38zM465 302l-10 -28q-4 3 -14 3q-16 0 -39 -16q-25 -19 -33 -47q-6 -22 22 -22q12 0 27 3l-4 -20q-15 -2 -22 -3.5t-6 -1.5
q-40 0 -38 51q-1 0 1 8l2 7q15 52 114 66zM354 300l-37 -113l-32 -9l43 117zM858 241l-6 39l-37 -39h43zM553 244q3 8 -1 14q-5 15 -20 15q-23 0 -48 -36q-1 -1 -4 -8q-7 -28 15 -28q17 0 38 10q16 17 20 33z" />
    <glyph glyph-name="FL02C1h" unicode="&#xbd;" horiz-adv-x="1132" 
d="M1174 345l-59 -138l-25 4l45 145zM1106 148l-37 -28l-16 23l30 18zM1034 159q-44 0 -83 94l-25 -92l-27 -4l46 188l71 -118l41 129l26 -11zM866 161l-18 8q-8 42 -30 42t-56 -42h-36q31 94 123 186q11 7 24 7q35 0 29 -60zM755 356l-58 -186l-46 -13l70 193zM617 153
q-47 0 -83 92l-25 -92l-29 -5l47 190l71 -119l40 131l29 -11zM493 284q-51 -131 -103 -131q-9 -1 -16 -2t-14 -1q-50 0 -51 33q31 119 109 162q8 4 12 4h8q58 0 55 -65zM342 353l-18 -46q-5 4 -18 4q-25 0 -53 -27q-37 -35 -47 -75q-10 -37 28 -37q27 0 35 4l-7 -32
q-12 -6 -20.5 -7t-17.5 -1q-53 0 -45 83q2 9 2 13q0 5 2 12q24 88 159 109zM193 350l-58 -186l-45 -16l69 194zM860 253l-6 62l-51 -62h57zM454 257q4 15 1 23q-8 24 -27 24q-30 0 -68 -59l-4 -13q-12 -47 16 -47q16 0 53 19q12 13 18.5 26.5t10.5 26.5z" />
    <glyph glyph-name="FL00BEh" unicode="&#xbe;" horiz-adv-x="1186" 
d="M1204 253l-5 12l-106 52l80 20h8l-4 12l-164 33l71 39h-202l27 45l-202 -25l4 39l-14 5l-152 -58l-48 39l-103 -77q-11 -3 -18 -3q-25 0 -65 29l-39 -91l-95 7l-1 -27l37 -58l-99 -7l111 -58l-90 -32l171 -34l-70 -37l207 -8l-34 -45l196 33l15 -26l-14 -25l167 63
l58 -38l94 78l91 -27l32 92l93 -14q3 3 4 6q5 20 -40 79zM1069 298l-38 -84l-21 3l28 87zM1025 178l-26 -18l-12 14l20 12zM971 185q-33 0 -66 56l-15 -55l-20 -2l28 114l55 -73l26 79l22 -6zM846 186l-16 4q-6 27 -23 27t-41 -27h-27q21 57 84 114q10 3 18 3q26 0 26 -36z
M753 304l-37 -112l-33 -8l44 116zM657 181q-33 0 -65 56l-16 -56l-20 -3l28 115l57 -73l25 80l22 -7zM560 261q-33 -80 -73 -80q-6 -1 -11.5 -1.5t-10.5 -0.5q-37 0 -40 20q19 72 77 99q4 0 5.5 0.5t0.5 0.5h8q42 0 44 -38zM443 302l-10 -28q-4 3 -14 3q-16 0 -39 -16
q-25 -19 -33 -47q-6 -22 22 -22q12 0 27 3l-4 -20q-15 -2 -22 -3.5t-6 -1.5q-40 0 -38 51q-1 0 1 8l2 7q15 52 114 66zM332 300l-37 -113l-32 -9l43 117zM836 241l-6 39l-37 -39h43zM531 244q3 8 -1 14q-5 15 -20 15q-23 0 -48 -36q-1 -1 -4 -8q-7 -28 15 -28q17 0 38 10
q16 17 20 33z" />
    <glyph glyph-name="FL00BFh" unicode="&#xbf;" horiz-adv-x="646" 
d="M648 193l-2 -6q-28 -23 -64 -46.5t-75 -46t-77.5 -43.5t-70.5 -39q-17 -8 -31.5 -11.5t-28.5 -3.5q-26 0 -45.5 18t-35 43t-27 51.5t-20.5 43.5l-41 92l-7 27q13 11 43 29t69 39t83.5 44t87.5 43.5t80.5 37t61.5 25.5q5 2 10 -0.5t9.5 -6.5t8.5 -8t8 -5q2 0 0 -2
q0 -2 -1.5 -3.5l-1.5 -1.5l-37 -27q-4 -2 -29 -16.5t-57 -33t-65.5 -36.5t-53.5 -28l-22 -11t-33.5 -17t-33.5 -16.5t-22 -10.5q-6 -2 -7 -4t-2 -5q-1 -4 1.5 -11.5t6.5 -15t8 -14.5t7 -9q1 -5 7.5 -18t13.5 -28t13 -28t8 -18q1 -2 5 -9t9 -15t10 -15t9 -10l0.5 -0.5
t2.5 -0.5q10 0 29.5 8.5t40 20t39.5 23t29 17.5l53 27l49 28l1 3q4 14 -1 31t-13.5 33.5t-18.5 31t-17 24.5q-3 -2 -11.5 -6.5t-17.5 -9.5t-18 -9.5t-14 -6.5q-4 -3 -13 -8t-19 -10.5t-18.5 -11.5t-11.5 -12q1 0 3.5 -4t4.5 -9t3.5 -9t2.5 -5q2 -2 4 -5.5t4 -3.5
q4 -2 14.5 4.5t22.5 14.5t24.5 15.5t22.5 7.5q19 0 23.5 -14.5t0.5 -28.5q-3 -9 -22 -22.5t-43 -25.5t-47 -20.5t-33 -8.5q-11 0 -25 15.5t-25.5 36t-18.5 41.5t-4 33l1 2q12 11 21.5 17t19 10.5t20 9.5t24.5 14q12 7 33 21.5t43.5 29t44 25.5t35.5 11h5q19 -20 33.5 -44
t26.5 -50.5t21.5 -53t19.5 -50.5zM632 745l41 -82q6 -12 3 -21q-3 -10 -14 -17q-7 -5 -21.5 -13.5t-29.5 -16.5t-27 -15t-15 -9t-8.5 -5t-10.5 -6t-9.5 -5t-5.5 -2l-3.5 -0.5t-5.5 -0.5q-11 0 -12 1.5t-7 9.5l-59 96l2 8l9 7.5t17 11.5q16 12 29.5 21t27.5 17.5t29.5 17.5
t33.5 20l9 1q14 0 19.5 -3.5t7.5 -14.5zM618 649q-5 13 -13 32t-20 27q-8 -7 -14 -8l-55 -37l-1 -2q-2 -6 1 -14t8 -16t11 -15t10 -11q7 3 17.5 8t21.5 11t20 12.5t14 12.5z" />
    <glyph glyph-name="FL00C0h" unicode="&#xc0;" horiz-adv-x="569" 
d="M404 658l-333 -606q-9 -13 -13 -26l-8 -26h53l7 4l46 73q14 23 25.5 48t30.5 46q2 -7 6 -24.5t8.5 -37.5t8.5 -37.5t6 -24.5q1 -6 1.5 -14.5t2.5 -16t6.5 -12.5t13.5 -5q14 0 22 8.5t21 18.5q2 4 10.5 15.5t19 25t20 25.5t13.5 17q4 4 9.5 11t12 13.5t13 11t12.5 4.5
q-2 -8 -6.5 -32.5t-6 -50.5t2 -46.5t17.5 -20.5q12 0 30 4t22 18v5q4 8 8 37.5t7.5 69.5t7 86t6.5 88t5 75t4 48v44t-0.5 66t-1 66t-1.5 44l3 11h158q14 0 19.5 5.5t8.5 16.5q1 3 2.5 8.5t3.5 11.5q3 11 4 20t-7 11q-32 2 -62 3.5t-60 1.5h-168q-36 0 -73 -1t-71 -4
q-13 -11 -17.5 -16.5t-7.5 -15.5q-1 -4 -2 -11t-1 -15q0 -7 1.5 -12.5t5.5 -5.5h155zM278 213l88 -6h10l-31 -41l-2 -2q-3 -4 -8.5 -10.5t-12 -13t-13 -11.5t-10.5 -5l-1 1q-2 5 -6.5 16.5t-8 24.5t-5.5 26t0 21zM283 303l1 3q32 60 62.5 116.5t62.5 116.5l32 62q2 2 4.5 6
l2.5 4l5 -4l-3 -162q5 -5 3 -11l-4 -15q-1 -3 -2.5 -20.5t-3.5 -38t-3.5 -38t-1.5 -21.5q-1 -1 -1 -5t-1 -6q-5 -18 -23 -22t-32 -4q-9 0 -26 3.5t-33.5 9t-28.5 12.5t-10 14zM574 799l-41 66q5 6 8 16q1 5 -4 13.5t-12.5 16.5t-14.5 14.5t-9 7.5q-2 3 -7.5 8.5t-6.5 5.5
l-2 0.5t-4 0.5q-6 0 -7 -1.5t-8 -7.5l-49 -46l-1 -6l3.5 -6t5.5 -9q5 -9 22 -20.5t36.5 -23.5t37.5 -23t25 -19q0 -1 2 -1h3q8 0 12.5 3t10.5 11z" />
    <glyph glyph-name="FL00C1h" unicode="&#xc1;" horiz-adv-x="569" 
d="M283 303q-2 -7 10 -14t28.5 -12.5t33.5 -9t26 -3.5q14 0 32 4t23 22q1 2 1 6t1 5q0 4 1.5 21.5t3.5 38t3.5 38t2.5 20.5l4 15q2 6 -3 11l3 162l-5 4l-2.5 -4t-4.5 -6l-32 -62q-32 -60 -62.5 -116.5t-62.5 -116.5zM278 213q-2 -8 0 -21t5.5 -26t8 -24.5t6.5 -16.5l1 -1
q4 0 10.5 5t13 11.5t12 13t8.5 10.5l2 2l31 41h-10zM249 658q-4 0 -5.5 5.5t-1.5 12.5q0 8 1 15t2 11q3 10 7.5 15.5t17.5 16.5q34 3 71 4t73 1h168q30 0 60 -1.5t62 -3.5q8 -2 7 -11t-4 -20q-2 -6 -3.5 -11.5t-2.5 -8.5q-3 -11 -8.5 -16.5t-19.5 -5.5h-158l-3 -11
q1 -13 1.5 -44t1 -66t0.5 -66v-44q-2 -15 -4 -48t-5 -75t-6.5 -88t-7 -86t-7.5 -69.5t-8 -37.5v-5q-4 -14 -22 -18t-30 -4q-14 0 -17.5 20.5t-2 46.5t6 50.5t6.5 32.5q-6 0 -12.5 -4.5t-13 -11t-12 -13.5t-9.5 -11q-4 -5 -13.5 -17t-20 -25.5t-19 -25t-10.5 -15.5
q-13 -10 -21 -18.5t-22 -8.5q-9 0 -13.5 5t-6.5 12.5t-2.5 16t-1.5 14.5q-2 7 -6 24.5t-8.5 37.5t-8.5 37.5t-6 24.5q-19 -21 -30.5 -46t-25.5 -48l-46 -73l-7 -4h-53l8 26t13 26l333 606h-155zM428 796l77 66q-2 5 0 16q1 5 11 13.5t22 16.5t22 14.5t13 7.5q4 3 12.5 8.5
t9.5 5.5l2 0.5t4 0.5q6 0 6.5 -1.5t4.5 -7.5l23 -46l-1 -6l-6.5 -6t-10.5 -9q-11 -9 -34 -20.5t-48.5 -23.5t-49 -23t-35.5 -19q-1 -1 -3 -1h-3q-8 0 -11 3t-5 11z" />
    <glyph glyph-name="FL00C2h" unicode="&#xc2;" horiz-adv-x="569" 
d="M404 658l-333 -606q-9 -13 -13 -26l-8 -26h53l7 4l46 73q14 23 25.5 48t30.5 46q2 -7 6 -24.5t8.5 -37.5t8.5 -37.5t6 -24.5q1 -6 1.5 -14.5t2.5 -16t6.5 -12.5t13.5 -5q14 0 22 8.5t21 18.5q2 4 10.5 15.5t19 25t20 25.5t13.5 17q4 4 9.5 11t12 13.5t13 11t12.5 4.5
q-2 -8 -6.5 -32.5t-6 -50.5t2 -46.5t17.5 -20.5q12 0 30 4t22 18v5q4 8 8 37.5t7.5 69.5t7 86t6.5 88t5 75t4 48v44t-0.5 66t-1 66t-1.5 44l3 11h158q14 0 19.5 5.5t8.5 16.5q1 3 2.5 8.5t3.5 11.5q3 11 4 20t-7 11q-32 2 -62 3.5t-60 1.5h-168q-36 0 -73 -1t-71 -4
q-13 -11 -17.5 -16.5t-7.5 -15.5q-1 -4 -2 -11t-1 -15q0 -7 1.5 -12.5t5.5 -5.5h155zM278 213l88 -6h10l-31 -41l-2 -2q-3 -4 -8.5 -10.5t-12 -13t-13 -11.5t-10.5 -5l-1 1q-2 5 -6.5 16.5t-8 24.5t-5.5 26t0 21zM283 303l1 3q32 60 62.5 116.5t62.5 116.5l32 62q2 2 4.5 6
l2.5 4l5 -4l-3 -162q5 -5 3 -11l-4 -15q-1 -3 -2.5 -20.5t-3.5 -38t-3.5 -38t-1.5 -21.5q-1 -1 -1 -5t-1 -6q-5 -18 -23 -22t-32 -4q-9 0 -26 3.5t-33.5 9t-28.5 12.5t-10 14zM507 866l79 -71q5 4 9 4q2 0 2.5 -1t1.5 -1t2 0.5t2 0.5q8 5 20.5 12t15.5 18q1 3 -12.5 22.5
t-30.5 42t-32 40.5t-16 18q-3 0 -9 -1.5t-8 -1.5q-44 -21 -77.5 -49.5t-70.5 -57.5l-25 -25l50 -24z" />
    <glyph glyph-name="FL00C3h" unicode="&#xc3;" horiz-adv-x="569" 
d="M283 303q-2 -7 10 -14t28.5 -12.5t33.5 -9t26 -3.5q14 0 32 4t23 22q1 2 1 6t1 5q0 4 1.5 21.5t3.5 38t3.5 38t2.5 20.5l4 15q2 6 -3 11l3 162l-5 4l-2.5 -4t-4.5 -6l-32 -62q-32 -60 -62.5 -116.5t-62.5 -116.5zM278 213q-2 -8 0 -21t5.5 -26t8 -24.5t6.5 -16.5l1 -1
q4 0 10.5 5t13 11.5t12 13t8.5 10.5l2 2l31 41h-10zM249 658q-4 0 -5.5 5.5t-1.5 12.5q0 8 1 15t2 11q3 10 7.5 15.5t17.5 16.5q34 3 71 4t73 1h168q30 0 60 -1.5t62 -3.5q8 -2 7 -11t-4 -20q-2 -6 -3.5 -11.5t-2.5 -8.5q-3 -11 -8.5 -16.5t-19.5 -5.5h-158l-3 -11
q1 -13 1.5 -44t1 -66t0.5 -66v-44q-2 -15 -4 -48t-5 -75t-6.5 -88t-7 -86t-7.5 -69.5t-8 -37.5v-5q-4 -14 -22 -18t-30 -4q-14 0 -17.5 20.5t-2 46.5t6 50.5t6.5 32.5q-6 0 -12.5 -4.5t-13 -11t-12 -13.5t-9.5 -11q-4 -5 -13.5 -17t-20 -25.5t-19 -25t-10.5 -15.5
q-13 -10 -21 -18.5t-22 -8.5q-9 0 -13.5 5t-6.5 12.5t-2.5 16t-1.5 14.5q-2 7 -6 24.5t-8.5 37.5t-8.5 37.5t-6 24.5q-19 -21 -30.5 -46t-25.5 -48l-46 -73l-7 -4h-53l8 26t13 26l333 606h-155zM593 869l99 74l50 -24l-25 -25q-19 -15 -36 -29.5t-34.5 -28t-36.5 -26.5
t-41 -23q-2 0 -8 -1.5t-9 -1.5q-2 0 -10.5 10t-20.5 25l-45 42l-99 -74l-51 24l26 25q37 29 70 57.5t78 49.5q2 0 7.5 1.5t8.5 1.5q1 0 9.5 -10.5t20.5 -25.5z" />
    <glyph glyph-name="FL00C4h" unicode="&#xc4;" horiz-adv-x="569" 
d="M283 303q-2 -7 10 -14t28.5 -12.5t33.5 -9t26 -3.5q14 0 32 4t23 22q1 2 1 6t1 5q0 4 1.5 21.5t3.5 38t3.5 38t2.5 20.5l4 15q2 6 -3 11l3 162l-5 4l-2.5 -4t-4.5 -6l-32 -62q-32 -60 -62.5 -116.5t-62.5 -116.5zM278 213q-2 -8 0 -21t5.5 -26t8 -24.5t6.5 -16.5l1 -1
q4 0 10.5 5t13 11.5t12 13t8.5 10.5l2 2l31 41h-10zM249 658q-4 0 -5.5 5.5t-1.5 12.5q0 8 1 15t2 11q3 10 7.5 15.5t17.5 16.5q34 3 71 4t73 1h168q30 0 60 -1.5t62 -3.5q8 -2 7 -11t-4 -20q-2 -6 -3.5 -11.5t-2.5 -8.5q-3 -11 -8.5 -16.5t-19.5 -5.5h-158l-3 -11
q1 -13 1.5 -44t1 -66t0.5 -66v-44q-2 -15 -4 -48t-5 -75t-6.5 -88t-7 -86t-7.5 -69.5t-8 -37.5v-5q-4 -14 -22 -18t-30 -4q-14 0 -17.5 20.5t-2 46.5t6 50.5t6.5 32.5q-6 0 -12.5 -4.5t-13 -11t-12 -13.5t-9.5 -11q-4 -5 -13.5 -17t-20 -25.5t-19 -25t-10.5 -15.5
q-13 -10 -21 -18.5t-22 -8.5q-9 0 -13.5 5t-6.5 12.5t-2.5 16t-1.5 14.5q-2 7 -6 24.5t-8.5 37.5t-8.5 37.5t-6 24.5q-19 -21 -30.5 -46t-25.5 -48l-46 -73l-7 -4h-53l8 26t13 26l333 606h-155zM384 799l-23 62q-2 4 -2 7q0 4 2 9q2 8 6.5 11t14.5 9q14 10 29 20l18 12
q4 3 12 8t9 5l2.5 0.5t4.5 0.5q6 0 6 -2q0 -1 4 -7l34 -71l-1 -5l-6.5 -6t-10.5 -9q-11 -9 -20 -16t-18 -13t-18 -12.5t-21 -14.5q-1 -1 -4 -1h-2q-13 0 -16 13zM579 801l-24 61q-2 5 0 16q3 8 7 12q5 3 14.5 9.5t19.5 13t17.5 11.5t9.5 6q4 3 12.5 8.5t9.5 5.5l2 0.5t4 0.5
q6 0 6.5 -1.5t4.5 -7.5l34 -71l-2 -6l-6.5 -6t-10.5 -9q-11 -9 -20 -15.5t-18 -12.5t-18 -12.5t-21 -15.5q-1 -1 -3 -1h-3q-8 0 -10.5 3t-4.5 11z" />
    <glyph glyph-name="FL00C5h" unicode="&#xc5;" horiz-adv-x="569" 
d="M283 303q-2 -7 10 -14t28.5 -12.5t33.5 -9t26 -3.5q14 0 32 4t23 22q1 2 1 6t1 5q0 4 1.5 21.5t3.5 38t3.5 38t2.5 20.5l4 15q2 6 -3 11l3 162l-5 4l-2.5 -4t-4.5 -6l-32 -62q-32 -60 -62.5 -116.5t-62.5 -116.5zM278 213q-2 -8 0 -21t5.5 -26t8 -24.5t6.5 -16.5l1 -1
q4 0 10.5 5t13 11.5t12 13t8.5 10.5l2 2l31 41h-10zM249 658q-4 0 -5.5 5.5t-1.5 12.5q0 8 1 15t2 11q3 10 7.5 15.5t17.5 16.5q34 3 71 4t73 1h168q30 0 60 -1.5t62 -3.5q8 -2 7 -11t-4 -20q-2 -6 -3.5 -11.5t-2.5 -8.5q-3 -11 -8.5 -16.5t-19.5 -5.5h-158l-3 -11
q1 -13 1.5 -44t1 -66t0.5 -66v-44q-2 -15 -4 -48t-5 -75t-6.5 -88t-7 -86t-7.5 -69.5t-8 -37.5v-5q-4 -14 -22 -18t-30 -4q-14 0 -17.5 20.5t-2 46.5t6 50.5t6.5 32.5q-6 0 -12.5 -4.5t-13 -11t-12 -13.5t-9.5 -11q-4 -5 -13.5 -17t-20 -25.5t-19 -25t-10.5 -15.5
q-13 -10 -21 -18.5t-22 -8.5q-9 0 -13.5 5t-6.5 12.5t-2.5 16t-1.5 14.5q-2 7 -6 24.5t-8.5 37.5t-8.5 37.5t-6 24.5q-19 -21 -30.5 -46t-25.5 -48l-46 -73l-7 -4h-53l8 26t13 26l333 606h-155zM482 804l-23 61q-3 7 0 16q2 8 7 12q5 3 14.5 9.5t19.5 13t17.5 11.5t9.5 6
q4 3 12.5 8.5t9.5 5.5l2 0.5t4 0.5q6 0 6.5 -1.5t4.5 -7.5l34 -71l-2 -6l-6.5 -6t-10.5 -9q-11 -9 -20 -15.5t-18 -12.5t-18 -12.5t-21 -15.5q-1 -1 -3 -1h-3q-8 0 -11 3t-5 11z" />
    <glyph glyph-name="FL00C6h" unicode="&#xc6;" horiz-adv-x="863" 
d="M415 679l-342 -620q-9 -13 -13 -26t-7 -26h52l8 5l46 73q14 22 25 47t30 46q2 -7 6.5 -24.5t9 -37t8 -37t4.5 -25.5q2 -6 2.5 -14.5t2.5 -16t6.5 -12.5t13.5 -5q16 0 23.5 9.5t19.5 17.5q3 4 12 15.5t19 25t19.5 25.5t13.5 17q2 4 8 11t12.5 14t14 11.5t12.5 4.5
q-2 -7 -5.5 -28.5t-6 -46t-1 -45.5t10.5 -28q-2 -8 0 -9l73 4h311l49 156q1 4 2.5 8.5l3.5 10.5q4 14 3.5 28.5t-14.5 14.5q-30 0 -44.5 -21t-21.5 -47q-5 -18 -8 -34.5t-7 -29.5q-5 -17 -11 -17h-247q4 14 9.5 39t13.5 57q8 30 18 64t19 62.5t17 47.5t13 19q22 0 30 -14.5
t13 -32.5t12 -32.5t28 -14.5q2 0 7.5 1.5t8.5 3.5q19 21 37 34.5t36.5 25t39 22.5t46.5 27q5 1 7 6l2 9q6 18 -1 36q-18 3 -37.5 4t-39.5 1h-82q-21 0 -41 1t-40 5q-1 1 -2.5 2t-2.5 3q1 2 2 7.5t1.5 11.5t1.5 10.5t1 6.5l29 106q2 5 5 15t6 21q3 12 5 21.5t4 14.5
q4 5 6 5.5t6 0.5h1q9 0 19 5t21 2h147q19 0 37.5 1.5t44.5 3.5q15 2 24 5t14 9t8 15.5t7 23.5l3 11l1 9l-4 6h-358l-4 -2q-14 1 -27 1.5t-27 0.5h-169q-35 0 -73 -1t-71 -5q-13 -11 -17.5 -16.5t-7.5 -15.5q-1 -4 -2 -11t-1 -14t1.5 -12.5t6.5 -5.5h155zM285 310l1 3
q33 60 63.5 116.5t61.5 116.5l33 62q2 2 4 6t3 4l5 -4l-3 -161q5 -5 2 -12l-4 -14q-1 -4 -2.5 -21.5t-3.5 -38t-3 -38t-1 -21.5q-1 -1 -1.5 -5t-0.5 -6q-5 -17 -23.5 -21.5t-32.5 -4.5q-8 0 -25 3.5t-34 9t-29 12.5t-10 14zM517 437q0 13 1.5 46t2.5 70.5t1.5 70.5t0.5 46
l2 11h71l-83 -311q1 23 2.5 40.5t1.5 26.5zM281 220l88 -6h10l-32 -41l-1 -2q-3 -4 -8.5 -10.5t-12 -13t-13 -11.5t-10.5 -5l-2 1q-2 6 -6 17t-8 24t-5.5 26t0.5 21zM677 378q16 13 22.5 16.5t21.5 3.5q4 -2 11.5 -3t15 -2.5t13 -3.5t4.5 -5q-2 -6 -9 -13t-16 -12.5t-18 -9
t-13 -3.5h-3q-2 1 -6.5 5.5t-9 9.5t-8.5 10t-5 7z" />
    <glyph glyph-name="FL00C7h" unicode="&#xc7;" horiz-adv-x="453" 
d="M174 462l-116 -431q-3 -11 2 -16.5t7 -14.5h139l8 -23q-1 -5 -16.5 -17.5t-35 -26.5t-37 -26.5t-23.5 -16.5q-7 -5 -8.5 -13.5t-8.5 -10.5q1 -8 9.5 -10.5t13.5 -4.5h61l103 10q10 8 17 16.5t9 18.5v1v4t-2 4q-11 32 -16.5 52.5t-13.5 42.5h101q6 0 11 6t9.5 14t7.5 15.5
t5 11.5l3 9l16 58q5 19 8.5 36t5.5 36q-2 9 -8 10.5t-14 1.5h-2q-23 0 -36 -23t-20 -50q-5 -17 -7.5 -30t-5.5 -23h-143l-12 4l-1 -4h-36q27 109 48 190.5t38 144.5q16 58 28.5 101.5t23.5 75t20.5 53.5t18.5 37h171l3 -5q-18 -20 -36.5 -42t-35 -45t-29.5 -46.5t-19 -47.5
q-4 -12 6 -14t18 -2h2q15 0 25.5 6t18.5 16t15 21.5t16 23.5l102 130l15 56q2 5 -1 10.5t-7 10.5l-2 2h-209q-30 0 -60.5 -1t-57.5 -6q-12 -25 -20.5 -49t-15.5 -49l-1 -6v-7l-26 -98q-5 -18 -10.5 -35t-12.5 -35zM247 -98q-3 -1 -12 -2t-19 -1.5t-19 -1t-12 -0.5h-6l57 51
h7zM281 -142q1 0 3 3q2 5 -1 5q-2 0 -4 -5q-2 -3 2 -3z" />
    <glyph glyph-name="FL00C8h" unicode="&#xc8;" horiz-adv-x="499" 
d="M59 34l-1 -3q0 -1 -0.5 -5.5t-1 -9.5l-1 -10t0.5 -6h382l51 160l5 19q4 14 4 28q0 15 -14 15q-31 0 -45.5 -21t-21.5 -47q-5 -18 -7.5 -34.5t-6.5 -29.5q-5 -17 -11 -17h-248q4 14 9.5 39t13.5 57q8 30 17.5 64t19 62.5t17.5 47.5t14 19q22 0 30 -14.5t13 -32.5t12 -32.5
t28 -14.5q2 0 7.5 1.5t8.5 3.5q19 21 36.5 34.5t36 25t39.5 22.5t47 27q5 3 7 6l2 9q6 17 -2 36q-18 3 -37 4t-39 1h-83q-21 0 -41 1t-40 5l-2 2t-2 3q1 2 1.5 7.5t1.5 11.5t1.5 10.5t0.5 6.5l29 106q2 5 5 15t6 21q3 12 5 21.5t4 14.5q4 5 6.5 5.5t5.5 0.5h2q9 0 19 5t21 2
h121h25q20 0 38 1.5t44 3.5q15 2 24 5t14 9t8 15.5t7 23.5l3 11l1 9l-3 6h-358l-41 -26zM313 378q16 13 22.5 16.5t21.5 3.5q4 -2 12 -3.5t15.5 -3t13 -3t4.5 -4.5q-2 -6 -9 -13t-16 -12.5t-18 -9t-13 -3.5h-4q-2 1 -6 5.5t-8.5 9.5l-9 10t-5.5 7zM538 797l-42 66
q4 4 5.5 7.5t3.5 8.5q1 5 -4.5 13.5t-13 16.5t-14.5 14.5t-9 7.5q-2 3 -7.5 8.5t-6.5 5.5l-2 0.5t-4 0.5q-6 0 -7 -1.5t-8 -7.5l-48 -46l-2 -6l3.5 -6t5.5 -9q6 -9 22.5 -20.5t36 -23.5t37.5 -23t25 -19q1 -1 3 -1h3q8 0 12.5 3t10.5 11z" />
    <glyph glyph-name="FL00C9h" unicode="&#xc9;" horiz-adv-x="499" 
d="M313 378q1 -2 5.5 -7l9 -10t8.5 -9.5t6 -5.5h4q4 0 13 3.5t18 9t16 12.5t9 13q1 3 -4.5 4.5t-13 3t-15.5 3t-12 3.5q-15 0 -21.5 -3.5t-22.5 -16.5zM247 734l41 26h358l3 -6l-1 -9l-3 -11q-4 -14 -7 -23.5t-8 -15.5t-14 -9t-24 -5q-26 -2 -44 -3.5t-38 -1.5h-25h-121
q-11 3 -21 -2t-19 -5h-2q-3 0 -5.5 -0.5t-6.5 -5.5q-2 -5 -4 -14.5t-5 -21.5q-3 -11 -6 -21t-5 -15l-29 -106q0 -2 -0.5 -6.5t-1.5 -10.5t-1.5 -11.5t-1.5 -7.5q1 -2 2 -3l2 -2q20 -4 40 -5t41 -1h83q20 0 39 -1t37 -4q8 -19 2 -36l-2 -9q-2 -3 -7 -6q-26 -16 -47 -27
t-39.5 -22.5t-36 -25t-36.5 -34.5q-3 -2 -8.5 -3.5t-7.5 -1.5q-21 0 -28 14.5t-12 32.5t-13 32.5t-30 14.5q-6 0 -14 -19t-17.5 -47.5t-19 -62.5t-17.5 -64q-8 -32 -13.5 -57t-9.5 -39h248q6 0 11 17q4 13 6.5 29.5t7.5 34.5q7 26 21.5 47t45.5 21q14 0 14 -15q0 -14 -4 -28
l-5 -19l-51 -160h-382q-1 1 -0.5 6l1 10t1 9.5t0.5 5.5l1 3zM404 798l77 66q-3 7 0 16q1 5 11 13.5t22 16.5t22 14.5t13 7.5q4 3 12 8.5t9 5.5l2.5 0.5t4.5 0.5q6 0 6 -2q0 -1 4 -7l24 -46l-2 -6l-6.5 -6t-10.5 -9q-10 -9 -33 -20.5t-49 -23.5t-49.5 -23t-35.5 -19
q-1 -1 -3 -1h-3q-8 0 -10.5 3t-4.5 11z" />
    <glyph glyph-name="FL00CAh" unicode="&#xca;" horiz-adv-x="499" 
d="M59 34l-1 -3q0 -1 -0.5 -5.5t-1 -9.5l-1 -10t0.5 -6h382l51 160l5 19q4 14 4 28q0 15 -14 15q-31 0 -45.5 -21t-21.5 -47q-5 -18 -7.5 -34.5t-6.5 -29.5q-5 -17 -11 -17h-248q4 14 9.5 39t13.5 57q8 30 17.5 64t19 62.5t17.5 47.5t14 19q22 0 30 -14.5t13 -32.5t12 -32.5
t28 -14.5q2 0 7.5 1.5t8.5 3.5q19 21 36.5 34.5t36 25t39.5 22.5t47 27q5 3 7 6l2 9q6 17 -2 36q-18 3 -37 4t-39 1h-83q-21 0 -41 1t-40 5l-2 2t-2 3q1 2 1.5 7.5t1.5 11.5t1.5 10.5t0.5 6.5l29 106q2 5 5 15t6 21q3 12 5 21.5t4 14.5q4 5 6.5 5.5t5.5 0.5h2q9 0 19 5t21 2
h121h25q20 0 38 1.5t44 3.5q15 2 24 5t14 9t8 15.5t7 23.5l3 11l1 9l-3 6h-358l-41 -26zM313 378q16 13 22.5 16.5t21.5 3.5q4 -2 12 -3.5t15.5 -3t13 -3t4.5 -4.5q-2 -6 -9 -13t-16 -12.5t-18 -9t-13 -3.5h-4q-2 1 -6 5.5t-8.5 9.5l-9 10t-5.5 7zM473 871l79 -71q5 4 9 4
q2 0 2.5 -1t1.5 -1t2 0.5t2 0.5q8 5 20.5 12t15.5 18q1 3 -12.5 22.5t-30.5 42t-32 40.5t-16 18q-3 0 -9 -1.5t-8 -1.5q-44 -21 -77 -49.5t-70 -57.5l-26 -25l51 -24z" />
    <glyph glyph-name="FL00CBh" unicode="&#xcb;" horiz-adv-x="499" 
d="M313 378q1 -2 5.5 -7l9 -10t8.5 -9.5t6 -5.5h4q4 0 13 3.5t18 9t16 12.5t9 13q1 3 -4.5 4.5t-13 3t-15.5 3t-12 3.5q-15 0 -21.5 -3.5t-22.5 -16.5zM242 717l41 26h358l3 -6q2 0 -1 -9l-3 -11q-4 -14 -7 -23.5t-8 -15.5t-13.5 -9t-23.5 -5q-27 -2 -44.5 -3.5t-37.5 -1.5
h-25h-121q-11 3 -21 -2t-19 -5h-2q-3 0 -6 -0.5t-7 -5.5q-2 -5 -3.5 -14.5t-5.5 -21.5q-3 -11 -5.5 -21t-4.5 -15l-25 -89q0 -2 -0.5 -6.5t-1.5 -10.5t-1.5 -11.5t-1.5 -7.5q1 -2 2 -3l2 -2q20 -4 40 -5t41 -1h83q20 0 39 -1t37 -4q8 -19 2 -36l-2 -9q-2 -3 -7 -6
q-26 -16 -47 -27t-39.5 -22.5t-36 -25t-36.5 -34.5q-3 -2 -8.5 -3.5t-7.5 -1.5q-21 0 -28 14.5t-12 32.5t-13 32.5t-30 14.5q-6 0 -14 -19t-17.5 -47.5t-19 -62.5t-17.5 -64q-8 -32 -13.5 -57t-9.5 -39h248q6 0 11 17q4 13 6.5 29.5t7.5 34.5q7 26 21.5 47t45.5 21
q14 0 14 -15q0 -14 -4 -28l-5 -19l-52 -164h-309l-72 4q-1 1 -0.5 6l1 10t1 9.5t0.5 5.5l1 3zM358 799l-23 62q-2 4 -2 7q0 4 2 9q2 8 6.5 11t14.5 9q14 10 29 20l18 12q4 3 12 8t9 5l2.5 0.5t4.5 0.5q6 0 6 -2q0 -1 4 -7l34 -71l-1 -5l-6.5 -6t-10.5 -9q-11 -9 -20 -16
t-18 -13t-18 -12.5t-21 -14.5q-1 -1 -4 -1h-2q-13 0 -16 13zM553 801l-24 61q-2 5 0 16q3 8 7 12q5 3 14.5 9.5t19.5 13t17.5 11.5t9.5 6q4 3 12.5 8.5t9.5 5.5l2 0.5t4 0.5q6 0 6.5 -1.5t4.5 -7.5l34 -71l-2 -6l-6.5 -6t-10.5 -9q-11 -9 -20 -15.5t-18 -12.5t-18 -12.5
t-21 -15.5q-1 -1 -3 -1h-3q-8 0 -10.5 3t-4.5 11z" />
    <glyph glyph-name="FL00CCh" unicode="&#xcc;" horiz-adv-x="640" 
d="M332 212h5l-40 -147l-2 -1h-228l-17 -64h539l17 64h-207q-2 0 -3 3t-1 5h-20q4 11 7.5 21t6.5 21l12 45l9 35l5 17l2 9q2 6 1 9q12 16 31 30t38.5 26.5t35 24.5t18.5 25q2 8 -7 21.5t-21 28.5t-23.5 30t-14.5 26q-3 13 0 29t5 33l52 167l12 8h228l17 64h-539l-17 -64h207
q2 0 2.5 -3t1.5 -5q0 -17 -5.5 -43t-10.5 -44q-6 -24 -15 -44l-20 -77q-4 -4 -10.5 -11.5t-10.5 -9.5l-138 -109q-9 -9 -10 -16q-4 -14 10.5 -28t34.5 -27t39 -25.5t24 -23.5zM337 327l1 5q1 2 3 5.5t5 4.5q4 4 13.5 11.5t19.5 15t19 14.5t13 10q11 -13 19.5 -27t16.5 -29
l1 -2q-1 -1 -1.5 -2l-0.5 -1l-5 -5q-3 -3 -11.5 -9.5t-18 -13t-18 -12.5t-11.5 -7l-3 2q-11 8 -22.5 17.5t-19.5 22.5zM612 798l-41 66q5 6 8 16q1 5 -4 13.5t-12.5 16.5t-14.5 14.5t-9 7.5q-2 3 -8 8.5t-7 5.5l-1.5 0.5t-3.5 0.5q-6 0 -7.5 -1.5t-8.5 -7.5l-48 -46l-2 -6
l3.5 -6t5.5 -9q6 -9 22.5 -20.5t36 -23.5t37.5 -23t25 -19q1 -1 3 -1h3q8 0 12.5 3t10.5 11z" />
    <glyph glyph-name="FL00CDh" unicode="&#xcd;" horiz-adv-x="640" 
d="M337 327q8 -13 19.5 -22.5t22.5 -17.5l3 -2q3 1 11.5 7t18 12.5t18 13t11.5 9.5l5 5l0.5 1t1.5 2l-1 2q-8 15 -16.5 29t-19.5 27q-4 -3 -13 -10t-19 -14.5t-19.5 -15t-13.5 -11.5q-3 -1 -5 -4.5t-3 -5.5zM332 212q-5 11 -24 23.5t-39 25.5t-34.5 27t-10.5 28q1 7 10 16
l138 109q4 2 10.5 9.5t10.5 11.5l20 77q9 20 15 44q5 18 10.5 44t5.5 43q-1 2 -1.5 5t-2.5 3h-207l17 64h539l-17 -64h-228l-12 -8l-52 -167q-2 -17 -5 -33t0 -29q3 -11 14.5 -26t23.5 -30t21 -28.5t7 -21.5q-3 -13 -18.5 -25t-35 -24.5t-38.5 -26.5t-31 -30q1 -3 -1 -9
l-2 -9l-5 -17l-9 -35l-12 -45q-3 -11 -6.5 -21t-7.5 -21h20q0 -2 1 -5t3 -3h207l-17 -64h-539l17 64h228l2 1l40 147h-5zM429 796l77 66q-2 5 0 16q1 5 11 13.5t22 16.5t22 14.5t13 7.5q4 3 12.5 8.5t9.5 5.5l2 0.5t4 0.5q6 0 6.5 -1.5t4.5 -7.5l23 -46l-1 -6l-6.5 -6
t-10.5 -9q-11 -9 -34 -20.5t-48.5 -23.5t-49 -23t-35.5 -19q-1 -1 -3 -1h-3q-8 0 -11 3t-5 11z" />
    <glyph glyph-name="FL00CEh" unicode="&#xce;" horiz-adv-x="640" 
d="M332 212h5l-40 -147l-2 -1h-228l-17 -64h539l17 64h-207q-2 0 -3 3t-1 5h-20q4 11 7.5 21t6.5 21l12 45l9 35l5 17l2 9q2 6 1 9q12 16 31 30t38.5 26.5t35 24.5t18.5 25q2 8 -7 21.5t-21 28.5t-23.5 30t-14.5 26q-3 13 0 29t5 33l52 167l12 8h228l17 64h-539l-17 -64h207
q2 0 2.5 -3t1.5 -5q0 -17 -5.5 -43t-10.5 -44q-6 -24 -15 -44l-20 -77q-4 -4 -10.5 -11.5t-10.5 -9.5l-138 -109q-9 -9 -10 -16q-4 -14 10.5 -28t34.5 -27t39 -25.5t24 -23.5zM337 327l1 5q1 2 3 5.5t5 4.5q4 4 13.5 11.5t19.5 15t19 14.5t13 10q11 -13 19.5 -27t16.5 -29
l1 -2q-1 -1 -1.5 -2l-0.5 -1l-5 -5q-3 -3 -11.5 -9.5t-18 -13t-18 -12.5t-11.5 -7l-3 2q-11 8 -22.5 17.5t-19.5 22.5zM530 859l79 -71q5 4 9 4q2 0 2.5 -1t1.5 -1t2 0.5t2 0.5q8 5 20.5 12t15.5 18q1 3 -12.5 22.5t-30.5 42t-32 40.5t-16 18q-3 0 -9 -1.5t-8 -1.5
q-44 -21 -77.5 -49.5t-70.5 -57.5l-25 -25l50 -24z" />
    <glyph glyph-name="FL00CFh" unicode="&#xcf;" horiz-adv-x="640" 
d="M337 327q8 -13 19.5 -22.5t22.5 -17.5l3 -2q3 1 11.5 7t18 12.5t18 13t11.5 9.5l5 5l0.5 1t1.5 2l-1 2q-8 15 -16.5 29t-19.5 27q-4 -3 -13 -10t-19 -14.5t-19.5 -15t-13.5 -11.5q-3 -1 -5 -4.5t-3 -5.5zM332 212q-5 11 -24 23.5t-39 25.5t-34.5 27t-10.5 28q1 7 10 16
l138 109q4 2 10.5 9.5t10.5 11.5l20 77q9 20 15 44q5 18 10.5 44t5.5 43q-1 2 -1.5 5t-2.5 3h-207l17 64h539l-17 -64h-228l-12 -8l-52 -167q-2 -17 -5 -33t0 -29q3 -11 14.5 -26t23.5 -30t21 -28.5t7 -21.5q-3 -13 -18.5 -25t-35 -24.5t-38.5 -26.5t-31 -30q1 -3 -1 -9
l-2 -9l-5 -17l-9 -35l-12 -45q-3 -11 -6.5 -21t-7.5 -21h20q0 -2 1 -5t3 -3h207l-17 -64h-539l17 64h228l2 1l40 147h-5zM404 796l-23 62q-2 4 -2 7q0 4 2 9q2 8 6.5 11t15.5 9q14 10 29 20t17 12q4 3 12.5 8t9.5 5l2 0.5t4 0.5q6 0 6.5 -1.5t3.5 -7.5l34 -71l-1 -5l-6.5 -6
t-10.5 -9q-22 -18 -38 -29t-39 -27q-1 -1 -4 -1h-2q-13 0 -16 13zM599 798l-24 61q-1 7 0 16q3 9 8 12t14.5 9.5l19 13t17 11.5t9.5 6q4 3 12.5 8.5t9.5 5.5l2 0.5t4 0.5q6 0 6.5 -1.5t4.5 -7.5l34 -71l-2 -6l-6.5 -6t-10.5 -9q-11 -9 -20 -15.5t-17.5 -12.5t-18 -12.5
t-21.5 -15.5q-1 -1 -3 -1h-3q-8 0 -10.5 3t-4.5 11z" />
    <glyph glyph-name="FL00D0h" unicode="&#xd0;" horiz-adv-x="695" 
d="M176 345q14 -3 30.5 -4t33.5 -1h55l-72 -269l-111 -1q-17 0 -31.5 -5t-20.5 -26l-2 -11q-2 -8 -3 -16t5 -8l10 -4h477l26 25q3 3 5 9q2 8 0 14t-4 7l-9 5l-74 9h-91q47 40 95 82t93 82t85 76t72 64l1 5l-199 285l5 9h125q5 0 12.5 2.5t10.5 4.5l1.5 3.5t1.5 5.5
q4 14 4.5 26.5t3.5 25.5h-454q-1 0 -4.5 -4t-3.5 -6q-1 -1 1 -3.5t3 -2.5q-1 -2 -3 -7.5t-4 -13.5t-3.5 -15t3.5 -10q2 -1 14 -3t15 -2q7 0 24.5 -0.5t37.5 -0.5l20 1q29 0 26 -7q0 -2 -2 -3.5t0 -3.5l-67 -247h-116q-5 0 -10 -9.5t-7 -17.5l-4 -15q-2 -8 -2.5 -12.5
t1.5 -12.5zM340 88l-42 -12l71 264q37 0 59.5 0.5t35 1.5t17 1.5t5.5 0.5l8 6l13 51l7 6q-4 5 -11.5 6.5t-15.5 1.5q-9 0 -13 -3h-86l62 230q2 2 5 5.5t6 4.5h3h3q2 -1 5.5 -6.5t4.5 -9.5q18 -29 38.5 -58t42 -58t41.5 -58.5t36 -59.5l21 -16v-2q-8 -14 -30 -37t-51.5 -50.5
t-64 -57.5t-67 -58t-60 -52.5t-43.5 -40.5z" />
    <glyph glyph-name="FL00D1h" unicode="&#xd1;" horiz-adv-x="600" 
d="M466 0l45 168q2 2 -13 17t-39.5 37t-53.5 47t-55 48t-45.5 41t-24.5 24q-2 0 -8 2t-12.5 4.5l-13 5t-8.5 3.5q-7 -6 -9 -14l-93 -347l-16 -9q-2 -9 -5.5 -18t-11.5 -9h-46l-5 4q1 2 4 15t6 24l167 626l21 64q2 2 8 5t12.5 6t11.5 5t6 2h37q4 0 2 -5q0 -4 -1 -9l1 -22
l-50 -184q-1 -3 16 -22.5t44 -46.5t59 -57.5t61 -56.5t52 -43t30 -17l11 1q5 13 11 33t13 42.5t13.5 45.5t11.5 43l48 176q-1 2 1 11l3 11l6 21q10 35 21 70v2q8 8 22 10t21 2q21 0 23 -13.5t-3 -31.5l-7 -23q-18 -57 -33.5 -111.5t-30.5 -109.5l-117 -437l-16 -30h-71z
M610 873l99 74l50 -24l-25 -25q-19 -15 -36 -29.5t-34.5 -28t-36.5 -26.5t-41 -23q-2 0 -8 -1.5t-9 -1.5q-2 0 -10.5 10t-19.5 25l-46 42l-99 -74l-51 24l26 25q37 29 70 57.5t78 49.5q2 0 8 1.5t9 1.5q1 0 9 -10.5t20 -25.5z" />
    <glyph glyph-name="FL00D2h" unicode="&#xd2;" 
d="M69 39l-2 -11q-2 -8 -2.5 -15t5.5 -7l9 -6h551l6 16l2 7q3 11 -1 19.5t-6 10.5l-5 13h-101q-5 0 -15.5 0.5t-21.5 1.5t-21 1.5t-15 0.5q21 31 52.5 68.5t70 79.5t81.5 88.5t88 94.5l2 7l-161 271h172q4 0 12.5 3t10.5 5l1.5 3.5t1.5 5.5q5 14 4.5 27t3.5 26h-497l-3.5 -4
t-4.5 -6q0 -1 1.5 -3.5l1.5 -2.5l-5 -21q-2 -8 -4 -15t3 -10q2 0 14 -2.5t16 -2.5q8 0 24.5 -0.5t36.5 -0.5q21 0 38.5 0.5t25.5 0.5l1.5 -2t0.5 -4l-6 -9l-271 -273l-12 -18q14 -30 34 -69.5t40.5 -80.5t39 -79.5t29.5 -67.5l-30 -5h-52q-14 0 -24.5 -0.5t-15.5 -0.5h-37
q-21 0 -40 -5.5t-26 -28.5zM277 304l-35 89l46 48q49 50 94 91t94 89q2 2 6.5 5.5t6.5 4.5l0.5 0.5t1.5 0.5t2 -0.5l1 -0.5q1 -1 5 -6.5t6 -8.5q17 -29 33 -53t31.5 -47.5t31 -48t31.5 -54.5q2 -1 2 -5v-4l-1 -4l-41 -57l-203 -234l-5 -6q-11 7 -24 29t-27 51t-28.5 61
t-27.5 60zM616 799l-41 66q5 6 8 16q1 5 -4 13.5t-12.5 16.5t-14.5 14.5t-9 7.5q-2 3 -7.5 8.5t-6.5 5.5l-2 0.5t-4 0.5q-6 0 -7 -1.5t-8 -7.5l-49 -46l-1 -6l3.5 -6t5.5 -9q5 -9 22 -20.5t36.5 -23.5t37.5 -23t25 -19q0 -1 2 -1h3q8 0 12.5 3t10.5 11z" />
    <glyph glyph-name="FL00D3h" unicode="&#xd3;" 
d="M277 304q13 -28 27.5 -60t28.5 -61t27 -51t24 -29l5 6l203 234l41 57l1 4v4t-2 5q-16 30 -31.5 54.5t-31 48t-31.5 47.5t-33 53q-2 3 -6 8.5t-5 6.5l-1 0.5t-2 0.5t-1.5 -0.5l-0.5 -0.5q-2 -1 -6.5 -4.5t-6.5 -5.5q-49 -48 -94 -89t-94 -91l-46 -48zM69 39q7 23 26 28.5
t40 5.5h37q5 0 15.5 0.5t24.5 0.5h52l30 5q-11 29 -29.5 67.5t-39 79.5t-40.5 80.5t-34 69.5l12 18l271 273l6 9q1 2 -0.5 4l-1.5 2q-8 0 -25.5 -0.5t-38.5 -0.5q-20 0 -36.5 0.5t-24.5 0.5q-4 0 -16 2.5t-14 2.5q-5 3 -3 10t4 15l5 21l-1.5 2.5t-1.5 3.5q1 2 4.5 6l3.5 4
h497q-4 -13 -3.5 -26t-4.5 -27q0 -2 -1.5 -5.5l-1.5 -3.5q-2 -2 -10.5 -5t-12.5 -3h-172l161 -271l-2 -7q-45 -48 -88 -94.5t-81.5 -88.5t-70 -79.5t-52.5 -68.5q5 0 15 -0.5t21 -1.5t21.5 -1.5t15.5 -0.5h101l5 -13q2 -2 6 -10.5t1 -19.5l-2 -7l-6 -16h-551l-9 6
q-6 0 -5.5 7t2.5 15zM466 804l77 66q-2 5 0 16q1 5 11 13.5t22 16.5t22.5 14.5t12.5 7.5q4 3 12.5 8.5t9.5 5.5l2 0.5t4 0.5q6 0 6.5 -1.5t4.5 -7.5l24 -46l-2 -6l-6.5 -6t-10.5 -9q-10 -9 -33 -20.5t-49 -23.5t-49.5 -23t-35.5 -19q-1 -1 -3 -1h-3q-8 0 -11 3t-5 11z" />
    <glyph glyph-name="FL00D4h" unicode="&#xd4;" 
d="M69 39l-2 -11q-2 -8 -2.5 -15t5.5 -7l9 -6h551l6 16l2 7q3 11 -1 19.5t-6 10.5l-5 13h-101q-5 0 -15.5 0.5t-21.5 1.5t-21 1.5t-15 0.5q21 31 52.5 68.5t70 79.5t81.5 88.5t88 94.5l2 7l-161 271h172q4 0 12.5 3t10.5 5l1.5 3.5t1.5 5.5q5 14 4.5 27t3.5 26h-497l-3.5 -4
t-4.5 -6q0 -1 1.5 -3.5l1.5 -2.5l-5 -21q-2 -8 -4 -15t3 -10q2 0 14 -2.5t16 -2.5q8 0 24.5 -0.5t36.5 -0.5q21 0 38.5 0.5t25.5 0.5l1.5 -2t0.5 -4l-6 -9l-271 -273l-12 -18q14 -30 34 -69.5t40.5 -80.5t39 -79.5t29.5 -67.5l-30 -5h-52q-14 0 -24.5 -0.5t-15.5 -0.5h-37
q-21 0 -40 -5.5t-26 -28.5zM277 304l-35 89l46 48q49 50 94 91t94 89q2 2 6.5 5.5t6.5 4.5l0.5 0.5t1.5 0.5t2 -0.5l1 -0.5q1 -1 5 -6.5t6 -8.5q17 -29 33 -53t31.5 -47.5t31 -48t31.5 -54.5q2 -1 2 -5v-4l-1 -4l-41 -57l-203 -234l-5 -6q-11 7 -24 29t-27 51t-28.5 61
t-27.5 60zM570 866l79 -71q5 4 9 4q2 0 2.5 -1t1.5 -1t2 0.5t2 0.5q8 5 20.5 12t15.5 18q1 3 -12.5 22.5t-30.5 42t-32 40.5t-16 18q-3 0 -9 -1.5t-8 -1.5q-44 -21 -77.5 -49.5t-70.5 -57.5l-25 -25l50 -24z" />
    <glyph glyph-name="FL00D5h" unicode="&#xd5;" 
d="M69 39q7 23 26 28.5t40 5.5h37q5 0 15.5 0.5t24.5 0.5h52l30 5q-11 29 -29.5 67.5t-39 79.5t-40.5 80.5t-34 69.5l12 18l271 273l6 9q1 2 -0.5 4l-1.5 2q-8 0 -25.5 -0.5t-38.5 -0.5q-20 0 -36.5 0.5t-24.5 0.5q-4 0 -16 2.5t-14 2.5q-5 3 -3 10t4 15l5 21l-1.5 2.5
t-1.5 3.5q1 2 4.5 6l3.5 4h497q-4 -13 -3.5 -26t-4.5 -27q0 -2 -1.5 -5.5l-1.5 -3.5q-2 -2 -10.5 -5t-12.5 -3h-172l161 -271l-2 -7q-45 -48 -88 -94.5t-81.5 -88.5t-70 -79.5t-52.5 -68.5q5 0 15 -0.5t21 -1.5t21.5 -1.5t15.5 -0.5h101l5 -13q2 -2 6 -10.5t1 -19.5l-2 -7
l-6 -16h-551l-9 6q-6 0 -5.5 7t2.5 15zM277 304q13 -28 27.5 -60t28.5 -61t27 -51t24 -29l5 6l203 234l41 57l1 4v4t-2 5q-16 30 -31.5 54.5t-31 48t-31.5 47.5t-33 53q-2 3 -6 8.5t-5 6.5l-1 0.5t-2 0.5t-1.5 -0.5l-0.5 -0.5q-2 -1 -6.5 -4.5t-6.5 -5.5q-49 -48 -94 -89
t-94 -91l-46 -48zM647 871l99 74l51 -24l-26 -25q-37 -29 -70 -57.5t-78 -49.5q-2 0 -7.5 -1.5t-8.5 -1.5q-2 0 -10.5 10t-20.5 25l-46 42l-99 -74l-50 24l26 25q37 29 70 57.5t77 49.5q2 0 8 1.5t9 1.5q1 0 9.5 -10.5t19.5 -25.5z" />
    <glyph glyph-name="FL00D6h" unicode="&#xd6;" 
d="M277 304q13 -28 27.5 -60t28.5 -61t27 -51t24 -29l5 6l203 234l41 57l1 4v4t-2 5q-16 30 -31.5 54.5t-31 48t-31.5 47.5t-33 53q-2 3 -6 8.5t-5 6.5l-1 0.5t-2 0.5t-1.5 -0.5l-0.5 -0.5q-2 -1 -6.5 -4.5t-6.5 -5.5q-49 -48 -94 -89t-94 -91l-46 -48zM69 39q7 23 26 28.5
t40 5.5h37q5 0 15.5 0.5t24.5 0.5h52l30 5q-11 29 -29.5 67.5t-39 79.5t-40.5 80.5t-34 69.5l12 18l271 273l6 9q1 2 -0.5 4l-1.5 2q-8 0 -25.5 -0.5t-38.5 -0.5q-20 0 -36.5 0.5t-24.5 0.5q-4 0 -16 2.5t-14 2.5q-5 3 -3 10t4 15l5 21l-1.5 2.5t-1.5 3.5q1 2 4.5 6l3.5 4
h497q-4 -13 -3.5 -26t-4.5 -27q0 -2 -1.5 -5.5l-1.5 -3.5q-2 -2 -10.5 -5t-12.5 -3h-172l161 -271l-2 -7q-45 -48 -88 -94.5t-81.5 -88.5t-70 -79.5t-52.5 -68.5q5 0 15 -0.5t21 -1.5t21.5 -1.5t15.5 -0.5h101l5 -13q2 -2 6 -10.5t1 -19.5l-2 -7l-6 -16h-551l-9 6
q-6 0 -5.5 7t2.5 15zM428 798l-24 62q-2 5 1 16q2 8 6.5 11t14.5 9q14 10 29 20l18 12q4 3 12 8t9 5l2 0.5t4 0.5q6 0 6.5 -1.5t4.5 -7.5l34 -71l-1 -5l-6.5 -6t-10.5 -9q-23 -18 -38.5 -29t-38.5 -27q-2 -1 -5 -1h-2q-14 0 -15 13zM622 800l-23 61q-3 7 0 16q2 8 7 12
q5 3 14.5 9.5t19.5 13t17.5 11.5t9.5 6q4 3 12.5 8.5t9.5 5.5l2 0.5t4 0.5q6 0 6.5 -1.5t4.5 -7.5l34 -71l-2 -6l-6.5 -6t-10.5 -9q-11 -9 -20 -15.5t-18 -12.5t-18 -12.5t-21 -15.5q-1 -1 -3 -1h-3q-8 0 -11 3t-5 11z" />
    <glyph glyph-name="FL00D7h" unicode="&#xd7;" horiz-adv-x="583" 
d="M85 130q2 8 9 15.5t18 16.5l9 9t7 8l198 195q1 3 4 6l-1 -2q2 2 2 3q-2 5 -4 15t-5 21l-1 -1q-5 11 -9 22.5t-3 13.5l1 -1q-7 17 -10 31t-6 27h1q0 2 -0.5 4t-0.5 5q-1 0 -2.5 3.5t-3.5 5.5q-4 5 -7 12.5t-1 13.5l3 9q8 6 17.5 12t20.5 6q8 0 13.5 -7.5t9.5 -18
t6.5 -22.5t4.5 -21v-8t1 -5t3 -8.5t5 -18.5v1q5 -13 8.5 -26t6.5 -20q11 8 21.5 18.5t21.5 22.5q8 8 15 15.5t15 15.5q23 21 48 42.5t51 38.5q3 1 7 1h6h3q13 0 26 -10.5t24 -24.5t20 -29t14 -24l-2 -6q-2 -8 -15 -15h1q-1 -1 -5 -3l-80 -56q-2 -2 -2 -3l20 -29q4 -6 4.5 -8
t-1.5 -8q-4 -12 -17 -17t-22 -5h-9q-2 2 -5.5 4.5t-8.5 5.5h1q-13 8 -28 21.5t-12 27.5q4 13 14 21t24 16l4.5 3l4.5 3l61 41l1 3q-13 19 -28 36q-21 -15 -39 -33.5t-35 -38.5l-39.5 -39.5t-41.5 -35.5q-1 -2 0.5 -6t3.5 -6v1l1 -4q14 -48 30 -99t30 -97v-1l-1 2q0 -2 2 -4
q8 0 20 7t20 15q-2 3 -5.5 7t-7.5 9q-11 12 -19 24.5t-5 23.5q2 7 20 20t40 25t41.5 21t24.5 9q10 0 16.5 -10t3.5 -21l-1 -2q-1 -4 -2 -5.5t-7 -4.5l-72 -39h1q-1 -4 3 -11t10 -15q8 -11 13 -21.5t2 -21.5q-2 -6 -20 -18t-40.5 -24t-44 -21t-28.5 -9q-16 0 -14 11q0 2 2 4
l-56 192q-1 2 -2 6t-3 5q-3 0 -6 -7q-7 -6 -23 -21t-33 -30.5t-31 -28.5t-18 -16q-7 -5 -16 -14t-21 -20q-15 -14 -30 -29t-29.5 -27.5t-26 -20.5t-18.5 -8q-8 4 -12 17t-3 16z" />
    <glyph glyph-name="FL00D8h" unicode="&#xd8;" horiz-adv-x="680" 
d="M155 12h-69q43 51 79.5 94.5t70.5 85.5q-22 63 -43 119.5t-35 90.5l12 19l304 335h99l50 -93q14 19 19.5 27t6.5 11l1 3q3 4 10 10.5t15.5 13.5t16.5 12.5t13 7.5q2 1 7 1q20 0 25 -10.5t4 -14.5l-90 -110l96 -177l-2 -8q-46 -52 -98.5 -113.5t-101.5 -121.5t-90 -112.5
t-63 -85.5l-85 5q-8 22 -21.5 57.5t-28.5 77.5zM281 326q5 -13 11 -26.5t11 -27.5q93 112 154 186t100 122q-11 19 -21.5 38t-21.5 42q-2 2 -6 8.5t-5 7.5l-1 0.5t-2 0.5l-2 -1q-2 -1 -6.5 -5t-6.5 -7q-49 -51 -94.5 -94.5t-96.5 -97.5l-45 -52zM584 534l-260 -316
q17 -38 31 -68t26 -40l6 7l207 251l42 60l1 5l-0.5 4t-2.5 5q-13 26 -25 48.5t-25 43.5z" />
    <glyph glyph-name="FL00D9h" unicode="&#xd9;" horiz-adv-x="577" 
d="M61 40q5 -10 4 -21t-3 -20h222h54q40 0 78.5 1.5t87.5 3.5h8q16 0 22 22q4 13 3.5 26t-2.5 15l4 23l142 531l7 23q2 6 2.5 12.5t1.5 12.5l9 31q0 4 1 10t1.5 12t1 10l0.5 4h-47q-1 0 -4 -6.5t-5 -8.5l-7 -6q-11 -8 -18 -13.5t-11.5 -14.5t-9 -23.5t-11.5 -39.5l-146 -547
l-7 -4l-18 -1t-43 -2t-51.5 -2t-43.5 -1h-42q-21 0 -43.5 0.5t-38.5 0.5h-12l168 627v5t-1 9t-1 9v7q1 6 -4 6h-41q-5 0 -10.5 -6t-10.5 -14t-8.5 -15.5t-4.5 -11.5l-1 -3t-2 -5l-23 -85l-57 -213l-29 -109l-19 -70l-17 -65l-15 -55zM572 794l-42 66q4 4 5.5 7.5t3.5 8.5
q1 5 -4.5 13.5t-12.5 16.5t-14 14.5t-9 7.5q-2 3 -8 8.5t-7 5.5l-1.5 0.5t-3.5 0.5q-6 0 -7.5 -1.5t-8.5 -7.5l-48 -46l-2 -6l3.5 -6t5.5 -9q6 -9 22.5 -20.5t36 -23.5t37.5 -23t25 -19q1 -1 3 -1h3q8 0 12.5 3t10.5 11z" />
    <glyph glyph-name="FL00DAh" unicode="&#xda;" horiz-adv-x="577" 
d="M61 40l10 39l15 55l17 65l19 70l29 109l57 213l23 85q1 2 2 5l1 3q1 4 4.5 11.5t8.5 15.5t10.5 14t10.5 6h41q5 0 4 -6v-7q0 -4 1 -9t1 -9v-5l-168 -627h12q16 0 38.5 -0.5t43.5 -0.5h42q17 0 43.5 1t51.5 2t43 2l18 1l7 4l146 547q7 25 11.5 39.5t9 23.5t11.5 14.5
t18 13.5l7 6q2 2 5 8.5t4 6.5h47l-0.5 -4t-1 -10t-1.5 -12t-1 -10l-9 -31q-1 -6 -1.5 -12.5t-2.5 -12.5l-7 -23l-142 -531l-4 -23q2 -2 2.5 -15t-3.5 -26q-6 -22 -22 -22h-8q-49 -2 -87.5 -3.5t-78.5 -1.5h-54h-222q2 9 3 20t-4 21zM417 795l77 66q-3 7 0 16q1 5 11 13.5
t22 16.5t22 14.5t13 7.5q4 3 12.5 8.5t9.5 5.5l2 0.5t4 0.5q6 0 6.5 -1.5t4.5 -7.5l23 -46l-1 -6l-6.5 -6t-10.5 -9q-11 -9 -34 -20.5t-49 -23.5t-49.5 -23t-34.5 -19q-2 -1 -4 -1h-3q-8 0 -10.5 3t-4.5 11z" />
    <glyph glyph-name="FL00DBh" unicode="&#xdb;" horiz-adv-x="577" 
d="M61 40q5 -10 4 -21t-3 -20h222h54q40 0 78.5 1.5t87.5 3.5h8q16 0 22 22q4 13 3.5 26t-2.5 15l4 23l142 531l7 23q2 6 2.5 12.5t1.5 12.5l9 31q0 4 1 10t1.5 12t1 10l0.5 4h-47q-1 0 -4 -6.5t-5 -8.5l-7 -6q-11 -8 -18 -13.5t-11.5 -14.5t-9 -23.5t-11.5 -39.5l-146 -547
l-7 -4l-18 -1t-43 -2t-51.5 -2t-43.5 -1h-42q-21 0 -43.5 0.5t-38.5 0.5h-12l168 627v5t-1 9t-1 9v7q1 6 -4 6h-41q-5 0 -10.5 -6t-10.5 -14t-8.5 -15.5t-4.5 -11.5l-1 -3t-2 -5l-23 -85l-57 -213l-29 -109l-19 -70l-17 -65l-15 -55zM504 860l79 -71q5 4 9 4q2 0 2.5 -1
t1.5 -1t2 0.5t2 0.5q8 5 20.5 12t15.5 18q1 3 -12.5 22.5t-30.5 42t-32 40.5t-16 18q-3 0 -9 -1.5t-8 -1.5q-44 -21 -77 -49.5t-70 -57.5l-26 -25l51 -24z" />
    <glyph glyph-name="FL00DCh" unicode="&#xdc;" horiz-adv-x="577" 
d="M61 40l10 39l15 55l17 65l19 70l29 109l57 213l23 85q1 2 2 5l1 3q1 4 4.5 11.5t8.5 15.5t10.5 14t10.5 6h41q5 0 4 -6v-7q0 -4 1 -9t1 -9v-5l-168 -627h12q16 0 38.5 -0.5t43.5 -0.5h42q17 0 43.5 1t51.5 2t43 2l18 1l7 4l146 547q7 25 11.5 39.5t9 23.5t11.5 14.5
t18 13.5l7 6q2 2 5 8.5t4 6.5h47l-0.5 -4t-1 -10t-1.5 -12t-1 -10l-9 -31q-1 -6 -1.5 -12.5t-2.5 -12.5l-7 -23l-142 -531l-4 -23q2 -2 2.5 -15t-3.5 -26q-6 -22 -22 -22h-8q-49 -2 -87.5 -3.5t-78.5 -1.5h-54h-222q2 9 3 20t-4 21zM384 799l-23 62q-2 4 -2 7q0 4 2 9
q2 8 6.5 11t14.5 9q14 10 29 20l18 12q4 3 12 8t9 5l2.5 0.5t4.5 0.5q6 0 6 -2q0 -1 4 -7l34 -71l-1 -5l-6.5 -6t-10.5 -9q-11 -9 -20 -16t-18 -13t-18 -12.5t-21 -14.5q-1 -1 -4 -1h-2q-13 0 -16 13zM579 801l-24 61q-2 5 0 16q3 8 7 12q5 3 14.5 9.5t19.5 13t17.5 11.5
t9.5 6q4 3 12.5 8.5t9.5 5.5l2 0.5t4 0.5q6 0 6.5 -1.5t4.5 -7.5l34 -71l-2 -6l-6.5 -6t-10.5 -9q-11 -9 -20 -15.5t-18 -12.5t-18 -12.5t-21 -15.5q-1 -1 -3 -1h-3q-8 0 -10.5 3t-4.5 11z" />
    <glyph glyph-name="FL00DDh" unicode="&#xdd;" horiz-adv-x="574" 
d="M332 325q1 3 2.5 10t3 14.5t2.5 14t1 8.5h-151l-23 6q-1 0 4 -5t6 -3l-12 23q-3 7 -0.5 24t7 36t10 36t7.5 25l53 198q1 4 11.5 14.5t30.5 10.5q6 0 7 -1q8 -4 10.5 -16.5t6.5 -19.5q-2 -8 -6.5 -22.5t-10.5 -34.5l-21 -80q-5 -18 -8.5 -33t-5.5 -22q-2 -6 -4 -16.5
t-4.5 -20.5t-3.5 -17.5t-1 -8.5l4 -4q1 0 8.5 -0.5t12.5 -0.5h257l41 6l7 10l5 14.5t11 34t12 40t10 33.5l30 111q0 1 2.5 6.5t5.5 12.5t6.5 13.5t6.5 9.5q3 5 7 5h41q6 0 4 -8q-1 -3 -2 -4.5t-1 -2.5l-6 -47l-39 -143q-8 -29 -17.5 -56t-25.5 -66q-11 -17 -25 -29t-30 -12
h-158l-99 -368h-70l88 315zM418 788l77 66q-2 5 0 16q1 5 11 13.5t22 16.5t22 14.5t13 7.5q4 3 12.5 8.5t9.5 5.5l2 0.5t4 0.5q6 0 6.5 -1.5t4.5 -7.5l23 -46l-1 -6l-6.5 -6t-10.5 -9q-11 -9 -34 -20.5t-48.5 -23.5t-49 -23t-35.5 -19q-2 -1 -4 -1h-3q-8 0 -10.5 3t-4.5 11z
" />
    <glyph glyph-name="FL00DFh" unicode="&#xdf;" horiz-adv-x="501" 
d="M16 -128l31 -21q1 -1 9 -1q6 0 13 2.5t13 5.5t10.5 7t5.5 7l192 719l4 13q2 10 6 22.5t8 25.5l6 25q3 -1 9 -1h10h20h147q1 1 7 1q9 0 15 -4t14 -4h4q7 0 7 -6q-2 -5 -5 -14.5t-6 -21.5q-3 -11 -5 -21t-4 -15l-29 -108q-1 -5 -5.5 -17.5t-6.5 -16.5q-1 -2 -3.5 -3
t-3.5 -2q-22 -4 -43 -5t-41 -1l7 -2h-29h-16q-4 0 -9 -0.5t-11 -1.5l-3 -3q-2 -5 -3.5 -9.5t-3.5 -9.5q-3 -11 -4 -21t-1 -12q-2 -4 -1.5 -6t-1.5 -8v-1h143q4 -1 2 -20.5t-8 -48t-15 -62.5t-17 -64q-8 -32 -15.5 -57t-11.5 -39h-157l-19 -70h154l71 -3q1 1 3.5 5.5t4.5 10
t3.5 10t1.5 5.5l189 703l-26 26h-311l-62 -30q-3 -11 -5 -18.5t-1 -12.5l-131 -491l-8 -27q-6 -25 -17 -64t-21.5 -77t-19.5 -68t-12 -37z" />
    <glyph glyph-name="FL00E0h" unicode="&#xe0;" horiz-adv-x="569" 
d="M404 658l-333 -606q-9 -13 -13 -26l-8 -26h53l7 4l46 73q14 23 25.5 48t30.5 46q2 -7 6 -24.5t8.5 -37.5t8.5 -37.5t6 -24.5q1 -6 1.5 -14.5t2.5 -16t6.5 -12.5t13.5 -5q14 0 22 8.5t21 18.5q2 4 10.5 15.5t19 25t20 25.5t13.5 17q4 4 9.5 11t12 13.5t13 11t12.5 4.5
q-2 -8 -6.5 -32.5t-6 -50.5t2 -46.5t17.5 -20.5q12 0 30 4t22 18v5q4 8 8 37.5t7.5 69.5t7 86t6.5 88t5 75t4 48v44t-0.5 66t-1 66t-1.5 44l3 11h158q14 0 19.5 5.5t8.5 16.5q1 3 2.5 8.5t3.5 11.5q3 11 4 20t-7 11q-32 2 -62 3.5t-60 1.5h-168q-36 0 -73 -1t-71 -4
q-13 -11 -17.5 -16.5t-7.5 -15.5q-1 -4 -2 -11t-1 -15q0 -7 1.5 -12.5t5.5 -5.5h155zM278 213l88 -6h10l-31 -41l-2 -2q-3 -4 -8.5 -10.5t-12 -13t-13 -11.5t-10.5 -5l-1 1q-2 5 -6.5 16.5t-8 24.5t-5.5 26t0 21zM283 303l1 3q32 60 62.5 116.5t62.5 116.5l32 62q2 2 4.5 6
l2.5 4l5 -4l-3 -162q5 -5 3 -11l-4 -15q-1 -3 -2.5 -20.5t-3.5 -38t-3.5 -38t-1.5 -21.5q-1 -1 -1 -5t-1 -6q-5 -18 -23 -22t-32 -4q-9 0 -26 3.5t-33.5 9t-28.5 12.5t-10 14zM574 799l-41 66q5 6 8 16q1 5 -4 13.5t-12.5 16.5t-14.5 14.5t-9 7.5q-2 3 -7.5 8.5t-6.5 5.5
l-2 0.5t-4 0.5q-6 0 -7 -1.5t-8 -7.5l-49 -46l-1 -6l3.5 -6t5.5 -9q5 -9 22 -20.5t36.5 -23.5t37.5 -23t25 -19q0 -1 2 -1h3q8 0 12.5 3t10.5 11z" />
    <glyph glyph-name="FL00E1h" unicode="&#xe1;" horiz-adv-x="569" 
d="M283 303q-2 -7 10 -14t28.5 -12.5t33.5 -9t26 -3.5q14 0 32 4t23 22q1 2 1 6t1 5q0 4 1.5 21.5t3.5 38t3.5 38t2.5 20.5l4 15q2 6 -3 11l3 162l-5 4l-2.5 -4t-4.5 -6l-32 -62q-32 -60 -62.5 -116.5t-62.5 -116.5zM278 213q-2 -8 0 -21t5.5 -26t8 -24.5t6.5 -16.5l1 -1
q4 0 10.5 5t13 11.5t12 13t8.5 10.5l2 2l31 41h-10zM249 658q-4 0 -5.5 5.5t-1.5 12.5q0 8 1 15t2 11q3 10 7.5 15.5t17.5 16.5q34 3 71 4t73 1h168q30 0 60 -1.5t62 -3.5q8 -2 7 -11t-4 -20q-2 -6 -3.5 -11.5t-2.5 -8.5q-3 -11 -8.5 -16.5t-19.5 -5.5h-158l-3 -11
q1 -13 1.5 -44t1 -66t0.5 -66v-44q-2 -15 -4 -48t-5 -75t-6.5 -88t-7 -86t-7.5 -69.5t-8 -37.5v-5q-4 -14 -22 -18t-30 -4q-14 0 -17.5 20.5t-2 46.5t6 50.5t6.5 32.5q-6 0 -12.5 -4.5t-13 -11t-12 -13.5t-9.5 -11q-4 -5 -13.5 -17t-20 -25.5t-19 -25t-10.5 -15.5
q-13 -10 -21 -18.5t-22 -8.5q-9 0 -13.5 5t-6.5 12.5t-2.5 16t-1.5 14.5q-2 7 -6 24.5t-8.5 37.5t-8.5 37.5t-6 24.5q-19 -21 -30.5 -46t-25.5 -48l-46 -73l-7 -4h-53l8 26t13 26l333 606h-155zM428 796l77 66q-2 5 0 16q1 5 11 13.5t22 16.5t22 14.5t13 7.5q4 3 12.5 8.5
t9.5 5.5l2 0.5t4 0.5q6 0 6.5 -1.5t4.5 -7.5l23 -46l-1 -6l-6.5 -6t-10.5 -9q-11 -9 -34 -20.5t-48.5 -23.5t-49 -23t-35.5 -19q-1 -1 -3 -1h-3q-8 0 -11 3t-5 11z" />
    <glyph glyph-name="FL00E2h" unicode="&#xe2;" horiz-adv-x="569" 
d="M404 658l-333 -606q-9 -13 -13 -26l-8 -26h53l7 4l46 73q14 23 25.5 48t30.5 46q2 -7 6 -24.5t8.5 -37.5t8.5 -37.5t6 -24.5q1 -6 1.5 -14.5t2.5 -16t6.5 -12.5t13.5 -5q14 0 22 8.5t21 18.5q2 4 10.5 15.5t19 25t20 25.5t13.5 17q4 4 9.5 11t12 13.5t13 11t12.5 4.5
q-2 -8 -6.5 -32.5t-6 -50.5t2 -46.5t17.5 -20.5q12 0 30 4t22 18v5q4 8 8 37.5t7.5 69.5t7 86t6.5 88t5 75t4 48v44t-0.5 66t-1 66t-1.5 44l3 11h158q14 0 19.5 5.5t8.5 16.5q1 3 2.5 8.5t3.5 11.5q3 11 4 20t-7 11q-32 2 -62 3.5t-60 1.5h-168q-36 0 -73 -1t-71 -4
q-13 -11 -17.5 -16.5t-7.5 -15.5q-1 -4 -2 -11t-1 -15q0 -7 1.5 -12.5t5.5 -5.5h155zM278 213l88 -6h10l-31 -41l-2 -2q-3 -4 -8.5 -10.5t-12 -13t-13 -11.5t-10.5 -5l-1 1q-2 5 -6.5 16.5t-8 24.5t-5.5 26t0 21zM283 303l1 3q32 60 62.5 116.5t62.5 116.5l32 62q2 2 4.5 6
l2.5 4l5 -4l-3 -162q5 -5 3 -11l-4 -15q-1 -3 -2.5 -20.5t-3.5 -38t-3.5 -38t-1.5 -21.5q-1 -1 -1 -5t-1 -6q-5 -18 -23 -22t-32 -4q-9 0 -26 3.5t-33.5 9t-28.5 12.5t-10 14zM507 866l79 -71q5 4 9 4q2 0 2.5 -1t1.5 -1t2 0.5t2 0.5q8 5 20.5 12t15.5 18q1 3 -12.5 22.5
t-30.5 42t-32 40.5t-16 18q-3 0 -9 -1.5t-8 -1.5q-44 -21 -77.5 -49.5t-70.5 -57.5l-25 -25l50 -24z" />
    <glyph glyph-name="FL00E3h" unicode="&#xe3;" horiz-adv-x="569" 
d="M283 303q-2 -7 10 -14t28.5 -12.5t33.5 -9t26 -3.5q14 0 32 4t23 22q1 2 1 6t1 5q0 4 1.5 21.5t3.5 38t3.5 38t2.5 20.5l4 15q2 6 -3 11l3 162l-5 4l-2.5 -4t-4.5 -6l-32 -62q-32 -60 -62.5 -116.5t-62.5 -116.5zM278 213q-2 -8 0 -21t5.5 -26t8 -24.5t6.5 -16.5l1 -1
q4 0 10.5 5t13 11.5t12 13t8.5 10.5l2 2l31 41h-10zM249 658q-4 0 -5.5 5.5t-1.5 12.5q0 8 1 15t2 11q3 10 7.5 15.5t17.5 16.5q34 3 71 4t73 1h168q30 0 60 -1.5t62 -3.5q8 -2 7 -11t-4 -20q-2 -6 -3.5 -11.5t-2.5 -8.5q-3 -11 -8.5 -16.5t-19.5 -5.5h-158l-3 -11
q1 -13 1.5 -44t1 -66t0.5 -66v-44q-2 -15 -4 -48t-5 -75t-6.5 -88t-7 -86t-7.5 -69.5t-8 -37.5v-5q-4 -14 -22 -18t-30 -4q-14 0 -17.5 20.5t-2 46.5t6 50.5t6.5 32.5q-6 0 -12.5 -4.5t-13 -11t-12 -13.5t-9.5 -11q-4 -5 -13.5 -17t-20 -25.5t-19 -25t-10.5 -15.5
q-13 -10 -21 -18.5t-22 -8.5q-9 0 -13.5 5t-6.5 12.5t-2.5 16t-1.5 14.5q-2 7 -6 24.5t-8.5 37.5t-8.5 37.5t-6 24.5q-19 -21 -30.5 -46t-25.5 -48l-46 -73l-7 -4h-53l8 26t13 26l333 606h-155zM593 869l99 74l50 -24l-25 -25q-19 -15 -36 -29.5t-34.5 -28t-36.5 -26.5
t-41 -23q-2 0 -8 -1.5t-9 -1.5q-2 0 -10.5 10t-20.5 25l-45 42l-99 -74l-51 24l26 25q37 29 70 57.5t78 49.5q2 0 7.5 1.5t8.5 1.5q1 0 9.5 -10.5t20.5 -25.5z" />
    <glyph glyph-name="FL00E4h" unicode="&#xe4;" horiz-adv-x="569" 
d="M283 303q-2 -7 10 -14t28.5 -12.5t33.5 -9t26 -3.5q14 0 32 4t23 22q1 2 1 6t1 5q0 4 1.5 21.5t3.5 38t3.5 38t2.5 20.5l4 15q2 6 -3 11l3 162l-5 4l-2.5 -4t-4.5 -6l-32 -62q-32 -60 -62.5 -116.5t-62.5 -116.5zM278 213q-2 -8 0 -21t5.5 -26t8 -24.5t6.5 -16.5l1 -1
q4 0 10.5 5t13 11.5t12 13t8.5 10.5l2 2l31 41h-10zM249 658q-4 0 -5.5 5.5t-1.5 12.5q0 8 1 15t2 11q3 10 7.5 15.5t17.5 16.5q34 3 71 4t73 1h168q30 0 60 -1.5t62 -3.5q8 -2 7 -11t-4 -20q-2 -6 -3.5 -11.5t-2.5 -8.5q-3 -11 -8.5 -16.5t-19.5 -5.5h-158l-3 -11
q1 -13 1.5 -44t1 -66t0.5 -66v-44q-2 -15 -4 -48t-5 -75t-6.5 -88t-7 -86t-7.5 -69.5t-8 -37.5v-5q-4 -14 -22 -18t-30 -4q-14 0 -17.5 20.5t-2 46.5t6 50.5t6.5 32.5q-6 0 -12.5 -4.5t-13 -11t-12 -13.5t-9.5 -11q-4 -5 -13.5 -17t-20 -25.5t-19 -25t-10.5 -15.5
q-13 -10 -21 -18.5t-22 -8.5q-9 0 -13.5 5t-6.5 12.5t-2.5 16t-1.5 14.5q-2 7 -6 24.5t-8.5 37.5t-8.5 37.5t-6 24.5q-19 -21 -30.5 -46t-25.5 -48l-46 -73l-7 -4h-53l8 26t13 26l333 606h-155zM384 799l-23 62q-2 4 -2 7q0 4 2 9q2 8 6.5 11t14.5 9q14 10 29 20l18 12
q4 3 12 8t9 5l2.5 0.5t4.5 0.5q6 0 6 -2q0 -1 4 -7l34 -71l-1 -5l-6.5 -6t-10.5 -9q-11 -9 -20 -16t-18 -13t-18 -12.5t-21 -14.5q-1 -1 -4 -1h-2q-13 0 -16 13zM579 801l-24 61q-2 5 0 16q3 8 7 12q5 3 14.5 9.5t19.5 13t17.5 11.5t9.5 6q4 3 12.5 8.5t9.5 5.5l2 0.5t4 0.5
q6 0 6.5 -1.5t4.5 -7.5l34 -71l-2 -6l-6.5 -6t-10.5 -9q-11 -9 -20 -15.5t-18 -12.5t-18 -12.5t-21 -15.5q-1 -1 -3 -1h-3q-8 0 -10.5 3t-4.5 11z" />
    <glyph glyph-name="FL00E5h" unicode="&#xe5;" horiz-adv-x="569" 
d="M283 303q-2 -7 10 -14t28.5 -12.5t33.5 -9t26 -3.5q14 0 32 4t23 22q1 2 1 6t1 5q0 4 1.5 21.5t3.5 38t3.5 38t2.5 20.5l4 15q2 6 -3 11l3 162l-5 4l-2.5 -4t-4.5 -6l-32 -62q-32 -60 -62.5 -116.5t-62.5 -116.5zM278 213q-2 -8 0 -21t5.5 -26t8 -24.5t6.5 -16.5l1 -1
q4 0 10.5 5t13 11.5t12 13t8.5 10.5l2 2l31 41h-10zM249 658q-4 0 -5.5 5.5t-1.5 12.5q0 8 1 15t2 11q3 10 7.5 15.5t17.5 16.5q34 3 71 4t73 1h168q30 0 60 -1.5t62 -3.5q8 -2 7 -11t-4 -20q-2 -6 -3.5 -11.5t-2.5 -8.5q-3 -11 -8.5 -16.5t-19.5 -5.5h-158l-3 -11
q1 -13 1.5 -44t1 -66t0.5 -66v-44q-2 -15 -4 -48t-5 -75t-6.5 -88t-7 -86t-7.5 -69.5t-8 -37.5v-5q-4 -14 -22 -18t-30 -4q-14 0 -17.5 20.5t-2 46.5t6 50.5t6.5 32.5q-6 0 -12.5 -4.5t-13 -11t-12 -13.5t-9.5 -11q-4 -5 -13.5 -17t-20 -25.5t-19 -25t-10.5 -15.5
q-13 -10 -21 -18.5t-22 -8.5q-9 0 -13.5 5t-6.5 12.5t-2.5 16t-1.5 14.5q-2 7 -6 24.5t-8.5 37.5t-8.5 37.5t-6 24.5q-19 -21 -30.5 -46t-25.5 -48l-46 -73l-7 -4h-53l8 26t13 26l333 606h-155zM482 804l-23 61q-3 7 0 16q2 8 7 12q5 3 14.5 9.5t19.5 13t17.5 11.5t9.5 6
q4 3 12.5 8.5t9.5 5.5l2 0.5t4 0.5q6 0 6.5 -1.5t4.5 -7.5l34 -71l-2 -6l-6.5 -6t-10.5 -9q-11 -9 -20 -15.5t-18 -12.5t-18 -12.5t-21 -15.5q-1 -1 -3 -1h-3q-8 0 -11 3t-5 11z" />
    <glyph glyph-name="FL00E6h" unicode="&#xe6;" horiz-adv-x="863" 
d="M415 679l-342 -620q-9 -13 -13 -26t-7 -26h52l8 5l46 73q14 22 25 47t30 46q2 -7 6.5 -24.5t9 -37t8 -37t4.5 -25.5q2 -6 2.5 -14.5t2.5 -16t6.5 -12.5t13.5 -5q16 0 23.5 9.5t19.5 17.5q3 4 12 15.5t19 25t19.5 25.5t13.5 17q2 4 8 11t12.5 14t14 11.5t12.5 4.5
q-2 -7 -5.5 -28.5t-6 -46t-1 -45.5t10.5 -28q-2 -8 0 -9l73 4h311l49 156q1 4 2.5 8.5l3.5 10.5q4 14 3.5 28.5t-14.5 14.5q-30 0 -44.5 -21t-21.5 -47q-5 -18 -8 -34.5t-7 -29.5q-5 -17 -11 -17h-247q4 14 9.5 39t13.5 57q8 30 18 64t19 62.5t17 47.5t13 19q22 0 30 -14.5
t13 -32.5t12 -32.5t28 -14.5q2 0 7.5 1.5t8.5 3.5q19 21 37 34.5t36.5 25t39 22.5t46.5 27q5 1 7 6l2 9q6 18 -1 36q-18 3 -37.5 4t-39.5 1h-82q-21 0 -41 1t-40 5q-1 1 -2.5 2t-2.5 3q1 2 2 7.5t1.5 11.5t1.5 10.5t1 6.5l29 106q2 5 5 15t6 21q3 12 5 21.5t4 14.5
q4 5 6 5.5t6 0.5h1q9 0 19 5t21 2h147q19 0 37.5 1.5t44.5 3.5q15 2 24 5t14 9t8 15.5t7 23.5l3 11l1 9l-4 6h-358l-4 -2q-14 1 -27 1.5t-27 0.5h-169q-35 0 -73 -1t-71 -5q-13 -11 -17.5 -16.5t-7.5 -15.5q-1 -4 -2 -11t-1 -14t1.5 -12.5t6.5 -5.5h155zM285 310l1 3
q33 60 63.5 116.5t61.5 116.5l33 62q2 2 4 6t3 4l5 -4l-3 -161q5 -5 2 -12l-4 -14q-1 -4 -2.5 -21.5t-3.5 -38t-3 -38t-1 -21.5q-1 -1 -1.5 -5t-0.5 -6q-5 -17 -23.5 -21.5t-32.5 -4.5q-8 0 -25 3.5t-34 9t-29 12.5t-10 14zM517 437q0 13 1.5 46t2.5 70.5t1.5 70.5t0.5 46
l2 11h71l-83 -311q1 23 2.5 40.5t1.5 26.5zM281 220l88 -6h10l-32 -41l-1 -2q-3 -4 -8.5 -10.5t-12 -13t-13 -11.5t-10.5 -5l-2 1q-2 6 -6 17t-8 24t-5.5 26t0.5 21zM677 378q16 13 22.5 16.5t21.5 3.5q4 -2 11.5 -3t15 -2.5t13 -3.5t4.5 -5q-2 -6 -9 -13t-16 -12.5t-18 -9
t-13 -3.5h-3q-2 1 -6.5 5.5t-9 9.5t-8.5 10t-5 7z" />
    <glyph glyph-name="FL00E7h" unicode="&#xe7;" horiz-adv-x="453" 
d="M174 462l-116 -431q-3 -11 2 -16.5t7 -14.5h139l8 -23q-1 -5 -16.5 -17.5t-35 -26.5t-37 -26.5t-23.5 -16.5q-7 -5 -8.5 -13.5t-8.5 -10.5q1 -8 9.5 -10.5t13.5 -4.5h61l103 10q10 8 17 16.5t9 18.5v1v4t-2 4q-11 32 -16.5 52.5t-13.5 42.5h101q6 0 11 6t9.5 14t7.5 15.5
t5 11.5l3 9l16 58q5 19 8.5 36t5.5 36q-2 9 -8 10.5t-14 1.5h-2q-23 0 -36 -23t-20 -50q-5 -17 -7.5 -30t-5.5 -23h-143l-12 4l-1 -4h-36q27 109 48 190.5t38 144.5q16 58 28.5 101.5t23.5 75t20.5 53.5t18.5 37h171l3 -5q-18 -20 -36.5 -42t-35 -45t-29.5 -46.5t-19 -47.5
q-4 -12 6 -14t18 -2h2q15 0 25.5 6t18.5 16t15 21.5t16 23.5l102 130l15 56q2 5 -1 10.5t-7 10.5l-2 2h-209q-30 0 -60.5 -1t-57.5 -6q-12 -25 -20.5 -49t-15.5 -49l-1 -6v-7l-26 -98q-5 -18 -10.5 -35t-12.5 -35zM247 -98q-3 -1 -12 -2t-19 -1.5t-19 -1t-12 -0.5h-6l57 51
h7zM281 -142q1 0 3 3q2 5 -1 5q-2 0 -4 -5q-2 -3 2 -3z" />
    <glyph glyph-name="FL00E8h" unicode="&#xe8;" horiz-adv-x="499" 
d="M59 34l-1 -3q0 -1 -0.5 -5.5t-1 -9.5l-1 -10t0.5 -6h382l51 160l5 19q4 14 4 28q0 15 -14 15q-31 0 -45.5 -21t-21.5 -47q-5 -18 -7.5 -34.5t-6.5 -29.5q-5 -17 -11 -17h-248q4 14 9.5 39t13.5 57q8 30 17.5 64t19 62.5t17.5 47.5t14 19q22 0 30 -14.5t13 -32.5t12 -32.5
t28 -14.5q2 0 7.5 1.5t8.5 3.5q19 21 36.5 34.5t36 25t39.5 22.5t47 27q5 3 7 6l2 9q6 17 -2 36q-18 3 -37 4t-39 1h-83q-21 0 -41 1t-40 5l-2 2t-2 3q1 2 1.5 7.5t1.5 11.5t1.5 10.5t0.5 6.5l29 106q2 5 5 15t6 21q3 12 5 21.5t4 14.5q4 5 6.5 5.5t5.5 0.5h2q9 0 19 5t21 2
h121h25q20 0 38 1.5t44 3.5q15 2 24 5t14 9t8 15.5t7 23.5l3 11l1 9l-3 6h-358l-41 -26zM313 378q16 13 22.5 16.5t21.5 3.5q4 -2 12 -3.5t15.5 -3t13 -3t4.5 -4.5q-2 -6 -9 -13t-16 -12.5t-18 -9t-13 -3.5h-4q-2 1 -6 5.5t-8.5 9.5l-9 10t-5.5 7zM538 797l-42 66
q4 4 5.5 7.5t3.5 8.5q1 5 -4.5 13.5t-13 16.5t-14.5 14.5t-9 7.5q-2 3 -7.5 8.5t-6.5 5.5l-2 0.5t-4 0.5q-6 0 -7 -1.5t-8 -7.5l-48 -46l-2 -6l3.5 -6t5.5 -9q6 -9 22.5 -20.5t36 -23.5t37.5 -23t25 -19q1 -1 3 -1h3q8 0 12.5 3t10.5 11z" />
    <glyph glyph-name="FL00E9h" unicode="&#xe9;" horiz-adv-x="499" 
d="M313 378q1 -2 5.5 -7l9 -10t8.5 -9.5t6 -5.5h4q4 0 13 3.5t18 9t16 12.5t9 13q1 3 -4.5 4.5t-13 3t-15.5 3t-12 3.5q-15 0 -21.5 -3.5t-22.5 -16.5zM247 734l41 26h358l3 -6l-1 -9l-3 -11q-4 -14 -7 -23.5t-8 -15.5t-14 -9t-24 -5q-26 -2 -44 -3.5t-38 -1.5h-25h-121
q-11 3 -21 -2t-19 -5h-2q-3 0 -5.5 -0.5t-6.5 -5.5q-2 -5 -4 -14.5t-5 -21.5q-3 -11 -6 -21t-5 -15l-29 -106q0 -2 -0.5 -6.5t-1.5 -10.5t-1.5 -11.5t-1.5 -7.5q1 -2 2 -3l2 -2q20 -4 40 -5t41 -1h83q20 0 39 -1t37 -4q8 -19 2 -36l-2 -9q-2 -3 -7 -6q-26 -16 -47 -27
t-39.5 -22.5t-36 -25t-36.5 -34.5q-3 -2 -8.5 -3.5t-7.5 -1.5q-21 0 -28 14.5t-12 32.5t-13 32.5t-30 14.5q-6 0 -14 -19t-17.5 -47.5t-19 -62.5t-17.5 -64q-8 -32 -13.5 -57t-9.5 -39h248q6 0 11 17q4 13 6.5 29.5t7.5 34.5q7 26 21.5 47t45.5 21q14 0 14 -15q0 -14 -4 -28
l-5 -19l-51 -160h-382q-1 1 -0.5 6l1 10t1 9.5t0.5 5.5l1 3zM404 798l77 66q-3 7 0 16q1 5 11 13.5t22 16.5t22 14.5t13 7.5q4 3 12 8.5t9 5.5l2.5 0.5t4.5 0.5q6 0 6 -2q0 -1 4 -7l24 -46l-2 -6l-6.5 -6t-10.5 -9q-10 -9 -33 -20.5t-49 -23.5t-49.5 -23t-35.5 -19
q-1 -1 -3 -1h-3q-8 0 -10.5 3t-4.5 11z" />
    <glyph glyph-name="FL00EAh" unicode="&#xea;" horiz-adv-x="499" 
d="M59 34l-1 -3q0 -1 -0.5 -5.5t-1 -9.5l-1 -10t0.5 -6h382l51 160l5 19q4 14 4 28q0 15 -14 15q-31 0 -45.5 -21t-21.5 -47q-5 -18 -7.5 -34.5t-6.5 -29.5q-5 -17 -11 -17h-248q4 14 9.5 39t13.5 57q8 30 17.5 64t19 62.5t17.5 47.5t14 19q22 0 30 -14.5t13 -32.5t12 -32.5
t28 -14.5q2 0 7.5 1.5t8.5 3.5q19 21 36.5 34.5t36 25t39.5 22.5t47 27q5 3 7 6l2 9q6 17 -2 36q-18 3 -37 4t-39 1h-83q-21 0 -41 1t-40 5l-2 2t-2 3q1 2 1.5 7.5t1.5 11.5t1.5 10.5t0.5 6.5l29 106q2 5 5 15t6 21q3 12 5 21.5t4 14.5q4 5 6.5 5.5t5.5 0.5h2q9 0 19 5t21 2
h121h25q20 0 38 1.5t44 3.5q15 2 24 5t14 9t8 15.5t7 23.5l3 11l1 9l-3 6h-358l-41 -26zM313 378q16 13 22.5 16.5t21.5 3.5q4 -2 12 -3.5t15.5 -3t13 -3t4.5 -4.5q-2 -6 -9 -13t-16 -12.5t-18 -9t-13 -3.5h-4q-2 1 -6 5.5t-8.5 9.5l-9 10t-5.5 7zM473 871l79 -71q5 4 9 4
q2 0 2.5 -1t1.5 -1t2 0.5t2 0.5q8 5 20.5 12t15.5 18q1 3 -12.5 22.5t-30.5 42t-32 40.5t-16 18q-3 0 -9 -1.5t-8 -1.5q-44 -21 -77 -49.5t-70 -57.5l-26 -25l51 -24z" />
    <glyph glyph-name="FL00EBh" unicode="&#xeb;" horiz-adv-x="499" 
d="M313 378q1 -2 5.5 -7l9 -10t8.5 -9.5t6 -5.5h4q4 0 13 3.5t18 9t16 12.5t9 13q1 3 -4.5 4.5t-13 3t-15.5 3t-12 3.5q-15 0 -21.5 -3.5t-22.5 -16.5zM242 717l41 26h358l3 -6q2 0 -1 -9l-3 -11q-4 -14 -7 -23.5t-8 -15.5t-13.5 -9t-23.5 -5q-27 -2 -44.5 -3.5t-37.5 -1.5
h-25h-121q-11 3 -21 -2t-19 -5h-2q-3 0 -6 -0.5t-7 -5.5q-2 -5 -3.5 -14.5t-5.5 -21.5q-3 -11 -5.5 -21t-4.5 -15l-25 -89q0 -2 -0.5 -6.5t-1.5 -10.5t-1.5 -11.5t-1.5 -7.5q1 -2 2 -3l2 -2q20 -4 40 -5t41 -1h83q20 0 39 -1t37 -4q8 -19 2 -36l-2 -9q-2 -3 -7 -6
q-26 -16 -47 -27t-39.5 -22.5t-36 -25t-36.5 -34.5q-3 -2 -8.5 -3.5t-7.5 -1.5q-21 0 -28 14.5t-12 32.5t-13 32.5t-30 14.5q-6 0 -14 -19t-17.5 -47.5t-19 -62.5t-17.5 -64q-8 -32 -13.5 -57t-9.5 -39h248q6 0 11 17q4 13 6.5 29.5t7.5 34.5q7 26 21.5 47t45.5 21
q14 0 14 -15q0 -14 -4 -28l-5 -19l-52 -164h-309l-72 4q-1 1 -0.5 6l1 10t1 9.5t0.5 5.5l1 3zM358 799l-23 62q-2 4 -2 7q0 4 2 9q2 8 6.5 11t14.5 9q14 10 29 20l18 12q4 3 12 8t9 5l2.5 0.5t4.5 0.5q6 0 6 -2q0 -1 4 -7l34 -71l-1 -5l-6.5 -6t-10.5 -9q-11 -9 -20 -16
t-18 -13t-18 -12.5t-21 -14.5q-1 -1 -4 -1h-2q-13 0 -16 13zM553 801l-24 61q-2 5 0 16q3 8 7 12q5 3 14.5 9.5t19.5 13t17.5 11.5t9.5 6q4 3 12.5 8.5t9.5 5.5l2 0.5t4 0.5q6 0 6.5 -1.5t4.5 -7.5l34 -71l-2 -6l-6.5 -6t-10.5 -9q-11 -9 -20 -15.5t-18 -12.5t-18 -12.5
t-21 -15.5q-1 -1 -3 -1h-3q-8 0 -10.5 3t-4.5 11z" />
    <glyph glyph-name="FL00ECh" unicode="&#xec;" horiz-adv-x="469" 
d="M78 4q26 -3 48 -4t48 -1h42q13 0 23.5 0.5t17.5 0.5h11q13 0 32.5 0.5t37.5 1.5t31.5 1.5t14.5 0.5l39 32l3 9q4 14 2 24.5t-20 10.5h-122l127 473l10 37l5 19q4 12 4 18q6 13 10.5 24.5t7.5 24.5l3 13q9 4 14 5t13 1h21q43 0 61.5 1.5t28.5 3.5q5 2 11.5 5t8.5 10
q0 1 1 8t1.5 14.5t0 13.5t-1.5 6h-301q-6 0 -12.5 -5t-11.5 -12t-9 -14t-5 -11l-3 -8q-1 -3 1 -2.5t10 -4.5q9 -8 19 -10t23 -2q15 0 27 2t29 2l-60 -224q-15 -57 -30.5 -112t-33.5 -112q-2 -9 -9.5 -32t-15.5 -48.5t-16 -48.5t-12 -32q-8 -4 -26 -4l-46 2q-23 0 -42 -6
t-26 -29q-3 -13 2 -23.5t14 -18.5zM531 797l-42 66q4 4 5.5 7.5t3.5 8.5q1 5 -4.5 13.5t-13 16.5t-14.5 14.5t-9 7.5q-2 3 -7.5 8.5t-6.5 5.5l-2 0.5t-4 0.5q-6 0 -7 -1.5t-8 -7.5l-48 -46l-2 -6l3.5 -6t5.5 -9q6 -9 22.5 -20.5t36 -23.5t37.5 -23t25 -19q1 -1 3 -1h3
q8 0 12.5 3t10.5 11z" />
    <glyph glyph-name="FL00EDh" unicode="&#xed;" horiz-adv-x="469" 
d="M78 4q-9 8 -14 18.5t-2 23.5q7 23 26 29t42 6l46 -2q18 0 26 4q4 9 12 32t16 48.5t15.5 48.5t9.5 32q18 57 33.5 112t30.5 112l60 224q-17 0 -29 -2t-27 -2q-13 0 -23 2t-19 10q-8 5 -10 4.5t-1 2.5l3 8q1 4 5 11t9 14t11.5 12t12.5 5h301q1 0 1.5 -6t0 -13.5t-1.5 -14.5
t-1 -8q-2 -7 -8.5 -10t-11.5 -5q-10 -2 -28.5 -3.5t-61.5 -1.5h-21q-8 0 -13 -1t-14 -5l-3 -13q-3 -13 -7.5 -24.5t-10.5 -24.5q0 -6 -4 -18l-5 -19l-10 -37l-127 -473h122q18 0 20 -10.5t-2 -24.5l-3 -9l-39 -32q-1 0 -14.5 -0.5t-31.5 -1.5t-37.5 -1.5t-32.5 -0.5h-11
q-7 0 -17.5 -0.5t-23.5 -0.5h-42q-26 0 -48 1t-48 4zM382 798l77 66q-3 7 0 16q1 5 11 13.5t22 16.5t22 14.5t13 7.5q4 3 12 8.5t9 5.5l2.5 0.5t4.5 0.5q6 0 6 -2q0 -1 4 -7l24 -46l-2 -6l-6.5 -6t-10.5 -9q-10 -9 -33 -20.5t-49 -23.5t-49.5 -23t-35.5 -19q-1 -1 -3 -1h-3
q-8 0 -10.5 3t-4.5 11z" />
    <glyph glyph-name="FL00EEh" unicode="&#xee;" horiz-adv-x="469" 
d="M78 4q26 -3 48 -4t48 -1h42q13 0 23.5 0.5t17.5 0.5h11q13 0 32.5 0.5t37.5 1.5t31.5 1.5t14.5 0.5l39 32l3 9q4 14 2 24.5t-20 10.5h-122l127 473l10 37l5 19q4 12 4 18q6 13 10.5 24.5t7.5 24.5l3 13q9 4 14 5t13 1h21q43 0 61.5 1.5t28.5 3.5q5 2 11.5 5t8.5 10
q0 1 1 8t1.5 14.5t0 13.5t-1.5 6h-301q-6 0 -12.5 -5t-11.5 -12t-9 -14t-5 -11l-3 -8q-1 -3 1 -2.5t10 -4.5q9 -8 19 -10t23 -2q15 0 27 2t29 2l-60 -224q-15 -57 -30.5 -112t-33.5 -112q-2 -9 -9.5 -32t-15.5 -48.5t-16 -48.5t-12 -32q-8 -4 -26 -4l-46 2q-23 0 -42 -6
t-26 -29q-3 -13 2 -23.5t14 -18.5zM465 863l79 -71q5 4 9 4q2 0 2.5 -1t1.5 -1t2 0.5t2 0.5q8 5 20.5 12t15.5 18q1 3 -12.5 22.5t-30.5 42t-32 40.5t-16 18q-3 0 -9 -1.5t-8 -1.5q-44 -21 -77 -49.5t-70 -57.5l-26 -25l50 -24z" />
    <glyph glyph-name="FL00EFh" unicode="&#xef;" horiz-adv-x="469" 
d="M78 4q-9 8 -14 18.5t-2 23.5q7 23 26 29t42 6l46 -2q18 0 26 4q4 9 12 32t16 48.5t15.5 48.5t9.5 32q18 57 33.5 112t30.5 112l60 224q-17 0 -29 -2t-27 -2q-13 0 -23 2t-19 10q-8 5 -10 4.5t-1 2.5l3 8q1 4 5 11t9 14t11.5 12t12.5 5h301q1 0 1.5 -6t0 -13.5t-1.5 -14.5
t-1 -8q-2 -7 -8.5 -10t-11.5 -5q-10 -2 -28.5 -3.5t-61.5 -1.5h-21q-8 0 -13 -1t-14 -5l-3 -13q-3 -13 -7.5 -24.5t-10.5 -24.5q0 -6 -4 -18l-5 -19l-10 -37l-127 -473h122q18 0 20 -10.5t-2 -24.5l-3 -9l-39 -32q-1 0 -14.5 -0.5t-31.5 -1.5t-37.5 -1.5t-32.5 -0.5h-11
q-7 0 -17.5 -0.5t-23.5 -0.5h-42q-26 0 -48 1t-48 4zM336 801l-24 62q-2 5 1 16q2 8 6.5 11t14.5 9q14 10 29 20t17 12q5 3 13 8t9 5l2 0.5t4 0.5q6 0 6.5 -1.5t4.5 -7.5l34 -71l-2 -5l-6.5 -6t-10.5 -9q-22 -18 -38 -29t-39 -27q-1 -1 -4 -1h-2q-14 0 -15 13zM530 803
l-23 61q-3 7 0 16q2 8 7 12q5 3 14.5 9.5l19 13t17.5 11.5t10 6q4 3 12 8.5t9 5.5l2.5 0.5t4.5 0.5q6 0 6 -2q0 -1 4 -7l34 -71l-1 -6l-6.5 -6t-10.5 -9q-11 -9 -20 -15.5t-18 -12.5t-18 -12.5t-21 -15.5q-2 -1 -4 -1h-3q-8 0 -10.5 3t-4.5 11z" />
    <glyph glyph-name="FL0064h" unicode="&#xf0;" horiz-adv-x="646" 
d="M794 740q-12 4 -22 4h-24h-41h-64h-74q-28 0 -54.5 -0.5t-48 -1t-36.5 -1t-20 -1.5l-17 -65h190l-63 -234l-9 -34l-4 -17l-3 -8q0 -2 -0.5 -4.5t-0.5 -4.5l-49 -183q-2 -5 -6 -19.5t-9 -30.5t-9.5 -30t-6.5 -18q-5 -8 -16.5 -10t-22.5 -2l-13 1h-212q-5 0 -9.5 1t-3.5 3
l97 364h156l8 -11l-1 -5l-7 -27l-4 -14q-11 -43 -23.5 -87.5t-29.5 -89.5q-4 -10 -14 -13t-18 -3h-12q-3 0 -7 0.5l-4 0.5l-3 11l41 155q2 5 -4 5.5t-9 0.5h-17q-10 0 -19.5 -2t-14.5 -10q-2 -7 -7.5 -24.5t-11.5 -37t-11 -37l-7 -24.5l-10 -53q1 -1 -1 -10q-3 -9 -4.5 -21
t4.5 -14l11 -7h33q11 0 25 -1t29 -1q16 0 32 2t30 7.5t24 15t14 24.5l69 259q1 2 2 8.5t1.5 14t1.5 14.5t2 10q2 8 -3 19.5t-16 11.5h-237q-28 0 -39.5 -17t-17.5 -41l-90 -336q-10 -35 -15.5 -64.5t4.5 -60.5h31q97 0 194.5 1t196.5 6l47 -1q11 0 19 0.5t18 5.5
q11 5 18 22.5t11 31.5l1 5l3 13q-12 3 -26 4t-30 1l-23 -1q-10 0 -15 6t-4 28l148 552q21 2 36 3.5t26 1.5q17 0 27.5 1.5t18 7.5t12.5 18t11 33z" />
    <glyph glyph-name="FL00F1h" unicode="&#xf1;" horiz-adv-x="600" 
d="M466 0l45 168q2 2 -13 17t-39.5 37t-53.5 47t-55 48t-45.5 41t-24.5 24q-2 0 -8 2t-12.5 4.5l-13 5t-8.5 3.5q-7 -6 -9 -14l-93 -347l-16 -9q-2 -9 -5.5 -18t-11.5 -9h-46l-5 4q1 2 4 15t6 24l167 626l21 64q2 2 8 5t12.5 6t11.5 5t6 2h37q4 0 2 -5q0 -4 -1 -9l1 -22
l-50 -184q-1 -3 16 -22.5t44 -46.5t59 -57.5t61 -56.5t52 -43t30 -17l11 1q5 13 11 33t13 42.5t13.5 45.5t11.5 43l48 176q-1 2 1 11l3 11l6 21q10 35 21 70v2q8 8 22 10t21 2q21 0 23 -13.5t-3 -31.5l-7 -23q-18 -57 -33.5 -111.5t-30.5 -109.5l-117 -437l-16 -30h-71z
M610 873l99 74l50 -24l-25 -25q-19 -15 -36 -29.5t-34.5 -28t-36.5 -26.5t-41 -23q-2 0 -8 -1.5t-9 -1.5q-2 0 -10.5 10t-19.5 25l-46 42l-99 -74l-51 24l26 25q37 29 70 57.5t78 49.5q2 0 8 1.5t9 1.5q1 0 9 -10.5t20 -25.5z" />
    <glyph glyph-name="FL00F2h" unicode="&#xf2;" 
d="M69 39l-2 -11q-2 -8 -2.5 -15t5.5 -7l9 -6h551l6 16l2 7q3 11 -1 19.5t-6 10.5l-5 13h-101q-5 0 -15.5 0.5t-21.5 1.5t-21 1.5t-15 0.5q21 31 52.5 68.5t70 79.5t81.5 88.5t88 94.5l2 7l-161 271h172q4 0 12.5 3t10.5 5l1.5 3.5t1.5 5.5q5 14 4.5 27t3.5 26h-497l-3.5 -4
t-4.5 -6q0 -1 1.5 -3.5l1.5 -2.5l-5 -21q-2 -8 -4 -15t3 -10q2 0 14 -2.5t16 -2.5q8 0 24.5 -0.5t36.5 -0.5q21 0 38.5 0.5t25.5 0.5l1.5 -2t0.5 -4l-6 -9l-271 -273l-12 -18q14 -30 34 -69.5t40.5 -80.5t39 -79.5t29.5 -67.5l-30 -5h-52q-14 0 -24.5 -0.5t-15.5 -0.5h-37
q-21 0 -40 -5.5t-26 -28.5zM277 304l-35 89l46 48q49 50 94 91t94 89q2 2 6.5 5.5t6.5 4.5l0.5 0.5t1.5 0.5t2 -0.5l1 -0.5q1 -1 5 -6.5t6 -8.5q17 -29 33 -53t31.5 -47.5t31 -48t31.5 -54.5q2 -1 2 -5v-4l-1 -4l-41 -57l-203 -234l-5 -6q-11 7 -24 29t-27 51t-28.5 61
t-27.5 60zM616 799l-41 66q5 6 8 16q1 5 -4 13.5t-12.5 16.5t-14.5 14.5t-9 7.5q-2 3 -7.5 8.5t-6.5 5.5l-2 0.5t-4 0.5q-6 0 -7 -1.5t-8 -7.5l-49 -46l-1 -6l3.5 -6t5.5 -9q5 -9 22 -20.5t36.5 -23.5t37.5 -23t25 -19q0 -1 2 -1h3q8 0 12.5 3t10.5 11z" />
    <glyph glyph-name="FL00F3h" unicode="&#xf3;" 
d="M277 304q13 -28 27.5 -60t28.5 -61t27 -51t24 -29l5 6l203 234l41 57l1 4v4t-2 5q-16 30 -31.5 54.5t-31 48t-31.5 47.5t-33 53q-2 3 -6 8.5t-5 6.5l-1 0.5t-2 0.5t-1.5 -0.5l-0.5 -0.5q-2 -1 -6.5 -4.5t-6.5 -5.5q-49 -48 -94 -89t-94 -91l-46 -48zM69 39q7 23 26 28.5
t40 5.5h37q5 0 15.5 0.5t24.5 0.5h52l30 5q-11 29 -29.5 67.5t-39 79.5t-40.5 80.5t-34 69.5l12 18l271 273l6 9q1 2 -0.5 4l-1.5 2q-8 0 -25.5 -0.5t-38.5 -0.5q-20 0 -36.5 0.5t-24.5 0.5q-4 0 -16 2.5t-14 2.5q-5 3 -3 10t4 15l5 21l-1.5 2.5t-1.5 3.5q1 2 4.5 6l3.5 4
h497q-4 -13 -3.5 -26t-4.5 -27q0 -2 -1.5 -5.5l-1.5 -3.5q-2 -2 -10.5 -5t-12.5 -3h-172l161 -271l-2 -7q-45 -48 -88 -94.5t-81.5 -88.5t-70 -79.5t-52.5 -68.5q5 0 15 -0.5t21 -1.5t21.5 -1.5t15.5 -0.5h101l5 -13q2 -2 6 -10.5t1 -19.5l-2 -7l-6 -16h-551l-9 6
q-6 0 -5.5 7t2.5 15zM466 804l77 66q-2 5 0 16q1 5 11 13.5t22 16.5t22.5 14.5t12.5 7.5q4 3 12.5 8.5t9.5 5.5l2 0.5t4 0.5q6 0 6.5 -1.5t4.5 -7.5l24 -46l-2 -6l-6.5 -6t-10.5 -9q-10 -9 -33 -20.5t-49 -23.5t-49.5 -23t-35.5 -19q-1 -1 -3 -1h-3q-8 0 -11 3t-5 11z" />
    <glyph glyph-name="FL00F4h" unicode="&#xf4;" 
d="M69 39l-2 -11q-2 -8 -2.5 -15t5.5 -7l9 -6h551l6 16l2 7q3 11 -1 19.5t-6 10.5l-5 13h-101q-5 0 -15.5 0.5t-21.5 1.5t-21 1.5t-15 0.5q21 31 52.5 68.5t70 79.5t81.5 88.5t88 94.5l2 7l-161 271h172q4 0 12.5 3t10.5 5l1.5 3.5t1.5 5.5q5 14 4.5 27t3.5 26h-497l-3.5 -4
t-4.5 -6q0 -1 1.5 -3.5l1.5 -2.5l-5 -21q-2 -8 -4 -15t3 -10q2 0 14 -2.5t16 -2.5q8 0 24.5 -0.5t36.5 -0.5q21 0 38.5 0.5t25.5 0.5l1.5 -2t0.5 -4l-6 -9l-271 -273l-12 -18q14 -30 34 -69.5t40.5 -80.5t39 -79.5t29.5 -67.5l-30 -5h-52q-14 0 -24.5 -0.5t-15.5 -0.5h-37
q-21 0 -40 -5.5t-26 -28.5zM277 304l-35 89l46 48q49 50 94 91t94 89q2 2 6.5 5.5t6.5 4.5l0.5 0.5t1.5 0.5t2 -0.5l1 -0.5q1 -1 5 -6.5t6 -8.5q17 -29 33 -53t31.5 -47.5t31 -48t31.5 -54.5q2 -1 2 -5v-4l-1 -4l-41 -57l-203 -234l-5 -6q-11 7 -24 29t-27 51t-28.5 61
t-27.5 60zM570 866l79 -71q5 4 9 4q2 0 2.5 -1t1.5 -1t2 0.5t2 0.5q8 5 20.5 12t15.5 18q1 3 -12.5 22.5t-30.5 42t-32 40.5t-16 18q-3 0 -9 -1.5t-8 -1.5q-44 -21 -77.5 -49.5t-70.5 -57.5l-25 -25l50 -24z" />
    <glyph glyph-name="FL00F5h" unicode="&#xf5;" 
d="M69 39q7 23 26 28.5t40 5.5h37q5 0 15.5 0.5t24.5 0.5h52l30 5q-11 29 -29.5 67.5t-39 79.5t-40.5 80.5t-34 69.5l12 18l271 273l6 9q1 2 -0.5 4l-1.5 2q-8 0 -25.5 -0.5t-38.5 -0.5q-20 0 -36.5 0.5t-24.5 0.5q-4 0 -16 2.5t-14 2.5q-5 3 -3 10t4 15l5 21l-1.5 2.5
t-1.5 3.5q1 2 4.5 6l3.5 4h497q-4 -13 -3.5 -26t-4.5 -27q0 -2 -1.5 -5.5l-1.5 -3.5q-2 -2 -10.5 -5t-12.5 -3h-172l161 -271l-2 -7q-45 -48 -88 -94.5t-81.5 -88.5t-70 -79.5t-52.5 -68.5q5 0 15 -0.5t21 -1.5t21.5 -1.5t15.5 -0.5h101l5 -13q2 -2 6 -10.5t1 -19.5l-2 -7
l-6 -16h-551l-9 6q-6 0 -5.5 7t2.5 15zM277 304q13 -28 27.5 -60t28.5 -61t27 -51t24 -29l5 6l203 234l41 57l1 4v4t-2 5q-16 30 -31.5 54.5t-31 48t-31.5 47.5t-33 53q-2 3 -6 8.5t-5 6.5l-1 0.5t-2 0.5t-1.5 -0.5l-0.5 -0.5q-2 -1 -6.5 -4.5t-6.5 -5.5q-49 -48 -94 -89
t-94 -91l-46 -48zM647 871l99 74l51 -24l-26 -25q-37 -29 -70 -57.5t-78 -49.5q-2 0 -7.5 -1.5t-8.5 -1.5q-2 0 -10.5 10t-20.5 25l-46 42l-99 -74l-50 24l26 25q37 29 70 57.5t77 49.5q2 0 8 1.5t9 1.5q1 0 9.5 -10.5t19.5 -25.5z" />
    <glyph glyph-name="FL00F6h" unicode="&#xf6;" 
d="M277 304q13 -28 27.5 -60t28.5 -61t27 -51t24 -29l5 6l203 234l41 57l1 4v4t-2 5q-16 30 -31.5 54.5t-31 48t-31.5 47.5t-33 53q-2 3 -6 8.5t-5 6.5l-1 0.5t-2 0.5t-1.5 -0.5l-0.5 -0.5q-2 -1 -6.5 -4.5t-6.5 -5.5q-49 -48 -94 -89t-94 -91l-46 -48zM69 39q7 23 26 28.5
t40 5.5h37q5 0 15.5 0.5t24.5 0.5h52l30 5q-11 29 -29.5 67.5t-39 79.5t-40.5 80.5t-34 69.5l12 18l271 273l6 9q1 2 -0.5 4l-1.5 2q-8 0 -25.5 -0.5t-38.5 -0.5q-20 0 -36.5 0.5t-24.5 0.5q-4 0 -16 2.5t-14 2.5q-5 3 -3 10t4 15l5 21l-1.5 2.5t-1.5 3.5q1 2 4.5 6l3.5 4
h497q-4 -13 -3.5 -26t-4.5 -27q0 -2 -1.5 -5.5l-1.5 -3.5q-2 -2 -10.5 -5t-12.5 -3h-172l161 -271l-2 -7q-45 -48 -88 -94.5t-81.5 -88.5t-70 -79.5t-52.5 -68.5q5 0 15 -0.5t21 -1.5t21.5 -1.5t15.5 -0.5h101l5 -13q2 -2 6 -10.5t1 -19.5l-2 -7l-6 -16h-551l-9 6
q-6 0 -5.5 7t2.5 15zM428 798l-24 62q-2 5 1 16q2 8 6.5 11t14.5 9q14 10 29 20l18 12q4 3 12 8t9 5l2 0.5t4 0.5q6 0 6.5 -1.5t4.5 -7.5l34 -71l-1 -5l-6.5 -6t-10.5 -9q-23 -18 -38.5 -29t-38.5 -27q-2 -1 -5 -1h-2q-14 0 -15 13zM622 800l-23 61q-3 7 0 16q2 8 7 12
q5 3 14.5 9.5t19.5 13t17.5 11.5t9.5 6q4 3 12.5 8.5t9.5 5.5l2 0.5t4 0.5q6 0 6.5 -1.5t4.5 -7.5l34 -71l-2 -6l-6.5 -6t-10.5 -9q-11 -9 -20 -15.5t-18 -12.5t-18 -12.5t-21 -15.5q-1 -1 -3 -1h-3q-8 0 -11 3t-5 11z" />
    <glyph glyph-name="FL00F7h" unicode="&#xf7;" horiz-adv-x="650" 
d="M153 364q-2 8 -1 13t3 13l4 15q2 8 6.5 17.5t10.5 10.5h499q6 3 14 3q19 0 25 -9l-6 -5l-14 -51l-6 -7q-1 0 -26.5 -0.5t-65 -1.5t-87 -1.5t-92.5 -0.5h-200q-17 0 -33 1t-31 3zM539 680l41 -82q6 -10 4 -21q-4 -12 -14 -16q-7 -5 -21.5 -13.5t-29.5 -17t-27.5 -15.5
t-14.5 -8q-3 -2 -8.5 -5t-10.5 -6t-9.5 -5t-5.5 -2l-4 -1t-6 -1q-11 0 -11 2t-6 10l-61 95l2 8l10 7.5t16 11.5q16 12 30 21t28 17.5t29.5 17.5t33.5 20q1 0 5 0.5t5 0.5q13 0 18 -3.5t7 -14.5zM525 584q-5 13 -12.5 32t-19.5 27q-8 -7 -14 -8l-55 -37v-2q-2 -6 0.5 -14
t7.5 -16t11 -15t11 -11q6 3 16.5 8t21.5 11t20.5 12.5t12.5 12.5zM420 262l41 -82q6 -11 3 -22q-3 -10 -13 -16q-7 -5 -21.5 -13.5t-29.5 -16.5t-27 -15t-15 -9t-8.5 -5t-10.5 -6t-9.5 -5t-5.5 -2l-4 -1t-6 -1q-11 0 -11.5 2t-6.5 10l-60 95l2 9l10 7.5t16 10.5
q16 12 30.5 21.5t28.5 18t29 17.5t33 20q1 0 5 0.5t5 0.5q13 0 18 -4t7 -14zM406 166q-5 13 -13 31.5t-20 27.5q-3 -2 -7 -4.5t-6 -3.5l-55 -37l-1 -3q-1 -5 2 -13t7.5 -16.5t10 -15.5t10.5 -11q6 3 16.5 8t22 11.5t21 13t12.5 12.5z" />
    <glyph glyph-name="FL00F8h" unicode="&#xf8;" 
d="M69 39q7 23 26 28.5t40 5.5h21q25 29 47 56t44 53q-25 51 -52 103.5t-44 90.5l12 18l271 273l6 9q1 2 -0.5 4l-1.5 2q-8 0 -25.5 -0.5t-38.5 -0.5q-20 0 -36.5 0.5t-24.5 0.5q-4 0 -16 2.5t-14 2.5q-5 3 -3 10t4 15l5 21l-1.5 2.5t-1.5 3.5q1 2 4.5 6l3.5 4h497
q-4 -13 -3.5 -26t-4.5 -27q0 -2 -1.5 -5.5l-1.5 -3.5q-2 -2 -10.5 -5t-12.5 -3h-34l-80 -97l103 -174l-2 -7q-45 -48 -88 -94.5t-81.5 -88.5t-70 -79.5t-52.5 -68.5q5 0 15 -0.5t21 -1.5t21.5 -1.5t15.5 -0.5h101l5 -13q2 -2 6 -10.5t1 -19.5l-2 -7l-6 -16h-551l-9 6
q-6 0 -5.5 7t2.5 15zM277 304q6 -13 12 -27t14 -28q85 103 145 175t101 123q-11 16 -21.5 32.5t-22.5 36.5q-2 3 -6 8.5t-5 6.5l-1 0.5t-2 0.5t-1.5 -0.5l-0.5 -0.5q-2 -1 -6.5 -4.5t-6.5 -5.5q-49 -48 -94 -89t-94 -91l-46 -48zM578 503l-252 -307q14 -34 29.5 -59.5
t28.5 -33.5l5 6l203 234l41 57l1 4v4t-2 5q-14 26 -27 48t-27 42zM272 131l-47 -57h39l30 5q-5 11 -9.5 24.5t-12.5 27.5zM585 679l29 -51q15 19 25 31.5t14 19.5h-68z" />
    <glyph glyph-name="FL00F9h" unicode="&#xf9;" horiz-adv-x="577" 
d="M61 40q5 -10 4 -21t-3 -20h222h54q40 0 78.5 1.5t87.5 3.5h8q16 0 22 22q4 13 3.5 26t-2.5 15l4 23l142 531l7 23q2 6 2.5 12.5t1.5 12.5l9 31q0 4 1 10t1.5 12t1 10l0.5 4h-47q-1 0 -4 -6.5t-5 -8.5l-7 -6q-11 -8 -18 -13.5t-11.5 -14.5t-9 -23.5t-11.5 -39.5l-146 -547
l-7 -4l-18 -1t-43 -2t-51.5 -2t-43.5 -1h-42q-21 0 -43.5 0.5t-38.5 0.5h-12l168 627v5t-1 9t-1 9v7q1 6 -4 6h-41q-5 0 -10.5 -6t-10.5 -14t-8.5 -15.5t-4.5 -11.5l-1 -3t-2 -5l-23 -85l-57 -213l-29 -109l-19 -70l-17 -65l-15 -55zM572 794l-42 66q4 4 5.5 7.5t3.5 8.5
q1 5 -4.5 13.5t-12.5 16.5t-14 14.5t-9 7.5q-2 3 -8 8.5t-7 5.5l-1.5 0.5t-3.5 0.5q-6 0 -7.5 -1.5t-8.5 -7.5l-48 -46l-2 -6l3.5 -6t5.5 -9q6 -9 22.5 -20.5t36 -23.5t37.5 -23t25 -19q1 -1 3 -1h3q8 0 12.5 3t10.5 11z" />
    <glyph glyph-name="FL00FAh" unicode="&#xfa;" horiz-adv-x="577" 
d="M61 40l10 39l15 55l17 65l19 70l29 109l57 213l23 85q1 2 2 5l1 3q1 4 4.5 11.5t8.5 15.5t10.5 14t10.5 6h41q5 0 4 -6v-7q0 -4 1 -9t1 -9v-5l-168 -627h12q16 0 38.5 -0.5t43.5 -0.5h42q17 0 43.5 1t51.5 2t43 2l18 1l7 4l146 547q7 25 11.5 39.5t9 23.5t11.5 14.5
t18 13.5l7 6q2 2 5 8.5t4 6.5h47l-0.5 -4t-1 -10t-1.5 -12t-1 -10l-9 -31q-1 -6 -1.5 -12.5t-2.5 -12.5l-7 -23l-142 -531l-4 -23q2 -2 2.5 -15t-3.5 -26q-6 -22 -22 -22h-8q-49 -2 -87.5 -3.5t-78.5 -1.5h-54h-222q2 9 3 20t-4 21zM417 795l77 66q-3 7 0 16q1 5 11 13.5
t22 16.5t22 14.5t13 7.5q4 3 12.5 8.5t9.5 5.5l2 0.5t4 0.5q6 0 6.5 -1.5t4.5 -7.5l23 -46l-1 -6l-6.5 -6t-10.5 -9q-11 -9 -34 -20.5t-49 -23.5t-49.5 -23t-34.5 -19q-2 -1 -4 -1h-3q-8 0 -10.5 3t-4.5 11z" />
    <glyph glyph-name="FL00FBh" unicode="&#xfb;" horiz-adv-x="577" 
d="M61 40q5 -10 4 -21t-3 -20h222h54q40 0 78.5 1.5t87.5 3.5h8q16 0 22 22q4 13 3.5 26t-2.5 15l4 23l142 531l7 23q2 6 2.5 12.5t1.5 12.5l9 31q0 4 1 10t1.5 12t1 10l0.5 4h-47q-1 0 -4 -6.5t-5 -8.5l-7 -6q-11 -8 -18 -13.5t-11.5 -14.5t-9 -23.5t-11.5 -39.5l-146 -547
l-7 -4l-18 -1t-43 -2t-51.5 -2t-43.5 -1h-42q-21 0 -43.5 0.5t-38.5 0.5h-12l168 627v5t-1 9t-1 9v7q1 6 -4 6h-41q-5 0 -10.5 -6t-10.5 -14t-8.5 -15.5t-4.5 -11.5l-1 -3t-2 -5l-23 -85l-57 -213l-29 -109l-19 -70l-17 -65l-15 -55zM504 860l79 -71q5 4 9 4q2 0 2.5 -1
t1.5 -1t2 0.5t2 0.5q8 5 20.5 12t15.5 18q1 3 -12.5 22.5t-30.5 42t-32 40.5t-16 18q-3 0 -9 -1.5t-8 -1.5q-44 -21 -77 -49.5t-70 -57.5l-26 -25l51 -24z" />
    <glyph glyph-name="FL00FCh" unicode="&#xfc;" horiz-adv-x="577" 
d="M61 40l10 39l15 55l17 65l19 70l29 109l57 213l23 85q1 2 2 5l1 3q1 4 4.5 11.5t8.5 15.5t10.5 14t10.5 6h41q5 0 4 -6v-7q0 -4 1 -9t1 -9v-5l-168 -627h12q16 0 38.5 -0.5t43.5 -0.5h42q17 0 43.5 1t51.5 2t43 2l18 1l7 4l146 547q7 25 11.5 39.5t9 23.5t11.5 14.5
t18 13.5l7 6q2 2 5 8.5t4 6.5h47l-0.5 -4t-1 -10t-1.5 -12t-1 -10l-9 -31q-1 -6 -1.5 -12.5t-2.5 -12.5l-7 -23l-142 -531l-4 -23q2 -2 2.5 -15t-3.5 -26q-6 -22 -22 -22h-8q-49 -2 -87.5 -3.5t-78.5 -1.5h-54h-222q2 9 3 20t-4 21zM384 799l-23 62q-2 4 -2 7q0 4 2 9
q2 8 6.5 11t14.5 9q14 10 29 20l18 12q4 3 12 8t9 5l2.5 0.5t4.5 0.5q6 0 6 -2q0 -1 4 -7l34 -71l-1 -5l-6.5 -6t-10.5 -9q-11 -9 -20 -16t-18 -13t-18 -12.5t-21 -14.5q-1 -1 -4 -1h-2q-13 0 -16 13zM579 801l-24 61q-2 5 0 16q3 8 7 12q5 3 14.5 9.5t19.5 13t17.5 11.5
t9.5 6q4 3 12.5 8.5t9.5 5.5l2 0.5t4 0.5q6 0 6.5 -1.5t4.5 -7.5l34 -71l-2 -6l-6.5 -6t-10.5 -9q-11 -9 -20 -15.5t-18 -12.5t-18 -12.5t-21 -15.5q-1 -1 -3 -1h-3q-8 0 -10.5 3t-4.5 11z" />
    <glyph glyph-name="FL00FDh" unicode="&#xfd;" horiz-adv-x="574" 
d="M332 325q1 3 2.5 10t3 14.5t2.5 14t1 8.5h-151l-23 6q-1 0 4 -5t6 -3l-12 23q-3 7 -0.5 24t7 36t10 36t7.5 25l53 198q1 4 11.5 14.5t30.5 10.5q6 0 7 -1q8 -4 10.5 -16.5t6.5 -19.5q-2 -8 -6.5 -22.5t-10.5 -34.5l-21 -80q-5 -18 -8.5 -33t-5.5 -22q-2 -6 -4 -16.5
t-4.5 -20.5t-3.5 -17.5t-1 -8.5l4 -4q1 0 8.5 -0.5t12.5 -0.5h257l41 6l7 10l5 14.5t11 34t12 40t10 33.5l30 111q0 1 2.5 6.5t5.5 12.5t6.5 13.5t6.5 9.5q3 5 7 5h41q6 0 4 -8q-1 -3 -2 -4.5t-1 -2.5l-6 -47l-39 -143q-8 -29 -17.5 -56t-25.5 -66q-11 -17 -25 -29t-30 -12
h-158l-99 -368h-70l88 315zM418 788l77 66q-2 5 0 16q1 5 11 13.5t22 16.5t22 14.5t13 7.5q4 3 12.5 8.5t9.5 5.5l2 0.5t4 0.5q6 0 6.5 -1.5t4.5 -7.5l23 -46l-1 -6l-6.5 -6t-10.5 -9q-11 -9 -34 -20.5t-48.5 -23.5t-49 -23t-35.5 -19q-2 -1 -4 -1h-3q-8 0 -10.5 3t-4.5 11z
" />
    <glyph glyph-name="FL00FFh" unicode="&#xff;" horiz-adv-x="574" 
d="M332 325q1 3 2.5 10t3 14.5t2.5 14t1 8.5h-151l-23 6q-1 0 4 -5t6 -3l-12 23q-3 7 -0.5 24t7 36t10 36t7.5 25l53 198q1 4 11.5 14.5t30.5 10.5q6 0 7 -1q8 -4 10.5 -16.5t6.5 -19.5q-2 -8 -6.5 -22.5t-10.5 -34.5l-21 -80q-5 -18 -8.5 -33t-5.5 -22q-2 -6 -4 -16.5
t-4.5 -20.5t-3.5 -17.5t-1 -8.5l4 -4q1 0 8.5 -0.5t12.5 -0.5h257l41 6l7 10l5 14.5t11 34t12 40t10 33.5l30 111q0 1 2.5 6.5t5.5 12.5t6.5 13.5t6.5 9.5q3 5 7 5h41q6 0 4 -8q-1 -3 -2 -4.5t-1 -2.5l-6 -47l-39 -143q-8 -29 -17.5 -56t-25.5 -66q-11 -17 -25 -29t-30 -12
h-158l-99 -368h-70l88 315zM370 786l-24 62q-2 5 1 16q2 8 6.5 11t14.5 9q14 10 29 20t17 12q5 3 13 8t9 5l2 0.5t4 0.5q6 0 6.5 -1.5t4.5 -7.5l34 -71l-2 -5l-6.5 -6t-10.5 -9q-22 -18 -38 -29t-39 -27q-1 -1 -4 -1h-2q-14 0 -15 13zM566 784l-24 61q-2 8 1 16q2 8 7 12
q5 3 14.5 9.5l19 13t17.5 11.5t10 6q4 3 12 8.5t9 5.5l2.5 0.5t4.5 0.5q6 0 6 -2q0 -1 4 -7l34 -71l-1 -6l-6.5 -6t-10.5 -9q-11 -9 -20 -15.5t-18 -12.5t-18 -12.5t-21 -15.5q-2 -1 -4 -1h-3q-8 0 -10.5 3t-4.5 11z" />
    <glyph glyph-name="FL0152h" unicode="&#x152;" horiz-adv-x="833" 
d="M175 468l-115 -431q-3 -11 2 -16.5t6 -14.5l394 -2h311l49 156q1 4 2.5 8.5l3.5 10.5q4 14 3.5 28.5t-14.5 14.5q-30 0 -44.5 -21t-21.5 -47q-5 -18 -8 -34.5t-7 -29.5q-5 -17 -11 -17h-247q4 14 9.5 39t13.5 57q8 30 18 64t19 62.5t17 47.5t13 19q22 0 30 -14.5
t13 -32.5t12 -32.5t28 -14.5q2 0 8 1.5t9 3.5q18 21 35.5 35t36.5 25t39.5 22.5t46.5 26.5q6 2 8 6l2 9q6 17 -2 36q-18 3 -37.5 4t-39.5 1h-82q-21 0 -41 1t-40 5q-1 1 -2.5 2t-2.5 3q1 2 2 7.5t1.5 11.5t1.5 10.5t1 6.5l29 106q2 5 5 15t6 21q3 12 5 21.5t4 14.5
q4 5 6 5.5t6 0.5h1q9 0 19 5t21 2h147q19 0 37.5 1.5t44.5 3.5q15 2 24 5t14 9t8 15.5t7 23.5l3 11l1 9l-38 2l-565 -2q-31 0 -62 -1t-57 -6q-11 -24 -19.5 -48.5t-15.5 -48.5l-2 -7q2 2 0 -7l-26 -98q-5 -18 -10 -35t-13 -35zM434 193q-1 8 -7 9.5t-14 1.5h-2
q-23 0 -36 -23t-21 -50q-5 -16 -7 -29t-5 -24h-193q27 109 48.5 190.5t38.5 144.5q15 58 27.5 101.5t23.5 75.5t20.5 53.5t18.5 36.5h171l4 -5q-18 -20 -36.5 -42t-35 -45t-29.5 -46.5t-20 -47.5q-3 -13 7.5 -14.5t19.5 -1.5q15 0 25.5 6t18 16t14.5 22t16 23l74 93
l-122 -456q0 9 1 11zM647 378q16 13 22.5 16.5t21.5 3.5q4 -2 11.5 -3t15 -2.5t13 -3.5t4.5 -5q-2 -6 -9 -13t-16 -12.5t-18 -9t-13 -3.5h-3q-2 1 -6.5 5.5t-9 9.5t-8.5 10t-5 7z" />
    <glyph glyph-name="FL0153h" unicode="&#x153;" horiz-adv-x="833" 
d="M175 468l-115 -431q-3 -11 2 -16.5t6 -14.5l394 -2h311l49 156q1 4 2.5 8.5l3.5 10.5q4 14 3.5 28.5t-14.5 14.5q-30 0 -44.5 -21t-21.5 -47q-5 -18 -8 -34.5t-7 -29.5q-5 -17 -11 -17h-247q4 14 9.5 39t13.5 57q8 30 18 64t19 62.5t17 47.5t13 19q22 0 30 -14.5
t13 -32.5t12 -32.5t28 -14.5q2 0 8 1.5t9 3.5q18 21 35.5 35t36.5 25t39.5 22.5t46.5 26.5q6 2 8 6l2 9q6 17 -2 36q-18 3 -37.5 4t-39.5 1h-82q-21 0 -41 1t-40 5q-1 1 -2.5 2t-2.5 3q1 2 2 7.5t1.5 11.5t1.5 10.5t1 6.5l29 106q2 5 5 15t6 21q3 12 5 21.5t4 14.5
q4 5 6 5.5t6 0.5h1q9 0 19 5t21 2h147q19 0 37.5 1.5t44.5 3.5q15 2 24 5t14 9t8 15.5t7 23.5l3 11l1 9l-38 2l-565 -2q-31 0 -62 -1t-57 -6q-11 -24 -19.5 -48.5t-15.5 -48.5l-2 -7q2 2 0 -7l-26 -98q-5 -18 -10 -35t-13 -35zM434 193q-1 8 -7 9.5t-14 1.5h-2
q-23 0 -36 -23t-21 -50q-5 -16 -7 -29t-5 -24h-193q27 109 48.5 190.5t38.5 144.5q15 58 27.5 101.5t23.5 75.5t20.5 53.5t18.5 36.5h171l4 -5q-18 -20 -36.5 -42t-35 -45t-29.5 -46.5t-20 -47.5q-3 -13 7.5 -14.5t19.5 -1.5q15 0 25.5 6t18 16t14.5 22t16 23l74 93
l-122 -456q0 9 1 11zM647 378q16 13 22.5 16.5t21.5 3.5q4 -2 11.5 -3t15 -2.5t13 -3.5t4.5 -5q-2 -6 -9 -13t-16 -12.5t-18 -9t-13 -3.5h-3q-2 1 -6.5 5.5t-9 9.5t-8.5 10t-5 7z" />
    <glyph glyph-name="FL0160h" unicode="&#x160;" horiz-adv-x="655" 
d="M108 215q15 -26 38.5 -53t49.5 -53t53 -50t49 -44q11 -8 25 -12t28 -4q25 0 55.5 20t60.5 48.5t57 58.5t46 50l95 104l23 31q-6 10 -28 31t-51.5 46.5t-62.5 54t-60 54t-43.5 45t-14.5 28.5q0 1 3.5 4.5t4.5 5.5q6 7 24 25t37.5 36.5t37 33t22.5 14.5q6 0 24 -14.5
t39 -32t39.5 -32t24.5 -14.5q8 0 16.5 4.5t16.5 10.5t14 12t10 9q-2 18 -13.5 32.5t-27 26.5t-32.5 22t-30 18q-4 3 -13.5 8t-19.5 10.5t-18.5 10.5t-10.5 8q-20 -4 -32 -10t-29 -22q-4 -5 -19 -19t-32.5 -30.5t-33 -30.5t-19.5 -18q-9 -9 -21.5 -18t-24.5 -19t-21.5 -21
t-12.5 -24q-1 -2 -1 -4v-2l38 -57q2 -3 19 -18.5t39.5 -35.5l45 -40t36.5 -32q5 -3 15 -12t20.5 -18.5t20.5 -18.5t15 -12q4 -1 4 -5l-2 -6q-1 -4 -7.5 -12.5t-15 -17.5t-17 -16.5t-12.5 -10.5q-5 -6 -19 -20.5t-29.5 -31t-29 -31.5t-17.5 -21q-3 -3 -11 -10.5t-17 -16.5
t-18 -17.5t-15 -12.5l-1.5 -0.5t-3.5 -0.5q-11 0 -25 10t-28 23t-26.5 26.5t-19.5 20.5l-39 30l-33 32l1 2q4 16 19 36t33 39t36.5 35.5t31.5 27.5q2 -2 8 -7t13 -11t13 -11.5t8 -7.5q3 -4 9.5 -9.5t13 -12t11.5 -13t5 -12.5q-2 -1 -6 -5t-8.5 -9.5t-9 -10l-5.5 -5.5
q-3 -4 -7.5 -7.5t-6.5 -3.5q-5 -2 -11.5 5t-14 16.5t-16.5 17.5t-18 8q-19 0 -31.5 -16t-17.5 -33q-3 -11 8.5 -25.5t29 -28.5t35.5 -23.5t29 -9.5t34 17.5t47 41t43.5 47.5t22.5 37l1 3q-6 12 -12.5 18.5t-13.5 12t-15 11t-17 15.5q-9 8 -21.5 24.5t-27.5 33t-30 29
t-28 12.5q-2 0 -4 -0.5t-3 -0.5q-62 -48 -114 -107t-102 -116zM606 879l-79 71q-5 -4 -10 -4q-2 0 -2 1t-1 1t-2 -0.5t-2 -0.5q-8 -5 -20.5 -11.5t-15.5 -17.5q-1 -3 12.5 -23t30.5 -42.5t31.5 -40.5t16.5 -18q3 0 9 1.5t8 1.5q44 21 77 49.5t70 57.5l26 24l-51 25z" />
    <glyph glyph-name="FL0161h" unicode="&#x161;" horiz-adv-x="655" 
d="M108 215q15 -26 38.5 -53t49.5 -53t53 -50t49 -44q11 -8 25 -12t28 -4q25 0 55.5 20t60.5 48.5t57 58.5t46 50l95 104l23 31q-6 10 -28 31t-51.5 46.5t-62.5 54t-60 54t-43.5 45t-14.5 28.5q0 1 3.5 4.5t4.5 5.5q6 7 24 25t37.5 36.5t37 33t22.5 14.5q6 0 24 -14.5
t39 -32t39.5 -32t24.5 -14.5q8 0 16.5 4.5t16.5 10.5t14 12t10 9q-2 18 -13.5 32.5t-27 26.5t-32.5 22t-30 18q-4 3 -13.5 8t-19.5 10.5t-18.5 10.5t-10.5 8q-20 -4 -32 -10t-29 -22q-4 -5 -19 -19t-32.5 -30.5t-33 -30.5t-19.5 -18q-9 -9 -21.5 -18t-24.5 -19t-21.5 -21
t-12.5 -24q-1 -2 -1 -4v-2l38 -57q2 -3 19 -18.5t39.5 -35.5l45 -40t36.5 -32q5 -3 15 -12t20.5 -18.5t20.5 -18.5t15 -12q4 -1 4 -5l-2 -6q-1 -4 -7.5 -12.5t-15 -17.5t-17 -16.5t-12.5 -10.5q-5 -6 -19 -20.5t-29.5 -31t-29 -31.5t-17.5 -21q-3 -3 -11 -10.5t-17 -16.5
t-18 -17.5t-15 -12.5l-1.5 -0.5t-3.5 -0.5q-11 0 -25 10t-28 23t-26.5 26.5t-19.5 20.5l-39 30l-33 32l1 2q4 16 19 36t33 39t36.5 35.5t31.5 27.5q2 -2 8 -7t13 -11t13 -11.5t8 -7.5q3 -4 9.5 -9.5t13 -12t11.5 -13t5 -12.5q-2 -1 -6 -5t-8.5 -9.5t-9 -10l-5.5 -5.5
q-3 -4 -7.5 -7.5t-6.5 -3.5q-5 -2 -11.5 5t-14 16.5t-16.5 17.5t-18 8q-19 0 -31.5 -16t-17.5 -33q-3 -11 8.5 -25.5t29 -28.5t35.5 -23.5t29 -9.5t34 17.5t47 41t43.5 47.5t22.5 37l1 3q-6 12 -12.5 18.5t-13.5 12t-15 11t-17 15.5q-9 8 -21.5 24.5t-27.5 33t-30 29
t-28 12.5q-2 0 -4 -0.5t-3 -0.5q-62 -48 -114 -107t-102 -116zM606 879l-79 71q-5 -4 -10 -4q-2 0 -2 1t-1 1t-2 -0.5t-2 -0.5q-8 -5 -20.5 -11.5t-15.5 -17.5q-1 -3 12.5 -23t30.5 -42.5t31.5 -40.5t16.5 -18q3 0 9 1.5t8 1.5q44 21 77 49.5t70 57.5l26 24l-51 25z" />
    <glyph glyph-name="FL0178h" unicode="&#x178;" horiz-adv-x="574" 
d="M332 325q1 3 2.5 10t3 14.5t2.5 14t1 8.5h-151l-23 6q-1 0 4 -5t6 -3l-12 23q-3 7 -0.5 24t7 36t10 36t7.5 25l53 198q1 4 11.5 14.5t30.5 10.5q6 0 7 -1q8 -4 10.5 -16.5t6.5 -19.5q-2 -8 -6.5 -22.5t-10.5 -34.5l-21 -80q-5 -18 -8.5 -33t-5.5 -22q-2 -6 -4 -16.5
t-4.5 -20.5t-3.5 -17.5t-1 -8.5l4 -4q1 0 8.5 -0.5t12.5 -0.5h257l41 6l7 10l5 14.5t11 34t12 40t10 33.5l30 111q0 1 2.5 6.5t5.5 12.5t6.5 13.5t6.5 9.5q3 5 7 5h41q6 0 4 -8q-1 -3 -2 -4.5t-1 -2.5l-6 -47l-39 -143q-8 -29 -17.5 -56t-25.5 -66q-11 -17 -25 -29t-30 -12
h-158l-99 -368h-70l88 315zM370 786l-24 62q-2 5 1 16q2 8 6.5 11t14.5 9q14 10 29 20t17 12q5 3 13 8t9 5l2 0.5t4 0.5q6 0 6.5 -1.5t4.5 -7.5l34 -71l-2 -5l-6.5 -6t-10.5 -9q-22 -18 -38 -29t-39 -27q-1 -1 -4 -1h-2q-14 0 -15 13zM564 788l-24 61q-2 8 1 16q2 8 7 12
q5 3 14.5 9.5l19 13t17.5 11.5t10 6q4 3 12 8.5t9 5.5l2.5 0.5t4.5 0.5q6 0 6 -2q0 -1 4 -7l34 -71l-1 -6l-6.5 -6t-10.5 -9q-11 -9 -20 -15.5t-18 -12.5t-18 -12.5t-21 -15.5q-2 -1 -4 -1h-3q-8 0 -10.5 3t-4.5 11z" />
    <glyph glyph-name="FL017Dh" unicode="&#x17d;" horiz-adv-x="785" 
d="M59 34q-3 -11 4.5 -22.5t18.5 -11.5h612q8 0 16.5 5t16.5 12t13.5 15t7.5 15v5l-2 62l8 31l22 145q4 21 -19 21q-21 0 -50.5 -13.5t-63 -35t-69.5 -47.5t-71.5 -50.5t-68 -45t-58.5 -30.5l-24 -4l-136 2q23 35 44.5 57t42.5 42q54 52 110.5 104.5t114.5 98.5l39 30
q33 29 61 57.5t63 57.5q11 9 37 28.5t55.5 41.5t55 41.5t36.5 27.5l10 37q2 8 2.5 14.5t-6.5 11.5h-119q-100 0 -194.5 4t-192.5 1h-5q-9 0 -19.5 -0.5t-21 -3.5t-19 -9.5t-12.5 -17.5q-7 -17 -12.5 -33.5t-9.5 -30.5l-16 -61l-37 -136q-6 -24 13 -24h20q5 0 12.5 0.5
t14.5 1.5t12.5 3t6.5 6l61 227l7 6l16 0.5t41 1t54.5 1.5t55.5 2q12 0 23 0.5t23 0.5t27 0.5t35 0.5h68q5 0 9 -0.5t9 -5.5q-77 -69 -151 -135t-146 -132.5t-144.5 -134t-146.5 -138.5q-9 -8 -22 -20t-25.5 -25.5t-23 -26.5t-13.5 -24zM506 88q1 1 6 4t10.5 6l11 6t7.5 5
l145 98q1 0 3 1t4 1q9 0 6 -10v-2q0 -5 -2.5 -17.5t-5 -26.5t-5.5 -26.5t-4 -17.5l-4 -14q-2 -6 -4 -10t-11 -8q-12 3 -25 3l-16 -1h-55q-17 0 -32 2t-29 7zM901 730q-4 0 -6 -5t3 -5q3 0 5 5t-2 5zM652 876l-79 71q-5 -4 -9 -4q-2 0 -2.5 1t-1.5 1t-2 -0.5t-2 -0.5
q-8 -5 -20.5 -11.5t-15.5 -17.5q-1 -3 12.5 -23t30.5 -42.5t31.5 -40.5t16.5 -18q3 0 9 1.5t8 1.5q44 21 77 49.5t70 57.5l26 24l-50 25z" />
    <glyph glyph-name="FL017Eh" unicode="&#x17e;" horiz-adv-x="785" 
d="M59 34q-3 -11 4.5 -22.5t18.5 -11.5h612q8 0 16.5 5t16.5 12t13.5 15t7.5 15v5l-2 62l8 31l22 145q4 21 -19 21q-21 0 -50.5 -13.5t-63 -35t-69.5 -47.5t-71.5 -50.5t-68 -45t-58.5 -30.5l-24 -4l-136 2q23 35 44.5 57t42.5 42q54 52 110.5 104.5t114.5 98.5l39 30
q33 29 61 57.5t63 57.5q11 9 37 28.5t55.5 41.5t55 41.5t36.5 27.5l10 37q2 8 2.5 14.5t-6.5 11.5h-119q-100 0 -194.5 4t-192.5 1h-5q-9 0 -19.5 -0.5t-21 -3.5t-19 -9.5t-12.5 -17.5q-7 -17 -12.5 -33.5t-9.5 -30.5l-16 -61l-37 -136q-6 -24 13 -24h20q5 0 12.5 0.5
t14.5 1.5t12.5 3t6.5 6l61 227l7 6l16 0.5t41 1t54.5 1.5t55.5 2q12 0 23 0.5t23 0.5t27 0.5t35 0.5h68q5 0 9 -0.5t9 -5.5q-77 -69 -151 -135t-146 -132.5t-144.5 -134t-146.5 -138.5q-9 -8 -22 -20t-25.5 -25.5t-23 -26.5t-13.5 -24zM506 88q1 1 6 4t10.5 6l11 6t7.5 5
l145 98q1 0 3 1t4 1q9 0 6 -10v-2q0 -5 -2.5 -17.5t-5 -26.5t-5.5 -26.5t-4 -17.5l-4 -14q-2 -6 -4 -10t-11 -8q-12 3 -25 3l-16 -1h-55q-17 0 -32 2t-29 7zM901 730q-4 0 -6 -5t3 -5q3 0 5 5t-2 5zM652 876l-79 71q-5 -4 -9 -4q-2 0 -2.5 1t-1.5 1t-2 -0.5t-2 -0.5
q-8 -5 -20.5 -11.5t-15.5 -17.5q-1 -3 12.5 -23t30.5 -42.5t31.5 -40.5t16.5 -18q3 0 9 1.5t8 1.5q44 21 77 49.5t70 57.5l26 24l-50 25z" />
    <glyph glyph-name="FL0192h" unicode="&#x192;" horiz-adv-x="809" 
d="M175 60l-157 -182q-2 -2 5.5 -3.5t15.5 -1.5h5q16 0 27 1.5t18 5t11.5 9.5t8.5 15q1 3 12 15t27 28t34.5 35t34.5 35.5t26.5 29t10.5 16.5l126 283q44 -17 69 -43.5t44 -66.5h46l9 6l8 20l107 217q-30 0 -60 -6.5t-60.5 -14t-60.5 -14.5t-60 -8l1 3l17 28l5 11
q10 21 26.5 53.5t32 63.5t26.5 53.5t11 23.5l12 16l5 1t11.5 1.5t14 1t12.5 0.5h124q64 0 100 0.5t55.5 1t28 2.5t17.5 5h2q8 0 15 3t12 14l3 6q-1 4 -1 11v13v12t-1 5h-358l-119 -54q-15 -27 -23.5 -42t-17.5 -33.5t-23 -49t-39 -87.5l-50 -112zM500 382q36 24 67 24
q-2 -2 2.5 -6t-0.5 -12q-3 -6 -7.5 -15.5t-9.5 -18.5t-11 -15.5t-10 -6.5l-17 12q-3 1 -4.5 6.5t-3 12t-3 12t-3.5 7.5z" />
    <glyph glyph-name="FL02C6h" unicode="&#x2c6;" horiz-adv-x="378" 
d="M363 661l79 -71q5 4 9 4q2 0 2.5 -1t1.5 -1t2 0.5t2 0.5q8 5 20.5 12t15.5 18q1 3 -12.5 22.5t-30.5 42t-32 40.5t-16 18q-3 0 -9 -1.5t-8 -1.5q-44 -21 -77.5 -49.5t-70.5 -57.5l-25 -25l50 -24z" />
    <glyph glyph-name="FL02DCh" unicode="&#x2dc;" horiz-adv-x="487" 
d="M481 670l98 74l51 -24l-26 -25q-37 -29 -70 -57.5t-77 -49.5q-2 0 -8 -1.5t-9 -1.5q-2 0 -10.5 10t-20.5 25l-46 42l-98 -74l-51 24l26 25q37 29 70 57.5t77 49.5q2 0 8 1.5t9 1.5q1 0 9.5 -10.5t20.5 -25.5z" />
    <glyph glyph-name="FL2013h" unicode="&#x2013;" horiz-adv-x="426" 
d="M153 364q-2 8 -1 13t3 13l4 15q2 8 6.5 17.5t10.5 9.5h275q4 3 14 3q7 0 14 -1.5t11 -6.5l-6 -6l-14 -51l-6 -6q-1 0 -6 -0.5t-19.5 -1.5t-41.5 -1.5t-72 -0.5h-108q-17 0 -33 1t-31 3z" />
    <glyph glyph-name="FL2014h" unicode="&#x2014;" horiz-adv-x="519" 
d="M153 364q-2 8 -1 13t3 13l4 15q2 8 6.5 17.5t10.5 10.5h368q4 3 13 3q8 0 15 -2t11 -7l-6 -5l-14 -51l-7 -7q-1 0 -6 -0.5t-19.5 -1.5t-41.5 -1.5t-72 -0.5h-200q-17 0 -33 1t-31 3z" />
    <glyph glyph-name="FL2018h" unicode="&#x2018;" horiz-adv-x="412" 
d="M429 735q12 17 28 17q3 0 5 -0.5t3 -0.5l22 -31v-3q0 -2 -1 -2l-7 -11l-112 -124q0 -1 -0.5 -2l-0.5 -1q-2 -8 11 -26.5t31 -39t35.5 -38l23.5 -23.5q3 -4 2.5 -9.5l-1 -11t-0.5 -9.5t5 -6q-8 -11 -23 -15t-25 -7h-92q-9 1 -30 3.5t-44.5 5t-44 5t-28.5 3.5
q-21 20 -14 48l2 4q1 1 4 5t5 5q62 69 122.5 133.5t123.5 130.5zM256 466q3 -1 16 -2t27.5 -2t27.5 -1.5t17 -0.5h10l-46 73h-11zM169 403q-3 0 -1 6q0 5 4 5t4 -5q-2 -6 -7 -6z" />
    <glyph glyph-name="FL2019h" unicode="&#x2019;" horiz-adv-x="412" 
d="M290 409q-14 -17 -29 -17q-7 0 -7 2l-22 31l-1 2q1 2 1.5 2.5l0.5 0.5l7 11l111 124q1 1 1.5 2l0.5 1q2 8 -11 26.5t-31 39t-35.5 38l-23.5 23.5q-3 4 -2.5 9.5t1 10.5t0 9.5t-4.5 6.5q8 11 23 15t24 6h92q9 -1 30.5 -3.5t44.5 -4.5t44 -4.5t29 -3.5q21 -19 13 -48l-1 -4
q-1 -1 -4 -5t-5 -5q-62 -69 -122.5 -134t-123.5 -131zM463 679q-4 0 -16.5 1t-27.5 2t-27.5 2t-16.5 1h-10l46 -73h11zM550 742q3 0 2 -6q-2 -5 -5 -5q-6 0 -4 5q1 6 7 6z" />
    <glyph glyph-name="FL201Ah" unicode="&#x201a;" horiz-adv-x="411" 
d="M174 -18q-14 -17 -28 -17q-5 0 -7 2l-23 30v3q1 2 1.5 2.5l0.5 0.5l7 10l111 125q0 1 1 1.5l1 0.5q2 8 -11 26.5t-30.5 39t-35 38t-24.5 23.5q-3 4 -3.5 9t0.5 10.5t0.5 9.5t-3.5 7q8 12 22.5 15.5t24.5 6.5h93q9 -1 30 -3.5t44.5 -4.5t44 -4.5t28.5 -3.5q20 -22 13 -49
l-1 -4q-1 0 -4 -4.5t-5 -4.5q-63 -69 -123.5 -134t-123.5 -131zM347 251q-4 1 -16.5 2t-27 2t-27.5 1.5t-17 0.5h-10l47 -73h11zM434 314q5 0 3 -5q-2 -6 -6 -6t-2 6q2 5 5 5z" />
    <glyph glyph-name="FL201Ch" unicode="&#x201c;" horiz-adv-x="777" 
d="M429 735q12 17 28 17q3 0 4.5 -0.5t2.5 -0.5l23 -31v-3q0 -2 -1 -2l-8 -11l-111 -124q0 -1 -0.5 -2l-0.5 -1q-2 -8 11 -26.5t30.5 -39t35 -38t24.5 -23.5q3 -4 2.5 -9.5t-1.5 -11t-1 -9.5t5 -6q-8 -11 -22.5 -15t-24.5 -7h-93q-9 1 -30 3.5t-44 5t-43.5 5t-28.5 3.5
q-21 20 -14 48l2 4q1 1 3.5 5t4.5 5q64 69 124 133.5t123 130.5zM256 466q3 -1 16 -2t27.5 -2t27.5 -1.5t17 -0.5h10l-47 73h-11zM169 403q-4 0 -2 6q0 5 5 5q3 0 3 -5q-2 -6 -6 -6zM794 734q12 17 28 17q7 0 8 -1l22 -31v-3q0 -2 -2 -2l-7 -11l-111 -124q0 -1 -1 -2l-1 -1
q-2 -8 11.5 -26.5t31.5 -39t35 -38t23 -23.5q3 -4 3 -10q0 -5 -1 -10.5t-0.5 -9.5t5.5 -6q-8 -11 -23 -15t-25 -7h-92q-9 1 -30 3.5t-44.5 5t-44 5t-29.5 3.5q-20 20 -13 48l1 4q2 1 5 5t5 5q62 69 122.5 133.5t123.5 130.5zM621 465q3 -1 16 -2t27.5 -2t27.5 -1.5t17 -0.5
h10l-46 73h-11zM534 402q-5 0 -3 6q2 5 6 5q5 0 3 -5q-2 -6 -6 -6z" />
    <glyph glyph-name="FL201Dh" unicode="&#x201d;" horiz-adv-x="777" 
d="M655 409q-14 -17 -29 -17q-7 0 -7 2l-22 31l-1 2q1 2 1.5 2.5l0.5 0.5l7 11l111 124q1 1 1.5 2l0.5 1q2 8 -11 26.5t-31 39t-35.5 38l-23.5 23.5q-3 4 -2.5 9.5t1 10.5t0 9.5t-4.5 6.5q8 11 23 15t24 6h92q9 -1 30.5 -3.5t44.5 -4.5t44 -4.5t29 -3.5q21 -19 13 -48l-1 -4
q-1 -1 -4 -5t-5 -5q-62 -69 -122.5 -134t-123.5 -131zM828 679q-4 0 -16.5 1t-27.5 2t-27.5 2t-16.5 1h-10l46 -73h11zM915 742q2 0 1 -6q-2 -5 -4 -5q-6 0 -4 5q1 6 7 6zM289 410q-14 -17 -29 -17q-4 0 -6 2l-23 31l-0.5 0.5t0.5 1.5q0 2 0.5 2.5l0.5 0.5l8 11l111 124
q0 1 0.5 2l0.5 1q2 8 -11 26.5t-31 39t-35.5 38l-23.5 23.5q-3 4 -3 9q0 6 1 11t1 9q0 5 -4 7q8 11 23 15t24 6h93q9 -1 29.5 -3.5t44 -4.5t44 -4.5t28.5 -3.5q21 -19 13 -49v-3q-2 -1 -4.5 -5t-4.5 -5q-64 -69 -124 -134t-123 -131zM462 679q-4 1 -16.5 2.5t-27 2.5
t-27.5 1.5t-17 0.5h-10l47 -73h11zM549 742q4 0 2 -5q0 -5 -5 -5q-3 0 -3 5q2 5 6 5z" />
    <glyph glyph-name="FL201Eh" unicode="&#x201e;" horiz-adv-x="766" 
d="M529 -18q-14 -17 -28 -17q-5 0 -7 2l-23 30v3q1 2 1.5 2.5l0.5 0.5l7 10l111 125q0 1 1 1.5l1 0.5q2 8 -11 26.5t-31 39t-35.5 38l-23.5 23.5q-3 4 -3.5 9t0.5 10.5t0.5 9.5t-3.5 7q8 12 22.5 15.5t24.5 6.5h93q9 -1 30 -3.5t44 -4.5t44 -4.5t29 -3.5q20 -22 13 -49
l-1 -4q-1 0 -4 -4.5t-5 -4.5q-63 -69 -123.5 -134t-123.5 -131zM702 251q-4 1 -16.5 2t-27 2t-27.5 1.5t-17 0.5h-10l47 -73h11zM789 314q5 0 3 -5q-2 -6 -6 -6t-2 6q2 5 5 5zM175 -18q-15 -17 -29 -17q-5 0 -7 2l-22 30v3q1 2 1.5 2.5l0.5 0.5l6 10l111 125q0 1 1 1.5
l1 0.5q2 8 -11 26.5t-31 39t-35.5 38l-23.5 23.5q-3 4 -2.5 9.5t1 10.5t0.5 9q0 5 -5 7q8 12 23 15.5t24 6.5h93q9 -1 30 -3.5t44.5 -4.5t44 -4.5t28.5 -3.5q20 -22 13 -49l-1 -4l-3.5 -4.5t-5.5 -4.5q-61 -69 -122 -134t-124 -131zM347 251q-3 1 -15.5 2t-27 2t-28 1.5
t-17.5 0.5h-9l46 -73h11zM435 314q4 0 2 -5q-2 -6 -5 -6q-5 0 -3 6q2 5 6 5z" />
    <glyph glyph-name="FL2020h" unicode="&#x2020;" horiz-adv-x="426" 
d="M178 458q-2 13 1 25l4 15q2 8 7 17.5t11 9.5h102l20 76q14 52 23.5 85.5t11.5 38.5q7 17 19 26t12 10h46q2 0 5.5 -7t-2.5 -31l-53 -198h91q4 3 13 3q8 0 15 -1.5t11 -6.5l-6 -6l-14 -51l-7 -6q-1 0 -6 -0.5t-17.5 -1.5t-35.5 -1.5t-61 -0.5l-109 -408q-6 -23 -15 -45
h-79l-5 4l17 64q14 45 28 94t28 104l50 187h-41q-17 0 -33 1t-31 4z" />
    <glyph glyph-name="FL2021h" unicode="&#x2021;" horiz-adv-x="427" 
d="M179 458q-2 13 1 25l4 15q2 8 7 17.5t11 9.5h102l20 76q14 52 23.5 85.5t11.5 38.5q7 17 19 26t12 10h46q2 0 5.5 -7t-2.5 -31l-53 -198h91q4 3 13 3q8 0 15 -1.5t11 -6.5l-6 -6l-14 -51l-7 -6q-1 0 -5.5 -0.5t-17.5 -1.5t-36.5 -1.5t-62.5 -0.5l-42 -157h89q6 3 14 3
t15.5 -1.5t11.5 -6.5l-8 -6l-13 -51l-7 -6q-1 0 -5.5 -0.5t-17.5 -1.5t-36 -1.5t-60 -0.5l-48 -179q-6 -23 -15 -45h-79l-5 4l17 64q22 70 45 156h-42q-17 0 -33.5 1t-31.5 4v12t2 13l4 15q2 8 7 17.5t10 9.5h103l42 157h-41q-17 0 -33 1t-31 4z" />
    <glyph glyph-name="FL2022h" unicode="&#x2022;" horiz-adv-x="402" 
d="M203 222l-49 124q-6 18 -2 34q3 14 17 23q9 6 28.5 18.5t40 26t37 24.5t20.5 14q5 3 15.5 9.5t18.5 10.5q10 6 12.5 7t10.5 1q13 0 14.5 -3t8.5 -14l71 -145l-3 -11l-4 -4t-9.5 -8.5t-11.5 -10t-9 -8.5q-22 -18 -41 -32t-37.5 -27t-38.5 -26t-43 -29q-3 -1 -8 -1.5
l-5 -0.5q-16 0 -22 6t-11 22z" />
    <glyph glyph-name="FL2026h" unicode="&#x2026;" horiz-adv-x="908" 
d="M671 20l-35 86q-6 10 -2 23q1 9 13 16q7 4 21 13l28 18t25.5 16.5t13.5 9.5q7 5 19 12l12 7l3.5 0.5t5.5 0.5q11 0 11.5 -1.5t7.5 -9.5l50 -101l-2 -8l-8 -8t-15 -13q-17 -12 -30 -21.5t-25.5 -18.5t-27 -18.5t-32.5 -21.5q-2 0 -5 -0.5t-4 -0.5q-11 0 -16.5 4t-7.5 16z
M687 121q5 -14 12 -34t17 -29q9 7 13 8l51 40l1 2q1 4 -1 13t-6 18t-9 17t-9 11l-16 -8t-20.5 -11.5t-19.5 -13.5t-13 -13zM403 20l-36 86q-6 9 -1 23q1 9 12 16q7 4 21 12.5t28.5 18t26 17t13.5 9.5q7 5 18.5 12t12.5 7l3.5 0.5t5.5 0.5q11 0 11.5 -1.5t7.5 -9.5l50 -101
l-2 -8l-8.5 -8t-15.5 -13q-15 -12 -28.5 -21.5t-26.5 -18.5t-27.5 -18.5t-31.5 -21.5q-2 0 -5 -0.5t-4 -0.5q-12 0 -17 4t-7 16zM419 121q5 -14 12 -34t17 -29q9 7 13 8l51 40l1 2q1 4 -1 13t-6 18t-9 17t-9 11q-7 -3 -17 -8.5t-20 -11.5t-19 -13t-13 -13zM122 19l-35 86
q-7 10 -3 23q3 10 14 16q7 5 20.5 14t28 18t26 16.5t13.5 9.5q7 5 19 11.5l12 6.5l3.5 0.5t5.5 0.5q11 0 11.5 -1.5t6.5 -9.5l51 -101l-2 -8l-8.5 -8t-15.5 -13q-16 -12 -29 -21.5t-26 -18.5t-27 -18.5t-32 -21.5q-2 0 -5 -0.5t-4 -0.5q-20 0 -24 20zM138 120q3 -6 5.5 -15
t6 -18t7.5 -17t10 -12q5 5 12 7l52 40l1 2q1 4 -1.5 13t-6.5 18t-9 17t-9 11q-6 -3 -15.5 -8t-20 -11.5t-19.5 -13.5t-13 -13z" />
    <glyph glyph-name="FL2030h" unicode="&#x2030;" horiz-adv-x="1080" 
d="M794 712l-586 -712h-69q144 167 243.5 283.5t164 193.5t100 120.5t52 65t20 28t4.5 9.5q8 8 16.5 19.5t18.5 16.5q1 1 6 1q20 0 25.5 -10.5t4.5 -14.5zM247 386l-49 124q-6 18 -2 34q3 14 17 23q9 6 28.5 18.5t40 26t37 24.5t20.5 14q5 3 15.5 9.5t18.5 10.5q10 6 12.5 7
t10.5 1q13 0 15 -3t8 -14l71 -145l-3 -11l-4 -4t-9.5 -9t-11.5 -10t-9 -8q-22 -18 -41 -32t-37.5 -27t-38.5 -26t-44 -29q-2 -1 -6.5 -1.5t-5.5 -0.5q-16 0 -22.5 5.5t-10.5 22.5zM270 531q3 -9 7 -21.5t9 -25.5t11.5 -24t12.5 -17q3 2 9 5.5t8 4.5l74 57v3q2 7 -1 19.5
t-8.5 25.5t-12.5 24t-13 16q-9 -4 -23.5 -11.5t-28.5 -16.5t-26 -19.5t-18 -19.5zM513 68l-49 125q-8 14 -2 33q3 14 17 23q9 6 28.5 18.5t40 26t37 24.5t20.5 14q5 3 15.5 9.5t17.5 10.5q10 6 12.5 7t10.5 1q13 0 15.5 -3t8.5 -14l71 -145l-3 -11l-4 -4t-9.5 -8.5
t-11.5 -9.5t-9 -8q-22 -18 -41 -32t-37.5 -27t-38.5 -26.5t-44 -29.5q-2 -1 -6.5 -1.5t-5.5 -0.5q-16 0 -22 6t-11 22zM536 213q3 -9 7 -21.5t9 -25.5t11 -24t12 -17q3 2 9.5 5.5t8.5 4.5l74 58v2q2 8 -1 20t-8.5 25t-12.5 24t-13 17q-9 -5 -23 -12.5t-28.5 -16.5t-26.5 -19
t-18 -20zM834 45l-50 124q-6 18 -2 34q5 14 18 23q9 6 28.5 18.5t40 26t37 24.5t20.5 14q5 3 15.5 9.5t17.5 10.5q10 6 12.5 7t10.5 1q13 0 15.5 -3t8.5 -14l71 -145l-3 -11l-4 -4t-9.5 -9t-11.5 -10t-9 -8q-22 -18 -41 -32t-37.5 -27t-38.5 -26t-44 -29q-2 -1 -6.5 -1.5
t-5.5 -0.5q-16 0 -22.5 5.5t-10.5 22.5zM857 190q2 -9 6 -21.5t9.5 -25.5t11.5 -24t12 -17q3 2 9.5 5.5t8.5 4.5l73 57l1 3q2 7 -1 19.5t-9 25.5t-12.5 24t-12.5 16q-9 -4 -23.5 -11.5t-28.5 -16.5t-26 -19.5t-18 -19.5z" />
    <glyph glyph-name="FL2039h" unicode="&#x2039;" horiz-adv-x="259" 
d="M244 407l45 -98q-6 -5 -6 -8q-1 -2 0 -2.5t1 -1.5q-2 -2 -2 -4q-8 -6 -17.5 -17t-20.5 -11q-3 0 -17.5 19t-31 41.5t-29 42t-12.5 21.5q1 3 4 8.5t4 7.5q31 39 66 64.5t72 54.5l30 19l9 -57z" />
    <glyph glyph-name="FL203Ah" unicode="&#x203a;" horiz-adv-x="259" 
d="M233 407l-97 -98q2 -3 2 -8q-1 -2 -2 -2.5t-1 -1.5v-4q3 -6 7 -17t15 -11q2 0 14.5 9t29.5 22.5t36.5 29t36.5 29.5t28 23.5t11 10.5q1 3 1 8q0 6 1 8q-6 19 -14.5 35t-18.5 29.5t-21 26.5t-22 28l-20 19l-39 -57z" />
    <glyph glyph-name="FL20ACh" unicode="&#x20ac;" horiz-adv-x="538" 
d="M162 382v12t2 13l4 15q2 8 6.5 17.5t10.5 9.5h70l4 13q7 18 12 35t10 35l26 98q1 3 0.5 4.5t0.5 2.5l1 6q7 25 15 49t21 49q26 5 56.5 6t61.5 1h208l2 -2q4 -5 7.5 -10.5t1.5 -10.5l-15 -56l-103 -130q-8 -10 -12.5 -15.5t-9 -8t-10.5 -3t-17 -0.5h-14q-8 0 -17.5 1.5
t-6.5 14.5q6 23 17 40.5t25.5 33.5t31 31.5t33.5 35.5l-4 5h-171q-19 -26 -36.5 -79t-42.5 -146h130q6 3 14 3t15 -1.5t11 -6.5l-7 -6l-13 -51l-7 -6q-1 0 -6 -0.5t-19.5 -1.5t-41 -1.5t-71.5 -0.5h-24l-21 -77h126q4 1 7 1.5t6 0.5q8 0 15.5 -1.5t11.5 -6.5l-7 -5l-13 -51
l-8 -7q-1 0 -6 -0.5t-19.5 -1t-41 -1t-71.5 -0.5h-19q-10 -35 -19 -73t-20 -83h193q3 10 5 23t7 30q8 27 20.5 50t36.5 23h2q8 0 13.5 -1.5t7.5 -10.5q-2 -19 -5.5 -36t-8.5 -36l-16 -58l-3 -9q-2 -4 -5 -11.5t-7.5 -15.5t-9.5 -14t-10 -6h-301q-1 9 -6 14.5t-2 16.5l53 197
h-14q-17 0 -33.5 1t-30.5 3q-2 8 -1.5 12.5t2.5 12.5l4 16q2 8 7 17.5t10 9.5h75l21 77h-9q-17 0 -33.5 1t-31.5 4z" />
  </font>
</defs>
</svg>
