<?xml version="1.0" standalone="no"?>
<!DOCTYPE svg PUBLIC "-//W3C//DTD SVG 1.1//EN" "http://www.w3.org/Graphics/SVG/1.1/DTD/svg11.dtd" >
<svg xmlns="http://www.w3.org/2000/svg" xmlns:xlink="http://www.w3.org/1999/xlink" version="1.1">
<metadata>
Created by FontForge 20170731 at Wed Feb  8 19:33:36 2023
 By Aleksey,,,
Copyright 2011 by Joel Carrouche. All rights reserved.
</metadata>
<defs>
<font id="Norse-Bold" horiz-adv-x="937" >
  <font-face 
    font-family="Norse"
    font-weight="700"
    font-stretch="normal"
    units-per-em="2048"
    panose-1="0 0 0 0 0 0 0 0 0 0"
    ascent="1792"
    descent="-256"
    x-height="1505"
    cap-height="1507"
    bbox="-43 -336 2015 1864"
    underline-thickness="102"
    underline-position="-307"
    unicode-range="U+000D-FB02"
  />
<missing-glyph 
d="M145 -4l-10 4l-33 -4l-22 4v70l16 49l-12 65l10 365l-6 723l14 51l-14 18l-4 142l14 4l-10 29l401 -7l19 2h197l20 -4l98 9l29 -5l4 -69l-12 -47l6 -66l-12 -346l6 -743l-15 -52l23 -18l-2 -137l-2 -35l-90 -4l-398 8l-18 -2h-115l-24 4zM162 193l-6 -125l569 4h35l8 149
l2 244l12 248v102l-2 27l-2 178v10l-6 109l25 10l-25 35l2 123l2 135l-602 -2l-2 -113l-2 -14l-8 -246l-12 -248v-102l2 -27l2 -178v-10l6 -109l-25 -33l25 -12v-162z" />
    <glyph glyph-name="fi" unicode="fi" horiz-adv-x="1208" 
d="M147 586l5 223v47l4 16l-9 353v12l-12 37l4 100l-6 129l105 2l137 -4l53 -20l23 24l219 2v-104l-19 -92l-80 -2l-120 20l-72 -4l-29 -6h-14l-6 -74l-4 -100l-25 -15l31 -30l4 -254l119 4h28l131 8l13 -86l-6 -51l-17 -68h-69l-33 15l-10 -6l-160 4v-39l6 -86l-2 -172
l6 -90l8 -86l-4 -64l10 -29v-100l-82 -4l-145 14l10 242l29 88l-27 37zM883 891l-15 51l-6 410l17 37l-19 10l-10 102l96 6l133 -8l-10 -149l-10 -52l-6 -268l-6 -104l8 -80l4 -51l-19 -43l23 -15v-567l4 -31l4 -39l-2 -75l-90 -29l-43 2l-94 2l28 182l25 41l-25 35v74v383
l7 63z" />
    <glyph glyph-name="fl" unicode="fl" horiz-adv-x="1392" 
d="M147 586l5 223v47l4 16l-9 353v12l-12 37l4 100l-6 129l105 2l137 -4l53 -20l23 24l219 2v-104l-19 -92l-80 -2l-120 20l-72 -4l-29 -6h-14l-6 -74l-4 -100l-25 -15l31 -30l4 -254l119 4h28l131 8l13 -86l-6 -51l-17 -68h-69l-33 15l-10 -6l-160 4v-39l6 -86l-2 -172
l6 -90l8 -86l-4 -64l10 -29v-100l-82 -4l-145 14l10 242l29 88l-27 37zM1210 184l45 15l97 4l6 -43l-8 -129l-31 -39l-156 10l-28 -2h-88l-19 12l-90 -16l-92 4l-4 139l26 37l-18 51l14 338l-4 668l27 35l-33 10l-14 223h106l68 17l51 -48l-2 -133l-8 -69l-6 -230l-13 -225
v-100l-22 -35l24 -27l4 -125l7 -141l-2 -2l8 -143v-60z" />
    <glyph glyph-name=".notdef" 
d="M145 -4l-10 4l-33 -4l-22 4v70l16 49l-12 65l10 365l-6 723l14 51l-14 18l-4 142l14 4l-10 29l401 -7l19 2h197l20 -4l98 9l29 -5l4 -69l-12 -47l6 -66l-12 -346l6 -743l-15 -52l23 -18l-2 -137l-2 -35l-90 -4l-398 8l-18 -2h-115l-24 4zM162 193l-6 -125l569 4h35l8 149
l2 244l12 248v102l-2 27l-2 178v10l-6 109l25 10l-25 35l2 123l2 135l-602 -2l-2 -113l-2 -14l-8 -246l-12 -248v-102l2 -27l2 -178v-10l6 -109l-25 -33l25 -12v-162z" />
    <glyph glyph-name=".null" horiz-adv-x="0" 
 />
    <glyph glyph-name="nonmarkingreturn" horiz-adv-x="682" 
 />
    <glyph glyph-name="NULL" horiz-adv-x="0" 
 />
    <glyph glyph-name="NULL" horiz-adv-x="0" 
 />
    <glyph glyph-name="CR" unicode="&#xd;" horiz-adv-x="512" 
 />
    <glyph glyph-name="space" unicode=" " horiz-adv-x="419" 
 />
    <glyph glyph-name="exclam" unicode="!" horiz-adv-x="487" 
d="M168 895l-18 96l-13 330l21 25l-25 30l-2 60l-10 49l65 12l199 -8l-10 -98l-27 -15l19 -41l-7 -282l-38 -72l28 -37l-10 -209l-8 -215l-68 -24h-88l-12 34l2 93zM399 174v-35l-75 -69l-72 -82l-27 4l-26 24l-4 29l-21 6l-88 82l4 39l80 74l63 73l35 -4l35 -51l23 -45h28z
" />
    <glyph glyph-name="quotedbl" unicode="&#x22;" horiz-adv-x="536" 
d="M322 1192l-7 164l-12 102l21 53l145 -4l12 -32l-10 -123l-10 -146l-10 -129l-43 -10l-89 2zM74 1196l-8 156l-13 106l8 53l172 -2l7 -34l-17 -136l-8 -133l-4 -123l-35 -20l-86 2l-24 27z" />
    <glyph glyph-name="numbersign" unicode="#" horiz-adv-x="862" 
d="M162 584h6l6 61l14 182l11 39l6 86l-45 -12h-107l-2 47l15 137l43 4l32 -2l37 -8l41 -2l6 84l25 14l-25 31v164l2 53l6 37l134 6l55 -8v-51l-6 -53l-25 -127l-10 -154l43 -2l102 2h13l4 35l14 82l-2 98v88l6 51l6 39h144l53 -20l-6 -51l-21 -50l-18 -118l-12 -148l122 8
l25 -12l-14 -121l-15 -57l-49 -2l-88 10l-12 -108v6l-17 -269h56l53 9l55 -9l-6 -127l-14 -61h-51l-105 16h-4l-4 -47v2l-8 -145l6 -121l-4 -45l-4 -47l-133 -4l-58 4l2 45l13 135l39 94l-23 27l8 111l-33 2l-125 -2l-6 -54l-6 -102l-24 -23l18 -45l-4 -94l4 -20l-10 -45
l-8 -33l-181 8l2 43l5 43l28 139l4 45v37l9 99l-39 -2h-39l-56 -3l-2 62l17 123l37 2l67 -2zM473 952h-108l-13 -116v6l-18 -267l69 -4l89 -2l6 76l12 92l6 97l21 34l-13 33l4 53z" />
    <glyph glyph-name="dollar" unicode="$" horiz-adv-x="751" 
d="M444 1098l-6 -262l21 -33l241 -287l31 -39l-2 -121l-86 -114v2l-45 -56l-86 -106l-80 -105l-2 -47l12 -43v-57l-98 -8l-27 10l15 107v34l-176 166l-148 142l25 51l98 96l92 -96l-12 -39l37 8l86 -86l10 115l4 340l-29 43l-24 28l2 33l-39 12l-82 107l-31 22l-110 134v104
l104 115l33 6l-14 22l51 54l121 159h10l-4 80l-10 47l8 17l123 -2l2 -60l-10 -69v-17l12 -2l31 -37l53 -53l55 -37l121 -104l-119 -125l-74 53l-84 82l-2 -98zM297 1217l-64 -105l117 -154l2 91l10 192l-2 33l-2 -2l-36 -49zM451 528l-19 27l2 -283v-36l41 55l74 112l-64 93
l-34 34v-2z" />
    <glyph glyph-name="percent" unicode="%" horiz-adv-x="1185" 
d="M12 1188l133 162l25 39l25 36l-2 -4l40 70l99 2l94 -129v-18l27 -27l98 -121l4 -90l-119 -137v-8l-98 -148l-102 -4l-33 43l-53 86l-127 164l-3 39zM227 1237l-10 -18l-47 -56l66 -94l-3 -6l11 -4l55 -68l29 29l2 12l73 111l-57 84l-67 94zM637 350l129 189l86 139l96 2
l96 -131l-6 -25l43 -30l90 -117l5 -88l-117 -146v-2l-98 -147l-103 -2l-29 41l-53 84l-131 155l-2 41zM905 506l-59 -90l-53 -78l61 -80l-2 -10l14 -4l60 -74l28 37l-2 -2l80 114l-59 87zM752 936l-99 -209v2l-190 -426h2l-66 -158v2l-37 -110l-20 -39l-51 -21l-117 70
l39 84l27 29l53 80l29 26l-9 27l131 305h-2l72 156l21 34l120 254l45 74l80 217l45 109l37 80l150 -52v-47l-27 -43l-33 -10l19 -22l-146 -240l2 6z" />
    <glyph glyph-name="ampersand" unicode="&#x26;" horiz-adv-x="1060" 
d="M700 1231l-106 -94l-57 59l-54 53l-14 37h-20l-39 41l-91 -98l-30 -10l10 -19l-51 -70l53 -73l27 -31l260 -315l-8 -49h43l96 -113l16 29l76 106l78 123l55 4l115 -104l-49 -72l-52 -47l-65 -78l-66 -90l93 -117l170 -180l-23 -64l-125 -90l-102 123l-19 43l4 43l-30 -12
l-78 104l-4 -2l-78 -100l-60 -72l-55 -100l-106 4l-64 -2l-26 49l-91 109l-2 12l-198 219l-13 113l185 196l8 17l68 80l10 8l-96 110l4 52l-41 4l-107 118l2 84l125 129l70 88l82 119l139 11l72 -80l43 -52l118 -96zM596 422l-203 252l-121 -129l-39 -15l13 -26l-37 -45
l27 -37l110 -113l66 -82l24 -26l82 84l27 53l22 18l43 56z" />
    <glyph glyph-name="quotesingle" unicode="'" horiz-adv-x="278" 
d="M66 1192l-9 156l-12 106l8 53l172 -2l6 -35l-16 -135l-8 -133l-4 -123l-35 -20l-86 2l-25 26z" />
    <glyph glyph-name="parenleft" unicode="(" horiz-adv-x="473" 
d="M76 559l-19 94l2 105l7 153l18 127l72 316l116 295l25 26l68 -8l116 -70l-59 -133l-70 -47l4 -47l-67 -129l-25 -176l-31 -199l-26 -14l18 -55l-4 -37l23 -264l-2 6l86 -352l108 -191l27 -68l-103 -69l-75 -2l-33 71l-23 68l13 37l-43 27l-66 213l-14 67l-29 119z" />
    <glyph glyph-name="parenright" unicode=")" horiz-adv-x="468" 
d="M412 659l-15 -94l-14 -137l-31 -119l-14 -67l-66 -213l-47 -27l19 -31l-23 -90l-33 -71l-79 2l-103 69l27 66l108 209l88 329l31 29l-27 39l15 213l-12 104v-2l-27 203l-35 176l-59 121l-52 100l-71 134l106 69l66 8l24 -26l84 -211l-18 -39l41 -17l14 -34l80 -308
l14 -126l7 -154z" />
    <glyph glyph-name="asterisk" unicode="*" horiz-adv-x="452" 
d="M170 1577l72 6l55 -8l2 -16l-4 -50l-12 -75l32 8l74 26h37l10 -53v-53l-20 -12l-43 -4l-54 -5l3 -2l49 -67l37 -37l-5 -29l-61 -47l-25 -12l-26 43l-53 90l-23 -35l-22 -47l-31 -51l-15 4l-73 33l-11 26l31 45l43 52l19 26l-29 4h-84l-27 11l7 65l2 43l28 2l37 -10
l92 -21l-6 78l-8 51z" />
    <glyph glyph-name="plus" unicode="+" horiz-adv-x="778" 
d="M313 829l6 97l-8 12l-10 156l4 59l148 -2l39 -18l-17 -74l10 -33l-14 -141l-2 -54l66 -12l20 12l72 3l104 12l8 -19v-120l-10 -58l-53 8l-107 9l-75 8h-19l2 -182l10 -39l2 -52l-8 -41l-80 -10h-61l-53 10l8 46l8 63l6 35l2 31l8 63l-8 35v43h-30h-97l-82 -10l-55 2
l-8 43l6 135h88l43 -8l62 -9h75z" />
    <glyph glyph-name="comma" unicode="," horiz-adv-x="372" 
d="M350 164l2 -41l-10 -14l-59 -91l-52 -75l-41 -31v-31l-59 -76l-33 -30l-108 78l20 36l39 29l68 84l10 43l-90 74l2 35l78 73l57 76l31 -2l47 -41l22 -39z" />
    <glyph glyph-name="hyphen" unicode="-" horiz-adv-x="528" 
d="M162 829l100 -6l144 21l59 6l27 -27l-3 -153l-34 -23l-119 12l-168 -8l-45 -2l-55 -4l-29 8l-6 68l16 117l35 4l29 -2z" />
    <glyph glyph-name="period" unicode="." horiz-adv-x="356" 
d="M334 170v-35l-76 -69l-72 -82l-26 4l-27 24l-4 29l-20 6l-89 82l5 39l79 74l64 73l35 -4l35 -51l22 -45h29z" />
    <glyph glyph-name="slash" unicode="/" horiz-adv-x="694" 
d="M504 995l-78 -219l-76 -252l-69 -200v2l-50 -170l-41 -121l-2 -45l-30 -86l-54 8l-122 49l28 88l13 25l8 16l67 174l27 10l-19 25l105 326v-2l51 165l17 39l86 269l26 75l82 254l23 76l32 88l174 -53l-16 -43l-33 -27l11 -20l-103 -264l-35 -15l25 -28z" />
    <glyph glyph-name="zero" unicode="0" horiz-adv-x="901" 
d="M358 1503l117 10l60 -4l157 -368v-35l29 -25l84 -168h-2l69 -131l-6 -84l-63 -116l-76 -179l-72 -116l-10 -43l-100 -250l-180 -21l-23 62l-18 47l-99 240h2l-86 163l-98 220l-6 102l57 119l72 143l33 -2l2 57l92 199l26 59zM367 453l88 -222l14 35l61 119l27 -4l-8 35
l43 106v-2l84 180l8 27l-8 16l-78 172l18 33l-30 -2l-140 332l-12 -33l-43 -86v-16l-133 -269l2 -14l-37 -86l109 -262l-4 -25zM373 819l18 51l74 37l67 -80l29 -55l2 -59l-35 -39l-8 -19l-18 -37l-76 -36l-61 92l-23 45l-2 55z" />
    <glyph glyph-name="one" unicode="1" horiz-adv-x="600" 
d="M311 887l-8 65l4 250l-55 -33l-125 -120l-49 67l-60 101l45 40l48 29l94 80l33 -14l16 59l82 82l26 20l138 -59l-8 -186l-19 -574l21 -510l-25 -18l35 -23l4 -45l-8 -82l-76 -16h-135v113l26 405q-1 28 -5 83t-5 83l-2 68l10 88l35 22z" />
    <glyph glyph-name="two" unicode="2" horiz-adv-x="788" 
d="M477 604l-26 -72l-72 -165l-37 -105l-20 -57l100 -8l119 12l26 -27l29 33l80 8l51 -41l-6 -166l-74 -20l-325 27l-132 -9l-63 -2l-33 150l43 106l238 461q7 18 25.5 65.5t25.5 65.5l92 193l19 63l-76 92v19l-78 61l-35 -26l-47 -45l-25 -29l-71 -107l-109 43l-51 88
l131 123l31 -4l-4 27l86 82l65 76l129 -17l88 -115l58 -86l106 -114l-2 -88l-162 -351l-26 -51l-37 -47l-43 -16z" />
    <glyph glyph-name="three" unicode="3" horiz-adv-x="706" 
d="M160 885v116l110 127l31 5l-8 32l18 37l70 101l29 28h-17l-80 2l-168 -16l-90 2l-12 94l20 105l99 -15l35 -2l20 -28l21 32l135 -4l260 -6l14 -147l-241 -301l-17 -52l-20 -32l20 -45l125 -123l72 -90l78 -66l-11 -143l-110 -117l-178 -197l-105 -164l-78 -53l-139 150
l84 98l41 37l31 26l34 21l150 162v-2l68 98l-41 53h-4l-125 164l2 37l-35 -16z" />
    <glyph glyph-name="four" unicode="4" horiz-adv-x="821" 
d="M516 694l2 144l199 10l4 -100l-16 -218l6 -176l8 -200l2 -148l-105 -16l-102 14l4 119l27 14l-21 45l8 103h-126h-136l-168 -13l-55 113l62 174h-3l170 535l29 49l2 39l66 278l22 56l72 2l133 -52l-43 -151l-104 -311l-27 -19l-82 -303l-37 -23l17 -53l-35 -147l47 -2
l104 2l78 -4v4l2 53l2 121l25 41z" />
    <glyph glyph-name="five" unicode="5" horiz-adv-x="712" 
d="M92 899l23 135l35 236l6 57l10 150l41 28h10l207 -12l135 14l76 -2l8 -168l-37 -30l-104 10l-60 29l-10 -23l-94 4l-19 -119l-8 -80l-28 -24l28 -27l-14 -127l33 -32l69 -52l2 -28l29 2l145 -117l87 -64l6 -182l-154 -149l-143 -166l-105 -172l-80 -35l-141 139l88 94
l96 82l127 156l39 2l2 41l72 84l-51 43l-139 125l-142 80z" />
    <glyph glyph-name="six" unicode="6" horiz-adv-x="864" 
d="M477 1022l-192 -397l-17 -52l-35 -69l80 -109l49 -63l72 -76l27 -41l12 18l84 107l64 90l20 43l-33 31l-22 20l-92 94l-78 52l98 151h25l92 -76l65 -69l2 -8l25 2l111 -84l10 -142l-76 -118l-59 -76l-166 -244l-97 -4l-77 -6l-21 49v-2l-67 98l8 37l-45 -10l-197 231
l-10 158l39 66l57 102l25 70l41 47l182 395l33 25l-4 38l49 107l61 133l199 -92l-53 -105l-54 -73l-92 -187l-84 -39z" />
    <glyph glyph-name="seven" unicode="7" horiz-adv-x="768" 
d="M307 754l68 209l47 61l-16 35l75 258l-98 6l-29 10l-49 -8l-149 -16l-90 14l2 150l45 36l141 -10h246l112 4l60 2l41 -125l-58 -139l-159 -481l-31 -53l-2 -52l-70 -264l-41 -18l4 -105l-30 -139l-17 -41v-39l-20 -78l-187 35l-22 64l29 55l36 61l-6 9l68 192l84 283
l16 22l-12 15z" />
    <glyph glyph-name="eight" unicode="8" horiz-adv-x="870" 
d="M317 778l-59 56l-51 86l-14 -7l-136 138l13 114l176 195l53 -23l-18 54l26 49l51 71h140l12 -22l41 -62l168 -186l59 -47l15 -137l-82 -90l-78 -78l-10 -33l-72 -76l63 -71l101 -95l61 -57l49 -45l4 -135l-124 -137l-60 -56l-61 -98l-70 -92l-152 2l-106 137l-211 225
v127l105 117l110 100zM567 518l-137 135l-10 -12l-148 -168l-12 -4l-18 -29l96 -102l-19 -31l52 -10l65 -76l13 -16l53 49l90 115l51 77l-51 50l2 24zM334 1004l98 -121l131 161l35 35l6 25l-57 63l-129 142l-27 -39l-51 -51l-12 -9l-82 -106l20 -31l43 -53z" />
    <glyph glyph-name="nine" unicode="9" horiz-adv-x="841" 
d="M432 829l-96 -145l-53 18l-84 84l-103 88l-24 27l-37 33l-6 127l90 135l57 31l2 35l49 75l115 170l84 -2l66 2l102 -139l221 -250l4 -119l-92 -170l-59 -106l-41 -82l-25 -57l-82 -191l-39 -98l-57 -57l8 -56l-94 -205l-186 95l32 61l113 205l31 88l24 20l-4 19l103 203
l57 41l-23 32l68 156l37 68l35 75l-19 19l-51 57l6 33l-26 -4l-105 125l-18 18l-93 -133l-49 -49l-24 -49l-21 -35l82 -80l4 -16l56 -47z" />
    <glyph glyph-name="colon" unicode=":" horiz-adv-x="356" 
d="M334 158v-35l-76 -70l-72 -82l-26 4l-27 25l-4 29l-20 6l-89 82l5 39l79 73l64 74l35 -4l35 -51l22 -45h29zM334 850v-35l-76 -70l-72 -81l-26 4l-27 24l-4 29l-20 6l-89 82l5 39l79 74l64 73l35 -4l35 -51l22 -45h29z" />
    <glyph glyph-name="semicolon" unicode=";" horiz-adv-x="372" 
d="M340 850v-35l-76 -70l-71 -81l-27 4l-27 24l-4 29l-20 6l-88 82l4 39l80 74l63 73l35 -4l35 -51l22 -45h29zM348 152l2 -41l-10 -15l-59 -90l-52 -76l-41 -30v-31l-59 -76l-33 -31l-108 78l20 37l39 29l68 84l10 43l-90 73l2 35l78 74l57 76l31 -2l47 -41l22 -39z" />
    <glyph glyph-name="less" unicode="&#x3c;" horiz-adv-x="778" 
d="M190 909l93 52l49 -11l8 37l53 41l88 57q27 15 62 50l84 39l75 -66l15 -111l-125 -49l-74 -28v2l-96 -60l-47 -16l2 2l-125 -86l137 -96l-2 2l57 -23l156 -86q11 -4 33 -8l106 -35l-41 -96l-43 -72l-65 4l-64 47l-22 21h2l-205 117l-74 51h-41l-41 35h2l-102 63l-4 37
l-2 102l61 27l45 29z" />
    <glyph glyph-name="equal" unicode="=" horiz-adv-x="778" 
d="M150 981l229 -14l41 -11l112 13h66l51 16h90l-4 -156l-63 -30l-129 14l-35 25l-21 -25l-53 -4l-219 10l-47 -12l-59 -4l-64 4l2 78l-2 22l16 88l91 -14h-2zM186 668h166l35 -6l176 12l170 10l6 -170l-67 -27l-201 21l-29 -2l-235 2l-51 -14l-52 -2l-65 4l6 94v8l6 78
l88 4z" />
    <glyph glyph-name="greater" unicode="&#x3e;" horiz-adv-x="778" 
d="M588 606l-92 -51l-50 10l-8 -37l-53 -41l-88 -57q-27 -15 -61 -49l-84 -39l-76 66l-15 110l125 49l74 29v-2l96 59l47 17l-2 -2l125 86l-137 96l2 -2l-57 22l-156 86q-15 6 -33 9l-106 34l41 97l43 71l65 -4l64 -47l22 -20h-2l205 -117l74 -51h41l41 -35h-2l102 -64
l4 -36l2 -103l-61 -26l-45 -29z" />
    <glyph glyph-name="question" unicode="?" horiz-adv-x="720" 
d="M444 784l-2 -6l13 -176l-11 -12l11 -21l8 -26l-23 -78l-180 8l-4 49l16 39l-16 72l6 78l-8 110l47 49l-4 -4l25 37l36 51l60 56l35 43l20 37l-37 57l19 24l-68 27l-27 43l-43 33l-22 -19l-21 -18l-41 -63l-65 -123l-59 12l-64 61l-33 76l119 111l123 131l6 8l41 55
l133 -18l82 -135l-8 -29l45 -18l125 -127l-4 -121l-180 -199zM516 170v-35l-76 -69l-71 -82l-27 4l-27 24l-4 29l-20 6l-88 82l4 39l80 74l63 73l35 -4l35 -51l22 -45h29z" />
    <glyph glyph-name="at" unicode="@" horiz-adv-x="1148" 
d="M535 1364l157 -4l228 -254l-5 -23l17 11l182 -156l2 -61l-6 -70l-221 -172l-49 14l10 -43l-88 -74l-103 -108l-86 6l-120 141l-2 29l-50 21l-41 41l-34 43l2 65l73 61l25 23l63 61l84 99l82 8l60 -68l-4 -34l26 4l72 -78l45 -55l76 71l12 15l-41 41l-6 26l-41 19l-100 98
l-117 123l-23 18l-112 -117l-41 -41l-51 -10l2 -37l-170 -170l-76 -84l20 -28l185 -199l-13 -22l37 -2l230 -226l41 33l102 98l41 11v30l172 152l70 -49l36 -66l-36 -49l-148 -111h-2l-115 -112l-118 -109h-121l-31 51l-225 240l-29 53l-43 17l-170 180l-53 49l2 121l84 72
l10 22l209 201l29 -2l6 32l78 87l88 100zM625 592l75 65l43 54l-127 139l-118 -123l61 -63v-2z" />
    <glyph glyph-name="A" unicode="A" horiz-adv-x="870" 
d="M571 420l-4 16l-28 -4h-2l-41 -29l-138 -32l-18 -9l-41 -16l-23 -145l-18 -23l14 -57l-22 -137l-127 12l-72 45l55 250l21 129l23 22l-3 41l41 252l7 39l12 43v37l61 274l37 43l-22 31l14 82l18 86l21 129l168 8l35 -16l-2 -72l6 -16l8 -21l65 -313l-14 -37l25 -18
l98 -494v-28l51 -191l21 -129l-13 -16l31 -33l23 -88l-152 -49h-27l-34 18l-27 258l-8 57l16 21l-18 12zM383 889l-27 -199l2 2l-24 -133l-2 -14l133 41l57 14l-41 221l-8 107l-8 37l-31 217l-41 -250l-20 -10z" />
    <glyph glyph-name="B" unicode="B" horiz-adv-x="802" 
d="M471 92l-143 -121l-86 27l-113 20l16 279l-8 96v307l13 95l-9 219l-2 235l23 62l-21 20l-6 31l-4 117l172 49l270 -240l140 -110l8 -41l-14 -121l-121 -131l-103 -119l15 -12l30 -27l23 -20l215 -205l2 -43l-2 -94l-80 -82l-84 -60l-59 -73zM344 690l-18 12v-362l-19 -16
l21 -21l-2 -125l104 111l55 47l25 16l78 86l-74 92l-29 27l-49 51zM313 1004l4 -175l17 13l100 108l31 4l8 52l72 77h2l-64 58l-10 24l-16 2l-140 123l2 -180z" />
    <glyph glyph-name="C" unicode="C" horiz-adv-x="634" 
d="M66 606l-48 74l-2 131l134 225l73 72v49l51 82v8l115 189l2 16l72 84l153 -102l-57 -103l-57 -80l-35 -22l-10 -55l-123 -183l-68 -106l-39 -70l-26 -49l30 -59l21 -39l29 -29l18 -41l76 -117l94 -159l106 -140l48 -76l-107 -88l-70 -45l-69 109l-4 24l-156 242l16 37
l-94 88z" />
    <glyph glyph-name="D" unicode="D" horiz-adv-x="811" 
d="M477 195l-137 -218l-68 19l-133 18l4 138v-2l13 458l-13 80l-2 537l21 39l-21 26l-6 107l-2 76l88 26l109 33l127 -174l22 -68l72 -71l53 -95l156 -206l-2 4l37 -48l2 -149l-37 -61l-211 -324zM326 961l-31 -93l33 -96l-9 -405l-2 -111l2 4l91 146l36 18l-16 18l86 166
l68 113l37 59l-37 56l-9 49l-40 33l-203 325l-13 14z" />
    <glyph glyph-name="E" unicode="E" horiz-adv-x="741" 
d="M653 1313h-96l-49 16l-6 -2l-33 -6l-113 4h-18v-22l-4 -52v-202l-10 -62l-23 -37l21 -16l4 -80l75 -4l80 4l105 10l26 -51l-12 -61l-4 -84l-100 4l-129 4h-33l-8 -211l12 -59l-6 -19l2 -4l4 -199l18 -4l17 -4l164 2l51 17l102 -2l-4 -103l-8 -76l-47 -20l-135 2l-117 12
h-72l-16 -10l-154 2l-10 84l12 139l-2 23l2 94l25 53l-19 25v47l-2 110l9 17l-17 203l6 75v152l2 160l-2 104l23 35l-23 27l-10 145l96 12h117l29 -16l80 16l202 2l2 -80z" />
    <glyph glyph-name="F" unicode="F" horiz-adv-x="712" 
d="M147 586l5 223v47l4 16l-9 353v12l-12 37l4 100l-6 129l105 2l137 -4l53 -20l23 24l219 2v-104l-19 -92l-80 -2l-120 20l-72 -4l-29 -6h-14l-6 -74l-4 -100l-25 -15l31 -30l4 -254l119 4h28l131 8l13 -86l-6 -51l-17 -68h-69l-33 15l-10 -6l-160 4v-39l6 -86l-2 -172
l6 -90l8 -86l-4 -64l10 -29v-100l-82 -4l-145 14l10 242l29 88l-27 37z" />
    <glyph glyph-name="G" unicode="G" horiz-adv-x="768" 
d="M481 850l178 8l25 -61l-25 -146l7 -12l-11 -508l-18 -12l18 -29l2 -92l-194 -21l-27 54l-24 49l-72 108l-100 181l-2 2l-48 90l-61 84l-98 149l4 152l31 20l10 15l39 73l155 238l21 55l108 131l-4 23l97 133l77 -45l23 -16l53 -50l-47 -80l-72 -61l2 -29l-155 -219
l-80 -131l-47 -90l-27 -41l37 -59l121 -199l2 -63l33 4l69 -152l2 12l13 324l-4 16l-9 25z" />
    <glyph glyph-name="H" unicode="H" horiz-adv-x="960" 
d="M139 342l19 281l-15 231l9 201l-15 127l-6 135l6 41l-14 127l49 33l176 -23l-8 -147l-10 -125l-25 -39l23 -19l-9 -135l19 -199l4 3l86 30l33 -12l18 22l84 37l39 19l23 10l8 55l-6 187l-4 184l-11 82l31 59l76 -2l117 -4l-7 -102l-12 -117v2l-2 -78l-20 -26l18 -60
l-10 -192l6 -92l4 -41l4 -367l4 -262l15 -51l4 -113l-76 -4h-119l-27 72l15 229l20 18l-30 33l4 316l-6 28l2 37l-119 -26h-2l-160 -68l-10 -356l-2 -7l12 -108l6 -92l-2 -76l-84 -4l-129 12l6 137l33 39l-29 31z" />
    <glyph glyph-name="I" unicode="I" horiz-adv-x="495" 
d="M170 891l-14 51l-6 410l16 37l-19 10l-10 102l96 6l134 -8l-11 -149l-10 -52l-6 -268l-6 -104l8 -80l4 -51l-18 -43l22 -15v-567l4 -31l4 -39l-2 -75l-90 -29l-43 2l-94 2l29 182l24 41l-24 35v74v383l6 63z" />
    <glyph glyph-name="J" unicode="J" horiz-adv-x="571" 
d="M244 887l-13 102l-6 346l27 33l-37 21v114l195 4l26 -71l-24 -181l8 -571l-23 -16l17 -62l24 -352l-32 -57l-66 -58l-55 -8l2 -41l-152 -123l-112 84v107l90 37l90 59l30 43l-4 18l9 224v79l-2 29l-3 127z" />
    <glyph glyph-name="K" unicode="K" horiz-adv-x="856" 
d="M121 1495l149 21l78 -27l-20 -508l4 -98v-62l6 17l31 80l34 55l82 196l35 88l58 58l-9 51l64 150l125 -50l63 -49l-59 -108l-125 -207l-6 -10l6 -7l-148 -280l11 -17l121 -276l71 -158l70 -116l-10 -29l28 -6l60 -133l-148 -82l-51 2l-59 151l-109 244l10 27l-69 112l2 4
l-82 170v-336l8 -98l2 -100l2 -23l8 -39l-2 -104l-108 -4l-109 2l2 213l6 2l-2 8l35 82l-24 29l4 32v13l12 442l-18 111l-11 258l4 164z" />
    <glyph glyph-name="L" unicode="L" horiz-adv-x="679" 
d="M498 184l45 15l96 4l6 -43l-8 -129l-31 -39l-155 10l-29 -2h-88l-19 12l-90 -16l-92 4l-4 139l27 37l-19 51l15 338l-5 668l27 35l-33 10l-14 223h106l68 17l51 -48l-2 -133l-8 -69l-6 -230l-12 -225v-100l-23 -35l25 -27l4 -125l6 -141l-2 -2l8 -143v-60z" />
    <glyph glyph-name="M" unicode="M" horiz-adv-x="1009" 
d="M381 1329l115 -201l2 -2l34 54l66 118l31 11l-17 34l107 179l100 -19l55 -24l-14 -303l-24 -48l20 -28l16 -660l-10 -129l15 -112l4 -66l12 -129l-170 -8l-49 31l-6 88l14 135v219l25 37l-23 20l-8 95l14 446l-8 76l-18 -33l-35 -45v-21l-27 -49l-29 -73l-73 -15l-56 2
l-49 97l-8 16l-14 33l-43 84l-4 -138v-2l2 -2v-282l-15 -35l15 -291l4 -301v-88l-193 -4l-16 78l27 76l-19 49v41v53l12 563l33 35l-33 22l2 185l-6 100l-6 100l17 29l-3 10l-18 27l-2 20l-2 115l88 6l76 11z" />
    <glyph glyph-name="N" unicode="N" horiz-adv-x="954" 
d="M817 180l12 -114l-26 -70l-113 -2l-69 4l2 160l-2 194l2 197l6 10l-6 39l-2 213l-33 55l-29 31l-29 45l-59 72l-84 116l-53 74v-110l-29 -74l2 -4l25 -27l-4 -467l-11 -73l19 -78l-2 -213l6 -29l-4 -131l-121 -4l-88 16l14 164l-6 19v34l12 291l17 60l-19 40l9 426
l-9 117l-8 213v107l162 45l184 -254l52 -82l16 -8l67 -111v176l21 64l-21 28v164l119 2l84 -14l-4 -139l-20 -504l-17 -86l23 -68l14 -448v-66z" />
    <glyph glyph-name="O" unicode="O" horiz-adv-x="851" 
d="M424 1509l92 4l41 -112l105 -256l10 -55h20l56 -123l69 -152l-6 -113l-100 -202l-17 -21l-2 -33l-47 -98l-110 -262l-25 -66l-4 -22l-187 2l-2 68l-71 178l6 35h-23l-61 127l-74 174l-49 104l-4 129l16 10l111 269l37 26l-10 23l110 276l8 13l13 61l4 14h76zM428 260
l8 -22l66 215l24 24h-2l-2 37l101 246l-17 51l-24 70l-80 206l18 25l-37 23l-47 125l-12 38l-113 -297l-28 -8l14 -32l-68 -177l2 -24l27 -68l18 -59l-20 -25l41 -28l41 -84z" />
    <glyph glyph-name="P" unicode="P" horiz-adv-x="765" 
d="M612 788l-127 -139l-137 -155l-18 -21l4 -141l-33 -49l33 -29l12 -254l-102 -6l-119 12l22 293l19 63l-25 27l2 512l4 10v336l-10 84l-4 137l98 43l66 25l184 -190l8 -35l43 -15l213 -225l-4 -141l-63 -78zM332 928v-201l59 64l103 120l22 -6l21 51l32 48l-88 98l-14 28
l-18 13l-119 133l-2 -146l2 -98l-21 -63z" />
    <glyph glyph-name="Q" unicode="Q" horiz-adv-x="856" 
d="M408 1507l116 15l152 -371l61 -127h8l101 -223l-17 -103l-84 -163h-2l-20 -54l-45 -114l-39 -15h2l4 -47l-76 -190l-16 -33l-6 -21l-2 -10l24 -49l95 -188l22 -52l-154 -86l-63 25l-66 188l9 27l-31 35l-29 80l-135 284l4 43h2l-39 31l-90 205l-55 125l2 106l111 203
l51 31l-13 67l164 385zM319 561l121 -313l4 -8l207 514l-26 67l-35 84l-10 82l-37 23l-99 284l-106 -245l2 -27l-51 -88l-47 -152l24 -71z" />
    <glyph glyph-name="R" unicode="R" horiz-adv-x="837" 
d="M340 631l-12 12l2 -223l6 -205l6 -18l2 -170l-82 -33l-135 12l12 326l31 80l-18 26v80l-9 240l-4 106l17 41l-11 391l-8 177l162 65l326 -283l12 -51q1 -1 9.5 1t17.5 4.5t10 2.5l98 -90l-14 -123l-94 -114l-66 -78l-35 -43l-57 -78q7 -15 26 -45.5t25 -42.5v-35
q41 -46 43 -49l82 -139v-27l12 -6l29 -59v2l37 -78l67 -72l-2 -59l-166 -92l-49 79l-71 164l2 35l-25 12l-76 144l-18 47zM332 823l-4 -75l14 8l102 127q54 66 105 135l22 29l-41 51l-14 10l-188 186l-4 -157v-21l-17 -39l8 -37l4 -12l5 -22z" />
    <glyph glyph-name="S" unicode="S" horiz-adv-x="645" 
d="M293 365l133 204l-70 84l-41 19l-157 145l-99 96l-2 129l101 144l104 121l-4 22l53 72l41 26q2 4 -0.5 13.5t-1.5 11.5l49 82l62 -6l121 -96l-56 -82l-53 -54l-18 -36l-117 -138l-21 -28l-4 -15l-61 -82l39 -47l39 -55l32 -21l191 -178l55 -41l4 -159l-73 -121l-111 -135
l-82 -111q-5 -8 -11.5 -23.5t-8.5 -19.5l2 8l-23 -65l-55 -68l-168 105l31 75l39 35q33 48 53 80q6 10 17.5 29.5t17.5 29.5l57 27z" />
    <glyph glyph-name="T" unicode="T" horiz-adv-x="712" 
d="M496 1503l188 4l12 -86l-6 -96h-92l-20 6l-62 4h-63l-13 -86l9 -45l-5 -151q0 -70 2 -82q0 -8 1.5 -25t1.5 -24v-35l2 -158l-19 -123l-2 -2l25 -39v-385l16 -145l-59 -33l-58 -10l-108 16v158l30 129l-18 20l10 289l11 418l-13 96l8 131l-12 84l-45 6l-10 -10
q-21 -6 -33 -6l-125 -4l-24 24l6 168l198 -10l39 -16q6 0 22 7t25 7q31 -2 86 -2z" />
    <glyph glyph-name="U" unicode="U" horiz-adv-x="952" 
d="M162 356l-2 269l-15 223l2 145l17 43l-10 64l-13 330l27 75l184 -4l-2 -182l-6 -66l-20 -73l2 -37l20 -45l-14 -78l2 -70l2 -76l4 -153l-14 -242l14 -239l2 -31l23 -19l16 -2l68 25l167 72l9 133l6 260l-13 250v170l-8 258l4 145l103 2l94 -2l12 -100l-6 -111l-22 -12
l20 -23l-14 -133l-4 -112l-2 -29l-21 -35l21 -20l10 -60l-4 -454l12 -240l29 -160l-199 -32l-16 110l-4 14l-156 -79l-66 -35l-129 2l-122 106l-3 103l7 96l28 37z" />
    <glyph glyph-name="V" unicode="V" horiz-adv-x="880" 
d="M373 803l53 -293l23 -221l26 221l-2 -2l31 203l20 61l21 199l35 223l30 20l-2 15l-12 35l31 213l35 39l178 -31l-25 -113q-25 -92 -33 -127l-18 -69q-9 -28 -12 -58l-47 -344l-27 -51v-2l2 -2q0 -1 1 -6.5t1 -7.5v-13l-68 -311l-28 -29l20 -43l-24 -143l-39 -172l-109 -4
l-82 -2l-35 90l-36 225l10 49l-25 13l-61 401v-6l-23 80l8 69l-24 35q-25 84 -33 123l-16 139l-76 260l92 41l119 9l33 -234l32 -149l-2 -9l11 -16z" />
    <glyph glyph-name="W" unicode="W" horiz-adv-x="1042" 
d="M719 403l14 394q2 50 8.5 161.5t8.5 161.5l10 21v76l-12 182l4 114l145 -4l61 -28l-24 -328l-16 -29l16 -18l-39 -588l-23 -33l21 -24l-4 -64l-21 -258q-2 -4 -2 -6v-133l-106 -4l-94 -2l-11 90q-8 32 -20.5 77.5t-16.5 61.5l11 58l-33 10l-68 284l-82 -278v-31l-63 -209
v-63l-84 -2h-12l-105 14v94l-6 64l-14 336l-8 188l8 39l-25 21l-16 466l-12 15l-17 272l103 8l-5 -2l68 13l64 -31l-27 -223l16 -113l6 -180v2l19 -580l106 490l80 12l94 -18l15 -43v-56l12 -22l74 -369z" />
    <glyph glyph-name="X" unicode="X" horiz-adv-x="849" 
d="M82 152l39 100l29 10l-7 47l35 90l37 93l51 116l-4 17l70 188l-31 64l-14 32l-11 17l-22 61v-2l-90 201l31 35l-45 2l-99 235l92 49l111 19l59 -205l-2 8l45 -102l17 -84l8 -21l25 -63l30 -88l6 24l52 131l20 68l53 141l19 11l-13 10l37 162l60 4h20l133 -60l-82 -168
l-32 -22l16 -35l-74 -176v2l-90 -205v4l-24 -65l32 -105l56 -155l55 -172l20 -27l70 -172l-27 -21l41 -2l13 -14l14 -98l-180 -56l-47 88v31l-49 131l2 19l-113 338l-57 -203l2 2l-39 -125v2l-60 -205l-32 -67l-74 12l-125 41z" />
    <glyph glyph-name="Y" unicode="Y" horiz-adv-x="819" 
d="M457 -6l-156 4l4 117l14 100l25 49l-20 27l-9 264l4 88l-20 98l-43 125l-80 203v-2l-29 70l-34 94l12 65l-39 17l-47 84l4 65l113 35l67 16l41 -110v-35l17 -49l43 -154l38 -80l17 -73l-6 -17l22 -32l23 -74l8 10l37 129l31 121l30 68l35 139l25 59l18 101l92 -27l43 -14
l64 -45l-58 -148l-47 -20l23 -19l-14 -29l-31 -63l-31 -90l-80 -234l-59 -165l2 -60l-6 -22l2 -60l-23 -61l25 -21l-8 -147l8 -35l-2 -88l14 -133z" />
    <glyph glyph-name="Z" unicode="Z" horiz-adv-x="739" 
d="M395 1497l180 8l70 2l17 -86l4 -96l-23 -2l-63 -160l2 8l-45 -159l-33 -127l-107 -267l2 5l-47 -177l-41 -47l21 -24l-49 -189l112 2l84 2l160 19l31 -31v-69l-17 -117l-100 12h-137l-72 2l-18 21l-117 -27h-115l-41 147l86 220v49l88 211l74 213l66 207l47 38l-37 19
l57 172l4 45h-73l-109 -6l-74 -8l-78 -4l-34 36l14 166l166 -2l8 -30l45 26z" />
    <glyph glyph-name="bracketleft" unicode="[" horiz-adv-x="499" 
d="M150 799l-9 237l11 168q0 12 -1 38.5t-1 41.5l32 33l-35 22q-4 149 -6 197l-6 53l19 51l92 2l114 -2l41 2h70l21 -45l-5 -106h-86l-90 8v-33l-2 -313l8 -66l-8 -280l8 -35l-6 -178l-2 -135v-137l-26 -27l26 -16l8 -76l-8 -211h35l55 8l80 4l17 -43l-2 -113l-240 7h-21
q-10 -2 -38 -2l-56 16l4 84l7 41l-9 160l11 170q0 14 -1 54t-1 64v357z" />
    <glyph glyph-name="backslash" unicode="\" horiz-adv-x="694" 
d="M258 776l-78 219l-47 144l25 28l-35 15l-103 264l11 20l-33 27l-16 43l174 53l32 -88l23 -76l82 -254l26 -75l87 -269l16 -39l51 -165v2l105 -326l-19 -25l27 -10l67 -174l9 -16l12 -25l28 -88l-122 -49l-54 -8l-30 86l-2 45l-41 121l-50 170v-2l-69 200z" />
    <glyph glyph-name="bracketright" unicode="]" horiz-adv-x="493" 
d="M346 692l8 -237l-10 -168l2 -80l-33 -33l35 -22l6 -197l6 -53l-18 -52l-92 -2l-115 2l-41 -2h-76l-20 46l6 106h90l90 -8v33l2 313l-8 65l8 281l-8 35l6 178l2 135v137l27 27l-27 16l-8 76l8 211h-34l-56 -8l-76 -4l-16 43l8 112l230 -6h20l39 2l55 -16l-4 -84l-6 -41
l8 -160l-10 -170l2 -118v-357z" />
    <glyph glyph-name="asciicircum" unicode="^" 
d="M145 -4l-10 4l-33 -4l-22 4v70l16 49l-12 65l10 365l-6 723l14 51l-14 18l-4 142l14 4l-10 29l401 -7l19 2h197l20 -4l98 9l29 -5l4 -69l-12 -47l6 -66l-12 -346l6 -743l-15 -52l23 -18l-2 -137l-2 -35l-90 -4l-398 8l-18 -2h-115l-24 4zM162 193l-6 -125l569 4h35l8 149
l2 244l12 248v102l-2 27l-2 178v10l-6 109l25 10l-25 35l2 123l2 135l-602 -2l-2 -113l-2 -14l-8 -246l-12 -248v-102l2 -27l2 -178v-10l6 -109l-25 -33l25 -12v-162z" />
    <glyph glyph-name="underscore" unicode="_" horiz-adv-x="1024" 
d="M156 -20l503 -5l48 -22l61 20l143 11l60 6l26 -27l-2 -143l-34 -23l-119 13l-406 -7l-65 23l-9 -23l-200 -2l-45 -2l-56 -4l-28 8l-6 68l12 113l35 4l28 -2z" />
    <glyph glyph-name="grave" unicode="`" horiz-adv-x="393" 
d="M180 1606l-80 73l-59 60l39 30l110 43l31 -28l80 -117l51 -63l-43 -31l-80 -23l-18 13z" />
    <glyph glyph-name="a" unicode="a" horiz-adv-x="870" 
d="M571 420l-4 16l-28 -4h-2l-41 -29l-138 -32l-18 -9l-41 -16l-23 -145l-18 -23l14 -57l-22 -137l-127 12l-72 45l55 250l21 129l23 22l-3 41l41 252l7 39l12 43v37l61 274l37 43l-22 31l14 82l18 86l21 129l168 8l35 -16l-2 -72l6 -16l8 -21l65 -313l-14 -37l25 -18
l98 -494v-28l51 -191l21 -129l-13 -16l31 -33l23 -88l-152 -49h-27l-34 18l-27 258l-8 57l16 21l-18 12zM383 889l-27 -199l2 2l-24 -133l-2 -14l133 41l57 14l-41 221l-8 107l-8 37l-31 217l-41 -250l-20 -10z" />
    <glyph glyph-name="b" unicode="b" horiz-adv-x="802" 
d="M471 92l-143 -121l-86 27l-113 20l16 279l-8 96v307l13 95l-9 219l-2 235l23 62l-21 20l-6 31l-4 117l172 49l270 -240l140 -110l8 -41l-14 -121l-121 -131l-103 -119l15 -12l30 -27l23 -20l215 -205l2 -43l-2 -94l-80 -82l-84 -60l-59 -73zM344 690l-18 12v-362l-19 -16
l21 -21l-2 -125l104 111l55 47l25 16l78 86l-74 92l-29 27l-49 51zM313 1004l4 -175l17 13l100 108l31 4l8 52l72 77h2l-64 58l-10 24l-16 2l-140 123l2 -180z" />
    <glyph glyph-name="c" unicode="c" horiz-adv-x="634" 
d="M66 606l-48 74l-2 131l134 225l73 72v49l51 82v8l115 189l2 16l72 84l153 -102l-57 -103l-57 -80l-35 -22l-10 -55l-123 -183l-68 -106l-39 -70l-26 -49l30 -59l21 -39l29 -29l18 -41l76 -117l94 -159l106 -140l48 -76l-107 -88l-70 -45l-69 109l-4 24l-156 242l16 37
l-94 88z" />
    <glyph glyph-name="d" unicode="d" horiz-adv-x="811" 
d="M477 195l-137 -218l-68 19l-133 18l4 138v-2l13 458l-13 80l-2 537l21 39l-21 26l-6 107l-2 76l88 26l109 33l127 -174l22 -68l72 -71l53 -95l156 -206l-2 4l37 -48l2 -149l-37 -61l-211 -324zM326 961l-31 -93l33 -96l-9 -405l-2 -111l2 4l91 146l36 18l-16 18l86 166
l68 113l37 59l-37 56l-9 49l-40 33l-203 325l-13 14z" />
    <glyph glyph-name="e" unicode="e" horiz-adv-x="741" 
d="M653 1313h-96l-49 16l-6 -2l-33 -6l-113 4h-18v-22l-4 -52v-202l-10 -62l-23 -37l21 -16l4 -80l75 -4l80 4l105 10l26 -51l-12 -61l-4 -84l-100 4l-129 4h-33l-8 -211l12 -59l-6 -19l2 -4l4 -199l18 -4l17 -4l164 2l51 17l102 -2l-4 -103l-8 -76l-47 -20l-135 2l-117 12
h-72l-16 -10l-154 2l-10 84l12 139l-2 23l2 94l25 53l-19 25v47l-2 110l9 17l-17 203l6 75v152l2 160l-2 104l23 35l-23 27l-10 145l96 12h117l29 -16l80 16l202 2l2 -80z" />
    <glyph glyph-name="f" unicode="f" horiz-adv-x="712" 
d="M147 586l5 223v47l4 16l-9 353v12l-12 37l4 100l-6 129l105 2l137 -4l53 -20l23 24l219 2v-104l-19 -92l-80 -2l-120 20l-72 -4l-29 -6h-14l-6 -74l-4 -100l-25 -15l31 -30l4 -254l119 4h28l131 8l13 -86l-6 -51l-17 -68h-69l-33 15l-10 -6l-160 4v-39l6 -86l-2 -172
l6 -90l8 -86l-4 -64l10 -29v-100l-82 -4l-145 14l10 242l29 88l-27 37z" />
    <glyph glyph-name="g" unicode="g" horiz-adv-x="768" 
d="M481 850l178 8l25 -61l-25 -146l7 -12l-11 -508l-18 -12l18 -29l2 -92l-194 -21l-27 54l-24 49l-72 108l-100 181l-2 2l-48 90l-61 84l-98 149l4 152l31 20l10 15l39 73l155 238l21 55l108 131l-4 23l97 133l77 -45l23 -16l53 -50l-47 -80l-72 -61l2 -29l-155 -219
l-80 -131l-47 -90l-27 -41l37 -59l121 -199l2 -63l33 4l69 -152l2 12l13 324l-4 16l-9 25z" />
    <glyph glyph-name="h" unicode="h" horiz-adv-x="960" 
d="M139 342l19 281l-15 231l9 201l-15 127l-6 135l6 41l-14 127l49 33l176 -23l-8 -147l-10 -125l-25 -39l23 -19l-9 -135l19 -199l4 3l86 30l33 -12l18 22l84 37l39 19l23 10l8 55l-6 187l-4 184l-11 82l31 59l76 -2l117 -4l-7 -102l-12 -117v2l-2 -78l-20 -26l18 -60
l-10 -192l6 -92l4 -41l4 -367l4 -262l15 -51l4 -113l-76 -4h-119l-27 72l15 229l20 18l-30 33l4 316l-6 28l2 37l-119 -26h-2l-160 -68l-10 -356l-2 -7l12 -108l6 -92l-2 -76l-84 -4l-129 12l6 137l33 39l-29 31z" />
    <glyph glyph-name="i" unicode="i" horiz-adv-x="495" 
d="M170 891l-14 51l-6 410l16 37l-19 10l-10 102l96 6l134 -8l-11 -149l-10 -52l-6 -268l-6 -104l8 -80l4 -51l-18 -43l22 -15v-567l4 -31l4 -39l-2 -75l-90 -29l-43 2l-94 2l29 182l24 41l-24 35v74v383l6 63z" />
    <glyph glyph-name="j" unicode="j" horiz-adv-x="571" 
d="M244 887l-13 102l-6 346l27 33l-37 21v114l195 4l26 -71l-24 -181l8 -571l-23 -16l17 -62l24 -352l-32 -57l-66 -58l-55 -8l2 -41l-152 -123l-112 84v107l90 37l90 59l30 43l-4 18l9 224v79l-2 29l-3 127z" />
    <glyph glyph-name="k" unicode="k" horiz-adv-x="856" 
d="M121 1495l149 21l78 -27l-20 -508l4 -98v-62l6 17l31 80l34 55l82 196l35 88l58 58l-9 51l64 150l125 -50l63 -49l-59 -108l-125 -207l-6 -10l6 -7l-148 -280l11 -17l121 -276l71 -158l70 -116l-10 -29l28 -6l60 -133l-148 -82l-51 2l-59 151l-109 244l10 27l-69 112l2 4
l-82 170v-336l8 -98l2 -100l2 -23l8 -39l-2 -104l-108 -4l-109 2l2 213l6 2l-2 8l35 82l-24 29l4 32v13l12 442l-18 111l-11 258l4 164z" />
    <glyph glyph-name="l" unicode="l" horiz-adv-x="679" 
d="M498 184l45 15l96 4l6 -43l-8 -129l-31 -39l-155 10l-29 -2h-88l-19 12l-90 -16l-92 4l-4 139l27 37l-19 51l15 338l-5 668l27 35l-33 10l-14 223h106l68 17l51 -48l-2 -133l-8 -69l-6 -230l-12 -225v-100l-23 -35l25 -27l4 -125l6 -141l-2 -2l8 -143v-60z" />
    <glyph glyph-name="m" unicode="m" horiz-adv-x="1009" 
d="M381 1329l115 -201l2 -2l34 54l66 118l31 11l-17 34l107 179l100 -19l55 -24l-14 -303l-24 -48l20 -28l16 -660l-10 -129l15 -112l4 -66l12 -129l-170 -8l-49 31l-6 88l14 135v219l25 37l-23 20l-8 95l14 446l-8 76l-18 -33l-35 -45v-21l-27 -49l-29 -73l-73 -15l-56 2
l-49 97l-8 16l-14 33l-43 84l-4 -138v-2l2 -2v-282l-15 -35l15 -291l4 -301v-88l-193 -4l-16 78l27 76l-19 49v41v53l12 563l33 35l-33 22l2 185l-6 100l-6 100l17 29l-3 10l-18 27l-2 20l-2 115l88 6l76 11z" />
    <glyph glyph-name="n" unicode="n" horiz-adv-x="954" 
d="M817 180l12 -114l-26 -70l-113 -2l-69 4l2 160l-2 194l2 197l6 10l-6 39l-2 213l-33 55l-29 31l-29 45l-59 72l-84 116l-53 74v-110l-29 -74l2 -4l25 -27l-4 -467l-11 -73l19 -78l-2 -213l6 -29l-4 -131l-121 -4l-88 16l14 164l-6 19v34l12 291l17 60l-19 40l9 426
l-9 117l-8 213v107l162 45l184 -254l52 -82l16 -8l67 -111v176l21 64l-21 28v164l119 2l84 -14l-4 -139l-20 -504l-17 -86l23 -68l14 -448v-66z" />
    <glyph glyph-name="o" unicode="o" horiz-adv-x="851" 
d="M424 1509l92 4l41 -112l105 -256l10 -55h20l56 -123l69 -152l-6 -113l-100 -202l-17 -21l-2 -33l-47 -98l-110 -262l-25 -66l-4 -22l-187 2l-2 68l-71 178l6 35h-23l-61 127l-74 174l-49 104l-4 129l16 10l111 269l37 26l-10 23l110 276l8 13l13 61l4 14h76zM428 260
l8 -22l66 215l24 24h-2l-2 37l101 246l-17 51l-24 70l-80 206l18 25l-37 23l-47 125l-12 38l-113 -297l-28 -8l14 -32l-68 -177l2 -24l27 -68l18 -59l-20 -25l41 -28l41 -84z" />
    <glyph glyph-name="p" unicode="p" horiz-adv-x="765" 
d="M612 788l-127 -139l-137 -155l-18 -21l4 -141l-33 -49l33 -29l12 -254l-102 -6l-119 12l22 293l19 63l-25 27l2 512l4 10v336l-10 84l-4 137l98 43l66 25l184 -190l8 -35l43 -15l213 -225l-4 -141l-63 -78zM332 928v-201l59 64l103 120l22 -6l21 51l32 48l-88 98l-14 28
l-18 13l-119 133l-2 -146l2 -98l-21 -63z" />
    <glyph glyph-name="q" unicode="q" horiz-adv-x="856" 
d="M408 1507l116 15l152 -371l61 -127h8l101 -223l-17 -103l-84 -163h-2l-20 -54l-45 -114l-39 -15h2l4 -47l-76 -190l-16 -33l-6 -21l-2 -10l24 -49l95 -188l22 -52l-154 -86l-63 25l-66 188l9 27l-31 35l-29 80l-135 284l4 43h2l-39 31l-90 205l-55 125l2 106l111 203
l51 31l-13 67l164 385zM319 561l121 -313l4 -8l207 514l-26 67l-35 84l-10 82l-37 23l-99 284l-106 -245l2 -27l-51 -88l-47 -152l24 -71z" />
    <glyph glyph-name="r" unicode="r" horiz-adv-x="837" 
d="M340 631l-12 12l2 -223l6 -205l6 -18l2 -170l-82 -33l-135 12l12 326l31 80l-18 26v80l-9 240l-4 106l17 41l-11 391l-8 177l162 65l326 -283l12 -51q1 -1 9.5 1t17.5 4.5t10 2.5l98 -90l-14 -123l-94 -114l-66 -78l-35 -43l-57 -78q7 -15 26 -45.5t25 -42.5v-35
q41 -46 43 -49l82 -139v-27l12 -6l29 -59v2l37 -78l67 -72l-2 -59l-166 -92l-49 79l-71 164l2 35l-25 12l-76 144l-18 47zM332 823l-4 -75l14 8l102 127q54 66 105 135l22 29l-41 51l-14 10l-188 186l-4 -157v-21l-17 -39l8 -37l4 -12l5 -22z" />
    <glyph glyph-name="s" unicode="s" horiz-adv-x="645" 
d="M293 365l133 204l-70 84l-41 19l-157 145l-99 96l-2 129l101 144l104 121l-4 22l53 72l41 26q2 4 -0.5 13.5t-1.5 11.5l49 82l62 -6l121 -96l-56 -82l-53 -54l-18 -36l-117 -138l-21 -28l-4 -15l-61 -82l39 -47l39 -55l32 -21l191 -178l55 -41l4 -159l-73 -121l-111 -135
l-82 -111q-5 -8 -11.5 -23.5t-8.5 -19.5l2 8l-23 -65l-55 -68l-168 105l31 75l39 35q33 48 53 80q6 10 17.5 29.5t17.5 29.5l57 27z" />
    <glyph glyph-name="t" unicode="t" horiz-adv-x="712" 
d="M496 1503l188 4l12 -86l-6 -96h-92l-20 6l-62 4h-63l-13 -86l9 -45l-5 -151q0 -70 2 -82q0 -8 1.5 -25t1.5 -24v-35l2 -158l-19 -123l-2 -2l25 -39v-385l16 -145l-59 -33l-58 -10l-108 16v158l30 129l-18 20l10 289l11 418l-13 96l8 131l-12 84l-45 6l-10 -10
q-21 -6 -33 -6l-125 -4l-24 24l6 168l198 -10l39 -16q6 0 22 7t25 7q31 -2 86 -2z" />
    <glyph glyph-name="u" unicode="u" horiz-adv-x="952" 
d="M162 356l-2 269l-15 223l2 145l17 43l-10 64l-13 330l27 75l184 -4l-2 -182l-6 -66l-20 -73l2 -37l20 -45l-14 -78l2 -70l2 -76l4 -153l-14 -242l14 -239l2 -31l23 -19l16 -2l68 25l167 72l9 133l6 260l-13 250v170l-8 258l4 145l103 2l94 -2l12 -100l-6 -111l-22 -12
l20 -23l-14 -133l-4 -112l-2 -29l-21 -35l21 -20l10 -60l-4 -454l12 -240l29 -160l-199 -32l-16 110l-4 14l-156 -79l-66 -35l-129 2l-122 106l-3 103l7 96l28 37z" />
    <glyph glyph-name="v" unicode="v" horiz-adv-x="880" 
d="M373 803l53 -293l23 -221l26 221l-2 -2l31 203l20 61l21 199l35 223l30 20l-2 15l-12 35l31 213l35 39l178 -31l-25 -113q-25 -92 -33 -127l-18 -69q-9 -28 -12 -58l-47 -344l-27 -51v-2l2 -2q0 -1 1 -6.5t1 -7.5v-13l-68 -311l-28 -29l20 -43l-24 -143l-39 -172l-109 -4
l-82 -2l-35 90l-36 225l10 49l-25 13l-61 401v-6l-23 80l8 69l-24 35q-25 84 -33 123l-16 139l-76 260l92 41l119 9l33 -234l32 -149l-2 -9l11 -16z" />
    <glyph glyph-name="w" unicode="w" horiz-adv-x="1042" 
d="M719 403l14 394q2 50 8.5 161.5t8.5 161.5l10 21v76l-12 182l4 114l145 -4l61 -28l-24 -328l-16 -29l16 -18l-39 -588l-23 -33l21 -24l-4 -64l-21 -258q-2 -4 -2 -6v-133l-106 -4l-94 -2l-11 90q-8 32 -20.5 77.5t-16.5 61.5l11 58l-33 10l-68 284l-82 -278v-31l-63 -209
v-63l-84 -2h-12l-105 14v94l-6 64l-14 336l-8 188l8 39l-25 21l-16 466l-12 15l-17 272l103 8l-5 -2l68 13l64 -31l-27 -223l16 -113l6 -180v2l19 -580l106 490l80 12l94 -18l15 -43v-56l12 -22l74 -369z" />
    <glyph glyph-name="x" unicode="x" horiz-adv-x="849" 
d="M82 152l39 100l29 10l-7 47l35 90l37 93l51 116l-4 17l70 188l-31 64l-14 32l-11 17l-22 61v-2l-90 201l31 35l-45 2l-99 235l92 49l111 19l59 -205l-2 8l45 -102l17 -84l8 -21l25 -63l30 -88l6 24l52 131l20 68l53 141l19 11l-13 10l37 162l60 4h20l133 -60l-82 -168
l-32 -22l16 -35l-74 -176v2l-90 -205v4l-24 -65l32 -105l56 -155l55 -172l20 -27l70 -172l-27 -21l41 -2l13 -14l14 -98l-180 -56l-47 88v31l-49 131l2 19l-113 338l-57 -203l2 2l-39 -125v2l-60 -205l-32 -67l-74 12l-125 41z" />
    <glyph glyph-name="y" unicode="y" horiz-adv-x="819" 
d="M457 -6l-156 4l4 117l14 100l25 49l-20 27l-9 264l4 88l-20 98l-43 125l-80 203v-2l-29 70l-34 94l12 65l-39 17l-47 84l4 65l113 35l67 16l41 -110v-35l17 -49l43 -154l38 -80l17 -73l-6 -17l22 -32l23 -74l8 10l37 129l31 121l30 68l35 139l25 59l18 101l92 -27l43 -14
l64 -45l-58 -148l-47 -20l23 -19l-14 -29l-31 -63l-31 -90l-80 -234l-59 -165l2 -60l-6 -22l2 -60l-23 -61l25 -21l-8 -147l8 -35l-2 -88l14 -133z" />
    <glyph glyph-name="z" unicode="z" horiz-adv-x="739" 
d="M395 1497l180 8l70 2l17 -86l4 -96l-23 -2l-63 -160l2 8l-45 -159l-33 -127l-107 -267l2 5l-47 -177l-41 -47l21 -24l-49 -189l112 2l84 2l160 19l31 -31v-69l-17 -117l-100 12h-137l-72 2l-18 21l-117 -27h-115l-41 147l86 220v49l88 211l74 213l66 207l47 38l-37 19
l57 172l4 45h-73l-109 -6l-74 -8l-78 -4l-34 36l14 166l166 -2l8 -30l45 26z" />
    <glyph glyph-name="braceleft" unicode="{" horiz-adv-x="505" 
d="M195 930l-45 295l28 35l-33 4l-30 172l30 63l185 94l86 64l49 -17l49 -129l-149 -75l-60 -35v-37l51 -365l9 -26l8 -47l8 -60l-172 -104q14 -8 47.5 -30t48.5 -30l88 -57l-61 -291l-41 -47l28 -33l-16 -161v-17l199 -110l22 -43l-75 -127l-224 155l-94 35l-20 57l10 50
l10 53l70 422l-60 37l-123 71l2 135l95 46z" />
    <glyph glyph-name="bar" unicode="|" horiz-adv-x="475" 
d="M309 866l8 -108l7 -64v-739l16 -166l-78 -2h6l-63 -6l-64 29l-4 63l8 35q0 5 2.5 18.5t2.5 18.5l2 143l30 14l-32 17v600l32 18l-28 27l2 55l8 90l-6 199l-4 266l-11 51l-8 187l127 8l78 -16l-4 -127l-35 -29l33 -59l-8 -459z" />
    <glyph glyph-name="braceright" unicode="}" horiz-adv-x="509" 
d="M307 586l45 -340l-20 -23l24 -4l29 -190l-31 -60l-170 -96l-100 -76l-66 41l-28 117l137 57l72 49v15l2 26l-47 392l-21 84l-8 71l172 103l-98 59l-86 57l61 295l39 39l-25 62l17 145l-2 12l-185 88l-18 41l68 127l215 -131l94 -43l14 -61l-8 -41l-8 -51l-70 -420l57 -41
l125 -72l-2 -129l-102 -53z" />
    <glyph glyph-name="asciitilde" unicode="~" 
d="M145 -4l-10 4l-33 -4l-22 4v70l16 49l-12 65l10 365l-6 723l14 51l-14 18l-4 142l14 4l-10 29l401 -7l19 2h197l20 -4l98 9l29 -5l4 -69l-12 -47l6 -66l-12 -346l6 -743l-15 -52l23 -18l-2 -137l-2 -35l-90 -4l-398 8l-18 -2h-115l-24 4zM162 193l-6 -125l569 4h35l8 149
l2 244l12 248v102l-2 27l-2 178v10l-6 109l25 10l-25 35l2 123l2 135l-602 -2l-2 -113l-2 -14l-8 -246l-12 -248v-102l2 -27l2 -178v-10l6 -109l-25 -33l25 -12v-162z" />
    <glyph glyph-name="uni00A0" unicode="&#xa0;" horiz-adv-x="419" 
 />
    <glyph glyph-name="exclamdown" unicode="&#xa1;" horiz-adv-x="487" 
d="M317 590l19 -96l12 -330l-20 -25l24 -30l2 -60l11 -49l-66 -12l-199 8l11 98l26 15l-18 41l6 282l39 72l-29 37l10 209l9 215l67 24h88l13 -35l-3 -92zM86 1311v35l76 69l71 82l27 -4l27 -25l4 -28l20 -6l88 -82l-4 -39l-80 -74l-63 -74l-35 4l-35 52l-22 45h-29z" />
    <glyph glyph-name="cent" unicode="&#xa2;" horiz-adv-x="718" 
d="M668 948l-60 -63l-37 -25l-133 125l-22 19h-10l-70 -80l-64 -78l-41 -33l-24 -63l86 -99l-10 -37l45 -8l65 -84l35 -26l41 20l96 98l37 -41l70 -79l-41 -58l-96 -65l-31 -35v-203l18 -141h-73l-64 -8l-72 18v64l33 32l-24 25v117v92l-97 123l-211 231l2 133l97 86
l202 234v14l-6 180l21 25l-29 26l-8 125l133 4l76 -14l-8 -119l-7 -217l78 -76l129 -86z" />
    <glyph glyph-name="sterling" unicode="&#xa3;" horiz-adv-x="733" 
d="M133 854l49 -4h21q0 62 2 191.5t2 193.5l43 80l49 59h41l-10 33l96 98l115 4l129 -10l8 -131l-39 -70l-84 29l-80 -6l-90 -123l-6 -141l-8 -207q66 4 94 4l104 8l29 -51l-12 -119l-66 -12l-147 12l-2 -164v-8l6 -104l-31 -27l31 -8l10 -133v-49l131 -29l37 6l107 74
l26 -66l35 -94l-45 -39l-111 -53h-65l-8 22l-29 -18l-182 59h-72l-102 -86l-68 97l-33 65l68 60l82 45l43 -6v4l4 325q0 27 -1 64.5t-1 66.5h-19l-63 -6h-74l2 72l4 92h60h20z" />
    <glyph glyph-name="currency" unicode="&#xa4;" 
d="M145 -4l-10 4l-33 -4l-22 4v70l16 49l-12 65l10 365l-6 723l14 51l-14 18l-4 142l14 4l-10 29l401 -7l19 2h197l20 -4l98 9l29 -5l4 -69l-12 -47l6 -66l-12 -346l6 -743l-15 -52l23 -18l-2 -137l-2 -35l-90 -4l-398 8l-18 -2h-115l-24 4zM162 193l-6 -125l569 4h35l8 149
l2 244l12 248v102l-2 27l-2 178v10l-6 109l25 10l-25 35l2 123l2 135l-602 -2l-2 -113l-2 -14l-8 -246l-12 -248v-102l2 -27l2 -178v-10l6 -109l-25 -33l25 -12v-162z" />
    <glyph glyph-name="yen" unicode="&#xa5;" horiz-adv-x="823" 
d="M188 741l113 -6v6l-43 125l-80 203v-2l-28 70l-35 94l12 65l-39 17l-47 84l4 65l113 35l67 16l41 -110v-35l17 -49l43 -154l39 -80l16 -73l-6 -17l22 -32l23 -74l8 10l37 129l31 121l30 68l35 139l25 59l18 101l92 -27l43 -14l64 -45l-58 -148l-47 -20l23 -19l-14 -29
l-31 -63l-31 -90l-80 -234l-35 -98l17 2h61l49 14h86l-8 -131l-57 -26l-125 12l-31 21l-14 -15v-4l-6 -22l2 -60l-17 -45l86 6l160 8l6 -143l-61 -22l-178 16l-2 -49l8 -35l-2 -88l14 -133l-59 -41l-156 4l4 117l15 100l24 49l-20 27l-2 49l-84 2l-47 -12l-46 -2l-65 2
l10 80v8l6 65l80 2l43 -10h98l-2 80l2 45l-67 4l-47 -10l-55 -4l-58 4l2 65l-2 21l14 74l84 -13h-2z" />
    <glyph glyph-name="brokenbar" unicode="&#xa6;" horiz-adv-x="475" 
d="M262 670l68 -21l-11 -88l-6 -12l4 -6l-6 -115l-28 -22l30 -27l11 -430l12 -158l-72 -4h6l-65 -2l-72 25l4 63l8 35l5 37l2 143l6 14l-8 7l10 358l-6 94l-4 98zM154 1397v2v-2zM221 842l-67 28l8 91l4 147l-12 289l20 28l-31 27l-8 160l127 8l78 -14l-6 -150l-15 -352
l-6 -125l6 -59l-4 -62z" />
    <glyph glyph-name="section" unicode="&#xa7;" 
d="M145 -4l-10 4l-33 -4l-22 4v70l16 49l-12 65l10 365l-6 723l14 51l-14 18l-4 142l14 4l-10 29l401 -7l19 2h197l20 -4l98 9l29 -5l4 -69l-12 -47l6 -66l-12 -346l6 -743l-15 -52l23 -18l-2 -137l-2 -35l-90 -4l-398 8l-18 -2h-115l-24 4zM162 193l-6 -125l569 4h35l8 149
l2 244l12 248v102l-2 27l-2 178v10l-6 109l25 10l-25 35l2 123l2 135l-602 -2l-2 -113l-2 -14l-8 -246l-12 -248v-102l2 -27l2 -178v-10l6 -109l-25 -33l25 -12v-162z" />
    <glyph glyph-name="dieresis" unicode="&#xa8;" horiz-adv-x="544" 
d="M240 1708l22 -41l-61 -57l-41 -47l-27 8l-12 18l-37 27l-43 35l2 37l86 90l39 -2zM299 1645l-16 28l59 56v-5l47 56l37 -11l33 -34l45 -43l-4 -41l-88 -82l-47 4z" />
    <glyph glyph-name="copyright" unicode="&#xa9;" 
d="M145 -4l-10 4l-33 -4l-22 4v70l16 49l-12 65l10 365l-6 723l14 51l-14 18l-4 142l14 4l-10 29l401 -7l19 2h197l20 -4l98 9l29 -5l4 -69l-12 -47l6 -66l-12 -346l6 -743l-15 -52l23 -18l-2 -137l-2 -35l-90 -4l-398 8l-18 -2h-115l-24 4zM162 193l-6 -125l569 4h35l8 149
l2 244l12 248v102l-2 27l-2 178v10l-6 109l25 10l-25 35l2 123l2 135l-602 -2l-2 -113l-2 -14l-8 -246l-12 -248v-102l2 -27l2 -178v-10l6 -109l-25 -33l25 -12v-162z" />
    <glyph glyph-name="ordfeminine" unicode="&#xaa;" 
d="M145 -4l-10 4l-33 -4l-22 4v70l16 49l-12 65l10 365l-6 723l14 51l-14 18l-4 142l14 4l-10 29l401 -7l19 2h197l20 -4l98 9l29 -5l4 -69l-12 -47l6 -66l-12 -346l6 -743l-15 -52l23 -18l-2 -137l-2 -35l-90 -4l-398 8l-18 -2h-115l-24 4zM162 193l-6 -125l569 4h35l8 149
l2 244l12 248v102l-2 27l-2 178v10l-6 109l25 10l-25 35l2 123l2 135l-602 -2l-2 -113l-2 -14l-8 -246l-12 -248v-102l2 -27l2 -178v-10l6 -109l-25 -33l25 -12v-162z" />
    <glyph glyph-name="guillemotleft" unicode="&#xab;" horiz-adv-x="862" 
d="M127 870l41 48l80 92l80 94l86 -60l32 -57l-96 -94l-31 -25l-51 -53l-86 -94l88 -103l19 -14l94 -92l-2 -8l72 -45l-37 -80l-78 -55l-72 75l-16 58l-51 24l-45 60h-13l-110 102l-17 10l2 125l76 62l37 6zM494 870l41 48l79 92l80 94l86 -60l33 -57l-96 -94l-31 -25
l-51 -53l-86 -94l88 -103l18 -14l95 -92l-2 -8l71 -45l-37 -80l-77 -55l-72 75l-17 58l-51 24l-45 60h-12l-111 102l-16 10l2 125l76 62l37 6z" />
    <glyph glyph-name="logicalnot" unicode="&#xac;" horiz-adv-x="778" 
d="M147 829l136 -4l47 -22l61 20l178 8l131 7l35 -25l-2 -174l4 -170v-55l-47 -17l-129 4v88l29 52l-27 37l8 75l-106 6l-311 -8l-45 -2l-56 -4l-28 8l-7 68l13 113l35 4l28 -2z" />
    <glyph glyph-name="uni00AD" unicode="&#xad;" horiz-adv-x="528" 
d="M162 829l100 -6l144 21l59 6l27 -27l-3 -153l-34 -23l-119 12l-168 -8l-45 -2l-55 -4l-29 8l-6 68l16 117l35 4l29 -2z" />
    <glyph glyph-name="registered" unicode="&#xae;" 
d="M145 -4l-10 4l-33 -4l-22 4v70l16 49l-12 65l10 365l-6 723l14 51l-14 18l-4 142l14 4l-10 29l401 -7l19 2h197l20 -4l98 9l29 -5l4 -69l-12 -47l6 -66l-12 -346l6 -743l-15 -52l23 -18l-2 -137l-2 -35l-90 -4l-398 8l-18 -2h-115l-24 4zM162 193l-6 -125l569 4h35l8 149
l2 244l12 248v102l-2 27l-2 178v10l-6 109l25 10l-25 35l2 123l2 135l-602 -2l-2 -113l-2 -14l-8 -246l-12 -248v-102l2 -27l2 -178v-10l6 -109l-25 -33l25 -12v-162z" />
    <glyph glyph-name="degree" unicode="&#xb0;" horiz-adv-x="434" 
d="M8 1362l103 104l24 27l21 18l30 41h54l79 -75l3 -17l20 -16l82 -78l2 -47l-76 -84l-33 -10l11 -15l-88 -90h-45l-35 37l-43 49l-107 103v24zM168 1382l-12 -14l-33 -31l43 -43l-4 -22l18 8l39 -35l35 39l51 51v6l-35 37l-53 58z" />
    <glyph glyph-name="plusminus" unicode="&#xb1;" horiz-adv-x="778" 
d="M299 829l6 97l-8 12l-10 156l4 59l147 -2l39 -18l-16 -74l10 -33l-14 -141l-2 -54l65 -12l21 12l71 3l105 12l8 -19v-120l-10 -58l-53 8l-107 9l-76 8h-18l2 -182l10 -39l2 -52l-8 -41l-80 -10h-61l-54 10l9 46l8 63l6 35l2 31l8 63l-8 35v43h-31h-96l-82 -10l-55 2
l-8 43l6 135h88l43 -8l61 -9h76zM164 186l135 -4l47 -22l57 20l254 10l60 7l26 -27l-2 -143l-34 -23l-234 12l-303 -8l-45 -2l-55 -4l-29 8l-6 68l12 112l35 5l29 -2z" />
    <glyph glyph-name="twosuperior" unicode="&#xb2;" 
d="M145 -4l-10 4l-33 -4l-22 4v70l16 49l-12 65l10 365l-6 723l14 51l-14 18l-4 142l14 4l-10 29l401 -7l19 2h197l20 -4l98 9l29 -5l4 -69l-12 -47l6 -66l-12 -346l6 -743l-15 -52l23 -18l-2 -137l-2 -35l-90 -4l-398 8l-18 -2h-115l-24 4zM162 193l-6 -125l569 4h35l8 149
l2 244l12 248v102l-2 27l-2 178v10l-6 109l25 10l-25 35l2 123l2 135l-602 -2l-2 -113l-2 -14l-8 -246l-12 -248v-102l2 -27l2 -178v-10l6 -109l-25 -33l25 -12v-162z" />
    <glyph glyph-name="threesuperior" unicode="&#xb3;" 
d="M145 -4l-10 4l-33 -4l-22 4v70l16 49l-12 65l10 365l-6 723l14 51l-14 18l-4 142l14 4l-10 29l401 -7l19 2h197l20 -4l98 9l29 -5l4 -69l-12 -47l6 -66l-12 -346l6 -743l-15 -52l23 -18l-2 -137l-2 -35l-90 -4l-398 8l-18 -2h-115l-24 4zM162 193l-6 -125l569 4h35l8 149
l2 244l12 248v102l-2 27l-2 178v10l-6 109l25 10l-25 35l2 123l2 135l-602 -2l-2 -113l-2 -14l-8 -246l-12 -248v-102l2 -27l2 -178v-10l6 -109l-25 -33l25 -12v-162z" />
    <glyph glyph-name="acute" unicode="&#xb4;" horiz-adv-x="409" 
d="M309 1675l-78 -69l-30 -41l-27 -23l-96 25l-37 24l57 76l74 105l31 40l131 -43l35 -30z" />
    <glyph glyph-name="mu" unicode="&#xb5;" 
d="M145 -4l-10 4l-33 -4l-22 4v70l16 49l-12 65l10 365l-6 723l14 51l-14 18l-4 142l14 4l-10 29l401 -7l19 2h197l20 -4l98 9l29 -5l4 -69l-12 -47l6 -66l-12 -346l6 -743l-15 -52l23 -18l-2 -137l-2 -35l-90 -4l-398 8l-18 -2h-115l-24 4zM162 193l-6 -125l569 4h35l8 149
l2 244l12 248v102l-2 27l-2 178v10l-6 109l25 10l-25 35l2 123l2 135l-602 -2l-2 -113l-2 -14l-8 -246l-12 -248v-102l2 -27l2 -178v-10l6 -109l-25 -33l25 -12v-162z" />
    <glyph glyph-name="paragraph" unicode="&#xb6;" 
d="M145 -4l-10 4l-33 -4l-22 4v70l16 49l-12 65l10 365l-6 723l14 51l-14 18l-4 142l14 4l-10 29l401 -7l19 2h197l20 -4l98 9l29 -5l4 -69l-12 -47l6 -66l-12 -346l6 -743l-15 -52l23 -18l-2 -137l-2 -35l-90 -4l-398 8l-18 -2h-115l-24 4zM162 193l-6 -125l569 4h35l8 149
l2 244l12 248v102l-2 27l-2 178v10l-6 109l25 10l-25 35l2 123l2 135l-602 -2l-2 -113l-2 -14l-8 -246l-12 -248v-102l2 -27l2 -178v-10l6 -109l-25 -33l25 -12v-162z" />
    <glyph glyph-name="periodcentered" unicode="&#xb7;" horiz-adv-x="356" 
d="M334 772v-35l-76 -69l-72 -82l-26 4l-27 24l-4 29l-20 6l-89 82l5 39l79 74l64 74l35 -5l35 -51l22 -45h29z" />
    <glyph glyph-name="cedilla" unicode="&#xb8;" horiz-adv-x="325" 
d="M68 -307l-27 61l63 41l41 35h2l-38 35l-58 45l8 72l123 106l70 -55l-53 -60l-25 -24l62 -55l49 -46l-17 -59l-55 -47l-20 -23l-56 -55h-43z" />
    <glyph glyph-name="onesuperior" unicode="&#xb9;" 
d="M145 -4l-10 4l-33 -4l-22 4v70l16 49l-12 65l10 365l-6 723l14 51l-14 18l-4 142l14 4l-10 29l401 -7l19 2h197l20 -4l98 9l29 -5l4 -69l-12 -47l6 -66l-12 -346l6 -743l-15 -52l23 -18l-2 -137l-2 -35l-90 -4l-398 8l-18 -2h-115l-24 4zM162 193l-6 -125l569 4h35l8 149
l2 244l12 248v102l-2 27l-2 178v10l-6 109l25 10l-25 35l2 123l2 135l-602 -2l-2 -113l-2 -14l-8 -246l-12 -248v-102l2 -27l2 -178v-10l6 -109l-25 -33l25 -12v-162z" />
    <glyph glyph-name="ordmasculine" unicode="&#xba;" 
d="M145 -4l-10 4l-33 -4l-22 4v70l16 49l-12 65l10 365l-6 723l14 51l-14 18l-4 142l14 4l-10 29l401 -7l19 2h197l20 -4l98 9l29 -5l4 -69l-12 -47l6 -66l-12 -346l6 -743l-15 -52l23 -18l-2 -137l-2 -35l-90 -4l-398 8l-18 -2h-115l-24 4zM162 193l-6 -125l569 4h35l8 149
l2 244l12 248v102l-2 27l-2 178v10l-6 109l25 10l-25 35l2 123l2 135l-602 -2l-2 -113l-2 -14l-8 -246l-12 -248v-102l2 -27l2 -178v-10l6 -109l-25 -33l25 -12v-162z" />
    <glyph glyph-name="guillemotright" unicode="&#xbb;" horiz-adv-x="862" 
d="M723 891l-2 -25l37 -6l76 -61l2 -125l-17 -10l-110 -103h-13l-45 -59l-51 -25l-16 -57l-72 -76l-78 55l-37 80l72 45l-2 8l94 93l19 14l88 102l-86 95l-52 53l-30 24l-97 95l33 57l86 59l80 -94l80 -92zM356 891l-2 -25l37 -6l76 -61l2 -125l-16 -10l-111 -103h-12
l-45 -59l-52 -25l-16 -57l-72 -76l-77 55l-37 80l71 45l-2 8l95 93l18 14l88 102l-86 95l-51 53l-31 24l-96 95l33 57l86 59l80 -94l79 -92z" />
    <glyph glyph-name="onequarter" unicode="&#xbc;" 
d="M145 -4l-10 4l-33 -4l-22 4v70l16 49l-12 65l10 365l-6 723l14 51l-14 18l-4 142l14 4l-10 29l401 -7l19 2h197l20 -4l98 9l29 -5l4 -69l-12 -47l6 -66l-12 -346l6 -743l-15 -52l23 -18l-2 -137l-2 -35l-90 -4l-398 8l-18 -2h-115l-24 4zM162 193l-6 -125l569 4h35l8 149
l2 244l12 248v102l-2 27l-2 178v10l-6 109l25 10l-25 35l2 123l2 135l-602 -2l-2 -113l-2 -14l-8 -246l-12 -248v-102l2 -27l2 -178v-10l6 -109l-25 -33l25 -12v-162z" />
    <glyph glyph-name="onehalf" unicode="&#xbd;" 
d="M145 -4l-10 4l-33 -4l-22 4v70l16 49l-12 65l10 365l-6 723l14 51l-14 18l-4 142l14 4l-10 29l401 -7l19 2h197l20 -4l98 9l29 -5l4 -69l-12 -47l6 -66l-12 -346l6 -743l-15 -52l23 -18l-2 -137l-2 -35l-90 -4l-398 8l-18 -2h-115l-24 4zM162 193l-6 -125l569 4h35l8 149
l2 244l12 248v102l-2 27l-2 178v10l-6 109l25 10l-25 35l2 123l2 135l-602 -2l-2 -113l-2 -14l-8 -246l-12 -248v-102l2 -27l2 -178v-10l6 -109l-25 -33l25 -12v-162z" />
    <glyph glyph-name="threequarters" unicode="&#xbe;" 
d="M145 -4l-10 4l-33 -4l-22 4v70l16 49l-12 65l10 365l-6 723l14 51l-14 18l-4 142l14 4l-10 29l401 -7l19 2h197l20 -4l98 9l29 -5l4 -69l-12 -47l6 -66l-12 -346l6 -743l-15 -52l23 -18l-2 -137l-2 -35l-90 -4l-398 8l-18 -2h-115l-24 4zM162 193l-6 -125l569 4h35l8 149
l2 244l12 248v102l-2 27l-2 178v10l-6 109l25 10l-25 35l2 123l2 135l-602 -2l-2 -113l-2 -14l-8 -246l-12 -248v-102l2 -27l2 -178v-10l6 -109l-25 -33l25 -12v-162z" />
    <glyph glyph-name="questiondown" unicode="&#xbf;" horiz-adv-x="720" 
d="M276 705l3 6l-13 176l10 12l-10 21l-8 26l23 78l180 -8l4 -49l-16 -39l16 -72l-6 -78l8 -110l-47 -50l4 5l-25 -37l-37 -51l-59 -56l-35 -43l-20 -37l37 -57l-19 -25l68 -26l26 -43l43 -33l23 18l20 19l41 63l66 123l59 -12l64 -61l33 -76l-119 -111l-123 -131l-6 -8
l-41 -55l-133 18l-82 135l8 29l-45 18l-125 127l4 121l180 199zM205 1319v35l76 69l71 82l27 -4l27 -24l4 -29l20 -6l88 -82l-4 -39l-80 -74l-63 -73l-35 4l-35 51l-22 45h-29z" />
    <glyph glyph-name="Agrave" unicode="&#xc0;" horiz-adv-x="870" 
d="M571 420l-4 16l-28 -4h-2l-41 -29l-138 -32l-18 -9l-41 -16l-23 -145l-18 -23l14 -57l-22 -137l-127 12l-72 45l55 250l21 129l23 22l-3 41l41 252l7 39l12 43v37l61 274l37 43l-22 31l14 82l18 86l21 129l168 8l35 -16l-2 -72l6 -16l8 -21l65 -313l-14 -37l25 -18
l98 -494v-28l51 -191l21 -129l-13 -16l31 -33l23 -88l-152 -49h-27l-34 18l-27 258l-8 57l16 21l-18 12zM383 889l-27 -199l2 2l-24 -133l-2 -14l133 41l57 14l-41 221l-8 107l-8 37l-31 217l-41 -250l-20 -10zM377 1606l-80 73l-59 60l38 30l111 43l31 -28l80 -117l51 -63
l-43 -31l-80 -23l-18 13z" />
    <glyph glyph-name="Aacute" unicode="&#xc1;" horiz-adv-x="870" 
d="M571 420l-4 16l-28 -4h-2l-41 -29l-138 -32l-18 -9l-41 -16l-23 -145l-18 -23l14 -57l-22 -137l-127 12l-72 45l55 250l21 129l23 22l-3 41l41 252l7 39l12 43v37l61 274l37 43l-22 31l14 82l18 86l21 129l168 8l35 -16l-2 -72l6 -16l8 -21l65 -313l-14 -37l25 -18
l98 -494v-28l51 -191l21 -129l-13 -16l31 -33l23 -88l-152 -49h-27l-34 18l-27 258l-8 57l16 21l-18 12zM383 889l-27 -199l2 2l-24 -133l-2 -14l133 41l57 14l-41 221l-8 107l-8 37l-31 217l-41 -250l-20 -10zM604 1675l-78 -69l-30 -41l-27 -23l-96 25l-37 24l57 76
l74 105l31 40l131 -43l35 -30z" />
    <glyph glyph-name="Acircumflex" unicode="&#xc2;" horiz-adv-x="870" 
d="M571 420l-4 16l-28 -4h-2l-41 -29l-138 -32l-18 -9l-41 -16l-23 -145l-18 -23l14 -57l-22 -137l-127 12l-72 45l55 250l21 129l23 22l-3 41l41 252l7 39l12 43v37l61 274l37 43l-22 31l14 82l18 86l21 129l168 8l35 -16l-2 -72l6 -16l8 -21l65 -313l-14 -37l25 -18
l98 -494v-28l51 -191l21 -129l-13 -16l31 -33l23 -88l-152 -49h-27l-34 18l-27 258l-8 57l16 21l-18 12zM383 889l-27 -199l2 2l-24 -133l-2 -14l133 41l57 14l-41 221l-8 107l-8 37l-31 217l-41 -250l-20 -10zM631 1581l-76 -37l-49 58l2 8l-16 8l-66 61l-4 2l-12 -10
l-39 -51h2l-25 -59h-108l-27 63l154 145l49 48l67 -7l49 -55l62 -53l65 -45l5 -39z" />
    <glyph glyph-name="Atilde" unicode="&#xc3;" horiz-adv-x="870" 
d="M571 420l-4 16l-28 -4h-2l-41 -29l-138 -32l-18 -9l-41 -16l-23 -145l-18 -23l14 -57l-22 -137l-127 12l-72 45l55 250l21 129l23 22l-3 41l41 252l7 39l12 43v37l61 274l37 43l-22 31l14 82l18 86l21 129l168 8l35 -16l-2 -72l6 -16l8 -21l65 -313l-14 -37l25 -18
l98 -494v-28l51 -191l21 -129l-13 -16l31 -33l23 -88l-152 -49h-27l-34 18l-27 258l-8 57l16 21l-18 12zM383 889l-27 -199l2 2l-24 -133l-2 -14l133 41l57 14l-41 221l-8 107l-8 37l-31 217l-41 -250l-20 -10zM578 1583l-84 -8l-142 96q-16 0 -24 4l-25 -24l-6 -56h-92
l-21 50l95 110l36 39h82l127 -88q5 0 17 4l30 37l13 37h86l20 -39z" />
    <glyph glyph-name="Adieresis" unicode="&#xc4;" horiz-adv-x="870" 
d="M571 420l-4 16l-28 -4h-2l-41 -29l-138 -32l-18 -9l-41 -16l-23 -145l-18 -23l14 -57l-22 -137l-127 12l-72 45l55 250l21 129l23 22l-3 41l41 252l7 39l12 43v37l61 274l37 43l-22 31l14 82l18 86l21 129l168 8l35 -16l-2 -72l6 -16l8 -21l65 -313l-14 -37l25 -18
l98 -494v-28l51 -191l21 -129l-13 -16l31 -33l23 -88l-152 -49h-27l-34 18l-27 258l-8 57l16 21l-18 12zM383 889l-27 -199l2 2l-24 -133l-2 -14l133 41l57 14l-41 221l-8 107l-8 37l-31 217l-41 -250l-20 -10zM403 1708l23 -41l-61 -57l-41 -47l-27 8l-12 18l-37 27l-43 35
l2 37l86 90l39 -2zM463 1645l-17 28l60 56v-5l47 56l37 -11l33 -34l45 -43l-4 -41l-89 -82l-47 4z" />
    <glyph glyph-name="Aring" unicode="&#xc5;" horiz-adv-x="870" 
d="M571 420l-4 16l-28 -4h-2l-41 -29l-138 -32l-18 -9l-41 -16l-23 -145l-18 -23l14 -57l-22 -137l-127 12l-72 45l55 250l21 129l23 22l-3 41l41 252l7 39l12 43v37l61 274l37 43l-22 31l14 82l18 86l17 100l-2 3v-3l-99 99l-2 28l-2 35l99 82v-2l12 21l22 26l33 49h66
l73 -84l3 -8l16 -12l78 -76l2 -57l-92 -80l-9 -8l7 -64l6 -16l8 -21l65 -313l-14 -37l25 -18l98 -494v-28l51 -191l21 -129l-13 -16l31 -33l23 -88l-152 -49h-27l-34 18l-27 258l-8 57l16 21l-18 12zM383 889l-27 -199l2 2l-24 -133l-2 -14l133 41l57 14l-41 221l-8 107
l-8 37l-31 217l-41 -250l-20 -10zM385 1659l-6 -14l-33 -35l47 -58l45 -45l72 82l-37 45l-51 58l-19 -15z" />
    <glyph glyph-name="AE" unicode="&#xc6;" horiz-adv-x="1116" 
d="M1042 1319h-88l-55 27l-31 -15l-100 4h-20l-9 2v-41l-2 -53l4 -184l-16 -25h2l2 -51v-41l6 -102l39 -2h41l154 10l43 -8v-95l-13 -77l-102 4l-154 6l-12 -211l17 -49l-27 -41h14l8 -8l5 -189h-7l29 -6h23l145 2l57 14l78 -2l-6 -157l-33 -37l-137 2l-96 12h-78v-2l-21 -8
l-151 2l-14 74l8 80l12 39l-8 40l4 93l8 41v8l-2 12l-135 -20l-64 -11l-53 -8l-8 -2h8l-53 -158l-10 -30l-8 -76l-39 -105l-125 23l-74 47l102 252l35 119l41 28l-14 21l2 14l84 254l22 37l2 55l21 43l86 265l43 41l-21 6l29 94l29 86l41 139l80 -2l67 6h121l29 -6l73 6
l181 2l2 -77zM354 514l-2 -8l205 39v24l6 13l-14 215l6 77v287l-57 -229l-25 -29h2l2 -10v-8l-76 -205l-39 -131z" />
    <glyph glyph-name="Ccedilla" unicode="&#xc7;" horiz-adv-x="634" 
d="M66 606l-48 74l-2 131l134 225l73 72v49l51 82v8l115 189l2 16l72 84l153 -102l-57 -103l-57 -80l-35 -22l-10 -55l-123 -183l-68 -106l-39 -70l-26 -49l30 -59l21 -39l29 -29l18 -41l76 -117l94 -159l106 -140l48 -76l-107 -88l-70 -45l-24 -24l61 -55l49 -46l-16 -59
l-55 -47l-21 -23l-55 -55h-43l-27 29l-26 61l63 41l41 35h2l-39 35l-57 45l8 72l86 73l-16 27l-4 24l-156 242l16 37l-94 88z" />
    <glyph glyph-name="Egrave" unicode="&#xc8;" horiz-adv-x="741" 
d="M653 1313h-96l-49 16l-6 -2l-33 -6l-113 4h-18v-22l-4 -52v-202l-10 -62l-23 -37l21 -16l4 -80l75 -4l80 4l105 10l26 -51l-12 -61l-4 -84l-100 4l-129 4h-33l-8 -211l12 -59l-6 -19l2 -4l4 -199l18 -4l17 -4l164 2l51 17l102 -2l-4 -103l-8 -76l-47 -20l-135 2l-117 12
h-72l-16 -10l-154 2l-10 84l12 139l-2 23l2 94l25 53l-19 25v47l-2 110l9 17l-17 203l6 75v152l2 160l-2 104l23 35l-23 27l-10 145l96 12h117l29 -16l80 16l202 2l2 -80zM360 1606l-79 73l-60 60l39 30l111 43l30 -28l80 -117l51 -63l-43 -31l-79 -23l-19 13z" />
    <glyph glyph-name="Eacute" unicode="&#xc9;" horiz-adv-x="741" 
d="M653 1313h-96l-49 16l-6 -2l-33 -6l-113 4h-18v-22l-4 -52v-202l-10 -62l-23 -37l21 -16l4 -80l75 -4l80 4l105 10l26 -51l-12 -61l-4 -84l-100 4l-129 4h-33l-8 -211l12 -59l-6 -19l2 -4l4 -199l18 -4l17 -4l164 2l51 17l102 -2l-4 -103l-8 -76l-47 -20l-135 2l-117 12
h-72l-16 -10l-154 2l-10 84l12 139l-2 23l2 94l25 53l-19 25v47l-2 110l9 17l-17 203l6 75v152l2 160l-2 104l23 35l-23 27l-10 145l96 12h117l29 -16l80 16l202 2l2 -80zM588 1675l-78 -69l-31 -41l-26 -23l-97 25l-37 24l58 76l74 105l30 40l131 -43l35 -30z" />
    <glyph glyph-name="Ecircumflex" unicode="&#xca;" horiz-adv-x="741" 
d="M653 1313h-96l-49 16l-6 -2l-33 -6l-113 4h-18v-22l-4 -52v-202l-10 -62l-23 -37l21 -16l4 -80l75 -4l80 4l105 10l26 -51l-12 -61l-4 -84l-100 4l-129 4h-33l-8 -211l12 -59l-6 -19l2 -4l4 -199l18 -4l17 -4l164 2l51 17l102 -2l-4 -103l-8 -76l-47 -20l-135 2l-117 12
h-72l-16 -10l-154 2l-10 84l12 139l-2 23l2 94l25 53l-19 25v47l-2 110l9 17l-17 203l6 75v152l2 160l-2 104l23 35l-23 27l-10 145l96 12h117l29 -16l80 16l202 2l2 -80zM614 1581l-75 -37l-50 58l3 8l-17 8l-65 61l-4 2l-13 -10l-39 -51h2l-24 -59h-109l-26 63l153 145
l49 48l68 -7l49 -55l62 -53l65 -45l4 -39z" />
    <glyph glyph-name="Edieresis" unicode="&#xcb;" horiz-adv-x="741" 
d="M653 1313h-96l-49 16l-6 -2l-33 -6l-113 4h-18v-22l-4 -52v-202l-10 -62l-23 -37l21 -16l4 -80l75 -4l80 4l105 10l26 -51l-12 -61l-4 -84l-100 4l-129 4h-33l-8 -211l12 -59l-6 -19l2 -4l4 -199l18 -4l17 -4l164 2l51 17l102 -2l-4 -103l-8 -76l-47 -20l-135 2l-117 12
h-72l-16 -10l-154 2l-10 84l12 139l-2 23l2 94l25 53l-19 25v47l-2 110l9 17l-17 203l6 75v152l2 160l-2 104l23 35l-23 27l-10 145l96 12h117l29 -16l80 16l202 2l2 -80zM387 1708l23 -41l-62 -57l-41 -47l-26 8l-13 18l-37 27l-43 35l2 37l86 90l39 -2zM446 1645l-16 28
l59 56v-5l48 56l36 -11l33 -34l45 -43l-4 -41l-88 -82l-47 4z" />
    <glyph glyph-name="Igrave" unicode="&#xcc;" horiz-adv-x="495" 
d="M170 891l-14 51l-6 410l16 37l-19 10l-10 102l96 6l134 -8l-11 -149l-10 -52l-6 -268l-6 -104l8 -80l4 -51l-18 -43l22 -15v-567l4 -31l4 -39l-2 -75l-90 -29l-43 2l-94 2l29 182l24 41l-24 35v74v383l6 63zM201 1606l-80 73l-60 60l39 30l111 43l31 -28l80 -117l51 -63
l-43 -31l-80 -23l-19 13z" />
    <glyph glyph-name="Iacute" unicode="&#xcd;" horiz-adv-x="495" 
d="M170 891l-14 51l-6 410l16 37l-19 10l-10 102l96 6l134 -8l-11 -149l-10 -52l-6 -268l-6 -104l8 -80l4 -51l-18 -43l22 -15v-567l4 -31l4 -39l-2 -75l-90 -29l-43 2l-94 2l29 182l24 41l-24 35v74v383l6 63zM428 1675l-78 -69l-31 -41l-26 -23l-96 25l-37 24l57 76
l74 105l31 40l131 -43l34 -30z" />
    <glyph glyph-name="Icircumflex" unicode="&#xce;" horiz-adv-x="495" 
d="M170 891l-14 51l-6 410l16 37l-19 10l-10 102l96 6l134 -8l-11 -149l-10 -52l-6 -268l-6 -104l8 -80l4 -51l-18 -43l22 -15v-567l4 -31l4 -39l-2 -75l-90 -29l-43 2l-94 2l29 182l24 41l-24 35v74v383l6 63zM455 1581l-76 -37l-49 58l2 8l-17 8l-65 61l-4 2l-13 -10
l-38 -51h2l-25 -59h-109l-26 63l153 145l50 48l67 -7l49 -55l62 -53l65 -45l4 -39z" />
    <glyph glyph-name="Idieresis" unicode="&#xcf;" horiz-adv-x="495" 
d="M170 891l-14 51l-6 410l16 37l-19 10l-10 102l96 6l134 -8l-11 -149l-10 -52l-6 -268l-6 -104l8 -80l4 -51l-18 -43l22 -15v-567l4 -31l4 -39l-2 -75l-90 -29l-43 2l-94 2l29 182l24 41l-24 35v74v383l6 63zM227 1708l23 -41l-62 -57l-41 -47l-26 8l-12 18l-37 27l-43 35
l2 37l86 90l39 -2zM287 1645l-17 28l60 56v-5l47 56l37 -11l32 -34l46 -43l-5 -41l-88 -82l-47 4z" />
    <glyph glyph-name="Eth" unicode="&#xd0;" horiz-adv-x="811" 
d="M477 195l-137 -218l-68 19l-133 18l4 138v-2l13 458l-9 56h-47l-51 -5l-29 9l-2 65l17 105h35l28 -2l43 2v391l21 39l-21 26l-6 107l-2 76l88 26l109 33l127 -174l22 -68l72 -71l53 -99l156 -206l-2 4l37 -48l2 -149l-37 -61l-211 -324zM326 961l-31 -93l10 -30l84 2
l60 4l26 -27l-2 -131l-35 -22l-112 6l-7 -303l-2 -111l2 4l91 146l36 18l-16 18l86 166l68 113l37 59l-37 56l-9 49l-40 33l-203 329l-13 15z" />
    <glyph glyph-name="Ntilde" unicode="&#xd1;" horiz-adv-x="954" 
d="M817 180l12 -114l-26 -70l-113 -2l-69 4l2 160l-2 194l2 197l6 10l-6 39l-2 213l-33 55l-29 31l-29 45l-59 72l-84 116l-53 74v-110l-29 -74l2 -4l25 -27l-4 -467l-11 -73l19 -78l-2 -213l6 -29l-4 -131l-121 -4l-88 16l14 164l-6 19v34l12 291l17 60l-19 40l9 426
l-9 117l-8 213v107l162 45l184 -254l52 -82l16 -8l67 -111v176l21 64l-21 28v164l119 2l84 -14l-4 -139l-20 -504l-17 -86l23 -68l14 -448v-66zM631 1583l-84 -8l-141 96q-17 0 -25 4l-25 -24l-6 -56h-92l-20 50l94 110l37 39h82l127 -88q4 0 16 4l31 37l12 37h86l20 -39z
" />
    <glyph glyph-name="Ograve" unicode="&#xd2;" horiz-adv-x="851" 
d="M424 1509l92 4l41 -112l105 -256l10 -55h20l56 -123l69 -152l-6 -113l-100 -202l-17 -21l-2 -33l-47 -98l-110 -262l-25 -66l-4 -22l-187 2l-2 68l-71 178l6 35h-23l-61 127l-74 174l-49 104l-4 129l16 10l111 269l37 26l-10 23l110 276l8 13l13 61l4 14h76zM428 260
l8 -22l66 215l24 24h-2l-2 37l101 246l-17 51l-24 70l-80 206l18 25l-37 23l-47 125l-12 38l-113 -297l-28 -8l14 -32l-68 -177l2 -24l27 -68l18 -59l-20 -25l41 -28l41 -84zM371 1606l-80 73l-60 60l39 30l111 43l31 -28l80 -117l51 -63l-43 -31l-80 -23l-19 13z" />
    <glyph glyph-name="Oacute" unicode="&#xd3;" horiz-adv-x="851" 
d="M424 1509l92 4l41 -112l105 -256l10 -55h20l56 -123l69 -152l-6 -113l-100 -202l-17 -21l-2 -33l-47 -98l-110 -262l-25 -66l-4 -22l-187 2l-2 68l-71 178l6 35h-23l-61 127l-74 174l-49 104l-4 129l16 10l111 269l37 26l-10 23l110 276l8 13l13 61l4 14h76zM428 260
l8 -22l66 215l24 24h-2l-2 37l101 246l-17 51l-24 70l-80 206l18 25l-37 23l-47 125l-12 38l-113 -297l-28 -8l14 -32l-68 -177l2 -24l27 -68l18 -59l-20 -25l41 -28l41 -84zM598 1675l-78 -69l-31 -41l-26 -23l-96 25l-37 24l57 76l74 105l31 40l131 -43l34 -30z" />
    <glyph glyph-name="Ocircumflex" unicode="&#xd4;" horiz-adv-x="851" 
d="M424 1509l92 4l41 -112l105 -256l10 -55h20l56 -123l69 -152l-6 -113l-100 -202l-17 -21l-2 -33l-47 -98l-110 -262l-25 -66l-4 -22l-187 2l-2 68l-71 178l6 35h-23l-61 127l-74 174l-49 104l-4 129l16 10l111 269l37 26l-10 23l110 276l8 13l13 61l4 14h76zM428 260
l8 -22l66 215l24 24h-2l-2 37l101 246l-17 51l-24 70l-80 206l18 25l-37 23l-47 125l-12 38l-113 -297l-28 -8l14 -32l-68 -177l2 -24l27 -68l18 -59l-20 -25l41 -28l41 -84zM625 1581l-76 -37l-49 58l2 8l-17 8l-65 61l-4 2l-13 -10l-38 -51h2l-25 -59h-109l-26 63l153 145
l50 48l67 -7l49 -55l62 -53l65 -45l4 -39z" />
    <glyph glyph-name="Otilde" unicode="&#xd5;" horiz-adv-x="851" 
d="M424 1509l92 4l41 -112l105 -256l10 -55h20l56 -123l69 -152l-6 -113l-100 -202l-17 -21l-2 -33l-47 -98l-110 -262l-25 -66l-4 -22l-187 2l-2 68l-71 178l6 35h-23l-61 127l-74 174l-49 104l-4 129l16 10l111 269l37 26l-10 23l110 276l8 13l13 61l4 14h76zM428 260
l8 -22l66 215l24 24h-2l-2 37l101 246l-17 51l-24 70l-80 206l18 25l-37 23l-47 125l-12 38l-113 -297l-28 -8l14 -32l-68 -177l2 -24l27 -68l18 -59l-20 -25l41 -28l41 -84zM571 1583l-84 -8l-141 96q-16 0 -24 4l-25 -24l-6 -56h-92l-21 50l94 110l37 39h82l127 -88
q5 0 17 4l30 37l13 37h86l20 -39z" />
    <glyph glyph-name="Odieresis" unicode="&#xd6;" horiz-adv-x="851" 
d="M424 1509l92 4l41 -112l105 -256l10 -55h20l56 -123l69 -152l-6 -113l-100 -202l-17 -21l-2 -33l-47 -98l-110 -262l-25 -66l-4 -22l-187 2l-2 68l-71 178l6 35h-23l-61 127l-74 174l-49 104l-4 129l16 10l111 269l37 26l-10 23l110 276l8 13l13 61l4 14h76zM428 260
l8 -22l66 215l24 24h-2l-2 37l101 246l-17 51l-24 70l-80 206l18 25l-37 23l-47 125l-12 38l-113 -297l-28 -8l14 -32l-68 -177l2 -24l27 -68l18 -59l-20 -25l41 -28l41 -84zM397 1708l23 -41l-62 -57l-41 -47l-26 8l-12 18l-37 27l-43 35l2 37l86 90l39 -2zM457 1645
l-17 28l60 56v-5l47 56l37 -11l32 -34l46 -43l-5 -41l-88 -82l-47 4z" />
    <glyph glyph-name="multiply" unicode="&#xd7;" horiz-adv-x="778" 
d="M236 678l59 67l-53 64l-47 41l-64 59l-90 70l20 53l101 86l100 -102l33 -43l-4 -25l31 -6l71 -88l96 113l-2 -2l43 49l60 98l51 -8l84 -84l-4 -62l-105 -84l-73 -79l-54 -50l154 -151v-31l43 -2l64 -53l-19 -45l-41 -45l-57 -47l-55 39l-33 61l-19 21l-139 143l-127 -146
l-20 -45l-21 -30l-63 -49l-62 51l2 -2l-41 28l-28 60l77 55l29 25l49 41z" />
    <glyph glyph-name="Oslash" unicode="&#xd8;" horiz-adv-x="851" 
d="M424 1511l92 5l41 -113l51 -127l8 18l25 54l35 73l92 -63l-10 -27l-23 -16l6 -12l-82 -154l3 -2l10 -55h20l56 -123l69 -152l-6 -112l-100 -203l-17 -21l-2 -32l-47 -99l-110 -262l-25 -65l-4 -23l-187 2l-2 68l-71 178l6 35h-16l-27 -45l-6 -31l-37 -78l-29 6l-65 53
l26 60l13 16l6 12l61 113l-10 21l-74 174l-49 104l-4 129l16 10l111 269l37 26l-10 23l110 276l8 13l13 61l4 14h76zM438 911l27 50l47 102l-76 199l-12 38l-113 -296l-28 -9l14 -32l-68 -177l2 -24l27 -68l18 -59l-20 -25l25 -18l12 22l55 105l14 24zM428 262l8 -22l66 215
l24 24h-2l-2 37l101 246l-17 51l-24 70l-25 59l-2 -8l-45 -96l-72 -133l-76 -160l-24 -49z" />
    <glyph glyph-name="Ugrave" unicode="&#xd9;" horiz-adv-x="952" 
d="M162 356l-2 269l-15 223l2 145l17 43l-10 64l-13 330l27 75l184 -4l-2 -182l-6 -66l-20 -73l2 -37l20 -45l-14 -78l2 -70l2 -76l4 -153l-14 -242l14 -239l2 -31l23 -19l16 -2l68 25l167 72l9 133l6 260l-13 250v170l-8 258l4 145l103 2l94 -2l12 -100l-6 -111l-22 -12
l20 -23l-14 -133l-4 -112l-2 -29l-21 -35l21 -20l10 -60l-4 -454l12 -240l29 -160l-199 -32l-16 110l-4 14l-156 -79l-66 -35l-129 2l-122 106l-3 103l7 96l28 37zM424 1606l-80 73l-59 60l39 30l110 43l31 -28l80 -117l51 -63l-43 -31l-80 -23l-18 13z" />
    <glyph glyph-name="Uacute" unicode="&#xda;" horiz-adv-x="952" 
d="M162 356l-2 269l-15 223l2 145l17 43l-10 64l-13 330l27 75l184 -4l-2 -182l-6 -66l-20 -73l2 -37l20 -45l-14 -78l2 -70l2 -76l4 -153l-14 -242l14 -239l2 -31l23 -19l16 -2l68 25l167 72l9 133l6 260l-13 250v170l-8 258l4 145l103 2l94 -2l12 -100l-6 -111l-22 -12
l20 -23l-14 -133l-4 -112l-2 -29l-21 -35l21 -20l10 -60l-4 -454l12 -240l29 -160l-199 -32l-16 110l-4 14l-156 -79l-66 -35l-129 2l-122 106l-3 103l7 96l28 37zM651 1675l-78 -69l-30 -41l-27 -23l-96 25l-37 24l57 76l74 105l31 40l131 -43l35 -30z" />
    <glyph glyph-name="Ucircumflex" unicode="&#xdb;" horiz-adv-x="952" 
d="M162 356l-2 269l-15 223l2 145l17 43l-10 64l-13 330l27 75l184 -4l-2 -182l-6 -66l-20 -73l2 -37l20 -45l-14 -78l2 -70l2 -76l4 -153l-14 -242l14 -239l2 -31l23 -19l16 -2l68 25l167 72l9 133l6 260l-13 250v170l-8 258l4 145l103 2l94 -2l12 -100l-6 -111l-22 -12
l20 -23l-14 -133l-4 -112l-2 -29l-21 -35l21 -20l10 -60l-4 -454l12 -240l29 -160l-199 -32l-16 110l-4 14l-156 -79l-66 -35l-129 2l-122 106l-3 103l7 96l28 37zM678 1581l-76 -37l-49 58l2 8l-16 8l-66 61l-4 2l-12 -10l-39 -51h2l-25 -59h-108l-27 63l154 145l49 48
l67 -7l50 -55l61 -53l66 -45l4 -39z" />
    <glyph glyph-name="Udieresis" unicode="&#xdc;" horiz-adv-x="952" 
d="M162 356l-2 269l-15 223l2 145l17 43l-10 64l-13 330l27 75l184 -4l-2 -182l-6 -66l-20 -73l2 -37l20 -45l-14 -78l2 -70l2 -76l4 -153l-14 -242l14 -239l2 -31l23 -19l16 -2l68 25l167 72l9 133l6 260l-13 250v170l-8 258l4 145l103 2l94 -2l12 -100l-6 -111l-22 -12
l20 -23l-14 -133l-4 -112l-2 -29l-21 -35l21 -20l10 -60l-4 -454l12 -240l29 -160l-199 -32l-16 110l-4 14l-156 -79l-66 -35l-129 2l-122 106l-3 103l7 96l28 37zM451 1708l22 -41l-61 -57l-41 -47l-27 8l-12 18l-37 27l-43 35l2 37l86 90l39 -2zM510 1645l-16 28l59 56v-5
l47 56l37 -11l33 -34l45 -43l-4 -41l-88 -82l-48 4z" />
    <glyph glyph-name="Yacute" unicode="&#xdd;" horiz-adv-x="819" 
d="M457 -6l-156 4l4 117l14 100l25 49l-20 27l-9 264l4 88l-20 98l-43 125l-80 203v-2l-29 70l-34 94l12 65l-39 17l-47 84l4 65l113 35l67 16l41 -110v-35l17 -49l43 -154l38 -80l17 -73l-6 -17l22 -32l23 -74l8 10l37 129l31 121l30 68l35 139l25 59l18 101l92 -27l43 -14
l64 -45l-58 -148l-47 -20l23 -19l-14 -29l-31 -63l-31 -90l-80 -234l-59 -165l2 -60l-6 -22l2 -60l-23 -61l25 -21l-8 -147l8 -35l-2 -88l14 -133zM586 1675l-78 -69l-31 -41l-26 -23l-97 25l-37 24l58 76l74 105l30 40l131 -43l35 -30z" />
    <glyph glyph-name="Thorn" unicode="&#xde;" horiz-adv-x="743" 
d="M547 553l-139 -137l-103 -103l-12 -61l6 -55l2 -62l8 -141l-92 -4l-123 10l35 217l-4 197l2 252l31 4l-29 53l-8 299l-8 332l24 24l-26 31l-9 88l95 8l116 -10l-6 -139l-10 -51v-93l65 -61l111 -100l2 -27l55 -20l58 -43l151 -117l-2 -133l-49 -35l-65 -64zM299 547v-8
l27 16l57 55h25v25l61 61l70 68l-41 33l-37 43l-162 133l-6 -139z" />
    <glyph glyph-name="germandbls" unicode="&#xdf;" horiz-adv-x="864" 
d="M561 -37l-166 109l39 57l21 29l102 104l105 158l8 16l-23 19l-190 192l-64 53l4 93l103 137l26 -8l-16 51l102 135l-77 86l-41 49l-39 55l-4 -4l-39 -55l-109 -121l-2 -6l4 -27l6 -36l-10 -205l6 -113l4 -108l8 -271l-20 -6l29 -55l-2 -133l6 -135l-37 -23h-102l-82 14
l28 265l-4 49l-4 55l4 424l15 27l-19 34l6 101l-16 202l63 78l148 166v-2l2 4l57 92l133 -12l82 -117l49 -63l154 -148v-88l-162 -198h2l-78 -113l52 -53l34 -39l115 -98l94 -82l-2 -95l-65 -98l-115 -160l-45 7l14 -50z" />
    <glyph glyph-name="agrave" unicode="&#xe0;" horiz-adv-x="870" 
d="M571 420l-4 16l-28 -4h-2l-41 -29l-138 -32l-18 -9l-41 -16l-23 -145l-18 -23l14 -57l-22 -137l-127 12l-72 45l55 250l21 129l23 22l-3 41l41 252l7 39l12 43v37l61 274l37 43l-22 31l14 82l18 86l21 129l168 8l35 -16l-2 -72l6 -16l8 -21l65 -313l-14 -37l25 -18
l98 -494v-28l51 -191l21 -129l-13 -16l31 -33l23 -88l-152 -49h-27l-34 18l-27 258l-8 57l16 21l-18 12zM383 889l-27 -199l2 2l-24 -133l-2 -14l133 41l57 14l-41 221l-8 107l-8 37l-31 217l-41 -250l-20 -10zM377 1606l-80 73l-59 60l38 30l111 43l31 -28l80 -117l51 -63
l-43 -31l-80 -23l-18 13z" />
    <glyph glyph-name="aacute" unicode="&#xe1;" horiz-adv-x="870" 
d="M571 420l-4 16l-28 -4h-2l-41 -29l-138 -32l-18 -9l-41 -16l-23 -145l-18 -23l14 -57l-22 -137l-127 12l-72 45l55 250l21 129l23 22l-3 41l41 252l7 39l12 43v37l61 274l37 43l-22 31l14 82l18 86l21 129l168 8l35 -16l-2 -72l6 -16l8 -21l65 -313l-14 -37l25 -18
l98 -494v-28l51 -191l21 -129l-13 -16l31 -33l23 -88l-152 -49h-27l-34 18l-27 258l-8 57l16 21l-18 12zM383 889l-27 -199l2 2l-24 -133l-2 -14l133 41l57 14l-41 221l-8 107l-8 37l-31 217l-41 -250l-20 -10zM604 1675l-78 -69l-30 -41l-27 -23l-96 25l-37 24l57 76
l74 105l31 40l131 -43l35 -30z" />
    <glyph glyph-name="acircumflex" unicode="&#xe2;" horiz-adv-x="870" 
d="M571 420l-4 16l-28 -4h-2l-41 -29l-138 -32l-18 -9l-41 -16l-23 -145l-18 -23l14 -57l-22 -137l-127 12l-72 45l55 250l21 129l23 22l-3 41l41 252l7 39l12 43v37l61 274l37 43l-22 31l14 82l18 86l21 129l168 8l35 -16l-2 -72l6 -16l8 -21l65 -313l-14 -37l25 -18
l98 -494v-28l51 -191l21 -129l-13 -16l31 -33l23 -88l-152 -49h-27l-34 18l-27 258l-8 57l16 21l-18 12zM383 889l-27 -199l2 2l-24 -133l-2 -14l133 41l57 14l-41 221l-8 107l-8 37l-31 217l-41 -250l-20 -10zM631 1581l-76 -37l-49 58l2 8l-16 8l-66 61l-4 2l-12 -10
l-39 -51h2l-25 -59h-108l-27 63l154 145l49 48l67 -7l49 -55l62 -53l65 -45l5 -39z" />
    <glyph glyph-name="atilde" unicode="&#xe3;" horiz-adv-x="870" 
d="M571 420l-4 16l-28 -4h-2l-41 -29l-138 -32l-18 -9l-41 -16l-23 -145l-18 -23l14 -57l-22 -137l-127 12l-72 45l55 250l21 129l23 22l-3 41l41 252l7 39l12 43v37l61 274l37 43l-22 31l14 82l18 86l21 129l168 8l35 -16l-2 -72l6 -16l8 -21l65 -313l-14 -37l25 -18
l98 -494v-28l51 -191l21 -129l-13 -16l31 -33l23 -88l-152 -49h-27l-34 18l-27 258l-8 57l16 21l-18 12zM383 889l-27 -199l2 2l-24 -133l-2 -14l133 41l57 14l-41 221l-8 107l-8 37l-31 217l-41 -250l-20 -10zM578 1583l-84 -8l-142 96q-16 0 -24 4l-25 -24l-6 -56h-92
l-21 50l95 110l36 39h82l127 -88q5 0 17 4l30 37l13 37h86l20 -39z" />
    <glyph glyph-name="adieresis" unicode="&#xe4;" horiz-adv-x="870" 
d="M571 420l-4 16l-28 -4h-2l-41 -29l-138 -32l-18 -9l-41 -16l-23 -145l-18 -23l14 -57l-22 -137l-127 12l-72 45l55 250l21 129l23 22l-3 41l41 252l7 39l12 43v37l61 274l37 43l-22 31l14 82l18 86l21 129l168 8l35 -16l-2 -72l6 -16l8 -21l65 -313l-14 -37l25 -18
l98 -494v-28l51 -191l21 -129l-13 -16l31 -33l23 -88l-152 -49h-27l-34 18l-27 258l-8 57l16 21l-18 12zM383 889l-27 -199l2 2l-24 -133l-2 -14l133 41l57 14l-41 221l-8 107l-8 37l-31 217l-41 -250l-20 -10zM403 1708l23 -41l-61 -57l-41 -47l-27 8l-12 18l-37 27l-43 35
l2 37l86 90l39 -2zM463 1645l-17 28l60 56v-5l47 56l37 -11l33 -34l45 -43l-4 -41l-89 -82l-47 4z" />
    <glyph glyph-name="aring" unicode="&#xe5;" horiz-adv-x="870" 
d="M571 420l-4 16l-28 -4h-2l-41 -29l-138 -32l-18 -9l-41 -16l-23 -145l-18 -23l14 -57l-22 -137l-127 12l-72 45l55 250l21 129l23 22l-3 41l41 252l7 39l12 43v37l61 274l37 43l-22 31l14 82l18 86l17 100l-2 3v-3l-99 99l-2 28l-2 35l99 82v-2l12 21l22 26l33 49h66
l73 -84l3 -8l16 -12l78 -76l2 -57l-92 -80l-9 -8l7 -64l6 -16l8 -21l65 -313l-14 -37l25 -18l98 -494v-28l51 -191l21 -129l-13 -16l31 -33l23 -88l-152 -49h-27l-34 18l-27 258l-8 57l16 21l-18 12zM383 889l-27 -199l2 2l-24 -133l-2 -14l133 41l57 14l-41 221l-8 107
l-8 37l-31 217l-41 -250l-20 -10zM385 1659l-6 -14l-33 -35l47 -58l45 -45l72 82l-37 45l-51 58l-19 -15z" />
    <glyph glyph-name="ae" unicode="&#xe6;" horiz-adv-x="1116" 
d="M1042 1319h-88l-55 27l-31 -15l-100 4h-20l-9 2v-41l-2 -53l4 -184l-16 -25h2l2 -51v-41l6 -102l39 -2h41l154 10l43 -8v-95l-13 -77l-102 4l-154 6l-12 -211l17 -49l-27 -41h14l8 -8l5 -189h-7l29 -6h23l145 2l57 14l78 -2l-6 -157l-33 -37l-137 2l-96 12h-78v-2l-21 -8
l-151 2l-14 74l8 80l12 39l-8 40l4 93l8 41v8l-2 12l-135 -20l-64 -11l-53 -8l-8 -2h8l-53 -158l-10 -30l-8 -76l-39 -105l-125 23l-74 47l102 252l35 119l41 28l-14 21l2 14l84 254l22 37l2 55l21 43l86 265l43 41l-21 6l29 94l29 86l41 139l80 -2l67 6h121l29 -6l73 6
l181 2l2 -77zM354 514l-2 -8l205 39v24l6 13l-14 215l6 77v287l-57 -229l-25 -29h2l2 -10v-8l-76 -205l-39 -131z" />
    <glyph glyph-name="ccedilla" unicode="&#xe7;" horiz-adv-x="634" 
d="M66 606l-48 74l-2 131l134 225l73 72v49l51 82v8l115 189l2 16l72 84l153 -102l-57 -103l-57 -80l-35 -22l-10 -55l-123 -183l-68 -106l-39 -70l-26 -49l30 -59l21 -39l29 -29l18 -41l76 -117l94 -159l106 -140l48 -76l-107 -88l-70 -45l-24 -24l61 -55l49 -46l-16 -59
l-55 -47l-21 -23l-55 -55h-43l-27 29l-26 61l63 41l41 35h2l-39 35l-57 45l8 72l86 73l-16 27l-4 24l-156 242l16 37l-94 88z" />
    <glyph glyph-name="egrave" unicode="&#xe8;" horiz-adv-x="741" 
d="M653 1313h-96l-49 16l-6 -2l-33 -6l-113 4h-18v-22l-4 -52v-202l-10 -62l-23 -37l21 -16l4 -80l75 -4l80 4l105 10l26 -51l-12 -61l-4 -84l-100 4l-129 4h-33l-8 -211l12 -59l-6 -19l2 -4l4 -199l18 -4l17 -4l164 2l51 17l102 -2l-4 -103l-8 -76l-47 -20l-135 2l-117 12
h-72l-16 -10l-154 2l-10 84l12 139l-2 23l2 94l25 53l-19 25v47l-2 110l9 17l-17 203l6 75v152l2 160l-2 104l23 35l-23 27l-10 145l96 12h117l29 -16l80 16l202 2l2 -80zM360 1606l-79 73l-60 60l39 30l111 43l30 -28l80 -117l51 -63l-43 -31l-79 -23l-19 13z" />
    <glyph glyph-name="eacute" unicode="&#xe9;" horiz-adv-x="741" 
d="M653 1313h-96l-49 16l-6 -2l-33 -6l-113 4h-18v-22l-4 -52v-202l-10 -62l-23 -37l21 -16l4 -80l75 -4l80 4l105 10l26 -51l-12 -61l-4 -84l-100 4l-129 4h-33l-8 -211l12 -59l-6 -19l2 -4l4 -199l18 -4l17 -4l164 2l51 17l102 -2l-4 -103l-8 -76l-47 -20l-135 2l-117 12
h-72l-16 -10l-154 2l-10 84l12 139l-2 23l2 94l25 53l-19 25v47l-2 110l9 17l-17 203l6 75v152l2 160l-2 104l23 35l-23 27l-10 145l96 12h117l29 -16l80 16l202 2l2 -80zM588 1675l-78 -69l-31 -41l-26 -23l-97 25l-37 24l58 76l74 105l30 40l131 -43l35 -30z" />
    <glyph glyph-name="ecircumflex" unicode="&#xea;" horiz-adv-x="741" 
d="M653 1313h-96l-49 16l-6 -2l-33 -6l-113 4h-18v-22l-4 -52v-202l-10 -62l-23 -37l21 -16l4 -80l75 -4l80 4l105 10l26 -51l-12 -61l-4 -84l-100 4l-129 4h-33l-8 -211l12 -59l-6 -19l2 -4l4 -199l18 -4l17 -4l164 2l51 17l102 -2l-4 -103l-8 -76l-47 -20l-135 2l-117 12
h-72l-16 -10l-154 2l-10 84l12 139l-2 23l2 94l25 53l-19 25v47l-2 110l9 17l-17 203l6 75v152l2 160l-2 104l23 35l-23 27l-10 145l96 12h117l29 -16l80 16l202 2l2 -80zM614 1581l-75 -37l-50 58l3 8l-17 8l-65 61l-4 2l-13 -10l-39 -51h2l-24 -59h-109l-26 63l153 145
l49 48l68 -7l49 -55l62 -53l65 -45l4 -39z" />
    <glyph glyph-name="edieresis" unicode="&#xeb;" horiz-adv-x="741" 
d="M653 1313h-96l-49 16l-6 -2l-33 -6l-113 4h-18v-22l-4 -52v-202l-10 -62l-23 -37l21 -16l4 -80l75 -4l80 4l105 10l26 -51l-12 -61l-4 -84l-100 4l-129 4h-33l-8 -211l12 -59l-6 -19l2 -4l4 -199l18 -4l17 -4l164 2l51 17l102 -2l-4 -103l-8 -76l-47 -20l-135 2l-117 12
h-72l-16 -10l-154 2l-10 84l12 139l-2 23l2 94l25 53l-19 25v47l-2 110l9 17l-17 203l6 75v152l2 160l-2 104l23 35l-23 27l-10 145l96 12h117l29 -16l80 16l202 2l2 -80zM387 1708l23 -41l-62 -57l-41 -47l-26 8l-13 18l-37 27l-43 35l2 37l86 90l39 -2zM446 1645l-16 28
l59 56v-5l48 56l36 -11l33 -34l45 -43l-4 -41l-88 -82l-47 4z" />
    <glyph glyph-name="igrave" unicode="&#xec;" horiz-adv-x="495" 
d="M170 891l-14 51l-6 410l16 37l-19 10l-10 102l96 6l134 -8l-11 -149l-10 -52l-6 -268l-6 -104l8 -80l4 -51l-18 -43l22 -15v-567l4 -31l4 -39l-2 -75l-90 -29l-43 2l-94 2l29 182l24 41l-24 35v74v383l6 63zM231 1606l-79 73l-60 60l39 30l111 43l30 -28l80 -117l51 -63
l-43 -31l-79 -23l-19 13z" />
    <glyph glyph-name="iacute" unicode="&#xed;" horiz-adv-x="495" 
d="M170 891l-14 51l-6 410l16 37l-19 10l-10 102l96 6l134 -8l-11 -149l-10 -52l-6 -268l-6 -104l8 -80l4 -51l-18 -43l22 -15v-567l4 -31l4 -39l-2 -75l-90 -29l-43 2l-94 2l29 182l24 41l-24 35v74v383l6 63zM352 1675l-78 -69l-30 -41l-27 -23l-96 25l-37 24l57 76
l74 105l31 40l131 -43l35 -30z" />
    <glyph glyph-name="icircumflex" unicode="&#xee;" horiz-adv-x="495" 
d="M170 891l-14 51l-6 410l16 37l-19 10l-10 102l96 6l134 -8l-11 -149l-10 -52l-6 -268l-6 -104l8 -80l4 -51l-18 -43l22 -15v-567l4 -31l4 -39l-2 -75l-90 -29l-43 2l-94 2l29 182l24 41l-24 35v74v383l6 63zM440 1581l-75 -37l-50 58l2 8l-16 8l-65 61l-5 2l-12 -10
l-39 -51h2l-24 -59h-109l-26 63l153 145l49 48l68 -7l49 -55l61 -53l66 -45l4 -39z" />
    <glyph glyph-name="idieresis" unicode="&#xef;" horiz-adv-x="495" 
d="M170 891l-14 51l-6 410l16 37l-19 10l-10 102l96 6l134 -8l-11 -149l-10 -52l-6 -268l-6 -104l8 -80l4 -51l-18 -43l22 -15v-567l4 -31l4 -39l-2 -75l-90 -29l-43 2l-94 2l29 182l24 41l-24 35v74v383l6 63zM215 1708l23 -41l-62 -57l-41 -47l-26 8l-13 18l-37 27l-43 35
l2 37l86 90l39 -2zM274 1645l-16 28l59 56v-5l48 56l36 -11l33 -34l45 -43l-4 -41l-88 -82l-47 4z" />
    <glyph glyph-name="eth" unicode="&#xf0;" horiz-adv-x="811" 
d="M477 195l-137 -218l-68 19l-133 18l4 138v-2l13 458l-9 56h-47l-51 -5l-29 9l-2 65l17 105h35l28 -2l43 2v391l21 39l-21 26l-6 107l-2 76l88 26l109 33l127 -174l22 -68l72 -71l53 -99l156 -206l-2 4l37 -48l2 -149l-37 -61l-211 -324zM326 961l-31 -93l10 -30l84 2
l60 4l26 -27l-2 -131l-35 -22l-112 6l-7 -303l-2 -111l2 4l91 146l36 18l-16 18l86 166l68 113l37 59l-37 56l-9 49l-40 33l-203 329l-13 15z" />
    <glyph glyph-name="ntilde" unicode="&#xf1;" horiz-adv-x="954" 
d="M817 180l12 -114l-26 -70l-113 -2l-69 4l2 160l-2 194l2 197l6 10l-6 39l-2 213l-33 55l-29 31l-29 45l-59 72l-84 116l-53 74v-110l-29 -74l2 -4l25 -27l-4 -467l-11 -73l19 -78l-2 -213l6 -29l-4 -131l-121 -4l-88 16l14 164l-6 19v34l12 291l17 60l-19 40l9 426
l-9 117l-8 213v107l162 45l184 -254l52 -82l16 -8l67 -111v176l21 64l-21 28v164l119 2l84 -14l-4 -139l-20 -504l-17 -86l23 -68l14 -448v-66zM631 1583l-84 -8l-141 96q-17 0 -25 4l-25 -24l-6 -56h-92l-20 50l94 110l37 39h82l127 -88q4 0 16 4l31 37l12 37h86l20 -39z
" />
    <glyph glyph-name="ograve" unicode="&#xf2;" horiz-adv-x="851" 
d="M424 1509l92 4l41 -112l105 -256l10 -55h20l56 -123l69 -152l-6 -113l-100 -202l-17 -21l-2 -33l-47 -98l-110 -262l-25 -66l-4 -22l-187 2l-2 68l-71 178l6 35h-23l-61 127l-74 174l-49 104l-4 129l16 10l111 269l37 26l-10 23l110 276l8 13l13 61l4 14h76zM428 260
l8 -22l66 215l24 24h-2l-2 37l101 246l-17 51l-24 70l-80 206l18 25l-37 23l-47 125l-12 38l-113 -297l-28 -8l14 -32l-68 -177l2 -24l27 -68l18 -59l-20 -25l41 -28l41 -84zM371 1606l-80 73l-60 60l39 30l111 43l31 -28l80 -117l51 -63l-43 -31l-80 -23l-19 13z" />
    <glyph glyph-name="oacute" unicode="&#xf3;" horiz-adv-x="851" 
d="M424 1509l92 4l41 -112l105 -256l10 -55h20l56 -123l69 -152l-6 -113l-100 -202l-17 -21l-2 -33l-47 -98l-110 -262l-25 -66l-4 -22l-187 2l-2 68l-71 178l6 35h-23l-61 127l-74 174l-49 104l-4 129l16 10l111 269l37 26l-10 23l110 276l8 13l13 61l4 14h76zM428 260
l8 -22l66 215l24 24h-2l-2 37l101 246l-17 51l-24 70l-80 206l18 25l-37 23l-47 125l-12 38l-113 -297l-28 -8l14 -32l-68 -177l2 -24l27 -68l18 -59l-20 -25l41 -28l41 -84zM598 1675l-78 -69l-31 -41l-26 -23l-96 25l-37 24l57 76l74 105l31 40l131 -43l34 -30z" />
    <glyph glyph-name="ocircumflex" unicode="&#xf4;" horiz-adv-x="851" 
d="M424 1509l92 4l41 -112l105 -256l10 -55h20l56 -123l69 -152l-6 -113l-100 -202l-17 -21l-2 -33l-47 -98l-110 -262l-25 -66l-4 -22l-187 2l-2 68l-71 178l6 35h-23l-61 127l-74 174l-49 104l-4 129l16 10l111 269l37 26l-10 23l110 276l8 13l13 61l4 14h76zM428 260
l8 -22l66 215l24 24h-2l-2 37l101 246l-17 51l-24 70l-80 206l18 25l-37 23l-47 125l-12 38l-113 -297l-28 -8l14 -32l-68 -177l2 -24l27 -68l18 -59l-20 -25l41 -28l41 -84zM625 1581l-76 -37l-49 58l2 8l-17 8l-65 61l-4 2l-13 -10l-38 -51h2l-25 -59h-109l-26 63l153 145
l50 48l67 -7l49 -55l62 -53l65 -45l4 -39z" />
    <glyph glyph-name="otilde" unicode="&#xf5;" horiz-adv-x="851" 
d="M424 1509l92 4l41 -112l105 -256l10 -55h20l56 -123l69 -152l-6 -113l-100 -202l-17 -21l-2 -33l-47 -98l-110 -262l-25 -66l-4 -22l-187 2l-2 68l-71 178l6 35h-23l-61 127l-74 174l-49 104l-4 129l16 10l111 269l37 26l-10 23l110 276l8 13l13 61l4 14h76zM428 260
l8 -22l66 215l24 24h-2l-2 37l101 246l-17 51l-24 70l-80 206l18 25l-37 23l-47 125l-12 38l-113 -297l-28 -8l14 -32l-68 -177l2 -24l27 -68l18 -59l-20 -25l41 -28l41 -84zM571 1583l-84 -8l-141 96q-16 0 -24 4l-25 -24l-6 -56h-92l-21 50l94 110l37 39h82l127 -88
q5 0 17 4l30 37l13 37h86l20 -39z" />
    <glyph glyph-name="odieresis" unicode="&#xf6;" horiz-adv-x="851" 
d="M424 1509l92 4l41 -112l105 -256l10 -55h20l56 -123l69 -152l-6 -113l-100 -202l-17 -21l-2 -33l-47 -98l-110 -262l-25 -66l-4 -22l-187 2l-2 68l-71 178l6 35h-23l-61 127l-74 174l-49 104l-4 129l16 10l111 269l37 26l-10 23l110 276l8 13l13 61l4 14h76zM428 260
l8 -22l66 215l24 24h-2l-2 37l101 246l-17 51l-24 70l-80 206l18 25l-37 23l-47 125l-12 38l-113 -297l-28 -8l14 -32l-68 -177l2 -24l27 -68l18 -59l-20 -25l41 -28l41 -84zM397 1708l23 -41l-62 -57l-41 -47l-26 8l-12 18l-37 27l-43 35l2 37l86 90l39 -2zM457 1645
l-17 28l60 56v-5l47 56l37 -11l32 -34l46 -43l-5 -41l-88 -82l-47 4z" />
    <glyph glyph-name="divide" unicode="&#xf7;" horiz-adv-x="778" 
d="M518 1094l14 -37l-53 -68l-16 -22l-27 2l-22 -43l-54 18l-88 90l4 51l103 103l45 2zM512 479l18 -53l-112 -117l-53 6l-48 64l-47 35l4 47l103 104l57 -4zM164 829l135 -4l47 -22l57 20l254 11l60 6l26 -27l-2 -143l-34 -23l-234 12l-303 -8l-45 -2l-55 -4l-29 8l-6 68
l12 113l35 4l29 -2z" />
    <glyph glyph-name="oslash" unicode="&#xf8;" horiz-adv-x="851" 
d="M424 1511l92 5l41 -113l51 -127l8 18l25 54l35 73l92 -63l-10 -27l-23 -16l6 -12l-82 -154l3 -2l10 -55h20l56 -123l69 -152l-6 -112l-100 -203l-17 -21l-2 -32l-47 -99l-110 -262l-25 -65l-4 -23l-187 2l-2 68l-71 178l6 35h-16l-27 -45l-6 -31l-37 -78l-29 6l-65 53
l26 60l13 16l6 12l61 113l-10 21l-74 174l-49 104l-4 129l16 10l111 269l37 26l-10 23l110 276l8 13l13 61l4 14h76zM438 911l27 50l47 102l-76 199l-12 38l-113 -296l-28 -9l14 -32l-68 -177l2 -24l27 -68l18 -59l-20 -25l25 -18l12 22l55 105l14 24zM428 262l8 -22l66 215
l24 24h-2l-2 37l101 246l-17 51l-24 70l-25 59l-2 -8l-45 -96l-72 -133l-76 -160l-24 -49z" />
    <glyph glyph-name="ugrave" unicode="&#xf9;" horiz-adv-x="952" 
d="M162 356l-2 269l-15 223l2 145l17 43l-10 64l-13 330l27 75l184 -4l-2 -182l-6 -66l-20 -73l2 -37l20 -45l-14 -78l2 -70l2 -76l4 -153l-14 -242l14 -239l2 -31l23 -19l16 -2l68 25l167 72l9 133l6 260l-13 250v170l-8 258l4 145l103 2l94 -2l12 -100l-6 -111l-22 -12
l20 -23l-14 -133l-4 -112l-2 -29l-21 -35l21 -20l10 -60l-4 -454l12 -240l29 -160l-199 -32l-16 110l-4 14l-156 -79l-66 -35l-129 2l-122 106l-3 103l7 96l28 37zM424 1606l-80 73l-59 60l39 30l110 43l31 -28l80 -117l51 -63l-43 -31l-80 -23l-18 13z" />
    <glyph glyph-name="uacute" unicode="&#xfa;" horiz-adv-x="952" 
d="M162 356l-2 269l-15 223l2 145l17 43l-10 64l-13 330l27 75l184 -4l-2 -182l-6 -66l-20 -73l2 -37l20 -45l-14 -78l2 -70l2 -76l4 -153l-14 -242l14 -239l2 -31l23 -19l16 -2l68 25l167 72l9 133l6 260l-13 250v170l-8 258l4 145l103 2l94 -2l12 -100l-6 -111l-22 -12
l20 -23l-14 -133l-4 -112l-2 -29l-21 -35l21 -20l10 -60l-4 -454l12 -240l29 -160l-199 -32l-16 110l-4 14l-156 -79l-66 -35l-129 2l-122 106l-3 103l7 96l28 37zM651 1675l-78 -69l-30 -41l-27 -23l-96 25l-37 24l57 76l74 105l31 40l131 -43l35 -30z" />
    <glyph glyph-name="ucircumflex" unicode="&#xfb;" horiz-adv-x="952" 
d="M162 356l-2 269l-15 223l2 145l17 43l-10 64l-13 330l27 75l184 -4l-2 -182l-6 -66l-20 -73l2 -37l20 -45l-14 -78l2 -70l2 -76l4 -153l-14 -242l14 -239l2 -31l23 -19l16 -2l68 25l167 72l9 133l6 260l-13 250v170l-8 258l4 145l103 2l94 -2l12 -100l-6 -111l-22 -12
l20 -23l-14 -133l-4 -112l-2 -29l-21 -35l21 -20l10 -60l-4 -454l12 -240l29 -160l-199 -32l-16 110l-4 14l-156 -79l-66 -35l-129 2l-122 106l-3 103l7 96l28 37zM678 1581l-76 -37l-49 58l2 8l-16 8l-66 61l-4 2l-12 -10l-39 -51h2l-25 -59h-108l-27 63l154 145l49 48
l67 -7l50 -55l61 -53l66 -45l4 -39z" />
    <glyph glyph-name="udieresis" unicode="&#xfc;" horiz-adv-x="952" 
d="M162 356l-2 269l-15 223l2 145l17 43l-10 64l-13 330l27 75l184 -4l-2 -182l-6 -66l-20 -73l2 -37l20 -45l-14 -78l2 -70l2 -76l4 -153l-14 -242l14 -239l2 -31l23 -19l16 -2l68 25l167 72l9 133l6 260l-13 250v170l-8 258l4 145l103 2l94 -2l12 -100l-6 -111l-22 -12
l20 -23l-14 -133l-4 -112l-2 -29l-21 -35l21 -20l10 -60l-4 -454l12 -240l29 -160l-199 -32l-16 110l-4 14l-156 -79l-66 -35l-129 2l-122 106l-3 103l7 96l28 37zM451 1708l22 -41l-61 -57l-41 -47l-27 8l-12 18l-37 27l-43 35l2 37l86 90l39 -2zM510 1645l-16 28l59 56v-5
l47 56l37 -11l33 -34l45 -43l-4 -41l-88 -82l-48 4z" />
    <glyph glyph-name="yacute" unicode="&#xfd;" horiz-adv-x="819" 
d="M457 -6l-156 4l4 117l14 100l25 49l-20 27l-9 264l4 88l-20 98l-43 125l-80 203v-2l-29 70l-34 94l12 65l-39 17l-47 84l4 65l113 35l67 16l41 -110v-35l17 -49l43 -154l38 -80l17 -73l-6 -17l22 -32l23 -74l8 10l37 129l31 121l30 68l35 139l25 59l18 101l92 -27l43 -14
l64 -45l-58 -148l-47 -20l23 -19l-14 -29l-31 -63l-31 -90l-80 -234l-59 -165l2 -60l-6 -22l2 -60l-23 -61l25 -21l-8 -147l8 -35l-2 -88l14 -133zM586 1675l-78 -69l-31 -41l-26 -23l-97 25l-37 24l58 76l74 105l30 40l131 -43l35 -30z" />
    <glyph glyph-name="thorn" unicode="&#xfe;" horiz-adv-x="743" 
d="M547 553l-139 -137l-103 -103l-12 -61l6 -55l2 -62l8 -141l-92 -4l-123 10l35 217l-4 197l2 252l31 4l-29 53l-8 299l-8 332l24 24l-26 31l-9 88l95 8l116 -10l-6 -139l-10 -51v-93l65 -61l111 -100l2 -27l55 -20l58 -43l151 -117l-2 -133l-49 -35l-65 -64zM299 547v-8
l27 16l57 55h25v25l61 61l70 68l-41 33l-37 43l-162 133l-6 -139z" />
    <glyph glyph-name="ydieresis" unicode="&#xff;" horiz-adv-x="819" 
d="M457 -6l-156 4l4 117l14 100l25 49l-20 27l-9 264l4 88l-20 98l-43 125l-80 203v-2l-29 70l-34 94l12 65l-39 17l-47 84l4 65l113 35l67 16l41 -110v-35l17 -49l43 -154l38 -80l17 -73l-6 -17l22 -32l23 -74l8 10l37 129l31 121l30 68l35 139l25 59l18 101l92 -27l43 -14
l64 -45l-58 -148l-47 -20l23 -19l-14 -29l-31 -63l-31 -90l-80 -234l-59 -165l2 -60l-6 -22l2 -60l-23 -61l25 -21l-8 -147l8 -35l-2 -88l14 -133zM385 1708l23 -41l-62 -57l-41 -47l-26 8l-13 18l-37 27l-43 35l2 37l86 90l39 -2zM444 1645l-16 28l59 56v-5l48 56l36 -11
l33 -34l45 -43l-4 -41l-88 -82l-47 4z" />
    <glyph glyph-name="dotlessi" unicode="&#x131;" horiz-adv-x="495" 
d="M170 891l-14 51l-6 410l16 37l-19 10l-10 102l96 6l134 -8l-11 -149l-10 -52l-6 -268l-6 -104l8 -80l4 -51l-18 -43l22 -15v-567l4 -31l4 -39l-2 -75l-90 -29l-43 2l-94 2l29 182l24 41l-24 35v74v383l6 63z" />
    <glyph glyph-name="Lslash" unicode="&#x141;" horiz-adv-x="679" 
d="M498 184l45 15l96 4l6 -43l-8 -129l-31 -39l-155 10l-29 -2h-88l-19 12l-90 -16l-92 4l-4 139l27 37l-19 51l15 353v43l-19 -11l-59 -32l-35 -11l-27 52l-32 96l36 20l33 6l49 31l52 21l-3 438l27 35l-33 10l-14 223h106l68 17l51 -48l-2 -133l-8 -69l-6 -234l-10 -151
l110 51l56 35l45 -6l49 -129l-27 -39l-145 -47l-105 -46l-8 -12l25 -26l4 -121l6 -137l-2 -3l8 -163v-60z" />
    <glyph glyph-name="lslash" unicode="&#x142;" horiz-adv-x="679" 
d="M498 184l45 15l96 4l6 -43l-8 -129l-31 -39l-155 10l-29 -2h-88l-19 12l-90 -16l-92 4l-4 139l27 37l-19 51l15 353v43l-19 -11l-59 -32l-35 -11l-27 52l-32 96l36 20l33 6l49 31l52 21l-3 438l27 35l-33 10l-14 223h106l68 17l51 -48l-2 -133l-8 -69l-6 -234l-10 -151
l110 51l56 35l45 -6l49 -129l-27 -39l-145 -47l-105 -46l-8 -12l25 -26l4 -121l6 -137l-2 -3l8 -163v-60z" />
    <glyph glyph-name="OE" unicode="&#x152;" horiz-adv-x="1060" 
d="M1004 1368l-15 -49l-121 16l-30 -8l-140 4l-8 -2v-74l-4 -122l8 -48l-6 -237h37l31 -4l88 12l82 2l10 -39l-2 -63l-8 -74l-45 -8l-170 8h-29v-35l-2 -49v-244l8 -90l-4 -90l18 6h187l45 10l72 3l12 -89l-4 -36l-25 -72l-258 6l-72 4l-14 -10l-227 2l-23 49l2 -2l-39 68
l-41 94l21 41l-70 26l-55 91l-96 184l-49 61l-25 52v-3l-20 25l2 68l2 61l141 238l37 12l-6 29l12 43l22 16l195 354l59 2l166 -6l21 4l31 -2l129 4h75l76 4l16 -63zM395 436l99 -198v2v342l26 30l-22 27l-2 180l8 62l-4 311v76v4l-21 -37l-69 -113l-88 -166h2l-58 -118
l-22 -56l-15 -26l21 -35l96 -193z" />
    <glyph glyph-name="oe" unicode="&#x153;" horiz-adv-x="1060" 
d="M1004 1368l-15 -49l-121 16l-30 -8l-140 4l-8 -2v-74l-4 -122l8 -48l-6 -237h37l31 -4l88 12l82 2l10 -39l-2 -63l-8 -74l-45 -8l-170 8h-29v-35l-2 -49v-244l8 -90l-4 -90l18 6h187l45 10l72 3l12 -89l-4 -36l-25 -72l-258 6l-72 4l-14 -10l-227 2l-23 49l2 -2l-39 68
l-41 94l21 41l-70 26l-55 91l-96 184l-49 61l-25 52v-3l-20 25l2 68l2 61l141 238l37 12l-6 29l12 43l22 16l195 354l59 2l166 -6l21 4l31 -2l129 4h75l76 4l16 -63zM395 436l99 -198v2v342l26 30l-22 27l-2 180l8 62l-4 311v76v4l-21 -37l-69 -113l-88 -166h2l-58 -118
l-22 -56l-15 -26l21 -35l96 -193z" />
    <glyph glyph-name="Scaron" unicode="&#x160;" horiz-adv-x="645" 
d="M293 365l133 204l-70 84l-41 19l-157 145l-99 96l-2 129l101 144l104 121l-4 22l53 72l41 26q2 4 -0.5 13.5t-1.5 11.5l49 82l62 -6l121 -96l-56 -82l-53 -54l-18 -36l-117 -138l-21 -28l-4 -15l-61 -82l39 -47l39 -55l32 -21l191 -178l55 -41l4 -159l-73 -121l-111 -135
l-82 -111q-5 -8 -11.5 -23.5t-8.5 -19.5l2 8l-23 -65l-55 -68l-168 105l31 75l39 35q33 48 53 80q6 10 17.5 29.5t17.5 29.5l57 27zM221 1780l86 37l45 -66l72 -70l6 -4l16 11l39 51l17 59h106l37 -61l-153 -148l-50 -53l-77 12l-50 54l-57 53h2l-67 45l-5 41z" />
    <glyph glyph-name="scaron" unicode="&#x161;" horiz-adv-x="645" 
d="M293 365l133 204l-70 84l-41 19l-157 145l-99 96l-2 129l101 144l104 121l-4 22l53 72l41 26q2 4 -0.5 13.5t-1.5 11.5l49 82l62 -6l121 -96l-56 -82l-53 -54l-18 -36l-117 -138l-21 -28l-4 -15l-61 -82l39 -47l39 -55l32 -21l191 -178l55 -41l4 -159l-73 -121l-111 -135
l-82 -111q-5 -8 -11.5 -23.5t-8.5 -19.5l2 8l-23 -65l-55 -68l-168 105l31 75l39 35q33 48 53 80q6 10 17.5 29.5t17.5 29.5l57 27zM221 1780l86 37l45 -66l72 -70l6 -4l16 11l39 51l17 59h106l37 -61l-153 -148l-50 -53l-77 12l-50 54l-57 53h2l-67 45l-5 41z" />
    <glyph glyph-name="Ydieresis" unicode="&#x178;" horiz-adv-x="819" 
d="M457 -6l-156 4l4 117l14 100l25 49l-20 27l-9 264l4 88l-20 98l-43 125l-80 203v-2l-29 70l-34 94l12 65l-39 17l-47 84l4 65l113 35l67 16l41 -110v-35l17 -49l43 -154l38 -80l17 -73l-6 -17l22 -32l23 -74l8 10l37 129l31 121l30 68l35 139l25 59l18 101l92 -27l43 -14
l64 -45l-58 -148l-47 -20l23 -19l-14 -29l-31 -63l-31 -90l-80 -234l-59 -165l2 -60l-6 -22l2 -60l-23 -61l25 -21l-8 -147l8 -35l-2 -88l14 -133zM385 1708l23 -41l-62 -57l-41 -47l-26 8l-13 18l-37 27l-43 35l2 37l86 90l39 -2zM444 1645l-16 28l59 56v-5l48 56l36 -11
l33 -34l45 -43l-4 -41l-88 -82l-47 4z" />
    <glyph glyph-name="Zcaron" unicode="&#x17d;" horiz-adv-x="739" 
d="M395 1497l180 8l70 2l17 -86l4 -96l-23 -2l-63 -160l2 8l-45 -159l-33 -127l-107 -267l2 5l-47 -177l-41 -47l21 -24l-49 -189l112 2l84 2l160 19l31 -31v-69l-17 -117l-100 12h-137l-72 2l-18 21l-117 -27h-115l-41 147l86 220v49l88 211l74 213l66 207l47 38l-37 19
l57 172l4 45h-73l-109 -6l-74 -8l-78 -4l-34 36l14 166l166 -2l8 -30l45 26zM190 1780l86 37l46 -66l71 -70l6 -4l17 11l39 51l16 59h107l36 -61l-153 -148l-49 -53l-78 12l-49 54l-58 53h2l-67 45l-4 41z" />
    <glyph glyph-name="zcaron" unicode="&#x17e;" horiz-adv-x="739" 
d="M395 1497l180 8l70 2l17 -86l4 -96l-23 -2l-63 -160l2 8l-45 -159l-33 -127l-107 -267l2 5l-47 -177l-41 -47l21 -24l-49 -189l112 2l84 2l160 19l31 -31v-69l-17 -117l-100 12h-137l-72 2l-18 21l-117 -27h-115l-41 147l86 220v49l88 211l74 213l66 207l47 38l-37 19
l57 172l4 45h-73l-109 -6l-74 -8l-78 -4l-34 36l14 166l166 -2l8 -30l45 26zM190 1780l86 37l46 -66l71 -70l6 -4l17 11l39 51l16 59h107l36 -61l-153 -148l-49 -53l-78 12l-49 54l-58 53h2l-67 45l-4 41z" />
    <glyph glyph-name="florin" unicode="&#x192;" 
d="M145 -4l-10 4l-33 -4l-22 4v70l16 49l-12 65l10 365l-6 723l14 51l-14 18l-4 142l14 4l-10 29l401 -7l19 2h197l20 -4l98 9l29 -5l4 -69l-12 -47l6 -66l-12 -346l6 -743l-15 -52l23 -18l-2 -137l-2 -35l-90 -4l-398 8l-18 -2h-115l-24 4zM162 193l-6 -125l569 4h35l8 149
l2 244l12 248v102l-2 27l-2 178v10l-6 109l25 10l-25 35l2 123l2 135l-602 -2l-2 -113l-2 -14l-8 -246l-12 -248v-102l2 -27l2 -178v-10l6 -109l-25 -33l25 -12v-162z" />
    <glyph glyph-name="circumflex" unicode="&#x2c6;" horiz-adv-x="532" 
d="M459 1581l-76 -37l-49 58l2 8l-17 8l-65 61l-4 2l-12 -10l-39 -51h2l-25 -59h-108l-27 63l154 145l49 48l67 -7l49 -55l62 -53l65 -45l5 -39z" />
    <glyph glyph-name="caron" unicode="&#x2c7;" horiz-adv-x="538" 
d="M74 1780l86 37l45 -66l71 -70l7 -4l16 11l39 51l16 59h107l37 -61l-154 -148l-49 -53l-78 12l-49 54l-57 53h2l-68 45l-4 41z" />
    <glyph glyph-name="dotaccent" unicode="&#x2d9;" horiz-adv-x="325" 
d="M285 1702v-39l-109 -100l-37 2l-26 39v2h-2l-70 55l2 41l55 51l47 49l45 -2l33 -57l10 4h5z" />
    <glyph glyph-name="ring" unicode="&#x2da;" horiz-adv-x="485" 
d="M41 1688l98 81v-2l13 21l22 27l33 49h65l74 -84l2 -8l17 -13l77 -76l2 -57l-92 -80l-80 -96l-57 -8l-39 41l-33 45v-2l-98 98l-2 29zM199 1714l-6 -14l-33 -35l47 -57l45 -45l72 82l-37 45l-51 57l-19 -14z" />
    <glyph glyph-name="tilde" unicode="&#x2dc;" horiz-adv-x="587" 
d="M434 1583l-84 -8l-141 96q-17 0 -25 4l-24 -24l-6 -56h-93l-20 50l94 110l37 39h82l127 -88q4 0 16 4l31 37l12 37h86l21 -39z" />
    <glyph glyph-name="uni16A0" unicode="&#x16a0;" horiz-adv-x="985" 
d="M340 1462l-12 -116l-11 -54v-12l-2 -94v-53l-10 -58l64 27l34 26l25 27l-2 -2l31 51l35 103l2 43v137l53 20l137 -26l-20 -84l-19 -119l-72 -178l-28 -10l14 -25l-110 -111l-101 -51l-43 -14v-84l14 6l115 47l107 66l102 108l27 37l55 78l33 121l4 41l6 166l53 18
l144 -37l-23 -76l-18 -141l-78 -205l-39 -45v-12l-207 -221l-225 -111l-66 -20v-197l6 -115l4 -28v-95l11 -178l-148 -22l-67 18l12 195v-2l6 43v145l4 168v70l10 100l-10 119l6 469l-12 98l6 78l101 10l86 2z" />
    <glyph glyph-name="uni16A1" unicode="&#x16a1;" horiz-adv-x="1026" 
d="M328 1462l-6 -119l-9 -51v-12l2 -102v-54l-10 -71l84 10l100 82l39 51l41 111l2 36l-4 144l56 20l122 -26l-8 -84l-12 -119l-78 -178l-24 -23l4 -12l-158 -129l-121 -35l-43 -14v-90l14 6l115 33l150 88l102 96l33 49l59 78l35 121l-2 41v166l51 18l137 -37l-16 -76
l-18 -141l-78 -217l-39 -45v-12l-248 -224l-225 -104l-66 -23v-186l6 -115l4 -28v-95l11 -178l-148 -22l-67 18l12 195v-2l6 43v145l4 168v70l10 100l-10 119l6 469l-12 98l6 78l101 10l81 2zM557 1364v-35l-51 -53l-49 -51l-39 2l-37 43l-57 55l4 41l59 51l14 19l25 26
l47 -2l35 -47h2z" />
    <glyph glyph-name="uni16A2" unicode="&#x16a2;" horiz-adv-x="878" 
d="M311 1079l-16 -178v-219l12 -299l2 -41l-18 -33l24 -26v-93l9 -186l-148 -14l-67 18l14 195v-2l6 41v145l4 168v72l10 63l-10 137l4 482l-10 92l-4 96l119 8l63 2l90 -127l101 -151l157 -332l-2 -29l51 -53l74 -385l21 -272l-4 -25l22 -115l-168 -22l-51 16v269l-2 90
l-25 268l-63 152l-33 81l-41 93l4 30l-30 21l-99 168z" />
    <glyph glyph-name="uni16A3" unicode="&#x16a3;" horiz-adv-x="882" 
d="M311 1079l-16 -178v-219l8 -299l2 -41l-18 -33l24 -26v-93l8 -186l-143 -14l-67 18l14 195v-2l6 41v145l4 168v72l10 63l-10 137v482l-8 92l-4 96l119 8l65 2l90 -127l101 -151l157 -332l-2 -29l51 -53l74 -385l21 -272l-4 -25l22 -115l-164 -22l-51 16v269l-2 90
l-29 268l-63 152l-33 81l-41 93l4 30l-30 21l-99 168zM381 115v202l-8 168l8 54l145 -2l6 -35l-6 -244l-4 -133l13 -111l-35 -20l-103 2l-24 14z" />
    <glyph glyph-name="uni16A4" unicode="&#x16a4;" horiz-adv-x="878" 
d="M311 1079l-16 -178v-219l8 -299l2 -41l-18 -33l24 -26v-93l8 -186l-143 -14l-67 18l14 195v-2l6 41v145l4 168v72l10 63l-10 137v482l-8 92l-4 96l119 8l65 2l90 -127l101 -151l157 -332l-2 -29l51 -53l74 -385l21 -272l-4 -25l22 -115l-164 -22l-51 16v269l-2 90
l-29 268l-63 152l-33 81l-41 93l4 30l-30 21l-99 168zM567 459v-29l-61 -57l-57 -68l-23 4l-20 21l-5 22l-16 6l-72 66l4 33l64 59l51 59l29 -2l28 -43l19 -34h22z" />
    <glyph glyph-name="uni16A5" unicode="&#x16a5;" horiz-adv-x="923" 
d="M311 1079l-14 -100l135 -176l119 -246l16 -168l23 -88l10 -299l-117 -8l-69 22l4 328l-23 186q-7 21 -23.5 56.5t-19.5 42.5q-43 55 -57 76v-23l8 -299l2 -41l-18 -33l24 -26v-93l8 -186l-143 -14l-67 18l14 195v-2l6 41v145l4 168v72l10 63l-10 137v482l-8 92l-4 96
l119 8l65 2l90 -127l142 -151l163 -332l-2 -29l52 -53l100 -385l20 -272l-4 -25l23 -115l-160 -22l-51 16l-2 269l-4 90l-58 268l-61 152l-33 81l-47 93l4 30l-31 21l-139 168z" />
    <glyph glyph-name="uni16A6" unicode="&#x16a6;" horiz-adv-x="735" 
d="M537 553l-129 -137l-103 -103l-12 -61l6 -55l2 -62l8 -141l-92 -4l-123 10l35 217l-4 197l2 252l31 4l-29 53l-8 299l-8 332l24 24l-26 31l-9 88l95 8l116 -10l-6 -139l-10 -51v-93l65 -61l111 -100l2 -27l55 -20l58 -43l145 -117l-2 -133l-49 -35l4 2l-70 -66zM299 543
v-8l27 16l143 145l2 2l-2 -2l70 68l-41 33l-37 43l-162 133l-6 -139z" />
    <glyph glyph-name="uni16A7" unicode="&#x16a7;" horiz-adv-x="763" 
d="M557 553l-149 -137l-103 -103l-12 -61l6 -55l2 -62l8 -141l-92 -4l-123 10l35 217v197l2 252l31 4l-29 53l-8 299l-10 387l-13 88l95 8l116 -10l-6 -139l-10 -51v-93l65 -61l132 -100l2 -27l55 -20l57 -43l146 -117l-2 -133l-50 -35l5 2l-70 -66zM299 543v-8l27 16
l166 147l-3 -2l70 68l-41 33l-37 43l-182 133l-6 -139zM477 772v-20l-43 -41l-41 -47l-16 4l-15 12l-2 16l-12 4l-49 48l2 22l45 43l37 41l18 -2l21 -29l12 -26h17z" />
    <glyph glyph-name="uni16A8" unicode="&#x16a8;" horiz-adv-x="749" 
d="M141 791l25 65l-19 23v59l-6 236v51l17 59l-27 59l-8 146l80 20l51 21l106 -62l33 -12l23 -29l110 -45l41 -26l21 -45l33 16l96 -41l-19 -65l-6 -17l-22 -43l-21 -67l-96 55l-78 59l-43 25l-102 47l-4 -164l8 -49v-12l90 -64l102 -45l43 -14l119 -62l-43 -92l-45 -78
l-125 64l-135 88l-18 8v-51l2 -168l-5 -272l13 -107l4 -119l-19 -20l25 -25v-102l-63 -4l-148 8v199l16 143l-8 43v233z" />
    <glyph glyph-name="uni16A9" unicode="&#x16a9;" horiz-adv-x="747" 
d="M385 1180l-57 65v-127l4 -51l20 -20l101 -101l30 -24l47 65l62 113l90 -45l70 -51l-101 -127l-98 -148l-123 6l-82 86l-26 29l-3 -27l-2 -170l5 -278l10 -111l4 -123l-19 -18l21 -23l2 -104l-61 -4l-154 8v123l2 74l14 143l-6 43v289l2 135l25 61l-19 17v67l-4 234l4 51
l11 63q-18 61 -19 64l-6 127l94 16l58 23l45 -47l47 -60l10 -43l29 2l32 -34l35 -39l51 75l58 119l100 -41l68 -49l-94 -131l-99 -152l-129 -4z" />
    <glyph glyph-name="uni16AA" unicode="&#x16aa;" horiz-adv-x="759" 
d="M137 799l25 61l-21 17v65l-4 234l4 51l9 61l-15 64l-6 137l109 14l53 21l129 -127l37 -33l26 -21l43 56l64 114l96 -38l70 -50l-97 -131l-96 -139l-129 6l-47 58l-61 55l-2 -152l4 -43v-10l90 -55l67 -35l13 -37l26 19l47 -21l105 -61l-43 -91l-41 -73l-125 73l-123 80
l-22 9l-5 -56l-2 -174l4 -276l11 -111l10 -121l-29 -18l27 -21l2 -104l-61 -4l-152 8v121l2 74l12 141l-6 43v287z" />
    <glyph glyph-name="uni16AB" unicode="&#x16ab;" horiz-adv-x="735" 
d="M133 801l23 63l-21 19v65l-2 230l2 53l10 57l-20 60l-8 143l78 16l63 29l100 -70l31 -22l14 -19l113 -63l33 -23l63 -24l90 -47l-22 -82l-35 -37l-37 -53l-55 37l-94 69l-39 29l-105 57l-2 -166l6 -47v-14l89 -57l84 -41l14 -33l53 4l117 -66l-49 -92l-47 -71l-117 71
l-133 86l4 -2l-27 14l6 -47l-2 -141l2 -321l9 -107l10 -119l-21 -18l21 -21v-104l-62 -4l-149 8v121l4 74l10 141l-4 43v285z" />
    <glyph glyph-name="uni16AC" unicode="&#x16ac;" horiz-adv-x="708" 
d="M264 707l4 73l8 105l-120 41l-62 32l-39 19l-63 33l31 65l8 23l59 80l88 -58l80 -39l-4 320l-10 92l88 20l129 -24l-8 -143l-9 -43l-6 -261l-4 -55l96 -41l62 -24l57 -21l90 -47l-77 -145l-76 20l-109 64l-20 16l-15 4l2 -29l2 -34l3 -13v-110l256 -97l-56 -157l-86 -2
l-114 65v-272l4 -35l6 -35l-4 -76l-84 -22l-45 2l-88 2l26 174v350l-143 68l-49 10l-54 19l-49 47l37 61l10 19l31 63l78 -25l55 -41z" />
    <glyph glyph-name="uni16AD" unicode="&#x16ad;" horiz-adv-x="638" 
d="M166 686l-23 94l9 105l-19 196l-4 320l-10 92l88 20l129 -24l-8 -143l-9 -43l-6 -189l-4 -41l97 -55l98 -62l59 -28l90 -49l-78 -154l-77 43l-146 109l-20 16l-15 4l2 -29l5 -145l282 -176l-74 -160l-69 49l-141 99l2 -330l4 -35l6 -35l-4 -117l-84 -22l-45 2l-88 2
l26 174v350v146z" />
    <glyph glyph-name="uni16AE" unicode="&#x16ae;" horiz-adv-x="643" 
d="M492 780l-23 -94l27 -16v-146v-350l26 -174l-88 -2l-49 -6l-84 22v121l10 70l2 330l-141 -99l-70 -49l-73 160l282 176l4 145l2 29l-14 -4l-20 -16l-146 -109l-78 -43l-77 154l90 49l59 28l98 62l97 55l-4 41l-7 189l-8 43l-4 147l125 18l88 -20l-10 -90l-4 -320
l-19 -196z" />
    <glyph glyph-name="uni16AF" unicode="&#x16af;" horiz-adv-x="727" 
d="M451 780l4 -73l84 38l55 41l78 25l30 -63l11 -19l37 -61l-50 -47l-53 -19l-49 -10l-143 -68v-350l26 -174l-88 -2l-45 -2l-84 22l-4 76l6 35l4 35v272l-114 -65l-86 2l-56 157l256 97v110l2 13l2 34l2 29l-14 -4l-20 -16l-109 -64l-76 -20l-77 145l90 47l57 21l61 24
l97 41l-4 55l-7 261l-8 43l-8 143l129 24l88 -20l-10 -92l-4 -320l80 39l88 58l59 -80l8 -23l31 -65l-63 -33l-39 -19l-62 -32l-121 -41z" />
    <glyph glyph-name="uni16B0" unicode="&#x16b0;" horiz-adv-x="729" 
d="M451 780l4 -73v-183v-350l26 -174l-88 -2l-45 -2l-84 22l-4 76l6 35l4 35v272l-114 -76l-86 2l-56 158l256 107v110l2 13l2 34l2 29l-14 -4l-20 -16l-109 -68l-76 -20l-77 145l90 47l57 21l61 24l97 45l-4 55l-7 261l-8 43l-8 143l129 24l88 -20l-10 -92l-4 -320l80 39
l88 58l59 -80l8 -23l31 -65l-63 -33l-39 -19l-62 -32l-121 -41z" />
    <glyph glyph-name="uni16B1" unicode="&#x16b1;" horiz-adv-x="837" 
d="M340 631l-12 12l2 -223l6 -205l6 -18l2 -170l-82 -33l-135 12l12 326l31 80l-18 26v80l-9 240l-4 106l17 41l-11 391l-8 177l162 65l326 -283l12 -51q1 -1 9.5 1t17.5 4.5t10 2.5l98 -90l-14 -123l-94 -114l-66 -78l-35 -43l-57 -78q7 -15 26 -45.5t25 -42.5v-35
q41 -46 43 -49l82 -139v-27l12 -6l29 -59v2l37 -78l67 -72l-2 -59l-166 -92l-49 79l-71 164l2 35l-25 12l-76 144l-18 47zM332 823l-4 -75l14 8l102 127q54 66 105 135l22 29l-41 51l-14 10l-188 186l-4 -157v-21l-17 -39l8 -37l4 -12l5 -22z" />
    <glyph glyph-name="uni16B2" unicode="&#x16b2;" horiz-adv-x="530" 
d="M125 889l55 51l96 96l93 99l102 -62l37 -72l-105 -94l-45 -30l-61 -64l-92 -88l100 -102l17 -13l104 -90l82 -59l-49 -94l-88 -62l-82 86l-13 37v10l-63 31l-49 63h-8l-117 109l-39 21v112l92 86l37 -2z" />
    <glyph glyph-name="uni16B3" unicode="&#x16b3;" horiz-adv-x="636" 
d="M135 457l27 65l-23 23v59l-4 279v53l29 20l-25 54l-2 102l-6 295l-6 92l84 8l127 -2l-8 -149l-9 -47q0 -70 -1 -276t-1 -273l7 -311l96 -103h-2l112 -110l19 -54l22 17l99 -72l-58 -78l-71 -69l-97 102l-118 137l2 -76l-6 -24l8 -25v-94l-60 -4l-145 2v190z" />
    <glyph glyph-name="uni16B4" unicode="&#x16b4;" horiz-adv-x="854" 
d="M332 1489l-10 -139l-29 -54l22 -10l-2 -104v-92l-8 -154v-68l144 101l73 100l29 37l39 72q5 21 17.5 59t17.5 57q0 6 -2 21t-2 22l24 45l-24 41v72l61 12l137 -6l-6 -96l-14 -145l-68 -197l-47 -27q1 -3 9.5 -9t8.5 -7l-167 -215l-203 -103l-27 -6v-266l8 -115l4 -30v-95
l13 -184l-140 -12l-84 14l29 180l-12 15l6 41v315l-2 100l29 72l-25 10l-2 140l2 440l-12 98l6 86l106 -2l66 6z" />
    <glyph glyph-name="uni16B5" unicode="&#x16b5;" horiz-adv-x="876" 
d="M610 1343l-2 -40l-61 -60l-55 -59l-39 2l-41 49l-68 65v39l62 54l26 30l29 31l43 -2l45 -57l12 4zM332 1489l-10 -141l-39 -52l32 -10l-2 -104v-92l-8 -154v-68l144 101l90 100l28 37l39 72l35 116l-4 43l25 45l-25 41v72l61 12l138 -6l-7 -96l-14 -145l-65 -197l-48 -27
l19 -16l-186 -215l-203 -103l-27 -6v-266l8 -115l4 -30v-95l13 -184l-140 -12l-84 14l29 180l-12 15l6 41v315l-2 100l29 72l-25 10l-2 140l2 440l-12 98l6 86l106 -2l66 6z" />
    <glyph glyph-name="uni16B6" unicode="&#x16b6;" horiz-adv-x="897" 
d="M332 1489l-10 -139l-29 -54l22 -10l-2 -104v-92l-8 -134l27 -14l26 -39l91 66l73 100l29 37l39 72l35 116l-4 43l24 45l-24 41v72l61 12l137 -6l-6 -96l-14 -145l-68 -197l-47 -27l18 -16l-167 -215l-127 -76l-33 -72l-70 -47v-180l8 -115l4 -30v-95l13 -184l-140 -12
l-84 14l29 180l-12 15l6 41v315l-2 59l-64 39l-43 86l9 88l63 95l37 26l2 369l-12 98l6 86l106 -2l66 6z" />
    <glyph glyph-name="uni16B7" unicode="&#x16b7;" horiz-adv-x="849" 
d="M82 152l39 100l29 10l-7 47l35 90l37 93l51 116l-4 17l70 188l-31 64l-14 32l-11 17l-22 61v-2l-90 201l31 35l-45 2l-99 235l92 49l111 19l59 -205l-2 8l45 -102l17 -84l8 -21l25 -63l30 -88l6 24l52 131l20 68l53 141l19 11l-13 10l37 162l60 4h20l133 -60l-82 -168
l-32 -22l16 -35l-74 -176v2l-90 -205v4l-24 -65l32 -105l56 -155l55 -172l20 -27l70 -172l-27 -21l41 -2l13 -14l14 -98l-180 -56l-47 88v31l-49 131l2 19l-113 338l-57 -203l2 2l-39 -125v2l-60 -205l-32 -67l-74 12l-125 41z" />
    <glyph glyph-name="uni16B8" unicode="&#x16b8;" horiz-adv-x="839" 
d="M82 152l39 100l29 10l-7 47l35 90l37 93l14 34l-16 19l-41 55h-10l-111 113v-2l-22 22v92l77 80l29 21v12l49 47l45 51l-65 150l31 35l-45 2l-99 235l92 49l111 19l59 -205l-2 8l45 -102l17 -84l8 -21l27 -59l28 -70l6 6l54 127l20 68l51 141l19 11l-13 10l37 162l60 4
h20l133 -60l-82 -168l-32 -22l16 -35l-74 -176v2l-20 -45l31 -33l49 -47l-2 -12l32 -21l76 -80v-92l-24 -22v2l-111 -113l-10 -2l-39 -55l-8 -8l55 -170l20 -27l70 -172l-27 -21l41 -2l13 -14l14 -98l-180 -56l-47 88v31l-49 131l2 19l-113 327l-57 -192l2 2l-39 -125v2
l-60 -205l-32 -67l-74 12l-125 41zM205 782l86 -88l47 113l-39 67l-2 -4zM643 782q-9 9 -40 36t-44 40l-22 -61l28 -92z" />
    <glyph glyph-name="uni16B9" unicode="&#x16b9;" horiz-adv-x="765" 
d="M612 788l-127 -139l-137 -155l-18 -21l4 -141l-33 -49l33 -29l12 -254l-102 -6l-119 12l22 293l19 63l-25 27l2 512l4 10v336l-10 84l-4 137l98 43l66 25l184 -190l8 -35l43 -15l213 -225l-4 -141l-63 -78zM332 928v-201l59 64l103 120l22 -6l21 51l32 48l-88 98l-14 28
l-18 13l-119 133l-2 -146l2 -98l-21 -63z" />
    <glyph glyph-name="uni16BA" unicode="&#x16ba;" horiz-adv-x="960" 
d="M805 623l18 -281l-4 -129l-28 -31l32 -47l6 -129l-129 -12l-84 4l-2 76l7 92l12 108l-2 7l-10 356l-160 68h-2l-119 26l2 -37l-6 -28l4 -312l-31 -37l21 -18l14 -229l-27 -72h-118l-76 4l4 113l14 51l4 262l5 367l4 41l6 92l-10 184l18 68l-21 26l-2 78v-2l-12 117
l-6 102l117 4l75 2l31 -59l-10 -82l-4 -184l-6 -187l8 -55l22 -10l39 -19l84 -37l19 -22l33 12l86 -30l4 -3l18 199l-8 123l22 31l-24 39l-10 125l-9 147l177 23l49 -33l-15 -127l6 -41l-6 -135l-14 -127l8 -201z" />
    <glyph glyph-name="uni16BB" unicode="&#x16bb;" horiz-adv-x="976" 
d="M805 623l18 -281l-4 -129l-28 -31l32 -47l6 -129l-129 -12l-84 4l-2 76l7 92l12 108l-2 7l-10 159l-160 68h-2l-119 27l2 -37l-6 -29l4 -115l-31 -37l21 -18l14 -229l-27 -72h-118l-76 4l4 113l14 51l4 262l5 367l4 41l6 92l-10 184l18 68l-21 26l-2 78v-2l-12 117
l-6 102l117 4l75 2l31 -59l-10 -82l-4 -184l-4 -105l45 -14l117 -68l145 -55l4 90l-8 123l22 31l-24 39l-10 125l-9 147l177 23l49 -33l-15 -127l6 -41l-6 -135l-14 -127l8 -201zM473 846l-141 47l6 -152l22 -14l39 -18l84 -35l19 -23l33 13l86 -31l4 -2l6 137z" />
    <glyph glyph-name="uni16BC" unicode="&#x16bc;" horiz-adv-x="714" 
d="M10 971l70 92l190 -135l11 -6l-5 368l19 53l-29 21l-4 149l133 5l80 -17l-12 -90l-14 -319v-152l96 64l82 57l65 -76l8 -24h-2l35 -66l-67 -37l-48 -18l-51 -21l-45 -26l62 -33q17 -8 74.5 -40t80.5 -42l-30 -74l-66 -88l-111 68l-90 65l11 -221v-258l20 -170l-80 -2
l-47 -2l-86 14l-2 86l29 31l-17 39v299l6 194l-10 -6l-131 -100l-76 -31l-84 150l82 53l64 20l59 37l19 4l-215 109z" />
    <glyph glyph-name="uni16BD" unicode="&#x16bd;" horiz-adv-x="483" 
d="M426 821v-71l-78 -76l-16 -21l6 -487l-19 -37l29 -33l4 -88l-94 -12l-41 2l-78 2l17 176l2 281l18 30l-18 17v147l-107 92v72l88 74l19 16v53l-2 25l-13 399l33 39l-35 27l-8 59l90 4l127 -8l-8 -137l-10 -53l-4 -273v-100l2 -33l8 -8l27 -25z" />
    <glyph glyph-name="uni16BE" unicode="&#x16be;" horiz-adv-x="649" 
d="M154 993l2 -2l90 -61l-2 24l-6 412l-2 35l-13 96l90 16l125 -14l-4 -100l-22 -31l12 -51l-4 -277l-2 -104l4 -115l86 -49l67 -33l11 -22l20 8l80 -45l-68 -148l-49 -8l-75 60l-2 -2l-68 51l4 -459l10 -78l-4 -82l-86 -22l-41 6l-82 2l17 174v315l30 37l-30 4l4 183v20
l-8 2l-150 96l-55 19l-70 39l14 53l37 62l31 43l45 -3z" />
    <glyph glyph-name="uni16BF" unicode="&#x16bf;" horiz-adv-x="552" 
d="M152 754v196l-2 25l-7 391l-2 35l-12 96l90 16l125 -14l-4 -100l-23 -31l13 -51l-4 -256l-2 -105l4 -114l86 -49l67 -33l11 -23l20 8l80 -45l-68 -147l-49 -8l-76 59l-2 -2l-67 51l4 -479l10 -78l-4 -82l-86 -22l-41 6l-82 2l16 174v336l31 37l-31 4l5 182v21z" />
    <glyph glyph-name="uni16C0" unicode="&#x16c0;" horiz-adv-x="649" 
d="M154 993l2 -2l45 -30l41 28l-4 377l-2 35l-13 96l90 16l125 -14l-4 -100l-22 -31l12 -51l-4 -277l-2 -71l57 -27v-10h8l47 -107v-65l45 -21l11 -22l20 8l80 -45l-68 -148l-49 -8l-75 60l-2 -2l-46 32l-22 -10l4 -430l10 -78l-4 -82l-86 -22l-41 6l-82 2l17 174v315l30 37
l-30 4l2 74l-68 31l-70 108l9 70l-27 18l-55 19l-70 39l14 53l37 62l31 43l45 -3z" />
    <glyph glyph-name="uni16C1" unicode="&#x16c1;" horiz-adv-x="499" 
d="M172 891l-14 51l-6 410l16 37l-18 10l-11 102l97 6l133 -8l-11 -149l-10 -52l-6 -268l-6 -104l8 -80l4 -51l-18 -43l22 -15v-567l4 -31l4 -39l-2 -75l-90 -29l-43 2l-94 2l29 182l24 41l-24 35v74v383l6 63z" />
    <glyph glyph-name="uni16C2" unicode="&#x16c2;" horiz-adv-x="483" 
d="M426 821v-71l-78 -76l-16 -21l6 -487l-19 -37l29 -33l4 -88l-94 -12l-41 2l-78 2l17 176l2 281l18 30l-18 17v147l-107 92v72l88 74l19 16v53l-2 25l-13 399l33 39l-35 27l-8 59l90 4l127 -8l-8 -137l-10 -53l-4 -273v-100l2 -33l8 -8l27 -25z" />
    <glyph glyph-name="uni16C3" unicode="&#x16c3;" horiz-adv-x="862" 
d="M739 688l-69 -59v2l-72 -74l-41 -57l-59 -76l-76 59l-88 78l88 53l22 41l117 95l92 100l-94 90l-33 16l-84 72l-28 8l-64 41l-24 64l100 108l41 6l88 -84l4 -12l90 -88l64 -55l14 -6l31 -21l110 -84v-117l-47 -36l-69 -11l2 -30zM121 719l57 55l64 60l32 2l-8 34l15 25
l71 86l66 -55l102 -99l-86 -61l-143 -109l-90 -86l141 -125l70 -67l51 -21l86 -55l-127 -139l-47 2l-33 49l-139 127l-35 33l-14 10h-41l-29 43l-98 72l-2 39l2 82l53 24l45 45z" />
    <glyph glyph-name="uni16C4" unicode="&#x16c4;" horiz-adv-x="643" 
d="M518 950l57 -26l-2 -31h27l72 -57v-154l-140 -121l-32 6l-43 -61l-45 -27l-2 -203l-27 -38l33 -29l-2 -191l-84 -22l-41 2l-78 2l22 174v293v2h-2l2 -2l-73 51l-33 64l-23 -11l-114 95l-23 22v133l80 68l47 6l-10 23l47 32l92 74l-4 377l-12 92l88 18l125 -14l-6 -143
l-45 -45l37 -49l-7 -224zM229 672l2 51v102l-110 -73zM514 758l-111 71v-106v-43z" />
    <glyph glyph-name="uni16C5" unicode="&#x16c5;" horiz-adv-x="649" 
d="M154 993l2 -2l90 -61l-2 24l-6 412l-2 35l-13 96l90 16l125 -14l-4 -100l-22 -31l12 -51l-4 -277l-2 -104l4 -115l86 -49l67 -33l11 -22l20 8l80 -45l-68 -148l-49 -8l-75 60l-2 -2l-68 51l4 -459l10 -78l-4 -82l-86 -22l-41 6l-82 2l17 174v315l30 37l-30 4l4 183v20
l-8 2l-150 96l-55 19l-70 39l14 53l37 62l31 43l45 -3z" />
    <glyph glyph-name="uni16C6" unicode="&#x16c6;" horiz-adv-x="593" 
d="M426 950v-196v-21l4 -182l-31 -4l31 -37v-336l16 -174l-81 -2l-41 -6l-86 22l-5 82l11 78l4 479l-68 -51l-2 2l-76 -59l-49 8l-67 147l80 45l20 -8l10 23l68 33l86 49l4 114l-2 105l-4 256l12 51l-22 31l-5 100l125 14l91 -16l-13 -96l-2 -35l-6 -391z" />
    <glyph glyph-name="uni16C7" unicode="&#x16c7;" horiz-adv-x="700" 
d="M438 662l-10 -48l12 -18l11 -277l-13 -108l25 -184l-127 -64l-103 70q-4 1 -15 5t-15 5l-47 37l-25 47l-35 -8l-129 86l37 67l55 93l56 -33l106 -92l39 -29q4 106 4 158l-8 59l6 107l10 333l-18 25l-2 283l10 102q-10 29 -16 61l-10 138l65 18l55 35l111 -78l35 -8
l24 -31l84 -49l109 -68l-29 -67l-80 -99l-98 99l-74 47v-160l-10 -55l-25 -29l29 -33v-170z" />
    <glyph glyph-name="uni16C8" unicode="&#x16c8;" horiz-adv-x="718" 
d="M131 815l23 59l-19 17v65l-4 230l16 98l-22 64l-6 135l78 20l67 21l88 -78l76 -74l41 -37l51 74l84 115l137 -92l-39 -68l-69 -74l-45 -76l-45 -57l-123 2l-62 62l-41 36l-4 -135l-28 -41l34 -26l-4 -224l2 -163l-6 -308l2 -118l88 96h119l55 -64l50 -59l98 -74l10 -43
l-119 -123l-84 107l-77 78l-58 -54l-39 -40l-88 -91l-71 27l-76 14l2 76v47l6 156l25 35l-25 41v278z" />
    <glyph glyph-name="uni16C9" unicode="&#x16c9;" horiz-adv-x="835" 
d="M350 836l-31 55v76l-51 59l-92 102l-12 43l-25 7l-127 129l-43 47l131 131l43 -37l23 -43l24 -10l86 -115l52 -63l-9 204v-6l-6 84l84 19l123 -21l-10 -129l-6 -80v-88l67 92l52 25l-21 26l117 148l94 -49l57 -78l-329 -358l-37 -52v-20l-6 -60l12 -143v-518l-18 -37
l22 -24l8 -54l-2 -82l-84 -20l-57 2l-76 14l21 168v344l32 41l-32 23v117v108z" />
    <glyph glyph-name="uni16CA" unicode="&#x16ca;" horiz-adv-x="655" 
d="M190 1253l66 64l129 106l117 109l100 -86l31 -78l-125 -92l-68 -33v2l-86 -78l-108 -82l90 -69l55 -43l62 -43l102 -49l33 -7l2 -182l-70 -45l-69 -53l-86 -74l-115 -94l121 -104l18 -39l27 18l137 -104l90 -66l-59 -98l-95 -62l-118 127l-80 58l-47 55l-54 33l-102 82
l-37 22v156l84 69l47 -6l-6 35l80 64l45 36l94 62l-157 117l-27 6l-135 100l-31 17v141l92 78h53v30z" />
    <glyph glyph-name="uni16CB" unicode="&#x16cb;" horiz-adv-x="909" 
d="M471 893l158 170l153 -25l-4 -194l6 -320l-2 -112l2 -201l9 -53l8 -152l-142 -4l-84 16l17 91l33 55l-33 37l2 387l35 55l-33 41l2 100l-72 -57l-100 -82l-150 -153l-151 14l6 196l-4 418l-10 250l-8 133l137 6l86 -18l-17 -90l-2 -250l-32 -31l32 -24l-4 -336l86 67z
" />
    <glyph glyph-name="uni16CC" unicode="&#x16cc;" horiz-adv-x="425" 
d="M305 784l-117 -12l-79 23l4 98l4 8l6 92v164l-2 133l-8 51l-9 166l136 9l79 -17l-8 -151l-28 -21l24 -29l-4 -147q0 -40 1 -121.5t1 -120.5v-59v-66z" />
    <glyph glyph-name="uni16CD" unicode="&#x16cd;" horiz-adv-x="434" 
d="M383 815l2 -65l-78 -74l-65 -84l-62 4l-53 59v7l-92 90v59l84 76l4 18l6 53l16 19l-16 24v156l-2 133l-8 51l-8 166l135 9l80 -17l-9 -151l-28 -21l24 -29l-4 -147q0 -40 1 -119.5t1 -118.5v-36h4z" />
    <glyph glyph-name="uni16CE" unicode="&#x16ce;" horiz-adv-x="708" 
d="M674 973l-80 -68l-170 -190l-143 6l-134 149l-172 152l25 53l59 68l52 20l88 -119l12 -8l59 -61v18l-4 168l2 45l31 25l-27 51l-14 219l125 2l70 -8l-4 -160l-9 -116v-103l4 -112v-31l39 41l31 43l29 18v19l63 80l84 -78l45 -62l-33 -37z" />
    <glyph glyph-name="uni16CF" unicode="&#x16cf;" horiz-adv-x="765" 
d="M616 1327l80 -76l29 -24l37 -37l-45 -62l-84 -73l-68 84l2 30l-30 2l-31 43l-39 46v-35l-4 -109v-102l8 -117v-158l-4 -106l2 -416l-27 -31l33 -53l10 -113l-61 -28l-70 2l-90 14l4 154l15 157l22 31l-24 2l4 277l-4 178l14 143l27 54l-31 22l-6 45l8 164v18l-60 -61
l-10 -8l-102 -127l-51 16l-60 66l-16 61l176 156l131 153l145 7z" />
    <glyph glyph-name="uni16D0" unicode="&#x16d0;" horiz-adv-x="632" 
d="M479 1452l-12 -197v-30l-4 -109v-102l8 -117v-158l-4 -106l2 -416l-27 -31l33 -53l10 -113l-61 -28l-70 2l-90 14l4 154l15 157l22 31l-24 2l4 277l-4 178l14 143l27 54l-31 22l-6 45l8 160v18l-60 -57l-12 -8l-100 -127l-51 20l-60 68l-16 61l176 150l133 149l172 4z
" />
    <glyph glyph-name="uni16D1" unicode="&#x16d1;" horiz-adv-x="632" 
d="M571 766v-45l-98 -90l-6 -8l2 -406l-27 -31l33 -53l10 -113l-61 -28l-70 2l-90 14l4 154l15 157l22 31l-24 2l4 252l-2 2l-117 107l4 49l106 92l11 10l8 86l27 54l-31 22l-6 45l8 160v18l-60 -57l-12 -8l-100 -127l-51 20l-60 68l-16 61l176 150l133 149l172 4l4 -57
l-12 -197v-30l-4 -109v-102l8 -117v-43l4 -2l37 -31z" />
    <glyph glyph-name="uni16D2" unicode="&#x16d2;" horiz-adv-x="802" 
d="M471 92l-143 -121l-86 27l-113 20l16 279l-8 96v307l13 95l-9 219l-2 235l23 62l-21 20l-6 31l-4 117l172 49l270 -240l140 -110l8 -41l-14 -121l-121 -131l-103 -119l15 -12l30 -27l23 -20l215 -205l2 -43l-2 -94l-80 -82l-84 -60l-59 -73zM344 690l-18 12v-362l-19 -16
l21 -21l-2 -125l104 111l55 47l25 16l78 86l-74 92l-29 27l-49 51zM313 1004l4 -175l17 13l100 108l31 4l8 52l72 77h2l-64 58l-10 24l-16 2l-140 123l2 -180z" />
    <glyph glyph-name="uni16D3" unicode="&#x16d3;" horiz-adv-x="747" 
d="M164 627l-29 61l-2 162v276l35 41l-35 62l-10 98l-4 68l-2 98l151 12l60 -4l-2 -92v-141l-9 -27v-43l113 121l39 4l27 59l108 119l86 -71l41 -62l-123 -104l-43 -41l-147 -140l2 2l-107 -94v-10l-4 -25l6 -149l103 96l59 31l8 31l86 88l56 57l116 -141l-129 -109l-41 -37
l-159 -131l-25 -33l-70 -57l-2 -174l5 -100l20 -166l2 -150l-135 -22l-86 20l8 152l19 61l-5 51l-6 45l2 230l2 57z" />
    <glyph glyph-name="uni16D4" unicode="&#x16d4;" horiz-adv-x="802" 
d="M471 92l-143 -121l-86 27l-113 20l16 279l-8 96v307l13 95l-9 219l-2 233l23 62l-21 20l-6 31l-4 117l172 49l283 -238l149 -108l2 -41l4 -123l-131 -131l-127 -123l15 -12l53 -48l215 -200l2 -43l-2 -94l-80 -82l-84 -60l-59 -73zM436 604l-110 84v-348l-19 -16l21 -21
l-2 -125l104 111l55 47l25 16l78 86l-74 92l-29 23zM317 834v-17l129 133l48 4l8 52l76 77h2l-88 64l-11 24l-16 3l-148 116l2 -180l-6 -106zM518 461v-21l-47 -43l-43 -51l-18 2l-17 17l-2 16l-12 4l-55 51l2 25l51 45l39 45l20 -2l23 -33l14 -27h19zM514 1085v-20l-47 -43
l-43 -51l-18 2l-17 16l-2 17l-12 4l-56 51l3 24l51 45l39 46l20 -2l23 -33l14 -27h18z" />
    <glyph glyph-name="uni16D5" unicode="&#x16d5;" horiz-adv-x="856" 
d="M121 1495l149 21l78 -27l-20 -508l4 -98v-62l6 17l31 80l34 55l82 196l35 88l58 58l-9 51l64 150l125 -50l63 -49l-59 -108l-125 -207l-6 -10l6 -7l-148 -280l11 -17l121 -276l71 -158l70 -116l-10 -29l28 -6l60 -133l-148 -82l-51 2l-59 151l-109 244l10 27l-69 112l2 4
l-82 170v-336l8 -98l2 -100l2 -23l8 -39l-2 -104l-108 -4l-109 2l2 213l6 2l-2 8l35 82l-24 29l4 32v13l12 442l-18 111l-11 258l4 164z" />
    <glyph glyph-name="uni16D6" unicode="&#x16d6;" horiz-adv-x="1009" 
d="M381 1329l115 -201l2 -2l34 54l66 118l31 11l-17 34l107 179l100 -19l55 -24l-14 -303l-24 -48l20 -28l16 -660l-10 -129l15 -112l4 -66l12 -129l-170 -8l-49 31l-6 88l14 135v219l25 37l-23 20l-8 95l14 446l-8 76l-18 -33l-35 -45v-21l-27 -49l-29 -73l-73 -15l-56 2
l-49 97l-8 16l-14 33l-43 84l-4 -138v-2l2 -2v-282l-15 -35l15 -291l4 -301v-88l-193 -4l-16 78l27 76l-19 49v41v53l12 563l33 35l-33 22l2 185l-6 100l-6 100l17 29l-3 10l-18 27l-2 20l-2 115l88 6l76 11z" />
    <glyph glyph-name="uni16D7" unicode="&#x16d7;" horiz-adv-x="1007" 
d="M381 1346l115 -160l2 -2l34 53l66 74l31 10l-17 35l111 164l96 -17l55 -24l-14 -303l-24 -48l20 -28l16 -660l-10 -129l15 -112l4 -66l12 -129l-170 -8l-49 31l-6 88l14 135v219l25 37l-23 20l-8 142l-70 98l-104 147l-70 -100l-31 -18l2 -23l-86 -123l11 -260l4 -301
v-88l-193 -4l-16 78l27 76l-19 49v94l12 563l33 35l-33 22l2 185l-12 200l17 29l-3 10l-18 27l-2 20l-2 115l88 6l68 11zM596 1061l-8 -17l94 -137l6 199l-2 80l-24 -35zM328 1030v-115l94 127l-92 129l-4 -137v-2z" />
    <glyph glyph-name="uni16D8" unicode="&#x16d8;" horiz-adv-x="960" 
d="M582 1489l-9 -129l-34 -45l18 -17l6 -6v-73v-48l-8 -94l66 33l30 27l11 28l45 70l30 78l2 37v139l62 16l145 -26l-14 -88l-14 -115l-64 -139l-23 -17l19 -18l-139 -156l-109 -39v2l-49 -16l8 -465l8 -115l4 -28v-95l13 -178l-131 -26l-88 28l16 172l37 27l-29 31l-4 145
l4 168v70l10 98l-10 168l-20 4l-101 49l-149 152l22 20l-45 27l-53 135l-20 117l-9 88l150 20l57 -22l-2 -129l2 -37l19 -80l45 -70l10 -26l47 -31l45 -29l2 252l-10 88l4 86l102 -2l52 2z" />
    <glyph glyph-name="uni16D9" unicode="&#x16d9;" horiz-adv-x="526" 
d="M12 1284l86 86l35 12l8 31l25 35l51 61l80 2l31 -34h4v-4l43 -48l2 -16l29 -23l102 -92v-51l-113 -115l-18 5l-2 -35l-27 -27v-57l8 -117v-158l-4 -106l2 -416l-26 -31l32 -53l11 -113l-62 -28l-69 2l-90 14l4 154l14 157l22 31l-24 2l4 277l-4 178l14 111l27 53l-31 22
l2 74v6v29l-164 135l-4 25z" />
    <glyph glyph-name="uni16DA" unicode="&#x16da;" horiz-adv-x="634" 
d="M160 1255l-13 191l5 57l172 10l133 -157l180 -154l-19 -59l-61 -66l-51 -20l-100 119l-13 8l-59 57v-18l8 -160l-6 -37l-31 -22l27 -54l14 -143l-4 -178l4 -277l-24 -2l22 -31l14 -157l4 -154l-90 -14l-69 -2l-62 28l11 113l32 53l-26 31l2 416l-4 106v158l8 117v102
l-4 109v30z" />
    <glyph glyph-name="uni16DB" unicode="&#x16db;" horiz-adv-x="636" 
d="M55 721v45l60 55l37 31l4 2v43l8 117v102l-4 109v30l-13 193l5 57l172 8l133 -153l180 -158l-19 -59l-61 -66l-51 -20l-100 125l-13 8l-59 57v-18l8 -158l-6 -45l-31 -22l27 -54l8 -86l10 -10l107 -92l4 -49l-117 -107l-2 -2l4 -252l-24 -2l22 -31l14 -157l4 -154
l-90 -14l-69 -2l-62 28l11 113l32 53l-26 31l2 406l-6 8z" />
    <glyph glyph-name="uni16DC" unicode="&#x16dc;" horiz-adv-x="856" 
d="M428 1178h84l39 -66l35 -31l88 -127l78 -80l84 -81l-7 -103l-104 -108l-82 -86l-41 -56l-108 -149l-168 16v47l-50 54l-57 84l-74 53l-65 76l-72 73l6 94l95 99l59 59l57 12l-8 35l143 193l46 -15zM326 621l69 -80l35 -37l92 106l29 -6l2 33l80 108l-154 187l-16 10
l-41 47l-154 -170l-59 -63l6 -8l68 -82z" />
    <glyph glyph-name="uni16DD" unicode="&#x16dd;" horiz-adv-x="835" 
d="M135 596l-86 74l-8 141l106 104l21 25l80 88l65 74l-153 174l-82 74l-37 63l82 80h18l49 35l68 -84l57 -78l-16 -20l33 -7l90 -118l22 20l144 189l2 18l84 84l141 -109l-67 -102l-48 -43l-30 -4l-37 -68l-113 -108l90 -94l101 -105l80 -61l6 -142l-105 -98l-49 -23l8 -20
l-53 -57l-78 -86l109 -111l145 -147l35 -52l-74 -88l-24 -10l-54 -37l-88 119v29l-34 16l-123 148l-6 -11l-25 -35l-156 -198l-61 -68l-139 94l18 66l20 25l62 59l49 22l-6 21l16 18l129 136l-69 79zM444 936l-30 39l-90 -111l-70 -76l-21 -28l56 -68l55 -59l51 -60l25 -28
l86 92v-2l74 94l30 35l-55 61l-84 84l4 25z" />
    <glyph glyph-name="uni16DE" unicode="&#x16de;" horiz-adv-x="1144" 
d="M797 90l-64 131l-88 195l-43 90l-29 78l-120 -258l-45 -115l-58 -121l-61 -121l-56 31l-118 8l8 166l33 19l-31 38l10 373l-10 78l-10 537v53l-9 26l-2 185l78 16l82 17l41 -72l-2 2l53 -94l84 -160l-8 -33l21 -6l39 -84l79 -143l88 170l43 41l-4 30l84 181l82 163
l117 -2v-12h49l-2 -96l-2 -117l-29 -16l23 -45l-12 -561l-23 -17l19 -33l12 -235l4 -232l12 -135l-127 -10l-53 -16zM850 918l-10 45v159l-82 -184l-39 -61l-39 -74l-23 -49l35 -74l56 -105l88 -182l12 -37v4l-6 207l-6 199zM301 950l-14 -22l18 -162l-12 -401v-27l33 76
l34 75l37 84l88 179l-20 49l-43 65l-121 254v-170z" />
    <glyph glyph-name="uni16DF" unicode="&#x16df;" horiz-adv-x="903" 
d="M852 1098v-58v-71l-66 -74l-159 -205l-54 -78l-14 -18l45 -64l68 -118l30 -39l82 -107l109 -145l-41 -66l-121 -78l-137 244l20 33l-32 4l-127 186l-25 -30l6 10l-141 -221l-14 -45l-86 -166l-115 35l-72 73l62 93l84 110l84 129l41 6l-15 37l72 105l10 18l-141 197
l-94 112l-60 58l10 125l220 249l63 97l37 63h76l63 14l72 -92l53 -84l-20 -45l51 21zM279 1069l-33 -35l108 -155l-12 -23l31 2l88 -113l37 48l90 110l43 72l39 55l-33 37l-113 158l-61 73l-62 -65l-98 -139h-24v-25z" />
    <glyph glyph-name="uni16E0" unicode="&#x16e0;" horiz-adv-x="958" 
d="M371 1243l-58 -65l-49 -54l-127 2l-94 154l-86 127l68 49l96 45l41 -84l-15 -26l37 -11l35 -73l35 39l74 75l49 64v2l16 24l86 -6l58 17l34 -43l45 -60l11 -43l28 6l33 -34l35 -39l51 75l57 119l101 -41l67 -49l-94 -131l-98 -152l-129 -4l-49 50l-58 65v-127l-6 -264
l-2 -27l-2 -170l4 -278l10 -111l5 -117l-27 -24l29 -23l2 -104l-62 -4l-153 8v123l2 74l14 143l-6 43v289l2 135l29 61l-23 17v67l-4 226l2 51z" />
    <glyph glyph-name="uni16E1" unicode="&#x16e1;" horiz-adv-x="714" 
d="M10 971l70 92l190 -135l11 -6l-5 368l19 53l-29 21l-4 149l133 5l80 -17l-12 -90l-14 -319v-152l96 64l82 57l65 -76l8 -24h-2l35 -66l-67 -37l-48 -18l-51 -21l-45 -26l62 -33q17 -8 74.5 -40t80.5 -42l-30 -74l-66 -88l-111 68l-90 65l11 -221v-258l20 -170l-80 -2
l-47 -2l-86 14l-2 86l29 31l-17 39v299l6 194l-10 -6l-131 -100l-76 -31l-84 150l82 53l64 20l59 37l19 4l-215 109z" />
    <glyph glyph-name="uni16E2" unicode="&#x16e2;" horiz-adv-x="968" 
d="M319 326l58 -66l8 80l-6 43v289l2 135l29 61l-23 17v67l-4 230l-12 305l16 8l92 16l56 15l36 -43l45 -60l11 -43l28 2l33 -34l35 -39l49 77l57 119l97 -41l67 -49l-90 -133l-96 -152l-129 -4l-49 54l-58 65v-127l-6 -268l-2 -27l-2 -170l4 -278l13 -113l-3 -12l5 -103
l-23 -20v-8l25 -19l2 -88l-97 -10l-88 -10l-16 24v2l-49 64l-74 80l-14 20l-51 -73l-37 -11l14 -26l-45 -84l-96 45l-66 49l86 127l92 153l136 15z" />
    <glyph glyph-name="uni16E3" unicode="&#x16e3;" horiz-adv-x="841" 
d="M319 621l31 51l-26 22v109v123l32 22l-32 41v344l-19 164l76 14l55 2l84 -20l2 -82l-8 -49l-22 -25l18 -37v-524l-12 -139l6 -53v-21l37 -51l325 -369l-57 -77l-94 -50l-113 154l21 27l-52 24l-67 92v-88l6 -86l10 -129l-123 -20l-84 18l6 84v-6l9 211l-52 -64l-81 -120
l-25 -11l-23 -43l-43 -36l-131 131l43 47l123 135l25 6l12 43l92 107l51 59v70z" />
    <glyph glyph-name="uni16E4" unicode="&#x16e4;" horiz-adv-x="921" 
d="M80 154l47 98l33 10l-10 47l32 90l49 93l15 34l-17 19l-53 57h-10l-115 111v-2l-22 22v92l80 74l28 21l66 65l47 51l-78 150l31 35l-45 2l-107 229l90 45l103 16l78 -194l75 -223l-14 256l16 37l-18 10l-10 106l92 6l112 -8l-6 -153l-10 -52v-206l25 90l67 147l19 10
l-13 11l41 157l60 -2h20l123 -55l-76 -162l-34 -16l16 -35l-74 -176v2l-20 -45l30 -33l50 -47l-2 -12l32 -21l76 -80v-92l-25 -22v2l-110 -113l-10 -2l-56 -63l68 -170l20 -27l70 -168l-22 -20l36 -3l13 -14l14 -98l-174 -55l-47 88v30l-55 127l2 19l-64 180l6 -258l8 -70
l-2 -92l-108 -2l-94 -6l16 182l21 41l-21 35v74l4 94l-59 -166v2l-70 -205l-33 -67l-67 16l-125 41zM205 782l102 -102l53 104l-61 105l-2 -4zM727 782l-84 95l-53 -101l55 -90z" />
    <glyph glyph-name="uni16E5" unicode="&#x16e5;" horiz-adv-x="997" 
d="M494 315l-113 -157l-100 -158l-62 10l-92 6l4 109l2 20l21 35l-17 29l2 190l8 299l-6 185l33 35l-33 20l2 178l-12 191l16 28l-2 11l-18 24l-2 21l-2 108l88 6l70 11l102 -162l115 -154l2 -2l37 51l67 70l31 10l-17 33l115 158l96 -17l56 -22l-15 -291l-24 -45l20 -27
l-6 -399l2 -322l-20 -26l24 -45l11 -291l-56 -23l-98 -16l-115 158l17 32l-31 7l-62 73l-36 51zM406 803l-39 -49l34 -41l-2 -23l31 -16l70 -96l106 141l31 41l-27 37l-106 141l-70 -96l-31 -17zM600 1079l-8 -14l102 -133l6 190l-2 78l-28 -35zM588 451l8 -15l63 -86
l33 -35l2 78l-4 191zM319 575v-110l-2 -2v-2l5 -131l98 123zM324 1051v-111l100 123l-98 123l-4 -131v-2z" />
    <glyph glyph-name="uni16E6" unicode="&#x16e6;" horiz-adv-x="972" 
d="M582 141l8 -129l-43 -18l-51 2l-103 -2l-4 86l10 88l-2 252l-45 -29l-47 -31l-10 -26l-45 -70l-19 -80l-2 -37l2 -129l-57 -22l-149 20l8 88l20 117l53 135l46 27l-23 20l150 152l100 49l20 4l11 168l-11 98v70l-4 168l4 145l29 31l-37 27l-16 188l88 17l131 -19
l-12 -190v-94l-4 -29l-9 -115l-8 -465l49 -16v2l109 -39l139 -156l-18 -18l22 -16l64 -140l14 -114l14 -88l-145 -27l-61 16v140l-3 36l-30 78l-45 70l-11 29l-30 26l-66 33l8 -94v-47v-74l-6 -6l-18 -17z" />
    <glyph glyph-name="uni16E7" unicode="&#x16e7;" horiz-adv-x="425" 
d="M188 750l121 -13v-65v-60l-6 -250l4 -147l-24 -29l28 -20l8 -152l-79 -16l-136 8l9 166l8 51l2 133v172l-8 93l-4 8l-2 98z" />
    <glyph glyph-name="uni16E8" unicode="&#x16e8;" horiz-adv-x="753" 
d="M696 244l-80 -68l-170 -180l-147 2l-106 119l-5 55l-51 2l-155 133l28 51l60 64l51 20l100 -127l12 -8l60 -57v18l-2 164l10 45l25 23l-31 53l6 231l-6 166v76v45v162v18l-59 -57l-15 -8l-100 -125l-51 20l-60 64l-16 61l176 150l135 149l139 6l172 -184l109 -92l37 -37
l-45 -57l-84 -78l-68 80v18l-28 10l-31 43l-39 41v-30l-4 -109v-172l-27 -18l27 -35l2 -285v-117v-106l2 -109v-30l39 41l59 77l68 80l84 -75l45 -62l-37 -37z" />
    <glyph glyph-name="uni16E9" unicode="&#x16e9;" horiz-adv-x="765" 
d="M158 788l-66 64l-63 78l-4 141l213 225l43 15l8 35l184 190l66 -25l98 -43l-4 -137l-10 -84v-336l4 -10l2 -512l-25 -27l19 -63l22 -293l-119 -12l-102 6l12 254l33 29l-33 49l4 141l-18 21l-137 155zM438 928l23 41l-21 63l2 98l-2 146l-118 -133l-19 -13l-14 -28
l-88 -98l32 -48l21 -51l22 6l103 -120l59 -64v201z" />
    <glyph glyph-name="uni16EA" unicode="&#x16ea;" horiz-adv-x="929" 
d="M145 1196h5l-7 104l23 25l-25 25l-4 153l135 4l80 -12l-14 -92l-10 -203h16l113 14l20 -51v-110l-65 -35l-78 12l-4 -280l86 67l69 68l160 164l146 -23l-3 -192l5 -316v-26h20l102 18l21 -55l2 -127l-59 -13l-88 7l2 -113l10 -53l10 -150l-135 -6l-82 16l14 88v224
l-73 -13l-78 2l4 80l-2 101l65 4l84 -13l2 93l25 51l-23 45v100l-67 -55l-98 -84l-148 -154l-154 15l7 159l49 23l-47 45l-2 309h-2l-82 -14l-72 2l4 80l-2 102l66 4z" />
    <glyph glyph-name="uni16EB" unicode="&#x16eb;" horiz-adv-x="430" 
d="M43 766l66 65h6l30 39l11 2l30 43h60l57 -63l-6 -23l22 5l66 -60v-55l-74 -76v-4l-65 -68l-51 -8l-31 35l-45 51v6l-70 54l-8 24z" />
    <glyph glyph-name="uni16EC" unicode="&#x16ec;" horiz-adv-x="444" 
d="M51 989l66 64l45 45q5 6 17 23.5t14 19.5h59l63 -74l-4 -10l19 -2l63 -56v-55l-76 -76v-4l-65 -67l-47 -9l-31 35l-45 51v7l-72 53l-8 24zM51 553l70 59l8 -4v8l18 21l15 20l33 45h59l65 -75v-2l76 -64v-57l-78 -74v-4l-65 -70l-47 -6l-35 35l-41 51v6l-72 60l-8 26z" />
    <glyph glyph-name="uni16ED" unicode="&#x16ed;" horiz-adv-x="735" 
d="M281 829l18 -4l-8 95l-8 10l-27 162l20 69l121 6l78 -8l-2 -131l-31 -151l-20 -58l96 17l70 20l127 12l14 -104l-14 -86l-72 -23l-108 17l-99 12l25 -172l12 -47v-88l-96 -25l-103 6l-20 58l8 45l25 26l-17 21l25 174l-27 2l-100 -10l-90 -17l-68 2l-4 154l23 53l84 -6
l41 -14l22 -33l27 25z" />
    <glyph glyph-name="uni16EE" unicode="&#x16ee;" horiz-adv-x="800" 
d="M315 1255l-12 197l4 57l172 -4l133 -149l181 -154l-19 -59l-61 -66l-51 -20l-101 127l-12 8l-60 57v-18l9 -160l-6 -45l-31 -22l26 -54l15 -143l-4 -178l4 -277l-25 -2l23 -31l14 -157l4 -154l-90 -14l-70 -2l-61 28l10 113l33 53l-27 31l2 416l-4 106v60l-14 -13
l-59 -57l-13 -8l-94 -119l-51 21l-62 65l-18 51l174 154l133 149l12 -6v80l-4 109v30z" />
    <glyph glyph-name="uni16EF" unicode="&#x16ef;" horiz-adv-x="978" 
d="M592 1483l-8 -129l-35 -45l18 -17l6 -6l-2 -121l-8 -94l66 33l28 26l11 29l43 70l30 78v36v140l64 16l147 -26l-14 -89l-14 -114l-66 -140l-22 -16l18 -18l-143 -156l-101 -37l-47 -16l-4 -58h6l-2 -221l47 -20v2l109 -39l125 -150l-6 -20l22 -16l64 -136l12 -114l14 -88
l-145 -27l-62 16v140l21 37l-31 18l-22 55l-43 70l-9 29l-30 26l-66 33l10 -94v-121l-6 -6l-18 -17l35 -45l8 -129l-43 -18l-51 2l-113 -2l-4 86l10 88l2 252l-45 -29l-47 -31l-6 -26l-39 -70l-18 -80l-2 -37l2 -129l-58 -22l-155 20l8 88l20 117l49 135l45 27l-22 20
l149 152l101 49l12 2v33l8 98l-2 150l-20 4l-99 51l-151 150l22 20l-45 27l-49 135l-22 117l-9 88l152 20l57 -22l-2 -129l2 -37l19 -80l45 -70l6 -26l49 -31l45 -29v252l-10 88l4 86l109 -2l53 2z" />
    <glyph glyph-name="uni16F0" unicode="&#x16f0;" horiz-adv-x="815" 
d="M502 1178l22 -29l121 -139v-35h37l49 -66l88 -86l-6 -106l-111 -117l-75 -82l-111 -143l-8 -17v-165l-25 -17l25 -37l10 -47l-2 -88l-86 -10l-43 2l-80 6l19 174v156l-25 45l-84 102l4 21l-31 4l-51 59l-73 84l-68 68v100l25 23l127 145l28 -4l-12 18l133 164l20 27
l-4 168l23 18l-23 21l-10 100l88 18l127 -10l-6 -141l-10 -53zM334 887l-8 61l-62 -65l-8 -4l-4 -13l-70 -86l15 -24l59 -74l-4 4l61 -65l13 -15v109l6 65zM578 834l-84 108l2 -90l2 -57v-58l2 -139l35 31l4 14l92 121l-8 29l-11 6z" />
    <glyph glyph-name="endash" unicode="&#x2013;" horiz-adv-x="1024" 
d="M156 829l503 -4l48 -22l61 20l143 11l60 6l26 -27l-2 -143l-34 -23l-119 12l-406 -6l-65 23l-9 -23l-200 -2l-45 -2l-56 -4l-28 8l-6 68l12 113l35 4l28 -2z" />
    <glyph glyph-name="emdash" unicode="&#x2014;" horiz-adv-x="2048" 
d="M158 829l884 -2l23 -20l70 20l481 -2l47 -22l61 20l185 11l80 6l26 -27l-2 -143l-35 -23l-180 12l-973 -6l-430 2l-59 35l-19 -37l-153 -2l-45 -2l-56 -4l-28 8l-6 68l12 113l35 4l28 -2z" />
    <glyph glyph-name="quoteleft" unicode="&#x2018;" horiz-adv-x="372" 
d="M23 1133l-3 41l11 14l59 90l51 76l41 30v31l60 76l32 31l109 -78l-21 -37l-38 -29l-68 -84l-10 -43l90 -73l-2 -35l-78 -74l-57 -76l-31 2l-47 41l-23 39z" />
    <glyph glyph-name="quoteright" unicode="&#x2019;" horiz-adv-x="372" 
d="M350 1380l2 -41l-10 -14l-59 -90l-52 -76l-41 -31v-30l-59 -76l-33 -31l-108 78l20 37l39 29l68 84l10 43l-90 73l2 35l78 74l57 76l31 -2l47 -41l22 -39z" />
    <glyph glyph-name="quotesinglbase" unicode="&#x201a;" horiz-adv-x="372" 
d="M350 164l2 -41l-10 -14l-59 -91l-52 -75l-41 -31v-31l-59 -76l-33 -30l-108 78l20 36l39 29l68 84l10 43l-90 74l2 35l78 73l57 76l31 -2l47 -41l22 -39z" />
    <glyph glyph-name="quotedblleft" unicode="&#x201c;" horiz-adv-x="727" 
d="M23 1128l-3 41l11 15l57 88l51 74l41 30v31l58 74l32 30l107 -75l-21 -37l-39 -29l-65 -82l-10 -43l88 -71l-2 -35l-76 -74l-57 -74l-29 2l-47 41l-23 37zM377 1133l-2 41l10 14l59 90l52 76l41 30v31l59 76l33 31l108 -78l-20 -37l-39 -29l-68 -84l-10 -43l90 -73
l-2 -35l-78 -74l-57 -76l-31 2l-47 41l-22 39z" />
    <glyph glyph-name="quotedblright" unicode="&#x201d;" horiz-adv-x="727" 
d="M705 1384l2 -41l-11 -14l-57 -88l-51 -74l-41 -30v-31l-58 -74l-32 -31l-107 76l21 37l39 29l65 82l10 43l-88 71l2 35l76 74l57 74l29 -2l47 -41l23 -37zM350 1380l2 -41l-10 -14l-59 -90l-52 -76l-41 -31v-30l-59 -76l-33 -31l-108 78l20 37l39 29l68 84l10 43l-90 73
l2 35l78 74l57 76l31 -2l47 -41l22 -39z" />
    <glyph glyph-name="quotedblbase" unicode="&#x201e;" horiz-adv-x="727" 
d="M705 168l2 -41l-11 -14l-57 -88l-51 -74l-41 -31v-31l-58 -73l-32 -31l-107 76l21 37l39 28l65 82l10 43l-88 72l2 35l76 73l57 74l29 -2l47 -41l23 -37zM350 164l2 -41l-10 -14l-59 -91l-52 -75l-41 -31v-31l-59 -76l-33 -30l-108 78l20 36l39 29l68 84l10 43l-90 74
l2 35l78 73l57 76l31 -2l47 -41l22 -39z" />
    <glyph glyph-name="dagger" unicode="&#x2020;" horiz-adv-x="722" 
d="M246 1112l37 -2l-7 117l27 16l-33 12l2 56l-12 96l-4 57l18 52h193l2 -101l-4 -80l-19 -129v-88v-8l23 2l231 37l15 -88l-10 -109l-123 -2l-136 13v-347l-10 -90l15 -67l14 -320l-10 -59l-66 -127l-43 -2l-67 127l-15 55l2 49l35 25l-31 31l9 172v-2l4 157v170l14 6
l-14 15l4 213h-37l-133 -23l-90 4l-4 64l-11 30l25 115z" />
    <glyph glyph-name="daggerdbl" unicode="&#x2021;" horiz-adv-x="722" 
d="M246 1112l37 -2l-7 117l27 16l-33 12l2 56l-12 102l-4 57l18 46h193l2 -95l-4 -86l-19 -137v-88l23 2l231 37l15 -88l-10 -109l-123 -2l-136 13v-340l-6 -50h6l125 11l121 14l10 -123l-20 -74l-209 25l-20 2l12 -289l-10 -59l-66 -127l-43 -2l-67 127l-15 55l2 49l35 25
l-31 31l9 178v14l-35 -4l-205 -23l-23 95l13 24l-2 17l14 55l80 4l129 -27l33 2v162l14 6l-14 15l4 213h-37l-133 -23l-90 4l-4 64l-11 30l25 115z" />
    <glyph glyph-name="bullet" unicode="&#x2022;" horiz-adv-x="675" 
d="M41 774l106 105l41 14l11 37l28 43l37 26l51 68h54l108 -123l2 -18l35 -27l121 -111v-61l-133 -137l-23 6l-4 -47l-106 -107l-54 -10l-47 51l-61 82l4 25l-166 127l-6 31z" />
    <glyph glyph-name="ellipsis" unicode="&#x2026;" horiz-adv-x="1073" 
d="M328 170v-35l-76 -69l-72 -82l-26 4l-27 24l-4 29l-21 6l-88 82l4 39l80 74l64 73l35 -4l34 -51l23 -45h29zM692 170v-35l-76 -69l-71 -82l-27 4l-26 24l-5 29l-20 6l-88 82l4 39l80 74l63 73l35 -4l35 -51l22 -45h29zM1057 170v-35l-76 -69l-72 -82l-26 4l-27 24l-4 29
l-21 6l-88 82l5 39l79 74l64 73l35 -4l35 -51l22 -45h29z" />
    <glyph glyph-name="perthousand" unicode="&#x2030;" horiz-adv-x="1787" 
d="M12 1188l133 162l25 39l25 36l-2 -4l40 70l99 2l94 -129v-18l27 -27l98 -121l4 -90l-119 -137v-8l-98 -148l-102 -4l-33 43l-53 86l-127 164l-3 39zM227 1237l-10 -18l-47 -56l66 -94l-3 -6l11 -4l55 -68l29 29l2 12l73 111l-57 84l-67 94zM637 350l129 189l86 139l96 2
l96 -131l-6 -25l43 -30l90 -117l5 -88l-117 -146v-2l-101 -145l-102 -2l-27 39l-53 84l-131 155l-2 41zM905 506l-59 -90l-53 -78l61 -80l-2 -10l14 -4l60 -74l28 37l-2 -2l80 114l-59 87zM752 936l-99 -209v2l-190 -426h2l-66 -158v2l-37 -110l-20 -39l-51 -21l-117 70
l39 84l27 29l53 80l29 26l-9 27l131 305h-2l72 156l21 34l120 254l45 74l80 217l45 109l37 80l150 -52v-47l-27 -43l-33 -10l19 -22l-146 -240l2 6zM1757 313l-119 -184l-86 -137h-98l-94 127l6 24l-43 31l-90 117l-4 88l117 145v2l98 148l102 2l29 -43l53 -84l131 -158
l-2 -41v-37zM1503 164l58 88l55 80l-60 88l3 10l-15 4l-59 74l-35 -47l2 2l-80 -115l60 -86z" />
    <glyph glyph-name="guilsinglleft" unicode="&#x2039;" horiz-adv-x="505" 
d="M133 870l41 48l80 92l80 94l86 -60l33 -57l-97 -94l-30 -25l-52 -53l-86 -94l88 -103l19 -14l94 -92l-2 -8l72 -45l-37 -80l-78 -55l-72 75l-16 58l-51 24l-45 60h-13l-110 102l-17 10l3 125l75 62l37 6z" />
    <glyph glyph-name="guilsinglright" unicode="&#x203a;" horiz-adv-x="505" 
d="M330 918l41 -48l-2 -24l37 -6l75 -62l2 -125l-16 -10l-111 -102h-12l-45 -60l-51 -24l-17 -58l-71 -75l-78 55l-37 80l72 45l-2 8l94 92l18 14l88 103l-86 94l-51 53l-31 25l-96 94l33 57l86 60l80 -94z" />
    <glyph glyph-name="fraction" unicode="&#x2044;" horiz-adv-x="794" 
d="M555 936l-98 -209v2l-191 -426h2l-65 -158v2l-37 -110l-21 -39l-51 -21l-117 70l39 84l27 29l53 80l29 26l-8 27l131 305h-2l71 156l21 34l121 254l45 74l80 217l45 109l37 80l149 -52v-47l-27 -43l-32 -10l18 -22l-145 -240l2 6z" />
    <glyph glyph-name="Euro" unicode="&#x20ac;" horiz-adv-x="753" 
d="M459 559l-84 2l4 -14q18 -37 39 -55l45 -62l104 -156l135 -157l27 -64l-117 -78l-65 2l-41 72l-31 62l-147 217l6 32l-31 13l-72 88l-59 96q-12 0 -32.5 -1t-30.5 -1l-107 -6l-10 153l65 11l76 -8q0 6 2 16.5t2 15.5q0 4 -1 28.5t-1 27.5v18h-10l-31 -8q-5 -1 -13 -4
t-14.5 -4.5t-13.5 -1.5l-53 6l4 67l-4 19q0 1 -1 3t-1 3v6l4 61q50 0 82 -4q16 -2 43 -2l37 -2q4 4 15.5 16.5t17.5 20.5l-4 -4l153 240q0 2 1 4.5t1 3.5l117 211v10l41 68l143 -31l41 -70l-76 -104l-53 -17l12 -28l-110 -178l2 2l-96 -142l112 4l135 13l-22 -140l-62 -24
l-210 4v-61l2 -46q10 0 26.5 -1t28.5 -1h76q4 0 9 1t12.5 2t12.5 2l54 4l65 -19l-6 -57l4 -8l-16 -43q-3 -5 -4.5 -20.5t-3.5 -18.5q-79 0 -107 12q-12 4 -16 4z" />
    <glyph glyph-name="trademark" unicode="&#x2122;" horiz-adv-x="1021" 
d="M326 1507l53 2h55l4 -61l-2 -72l-51 -2l-20 4l-46 11h-24l-2 -13l-2 -33l-4 -112l2 -105v2l6 -127l2 -73l-33 -19l-35 -4l-65 4v76l6 90l-2 21l10 112l-8 58l4 80l-6 40h-4l-31 -6l-63 -8l-52 19l15 125l123 -9l20 -16l29 14h53l55 2h13zM659 1415l70 -125l4 10l51 89
l13 22l30 59l29 56l66 -15l39 -38l-11 -170l-22 -19l20 -20l10 -252l9 -94l-33 -11l-100 2v47l6 84l2 99l2 53v45l-6 53l-39 -63l-29 -66l-37 -12l-59 12l-25 56l2 -7l-37 66l4 -240l7 -94l-4 -33l-134 -4l-4 37l6 43l13 10l-15 21v59l9 49v133l-9 121l7 19l-5 6l-6 31v65
l68 10l49 13l62 -109z" />
    <glyph glyph-name="minus" unicode="&#x2212;" horiz-adv-x="778" 
d="M164 829l135 -4l47 -22l57 20l254 11l60 6l26 -27l-2 -143l-34 -23l-234 12l-303 -8l-45 -2l-55 -4l-29 8l-6 68l12 113l35 4l29 -2z" />
    </font>
</defs>
</svg>
