<?xml version="1.0" standalone="no"?>
<!DOCTYPE svg PUBLIC "-//W3C//DTD SVG 1.1//EN" "http://www.w3.org/Graphics/SVG/1.1/DTD/svg11.dtd" >
<svg xmlns="http://www.w3.org/2000/svg" xmlns:xlink="http://www.w3.org/1999/xlink" version="1.1">
<metadata>
Created by FontForge 20170731 at Thu Mar 29 17:57:25 2007
 By Aleksey,,,
2007 Iconian Fonts - www.iconian.com
</metadata>
<defs>
<font id="OdinsonOutline" horiz-adv-x="563" >
  <font-face 
    font-family="Odinson Outline"
    font-weight="400"
    font-stretch="normal"
    units-per-em="1000"
    panose-1="0 0 0 0 0 0 0 0 0 0"
    ascent="800"
    descent="-200"
    x-height="588"
    cap-height="648"
    bbox="-252 -211 1567 853"
    underline-thickness="50"
    underline-position="-175"
    unicode-range="U+0020-2122"
  />
<missing-glyph horiz-adv-x="500" 
 />
    <glyph glyph-name=".notdef" horiz-adv-x="500" 
 />
    <glyph glyph-name=".null" horiz-adv-x="0" 
 />
    <glyph glyph-name="nonmarkingreturn" horiz-adv-x="500" 
 />
    <glyph glyph-name="space" unicode=" " horiz-adv-x="355" 
 />
    <glyph glyph-name="FL0021h" unicode="!" horiz-adv-x="196" 
d="M53 13q3 -2 7 -3.5t9 -3.5v3h4q-15 3 -25 13q1 -3 5 -9zM110 58q0 15 -4 23q-1 0 -2 0.5t-2 0.5q5 -8 5 -24q0 -6 -2.5 -14.5t-6.5 -16t-10.5 -13t-13.5 -5.5h-1l-1 -3h2q8 0 15 5.5t11.5 14t7 17.5t2.5 15zM29 58q0 23 13.5 32t33.5 9q16 0 24 -8l15 -15q6 -5 8 -13.5
t2 -19.5q0 -6 -2.5 -15t-7 -17.5t-11.5 -14t-15 -5.5h-5l-1 1q-14 4 -24 14l-15 15q-15 17 -15 37zM32 273q0 2 0.5 4.5t0.5 4.5v12l28 307q4 24 21.5 35.5t38.5 11.5q14 0 20.5 -6t9.5 -15l6 -5q6 -6 8 -15.5t2 -20.5v-21l-4 -96q-3 -11 -4 -33.5t-3 -51.5q-2 -32 -4 -67
t-7 -64.5t-13 -48.5t-21 -19q-1 0 -3 0.5t-3 0.5q-23 4 -37 19l-3 2q-17 10 -25 26t-8 35v5zM21 58q0 28 15.5 38.5t39.5 10.5q25 0 33.5 -14t8.5 -35q0 -8 -3.5 -19t-10 -21t-15.5 -16t-20 -4q-21 5 -34.5 22t-13.5 38zM43 268q0 -21 12.5 -37.5t36.5 -21.5q12 -4 19 12
t11.5 43.5t6.5 62t3.5 66.5t3 57.5t4.5 35.5l4 94q0 7 0.5 16.5t-1 18.5t-6.5 15.5t-16 6.5q-17 0 -31.5 -9t-17.5 -28l-28 -307q0 -3 -0.5 -12t-0.5 -13z" />
    <glyph glyph-name="FL0022h" unicode="&#x22;" horiz-adv-x="342" 
d="M21 601q0 33 18.5 46t47.5 13q20 0 31 -7t16 -20l4 -3q14 -14 14 -45q0 -9 -14 -28.5t-32.5 -39.5t-38.5 -35t-32 -15h-11l-12 12h-6zM18 490q10 -2 29 12t37 33t31.5 38t13.5 27q0 21 -8.5 35t-33.5 14q-24 0 -39.5 -10.5t-15.5 -38.5zM179 600q0 33 18.5 46t47.5 13
q20 0 31 -7t16 -20l4 -3q14 -14 14 -45q0 -9 -14 -28.5t-32.5 -39.5t-38.5 -35t-32 -15h-11l-12 12h-6zM176 489q10 -2 29 12t37 33t31.5 38t13.5 27q0 21 -8.5 35t-33.5 14q-24 0 -39.5 -10.5t-15.5 -38.5z" />
    <glyph glyph-name="FL0023h" unicode="#" horiz-adv-x="728" 
d="M302 390q-1 -12 -2.5 -32t-2.5 -39.5t-2 -34.5t-1 -16v-3q-1 -1 -1 -3q22 -2 50 -1.5t58 0.5l11 127q-5 -2 -9 -2h-7h-9q-3 0 -7.5 0.5t-6.5 0.5l-3 2q-2 1 -7 1t-12 1h-9q-8 0 -15 -0.5t-14 -0.5h-11zM14 521q11 -9 45 -13t77 -4h53l13 97q4 24 21.5 35.5t38.5 11.5
q14 0 20.5 -6t9.5 -15l6 -5q6 -6 8 -15.5t2 -20.5v-61q0 -3 0.5 -6t0.5 -5v-10q9 -1 19 -0.5t21 0.5h76l13 97q4 24 21.5 35.5t38.5 11.5q14 0 20.5 -6t9.5 -15l6 -5q6 -6 8 -15.5t2 -20.5v-61q0 -3 0.5 -5.5t0.5 -4.5v-13q57 -2 98.5 -6t47.5 -11q1 -1 1.5 -2.5t1.5 -2.5
q0 -2 1 -2l9 -9v-1q2 -4 3.5 -7.5t1.5 -6.5q0 -9 -8.5 -21t-20.5 -22.5t-25 -17.5t-23 -7h-9q-3 0 -7 0.5t-6 0.5h-1q-4 2 -23 3.5t-48 1.5q-1 -12 -2 -32.5t-2.5 -41t-2.5 -36.5t-1 -17q-1 -2 -1 -5q61 -2 105.5 -6.5t55.5 -15.5q0 -1 0.5 -1.5t0.5 -1.5v1q0 -1 0.5 -2
t0.5 -3l10 -9q1 -2 2 -4.5t1 -6.5q0 -9 -8.5 -21t-20.5 -22.5t-25 -17.5t-23 -7h-9q-3 0 -7 0.5t-6 0.5h-1q-2 2 -16.5 2.5t-37.5 0.5h-29q-3 -36 -7 -67.5t-11 -54.5t-18 -36t-26 -13h-6q-3 0 -5 1q-21 4 -36 19l-3 3q-17 9 -25 24.5t-8 35.5v5q0 2 0.5 4.5t0.5 4.5v12
l9 58h-1q-7 0 -10 1q-14 0 -27.5 -0.5t-25.5 -1.5t-21 -1h-17q-3 -35 -7 -65t-10.5 -52t-17 -35t-26.5 -13h-6q-3 0 -5 1q-21 4 -36 19l-3 3q-17 9 -25 24.5t-8 35.5v5q0 2 0.5 4.5t0.5 4.5v12l10 59q-47 -2 -84.5 -2.5t-46.5 -0.5l-12 12h-6l5 125q11 -9 41.5 -13t68.5 -4
h47l12 130h-79q-16 0 -28.5 -0.5t-20.5 -0.5h-19l-12 12h-6zM271 283q0 2 1 19t2.5 39t3 42.5t2.5 29.5q9 0 21 0.5t26 0.5q15 -1 25 -1.5t11 -2.5q3 0 9 -0.5t9 -0.5q8 0 20 6h25l-14 -165q-46 0 -84.5 0.5t-58.5 2.5q1 5 1 9v8q0 10 1 13zM23 413q5 0 21 0.5t39 0.5
t50.5 0.5t56.5 0.5l-14 -165h-58q-39 0 -67.5 1.5t-32.5 4.5l-4 -92h19q15 0 35.5 0.5t46 1.5t52.5 2l-14 -84q0 -3 -0.5 -12t-0.5 -13q0 -21 12.5 -37.5t36.5 -21.5q16 -4 26.5 7.5t17.5 34t11 54.5t7 68q15 0 42 1t59 2q3 -1 7 -1h6q7 0 10 1q4 0 7.5 0.5t8.5 0.5l-14 -84
q0 -3 -0.5 -12t-0.5 -13q0 -21 12.5 -37.5t36.5 -21.5q16 -4 26.5 7.5t17.5 35t11.5 56.5t7.5 71q39 1 66 0t29 -3q3 0 9 -0.5t9 -0.5q10 0 23.5 7.5t24.5 18.5t17.5 22t1.5 19q-3 4 -18.5 6.5t-39 4.5t-54 3t-63.5 2q1 5 1 10v10q0 11 1 14q0 2 1 20t2.5 40.5t3 43
t2.5 28.5q35 0 58 -1.5t25 -3.5q3 0 9 -0.5t9 -0.5q10 0 23.5 7.5t24.5 18.5t17.5 22t1.5 19q-3 4 -17 6.5t-36 4.5t-50.5 3t-59.5 1q1 7 1 11v9v11q0 5 -0.5 8.5t-0.5 9.5v40q0 7 0.5 16.5t-1 18.5t-6.5 15.5t-16 6.5q-17 0 -31.5 -9t-17.5 -28l-14 -107h-86q-20 0 -36 0.5
t-28 1.5q1 6 1 10v8v10q0 4 -0.5 7.5t-0.5 9.5v40q0 7 0.5 16.5t-1 18.5t-6.5 15.5t-16 6.5q-17 0 -31.5 -9t-17.5 -28l-14 -107h-63q-44 0 -75.5 1.5t-35.5 4.5z" />
    <glyph glyph-name="FL0024h" unicode="$" horiz-adv-x="623" 
d="M428 595q-1 0 -1 1zM477 565q-4 3 -10 9zM394 745q5 0 9 -4l8 -9q0 -2 1 -3q-1 1 -3 1h-1l-15 15h1l13 -14q-2 6 -4 8l14 -12l1 -1q5 -6 7 -18t2 -27q0 -7 -0.5 -14t-0.5 -14v-41q9 -4 21 -15t26.5 -26t29.5 -32.5t29 -35.5q16 -20 31 -39t26 -34.5t18 -25.5t7 -11
q0 -26 -10 -36t-36 -10q-16 0 -28 5.5t-23 15.5q-13 8 -23 19.5t-19 25.5q-6 7 -11.5 14t-12.5 13q-9 6 -20 6q-1 0 -1.5 -0.5t-1.5 -0.5q-23 -32 -32.5 -76.5t-16.5 -85.5q-2 -9 -3 -18.5t-3 -17.5q-2 -7 -4.5 -21t-5 -31t-5.5 -34.5t-5 -31.5q-2 -9 -2.5 -16t-1.5 -10
q-1 -2 -1 -5q0 -9 2.5 -26.5t5.5 -37.5q3 -23 6 -45.5t3 -36.5q0 -36 -11.5 -45t-33.5 -9h-24q-11 0 -16 5l-8 8q-15 3 -15 21v3q0 1 0.5 2t0.5 3v5q0 2 0.5 3t0.5 3v9q0 2 0.5 5t0.5 6v21q0 19 -4 30q-16 2 -41.5 7.5t-54.5 14.5t-57 22t-49 30q-23 15 -37.5 34.5
t-14.5 42.5q0 30 13 48.5t48 18.5q23 0 42.5 -9t39.5 -20q1 -1 2.5 -1.5t2.5 -1.5v1q20 -12 39.5 -21.5t41.5 -9.5q8 0 16 23t15.5 56t14 68.5t10.5 59.5q1 5 1.5 10t1.5 9q0 1 0.5 2t0.5 3q1 9 3.5 23.5t6 32.5t7.5 37t8 37q2 10 3.5 18.5t3.5 16.5q2 5 2.5 9.5t1.5 7.5
q1 2 1 6q0 8 -3 22.5t-8 31.5l-3 12q-4 14 -7 27t-3 25q0 4 2.5 10.5t6 12.5t7.5 10.5t7 4.5l66 -5h1q12 -1 17 -16l6 -5q-4 2 -5 2q3 -14 3 -33q0 -4 -0.5 -7t-0.5 -7v-37v-23t-1 -9h2q1 1 3 1t8 -2v-3q12 -7 36 -29l15 -15q13 -13 27 -29t28 -33q14 -18 27 -35t22.5 -30
t15 -21t5.5 -9q0 -27 -10.5 -38t-38.5 -11q-21 0 -36 9q0 1 -1 1v1l-7 7q18 -15 44 -15t36 10t10 36q0 1 -13 19.5t-32.5 44t-43 54t-44.5 49.5q-23 21 -33 21q-1 0 -1.5 -0.5t-1.5 -0.5h-2l-15 15q-2 0 -2 10v25v23q0 7 0.5 14t0.5 14q0 22 -4 34l-66 5q-3 0 -6.5 -4
t-6.5 -9.5t-5 -11.5t-2 -10q0 -14 4 -30t9 -33t8 -32t3 -23q0 -5 -1 -7q-2 -7 -4.5 -21t-6.5 -31q-4 -18 -8 -37t-7.5 -37t-6 -32.5t-3.5 -22.5q-1 -5 -1.5 -10.5t-2.5 -13.5q-4 -25 -10.5 -61t-14 -69t-16.5 -56.5t-18 -23.5q-23 0 -43 9.5t-40 21.5q-20 11 -41 21t-44 10
q-34 0 -46 -17.5t-12 -46.5q0 -25 17 -45l-7 7q-11 12 -18 25t-7 28q0 29 12 46.5t46 17.5q23 0 44 -10t41 -21q20 -12 40 -21.5t43 -9.5q9 0 18 23.5t16.5 56.5t14 69t10.5 61q2 8 2.5 13.5t1.5 10.5q1 8 3.5 22.5t6 32.5t7.5 37t8 37q4 17 6.5 31t4.5 21q1 2 1 7
q0 8 -3 23t-8 32t-9 33t-4 30q0 4 2 10t5 11.5t6.5 9.5t6.5 4l66 -5h1zM13 173q0 -31 28.5 -54.5t67 -39t77.5 -24t59 -10.5q13 -1 18.5 -11t7 -24t0.5 -30t-1 -29q0 -12 -1.5 -21t12.5 -9q15 0 26 -0.5t19 3t12 13.5t4 30q0 13 -3 36t-6 47l-5.5 44t-1.5 26q1 7 4 27.5
t7 43.5t7.5 44t5.5 29q4 23 8 50.5t10 55t16 53t26 45.5q1 0 3 0.5t3 0.5q23 0 38 -15.5t29 -34t30 -34t40 -15.5q22 0 30 8.5t8 29.5q0 1 -11 17t-28 38.5t-38 48t-40.5 46.5t-35.5 34t-23 10q-10 -3 -11 17.5t-0.5 46.5t-0.5 48.5t-10 22.5l-66 5q-3 0 -7.5 -10.5
t-4.5 -16.5q0 -12 4.5 -31t10 -38t8.5 -35t0 -23q-2 -10 -7.5 -35.5t-11.5 -54t-11 -54.5t-6 -36q-2 -11 -5.5 -33t-8.5 -49t-11 -55t-13.5 -51t-15.5 -38t-17 -15q-24 0 -45 9.5t-41 21.5t-40 21.5t-42 9.5q-29 0 -39.5 -15.5t-10.5 -40.5z" />
    <glyph glyph-name="FL0025h" unicode="%" horiz-adv-x="566" 
d="M376 156q0 -9 5.5 -27t13.5 -32q1 -1 4 -1q5 0 12.5 10.5t14 25t11.5 29.5t5 23t-6.5 19t-14.5 20h-1q-4 0 -11 -9t-14.5 -20t-13 -22.5t-5.5 -15.5zM98 457q0 -9 5.5 -27t13.5 -32q1 -1 4 -1q5 0 12.5 10.5t14 25t11.5 29.5t5 23t-6 19t-14 20h-2q-4 0 -11 -9t-14.5 -20
t-13 -22.5t-5.5 -15.5zM339 68q-4 16 -12 26l-16 20l-4 4q-1 1 -1.5 2t-1.5 2q-10 11 -18 20t-11 19v11q0 2 0.5 4t0.5 3q5 4 13.5 13t17.5 18q2 2 3 3.5t3 3.5l4 4q2 2 4.5 5t5.5 7l7 10.5t9 14.5v-1q2 3 3.5 6t3.5 6q7 13 14.5 25.5t16.5 22.5t19 16.5t22 6.5h5
q8 0 13.5 -2.5t12.5 -17.5l4 -3q5 -5 11 -18l-3 2q4 -17 9 -34.5t13 -31.5l6 -6q7 -7 13 -14t11 -15q8 -10 14 -19.5t6 -20.5q0 -4 -1 -8.5t-5 -9.5l-109 -165l-13 13l-1 -3zM61 369q-4 16 -12 26l-16 20l-4 4q-1 1 -1.5 2t-1.5 2q-10 11 -18 20t-11 19v11q0 2 0.5 4t0.5 3
q5 4 13.5 13t17.5 18q2 2 3 3.5t3 3.5l4 4q2 2 4.5 5t5.5 7l7 10.5t9 14.5v-1q2 3 3.5 6t3.5 6q7 13 14.5 25.5t16.5 22.5t19 16.5t22 6.5h5q8 0 13.5 -2.5t12.5 -17.5l3 -2l1 -1q5 -5 11 -18l-3 2q4 -17 9 -34.5t13 -31.5l6 -6q7 -7 13 -14t11 -15q8 -10 14 -19.5t6 -20.5
q0 -4 -1 -8.5t-4 -8.5l-1 -1l-109 -165l-13 12l-1 -2zM67 35q0 14 7 28q3 7 6 15t6 12l270 515q14 22 33.5 32.5t39.5 10.5t25 -15l8 -8q5 -5 5 -16q0 -9 -4.5 -20.5t-8.5 -20.5q-1 -2 -1.5 -3.5t-1.5 -3.5h-1l-15 -39q-6 -15 -20 -46t-29 -64t-28.5 -60.5t-18.5 -34.5
q-2 -5 -6 -12t-9 -18q-10 -22 -25 -53.5t-32 -66t-36 -69t-37.5 -61.5t-35.5 -44t-31 -17q-2 0 -3.5 0.5t-2.5 0.5q-16 5 -24 13l-3 3q-27 10 -27 42zM353 171q0 5 6.5 17.5t15 25t17 22.5t13.5 10q6 0 14 -7t15.5 -17t13 -20.5t5.5 -17.5q0 -9 -6 -26t-14.5 -33t-17.5 -28
t-16 -12t-15 10.5t-15 24.5t-11.5 28.5t-4.5 22.5zM406 5l104 157q6 9 3 19.5t-10.5 20t-16.5 19t-15 17.5q-13 19 -19 40.5t-11 43.5q-2 5 -5.5 6t-8.5 1h-5q-14 0 -26 -12.5t-22.5 -29t-20 -34.5t-18.5 -28q-3 -3 -9.5 -10.5t-14 -16t-14.5 -15.5t-10 -9q0 -2 -0.5 -5
t-0.5 -4q4 -12 13 -22.5t19 -21t19 -22.5t13 -27zM75 472q0 5 6.5 17.5t15 25t17 22.5t13.5 10q6 0 14 -7t15.5 -17t13 -20.5t5.5 -17.5q0 -9 -6 -26t-14.5 -33t-17.5 -28t-16 -12t-15 10.5t-15 24.5t-11.5 28.5t-4.5 22.5zM128 306l104 157q6 9 3 19.5t-10.5 20t-16.5 19
t-15 17.5q-13 19 -19 40.5t-11 43.5q-2 5 -5.5 6t-8.5 1h-5q-14 0 -26 -12.5t-22.5 -29t-20 -34.5t-18.5 -28q-3 -3 -9.5 -10.5t-14 -16t-14.5 -15.5t-10 -9q0 -2 -0.5 -5t-0.5 -4q4 -12 13 -22.5t19 -21t19 -22.5t13 -27zM84 59q-9 -21 -3.5 -37.5t27.5 -21.5
q14 -4 34 16.5t41.5 54.5t43 76t40 80.5t32 68.5t18.5 40q3 5 10.5 19.5t16.5 34t19.5 42t20 43t17.5 38t12 27.5l16 40q3 7 7.5 16.5t6.5 18.5t-0.5 15.5t-13.5 6.5q-17 0 -34.5 -9t-28.5 -28l-271 -516q-2 -3 -6 -12t-5 -13z" />
    <glyph glyph-name="ampersand" unicode="&#x26;" horiz-adv-x="623" 
d="M132 232q0 -8 1.5 -17t6 -17.5t11 -14t17.5 -5.5q13 0 26 3t23.5 10t17 17t6.5 24q0 21 -13 38t-35 17q-21 0 -41 -15.5t-20 -39.5zM335 249q0 -3 0.5 -7l0.5 -4l108 -72q6 -4 14.5 7t16 26.5t13 30.5t5.5 20q0 30 -16.5 51.5t-45.5 21.5q-11 0 -27 -7t-31.5 -18
t-26.5 -24t-11 -25zM240 142l-10 -8.5t-23.5 -19.5t-28 -23.5t-22.5 -20.5l-72 -72h-6q-5 0 -12 2t-14 6t-11.5 9.5t-4.5 12.5q0 15 9.5 27t21 23t21 23.5t9.5 28.5q0 3 -0.5 7t-0.5 5q-4 4 -16 13.5t-24.5 22t-22.5 26.5t-10 28q0 15 11.5 25.5t26 20t28.5 20t19 24.5v6
q0 23 -15.5 30t-33.5 11.5t-33.5 13.5t-15.5 35q0 21 19.5 29t37.5 8q16 0 41 -17.5t50.5 -40.5t47.5 -44.5t34 -30.5q7 3 11.5 12t7.5 18.5t4 18t1 11.5v6v6l-12 84v7q0 7 5 13.5t12.5 12t16 9.5t14.5 6h6q26 0 34.5 -16t8.5 -37q0 -25 -5.5 -46.5t-5.5 -46.5q3 0 9.5 -2.5
t14 -4.5t13.5 -3.5t9 0.5q11 4 19.5 13t15 19.5t12.5 21t13 18.5l108 108q1 0 3 0.5t3 0.5q7 0 13 -5.5t10 -13.5t6 -16.5t2 -14.5q0 -3 -0.5 -7l-0.5 -4l-84 -96l-0.5 -6t-0.5 -10q0 -24 11.5 -38t25.5 -26t25.5 -26.5t11.5 -39.5q0 -20 -9.5 -34.5t-21.5 -28t-21.5 -28
t-9.5 -33.5q0 -13 6 -22.5t13 -18.5t13 -19t6 -24q0 -18 -6.5 -24.5t-24.5 -6.5q-23 0 -38 11t-27 27t-22 35t-22.5 35t-29 27t-41.5 11q-3 0 -4.5 -0.5l-1.5 -0.5q-3 -3 -7.5 -12t-4.5 -12v-192q0 -6 -5 -9t-11 -4t-12 -0.5t-8 0.5t-8 -0.5t-12 0.5t-11 4t-5 9v204h-12z
M537 -14q23 0 31 8t8 31q0 17 -6.5 27.5t-14.5 20.5l-3 3l-6 9q-8 11 -8 24q0 17 9 30t20 26q13 14 23 30t10 38q0 19 -6.5 32t-16.5 24q-6 10 -14.5 18t-16.5 16q-8 4 -13 10q-7 11 -7 30q0 2 -0.5 4t0.5 9l85 96q1 5 1 7v7q0 10 -4.5 24.5t-14.5 24.5l-4 4q-5 9 -13 16
t-18 7q-2 0 -3 -1h-8l-111 -112q-7 -8 -11 -13.5t-7 -10.5h1q-2 -2 -2 -3q-8 -14 -16.5 -25.5t-22.5 -16.5h1q-2 0 -7 1t-11 3l2 12t3 13q2 11 4 23t2 26t-3.5 27t-11.5 21l-3 3q-5 12 -16.5 20t-31.5 8h-10q-8 -3 -17.5 -7.5t-17.5 -11.5t-14 -15t-6 -18v-8l12 -84v-11
q0 -2 -0.5 -8t-2 -13t-4 -14.5t-6.5 -11.5q-7 6 -14 12.5t-14 13.5h1q-17 16 -37 34.5t-39.5 34t-37.5 26t-32 10.5q-11 0 -22.5 -2.5t-22 -8t-17 -15t-6.5 -22.5q0 -21 8 -32.5t21 -17.5l2 -2q8 -8 20.5 -12.5t24.5 -7.5q5 -2 9.5 -3t9.5 -3q3 -5 3 -12v-1
q-5 -11 -13.5 -19t-19.5 -15l1 1q-2 -1 -2.5 -1.5t-2.5 -1.5l-4 -2q-17 -12 -30.5 -24.5t-13.5 -32.5q0 -12 7 -25t17.5 -25t22 -22t19.5 -17l2 -2l1.5 -1t3.5 -3v-3q0 -2 0.5 -2.5t0.5 -1.5q0 -13 -8.5 -23t-19.5 -21q-13 -13 -23 -26t-10 -32q0 -11 7.5 -19.5t17.5 -13.5
l2 -2q8 -8 20.5 -13t20.5 -5h10l74 74q13 13 31.5 29t32.5 27v-167q0 -9 4.5 -14t12.5 -8l7 -7q5 -5 11.5 -6.5t14.5 -1.5q3 0 5 0.5t4 0.5h6q2 0 4 -0.5t5 -0.5q11 0 21.5 4.5t10.5 17.5v192q0 2 3 8t6 9h1q19 0 33 -8q11 -11 19.5 -23.5t16.5 -26.5q11 -20 23.5 -38
t31.5 -28q22 -22 56 -22zM446 300q11 0 21 -5q15 -18 15 -45q0 -4 -3.5 -15.5t-8.5 -24t-11 -23t-11 -11.5l-90 60q1 10 11.5 21.5t24 21t28 15.5t24.5 6zM155 217q0 20 17.5 33.5t35.5 13.5q6 0 12 -3q10 -13 10 -29q0 -23 -19.5 -33t-42.5 -10q-7 0 -9 2q-3 6 -3.5 13
t-0.5 13zM537 327l5 -5q-2 0 -2 1q-2 2 -3 4zM530 334l9 -10q-6 6 -9 10z" />
    <glyph glyph-name="FL0027h" unicode="'" horiz-adv-x="167" 
d="M21 601q0 33 18.5 46t47.5 13q20 0 31 -7t16 -20l4 -3q14 -14 14 -45q0 -9 -14 -28.5t-32.5 -39.5t-38.5 -35t-32 -15h-11l-12 12h-6zM18 490q10 -2 29 12t37 33t31.5 38t13.5 27q0 21 -8.5 35t-33.5 14q-24 0 -39.5 -10.5t-15.5 -38.5z" />
    <glyph glyph-name="parenleft" unicode="(" horiz-adv-x="227" 
d="M180 46q1 -2 3 -4v1zM1 240q0 20 8 49.5t22.5 62t34 64.5t42.5 58t47.5 42t49.5 16v-6l12 -12q0 -31 -11.5 -55.5t-26.5 -52.5q-20 -35 -38.5 -78.5t-18.5 -98.5q0 -51 6 -87t28 -68q8 -8 16 -17t19 -17v-4l12 -12v-6q0 -2 0.5 -4.5t0.5 -4.5q0 -20 -14.5 -26.5
t-31.5 -6.5q-20 0 -43 21q-24 14 -44.5 47.5t-36 71t-24.5 72.5t-9 52zM12 240q0 -12 5 -34.5t13.5 -49.5t21 -55t27 -50.5t31 -37t33.5 -14.5q14 0 26 5t12 20q0 3 -0.5 7t-0.5 5q-27 23 -43 45t-24.5 46.5t-11 53t-2.5 63.5q0 49 15 88.5t32.5 72.5t32.5 61t15 55
q-22 0 -44 -15.5t-42.5 -40.5t-37.5 -56t-30 -62t-20.5 -59.5t-7.5 -47.5z" />
    <glyph glyph-name="FL0029h" unicode=")" horiz-adv-x="227" 
d="M194 240q0 -12 -5 -34.5t-13.5 -49.5t-21 -55t-27 -50.5t-31 -37t-33.5 -14.5q-14 0 -26 5t-12 20q0 3 0.5 7t0.5 5q27 23 43 45t24.5 46.5t11 53t2.5 63.5q0 49 -15 88.5t-32.5 72.5t-32.5 61t-15 55q22 0 44 -15.5t42.5 -40.5t37.5 -56t30 -62t20.5 -59.5t7.5 -47.5z
M40 -12q7 -7 17 -9.5t21 -2.5q18 0 35.5 15t33 38.5t28.5 52t22.5 56t14.5 51t5 36.5q0 21 -9 51.5t-24 64t-35.5 66.5t-43.5 59q-24 29 -51 47.5t-53 18.5q0 -32 10 -55t24 -49l2 -4l2 -4q20 -35 38.5 -78.5t18.5 -97.5q0 -34 -2.5 -61.5t-11 -51.5t-24.5 -46t-43 -45v-7
q0 -2 -0.5 -3t-0.5 -2v-4q0 -13 6 -20.5t15 -11.5z" />
    <glyph glyph-name="FL002Bh" unicode="*" horiz-adv-x="391" 
d="M142 536q-9 0 -18 -5t-9 -13q11 0 19.5 3.5t8.5 11.5q0 2 -1 3zM277 554q-8 0 -22 -6t-21 -14l40 -22q4 4 8 15.5t4 14.5q0 6 -3 12h-6zM149 449q-9 -6 -13 -8.5t-10 -7.5l-43 -36h-6q-6 0 -14 3t-13 8l-5 4q-7 3 -12.5 8.5t-5.5 13.5q0 11 6 18t15 14q4 3 8 7t5 8
q-5 3 -8 8q-12 8 -23 19.5t-11 24.5t9.5 20t20.5 13q2 1 3.5 2t3.5 2q4 2 10 6l-16 4t-13 7l-6 5q-8 3 -13.5 10t-5.5 21q0 16 15 22.5t28 6.5q14 0 34 -14.5t39 -29.5q3 -3 4 -3q5 -4 9 -7.5t9 -6.5q4 5 5 8.5t1 5.5v4l-7 41v5q0 12 12.5 20t23.5 11h6q26 0 33 -20l7 -6
q8 -8 8 -26q0 -7 -1 -12l-2 -10q5 2 7 4.5t4 5.5q8 10 9.5 12.5t5.5 7.5l65 56h7q10 0 16 -6.5t10 -14.5l3 -3q-1 0 -1.5 0.5l-0.5 0.5l3 -2q5 -5 8 -12.5t3 -12.5q0 -4 -0.5 -5t-2.5 -6l-46 -46q-1 -2 -0.5 -2.5l0.5 -0.5v-3l4 -2q7 -5 13 -10.5t10 -13.5l3 -3
q-1 0 -1.5 0.5l-0.5 0.5l3 -2q11 -11 11 -29q0 -13 -6 -21t-14 -16q-6 -6 -10.5 -11.5t-4.5 -11.5v-4l6 -9q5 -7 10.5 -14t5.5 -14q0 -14 -4.5 -18.5t-21.5 -4.5q-14 0 -23 4.5t-16 11.5h-1q-12 5 -19.5 15t-14.5 21h1q-3 4 -6 7.5t-7 7.5q-8 4 -15 4q-4 -4 -4 -5v-92
q0 -15 -17 -15h-23q-9 0 -13 4l-9 8q-13 3 -13 18v58zM92 533q0 11 11.5 18.5t23.5 7.5t19.5 -8t7.5 -18q0 -14 -13 -20t-28 -6q-12 0 -16.5 9t-4.5 17zM208 541q0 6 6 12t15 11.5t18 9t15 3.5q17 0 26 -10.5t9 -24.5q0 -2 -3 -9.5t-7 -15t-9 -13t-8 -3.5l-62 35v5zM160 391
q0 -7 9 -7h12h11q9 0 9 7v92q0 2 2.5 6t4.5 6l1 0.5t3 0.5q21 0 32 -11t20 -24.5t19.5 -24.5t30.5 -11q11 0 14.5 3t3.5 12q0 6 -3.5 11t-7.5 9.5t-7.5 9.5t-3.5 11q0 9 5.5 16t12 13.5t12 13.5t5.5 17q0 12 -6.5 19t-14.5 12.5t-14.5 12t-6.5 18.5q0 2 0.5 5l0.5 3l47 47
l0.5 1.5t0.5 3.5q0 6 -4.5 15t-13.5 9h-3l-61 -53q-8 -8 -14.5 -19t-20.5 -15q-2 -2 -12 1t-14 3q0 12 3.5 22.5t3.5 22.5q0 11 -5 18.5t-20 7.5h-3q-8 -2 -18 -7.5t-10 -12.5v-3l7 -41v-3v-3q0 -2 -2.5 -14t-10.5 -15q-7 4 -19.5 14.5t-27 21.5t-29 20t-23.5 9
q-10 0 -21 -4t-11 -14q0 -13 8.5 -17.5t19 -6.5t19.5 -5.5t9 -14.5v-3q-3 -7 -11 -12t-16.5 -9.5t-15 -9.5t-6.5 -12t5.5 -14t13 -13t14.5 -10.5t9 -6.5v-6q0 -8 -5.5 -13.5t-11.5 -11t-11.5 -11.5t-5.5 -13t9 -10.5t15 -3.5h3l41 34q6 5 18 13.5t20.5 14.5t9.5 7h6v-98z
" />
    <glyph glyph-name="FL002Ah" unicode="+" horiz-adv-x="477" 
d="M170 111q2 3 3.5 17t3 35.5t3 49.5t3.5 59q-29 -1 -55.5 -0.5t-47.5 2t-36 2.5t-21 1l-6 107q3 -2 18 -3.5t38.5 -3.5t53.5 -3.5t62 -3.5q2 32 4.5 61t6 52t7 37.5t7.5 17.5q7 5 18.5 -1.5t22 -17.5t18.5 -24.5t8 -23.5q0 -3 -0.5 -9t-0.5 -9q-3 -2 -3.5 -26.5t1.5 -62.5
q32 -2 61 -4.5t51.5 -5.5t36.5 -6.5t17 -7.5q5 -8 3.5 -19.5t-7.5 -23t-14.5 -19.5t-18.5 -8q-2 0 -9 0.5t-15.5 1.5t-15.5 1.5t-8 0.5q-2 2 -23.5 2.5t-54.5 -0.5q1 -29 2.5 -56.5t2.5 -50t2 -38.5t1 -22zM299 401q0 29 4 33v13q0 2 0.5 4.5t0.5 4.5q0 10 -7.5 23.5
t-18.5 26.5q-12 17 -28 31t-29 14q-4 0 -8 -2h1q-1 0 -2 -0.5t-2 -0.5q-5 -4 -9.5 -19t-8.5 -37.5t-7 -51t-6 -59.5h-3q-3 0 -6 0.5t-6 0.5q-55 3 -98.5 8t-60.5 17l7 -141h6l12 -12h13q9 0 17 -1q17 -2 44.5 -3.5t61.5 -1.5h4q-1 -5 -1 -10v-9q-1 -8 -1 -16t-1 -16
q-2 -33 -4.5 -57t-11.5 -40h8l12 -12l141 -2q0 5 -1 23.5t-2 38.5q-2 22 -2.5 49t-2.5 56q10 0 18 0.5t16 0.5q28 0 31 -3h1q4 0 10.5 -0.5t14.5 -1.5t16 -1.5t11 -0.5q9 0 18 6.5t16 16t11 20.5t4 21q0 12 -6 19l-7 7q-1 4 -6 10q-7 8 -50 14.5t-103 11.5v28z" />
    <glyph glyph-name="FL002Ch" unicode="," horiz-adv-x="202" 
d="M34 49q0 34 18.5 47t47.5 13q20 0 31 -7t16 -20l4 -3q14 -14 14 -45q0 -5 -8 -19t-21.5 -31.5t-29.5 -36.5t-31.5 -35t-29.5 -26t-22 -10h-4q-6 2 -8 4l-8 8q-15 3 -15 23q0 12 6.5 30t14.5 37l6 15q8 18 13.5 33.5t5.5 22.5zM45 49q0 -11 -10 -34.5t-20 -48.5t-15 -44.5
t6 -22.5q7 -1 20 8t28 24t30.5 33.5t28.5 35.5t21 30.5t8 18.5q0 21 -8.5 35t-33.5 14q-24 0 -39.5 -10.5t-15.5 -38.5z" />
    <glyph glyph-name="FL002Dh" unicode="-" horiz-adv-x="477" 
d="M15 366q5 -3 37.5 -5.5t78.5 -5.5t98.5 -6t98.5 -7t78 -9t36 -11q5 -8 -1.5 -19t-17.5 -22t-24.5 -18.5t-23.5 -7.5q-3 0 -9 0.5t-9 0.5q-1 2 -25 3t-60 0.5t-78 -1.5t-80 -2t-66 -2t-36 -1zM4 368l-3 -126h6l12 -12q5 0 25.5 0.5t43.5 1.5q24 1 52.5 1.5t58 1.5t58 1.5
t52.5 0.5q22 0 37.5 -1t18.5 -3h1q2 0 7 -0.5t8 -0.5h9q10 0 23 7t25 17.5t20.5 22.5t8.5 21q0 4 -1 6.5t-2 4.5l-10 9q0 2 -0.5 3t-0.5 2v-1q0 1 -0.5 1.5t-0.5 1.5q-6 8 -33.5 13.5t-67.5 9.5t-87.5 7t-92.5 6q-5 0 -9 0.5t-8 0.5q-53 4 -91 6t-45 7z" />
    <glyph glyph-name="period" unicode="." horiz-adv-x="202" 
d="M34 49q0 34 18.5 47t47.5 13q20 0 31 -7t16 -20l4 -3q14 -14 14 -45q0 -9 -3.5 -20.5t-10.5 -22t-16.5 -18t-21.5 -7.5h-7q-20 4 -34 19q-17 10 -27.5 27t-10.5 37zM45 49q0 -21 13.5 -38t34.5 -22q11 -2 20 4t15.5 16t10 21t3.5 19q0 21 -8.5 35t-33.5 14
q-24 0 -39.5 -10.5t-15.5 -38.5z" />
    <glyph glyph-name="FL002Fh" unicode="/" horiz-adv-x="455" 
d="M15 35q0 14 7 28q3 7 6 15t6 12l270 515q14 22 33.5 32.5t39.5 10.5t25 -15l8 -8q5 -5 5 -16q0 -9 -4.5 -20.5t-8.5 -20.5q-1 -2 -1.5 -3.5t-1.5 -3.5h-1l-15 -39q-6 -15 -20 -46t-29 -64t-28.5 -60.5t-18.5 -34.5q-2 -5 -6 -12t-9 -18q-10 -22 -25 -53.5t-32 -66
t-36 -69t-37.5 -61.5t-35.5 -44t-31 -17q-2 0 -3.5 0.5t-2.5 0.5q-16 5 -24 13l-3 3q-27 10 -27 42zM32 59q-9 -21 -3.5 -37.5t27.5 -21.5q14 -4 34 16.5t41.5 54.5t43 76t40 80.5t32 68.5t18.5 40q3 5 10.5 19.5t16.5 34t19.5 42t20 43t17.5 38t12 27.5l16 40q3 7 7.5 16.5
t6.5 18.5t-0.5 15.5t-13.5 6.5q-17 0 -34.5 -9t-28.5 -28l-271 -516q-2 -3 -6 -12t-5 -13z" />
    <glyph glyph-name="FL0030h" unicode="0" 
d="M238 310q0 34 18.5 47t47.5 13q20 0 31 -7t16 -20l4 -3q14 -14 14 -45q0 -9 -3.5 -20.5t-10.5 -22t-16.5 -18t-21.5 -7.5h-7q-20 4 -34 19q-17 10 -27.5 27t-10.5 37zM213 297q0 -11 4.5 -28.5t11.5 -38t16 -40.5t19 -35q11 -11 20 -11q12 0 29 23.5t32.5 56t26.5 65.5
t11 51q0 9 -5 22t-13.5 27t-19 27t-20.5 23q-8 5 -14 5q-9 0 -25 -19t-32.5 -44t-28.5 -49.5t-12 -34.5zM173 102q-8 36 -27.5 61t-41.5 48q-19 20 -35.5 40.5t-23.5 44.5v5v5q0 4 1 7q1 2 1 6v6q7 4 18.5 16t25 26.5t26 29t20.5 24.5q2 2 4.5 5t6.5 4v1l-2 1
q11 12 22.5 32.5t24.5 43.5q14 25 29 51t31.5 46t35.5 33t42 13h10q11 0 23 -3.5t16 -17.5l7 -6q5 -5 6 -11q8 -46 20.5 -90t38.5 -82l-1 1v-1l18 -18q11 -11 21.5 -23t18.5 -25q14 -17 23 -35t9 -35q0 -8 -2 -15.5t-7 -15.5l-217 -334l-13 13l-1 -3zM249 310
q0 -21 13.5 -38t34.5 -22q11 -2 20 4t15.5 16t10 21t3.5 19q0 21 -8.5 35t-33.5 14q-24 0 -39.5 -10.5t-15.5 -38.5zM190 312q0 11 13 36.5t30.5 52t35.5 46.5t27 20q12 0 29 -14.5t32 -35t26 -42t11 -35.5q0 -20 -12 -54.5t-29.5 -68.5t-36.5 -59t-32 -25q-14 0 -30.5 22
t-30.5 51.5t-23.5 59.5t-9.5 46zM299 -32l211 325q13 20 6.5 41t-21.5 41.5t-34 40t-31 36.5q-26 39 -39 83.5t-21 89.5q-3 10 -11.5 12.5t-17.5 2.5h-10q-29 0 -53.5 -25.5t-46 -60.5t-40.5 -71.5t-37 -57.5q-5 -6 -18.5 -21.5t-29 -33t-29 -32.5t-19.5 -19q0 -4 -1.5 -11
t-0.5 -9q8 -25 26 -46t38.5 -42.5t38.5 -46.5t25 -58z" />
    <glyph glyph-name="FL0031h" unicode="1" horiz-adv-x="196" 
d="M11 59q0 4 0.5 13t0.5 12l60 516q3 19 17.5 28t31.5 9q11 0 16 -6.5t6.5 -15.5t1 -18.5t-0.5 -16.5v-40q0 -15 -1.5 -45.5t-3.5 -63t-4 -60t-3 -35.5q-1 -10 -2.5 -40t-4 -68.5t-7 -80.5t-12 -76t-19 -54.5t-27.5 -16.5q-24 5 -36.5 21.5t-12.5 37.5zM0 59q0 -19 8 -35
t25 -25l3 -3q14 -15 37 -19q2 0 3.5 -0.5t3.5 -0.5q14 0 25 16.5t18.5 43.5t12.5 61t8.5 68.5t5.5 66.5t3 55q1 10 1.5 20.5t0.5 12.5q1 8 3 35.5t4 60t3.5 63.5t1.5 46v61q0 11 -2 20.5t-8 15.5l-6 5q-3 9 -9.5 15t-20.5 6q-21 0 -38.5 -11.5t-21.5 -35.5l-60 -516v-12
q0 -2 -0.5 -4.5t-0.5 -4.5v-5z" />
    <glyph glyph-name="FL0032h" unicode="2" horiz-adv-x="487" 
d="M56 314q16 34 43.5 38t60.5 -4q32 -11 67 -12t62 19q-45 38 -82.5 64.5t-51.5 34.5q-17 9 -32.5 18t-29.5 18q-29 18 -48 38t-19 42v5q2 2 6.5 5.5t9.5 7t9.5 7t7.5 4.5h5q26 0 40 -3.5t23.5 -10t18.5 -16t25 -21.5q15 -12 38.5 -30.5t46.5 -36.5t40 -31t18 -13l52 -33
l83 -58q-32 -36 -48 -51.5t-24 -20.5t-10.5 -3.5t-7.5 -0.5q-11 -5 -37.5 -11t-63.5 -1q-9 1 -21.5 0.5t-24.5 -0.5t-22 2t-16 9q-23 5 -36 -5.5t-24 -24.5q9 -17 17.5 -43.5t15 -52t11 -44l4.5 -18.5q23 0 50 3t55.5 6.5t56.5 6.5t52 3q11 0 17 -8.5t9 -20.5t3.5 -26
t0.5 -24l-15 -1t-38 -3t-50 -4.5t-51 -5t-41 -4.5t-21 -4q-17 -8 -27.5 -10.5t-27.5 -2.5q-14 0 -23.5 3.5t-17.5 21.5q-16 78 -25.5 122.5t-14.5 68t-6.5 32t-1.5 14.5q0 10 1.5 21t1.5 18t5 27h2zM284 361q-2 -2 -4 -3t-4 -3q-42 35 -76.5 59.5t-48.5 32.5q-17 9 -32.5 18
t-29.5 18q-9 5 -17.5 11t-15.5 12l3 -3q5 -5 10 -9t10 -9q2 -2 4 -3l4 -2q13 -8 28 -16.5t35 -19.5h-1q16 -9 54 -37q2 -2 3 -2q14 -11 30.5 -23t33.5 -26q-11 -5 -22 -7t-22 -2q-15 0 -31 3.5t-32 8.5q-23 6 -45 6q-21 0 -38.5 -9t-30.5 -31h-4q-7 -22 -7 -38v-7
q0 -3 -1 -8q-1 -6 -1.5 -12t-0.5 -12q0 -9 2 -19t8 -39q1 -4 1.5 -7t1.5 -8q2 -11 5 -23.5t6 -27.5q5 -22 10.5 -50t13.5 -64q6 -14 12.5 -21.5t14.5 -10.5l5 -5q8 -8 16 -9t19 -1q18 0 28.5 2.5t29.5 11.5q3 2 20.5 4t42 4.5t52.5 4.5t51.5 4t39 3l15.5 1q0 10 -0.5 22
t-2 24.5t-5 23t-10.5 17.5l-5 5q-5 9 -12 15t-18 6q-25 0 -53 -3t-57 -7q-21 -3 -43 -5.5t-44 -3.5q-3 13 -7 30t-9.5 35.5t-12 35.5t-12.5 30q8 9 16.5 17t21.5 8q1 0 9 -2q8 -7 18.5 -9t23.5 -2h45q8 -1 15.5 -1.5t15.5 -0.5q26 0 44.5 4.5t28.5 9.5h1l3 1h3q3 0 8.5 2.5
t15.5 11t26.5 25.5t42.5 46l-13 13l2 2l-93 65l-54 35q-1 0 -12.5 8.5t-28.5 21.5t-36.5 28t-36.5 29q-8 6 -14.5 11.5t-11.5 9.5q-6 5 -11.5 10t-13.5 13q-8 7 -15 13t-16.5 10t-23 6t-34.5 2h-7q-3 -2 -9 -5.5t-12.5 -8t-12 -9t-8.5 -7.5v-10q0 -24 17.5 -45t46.5 -40
q6 -5 12 -9t13 -8q14 -9 29.5 -18t32.5 -18q5 -4 14.5 -10t22.5 -15q2 -2 3 -2q14 -11 31.5 -23.5t36.5 -27.5q-11 -6 -23 -8t-25 -2q-16 0 -32 3.5t-32 8.5q-23 6 -44 6t-38 -8.5t-29 -31.5h-4q-6 -21 -6 -35v-7q0 -3 -1 -8q-1 -6 -1.5 -12t-0.5 -12q0 -5 0.5 -9.5t2 -12
t4 -19.5t6.5 -31q5 -26 13.5 -64.5t21.5 -100.5q7 -17 14 -23l10 -10q10 -3 25 -3q19 0 29.5 2.5t29.5 11.5q3 2 21 4t42.5 4.5t52.5 4.5t51.5 4t39.5 3l16 1q0 17 -1.5 40t-9.5 40l-10 10q-8 8 -20 8q-25 0 -53 -3t-57 -7q-23 -3 -44.5 -5.5t-41.5 -3.5q0 1 -0.5 1.5
t-0.5 1.5h-8q-1 2 -1 6q-3 10 -7 27t-9.5 36.5t-12.5 39.5t-15 37q8 9 16 15.5t19 6.5l8 -2q8 -7 19 -9t24 -2h46q7 -1 14.5 -1.5t15.5 -0.5q26 0 44.5 4.5t29.5 9.5l4 1h2q3 0 8.5 2.5t16 11.5t27.5 26t43 46l-2 2l-91 63l-54 34q-1 0 -17.5 13t-39 30.5t-46 36t-37.5 29.5
l-6 3q6 -5 11 -9.5t10 -8.5q14 -11 37.5 -29.5t46 -36t39 -30.5t17.5 -13l54 -34l73 -51q-24 -28 -40 -44t-26 -24.5t-15.5 -11t-8.5 -2.5h-3l-2 -1v1q-10 -5 -29 -10t-46 -5q-8 0 -15.5 0.5t-14.5 1.5h-46q-11 0 -20 1t-17 6l-3 4l-4 3l2 -3q-8 2 -9 2q-12 0 -20.5 -7.5
t-16.5 -16.5l-3 4l-1 -9l10 -11q6 -15 12 -32.5t10.5 -35t8.5 -33t6 -25.5l2 -8h-7l15 -15l8 -6q-1 2 -1 6q21 0 46 2.5t51 6.5q29 4 57 7t53 3q6 0 12 -3q8 -16 9.5 -38t1.5 -39l-15.5 -1t-39 -3t-51.5 -4t-52.5 -4.5t-42 -4.5t-20.5 -4q-19 -9 -29.5 -11.5t-28.5 -2.5
q-8 0 -15 0.5t-12 3.5q-3 4 -7 14q-13 62 -21.5 100.5t-13.5 64.5q-4 19 -6.5 31t-4 19.5t-2 12t-0.5 9.5q0 6 0.5 12t1.5 12q1 5 1 8v7q0 10 5 32l3 -2l7 5l-3 3q12 21 28.5 29t36.5 8q21 0 44 -6q16 -5 32 -8.5t32 -3.5q14 0 26.5 2t23.5 9q2 -2 4 -3t4 -3v12zM162 565
l-5 5q3 -2 9 -8q1 -2 2 -2.5t2 -2.5zM171 260q0 1 -1 1z" />
    <glyph glyph-name="FL0033h" unicode="3" horiz-adv-x="487" 
d="M20 19q0 -2 3 -3zM80 242q-17 11 -28 31h-4q-8 26 -8 38q0 17 9.5 30t33.5 20v1q12 4 31 4q17 0 32 -3t30 -7q16 -4 30.5 -7t28.5 -3q10 0 24 3l3 -1q-14 18 -29.5 32.5t-31.5 26.5q-17 11 -34 20.5t-31 17.5q-17 9 -31 17t-23 16q-14 9 -22.5 18.5t-8.5 20.5
q0 21 12.5 39.5t46.5 18.5q60 0 124.5 -45t137.5 -145q9 -11 17.5 -22.5t17.5 -24.5l71 -103l-91 -63l-54 -34q-1 0 -17.5 -13t-39 -30.5t-46 -36t-37.5 -29.5q-5 -5 -11 -10t-14 -13q-8 -7 -14.5 -12.5t-16 -9.5t-22.5 -6t-34 -2h-7q-5 2 -13.5 8t-16.5 12q-8 5 -16 11.5
t-11 10.5v10q0 26 20 48t52 42q13 8 28 16.5t35 19.5h-1q14 8 39.5 27.5t62.5 49.5q-15 5 -28 5q-19 0 -43 -8q-13 -3 -25 -5t-22 -2q-15 0 -28 4t-24 15zM58 284q7 -17 18.5 -26t25 -12t29 -1.5t31.5 5.5q32 11 59 8.5t54 -22.5q-45 -38 -74.5 -61t-43.5 -31
q-17 -9 -32.5 -18t-29.5 -18q-29 -18 -48 -38t-19 -42v-5q4 -4 16 -13t17 -11h5q26 0 40 3.5t23.5 10t18.5 16t25 21.5q15 12 38.5 30.5t46.5 36.5t40 31t18 13l52 33l83 58l-66 96q-78 114 -146 165t-129 51q-28 0 -38 -15t-10 -32q0 -15 25.5 -29t61 -33.5t74 -48.5
t64.5 -72l-26 4q-23 -5 -45 -1.5t-44 8.5t-43 8.5t-41 -2.5q-29 -8 -34.5 -25.5t2.5 -41.5h2z" />
    <glyph glyph-name="FL0034h" unicode="4" horiz-adv-x="503" 
d="M80 515q1 0 1 -1zM11 419q0 2 -1 4q-3 13 -7 32.5t-4 24.5q0 21 12 40.5t35 19.5q20 0 34 -25l1 -1l3 -2q10 -11 17.5 -30.5t13.5 -46t10.5 -57.5t7.5 -64q28 17 53.5 25t50.5 13q29 5 55 13.5t46 30.5q-2 25 -3 50t-1 52v27q0 2 0.5 4.5t0.5 4.5v18q0 6 8.5 14.5
t14.5 8.5q15 0 28.5 -13.5t24 -37t19.5 -55t15 -67.5q3 -2 5.5 -5t5.5 -5q0 -4 1 -6l1 -1h-1v-1q1 0 1 -1l-15 15l-2 3h1q-9 48 -21 87.5t-29 61.5q-11 7 -19 7q-5 0 -12.5 -7.5t-7.5 -12.5v-11q0 -4 -0.5 -7.5t-0.5 -8.5v-27q0 -25 1 -49t3 -48l3 -3l-2 -6l-2 1
q-21 -22 -47 -30.5t-55 -13.5q-29 -6 -58 -15t-60 -31q1 -3 1 -7q0 -3 1 -6l-13 5l-15 15q3 2 5.5 4t5.5 4q-7 68 -16 127t-28 88q-10 4 -15 4q-22 0 -33 -18.5t-11 -38.5q0 -4 4 -23.5t7 -32.5q1 -2 1 -5l40 -240q20 10 54 23.5t74 27.5t82 27.5t78 22.5q-1 3 -1 9l10 -7
l15 -15q-2 -1 -5 -1q-2 0 -4 -1q5 -37 9.5 -74t7.5 -73q1 -2 1 -13v-19q0 -18 3 -36.5t14 -32.5q15 -10 35 -10q5 0 16.5 6t15.5 10v34q0 5 0.5 9t0.5 9v12q0 13 -1 38.5t-3.5 58.5t-6 71.5t-8.5 77.5l-5 5l3 7l2 -3q17 17 17 28q0 12 -15 29v1l7 -6q1 -2 5 -6q6 -9 6 -18
q0 -13 -19 -30q6 -42 10 -82t6.5 -73.5t3.5 -59t1 -38.5v-12q0 -2 -0.5 -4.5t-0.5 -4.5v-44q-2 -2 -7 -5l-10 -6t-10 -5t-8 -2q-17 0 -29 6l-14 14q-14 14 -19 35.5t-5 41.5v19q0 11 -1 13q-6 65 -15 128q-1 -1 -1.5 -0.5t-1.5 -0.5q-1 5 -1 8q0 4 -1 8q-38 -10 -82 -24.5
t-85 -29.5t-75 -29t-52 -23l-2 3l-44 261q0 3 -1 5q-3 13 -7 32.5t-4 23.5q0 20 11 38.5t33 18.5q13 0 23 -10l11 -12l1 -1q17 -30 26 -86.5t16 -119.5q6 4 10 6v-2q27 17 53 24.5t52 12.5q29 6 56 14.5t47 31.5q-2 26 -3 51.5t-1 51.5v27q0 5 0.5 8.5t0.5 7.5v11
q0 5 7.5 12.5t12.5 7.5q14 0 27 -13l15 -15q18 -20 32 -60t24 -92q7 -8 14 -19q8 -8 13 -17t5 -16q0 -13 -19 -29q6 -40 10 -79.5t6.5 -73.5t3.5 -60.5t1 -40.5v-12q0 -5 -0.5 -9t-0.5 -9v-34q-4 -4 -15.5 -10t-16.5 -6q-26 0 -43 17l-1 1q-25 11 -33 38t-8 53v19
q0 10 -1 12q-3 30 -6.5 63t-8.5 65q-38 -11 -82 -25t-83.5 -28.5t-71.5 -27.5t-46 -21l-13 12q-2 -2 -4 -2zM64 171q14 8 48.5 21.5t77.5 28.5t89 29.5t85 24.5l10 -78t8 -77q1 -2 1 -15v-19q0 -14 2.5 -29.5t9 -28t18 -20.5t29.5 -8q4 0 12.5 4.5t11.5 7.5v12q0 8 0.5 18
t0.5 18v12q0 14 -1 41t-3.5 61.5t-6.5 74.5t-10 80q19 16 19 26q0 9 -9 20.5t-21 21.5q-6 34 -14 64.5t-17.5 53.5t-21 36t-24.5 13q-3 0 -7.5 -4.5t-4.5 -7.5v-11q0 -7 -0.5 -16t-0.5 -16v-11q0 -26 1.5 -52.5t3.5 -52.5q-23 -26 -50.5 -35.5t-57.5 -15.5t-62.5 -16
t-65.5 -37q-4 45 -9 88t-12.5 77t-19 54.5t-27.5 20.5q-18 0 -27 -16t-9 -33q0 -2 1.5 -9.5t3.5 -17l4 -19t3 -14.5z" />
    <glyph glyph-name="FL0036h" unicode="5" horiz-adv-x="487" 
d="M18 7q0 -2 3 -3zM182 474q-3 -12 -7.5 -29.5t-10 -37t-12 -38.5t-13.5 -34q10 -9 22 -9q4 0 8 1q15 12 43 12h45q8 1 15.5 1.5t15.5 0.5q26 0 44.5 -4.5t29.5 -9.5l4 -1h2q3 0 8.5 -2.5t16.5 -11.5t28 -26.5t44 -47.5l-2 -1q3 -4 6 -7l7 -7l-91 -63l-54 -34
q-1 0 -17.5 -13t-39 -30.5t-46 -36t-37.5 -29.5q-5 -5 -11 -10t-14 -13q-8 -7 -14.5 -12.5t-16 -9.5t-22.5 -6t-34 -2h-6q-6 3 -17.5 11t-18.5 13t-13 10t-9 8v10q0 26 20 48t52 42q13 8 28 16.5t35 19.5h-1q13 8 45 29.5t71 53.5q-6 1 -12.5 1.5t-11.5 0.5q-16 0 -32 -3.5
t-32 -8.5q-23 -6 -44 -6q-32 0 -51 19h-1q-19 9 -32 33h-4q-7 22 -7 38v6q0 4 -1 9q-1 6 -1.5 12t-0.5 12q0 12 3.5 22.5t13.5 16.5l-5 15q1 11 3.5 27t6 34.5t7.5 37t8 35.5q2 11 3.5 19.5t3.5 15.5q1 4 1.5 8t1.5 7q11 26 23.5 30.5t29.5 4.5q19 0 29.5 -2.5t29.5 -11.5
q3 -2 21 -4t42.5 -4.5t52.5 -4.5t51.5 -4t39.5 -3l16 -1v-6l12 -12q0 -13 -0.5 -29.5t-4.5 -31t-11.5 -24.5t-21.5 -10q-25 0 -53 3t-57 7q-26 3 -51 5.5t-46 3.5q-1 -2 -1 -4q0 -1 -1 -4zM56 272q16 -34 43.5 -38t60.5 4q32 11 67 12t62 -19q-45 -38 -82.5 -64.5
t-51.5 -34.5q-17 -9 -32.5 -18t-29.5 -18q-29 -18 -48 -38t-19 -42v-5q2 -2 6.5 -5.5t9.5 -7.5t9.5 -7t7.5 -4h5q26 0 40 3.5t23.5 10t18.5 16t25 21.5q15 12 38.5 30.5t46.5 36.5t40 31t18 13l52 33l83 58q-32 36 -48 51.5t-24 20.5t-10.5 3.5t-7.5 0.5q-11 5 -37.5 11
t-63.5 1q-9 -1 -21.5 -0.5t-24.5 0.5t-22 -2t-16 -9q-23 -5 -36 5.5t-24 24.5q9 17 17.5 43.5t15 52t11 44l4.5 18.5q23 0 50 -3t55.5 -6.5t56.5 -6.5t52 -3q11 0 17 8.5t9 20.5t3.5 25.5t0.5 24.5l-15 1t-38 3t-50 4.5t-51 5t-41 4.5t-21 4q-17 8 -27.5 10.5t-27.5 2.5
q-14 0 -23.5 -3.5t-17.5 -21.5q-2 -10 -7.5 -35.5t-11.5 -54t-11 -54.5t-6 -36l8 -24q-1 -1 -3 -1q-10 -3 -13.5 -12t-3.5 -20q0 -10 1.5 -21t1.5 -18t5 -27h2z" />
    <glyph glyph-name="FL0035h" unicode="6" horiz-adv-x="455" 
d="M294 332q-14 -8 -32 -19t-35 -22.5t-32 -23t-23 -18.5q22 -25 50.5 -57t54.5 -57l5 5q1 1 2.5 12.5t3 27.5t2.5 32.5t1 27.5q0 7 0.5 25t1.5 38v14t1 15zM139 132q-8 6 -16.5 12.5t-17.5 13.5q-17 13 -35.5 27.5t-33.5 29.5t-25 29.5t-10 25.5q0 21 15.5 38.5t40.5 33
t56 29t63 26.5q48 19 85 37t42 37q2 9 2.5 22t0.5 29v7q0 22 1 45t6.5 41.5t17 30t32.5 11.5q17 0 25.5 -6t19.5 -21l1 -1q7 -7 16 -22q2 -2 4 -5.5t4 -5.5v-16q-1 -3 -2 -16t-2.5 -31.5t-2.5 -40t-2.5 -40t-2 -32t-0.5 -16.5q-1 -7 -2.5 -28t-2.5 -49.5t-2.5 -60t-2.5 -60
t-1.5 -49.5t-0.5 -28q0 -2 -0.5 -4.5t-0.5 -4.5q-1 -20 -3.5 -45t-10.5 -47t-23 -37t-42 -15h-12q-4 0 -9 0.5t-7 0.5l-12 12h-4l-137 136q-2 2 -4 3.5t-4 3.5h-1zM278 120q-16 14 -35.5 34.5t-38 41t-34 39t-24.5 29.5q6 7 29 24t49.5 34.5t50 31t31.5 13.5q0 -7 -0.5 -25
t-1.5 -38.5t-1.5 -38.5t-0.5 -25q0 -11 -1.5 -29t-3.5 -35t-4 -30t-3 -14zM410 609q-15 21 -22 29t-25 8q-25 0 -34 -22t-11 -52t-1 -59.5t-3 -44.5q-4 -16 -28 -31t-57.5 -29.5t-71.5 -29.5t-70 -31.5t-53.5 -35.5t-21.5 -41q0 -14 18.5 -34t43.5 -40.5t49 -37.5t35 -26
l132 -132q3 0 12 -0.5t12 -0.5q25 0 39.5 16t21 38.5t8.5 47.5t3 43q0 7 0.5 28t1.5 49.5t2.5 60.5t2.5 60.5t2.5 49.5t2.5 28q0 3 0.5 16.5t2 32.5t2.5 40.5t2.5 40t2.5 32t2 15.5v7v5z" />
    <glyph glyph-name="FL0037h" unicode="7" horiz-adv-x="431" 
d="M394 62q0 -30 -13 -55t-48 -25q-15 0 -27.5 32.5t-22.5 82t-18 108.5t-14.5 113.5t-12 96t-10.5 55.5q-1 0 -5 0.5t-7 0.5q-25 0 -43 -17t-34.5 -38t-34.5 -38t-43 -17q-29 0 -39.5 19t-10.5 44q0 14 15 33.5t38 40.5t51.5 42t55 37.5t48.5 26.5t33 10q33 0 52 -29
t28.5 -70.5t12 -88t2.5 -81.5q0 -36 6.5 -71t15 -70t16 -70.5t9.5 -71.5zM36 353q15 -15 40 -15q27 0 46.5 17.5t36.5 40.5q14 17 28 32t33 18q5 -23 9 -53t9 -65q7 -54 15 -114.5t18.5 -112t24 -87.5t31.5 -42l5 -5q8 -8 16 -8q20 0 33 7.5t21 20t11.5 28t3.5 32.5
q-2 36 -8.5 69.5t-14.5 66.5q-9 37 -16.5 73.5t-7.5 73.5q0 28 -1.5 64t-7 72t-16.5 68t-29 51q-11 18 -27 29t-37 11q-11 0 -34 -11t-51 -28t-57.5 -39t-54 -44.5t-40 -43t-15.5 -35.5q0 -23 7 -42t27 -27z" />
    <glyph glyph-name="FL0039h" unicode="8" 
d="M296 152q7 0 16 7t19 18.5t20 25.5t18 29q-27 0 -61.5 -1t-66.5 -3h-6q5 -9 10.5 -18.5t11.5 -18.5q13 -17 23.5 -28t15.5 -11zM248 360q25 -2 54.5 -4.5t56.5 -5.5q-12 30 -27 57.5t-29 42.5q-2 2 -4 2q-7 0 -15 -8t-17 -21t-17 -29.5t-15 -33.5h13zM301 658l11 -17
l3 -3l217 -334q5 -8 7 -15.5t2 -15.5q0 -26 -19 -52t-40 -49q-9 -10 -17 -18.5t-14 -16.5h1l-1 -1q-26 -38 -38 -82t-20 -89q-4 -13 -15 -16.5t-22 -3.5h-10q-17 0 -31 7t-27 19q-29 19 -51.5 55t-43.5 74q-13 23 -24.5 43.5t-22.5 32.5q-5 6 -18.5 21.5t-29 33t-30 33
t-21.5 20.5v5t-1 5q-1 3 -1 7v6v5q7 24 23.5 44.5t35.5 40.5q22 23 41.5 48t27.5 61zM391 254q-5 -16 -16.5 -35.5t-25.5 -37t-28.5 -29t-24.5 -11.5q-7 0 -18 10.5t-23.5 26.5t-25 35t-22.5 37q18 1 38 1.5t40 1.5t39 1.5t34 0.5h19t14 -1zM376 337q-42 5 -89.5 8.5
t-83.5 6.5q7 21 17 42.5t21 39.5t22.5 29.5t20.5 11.5t21.5 -12.5t25 -32.5t24.5 -44.5t21 -48.5zM184 502q-7 -33 -25 -58t-38.5 -46.5t-38.5 -42.5t-26 -46q-1 -2 0.5 -9t1.5 -11q6 -5 19.5 -19.5t29 -32t29 -33t18.5 -21.5q18 -21 37 -57.5t40.5 -71.5t46 -60.5
t53.5 -25.5h10q9 0 17.5 2.5t11.5 12.5q8 45 21 89.5t39 83.5q12 17 31 36.5t34 40t21.5 41.5t-6.5 41l-211 325z" />
    <glyph glyph-name="FL0038h" unicode="9" horiz-adv-x="455" 
d="M278 480q-16 -14 -35.5 -34.5t-38 -41t-34 -39t-24.5 -29.5q6 -7 29 -24t49.5 -34.5t50 -31t31.5 -13.5q0 7 -0.5 25t-1.5 38.5t-1.5 38.5t-0.5 25q0 11 -1.5 29t-3.5 35t-4 30t-3 14zM422 36q-15 -21 -22 -29t-25 -8q-25 0 -36 15t-15 36.5t-5 44t-5 37.5q-4 16 -28 31
t-57.5 29.5t-71.5 29.5t-70 31.5t-53.5 35.5t-21.5 41q0 14 18.5 34t43.5 40t49 37.5t35 26.5l132 132q3 0 12 0.5t12 0.5q25 0 39.5 -16t21 -38.5t8.5 -47.5t3 -43q0 -7 0.5 -28t1.5 -49.5t2.5 -60.5t2.5 -60.5t2.5 -49.5t2.5 -28q0 -5 3.5 -24.5t7.5 -42t8 -42t5 -23.5v-7
v-5zM192 191q29 -13 56 -24.5t46 -23.5q3 -4 5.5 -7t3.5 -7q2 -9 3 -18t2 -19q1 -15 2.5 -30t5.5 -28.5t11.5 -24t19.5 -15.5l3 -3q15 -15 40 -15q20 0 27.5 7t19.5 25q2 2 4 5t4 5v17q-1 4 -5 23t-8 41.5t-7.5 42t-3.5 24.5q-1 7 -2.5 28t-2.5 49.5t-2.5 60t-2.5 60
t-1.5 49.5t-0.5 28q0 2 -0.5 4.5t-0.5 4.5q-1 14 -2.5 31.5t-5 34.5t-10 33t-16.5 27q-9 16 -23.5 26t-36.5 10h-4q-2 0 -4 -0.5t-4 -0.5h-17l-137 -137q-2 -2 -8 -6q-3 -3 -11 -9q-17 -12 -39 -29t-42 -35t-33.5 -35t-13.5 -30q0 -18 11.5 -33.5t31.5 -29.5q24 -23 65 -41
t83 -35zM284 446q2 -17 4.5 -43.5t2.5 -42.5q0 -7 0.5 -25.5t1.5 -38.5q0 -11 0.5 -23t0.5 -23q-12 5 -27 14t-31.5 19.5t-32.5 22t-29 20.5q10 11 23 26t28 31.5t30 32.5t29 30z" />
    <glyph glyph-name="FL003Ah" unicode=":" horiz-adv-x="202" 
d="M47 339q0 28 15.5 38.5t39.5 10.5q25 0 33.5 -14t8.5 -35q0 -8 -3.5 -19t-10 -21t-15.5 -16t-20 -4q-21 5 -34.5 22t-13.5 38zM45 49q0 28 15.5 38.5t39.5 10.5q25 0 33.5 -14t8.5 -35q0 -8 -3.5 -19t-10 -21t-15.5 -16t-20 -4q-21 5 -34.5 22t-13.5 38zM34 49
q0 -20 10.5 -37t27.5 -27q14 -15 34 -19h7q12 0 21.5 7.5t16.5 18t10.5 22t3.5 20.5q0 31 -14 45l-4 3q-5 13 -16 20t-31 7q-29 0 -47.5 -13t-18.5 -47zM36 339q0 -20 10.5 -37t27.5 -27q14 -15 34 -19h7q12 0 21.5 7.5t16.5 18t10.5 22t3.5 20.5q0 31 -14 45l-4 3
q-5 13 -16 20t-31 7q-29 0 -47.5 -13t-18.5 -47z" />
    <glyph glyph-name="FL003Bh" unicode=";" horiz-adv-x="202" 
d="M45 49q0 28 15.5 38.5t39.5 10.5q25 0 33.5 -14t8.5 -35q0 -5 -8 -18.5t-21 -30.5t-28.5 -35.5t-30.5 -33t-28 -24t-20 -8.5q-11 3 -6 22.5t15 44.5t20 48.5t10 34.5zM47 339q0 28 15.5 38.5t39.5 10.5q25 0 33.5 -14t8.5 -35q0 -8 -3.5 -19t-10 -21t-15.5 -16t-20 -4
q-21 5 -34.5 22t-13.5 38zM34 49q0 -7 -5.5 -22.5t-13.5 -33.5l-6 -15q-8 -19 -14.5 -37t-6.5 -30q0 -20 15 -23l8 -8q2 -2 8 -4h3q8 0 21.5 10t29.5 26t32.5 35t29.5 36.5t21.5 31.5t8.5 19q0 31 -14 45l-4 3q-5 13 -16 20t-31 7q-29 0 -47.5 -13t-18.5 -47zM36 339
q0 -20 10.5 -37t27.5 -27q14 -15 34 -19h7q12 0 21.5 7.5t16.5 18t10.5 22t3.5 20.5q0 31 -14 45l-4 3q-5 13 -16 20t-31 7q-29 0 -47.5 -13t-18.5 -47z" />
    <glyph glyph-name="FL003Ch" unicode="&#x3c;" horiz-adv-x="452" 
d="M216 144q2 -2 3 -2zM108 86q-3 2 -8 7l9 -9zM119 74q5 -5 10 -9.5t10 -9.5q-9 7 -16 16zM170 225q0 -19 11 -39q11 -14 25 -27t28 -27q16 -15 30 -30t24 -29q13 -15 20.5 -29.5t7.5 -28.5q0 -15 -7 -23t-16.5 -12t-20.5 -4.5t-19 -0.5q-9 0 -26 10t-38 27
q-24 17 -52.5 42.5t-53.5 53t-42 53t-19 42.5l-3 3q-6 6 -12.5 14t-6.5 16t5 11v3q0 2 -0.5 3.5t-0.5 3.5q0 10 1.5 17t12.5 7h3q7 0 24 18.5t40 45.5q4 5 7.5 8.5t7.5 8.5q24 29 51.5 60.5t56.5 58t58 43.5t56 17q22 0 40.5 -4.5t31.5 -28.5l1 -1q10 -11 16 -27v-3
q0 -1 0.5 -2t0.5 -2q0 -11 -11 -25t-27 -29t-34.5 -29.5t-33.5 -26.5q-9 -7 -13.5 -10t-15.5 -14l-106 -106q0 -2 -0.5 -4t-0.5 -4zM388 492q-10 28 -27 33t-39 5q-28 0 -59 -20t-61.5 -50t-59.5 -64.5t-53 -63.5t-42.5 -47t-28.5 -15q-3 0 -3 -13q0 -5 0.5 -10t0.5 -7
q-6 -1 -4.5 -6t6.5 -10.5t10 -10.5t5 -6q0 -14 12.5 -35t32.5 -44t44 -46.5t47 -42t41.5 -30t27.5 -11.5q7 0 16.5 0.5t18 3.5t14.5 9.5t6 18.5q0 16 -11 32.5t-27 33t-35 34t-35 35.5t-27 36.5t-11 38.5q0 3 0.5 7t0.5 5l108 108q7 7 30 24t47 37t41.5 39.5t13.5 31.5z" />
    <glyph glyph-name="FL003Dh" unicode="=" horiz-adv-x="477" 
d="M14 267q5 -3 37.5 -5t78.5 -3.5t98.5 -3.5t98.5 -5t77.5 -7t35.5 -10q5 -8 -1.5 -19t-17.5 -22t-24.5 -18.5t-23.5 -7.5q-3 0 -9 0.5t-9 0.5q-1 2 -25 3t-60 0.5t-78 -1.5t-80 -2t-66 -2t-36 -1zM12 432q5 -3 37.5 -5.5t78.5 -5.5t98.5 -6t98.5 -7t78 -9t36 -11
q5 -8 -1.5 -19t-17.5 -22t-24.5 -18.5t-23.5 -7.5q-3 0 -9 0.5t-9 0.5q-1 2 -24.5 3.5t-59 2t-77 0t-79 -1t-65 -1t-35.5 -0.5zM1 434l2 -120h6l12 -12q5 0 19 0.5t29 0.5q32 0 79 0.5t93 0.5q49 0 85 -1t38 -4q2 0 6.5 -0.5t7.5 -0.5h9q10 0 23 7t25 17.5t20.5 22.5t8.5 21
q0 4 -1 6.5t-2 4.5l-10 9q0 2 -0.5 3t-0.5 2v-1q0 1 -0.5 1.5t-0.5 1.5q-6 8 -33.5 13.5t-67.5 9.5t-87.5 7t-92.5 6q-5 0 -9 0.5t-8 0.5q-53 4 -91 6t-45 7zM3 269l-4 -116h6l12 -12q5 0 25.5 0.5t43.5 1.5q24 1 52.5 1.5t58 1.5t58 1.5t52.5 0.5q22 0 37.5 -1t18.5 -3h1
q2 0 7 -0.5t8 -0.5h9q10 0 23 7t25 17.5t20.5 22.5t8.5 21q0 4 -1 6.5t-2 4.5l-10 9q0 2 -0.5 3t-0.5 2v-1q0 1 -0.5 1.5t-0.5 1.5q-5 8 -32.5 13t-67 8.5t-87 5t-92.5 3.5q-8 0 -14.5 0.5t-14.5 0.5q-48 2 -84 4.5t-41 4.5z" />
    <glyph glyph-name="FL003Eh" unicode="&#x3e;" horiz-adv-x="452" 
d="M147 418q2 -3 5 -5zM1 35q-1 1 -1 3v2q0 11 11 25.5t27 30t35 30t34 26.5q3 2 5 3.5t4 3.5l8 6t12 11l105 105v2q0 1 0.5 2t0.5 3q0 28 -24.5 55t-51.5 53t-48.5 51t-21.5 51q0 16 7 25t17.5 13t21.5 4.5t20 0.5t29 -13t44.5 -33t50 -45t46.5 -50q23 -25 38.5 -48
t18.5 -40q6 -6 9 -12q5 -5 9.5 -11t4.5 -12q0 -8 -5 -11q0 -2 0.5 -5t0.5 -6q0 -9 -1.5 -14.5t-9.5 -5.5h-3q-9 0 -30.5 -24t-50.5 -58q-24 -29 -51.5 -60.5t-56 -57.5t-57 -43t-55.5 -17q-17 0 -32 2.5t-26 13.5l-2 2q-10 5 -18 13.5t-14 25.5v3zM12 36q10 -28 27 -33
t39 -5q28 0 59 20t61.5 50t59.5 64.5t53 63.5t42.5 47t28.5 15q3 0 3 12q0 6 -0.5 11t-0.5 7q6 1 4.5 6t-6.5 10.5t-10 10t-5 6.5q0 14 -12.5 35t-32.5 44t-44 46.5t-47 42t-41.5 30t-27.5 11.5q-7 0 -16.5 -0.5t-18 -3.5t-14.5 -9.5t-6 -18.5q0 -16 11 -32.5t27 -33t35 -34
t35 -35.5t27 -36.5t11 -38.5q0 -3 -0.5 -7t-0.5 -5l-108 -108q-7 -7 -30 -24t-47 -37t-41.5 -39.5t-13.5 -31.5z" />
    <glyph glyph-name="FL003Fh" unicode="?" horiz-adv-x="487" 
d="M45 49q0 28 15.5 38.5t39.5 10.5q25 0 33.5 -14t8.5 -35q0 -8 -3.5 -19t-10 -21t-15.5 -16t-20 -4q-21 5 -34.5 22t-13.5 38zM58 278q7 17 18.5 26t25 12t29 1.5t31.5 -5.5q32 -11 67 -12t62 19q-45 38 -82.5 64.5t-51.5 34.5q-17 9 -32.5 18t-29.5 18q-29 18 -48 38
t-19 42v5q4 4 16 13t17 11h5q26 0 40 -3.5t23.5 -10t18.5 -16t25 -21.5q15 -12 38.5 -30.5t46.5 -36.5t40 -31t18 -13l52 -33l83 -58q-32 -36 -48 -51.5t-24 -20.5t-10.5 -3.5t-7.5 -0.5q-11 -5 -37.5 -11t-63.5 -1q-9 1 -21.5 0t-24.5 -1t-22 2.5t-16 9.5q-22 5 -34.5 -5
t-23 -22.5t-22 -22t-31.5 -3.5q-10 3 -13.5 12t-3.5 19q0 11 1.5 22t1.5 18q0 9 5 27h2zM286 325q-2 -2 -4 -3t-4 -3q-42 35 -76.5 59.5t-48.5 32.5q-17 9 -32.5 18t-29.5 18q-9 5 -17.5 11t-15.5 12l3 -3q5 -5 10.5 -9.5t11.5 -9.5q2 -2 6 -4q13 -8 28 -16.5t35 -19.5h-1
q16 -9 54 -37q2 -2 3 -2q14 -11 30.5 -23t33.5 -26q-11 -5 -22 -7t-22 -2q-15 0 -30.5 3t-29.5 8q-3 1 -5 1t-5 1q-10 2 -14.5 3.5t-23.5 1.5q-20 0 -37.5 -9t-30.5 -31h-5q-3 -12 -5 -21t-2 -17v-6t-1 -8q-1 -6 -1.5 -12.5t-0.5 -13.5q0 -12 4 -24t18 -17l6 -6q5 -6 13 -7
q4 -1 7 -1.5t8 -0.5q16 0 26.5 9t19.5 21q8 10 17 18.5t23 8.5q2 0 8 -2q8 -7 18.5 -9.5t23.5 -2.5q5 0 10 0.5t10 0.5h25q8 -1 15.5 -1.5t15.5 -0.5q26 0 44.5 4.5t28.5 9.5h1l3 1h3q3 0 8.5 2.5t15.5 11t26.5 25.5t42.5 46l-13 13l2 2l-93 65l-54 35q-1 0 -12.5 8.5
t-28.5 21.5t-36.5 28t-36.5 29q-8 6 -14.5 11.5t-11.5 9.5q-6 5 -11.5 10t-13.5 13q-8 7 -15 13t-16.5 10t-23 6t-34.5 2h-8q-3 -1 -9 -5t-12.5 -8.5t-12 -9.5t-7.5 -7v-10q0 -25 18.5 -45.5t47.5 -40.5q5 -5 11 -8.5t12 -7.5q14 -9 29.5 -18t32.5 -18q5 -4 14.5 -10
t22.5 -15q2 -2 3 -2q14 -11 31.5 -23.5t36.5 -27.5q-11 -6 -23 -8t-25 -2q-16 0 -31.5 3t-29.5 8q-13 2 -25 4.5t-22 2.5q-21 0 -38.5 -8.5t-28.5 -31.5h-3q-3 -12 -5 -21t-2 -14v-6t-1 -8q-1 -6 -1.5 -12.5t-0.5 -13.5q0 -8 2 -17t8 -15l9 -9q1 -1 3 -1l1 -0.5t2 -0.5
q4 -1 13 -1q17 0 28 9.5t20 21.5q8 9 16.5 17.5t21.5 8.5q1 0 7 -2q15 -12 43 -12h10q2 0 4.5 0.5t5.5 0.5h26q7 -1 14.5 -1.5t15.5 -0.5q26 0 44.5 4.5t29.5 9.5l4 1h2q3 0 8.5 2.5t16 11.5t27.5 26t43 46l-2 2l-91 63l-54 34q-1 0 -17.5 13t-39 30.5t-46 36t-37.5 29.5
l-6 3q6 -5 11 -9.5t10 -8.5q14 -11 37.5 -29.5t46 -36t39 -30.5t17.5 -13l54 -34l73 -51q-24 -28 -40 -44t-26 -24.5t-15.5 -11t-8.5 -2.5h-3l-2 -1v1q-10 -5 -29 -10t-46 -5q-8 0 -15.5 0.5t-14.5 1.5h-26q-5 0 -10 -0.5t-10 -0.5q-11 0 -20 1.5t-17 6.5l-3 4l-4 3l2 -3
q-6 2 -8 2q-14 0 -23 -8.5t-17 -18.5q-9 -12 -19.5 -21t-26.5 -9q-5 0 -8 0.5t-7 1.5q-3 0 -4 1q-4 9 -4 23q0 7 0.5 13.5t1.5 12.5q1 5 1 8v6q0 9 6 32l2 -2l7 5l-3 3q11 20 28 28.5t37 8.5q10 0 22 -2.5t25 -4.5q14 -5 29.5 -8t31.5 -3q14 0 26.5 2t23.5 9q2 -2 4 -3t4 -3
v12zM34 49q0 -20 10.5 -37t27.5 -27q14 -15 34 -19h7q12 0 21.5 7.5t16.5 18t10.5 22t3.5 20.5q0 31 -14 45l-4 3q-5 13 -16 20t-31 7q-29 0 -47.5 -13t-18.5 -47zM164 529l-2 2q1 0 3 -2l3 -3q1 -2 2 -2.5t2 -2.5z" />
    <glyph glyph-name="FL0040h" unicode="@" horiz-adv-x="518" 
d="M240 185q4 -6 7 -8zM190 86q-1 1 -2 1l-1 1l12 -12zM247 177q6 -6 10 -9l-3 3zM199 76q3 -4 6.5 -7t6.5 -6q-2 2 -3.5 4t-3.5 4zM271 300q0 12 12 21.5t29.5 16t35.5 11t30 6.5q4 20 6 37.5t3 30.5l-45 -25q-34 -19 -151 -122q3 -14 8 -26t11 -23q32 -47 74 -75t77 -46
q26 -14 43.5 -25.5t22.5 -25.5l3 -2q11 -11 11 -21q0 -20 -12 -37.5t-44 -17.5q-63 0 -133 52q-39 26 -80 70t-86 110l-73 106l92 64l55 35q1 0 12.5 8.5t28.5 21.5t36.5 28t36.5 29q8 6 14.5 11.5t11.5 9.5q5 5 11 10t14 13q8 7 15 13t16.5 10t23 6t34.5 2h8q2 -1 9 -1
q14 0 33 -2t26 -9v-4l12 -12l-16 -267q-1 -10 -1 -17v-11v-25q0 -3 0.5 -6.5t0.5 -8.5q0 -8 -15.5 -19.5t-36.5 -22.5t-43.5 -19t-35.5 -8h-7q-5 1 -12 8l-4 4q-12 3 -23 22t-19.5 42t-13.5 46t-5 34zM282 300q0 -11 4.5 -32t11.5 -42.5t16.5 -38.5t20.5 -20q11 -2 32.5 4.5
t42.5 16.5t37 21t16 19q0 9 -0.5 14t-0.5 11v15v12t1 17l16 262q-3 3 -19 4t-29 1q-10 0 -12 1h-5q-26 0 -40 -3.5t-23.5 -10t-18.5 -16t-25 -21.5q-15 -12 -38.5 -30.5t-46.5 -36.5t-40 -31t-18 -13l-52 -33l-83 -58l66 -96q78 -114 146 -165t129 -51q28 0 38 15t10 32
q0 11 -16 22t-40.5 24t-54 30t-57.5 41t-50.5 55.5t-32.5 74.5q123 108 156 126q17 9 32.5 18t29.5 18q7 4 10 -6t3 -27t-3 -38.5t-7 -39.5q12 2 -3 0.5t-38 -7t-44 -15t-21 -23.5z" />
    <glyph glyph-name="A" unicode="A" horiz-adv-x="473" 
d="M377 223q5 -7 13 -29.5t16.5 -48.5t16.5 -48.5t13 -29.5q0 -1 0.5 -5t0.5 -7q0 -24 -19 -36.5t-40 -12.5h-23q-11 0 -15 13l-76 321l-16 30q-1 0 -8 -19.5t-18.5 -49t-25.5 -65t-27.5 -67.5t-25.5 -57t-19 -33q-12 -12 -19 -23t-14 -19t-17.5 -13t-29.5 -5h-4
q-4 3 -13 11.5t-11 12.5v5q0 28 14 51q7 11 27 48t53 101t65.5 142t64.5 172q39 14 42 14zM230 571q-35 -100 -67 -179t-63 -139q-33 -64 -53 -100.5t-27 -47.5q-15 -24 -15 -57v-8q4 -6 15 -17t16 -15h3q4 -4 7.5 -7t5.5 -5h7q30 0 42 10t23 26h-1q4 5 7.5 10t14.5 16
q8 9 21.5 38t29 66t30.5 76t26 68q4 10 5 14l73 -307q3 -14 17 -17l7 -7q6 -6 16 -6h23q24 0 45.5 14.5t21.5 42.5q0 2 -0.5 4.5t-0.5 4.5v5q-5 7 -13.5 29.5t-16.5 48.5q-9 24 -16.5 46.5t-12.5 31.5l-97 359l-11 11l-2 7q-11 0 -24.5 -4t-35.5 -12zM28 19q-3 1 -3 3z
M37 10q-1 0 -3 2z" />
    <glyph glyph-name="FL0042h" unicode="B" horiz-adv-x="413" 
d="M138 386q0 -1 -1 -7.5t0 -13.5t3.5 -13.5t10.5 -7.5q7 2 25.5 10t37.5 18t33.5 20t14.5 18q0 2 -5 10.5t-7 10.5q-4 4 -14 13.5t-22 20t-23 19.5t-16 12h-6q-17 0 -23.5 -13.5t-8.5 -31.5t-0.5 -36.5t1.5 -28.5zM102 152l2.5 -17.5t3.5 -21t4 -18l2 -7.5h25l85 64
q3 3 8.5 6.5t5.5 4.5v5v6q-2 4 -6 11t-8 13.5t-7.5 12t-4.5 6.5q-6 5 -17.5 12.5t-23.5 14.5t-21.5 11.5t-10.5 3.5l-25 -11l-2 -7.5t-4 -17.5t-3.5 -21t-2.5 -17v-17v-16zM16 88q0 5 -1 14t-1 20q0 13 -0.5 22t-0.5 14q0 30 5.5 59t13.5 57.5t17 57t16 57.5q3 15 5 38.5
t5 50t8.5 52.5t15.5 47.5t25.5 34.5t38.5 13q7 0 25.5 -14t41.5 -36.5t48.5 -49t46.5 -52t34.5 -46t13.5 -30.5q0 -21 -17.5 -33t-39 -22t-39 -20.5t-17.5 -29.5q0 -20 18 -32.5t39 -24.5t39 -27t18 -40q0 -6 -17.5 -22.5t-44.5 -38.5t-60 -46t-64 -44.5t-55.5 -33.5
t-35.5 -13q-30 0 -41 13t-15.5 31t-7.5 38.5t-17 35.5zM7 82q9 -10 13 -23.5t6 -27.5q3 -21 8.5 -39t25.5 -26l4 -4q8 -7 19 -11t29 -4q11 0 36.5 13.5t57 34.5t65.5 46t62 48t46 40.5t18 23.5q0 14 -5.5 25t-13.5 20q-9 17 -26 28.5t-35 21.5q-10 5 -18.5 10.5t-14.5 10.5
q-1 2 -1 8q0 14 15 23.5t34 18.5q24 11 44 24.5t20 38.5q0 8 -11 25.5t-28 39.5q-20 27 -50 60t-59 61.5t-53 48t-32 19.5q-32 0 -51 -19.5t-29.5 -49t-15 -64t-7.5 -64.5q-3 -27 -6 -46q-5 -17 -10 -35t-10 -35q-12 -40 -22 -80t-10 -85v-21q0 -3 0.5 -7t0.5 -8v-14
q0 -5 1 -10q0 -2 0.5 -3t0.5 -2v-6zM125 138v31q1 7 2 21t2 23.5t1 11.5l24 11h1q3 0 19 -9.5t30 -18.5q4 -6 8.5 -14.5t9.5 -15.5q2 -4 5 -7v-2q-3 -2 -7 -5.5t-7 -6.5l-78 -58h-8q-1 10 -1 20q0 11 -1 19zM161 369v2q0 3 -0.5 7t-0.5 9q0 7 -0.5 14t-0.5 15q0 20 4.5 38.5
t20.5 18.5h2q7 -6 16 -14t16.5 -15t14 -12.5t9.5 -8.5l1 -2q3 -4 5.5 -7.5l2.5 -3.5q0 -5 -10 -12t-24.5 -14t-30 -14t-26.5 -11q0 3 0.5 5.5t0.5 4.5z" />
    <glyph glyph-name="FL0043h" unicode="C" horiz-adv-x="487" 
d="M112 370l52 33q1 0 18 13t40 31t46.5 36.5t38.5 30.5q16 12 25 21.5t18.5 16t23.5 10t40 3.5h5q5 -2 17 -11t16 -13v-5q0 -22 -19 -42t-48 -38q-14 -9 -29.5 -18t-32.5 -18q-33 -18 -156 -126q10 -43 32.5 -74.5t50.5 -55.5t57.5 -41t54 -30t40.5 -24t16 -22
q0 -17 -10 -32t-38 -15q-61 0 -129 51t-146 165l-66 96zM13 315l73 -106q45 -66 86 -110t80 -70q70 -52 133 -52q32 0 44 17.5t12 37.5q0 10 -11 21l-3 2q-5 14 -22.5 25.5t-43.5 25.5q-35 18 -77 46t-74 75q-6 11 -11 23t-8 26q117 103 151 122q17 9 32.5 18t29.5 18
q31 20 51 41.5t20 45.5v9l-12 12v4q-3 2 -8.5 7t-11.5 9.5t-12 8.5t-9 5h-8q-21 0 -34.5 -2t-23 -6t-16.5 -10t-15 -13q-8 -8 -14 -13t-11 -10q-5 -4 -11.5 -9.5t-14.5 -11.5q-17 -14 -36.5 -29t-36.5 -28t-28.5 -21.5t-12.5 -8.5l-55 -35zM199 76l6 -5q2 -2 3.5 -4t3.5 -4
q-3 3 -6.5 6t-6.5 7zM247 177l7 -6l3 -3q-4 3 -10 9zM190 86l9 -10l-12 12l1 -1q1 0 2 -1zM247 177q-3 2 -7 8z" />
    <glyph glyph-name="D" unicode="D" horiz-adv-x="518" 
d="M192 465q-12 6 -23 12t-22 13q-1 -21 -2.5 -49t-3 -55t-3 -48t-2.5 -28q-1 -8 -2 -27t-2 -45.5t-3.5 -57t-6.5 -61.5q23 14 59 32t71 43.5t62.5 60.5t33.5 84q-123 108 -156 126zM15 33q0 4 0.5 13t0.5 12l48 485q-5 8 -3 19t2 19v5q2 2 6.5 5.5t9.5 7t9.5 7t7.5 4.5h5
h11q1 1 6 1h7q9 0 13 -4q12 -3 20 -7.5t15 -10.5t15 -13.5t20 -16.5q15 -12 38.5 -30.5t46.5 -36.5t40 -31t18 -13l52 -33l83 -58l-66 -96q-78 -114 -146 -165t-129 -51q-6 0 -10.5 -3t-8.5 -6t-7.5 -5t-6.5 0q-8 -38 -19.5 -49.5t-28.5 -7.5q-24 5 -36.5 21.5t-12.5 37.5z
M4 33q0 -41 33 -60l3 -3q15 -15 36 -19q3 -1 12 -1q17 0 27 12.5t18 44.5q3 1 6 3.5t7 4.5q3 2 6.5 4.5t7.5 2.5q63 0 132.5 51.5t149.5 167.5l71 103l-13 13l2 3l-93 64l-54 35q-1 0 -12.5 8.5t-28.5 21.5t-36.5 28t-36.5 29q-8 6 -14.5 11.5t-11.5 9.5q-12 9 -19 16
q-2 2 -3 2.5t-3 2.5q-11 9 -21 16.5t-26 12.5q-8 5 -18 5h-7q-7 0 -10 -1h-14q-3 -2 -9 -5.5t-12.5 -8t-12 -9t-8.5 -7.5v-10q0 -4 -1 -8q-1 -5 -1 -17v-7t2 -8l-47 -482v-12q0 -2 -0.5 -4.5t-0.5 -4.5v-5zM156 252q2 31 3 42q1 6 2 21t2 35t2.5 43.5t2.5 44.5v12t1 11
q8 -5 16.5 -9t17.5 -9q2 -2 5.5 -4t7.5 -4q20 -16 50 -40.5t70 -59.5q-6 -37 -25.5 -65.5t-46 -51t-55.5 -39t-54 -29.5l-6 -3q3 29 4 56.5t3 48.5z" />
    <glyph glyph-name="FL0045h" unicode="E" horiz-adv-x="487" 
d="M429 -24q-38 0 -54 6.5t-29 18.5q-11 7 -21 18q-8 8 -13.5 13t-11.5 10q-5 4 -11.5 9.5t-14.5 11.5q-24 19 -52 40.5t-45 34.5l-55 34l-90 63l-2 2l-17 12l73 106q79 116 149.5 168t134.5 52q22 0 34.5 -8.5t18.5 -20.5l3 -3q8 -8 11.5 -19t3.5 -22q0 -16 -19 -29
t-48 -28q-31 -17 -68.5 -40t-67.5 -58h6q14 0 28.5 2.5t30.5 6.5q15 4 30.5 7t32.5 3q19 0 31 -4v-1q30 -8 39 -29l4 -4q12 -11 12 -32q0 -8 -2 -16t-5 -19h-4q-11 -23 -28.5 -31.5t-37.5 -8.5q-10 0 -22.5 2t-24.5 5q-24 8 -43 8q-25 0 -49 -14q32 -26 55.5 -43t37.5 -25
h-1q20 -11 35 -19.5t28 -16.5q21 -14 37.5 -28.5t25.5 -30.5q21 -23 21 -46v-9q-5 -5 -19 -15t-21 -13h-6zM424 284q8 24 2.5 41.5t-34.5 25.5q-20 6 -41.5 3t-43 -8.5t-44 -9t-44.5 1.5l-26 -4q26 43 64.5 72t74 48.5t61 33.5t25.5 29q0 17 -10 32t-38 15q-61 0 -129 -51
t-146 -165l-66 -96l83 -58l52 -33q1 0 18 -13t40 -31t46.5 -36.5t38.5 -30.5q16 -12 25 -21.5t18.5 -16t23.5 -10t40 -3.5h5q3 1 7.5 4t9.5 7t9.5 7.5t6.5 5.5v5q0 22 -19 42t-48 38q-14 9 -29.5 18t-32.5 18q-14 8 -43.5 31t-74.5 61q27 20 54 22.5t59 -8.5
q16 -4 31.5 -5.5t29 1.5t24.5 12t19 26h2z" />
    <glyph glyph-name="FL0046h" unicode="F" horiz-adv-x="599" 
d="M11 52q0 1 -0.5 7.5t0 14t3.5 14t10 8.5q2 26 6.5 72t12.5 100.5t19 111t26.5 104t35 79.5t44.5 37q9 1 22 -10t28.5 -29t32.5 -39t34.5 -40t33.5 -33t29 -17q27 11 47 31l40 40t42 35t52 15q16 0 23 -11.5t12 -25.5q-7 -9 -27 -30t-43 -44t-44 -43t-30 -27
q-8 -8 -19.5 -18t-23 -19.5t-20 -16t-9.5 -6.5h-12l-60 60q-7 6 -20 20t-27.5 28t-29 25t-25.5 11h-6q-3 -3 -7.5 -6t-4.5 -6v-120q5 -3 18.5 -12.5t31 -22.5t36.5 -28t35 -28t26 -22.5t10 -12.5q0 -9 -7 -20.5t-17 -22t-21.5 -17.5t-21.5 -7q-3 0 -9 0.5t-9 0.5
q-2 4 -9 17.5t-17 28.5t-22 27t-24 12q-14 0 -21 -5t-15 -20q0 -7 -1.5 -24t-3.5 -36t-4 -36t-3 -24q-2 -9 -4.5 -22t-7.5 -24t-13.5 -19t-22.5 -8q-26 0 -37.5 14t-11.5 39zM0 52q0 -22 6.5 -36.5t22.5 -21.5l4 -4q14 -14 42 -14q15 0 24.5 6.5t15.5 16.5t9 22t5 23
q1 3 0.5 4.5t0.5 3.5q1 7 3 24t4 36t4 36.5t2 25.5q7 12 12 16t16 4q4 0 6 -1q11 -13 21.5 -31t16.5 -28q0 -1 1 -2v-3v-3l2 -5h5l12 -12q2 0 8 -0.5t9 -0.5h9q11 0 24 8t24.5 19.5t19 24.5t7.5 23q0 3 -10 13l-2 2q0 4 -16 18.5t-38.5 33t-47.5 37.5t-43 33v108l0.5 0.5
t2.5 1.5q4 2 5 3h2q7 0 18 -8t21 -19t19 -20l17 -17h-1l68 -68h4l12 -12h16q1 0 10.5 6.5t22 16.5t25 20.5t20.5 18.5h-1q9 7 30.5 28t45.5 45t44.5 45.5t27.5 30.5q-4 11 -8 20t-11 16l-2 2q-6 11 -14.5 18.5t-23.5 7.5q-38 0 -64.5 -20.5t-49.5 -44.5q-15 -16 -31.5 -31
t-36.5 -24q-9 3 -20 12t-23 21t-24 26.5t-24 29.5q-26 32 -48 55t-39 23h-4q-26 -5 -46 -36t-36.5 -77.5t-28 -102.5t-20 -111t-14 -103.5t-7.5 -79.5q-9 -7 -11.5 -16t-2.5 -17q0 -2 0.5 -4t0.5 -4v-8zM315 462q-4 3 -7 7z" />
    <glyph glyph-name="FL0047h" unicode="G" horiz-adv-x="618" 
d="M244 220v1l-8 7zM85 378q19 33 46.5 71.5t62.5 72t79 55.5t97 22q22 0 34.5 -8.5t18.5 -20.5l3 -3q8 -8 11.5 -19t3.5 -22q0 -15 -19 -28t-47 -28q-24 -13 -52.5 -30t-52.5 -39t-40 -51t-16 -66q0 -21 9 -37q20 -25 54.5 -45t69.5 -39q3 -2 6.5 -3.5t6.5 -3.5
q2 -2 4.5 -2.5t5.5 -2.5v0q0 1 1 1q0 5 0.5 10.5t1.5 11.5q0 4 0.5 7.5t0.5 8.5q0 2 0.5 5t0.5 6q1 6 1 12v12q-2 -1 -3.5 -2t-3.5 -1q-8 -3 -17 -5t-20 -2h-7q-8 0 -15 1t-12 6l-7 6q-15 3 -15 18v42q0 4 9.5 9t22 10t26 9t21.5 6l77 75l1 -2q3 3 6 4.5t11 4.5v-1l1 1
q1 0 2 1l6 3h9q14 0 23 -8t15 -19l1 -1q12 -12 18 -32t9 -34q2 -6 1.5 -7.5l-0.5 -1.5q2 -5 7.5 -14.5t11.5 -19.5t12.5 -19t9.5 -13v-2l1 -1q0 -23 -17 -32t-31 -9t-21 2t-12 7l-6 6q-12 4 -17 15q-2 -8 -1.5 -18.5t0.5 -21.5v-31q0 -9 0.5 -17.5t0.5 -17.5q0 -32 -6 -54
q8 -14 8 -28v-9q-2 -2 -7.5 -6.5t-11.5 -9t-11.5 -8t-8.5 -4.5h-7q-23 0 -39.5 3.5t-30 10t-24.5 15t-23 18.5v-1q-2 2 -4 3t-4 3l-6 6t-7 6l-12 9q-2 2 -3 2t-2 2q-10 8 -34 24t-47 31q-7 5 -12.5 9t-10.5 7v-1l-4 2l-4 2v1l-36 27l-22 16l-71 65l-15 15l70 102v-1
q19 33 46 71.5t62 71.5t78.5 55t95.5 22q27 0 41 -14l12 -12q6 -14 6 -29q0 -17 -19.5 -30t-48.5 -29q-24 -13 -52 -29.5t-51.5 -38.5t-39.5 -50.5t-16 -64.5q0 -28 21 -52q2 -5 5.5 -9.5t7.5 -9.5l-7 8q-14 14 -22 29.5t-8 33.5q0 37 16 66t40 51t52.5 39t52.5 30
q28 15 47 28t19 28q0 18 -9 32q-13 8 -32 8q-52 0 -95.5 -22t-78.5 -55t-62 -71.5t-46 -71.5h-1l-69 -100l57 -51l61 -46l2 -2q2 -2 7 -5t12 -7q10 -7 24.5 -16t29 -19t28 -19.5t22.5 -16.5q6 -5 11 -9.5t10 -8.5v1q12 -10 23 -18.5t24.5 -15t30 -10t39.5 -3.5h7
q3 1 8.5 4.5t11.5 8t11.5 9t7.5 6.5v9q0 5 -1 10t-3 10l-5 5l-1 7l2 -3q6 21 6 53q0 9 -0.5 17.5t-0.5 17.5v31q0 22 1 38t8 18l-3 8l5 -6l4 -2l15 -15h-6q4 -10 5 -14q1 -5 2 -8l2 -6q9 -3 24 -3q14 0 30 8.5t18 29.5l-1 1v5q-3 4 -9.5 13t-12.5 19t-11.5 19.5t-7.5 14.5
l0.5 1.5t-1.5 7.5q-3 12 -7.5 28t-12.5 29q-4 2 -7.5 3t-8.5 1h-8q-2 -1 -5.5 -2.5t-7.5 -3.5h-1q-6 -2 -10.5 -6.5l-4.5 -4.5l-2 2l-69 -67l2 -2l-6 -2h-1q-8 -2 -20.5 -5.5t-25 -8t-21.5 -9t-9 -8.5v-42q5 -1 16 -1h7q11 0 20 2t17 5q6 2 12.5 4t12.5 3q-1 3 -1 5v4
l23 -23q-5 0 -7 -1v-3q1 -4 1 -7v-3q-1 -9 -1.5 -19.5t-1.5 -21.5q-1 -9 -2 -17.5t-1 -16.5l2 -2l-2 -5l-1 1q0 -1 -1 -2l6 -5l-10 -1l-14 13q-2 2 -4 2.5t-4 2.5q-32 17 -63.5 35t-53.5 40q21 -17 48 -31.5t54 -28.5q6 -4 12.5 -7t12.5 -6q1 1 1.5 2t1.5 2q0 9 1 18.5
t2 20.5q1 9 1 18q0 10 1 18q-1 -1 -3 -1q0 1 0.5 2t0.5 3v3q0 3 -1 7q-6 -1 -11 -2.5t-10 -3.5q-8 -3 -17.5 -5t-20.5 -2h-7h-10q-4 0 -9 1l-8 9q-4 4 -4 9v42q0 4 9.5 9t22.5 9.5t26 8t20 5.5l76 74l1 -2q5 5 13 8v-1q4 2 7.5 3.5t5.5 2.5h8q14 0 24 -10l14 -14
q6 -13 10 -26.5t6 -24.5q1 -3 1 -6v-3q2 -5 7.5 -14.5t11.5 -19.5t12.5 -19t9.5 -13v-2l1 -1q0 -25 -18 -35t-33 -10t-24 3l-9 9q-3 2 -7 10q-1 -2 -1 -4q-2 3 -3 6t-2 8q-2 5 -4 11q-3 -6 -3.5 -19.5t-0.5 -30.5v-49q0 -5 0.5 -8.5t0.5 -8.5q0 -32 -6 -54q8 -14 8 -28v-10
q-3 -3 -8.5 -7.5t-11.5 -9.5t-12 -8.5t-9 -4.5h-8q-38 0 -60.5 9.5t-41.5 24.5q-2 2 -4 3t-4 3q-1 1 -2 1.5t-2 2.5v-1q-12 9 -15 13q-2 1 -3 2.5t-3 2.5q-20 15 -47.5 32.5t-44.5 29.5q-10 6 -16 10l-6 4l-3 2q-7 5 -12 8.5t-10 7.5h2l-16 12l-21 16h-1l-16 13l-74 67z
M29 276l66 -60l61 -46q1 -1 15 -10t33.5 -21.5t40.5 -27t36 -26.5q16 -12 29 -23.5t27.5 -20t32.5 -13.5t44 -5h5q5 2 17 11t16 13v5q0 14 -9 28q7 21 7 54q0 22 -1 45.5t0 42t5 30.5t14 12h4q5 -11 7 -19.5t5.5 -14.5t9.5 -9t20 -3q12 0 26 6.5t14 22.5q0 1 -0.5 2.5
t-0.5 2.5q-3 4 -8.5 12t-11.5 17.5t-11 18t-7 13.5q-2 4 -4.5 17.5t-8 28.5t-13.5 26.5t-21 11.5h-5q-5 -2 -14.5 -5t-9.5 -4l-77 -75q-1 0 -13 -2.5t-25.5 -6.5t-25 -8t-11.5 -8v-42q0 -5 7.5 -6.5t15.5 -1.5h7q19 0 34.5 7.5t34.5 7.5q0 -2 1 -11t1 -12q-2 -19 -3 -42
t-3 -40q-2 -2 -4 -5t-4 -7q-29 16 -61.5 33t-59.5 36.5t-44.5 42t-17.5 51.5q0 40 17 70t42 53.5t54.5 40.5t54.5 31t42 25t17 22q0 17 -10 32t-38 15q-50 0 -92 -21.5t-76.5 -54t-61 -70.5t-45.5 -70z" />
    <glyph glyph-name="H" unicode="H" horiz-adv-x="521" 
d="M342 48q13 5 19.5 41t11.5 90l-30 8q-1 1 -5 4t-9.5 8t-6.5 6q-14 8 -31 16.5t-39.5 17t-51.5 17.5t-68 19l-10 -78t-8 -77q-1 -2 -1 -15v-19q0 -14 -2.5 -29.5t-9 -28t-18 -20.5t-29.5 -8q-4 0 -12.5 4.5t-11.5 7.5v12q0 8 -0.5 18t-0.5 18v12q0 14 1 41t3.5 61.5
t6.5 74.5t10 80q-19 16 -19 26q0 9 9 20.5t21 21.5q6 34 14 64.5t17.5 53.5t21 36t24.5 13q3 0 7.5 -4.5t4.5 -7.5v-11q0 -7 0.5 -16t0.5 -16v-11q0 -26 -1.5 -52.5t-3.5 -52.5q23 -26 50.5 -35.5t57.5 -15.5t62.5 -16t65.5 -37q4 45 9 88t12.5 77t18.5 54.5t28 20.5
q18 0 27 -16t9 -33q0 -2 -1.5 -9.5t-3.5 -17l-4 -19t-3 -14.5q-21 -85 -27 -174t-9 -174l-36 -72l-3.5 -0.5t-6.5 -0.5q-23 0 -36.5 11.5t-13.5 37.5zM331 49q0 -43 28 -55l4 -4q14 -14 44 -14h4t11 2l39 77q3 85 9 174t27 174q0 4 1 6q3 13 7 32.5t4 23.5q0 13 -4.5 25.5
t-12.5 20.5l-3 2q-5 11 -15 19t-24 8q-19 0 -31.5 -19.5t-21.5 -52t-14.5 -74t-9.5 -86.5q-32 21 -60 30t-54 14q-25 5 -47.5 11.5t-42.5 21.5q2 24 3.5 48t1.5 50v11q0 3 -0.5 7t-0.5 9v27q0 6 -7 13l-6 5q-2 6 -9.5 13t-12.5 7q-16 0 -29 -13.5t-24 -37t-19.5 -55
t-14.5 -67.5q-13 -11 -22 -23.5t-9 -23.5q0 -14 18 -30q-6 -42 -10 -82t-6 -73.5t-3 -59t-1 -38.5v-30q0 -2 0.5 -5t0.5 -5v-25q2 -4 13 -9l5 -5q4 -4 15.5 -10t16.5 -6q21 0 34 9t20.5 22.5t10 30t2.5 32.5v19q0 11 1 13q3 36 7.5 72.5t9.5 73.5q67 -18 106 -33t65 -29
l14 -11l2 -1l14 -11l5 -2q-5 -45 -10 -73.5t-12 -30.5zM22 8l2 -2q-2 0 -2 2z" />
    <glyph glyph-name="J" unicode="I" horiz-adv-x="232" 
d="M25 64q0 2 0.5 4.5t0.5 4.5v12l60 516q4 24 21.5 35.5t38.5 11.5q14 0 20.5 -6t9.5 -15l6 -5q6 -6 8 -15.5t2 -20.5v-61q0 -15 -1.5 -45.5t-3.5 -63.5t-4 -60.5t-3 -35.5q0 -2 -0.5 -12.5t-1.5 -20.5q-1 -23 -3 -55t-5.5 -66.5t-8.5 -68.5t-12.5 -61t-18.5 -43.5
t-25 -16.5q-2 0 -3.5 0.5t-3.5 0.5q-23 4 -37 19l-3 3q-17 9 -25 25t-8 35v5zM36 59q0 -21 12.5 -37.5t36.5 -21.5q16 -4 27.5 16.5t19 54.5t12 76t7 80.5t4 68.5t2.5 40q1 8 3 35.5t4 60t3.5 63t1.5 45.5v40q0 7 0.5 16.5t-1 18.5t-6.5 15.5t-16 6.5q-17 0 -31.5 -9
t-17.5 -28l-60 -516q0 -3 -0.5 -12t-0.5 -13z" />
    <glyph glyph-name="FL004Ah" unicode="J" horiz-adv-x="431" 
d="M53 98q6 -6 10 -9q-3 1 -4 4zM44 108q3 -5 8 -8zM267 -41q-10 0 -28.5 8t-42 21.5t-49 31.5t-49.5 37q-20 15 -37.5 31t-31 31t-21.5 28.5t-8 24.5q0 29 13 51.5t48 22.5q29 0 48.5 -19t36.5 -40q16 -20 32.5 -35.5t37.5 -15.5h2q5 23 10 56.5t10 75.5q7 56 15.5 119
t20 116t26 87.5t33.5 34.5q23 0 37.5 -9.5t22.5 -24.5l1 -1q13 -13 18 -32t5 -39q-2 -36 -8.5 -69.5t-14.5 -66.5q-9 -37 -16.5 -73.5t-7.5 -73.5q0 -24 -1 -54t-4.5 -60.5t-10.5 -60t-18.5 -52t-28 -36.5t-40.5 -14zM394 534q0 30 -13 55t-48 25q-15 0 -27.5 -32.5
t-22.5 -82t-18 -108.5t-14.5 -113.5t-12 -96t-10.5 -55.5q-1 0 -5 -0.5t-7 -0.5q-25 0 -43 17t-34.5 38t-34.5 38t-43 17q-29 0 -39.5 -19t-10.5 -44q0 -14 15 -33.5t38 -40.5t51.5 -42t55 -37.5t48.5 -26.5t33 -10q33 0 52 29t28.5 70.5t12 88t2.5 81.5q0 36 6.5 71t15 70
t16 70.5t9.5 71.5z" />
    <glyph glyph-name="FL004Bh" unicode="K" horiz-adv-x="479" 
d="M1 534q0 38 18.5 52t53.5 14q18 0 29 -8t18 -21l2 -2q14 -14 18 -40t6 -55q1 -18 2.5 -34.5t6.5 -29.5q4 -4 13 -4h4q1 0 1.5 0.5t2.5 0.5q16 11 31.5 23.5t31.5 25.5q4 3 7 6t7 6q5 4 8.5 7t8.5 7q27 23 54.5 44t56.5 37h9q44 0 59 -30l4 -4q15 -15 15 -46
q0 -13 -12.5 -27.5t-33.5 -30t-47.5 -31.5t-53.5 -32q-36 -22 -68 -42t-51 -38q20 -14 45.5 -29.5t53.5 -32.5q24 -15 48 -29.5t44 -29t35.5 -28.5t22.5 -26q17 -19 17 -32q0 -62 -63 -62h-8q-17 8 -32 18.5t-30 21.5q-16 11 -31.5 23.5t-30.5 25.5q-3 3 -6.5 5.5t-6.5 5.5
q-2 2 -4.5 3.5t-4.5 3.5q-7 5 -13 10.5t-13 11.5l-14 10l-14 10l6 -30q5 -24 9 -49t4 -51q0 -29 -6.5 -43t-38.5 -14q-16 0 -27.5 2t-21.5 12l-4 4q-9 5 -17 14t-16 27l-3 31q-1 8 -1.5 15.5t-1.5 15.5q-9 88 -20 172t-34 173q-2 11 -4.5 18.5t-4.5 11.5q-6 14 -10.5 29
t-4.5 34zM12 534q0 -28 9 -47t15 -43q26 -103 37.5 -202.5t22.5 -205.5q11 -26 25 -32t35 -6q26 0 31.5 12t5.5 37q0 38 -8 74t-13 72q27 -16 52.5 -37t51.5 -42.5t52.5 -42t55.5 -35.5h6q55 0 55 54q0 13 -16.5 29t-42.5 34t-57.5 37t-62 37.5t-55.5 35.5t-38 31
q13 15 38 32.5t55.5 36t62 37t57.5 36t42.5 33.5t16.5 29q0 54 -55 54h-6q-27 -16 -52.5 -35.5t-51 -40.5t-50.5 -41.5t-50 -38.5q-1 0 -5 -0.5t-7 -0.5q-20 0 -28.5 14.5t-12 36t-4.5 46.5t-5 46.5t-14 36t-31 14.5q-29 0 -45 -11.5t-16 -43.5z" />
    <glyph glyph-name="l" unicode="L" horiz-adv-x="568" 
d="M13 500q0 25 11.5 39t37.5 14q13 0 22.5 -8t15 -19t8 -24t2.5 -22q2 -51 4 -79.5t5 -47.5t6 -34.5t8 -40t11 -64t14 -106.5q0 -3 4.5 -6t7.5 -6h6q11 0 25.5 11t29 25t27.5 28t20 20l54 55h12q1 0 6 -6.5t12 -16t15.5 -19.5t16.5 -17q9 -7 30 -27t44 -43t43 -44t27 -30
q-5 -14 -12 -25.5t-23 -11.5q-30 0 -50 14t-37.5 33.5t-36 39t-45.5 30.5q-14 -2 -29 -15t-30 -31t-30 -38.5t-28.5 -37.5t-25.5 -28t-21 -10q-25 5 -44.5 37t-35 79.5t-26.5 104t-19 111t-12.5 100.5t-6.5 72q-7 1 -10 7.5t-3.5 14t0 14t0.5 8.5zM2 500v-8q0 -2 -0.5 -4
t-0.5 -5q0 -9 2.5 -18t11.5 -15q2 -29 7 -74.5t12.5 -97t18 -105.5t25 -100t33.5 -80t42 -47q14 -14 30 -17h3q16 0 35.5 21.5t39.5 50.5q11 15 22 29.5t22.5 27t22.5 20.5t21 10q4 -2 7.5 -4t7.5 -4q9 -8 17.5 -16.5t16.5 -17.5q11 -14 22.5 -26t25.5 -20q14 -12 31.5 -20
t40.5 -8q20 0 28.5 14t15.5 32q-2 2 -5 5.5t-7 8.5v1q-8 10 -29 32t-45 46l-45 45t-30 28q-8 7 -15 16t-13 17q-2 2 -3.5 4.5t-3.5 4.5l-1 1q0 1 -1 2q-6 8 -10.5 12.5t-9.5 4.5h-17l-62 -63h5q-5 -3 -11 -8.5t-10 -9.5q-17 -18 -36.5 -36.5t-33.5 -21.5q-5 43 -9.5 73.5
t-8 52.5t-6 36.5t-5.5 26.5q-3 15 -5.5 28.5t-4.5 31t-4 43t-3 66.5q0 14 -5 34t-19 34l-3 2q-7 12 -17.5 20.5t-26.5 8.5q-32 0 -46 -17t-14 -47zM468 117q-6 5 -12 11l-11 11q5 -5 11 -10.5t12 -11.5zM426 19l6 -6zM426 19q-4 4 -5 6z" />
    <glyph glyph-name="M" unicode="M" horiz-adv-x="635" 
d="M118 351q11 0 32.5 1t43 4.5t37.5 10t16 17.5q0 5 -5 10t-12 9.5t-14.5 9t-11.5 7.5q-5 4 -17 19t-25 31.5t-23.5 29.5t-11.5 12l-12 -12zM336 372q1 -3 4 -8t7 -10.5t7.5 -10.5t5.5 -7q7 -8 21.5 -13.5t29 -8.5t25.5 -4l11 -1h24q-4 0 0.5 9t11 21.5l13 25t6.5 19.5
q0 14 0.5 26t0.5 19q0 5 -0.5 13.5t-0.5 16.5t-0.5 15t-0.5 8l-12 12zM289 343q-10 0 -28.5 -5t-39 -12.5t-38 -15t-26.5 -12.5q-27 -24 -37.5 -49t-12.5 -53.5t0.5 -61.5t0.5 -74q-11 -18 -20.5 -27.5t-27.5 -9.5q-14 0 -24 5.5t-24 19.5v8q0 6 -0.5 13t-0.5 12v9
q0 24 -0.5 74.5t1 112.5t6 127t14 118.5t25 88t39.5 34.5q15 0 30.5 -16t31 -39.5t31.5 -51.5t33.5 -51.5t36.5 -39.5t41 -16q3 0 7 0.5t5 0.5q54 32 109.5 68.5t106.5 75.5q3 1 9 1.5t9 0.5q18 0 36 -11t18 -32q0 -32 -5.5 -64.5t-13 -65t-15.5 -65t-14 -64.5
q-1 -5 -1.5 -14t-0.5 -22q0 -29 -2 -70t-8.5 -79t-19 -65t-34.5 -27q-5 0 -14 4t-18 9.5t-15.5 12t-6.5 11.5l15 189zM202 541q-11 20 -22 37t-22 31q-15 20 -30 33.5t-32 13.5q-22 0 -37.5 -23.5t-26.5 -62t-17 -88.5t-9.5 -102.5t-4.5 -104.5t-1 -94v-112q0 -2 0.5 -3.5
t0.5 -3.5v-19q8 -8 14.5 -14t13.5 -10q12 -11 22 -15t24 -4q21 0 31.5 11t24.5 32v26v27q0 14 -1 26q-1 10 -1 19v19q0 33 9 61.5t38 54.5q8 4 24.5 11.5t35.5 14.5t36.5 12t28.5 6l134 -100l-14 -184q0 -7 7.5 -15t18.5 -16h1q10 -11 27.5 -20t25.5 -9q24 0 38.5 28t22 67
t9.5 81.5t2 72.5q0 12 0.5 21t1.5 14q4 21 9 41.5t10 41.5q11 44 20 88t9 89q0 18 -14 32l-2 2q-8 17 -26 26t-35 9q-4 0 -11.5 -0.5t-10.5 -1.5q-48 -36 -104.5 -73t-113.5 -72h-6q-20 0 -39 17.5t-37 43.5q-6 9 -11.5 18.5t-10.5 19.5zM361 355l130 103v-8q0 -2 0.5 -4.5
t0.5 -4.5v-41q0 -4 -0.5 -7.5t-0.5 -8.5q0 -4 -5 -14t-11 -21q-1 -1 -1 -2t-1 -2q-5 -8 -8 -14t-5 -11h-13q-24 2 -37 3t-20.5 3.5t-11.5 6t-10 10.5h-1q-2 3 -3.5 6t-2.5 6zM144 475q3 -4 6.5 -7.5t6.5 -7.5q12 -17 24.5 -32t19.5 -20q2 -1 2.5 -1.5t2.5 -1.5l2 -1l4 -4
q0 -2 3 -2l1 -1q2 -2 5 -3.5l7 -3.5q2 -1 2.5 -1.5t2.5 -1.5l3 -3q0 -6 -9.5 -10t-24 -6.5t-31 -4t-31.5 -1.5l-2 118q2 -2 3 -2.5t3 -2.5zM258 457q-4 4 -6 7l11 -11q-4 2 -5 4zM145 622l-1 1q1 0 1 -1z" />
    <glyph glyph-name="Z" unicode="N" horiz-adv-x="491" 
d="M153 280l12 -12v-247q0 -5 -8 -12.5t-17 -15.5l1 -1q-4 -4 -8.5 -8t-7.5 -7q-5 -1 -10 -1q-11 0 -21.5 6t-20.5 15q-11 7 -20.5 16.5t-17.5 19.5q1 15 1 31v31q0 94 -10 184t-27 187v8q0 26 15.5 40t37.5 14q12 0 26.5 -7.5t30.5 -19t32 -25.5t30 -27q11 -11 20.5 -19.5
t17.5 -13.5q10 -8 27 -19.5t33 -22.5t28 -19t13 -8h8q0 11 0.5 24t1.5 25q0 9 0.5 17.5t1.5 16.5t1 14v11q-1 9 -3.5 19t-5.5 20q-1 2 -2 4.5t-2 5.5q-5 16 -9 32.5t-4 38.5q0 29 14 44.5t53 15.5q20 0 29.5 -6.5t14.5 -17.5l4 -4q6 -6 8.5 -15t5.5 -20h1q1 -2 1 -5
q0 -2 1 -4q10 -38 19 -82t15.5 -88.5t10.5 -87.5t4 -80q0 -32 -12.5 -50.5t-46.5 -18.5q-32 0 -60.5 16t-56.5 38q-10 8 -19.5 16t-19.5 16l-18 14l-18 14q-17 11 -35 18.5t-36 9.5q-1 -1 -1 -4q-2 -6 -2 -8v-6zM142 276q-9 2 -11 8t-1.5 13t2.5 14t2 11q37 0 70 -22.5
t65.5 -49t65.5 -49t69 -22.5q29 0 40 16.5t11 44.5q0 37 -4 79.5t-10.5 87t-15.5 88t-19 81.5q-6 21 -12 34.5t-30 13.5q-33 0 -44.5 -12.5t-11.5 -36.5q0 -16 3.5 -31t8 -29.5t8.5 -29t6 -29.5q0 -7 -1 -24t-1.5 -36t-1.5 -36t-1 -24h-19q-1 0 -14 8t-30.5 19.5t-35.5 24
t-28 20.5q-12 9 -32 27t-41.5 36.5t-42 32t-34.5 13.5q-17 0 -29.5 -11t-12.5 -32v-6q20 -111 30 -215.5t6 -216.5q10 -12 24.5 -24.5t29.5 -12.5q1 0 3.5 0.5l2.5 0.5q4 4 10 9.5l12 11t10 9.5t4 6v240z" />
    <glyph glyph-name="FL004Fh" unicode="O" 
d="M190 312q0 -16 9.5 -46t23.5 -59.5t30.5 -51.5t30.5 -22q13 0 32 25t36.5 59t29.5 68.5t12 54.5q0 14 -11 35.5t-26 42t-32 35t-29 14.5q-9 0 -27 -20t-35.5 -46.5t-30.5 -52t-13 -36.5zM184 106q-7 33 -25 58t-38.5 46.5t-38.5 42.5t-26 46q-1 2 0.5 9t1.5 11
q6 4 19.5 19t29 32.5t29 33t18.5 21.5q18 21 37 57.5t40.5 71.5t46 60.5t53.5 25.5h10q9 0 17.5 -2.5t11.5 -12.5q8 -45 21 -89.5t39 -83.5q12 -17 31 -36.5t34 -40t21.5 -41.5t-6.5 -41l-211 -325zM176 99l125 -149l1 3l13 -13l217 334q5 8 7 15.5t2 15.5q0 18 -11 37
t-26 37q-8 11 -17.5 22t-18.5 22q-2 3 -4.5 5.5t-4.5 5.5q-4 3 -7 7q-26 38 -38.5 82t-20.5 90q-1 6 -6 11l-2 1q1 0 1 -1h1l-7 6q-4 14 -16 17.5t-23 3.5h-10q-23 0 -42 -13t-35.5 -33t-31.5 -46t-29 -51q-13 -23 -24.5 -43.5t-22.5 -32.5q-5 -6 -18.5 -21.5t-29 -33
t-30 -33t-21.5 -20.5v-6q0 -3 -1 -5q-1 -3 -1 -7v-5v-5q7 -24 23.5 -44.5t35.5 -40.5q23 -23 42.5 -48t26.5 -59zM213 297q0 10 12 34.5t28.5 49.5t32.5 44t25 19q6 0 14 -5q10 -10 20.5 -23t19 -27t13.5 -27t5 -22q0 -18 -11 -51t-26.5 -65.5t-32.5 -56t-29 -23.5
q-9 0 -20 11q-10 15 -19 35t-16 40.5t-11.5 38t-4.5 28.5z" />
    <glyph glyph-name="FL0050h" unicode="P" horiz-adv-x="455" 
d="M144 468q-1 -1 -3 -14t-4 -30t-3.5 -35t-1.5 -29q0 -7 -0.5 -25t-1.5 -38.5t-1.5 -38.5t-0.5 -25q7 0 31 13.5t50.5 31t49.5 34.5t29 24q-9 11 -24.5 29.5t-34 39.5t-38 41t-35.5 34zM12 48q1 4 5 23.5t8 42t7.5 42t3.5 24.5q1 7 2.5 28t2.5 49.5t2.5 60.5t2.5 60.5
t1.5 49.5t0.5 28q1 18 3 43t8.5 47.5t20.5 38.5t40 16q3 0 12 -0.5t12 -0.5l132 -132q10 -9 34.5 -26.5t49 -37.5t43.5 -40t19 -34q0 -22 -21.5 -41t-53.5 -35.5t-70 -31.5t-71.5 -29.5t-57.5 -29.5t-28 -31q-4 -15 -5 -37.5t-5 -44t-15 -36.5t-36 -15q-18 0 -25 8t-22 29v5
v7zM1 51v-19q1 -2 4 -5q1 -2 2.5 -3.5l2.5 -2.5q8 -13 13.5 -19.5t13.5 -10.5l6 -5q5 -5 12 -7.5t19 -2.5q21 0 33.5 9.5t19 24t8.5 32.5t3 35q1 11 2 20.5t3 17.5q2 10 13.5 19t29.5 18.5t40 18.5t46 19q31 13 62 26.5t55.5 28.5t40 32.5t15.5 37.5q0 9 -6 19.5t-16 21.5
q-8 11 -20.5 23.5t-27 24.5t-29.5 23.5t-28 21.5q-9 6 -16.5 11.5t-12.5 10.5l-140 140h-17q-2 0 -4 0.5t-4 0.5h-4q-28 0 -43.5 -15.5t-24 -38t-11 -48t-3.5 -45.5q0 -2 -0.5 -3t-0.5 -2v-4q0 -7 -0.5 -28t-1.5 -49.5t-2.5 -60t-2.5 -60t-2.5 -49.5t-2.5 -28q0 -5 -3.5 -24
t-7.5 -41.5t-8 -41.5t-5 -23zM272 338q-10 -8 -24.5 -19t-31.5 -22.5t-34 -22t-31 -18.5q1 6 1 12t1 13q1 20 1.5 38.5t0.5 25.5q0 11 1 28t2.5 33t3.5 28t3 13l4 4q28 -28 56.5 -60t46.5 -53zM179 446l-2 2zM153 471l3 -3z" />
    <glyph glyph-name="FL0051h" unicode="Q" 
d="M190 312q0 -14 7.5 -28.5t19.5 -26t26.5 -18.5t28.5 -7q13 0 34 10t40.5 25.5t33.5 33.5t14 35q0 13 -11 32.5t-26 38t-32 31.5t-29 13q-9 0 -27 -18t-35.5 -42t-30.5 -47t-13 -32zM8 -24q0 33 25 55t55 40.5t55 38t25 47.5q0 26 -17.5 41.5t-38.5 29t-38.5 29.5
t-17.5 43q0 3 1 9t1 9q6 4 19.5 17t29 29t29 30t18.5 20q18 19 37 51.5t40.5 64t46 54.5t53.5 23h10q9 0 17.5 -1.5t11.5 -11.5q8 -40 21 -80.5t39 -75.5q12 -15 29 -27.5t32 -27t26 -31.5t11 -39q0 -25 -13.5 -42.5t-33.5 -30.5t-44 -23.5t-44 -20.5t-33.5 -21t-13.5 -25
l12 -12q10 -9 36.5 -26t53.5 -36.5t48 -39.5t21 -36q0 -4 -1 -15t-2 -15q-12 -12 -27.5 -12.5t-29.5 -0.5q-36 0 -59.5 18.5t-43.5 42t-41 45t-51 27.5q-48 -32 -95 -73t-85 -83q-3 -1 -9.5 -1.5t-8.5 -0.5q-18 0 -37 11t-19 33zM-3 -24q0 -16 9 -27.5t22 -18.5l1 -1
q10 -10 23.5 -15t26.5 -5q3 0 11 0.5t11 1.5q39 44 85 83.5t93 71.5q13 -3 27 -12q9 -8 17 -17l16 -18l26 -28t29 -25q15 -14 33.5 -23t44.5 -9h14q13 0 26 2.5t24 13.5q1 5 2.5 18t1.5 17q0 9 -5.5 18t-14.5 19q-7 12 -20 24.5t-28.5 25t-32.5 24.5t-32 22v-1
q-11 7 -20.5 12.5t-17.5 10.5v1h2l-1 1q5 13 24 22.5l43 21.5q20 9 40 19t36.5 23.5t27 30t10.5 39.5q0 19 -7 33.5t-18 26.5q-9 16 -23.5 28.5t-28.5 24.5q-17 12 -30 27q-21 32 -32 69t-19 74q-3 8 -6 11l-7 6q-5 15 -16.5 17.5t-22.5 2.5h-10q-22 0 -41 -11.5t-36 -29.5
t-32 -41t-29 -46t-26 -41.5t-21 -27.5q-5 -6 -19 -20.5t-29.5 -30t-30 -29.5t-20.5 -18v-6q0 -2 -0.5 -2.5t-0.5 -1.5q-1 -3 -1 -7v-6q0 -30 16.5 -47.5t37.5 -30.5q6 -5 12 -9t13 -8q2 -2 4.5 -4t5.5 -4l1 -1h1q9 -8 15 -18t6 -21q0 -21 -21.5 -38.5t-48.5 -34.5
q-17 -10 -33 -20.5t-28.5 -23.5t-20.5 -28.5t-8 -35.5zM213 297q0 9 12 30.5t28.5 44t32.5 39.5t25 17q7 0 18 -7q10 -9 20 -20t17.5 -23t12 -23t4.5 -19q0 -15 -12.5 -31.5t-30.5 -30t-37 -22.5t-31 -9q-29 0 -52 26q-7 13 -7 28z" />
    <glyph glyph-name="FL0052h" unicode="R" horiz-adv-x="484" 
d="M221 346l55 33v24l-42 42h-16q-1 0 -3 -7t-4.5 -17.5t-5 -21.5t-3.5 -18q0 -5 -0.5 -16.5t-2.5 -22.5v-7q9 3 23 11h-1zM12 47q0 38 10.5 76t22.5 76q9 28 16.5 54.5t10.5 47.5q1 14 3.5 43.5t8 65.5t14 74t21 69t30.5 51t41 20q16 0 41 -15t52 -38t54 -52.5t48 -57.5
q26 -32 42 -60t16 -45q0 -14 -6 -24.5t-15.5 -18.5t-21.5 -14t-25 -12q-20 -10 -37 -20t-17 -30v-4l99 -98q12 -10 20 -12q7 -3 10 -5.5t4 -9.5l9 -8q4 -4 4 -23q0 -37 -18.5 -51t-51.5 -14q-34 0 -59 22q-23 12 -39 34.5t-30 45.5q-11 17 -21.5 32.5t-23.5 27.5
q-17 9 -36 9q-11 0 -15 -3t-7 -17q-2 -8 -5.5 -28.5t-7.5 -43.5t-7 -44t-4 -30l-40 -40h-9q-33 0 -49 16l-3 3q-29 13 -29 51zM287 408v-36l-60 -36q-9 -5 -14.5 -7.5t-10.5 -4t-12 -2t-17 -0.5q0 3 1 14t2 23t2 22.5t1 14.5q1 8 4.5 20.5t7.5 24t7.5 19.5t4.5 8h24zM23 47
q0 -25 15 -36t40 -11h5l36 36q1 9 4 29t7 43t7.5 43t5.5 29q4 19 9.5 22.5t20.5 3.5q26 0 44.5 -12.5t33.5 -31.5t27.5 -41.5t27.5 -41.5t33 -31.5t43 -12.5q29 0 45.5 12.5t16.5 44.5q0 12 -1 15.5t-5 5t-11 4.5t-20 15l-108 108q0 1 -0.5 5t-0.5 7q0 23 19 35t42 22.5
t42 23.5t19 38q0 15 -12.5 38.5t-33 50.5t-46 54t-51 49t-48.5 36t-39 14q-21 0 -36.5 -19.5t-27 -49.5t-19.5 -67t-13 -71.5t-7.5 -63t-3.5 -42.5q-4 -29 -14 -60.5t-20 -64t-18 -65t-8 -63.5z" />
    <glyph glyph-name="S" unicode="S" horiz-adv-x="501" 
d="M323 286q12 3 12 6l-1 4q-29 -7 -56 -26t-53 -41q-33 -28 -67 -50.5t-72 -22.5q-28 0 -42 14l-4 3q-17 8 -23.5 25t-6.5 42q0 38 3.5 81.5t10 88t15.5 88t20 81.5v1q1 0 1 2t1 5q3 11 6 20t8 15t14 9.5t23 3.5q27 0 41.5 -8t19.5 -23l2 -1q0 1 -1 1v1l3 -3q13 -13 13 -42
q0 -20 -4 -36.5t-9 -32.5q-4 -14 -7 -26.5t-5 -23.5q0 -8 0.5 -24.5t1.5 -35.5v-18q0 -8 1 -16h5l11 7.5t26 19t31 23t26 19.5q7 5 15.5 13t19.5 18q14 13 30.5 27.5t32.5 26.5t31.5 19.5t27.5 7.5q34 0 48 -29l3 -3q14 -14 14 -37v-7q-17 -94 -27.5 -180.5t-10.5 -177.5
q0 -18 0.5 -37t1.5 -38q-11 -14 -28.5 -28.5t-33.5 -14.5h-6t-5 1l-11 11q-2 0 -2.5 0.5t-2.5 0.5l-20 19q-9 8 -15 15.5t-6 12.5v250zM334 36q0 -2 4 -6t10 -9.5l12 -11t10 -9.5l2.5 -0.5t3.5 -0.5q14 0 29 12.5t25 24.5q-5 112 5 216.5t31 215.5v6q0 21 -12.5 32t-29.5 11
q-15 0 -35.5 -13.5t-42 -31.5t-41 -36.5t-31.5 -27.5q-11 -8 -29 -20.5t-35.5 -24t-30.5 -19.5l-13 -8h-19q0 7 -1 24t-1.5 36t-1.5 36t-1 24q3 31 14 59t11 60q0 24 -11.5 36.5t-43.5 12.5q-24 0 -30 -13.5t-12 -34.5q-11 -38 -20 -81.5t-15.5 -87.5t-10 -87t-3.5 -80
q0 -28 10.5 -44.5t39.5 -16.5q36 0 69 22.5t65.5 49t66 49t69.5 22.5q0 -4 2 -11t3 -14t-1 -13t-11 -8v-240z" />
    <glyph glyph-name="T" unicode="T" horiz-adv-x="455" 
d="M156 72q1 3 5 12t7 12q1 11 4 40t7 61.5t7.5 61.5t5.5 41q3 17 8 29.5t5 30.5q0 3 -0.5 12t-0.5 12q-5 1 -17 6t-25.5 11t-25.5 11.5t-16 7.5q-9 4 -27 11.5t-36 17.5t-31.5 21t-13.5 22q0 8 7 18.5t17.5 19.5t21.5 15.5t20 6.5q18 0 33 -10.5t30 -23.5t31.5 -23.5
t37.5 -10.5v176q0 7 7.5 15.5t18 16t20 12.5t14.5 5q1 0 3.5 -0.5l2.5 -0.5q4 -4 10 -9.5l12 -11t10 -10t4 -5.5v-228q0 -14 8 -20.5t20.5 -10t26.5 -6t26.5 -8t20.5 -16t8 -29.5q0 -18 -11.5 -30t-32.5 -12h-6l-48 12q-1 0 -6 0.5t-7 0.5q-11 0 -16 -7t-6.5 -17t-1 -20
t0.5 -17q0 -12 -1.5 -41t-3.5 -61.5t-4 -61.5t-3 -40q-6 -16 -10.5 -27.5t-10.5 -19t-15.5 -11t-24.5 -3.5q-28 0 -43.5 19.5t-15.5 47.5v6zM145 66q0 -23 9.5 -42t27.5 -28l2 -2q18 -18 46 -18q17 0 27 3.5t17 10.5t11.5 18.5t10.5 26.5h-1l3 6h1v1q1 12 3 41t4 61.5
t3.5 62t1.5 42.5v21q0 11 2.5 21.5t12.5 10.5q2 0 4.5 -0.5t4.5 -0.5h2l48 -12h8q25 0 38.5 14t13.5 36q0 26 -15 41l-2 2q-8 20 -26.5 26.5t-38.5 11.5q-8 2 -15.5 3t-12.5 4v230q0 4 -12 16q-1 3 -7.5 10.5t-14.5 15.5h1q-5 4 -8.5 7.5l-5.5 5.5l-6 6q-8 2 -9 2h-3
q-6 0 -17.5 -6t-23.5 -15t-21 -19.5t-9 -19.5v-163q-17 3 -29.5 11.5t-23.5 19.5q-16 13 -32 24t-36 11q-10 0 -23.5 -7.5t-25.5 -18.5t-20 -23.5t-8 -21.5q0 -12 10.5 -23t26.5 -21q17 -14 41 -25.5t41 -19.5q4 -2 10 -6q2 -1 8 -3v1q9 -5 25 -12t30 -13q0 -2 0.5 -3.5
t0.5 -2.5v-4q0 -12 -5 -27q-1 -2 -1 -3t-1 -3q-2 -5 -3 -12t-3 -14q-2 -11 -5.5 -38.5t-7 -59t-7 -60.5t-4.5 -43q-5 -6 -8 -14t-4 -11v-9z" />
    <glyph glyph-name="FL0055h" unicode="U" horiz-adv-x="513" 
d="M172 230q3 -5 8 -8zM143 576l4 -4q6 -6 8 -9l1 -14v-44l-14 -228q0 -15 22 -40q-16 17 -26.5 31.5t-10.5 23.5l14 228v44l-1 14h-1v1q-17 13 -47 13q-7 0 -16.5 -1t-18 -5t-14.5 -10.5t-6 -16.5v-264h-1l-22 -88q0 -5 0.5 -7.5t1.5 -4.5q3 -5 3 -6v-3l2 -4q5 -3 14 -4
q17 -5 36 -11t22 -8l1 -1q9 -5 32.5 -20t52.5 -33q30 -19 62 -39t60.5 -37t49 -28t27.5 -11q20 0 36 13t27.5 32t17.5 39.5t6 34.5q0 10 0.5 28t1.5 41q1 40 2 91t1 99q0 39 -1 72t-4 55v1q0 14 -3 32.5t-13 32.5q-12 7 -25 7q-9 0 -19 -3t-18.5 -8.5t-14 -14t-5.5 -19.5
v-384q0 -7 -7.5 -17.5t-14.5 -10.5q-11 0 -31 10.5t-43.5 26.5t-47.5 35.5t-43 38.5l-2 1q19 -18 41.5 -35t44 -31t39 -22.5t27.5 -8.5q7 0 14.5 10.5t7.5 17.5v384q0 11 5.5 19.5t14 14t18.5 8.5t19 3q20 0 33 -13l13 -13q8 -14 10.5 -30.5t2.5 -29.5q3 -22 4 -55.5
t1 -73.5q0 -37 -0.5 -75.5t-1.5 -73.5q0 -11 -0.5 -21t-0.5 -20q0 -6 -0.5 -12t-0.5 -11q-1 -15 -1 -27v-19q0 -15 -6.5 -35.5t-18 -40t-28 -33t-37.5 -13.5q-8 0 -29 11t-49.5 28t-60.5 37t-62 39q-31 20 -55 35l-32 20q-6 2 -23.5 7.5t-32.5 10.5q-4 1 -7 1t-5 1l-10 11
q-3 3 -8 13v3q0 1 -3 6q-1 2 -1.5 4.5t-0.5 7.5l23 90v262q0 10 6 16.5t14.5 10.5t18 5t16.5 1q36 0 55 -20l11 -11l1 -12v-44l-14 -228q0 -10 12 -25.5t31 -33.5t42 -36.5t45.5 -33.5t41 -24.5t28.5 -9.5q6 0 12.5 9.5t6.5 15.5v384q0 12 6 21t15 15t19.5 9t19.5 3
q17 0 28 -8.5t18 -20.5l2 -2q14 -14 18.5 -35t4.5 -38q3 -22 4 -55.5t1 -73.5q0 -48 -1 -99t-2 -91q-1 -23 -1.5 -41t-0.5 -28q0 -14 -6 -34.5t-17.5 -39.5t-27.5 -32t-36 -13q-7 0 -27.5 11t-49 28t-60.5 37t-62 39q-31 20 -55 34.5t-32 19.5l-1 1q-6 2 -23.5 7.5
t-32.5 10.5q-16 3 -23 10l-5 4q-9 3 -13 8t-8 15v4q0 1 -3 6q-1 2 -1.5 5t-0.5 8l23 91v260q0 12 6 19t15 10.5t19 5t18 1.5q44 0 66 -31v-3zM132 574q-18 25 -55 25q-6 0 -14 -1t-15.5 -3.5t-12.5 -7.5t-5 -13v-264l-23 -90q0 -4 3 -9t2 -9q3 -7 7.5 -10t17.5 -6
q7 -2 16.5 -5t18.5 -6t15.5 -5.5t8.5 -3.5q8 -4 30.5 -18t51.5 -32.5t62 -39.5t61.5 -38t49.5 -28.5t27 -11.5q18 0 32.5 12.5t25 30t16 36.5t5.5 32t1 41t1.5 63.5t1.5 76t1 78.5q0 39 -1 72.5t-4 55.5q0 10 -2 24t-7 26t-14.5 20.5t-24.5 8.5t-32 -9t-17 -28v-384
q0 -4 -3 -10t-7.5 -12t-10 -10t-9.5 -4q-11 0 -30.5 10t-43 26t-48 35.5t-44.5 39t-32.5 36.5t-12.5 27l14 228v10v33z" />
    <glyph glyph-name="FL0056h" unicode="V" horiz-adv-x="473" 
d="M77 360q-5 7 -13.5 29.5t-17.5 48.5t-16.5 48.5t-11.5 29.5q0 1 -0.5 5t-0.5 7q0 24 19 36.5t40 12.5h22q9 0 16 -13l76 -320l15 -30q1 0 8.5 19.5t19 49t25.5 64.5t27.5 67.5t25.5 57t19 32.5q12 12 19 23t14 19t17 13t29 5h5q4 -3 12.5 -11.5t11.5 -12.5v-5
q0 -29 -15 -51q-7 -11 -27 -48t-53 -101q-66 -128 -129 -313q-38 -15 -42 -15zM164 -4q2 0 4 1l13 -13q10 0 55 18q63 189 129 314q33 64 53 101t27 48q16 23 16 55v7l-12 12v4l-32 32h-8q-31 0 -44 -11t-25 -30q0 -1 -0.5 -1.5l-0.5 -0.5q-4 -5 -8 -10.5t-9 -10.5
q-7 -8 -18.5 -31.5t-24.5 -54t-26.5 -64.5t-25.5 -64q-2 -5 -4 -10.5t-4 -10.5q-3 -8 -6 -14.5t-5 -12.5l-71 302q-5 7 -9 12l-2 2l-1 4q-12 19 -27 19h-22q-25 0 -47.5 -15.5t-22.5 -44.5v-5q0 -2 0.5 -2.5t0.5 -1.5v-6q2 -3 5 -13t8 -24q2 -6 5 -12.5t5 -14.5
q11 -32 21.5 -60.5t15.5 -36.5z" />
    <glyph glyph-name="W" unicode="W" horiz-adv-x="623" 
d="M588 494q0 -23 -1 -69t-4.5 -101t-11 -113t-19.5 -105t-29.5 -77.5t-42.5 -30.5q-3 0 -7 0.5t-5 1.5l-180 180l-4 0.5t-7 0.5q-10 0 -18.5 -2.5t-18.5 -10.5q-7 -6 -24.5 -23t-36.5 -36t-36 -36.5t-23 -24.5q-4 -2 -14.5 -5.5l-22.5 -7.5t-22 -7t-13 -4q-1 0 -6 -0.5
t-7 -0.5q-14 0 -19 10.5t-5 21.5v16q0 35 9.5 68t15.5 65q1 4 3 19t4 32.5t3.5 33.5t1.5 23q1 13 3 45t4 68.5t3.5 69t1.5 45.5q8 18 17.5 21.5t23.5 3.5q20 0 31.5 -7.5t17 -20.5t6.5 -29t1 -33q0 -33 -5 -65.5t-11.5 -64t-12.5 -64t-8 -65.5q4 -10 10 -11.5t14 -1.5
q3 0 7 0.5t5 0.5q11 12 24 30.5t28.5 36t33.5 30t40 12.5q21 0 36.5 -12t28.5 -29.5t24.5 -38t24 -38t27.5 -29.5t34 -12q13 0 18 11t6 26t0 29t-1 20q0 9 0.5 30t1.5 47t2.5 54.5t2.5 55t2.5 47t2.5 30.5q2 7 7.5 16.5t13 18.5t15 16t12.5 9q12 5 21 -3.5t15 -21t9 -26
t3 -19.5zM477 -21q2 -2 7.5 -3t10.5 -1q27 0 46 30.5t32 79t20.5 107t11.5 114.5t5 102.5t1 70.5q0 4 -1.5 13.5t-5 20t-9 20.5t-12.5 17l-2 1q1 -1 2 -1l-3 2q-6 11 -14 18t-18 7h-1v2q-8 -3 -18.5 -11.5t-20.5 -19t-17.5 -21.5t-9.5 -18q-2 -15 -4 -53t-3.5 -81t-3 -81.5
t-1.5 -53.5v-4q0 -2 0.5 -4t0.5 -4q1 -5 1 -12v-12q0 -14 -2.5 -26.5t-11.5 -12.5q-23 0 -41 22.5t-34 50.5q-5 8 -9 15t-9 14q-3 5 -6.5 8t-6.5 7l-15 15q-11 11 -24 17.5t-30 6.5q-18 0 -33.5 -8t-29 -20t-25.5 -27t-22 -29q-5 -7 -9.5 -12.5t-10.5 -12.5q-2 0 -4 -0.5
t-4 -0.5h-1v3q-10 0 -12 4q2 28 7 56.5t11 57.5q1 3 1 6t1 6q6 32 11.5 64t5.5 67q0 19 -1.5 37.5t-8.5 32.5l-12 13q-14 15 -45 15q-17 0 -27.5 -4.5t-21.5 -27.5q0 -13 -1.5 -45.5t-3.5 -69t-4 -68.5t-3 -45q0 -7 -1.5 -23t-3.5 -33t-4 -32t-3 -19q-2 -11 -4.5 -21.5
t-5.5 -21.5q-5 -22 -10 -44.5t-5 -47.5v-16q0 -9 2.5 -17.5t8.5 -14.5l9 -10q3 -1 12 -1h4q2 0 2.5 0.5t2.5 0.5h7q3 1 13.5 4t22.5 7t23.5 8t15.5 6q6 7 23.5 25t37 37.5l36.5 36.5t24 23q8 6 15 8t15 2h5l12 -12q1 0 1.5 -0.5t2.5 -0.5h4l-15 15l-5 2l1 -2q-3 1 -6 1
q-8 0 -16 -2t-16 -9q-7 -6 -24 -22.5t-36.5 -36t-36.5 -37.5t-23 -25q-4 -2 -15.5 -6t-23.5 -8t-22.5 -7t-13.5 -4h-6q-2 0 -4.5 -0.5t-4.5 -0.5q-5 0 -13 2q-4 9 -4 23v16q0 25 5 47.5t10 44.5q3 11 5.5 21.5t4.5 21.5q1 4 3 19t4 32t3.5 33t1.5 23q1 13 3 45t4 68.5
t3.5 69t1.5 45.5q11 23 21.5 27.5t27.5 4.5q22 0 36 -8q9 -14 11 -34.5t2 -40.5q0 -38 -6 -72.5t-13 -69.5q-6 -30 -11 -58.5t-7 -56.5l-1 1l1 -3l1 -2h1l15 -15q3 -3 14 -3h4l2 -1l6 2l-2 2q5 6 9 11.5t9 11.5q10 14 22 29t25.5 27t29 20t33.5 8q26 0 46 -17q10 -11 19 -25
t17 -28q9 -15 18.5 -29.5t20.5 -25.5l6 -6q-8 10 -15.5 21.5t-14.5 24.5q-8 12 -15 23.5t-15 22.5q-15 23 -34 40t-48 17q-18 0 -34 -8t-30 -20.5t-26 -27.5t-22 -29q-2 -2 -2.5 -3.5t-2.5 -3.5q-4 -4 -7 -8t-8 -10h-6h-1q2 26 7 51.5t11 52.5q7 35 13 69.5t6 72.5
q0 24 -2.5 46.5t-16.5 36.5l-3 2q-7 14 -20 22.5t-37 8.5q-17 0 -29 -4.5t-23 -29.5q0 -13 -1.5 -45.5t-3.5 -69t-4 -69t-3 -45.5q0 -7 -1.5 -22.5t-3.5 -33t-4 -32t-3 -18.5q0 -2 -0.5 -3t-0.5 -3q-2 -9 -4.5 -18.5t-4.5 -18.5q-1 -2 -1 -4q0 -1 -1 -3q-5 -20 -9 -41.5
t-4 -44.5v-16q0 -13 4.5 -25t18.5 -17l6 -5q8 -8 21 -8q2 0 4.5 0.5t4.5 0.5h6q3 1 13.5 4t22.5 7t23.5 8t15.5 6q6 7 23 25t36.5 37.5t36.5 36t24 22.5q8 7 16 9t16 2h2l166 -166q1 -1 7 -3z" />
    <glyph glyph-name="X" unicode="X" horiz-adv-x="587" 
d="M12 36q-4 12 13.5 31.5t41.5 39.5t47 37t30 24l108 108q0 1 0.5 5t0.5 7q0 20 -11 38.5t-27 36.5t-35 35.5t-35 34t-27 33t-11 32.5q0 12 6 18.5t14.5 9.5t18 3.5t16.5 0.5q23 0 39.5 -12.5t29.5 -31.5t23.5 -41.5t21.5 -41.5t23.5 -31.5t30.5 -12.5q22 0 39 11.5
t31 29.5t26.5 38t26.5 38t30.5 29.5t39.5 11.5q22 0 26 -16.5t4 -34.5q0 -21 -22 -46.5t-50.5 -50.5t-56.5 -46.5t-40 -34.5q0 -4 -1 -15t-1 -15q0 -27 15.5 -48.5t34 -42t34 -41.5t15.5 -46q0 -27 -5.5 -36t-33.5 -9q-23 0 -37.5 9.5t-24 25t-16 33.5t-15 35.5t-19.5 32
t-30 21.5q-18 -13 -47.5 -45t-62 -65t-63 -58.5t-49.5 -25.5q-22 0 -39 5t-27 33zM1 32q6 -17 14 -25.5t18 -13.5l2 -2q11 -11 26 -13.5t32 -2.5q14 0 33 12t40 30.5t43 41t43 44.5q20 21 36.5 39t27.5 26q12 -12 19 -27.5t15 -31.5q10 -24 21 -45t31 -32q10 -9 23 -14.5
t32 -5.5q17 0 26.5 2.5t14 8.5t5.5 16t1 26q0 21 -9 38t-23 33q-7 9 -15 18t-16 19q-5 5 -9.5 10t-9.5 10q-17 23 -17 50v5q0 4 1 9v6q0 4 1 7q15 15 45 39q20 16 42 34t40 36.5t30 37t12 34.5q0 14 -2 28t-10 22l-5 4q-4 10 -12 16.5t-24 6.5q-20 0 -35.5 -7.5t-28 -19.5
t-23 -27t-20.5 -30q-19 -29 -38.5 -51.5t-47.5 -22.5q-16 0 -28 15q-5 8 -10.5 18.5t-10.5 21.5q-8 16 -17 31.5t-20 29.5q-14 23 -33.5 39t-48.5 16q-9 0 -20 -0.5t-21.5 -4.5t-17.5 -13t-7 -25q0 -26 21.5 -51t48.5 -51t51.5 -53t24.5 -55q0 -2 -0.5 -3t-0.5 -2v-2
l-105 -105q-8 -8 -12 -11l-8 -6q-2 -2 -4 -3.5t-5 -3.5q-15 -12 -34 -26.5t-35 -30t-27 -30t-11 -25.5v-2q0 -2 1 -3v-3zM230 501l-1 1q1 0 1 -1z" />
    <glyph glyph-name="Y" unicode="Y" horiz-adv-x="479" 
d="M444 534q0 -28 -9 -47t-15 -43q-26 -102 -37.5 -202.5t-22.5 -205.5q-11 -26 -25 -32t-35 -6q-26 0 -31.5 12t-5.5 37t4 50t9 50t9 49.5t4 49.5v8q0 6 -0.5 13t-0.5 12v9q-11 14 -35.5 31t-55.5 36t-64 39t-60 38.5t-44.5 35.5t-17.5 30q0 54 55 54h6q27 -16 53 -35.5
t51 -40t50 -41.5t50 -39q1 0 5 -0.5t7 -0.5q19 0 28 14.5t12.5 36t4.5 46.5t5 46.5t14 36t31 14.5q29 0 45 -11.5t16 -43.5zM172 355q22 -14 44 -27.5t40 -25.5q15 -11 21 -19v-16q0 -5 0.5 -9t0.5 -7v-5q0 -20 -3.5 -41t-7.5 -43q-1 -3 -1 -6t-1 -5q-5 -25 -9 -50t-4 -54
q0 -23 3 -37.5t20 -19.5l5 -5q9 -10 35 -10q12 0 21.5 1t17.5 5.5t15 13.5t14 25q2 16 3.5 31.5t3.5 31.5q9 88 19.5 173t33.5 171q2 11 4.5 18.5t4.5 11.5q5 14 10 29t5 33q0 32 -15 47l-4 3q-8 17 -24 24t-41 7q-20 0 -32 -9.5t-18 -25.5t-8 -35.5t-3 -40.5
q-1 -16 -2.5 -31t-5.5 -26.5t-10 -18.5t-16 -7h-7q-18 14 -37 28t-37 30l-18 15q-29 23 -58 45t-55 39h-10q-66 0 -66 -65q0 -18 22.5 -39.5t56.5 -44.5q20 -15 44 -30t49 -29z" />
    <glyph glyph-name="FL005Ah" unicode="Z" horiz-adv-x="623" 
d="M327 345q3 -20 8 -46.5t10.5 -53.5t11.5 -51.5t13 -39.5h1q21 0 41.5 9.5t40.5 21.5v-1q1 1 2.5 1.5t2.5 1.5q20 11 39.5 20t41.5 9q41 0 54 -28l4 -4q8 -8 11.5 -21t3.5 -29q0 -27 -8.5 -41.5t-23 -21t-32.5 -8t-37 -1.5h-4h-18t-17 -1q-17 -2 -30 -14t-27 -26
q-17 -17 -34.5 -31t-42.5 -14q-31 0 -44 13l-4 4q-17 6 -21.5 20t-4.5 32v9q0 2 0.5 4.5t0.5 4.5v7q0 2 0.5 4.5t0.5 4.5v8q0 3 -1 5q-2 5 -5 25t-6 45v-1q-1 3 -1 6t-1 6q-3 21 -6 38.5t-5 25.5l-2 13t-4 23q-1 4 -1.5 8t-1.5 8q-6 34 -14 68.5t-25 63.5
q-17 -3 -29.5 -16.5t-23.5 -28.5q-15 -20 -32 -36.5t-44 -16.5q-26 0 -36 10l-6 6q-22 8 -22 48q56 72 86.5 111t45.5 58t20.5 23t10.5 7q19 9 29.5 11.5t30.5 2.5q16 0 27 -4t22 -24h1q6 -6 14 -22q2 -11 7 -35.5t11 -53.5t11 -55t7 -36q1 -5 1.5 -11t2.5 -14zM589 149
q0 25 -10.5 40.5t-39.5 15.5q-22 0 -42 -9.5t-40 -21.5t-41 -21.5t-45 -9.5q-9 0 -17.5 15t-15.5 38t-13 51t-11 55t-8.5 49t-5.5 33q-2 10 -7 35.5t-11 54.5t-11 54.5t-7 35.5q-8 18 -17.5 21.5t-23.5 3.5q-17 0 -27.5 -2.5t-27.5 -10.5q-4 -2 -21.5 -22.5t-39.5 -48
t-44.5 -56t-36.5 -46.5t-15 -19q0 -21 8 -29.5t30 -8.5q24 0 40 15.5t30 34t29 34t38 15.5q1 0 3 -0.5t3 -0.5q16 -21 25.5 -46.5t15.5 -52.5t10 -54t9 -51q2 -9 5 -30t7 -44t7 -43t5 -27q2 -16 0 -33t0.5 -31.5t12 -23.5t34.5 -9q21 0 37 12.5t31 28t30 29t35 15.5t43.5 1
t43.5 3t33 17t13 44z" />
    <glyph glyph-name="FL005Bh" unicode="[" horiz-adv-x="249" 
d="M19 -37h-5l-16 32q3 37 6 75t5 75q1 9 1 17q0 9 1 17q1 9 1 18t1 18q6 91 13.5 183.5t21.5 191.5q13 13 35 16.5t40 3.5h19q10 0 23.5 -0.5t26 -3.5t23 -10t14.5 -19l4 -3q11 -9 11 -27q0 -13 -4 -20t-11 -10.5t-15.5 -4.5t-17.5 -1q-8 -1 -15.5 -2t-13.5 -5h1
q-10 -7 -17 -39.5t-12.5 -78t-9 -99t-5 -102.5t-2.5 -87.5t-1 -53.5q6 -2 14 -3l16 -2q2 0 3.5 -0.5t3.5 -0.5t3 -0.5t3 -0.5q22 -3 40 -7.5t24 -21.5l5 -5q9 -9 9 -23q0 -12 -3.5 -26t-23.5 -14h-6q-5 0 -21 7q-5 2 -9 3.5t-6 1.5h-14q-8 0 -18 0.5t-21 0.5h-20
q-7 0 -14 -0.5t-14 -0.5q-8 0 -16 -0.5t-13 -0.5h-12zM221 562q0 14 -8.5 21.5t-21 11t-26 4t-23.5 0.5h-19q-17 0 -36 -2.5t-28 -11.5q-11 -78 -18 -152t-12 -146t-9.5 -143.5t-10.5 -145.5l12 -24q3 0 13 0.5t23 0.5t26 0.5t22 0.5q17 0 32 -0.5t21 -0.5q1 0 6.5 -2
t11.5 -4t11 -4t7 -2h6q14 0 16.5 11t2.5 21q0 20 -19 25t-41.5 7t-41.5 6.5t-19 23.5q0 15 1 53.5t3 88t5.5 104t9 102t13.5 81t18 40.5q9 6 21.5 6.5t24 2t19.5 7t8 20.5z" />
    <glyph glyph-name="FL005Ch" unicode="\" horiz-adv-x="455" 
d="M373 -24q-13 0 -31 16q-21 11 -45 46t-48 78.5t-46 89.5t-37 79l-8 16q-4 8 -7 13.5t-5 10.5l-3 6v-1q-5 7 -18.5 34.5t-28.5 60.5t-29 64.5t-20 46.5l-16 38q-2 2 -2 3q-1 2 -1 5l-1 2q0 1 -1 3q-4 8 -7.5 18.5t-3.5 18.5q0 24 26 24q20 0 39.5 -10.5t33.5 -32.5l6 -8
l6 -8l271 -516q3 -5 7 -14.5t5 -12.5l-1 1q7 -14 7 -27q0 -34 -36 -43q-1 0 -2.5 -0.5t-3.5 -0.5zM386 59q-1 4 -5 13t-6 12l-271 516q-11 19 -28.5 28t-34.5 9q-11 0 -13.5 -6.5t-0.5 -15.5t6.5 -18.5t7.5 -16.5l16 -40q4 -10 12 -27.5t17.5 -38t20 -43t19.5 -42t16.5 -34
t10.5 -19.5q5 -10 18.5 -40t32 -68.5t40 -80.5t43 -76t41.5 -54.5t34 -16.5q22 5 27.5 21.5t-3.5 37.5z" />
    <glyph glyph-name="parenright" unicode="]" horiz-adv-x="249" 
d="M-2 2q0 27 15 32.5t35 6.5q6 1 12.5 1.5t11.5 3.5q10 12 17.5 47.5t13 82t9 99t5.5 99.5t3 83t1 50v3q-8 2 -17 2q-8 0 -17 2q-18 1 -34.5 4t-25.5 12l-3 3q-24 8 -24 36q0 6 0.5 13.5t3.5 14t9 11t17 4.5h6l3 -0.5t6 -1.5t6 -2.5t7 -2.5q10 -5 14 -5h30q5 0 11 -0.5
t12 -0.5h34q4 0 7 0.5t7 0.5q5 0 9.5 0.5t8.5 0.5h25l5 -10l8 -8l15 -30q-4 -46 -7 -92t-6 -91q-7 -100 -14.5 -200.5t-22.5 -209.5q-11 -11 -32.5 -14.5t-40.5 -3.5h-18q-17 0 -39.5 2t-36.5 16q-2 1 -4 3q-11 5 -18 14.5t-7 24.5zM9 2q0 -14 8.5 -21.5t21 -11t26 -4
t23.5 -0.5h18q17 0 36.5 2.5t28.5 11.5q11 78 18 152t12 146t9.5 143.5t10.5 145.5l-12 24q-3 0 -13 -0.5t-23 -0.5t-26 -0.5t-22 -0.5q-17 0 -32 0.5t-21 0.5q-2 0 -7 2t-11 4t-11.5 4t-6.5 2h-6q-14 0 -16.5 -11t-2.5 -21q0 -14 9 -20t22.5 -8.5t29 -3.5t29 -3.5t22.5 -8
t9 -18.5q0 -15 -1 -53.5t-3 -88t-5.5 -104t-9 -102t-13.5 -81t-18 -40.5q-9 -6 -21.5 -6.5t-24 -2t-19.5 -7t-8 -20.5z" />
    <glyph glyph-name="FL005Eh" unicode="^" horiz-adv-x="473" 
d="M170 576q2 0 42 -14q64 -187 130 -314q33 -64 53 -101t27 -48q14 -23 14 -51v-5q-2 -4 -11 -12.5t-13 -11.5h-4q-19 0 -29.5 5t-17.5 13t-14 19t-19 23q-7 8 -19 33t-25.5 57t-27.5 67.5t-25.5 65t-19 49l-7.5 19.5l-16 -30l-76 -321q-4 -13 -15 -13h-23q-21 0 -40 12.5
t-19 36.5q0 3 0.5 7t0.5 5q5 7 13 29.5t16.5 48.5t16.5 48.5t13 29.5zM34 150q-9 -27 -17 -50t-12 -29v-7q0 -2 -0.5 -3t-0.5 -2v-4q0 -18 8.5 -30.5t22.5 -20.5l2 -1q10 -10 24 -15t28 -5h23q18 0 22 16l76 322q11 -29 26.5 -68t31 -76.5t30 -67t22.5 -38.5
q7 -7 10.5 -11.5t6.5 -8.5q0 -1 0.5 -1.5l0.5 -0.5q8 -11 15 -20t18 -14l2 -2q8 -8 19 -12.5t31 -4.5h6q5 4 16 14.5t14 15.5v7q0 31 -15 55q-7 11 -27 48t-53 101q-31 61 -63.5 139.5t-66.5 177.5l-11 10q-1 2 -1 4t-1 4q-4 0 -10 2q-2 0 -6 2v1l-12 4.5t-8 2.5t-9 1.5
t-14 2.5l-98 -361q-7 -11 -14.5 -32.5t-15.5 -44.5z" />
    <glyph glyph-name="FL005Fh" unicode="_" horiz-adv-x="391" 
d="M-4 -34q5 -3 37.5 -4t80.5 -1h100q39 0 76.5 -1t68 -2.5t50 -4.5t22.5 -7q5 -8 -1.5 -19t-17.5 -22t-24.5 -18.5t-23.5 -7.5q-3 0 -9 0.5t-9 0.5q-1 2 -25 3t-60 0.5t-78 -1.5t-80 -2t-66 -2t-36 -1zM-15 -32l5 -102h6l12 -12q5 0 25.5 0.5t43.5 1.5q24 1 52.5 1.5
t58 1.5t58 1.5t52.5 0.5q23 0 39 -1t18 -3q2 0 7 -0.5t8 -0.5h9q10 0 23 7t25 17.5t20.5 22.5t8.5 21q0 5 -0.5 6.5t-1.5 3.5l-10 10q-1 4 -1 5q-5 6 -26.5 10.5t-53 7.5t-70.5 4t-79 1h-100q-46 0 -77.5 1t-36.5 4z" />
    <glyph glyph-name="FL0060h" unicode="`" horiz-adv-x="210" 
d="M162 671q-11 0 -28 9.5t-34 23.5q-12 9 -24.5 19t-23.5 20.5t-20 19.5t-14 15q-7 8 -9 13.5t-2 8.5q0 14 12 16t34 2h11q11 0 27 -7.5t33 -20t33.5 -29t28.5 -33.5q21 -23 31 -47l-50 -10h-5zM191 702q-7 18 -23 36.5t-34.5 34t-37.5 25t-32 9.5q-29 0 -41.5 -1.5
t3.5 -20.5q8 -9 24.5 -25t35 -31.5t36 -26t28.5 -8.5z" />
    <glyph glyph-name="a" unicode="a" horiz-adv-x="510" 
d="M128 224q25 7 55.5 22.5t62 35t62.5 40.5t57 40v80q0 4 -3 10t-7.5 12t-10 10t-9.5 4q-11 0 -30.5 -10t-43 -26t-48 -36t-44.5 -39t-32.5 -36t-12.5 -27q0 -20 1 -40t3 -40zM137 22q-10 -14 -24 -20t-31 -6q-6 0 -14 1t-15.5 3.5t-12.5 7.5t-5 14v264q0 6 -0.5 22t0.5 34
t5.5 32.5t14.5 16.5q11 5 35.5 22.5t56.5 40.5t67.5 48t68.5 46.5t59.5 35.5t40.5 14q18 0 32.5 -12.5t25 -30.5t16 -37t5.5 -32q1 -13 2 -45.5t1 -74.5q0 -41 -0.5 -86.5t-1 -84t-1 -65t-0.5 -30.5q0 -11 -2 -25t-7 -26t-14.5 -20.5t-24.5 -8.5t-32 9t-17 29v220
q-20 -13 -50 -31t-59 -34.5t-51.5 -29t-27.5 -15.5l-42 -26q1 -17 2 -33t1 -33v-11q0 -8 -0.5 -16.5t-0.5 -16.5v-10zM384 14q9 -9 21.5 -13t23.5 -4q18 0 29 9t17 22.5t8 29t2 27.5v27q0 18 0.5 46t1 60t1 66.5t0.5 66.5q0 42 -1 74.5t-2 45.5q0 18 -10.5 46.5t-29.5 48.5
q-11 18 -26.5 30.5t-35.5 12.5q-15 0 -41.5 -13.5t-59 -34.5t-68 -46.5t-67.5 -48.5q-33 -24 -59 -42t-37 -23q-9 -3 -14.5 -11.5t-8.5 -19.5t-4 -23.5t-1 -24.5q0 -5 0.5 -9t0.5 -8v-283q0 -13 6.5 -20t15.5 -11l4 -4q9 -9 23 -11.5t24 -2.5q20 0 35.5 6.5t26.5 22.5l1 5
v26q0 4 0.5 8t0.5 9v11q0 11 -0.5 22t-1.5 22q0 5 -0.5 8.5t-0.5 8.5l38 24q3 2 11 6.5t20 11.5q25 14 60.5 34t66.5 39v-179q0 -16 8 -26t19 -16zM147 289q0 9 12 25t31 34t42 37t45.5 34.5t41.5 25t30 10.5q5 -8 5 -13v-75q-22 -16 -48 -33.5t-53 -34t-54 -31.5t-52 -25
q-1 11 -0.5 22.5t0.5 23.5z" />
    <glyph glyph-name="b" unicode="b" horiz-adv-x="413" 
d="M138 386q0 -1 -1 -7.5t0 -13.5t3.5 -13.5t10.5 -7.5q7 2 25.5 10t37.5 18t33.5 20t14.5 18q0 2 -5 10.5t-7 10.5q-4 4 -14 13.5t-22 20t-23 19.5t-16 12h-6q-17 0 -23.5 -13.5t-8.5 -31.5t-0.5 -36.5t1.5 -28.5zM102 152l2.5 -17.5t3.5 -21t4 -18l2 -7.5h25l85 64
q3 3 8.5 6.5t5.5 4.5v5v6q-2 4 -6 11t-8 13.5t-7.5 12t-4.5 6.5q-6 5 -17.5 12.5t-23.5 14.5t-21.5 11.5t-10.5 3.5l-25 -11l-2 -7.5t-4 -17.5t-3.5 -21t-2.5 -17v-17v-16zM16 88q0 5 -1 14t-1 20q0 13 -0.5 22t-0.5 14q0 30 5.5 59t13.5 57.5t17 57t16 57.5q3 15 5 38.5
t5 50t8.5 52.5t15.5 47.5t25.5 34.5t38.5 13q7 0 25.5 -14t41.5 -36.5t48.5 -49t46.5 -52t34.5 -46t13.5 -30.5q0 -21 -17.5 -33t-39 -22t-39 -20.5t-17.5 -29.5q0 -20 18 -32.5t39 -24.5t39 -27t18 -40q0 -6 -17.5 -22.5t-44.5 -38.5t-60 -46t-64 -44.5t-55.5 -33.5
t-35.5 -13q-30 0 -41 13t-15.5 31t-7.5 38.5t-17 35.5zM7 82q9 -10 13 -23.5t6 -27.5q3 -21 8.5 -39t25.5 -26l4 -4q8 -7 19 -11t29 -4q11 0 36.5 13.5t57 34.5t65.5 46t62 48t46 40.5t18 23.5q0 14 -5.5 25t-13.5 20q-9 17 -26 28.5t-35 21.5q-10 5 -18.5 10.5t-14.5 10.5
q-1 2 -1 8q0 14 15 23.5t34 18.5q24 11 44 24.5t20 38.5q0 8 -11 25.5t-28 39.5q-20 27 -50 60t-59 61.5t-53 48t-32 19.5q-32 0 -51 -19.5t-29.5 -49t-15 -64t-7.5 -64.5q-3 -27 -6 -46q-5 -17 -10 -35t-10 -35q-12 -40 -22 -80t-10 -85v-21q0 -3 0.5 -7t0.5 -8v-14
q0 -5 1 -10q0 -2 0.5 -3t0.5 -2v-6zM125 138v31q1 7 2 21t2 23.5t1 11.5l24 11h1q3 0 19 -9.5t30 -18.5q4 -6 8.5 -14.5t9.5 -15.5q2 -4 5 -7v-2q-3 -2 -7 -5.5t-7 -6.5l-78 -58h-8q-1 10 -1 20q0 11 -1 19zM161 369v2q0 3 -0.5 7t-0.5 9q0 7 -0.5 14t-0.5 15q0 20 4.5 38.5
t20.5 18.5h2q7 -6 16 -14t16.5 -15t14 -12.5t9.5 -8.5l1 -2q3 -4 5.5 -7.5l2.5 -3.5q0 -5 -10 -12t-24.5 -14t-30 -14t-26.5 -11q0 3 0.5 5.5t0.5 4.5z" />
    <glyph glyph-name="c" unicode="c" horiz-adv-x="487" 
d="M112 370l52 33q1 0 18 13t40 31t46.5 36.5t38.5 30.5q16 12 25 21.5t18.5 16t23.5 10t40 3.5h5q5 -2 17 -11t16 -13v-5q0 -22 -19 -42t-48 -38q-14 -9 -29.5 -18t-32.5 -18q-33 -18 -156 -126q10 -43 32.5 -74.5t50.5 -55.5t57.5 -41t54 -30t40.5 -24t16 -22
q0 -17 -10 -32t-38 -15q-61 0 -129 51t-146 165l-66 96zM13 315l73 -106q45 -66 86 -110t80 -70q70 -52 133 -52q32 0 44 17.5t12 37.5q0 10 -11 21l-3 2q-5 14 -22.5 25.5t-43.5 25.5q-35 18 -77 46t-74 75q-6 11 -11 23t-8 26q117 103 151 122q17 9 32.5 18t29.5 18
q31 20 51 41.5t20 45.5v9l-12 12v4q-3 2 -8.5 7t-11.5 9.5t-12 8.5t-9 5h-8q-21 0 -34.5 -2t-23 -6t-16.5 -10t-15 -13q-8 -8 -14 -13t-11 -10q-5 -4 -11.5 -9.5t-14.5 -11.5q-17 -14 -36.5 -29t-36.5 -28t-28.5 -21.5t-12.5 -8.5l-55 -35zM199 76l6 -5q2 -2 3.5 -4t3.5 -4
q-3 3 -6.5 6t-6.5 7zM247 177l7 -6l3 -3q-4 3 -10 9zM190 86l9 -10l-12 12l1 -1q1 0 2 -1zM247 177q-3 2 -7 8z" />
    <glyph glyph-name="d" unicode="d" horiz-adv-x="443" 
d="M134 147q3 3 11 9q7 6 14.5 12.5t15.5 13.5q26 23 50.5 43.5t33.5 25.5q13 10 16 15.5t3 16.5q0 10 -8.5 27t-21 35.5t-28 37t-29.5 30.5q-9 6 -16 6q-5 0 -8 -7.5t-5 -19t-3.5 -24.5t-2.5 -23q-1 -2 -1 -3v-1v-8zM0 -18q0 26 5 53t11 53q1 3 1.5 5.5t1.5 5.5q6 25 11 49
t7 46q1 6 1.5 11.5t1.5 10.5q3 28 6 55t5 55q7 72 14.5 144.5t19.5 146.5q18 22 30.5 27t34.5 5q20 0 28.5 -4.5t10.5 -14.5l8 -7q5 -5 6 -14t1 -23v-5q0 -11 -3 -17t-5 -11q-2 -3 -3 -5.5t-1 -6.5l0.5 -0.5t1.5 -0.5q6 -6 15 -12q16 -13 36.5 -30t42.5 -38t44 -45t42 -51
q18 -23 33 -48t25 -51v-5q0 -6 -1 -10v-3q-11 -12 -27 -27t-33.5 -30.5t-34 -29.5t-28.5 -24q-51 -43 -80.5 -65t-46.5 -33q-19 -14 -29 -22t-15.5 -17t-8.5 -23.5t-9 -39.5q-4 -19 -25 -19h-20q-29 0 -43 14l-3 3q-28 11 -28 48zM160 442q12 0 34 -19.5t43 -45.5
t36.5 -52.5t15.5 -41.5q0 -17 -4 -23.5t-21 -18.5q-8 -5 -22.5 -16.5t-32 -26.5t-36 -31t-33.5 -29.5t-24.5 -21.5t-9.5 -7l26 240q1 9 2 24.5t4 30.5t8 26.5t14 11.5zM11 -18q0 -23 13.5 -32.5t34.5 -9.5h20q14 0 17 13q6 26 9.5 41t9 24.5t15.5 17.5t29.5 22t50.5 37
t78 62q12 10 28.5 24t33.5 29t32.5 29.5t25.5 25.5q0 1 1 5.5t0 6.5q-18 48 -52 91t-70 77.5t-67 59t-44 36.5q-7 6 -7 14q0 6 2 10l4 8t4 9.5t2 13.5q0 22 -3.5 32t-27.5 10q-18 0 -29 -4t-25 -21q-17 -107 -26.5 -209.5t-21.5 -210.5q-2 -26 -8 -52.5t-12.5 -53.5
t-11.5 -53.5t-5 -51.5z" />
    <glyph glyph-name="e" unicode="e" horiz-adv-x="443" 
d="M8 2q0 8 1 25.5t3 37t4 37t4 24.5q2 6 4 10q2 2 3 4q4 8 6 10q5 14 7 36.5t4 51.5q1 6 1 12t1 12q0 3 0.5 5.5t0.5 5.5q2 32 5 67t9 69v12l1 1l6 17q1 3 2 5.5t2 4.5l2 4q3 10 6.5 19.5t9.5 20.5l11 27h14q15 10 31 10q8 0 11 -1q19 8 44 21.5t51 30.5q3 2 6 3.5t6 3.5
h-1q19 11 39.5 22t46.5 21q15 -5 20 -19l5 -5q7 -7 8.5 -16t1.5 -16v-7q0 -19 -16 -34.5t-41 -29t-56 -25.5t-61 -23q-1 -12 -4 -23t-8 -22h1q-5 -14 -9 -27t-4 -25v-11q23 0 44.5 14t42.5 31q23 20 49 37t58 17q15 0 28 -2.5t18 -16.5l7 -7q7 -7 7 -23q0 -4 -0.5 -7.5
t-1.5 -8.5q-2 -5 -12 -15.5t-16 -14.5q-9 -6 -28 -18.5t-40 -26t-39.5 -25t-24.5 -14.5q-13 -8 -25.5 -12.5t-25.5 -8.5t-25 -8.5t-21 -11.5t-14.5 -18t-5.5 -29v-12h2q32 0 72 20t79 43q5 3 9.5 5t9.5 5q15 9 31.5 18.5t38.5 17.5q10 -6 16 -17l6 -6q7 -6 9 -16.5t2 -24.5
q0 -8 -0.5 -17.5t-0.5 -15.5v-8q0 -19 -16 -34t-41.5 -28t-56.5 -24t-62 -21q-46 -15 -81 -29t-38 -28q-2 -8 -2.5 -16t-0.5 -16q0 -11 -1 -19t-6 -14t-16 -9t-32 -3q-9 0 -17 4.5t-15 11.5l-1 1q-15 8 -26.5 23.5t-14.5 27.5v3zM73 418q0 -1 -0.5 -1.5t-0.5 -1.5zM19 2
q2 -7 6.5 -15t11 -15.5t14 -12.5t16.5 -5q25 0 34.5 5t11.5 14.5t1 23t4 30.5q2 12 24.5 23.5t55 23t70.5 23.5t70 25.5t53 29.5t21 35q0 3 0.5 15.5t0.5 25.5q0 14 -2 25t-8 13q-27 -11 -57.5 -29.5t-61.5 -36t-62 -30.5t-59 -13q-19 0 -22 10.5t-3 27.5q0 28 12 42.5
t30 22.5t39.5 13.5t39.5 16.5q6 3 24.5 14.5t39.5 25t40 26t28 18.5q6 4 15 12.5t9 11.5q3 14 1 21.5t-7 11.5t-12.5 4.5t-16.5 0.5q-29 0 -52.5 -15.5t-46 -34t-45.5 -34t-50 -15.5q-15 0 -19 8t-4 29q0 14 3.5 26.5t8 25t8.5 25t5 26.5q30 11 61 22.5t55.5 24.5t40.5 27.5
t16 31.5q0 7 -1 20t-12 16q-22 -9 -46 -22.5t-48.5 -28t-49 -28t-48.5 -22.5q-1 1 -10 1q-15 0 -28 -10h-10l-9 -22q-6 -11 -10.5 -24.5t-9.5 -27.5l-6 -17q2 4 3 5q-8 -36 -12 -77.5t-6.5 -80.5t-5.5 -71t-9 -48q-1 -3 -6.5 -12.5t-5.5 -11.5q-2 -7 -4 -24t-4 -36t-3 -36
t-1 -24z" />
    <glyph glyph-name="f" unicode="f" horiz-adv-x="599" 
d="M11 52q0 1 -0.5 7.5t0 14t3.5 14t10 8.5q2 26 6.5 72t12.5 100.5t19 111t26.5 104t35 79.5t44.5 37q9 1 22 -10t28.5 -29t32.5 -39t34.5 -40t33.5 -33t29 -17q27 11 47 31l40 40t42 35t52 15q16 0 23 -11.5t12 -25.5q-7 -9 -27 -30t-43 -44t-44 -43t-30 -27
q-8 -8 -19.5 -18t-23 -19.5t-20 -16t-9.5 -6.5h-12l-60 60q-7 6 -20 20t-27.5 28t-29 25t-25.5 11h-6q-3 -3 -7.5 -6t-4.5 -6v-120q5 -3 18.5 -12.5t31 -22.5t36.5 -28t35 -28t26 -22.5t10 -12.5q0 -9 -7 -20.5t-17 -22t-21.5 -17.5t-21.5 -7q-3 0 -9 0.5t-9 0.5
q-2 4 -9 17.5t-17 28.5t-22 27t-24 12q-14 0 -21 -5t-15 -20q0 -7 -1.5 -24t-3.5 -36t-4 -36t-3 -24q-2 -9 -4.5 -22t-7.5 -24t-13.5 -19t-22.5 -8q-26 0 -37.5 14t-11.5 39zM0 52q0 -22 6.5 -36.5t22.5 -21.5l4 -4q14 -14 42 -14q15 0 24.5 6.5t15.5 16.5t9 22t5 23
q1 3 0.5 4.5t0.5 3.5q1 7 3 24t4 36t4 36.5t2 25.5q7 12 12 16t16 4q4 0 6 -1q11 -13 21.5 -31t16.5 -28q0 -1 1 -2v-3v-3l2 -5h5l12 -12q2 0 8 -0.5t9 -0.5h9q11 0 24 8t24.5 19.5t19 24.5t7.5 23q0 3 -10 13l-2 2q0 4 -16 18.5t-38.5 33t-47.5 37.5t-43 33v108l0.5 0.5
t2.5 1.5q4 2 5 3h2q7 0 18 -8t21 -19t19 -20l17 -17h-1l68 -68h4l12 -12h16q1 0 10.5 6.5t22 16.5t25 20.5t20.5 18.5h-1q9 7 30.5 28t45.5 45t44.5 45.5t27.5 30.5q-4 11 -8 20t-11 16l-2 2q-6 11 -14.5 18.5t-23.5 7.5q-38 0 -64.5 -20.5t-49.5 -44.5q-15 -16 -31.5 -31
t-36.5 -24q-9 3 -20 12t-23 21t-24 26.5t-24 29.5q-26 32 -48 55t-39 23h-4q-26 -5 -46 -36t-36.5 -77.5t-28 -102.5t-20 -111t-14 -103.5t-7.5 -79.5q-9 -7 -11.5 -16t-2.5 -17q0 -2 0.5 -4t0.5 -4v-8zM315 462q-4 3 -7 7z" />
    <glyph glyph-name="g" unicode="g" horiz-adv-x="618" 
d="M95 372q19 32 45.5 70t61 70.5t76.5 54t92 21.5q28 0 38 -15t10 -32q0 -11 -17 -22t-42 -25t-54.5 -31t-54.5 -40.5t-42 -53.5t-17 -70q0 -29 17.5 -51.5t44.5 -42t59.5 -36.5t61.5 -33q2 4 4 7t4 5q2 17 3 40t3 42q0 3 -1 12t-1 11q-19 0 -34.5 -7.5t-34.5 -7.5h-7
q-8 0 -15.5 1.5t-7.5 6.5v42q0 4 11.5 8t25 8t25.5 6.5t13 2.5l62 48q0 1 9.5 4t14.5 5h5q13 0 23.5 -7.5t18.5 -17t13 -19t7 -13.5q2 -5 7 -13.5t11 -18t11.5 -17.5t8.5 -12q0 -1 0.5 -2.5t0.5 -2.5q0 -16 -14 -22.5t-26 -6.5q-14 0 -20 3t-9.5 9t-5.5 14.5t-7 19.5h-4
q-10 0 -14 -12t-5 -30.5t0 -42t1 -45.5q0 -34 -7 -54q9 -14 9 -28v-5q-2 -2 -6.5 -5.5t-9.5 -7.5t-9.5 -7t-7.5 -4h-5q-26 0 -44 5t-32.5 13.5t-27.5 20t-29 23.5q-15 12 -36 26.5t-40.5 27t-33.5 21.5t-15 10l-61 46l-66 60zM88 208l16 -13h1l21 -16l16 -12h-2
q5 -4 10 -7.5t12 -8.5l3 -2l6 -4t16 -10q17 -12 44.5 -29.5t47.5 -32.5q2 -1 3 -2.5t3 -2.5q3 -4 15 -13v1q1 -2 2 -2.5t2 -1.5q2 -2 4 -3t4 -3q19 -15 41.5 -24.5t60.5 -9.5h7q3 1 9 5t12.5 8.5t12 9t8.5 7.5v10q0 12 -7 28q3 11 4 24t1 30q0 5 -0.5 9t-0.5 9v49
q0 17 0.5 30.5t3.5 18.5q2 -6 4 -11q1 -5 2 -8t3 -6q0 3 1 5q3 -7 7 -11l9 -9q9 -3 24 -3t33 10t18 35l-1 1v1q-3 3 -5 7q-4 6 -9.5 13.5t-10.5 16t-9 15.5t-5 11q-2 3 -4 8t-7 12q-1 2 -5 6l-15 15q-8 8 -18 14t-23 6h-8q-2 -1 -5.5 -2.5t-7.5 -3.5v1q-5 -2 -7.5 -4
t-4.5 -4l-1 2l-60 -47q-6 -1 -19 -4.5t-26.5 -8.5t-24 -10t-10.5 -9v-42q0 -5 4 -9l8 -9q5 -1 9 -1h10h7q11 0 20.5 2t17.5 5q5 2 10 3.5t11 2.5q1 -5 1 -9q0 -2 -0.5 -3t-0.5 -3q2 0 3 1q-1 -8 -1 -18q0 -9 -1 -18q-1 -11 -2 -20.5t-1 -18.5q-1 -1 -1.5 -2t-1.5 -2
q-6 3 -12.5 6t-12.5 7q-27 14 -54 28.5t-48 31.5q22 -22 53.5 -40t63.5 -35q2 -2 4 -2.5t4 -2.5l14 -13l10 1l-6 5q1 1 1 2l1 -1l2 5l-2 2q0 8 1 16.5t2 17.5q1 11 1.5 21.5t1.5 19.5v3q0 3 -1 7v3q2 1 7 1l-23 23v-4q0 -2 1 -5q-6 -1 -12.5 -3t-12.5 -4q-8 -3 -17 -5
t-20 -2h-7q-11 0 -16 1v42q0 4 9.5 9t22 9.5t25.5 8t20 5.5l1 -1l5 2l-1 1l53 41l2 -2l4.5 4.5t10.5 6.5h1q4 2 7.5 3.5t5.5 2.5h8q18 0 33 -13q8 -10 13.5 -19.5t7.5 -14.5t7 -14t11 -18.5t12 -17.5l9 -12v-5l1 -1q-2 -21 -18 -29.5t-30 -8.5q-15 0 -24 3l-2 6t-2 8
q-1 4 -5 14h6l-15 15l-4 2l-5 6l3 -8q-7 -2 -8 -17.5t-1 -37.5v-30q0 -9 0.5 -18.5t0.5 -18.5q0 -32 -6 -53l-2 3l1 -7l5 -5q2 -5 3 -10t1 -10v-9q-5 -5 -19 -15t-21 -13h-6q-23 0 -39.5 3.5t-30 10t-24.5 15t-23 18.5v-1q-5 4 -10 8.5t-11 9.5q-9 7 -22.5 16.5t-28 19.5
t-29 19t-24.5 16q-7 4 -12 7t-7 5l-2 2l-61 46l-57 51l69 100h1q19 33 46 71.5t62 71.5t78.5 55t95.5 22q19 0 32 -8q9 -14 9 -32q0 -15 -19 -28t-47 -28q-24 -13 -52.5 -30t-52.5 -39t-40 -51t-16 -66q0 -18 8 -33.5t22 -29.5l7 -8q-4 5 -7.5 9.5t-5.5 9.5q-21 24 -21 52
q0 36 16 64.5t39.5 50.5t51.5 38.5t52 29.5q29 16 48.5 29t19.5 30q0 15 -6 29l-12 12q-14 14 -41 14q-52 0 -95.5 -22t-78.5 -55t-62 -71.5t-46 -71.5v1l-70 -102l15 -15l71 -65l22 -16l36 -27v-1l4 -2l4 -2v1q5 -3 10.5 -7t12.5 -9q23 -15 47 -31t34 -24q1 -2 2 -2t3 -2
l12 -9q4 -3 7 -6l6 -6q2 -2 4 -3t4 -3v1q12 -10 23 -18.5t24.5 -15t30 -10t39.5 -3.5h6q7 3 21 13t19 15v9q0 14 -8 28q6 21 6 54q0 9 -0.5 18.5t-0.5 18.5v30v21t1 18q5 -11 17 -15l6 -6q5 -5 12 -7t21 -2t31 9t17 32l-1 1v2h-1q0 1 -1 1q-2 2 -4.5 5.5t-5.5 8.5v1
q-1 1 -2 2.5t-3 3.5q-8 11 -14 22.5t-8 17.5q-2 5 -8 15t-15 21q-9 14 -24 29t-37 15h-9l-6 -3q-1 -1 -2 -1l-1 -1v1q-13 -5 -16 -8l-1 1l-61 -47q-7 -2 -20.5 -6t-27 -9t-23.5 -10.5t-10 -9.5v-42q0 -15 15 -18l7 -6q5 -5 12 -6t15 -1h7q11 0 20 2t17 5q2 0 3.5 1t3.5 2
v-12t-1 -12q0 -3 -0.5 -6t-0.5 -5q0 -5 -0.5 -8.5t-0.5 -7.5q-1 -6 -1.5 -11.5t-0.5 -10.5q-1 0 -1 -1v0q-3 2 -5.5 2.5t-4.5 2.5q-3 2 -6.5 3.5t-6.5 3.5q-35 19 -69.5 39t-54.5 45q-9 16 -9 37q0 37 16 66t40 51t52.5 39t52.5 30q28 15 47 28t19 28q0 11 -3.5 22t-11.5 19
l-3 3q-6 12 -18.5 20.5t-34.5 8.5q-53 0 -97 -22t-79 -55.5t-62.5 -72t-46.5 -71.5l-71 -103zM236 228l8 -7v-1zM505 347l-1 1q0 -1 1 -1z" />
    <glyph glyph-name="h" unicode="h" horiz-adv-x="627" 
d="M138 247h26q21 0 40 6t30 23q-11 14 -35.5 21.5t-52.5 7.5q-3 0 -7 -0.5t-5 -0.5zM351 257q0 -1 0.5 -3.5l0.5 -2.5q3 -5 11.5 -8.5t20 -5.5t23.5 -3.5t21 -1.5q10 0 18 2l24 12l-10 55q-12 0 -30.5 -1.5t-36 -6.5t-30 -13.5t-12.5 -22.5zM16 49q1 64 7.5 126.5
t13.5 124.5t12 125t3 128q10 14 25 19.5t30 5.5q19 0 30.5 -10.5t11.5 -30.5q0 -3 -0.5 -11t-0.5 -9q0 -2 -2 -18t-5 -35t-5 -35t-2 -17q0 -18 21 -36t50.5 -33t60.5 -24t51 -9q9 0 34.5 8.5t52 20.5t47.5 24t21 20v144q0 7 6 17.5t15 20.5t18 16.5t15 6.5q1 0 3.5 -0.5
l2.5 -0.5q4 -4 10 -9.5l12 -11t10 -10t4 -5.5v-168q-6 -6 -9.5 -20t-5 -33t-2 -42t-0.5 -48v-66q0 -33 -2.5 -63t-8.5 -51t-17 -31.5t-27 -5.5q-20 7 -28 29.5t-13 48.5t-11 50t-22 35q-7 4 -23.5 9.5t-34.5 11t-34.5 11t-23.5 10.5q-1 0 -5 0.5t-7 0.5q-17 0 -38 -5
t-43 -13t-41.5 -17t-33.5 -17q0 -9 -1.5 -37.5t-7.5 -59.5t-18.5 -55.5t-34.5 -24.5t-34 15.5t-26 33.5zM7 43q2 -4 6 -8q2 -2 2.5 -3t2.5 -3q8 -11 16 -20.5t19 -14.5l1 -1q8 -8 16 -12t21 -4q24 0 38 23.5t21 54t9 60.5t2 42q14 8 32.5 16.5t39 16t40.5 12t36 4.5
q2 0 4 -0.5t4 -0.5q8 -5 27 -12t39 -12q11 -4 21.5 -7.5t18.5 -5.5q8 -12 11 -26.5t7 -28.5q0 -2 0.5 -3.5t0.5 -2.5q4 -29 13.5 -56t30.5 -37l4 -3q7 -7 16 -10t15 -3q16 0 26 13t16 35t8.5 51.5t2.5 61.5v66q0 48 2.5 87.5t14.5 51.5v172q0 4 -12 16q-1 3 -7.5 10.5
t-14.5 15.5h1q-5 4 -8.5 7.5l-5.5 5.5l-6 6q-8 2 -9 2h-3q-7 0 -18 -8t-21.5 -19t-18 -23.5t-7.5 -21.5v-144q0 -6 -19.5 -16.5t-44 -20.5t-48 -17.5t-32.5 -7.5q-15 0 -36.5 5t-44 14t-43 20.5t-33.5 23.5q-3 7 -3 13q0 -2 2 11t4 30q3 21 5.5 41.5t2.5 22.5v5q0 4 0.5 8.5
t0.5 6.5q0 23 -13 36l-3 3v-1q1 0 1 -1l-1 1q-12 29 -49 29q-18 0 -36 -7t-30 -24v-20q0 -5 0.5 -9.5t0.5 -8.5q0 -57 -5.5 -112t-11.5 -111q-1 -5 -1 -11t-1 -11q-1 -6 -1.5 -12.5t-1.5 -12.5q-5 -49 -9.5 -98.5t-5.5 -103.5zM452 277l5 -25l-15 -8q-4 -1 -14 -1
q-11 0 -26.5 1.5t-26.5 4.5q7 14 31 20t46 8zM161 282q15 0 29 -2.5t25 -6.5q-11 -9 -24 -12t-27 -3h-5l-1 23q1 0 1.5 0.5t1.5 0.5z" />
    <glyph glyph-name="i" unicode="i" horiz-adv-x="217" 
d="M11 64q0 2 0.5 4.5t0.5 4.5v12l60 516q4 24 21.5 35.5t38.5 11.5q14 0 20.5 -6t9.5 -15l6 -5q6 -6 8 -15.5t2 -20.5v-61q0 -15 -1.5 -45.5t-3.5 -63.5t-4 -60.5t-3 -35.5q0 -2 -0.5 -12.5t-1.5 -20.5q-1 -23 -3 -55t-5.5 -66.5t-8.5 -68.5t-12.5 -61t-18.5 -43.5
t-25 -16.5q-2 0 -3.5 0.5t-3.5 0.5q-23 4 -37 19l-3 3q-17 9 -25 25t-8 35v5zM22 59q0 -21 12.5 -37.5t36.5 -21.5q16 -4 27.5 16.5t19 54.5t12 76t7 80.5t4 68.5t2.5 40q1 8 3 35.5t4 60t3.5 63t1.5 45.5v40q0 7 0.5 16.5t-1 18.5t-6.5 15.5t-16 6.5q-17 0 -31.5 -9
t-17.5 -28l-60 -516q0 -3 -0.5 -12t-0.5 -13z" />
    <glyph glyph-name="j" unicode="j" horiz-adv-x="431" 
d="M56 95l-3 3zM56 95l-3 3l10 -10q-1 2 -2 2.5t-2 2.5zM44 108q3 -5 8 -8zM267 -41q-10 0 -28.5 8t-42 21.5t-49 31.5t-49.5 37q-20 15 -37.5 31t-31 31t-21.5 28.5t-8 24.5q0 29 13 51.5t48 22.5q29 0 48.5 -19t36.5 -40q16 -20 32.5 -35.5t37.5 -15.5h3q5 17 8 40.5
t7 51.5q2 9 2.5 18t2.5 19q7 56 16 118.5t20.5 115.5t26.5 88t34 35q23 0 37.5 -9.5t22.5 -24.5l1 -1q13 -13 18 -32t5 -39q-2 -37 -9.5 -70t-15.5 -66q-10 -36 -17.5 -72t-7.5 -72q0 -24 -1 -54t-4.5 -60.5t-10.5 -60t-18.5 -52t-28 -36.5t-40.5 -14zM397 531q0 30 -13 55
t-48 25q-15 0 -27.5 -32t-23 -81.5t-19 -108t-15.5 -112.5t-12.5 -95.5t-10.5 -55.5q-1 0 -5 -0.5t-7 -0.5q-25 0 -43 17t-34.5 38t-34.5 38t-43 17q-29 0 -39.5 -19t-10.5 -44q0 -14 15 -33.5t38 -40.5t51.5 -42t55 -37.5t48.5 -26.5t33 -10q33 0 52 29t28.5 70.5t12 88
t2.5 81.5q0 36 7 70.5t16 69t17 69.5t10 71z" />
    <glyph glyph-name="k" unicode="k" horiz-adv-x="479" 
d="M12 54q0 28 9 47t15 43q26 102 37.5 202.5t22.5 205.5q11 26 25 32t35 6q26 0 31.5 -12t5.5 -37q0 -38 -8 -74t-13 -72q27 16 52.5 37t51.5 42.5t52.5 42t55.5 35.5h6q55 0 55 -54q0 -13 -16.5 -29t-42.5 -34t-57.5 -37t-61.5 -37.5t-55.5 -35.5t-38.5 -31
q13 -15 38 -32.5t55.5 -36t62 -37t57.5 -36t42.5 -33.5t16.5 -29q0 -54 -55 -54h-6q-29 4 -55.5 29.5t-52.5 53.5t-52.5 51t-55.5 23q-20 0 -28.5 -14.5t-12 -36t-4.5 -46.5t-5 -46.5t-14 -36t-31 -14.5q-29 0 -45 11.5t-16 43.5zM1 54q0 -47 30 -59l3 -3q9 -9 22.5 -12.5
t31.5 -3.5q19 0 30 9t17 24t8 34.5t3 39.5v1q1 16 3 31.5t5.5 27.5t10.5 19.5t18 7.5t21 -4t20 -11q12 -10 23.5 -22.5t24.5 -24.5q17 -19 34.5 -36.5t36.5 -30.5q13 -11 26.5 -18.5t28.5 -9.5h7q63 0 63 62q0 14 -18 32q-14 25 -55 52t-88 55q-3 2 -5.5 3.5t-5.5 3.5h1
q-26 16 -50.5 31.5t-43.5 29.5q19 17 48.5 35.5t63.5 39.5q28 17 55.5 34t49 33t35 31t13.5 28q0 31 -15 46l-4 4q-15 30 -59 30h-9q-29 -15 -55.5 -35.5t-52.5 -41.5q-3 -3 -6.5 -5.5t-6.5 -5.5q-14 -11 -27.5 -23t-29.5 -23q5 23 9 47t4 50q0 17 -1.5 28.5t-8.5 18.5l-4 3
h1l-2 2q-4 11 -14 17t-31 6q-24 0 -40.5 -7t-30.5 -40q-1 -8 -2 -16.5t-2 -16.5t-1.5 -15.5t-1.5 -15.5q-9 -88 -19.5 -172t-33.5 -171q-2 -11 -4.5 -18.5t-4.5 -11.5q-6 -15 -10.5 -29.5t-4.5 -33.5z" />
    <glyph glyph-name="L" unicode="l" horiz-adv-x="431" 
d="M0 536q0 17 3.5 33.5t12 29.5t22 21t34.5 8q13 0 25 -20l6 -5q15 -15 26.5 -53t21 -88.5t17 -106.5t13.5 -106q5 -37 8.5 -67t7.5 -50q18 2 33.5 16.5t30.5 34.5q18 22 37.5 41t48.5 19q20 0 33 -8t19 -22l3 -2q10 -10 14 -25.5t4 -32.5q0 -14 -15.5 -34.5t-39.5 -42.5
t-53 -43.5t-57 -39t-50.5 -28t-33.5 -10.5q-15 0 -27 5.5t-22 14.5q-26 13 -40.5 45.5t-21.5 72.5t-8.5 81t-1.5 73q0 36 -7.5 73.5t-17.5 75.5q-1 3 -1.5 5.5t-1.5 5.5q-8 31 -14 62.5t-8 66.5zM11 536q2 -36 10 -72.5t17 -72.5t16 -72t7 -72q0 -35 2 -81t11.5 -88
t28.5 -71t53 -29q11 0 33 10.5t48.5 27t55 37t51.5 41.5t38 40.5t15 33.5q0 26 -10.5 45t-39.5 19q-25 0 -43 -17.5t-34.5 -38t-34.5 -38t-43 -17.5q-3 0 -7 0.5t-5 0.5q-5 14 -10.5 56.5t-12.5 97.5t-15.5 115t-19 110.5t-23 83t-27.5 32.5q-18 0 -29.5 -7t-18.5 -18.5
t-10 -26t-3 -29.5z" />
    <glyph glyph-name="m" unicode="m" horiz-adv-x="623" 
d="M12 70q0 23 1 69t4.5 101t11 113t19.5 105t29.5 77.5t42.5 30.5q3 0 7 -0.5t5 -1.5l180 -180l4 -0.5t7 -0.5q10 0 18.5 2.5t18.5 10.5q7 6 24.5 23t36.5 36t36 36.5t23 24.5q4 1 14.5 4.5l22.5 7.5t22 7.5t13 4.5q1 0 6 0.5t7 0.5q14 0 19 -10.5t5 -21.5v-16
q0 -35 -9.5 -68t-15.5 -65q-1 -5 -3 -19.5t-4 -32t-3.5 -33.5t-1.5 -23q-2 -12 -4 -44.5t-4 -69t-3 -69t-1 -45.5q-8 -18 -17.5 -21.5t-23.5 -3.5q-20 0 -31.5 7.5t-17 20.5t-6.5 29t-1 33q0 33 5 65.5t11.5 64t12.5 64t8 65.5q-4 10 -10 11.5t-14 1.5q-3 0 -7 -0.5t-5 -0.5
q-11 -12 -24 -30.5t-28.5 -36t-33.5 -30t-40 -12.5q-21 0 -36.5 12t-28.5 29.5t-24.5 38t-24 38t-27.5 29.5t-34 12q-13 0 -18 -11t-6 -26t0 -29t1 -20q0 -10 -0.5 -30.5t-1.5 -46.5t-2.5 -55t-2.5 -55t-2.5 -47t-2.5 -30q-2 -7 -7.5 -16.5t-13 -18.5t-15 -16t-12.5 -9
q-12 -5 -21 3.5t-15 21t-9 26t-3 19.5zM1 70q0 -6 2.5 -18t7.5 -24.5t12.5 -23.5t18.5 -15l5 -5q7 -8 18 -9l2 -2q1 1 2 1q1 1 2 1h1l-1 1q8 4 17.5 12.5t18.5 18t15.5 19t8.5 16.5q1 9 2.5 30t2.5 47.5t2.5 55.5t2.5 55.5t1.5 47.5t0.5 31q0 2 -0.5 5t-0.5 7q-1 5 -1 11v13
q0 15 3 28.5t14 13.5q10 0 20 -5q11 -11 20.5 -26t19.5 -30q14 -23 28.5 -44.5t35.5 -32.5q11 -10 23 -15.5t28 -5.5q18 0 33.5 8t29 20t25.5 27t22 29q4 6 8 11.5t12 13.5q3 0 5 1q-2 -26 -7 -53t-10 -53q-1 -3 -1 -6t-1 -6q-6 -32 -11.5 -64t-5.5 -67q0 -15 0.5 -30
t4 -27.5t10.5 -22t19 -15.5l3 -3q13 -15 45 -15q17 0 27.5 4.5t21.5 27.5q0 13 1 45.5t3 69t4 69t4 44.5q0 7 1.5 22.5t3.5 32.5t4 32t3 20q2 11 4.5 21.5t5.5 21.5q5 22 10 44.5t5 47.5v16q0 9 -2.5 17.5t-8.5 14.5l-2 1q1 0 1 -1h1l-5 4q-4 9 -11 15.5t-20 6.5h-4
q-2 0 -2.5 -0.5t-2.5 -0.5h-7q-2 0 -4 -1q-5 -2 -12.5 -4.5t-17.5 -5.5q-12 -4 -24.5 -8.5t-16.5 -6.5q-6 -7 -23 -24.5t-36.5 -37t-37 -36.5t-24.5 -23q-13 -10 -30 -10h-5l-178 178q-2 2 -8.5 3.5t-11.5 1.5q-28 0 -47.5 -31t-32.5 -79.5t-21 -107.5t-12 -115.5t-5 -103
t-1 -70.5z" />
    <glyph glyph-name="n" unicode="n" horiz-adv-x="599" 
d="M120 396q0 -7 4.5 -18t9.5 -21q5 -6 10 -9t28 -15q19 -9 46 -22t56.5 -27.5t58.5 -29t52.5 -26t38.5 -18.5l15 -7q1 0 3 0.5l2 0.5q3 3 7.5 12t4.5 12q0 7 -20 23.5t-50.5 36.5t-67.5 41.5t-71.5 39t-62.5 29t-40 11.5q-6 0 -15 -1.5t-9 -11.5zM12 47q0 49 3.5 104
t8.5 110t11.5 108t12.5 99q-2 3 -4 9.5t-4 14t-3 14.5t-1 10q0 9 5 23t13 27.5t19 23.5t23 10q16 0 24 -7.5t11 -19t2.5 -25.5t-0.5 -27q0 -18 11 -29q25 -11 58 -29.5t69 -38.5t71.5 -37.5t65.5 -26.5q1 0 10 -0.5t14 -0.5q3 0 12 0.5t12 0.5q10 60 12.5 120t-0.5 120
q11 26 25 32t35 6q17 0 26.5 -5t9.5 -26v-7q-3 -35 -6.5 -83t-7.5 -100t-8 -103t-7 -91.5t-5 -65.5l-2 -25l-1 -70h-84q-7 4 -11.5 15.5t-8.5 25t-8.5 25.5t-11.5 17q-9 5 -30.5 16t-49 24t-56.5 27t-53.5 25.5t-40.5 19t-17 7.5h-36l-2 -9.5t-4 -23t-3.5 -27.5t-2.5 -24
q-2 -8 -4 -30t-4 -47t-3 -47.5t-1 -31.5q1 -17 -6 -21t-17 -4q-9 0 -19.5 3.5t-20 10t-15.5 15t-6 19.5zM1 47q0 -15 9 -27t23 -20l1 -1q11 -11 26 -17t28 -6q12 0 21.5 5t9.5 25v3q0 9 1 31t3 47t4 46.5t4 29.5q1 12 2 31t1.5 32t0.5 15h36q1 0 14.5 -6t34.5 -16
t46.5 -22.5l51 -25t47.5 -24t36 -18.5q2 -5 4.5 -11.5t5.5 -14.5q0 -1 0.5 -2l0.5 -1q4 -16 9.5 -28.5t18.5 -20.5h2l6 -6q2 -2 8 -6h94l1 77q6 82 10.5 139t7.5 97.5t5 68.5t4 53l4 50t5 60v8q0 21 -9 30l-6 5q-4 14 -15.5 18t-28.5 4q-24 0 -40.5 -7t-30.5 -40
q1 -17 1.5 -33.5t0.5 -33.5q0 -40 -3 -81t-10 -84h-24q-3 0 -5.5 0.5t-4.5 0.5q-38 12 -82.5 34.5t-86.5 46.5q-23 13 -44 24t-43 21v9v28q0 14 -2.5 27t-10.5 21l-4 3q-4 11 -14 18.5t-29 7.5q-14 0 -27 -11t-23 -26.5t-15.5 -31.5t-5.5 -26q0 -6 3.5 -22.5t7.5 -27.5
q-6 -45 -12 -97.5t-11.5 -107.5t-8.5 -109.5t-3 -104.5zM143 381q0 4 6 4.5t10 0.5q9 0 29.5 -7.5t46.5 -20t55.5 -28.5t57.5 -32.5t52 -32.5t40 -28q5 -7 5 -9t-2.5 -6t-4.5 -8q-9 5 -14.5 8t-11.5 6t-14.5 7t-21.5 11q-23 12 -50.5 25.5t-55 26.5t-52 25t-42.5 20
q-11 5 -16.5 8t-9.5 5q-7 16 -7 25z" />
    <glyph glyph-name="o" unicode="o" 
d="M190 312q0 -16 9.5 -46t23.5 -59.5t30.5 -51.5t30.5 -22q13 0 32 25t36.5 59t29.5 68.5t12 54.5q0 14 -11 35.5t-26 42t-32 35t-29 14.5q-9 0 -27 -20t-35.5 -46.5t-30.5 -52t-13 -36.5zM184 106q-7 33 -25 58t-38.5 46.5t-38.5 42.5t-26 46q-1 2 0.5 9t1.5 11
q6 4 19.5 19t29 32.5t29 33t18.5 21.5q18 21 37 57.5t40.5 71.5t46 60.5t53.5 25.5h10q9 0 17.5 -2.5t11.5 -12.5q8 -45 21 -89.5t39 -83.5q12 -17 31 -36.5t34 -40t21.5 -41.5t-6.5 -41l-211 -325zM176 99l125 -149l1 3l13 -13l217 334q5 8 7 15.5t2 15.5q0 18 -11 37
t-26 37q-8 11 -17.5 22t-18.5 22q-2 3 -4.5 5.5t-4.5 5.5q-4 3 -7 7q-26 38 -38.5 82t-20.5 90q-1 6 -6 11l-2 1q1 0 1 -1h1l-7 6q-4 14 -16 17.5t-23 3.5h-10q-23 0 -42 -13t-35.5 -33t-31.5 -46t-29 -51q-13 -23 -24.5 -43.5t-22.5 -32.5q-5 -6 -18.5 -21.5t-29 -33
t-30 -33t-21.5 -20.5v-6q0 -3 -1 -5q-1 -3 -1 -7v-5v-5q7 -24 23.5 -44.5t35.5 -40.5q23 -23 42.5 -48t26.5 -59zM213 297q0 10 12 34.5t28.5 49.5t32.5 44t25 19q6 0 14 -5q10 -10 20.5 -23t19 -27t13.5 -27t5 -22q0 -18 -11 -51t-26.5 -65.5t-32.5 -56t-29 -23.5
q-9 0 -20 11q-10 15 -19 35t-16 40.5t-11.5 38t-4.5 28.5z" />
    <glyph glyph-name="p" unicode="p" horiz-adv-x="455" 
d="M144 468q-1 -1 -3 -14t-4 -30t-3.5 -35t-1.5 -29q0 -7 -0.5 -25t-1.5 -38.5t-1.5 -38.5t-0.5 -25q7 0 31 13.5t50.5 31t49.5 34.5t29 24q-9 11 -24.5 29.5t-34 39.5t-38 41t-35.5 34zM12 48q1 4 5 23.5t8 42t7.5 42t3.5 24.5q1 7 2.5 28t2.5 49.5t2.5 60.5t2.5 60.5
t1.5 49.5t0.5 28q1 18 3 43t8.5 47.5t20.5 38.5t40 16q3 0 12 -0.5t12 -0.5l132 -132q10 -9 34.5 -26.5t49 -37.5t43.5 -40t19 -34q0 -22 -21.5 -41t-53.5 -35.5t-70 -31.5t-71.5 -29.5t-57.5 -29.5t-28 -31q-4 -15 -5 -37.5t-5 -44t-15 -36.5t-36 -15q-18 0 -25 8t-22 29v5
v7zM1 51v-19q1 -2 4 -5q1 -2 2.5 -3.5l2.5 -2.5q8 -13 13.5 -19.5t13.5 -10.5l6 -5q5 -5 12 -7.5t19 -2.5q21 0 33.5 9.5t19 24t8.5 32.5t3 35q1 11 2 20.5t3 17.5q2 10 13.5 19t29.5 18.5t40 18.5t46 19q31 13 62 26.5t55.5 28.5t40 32.5t15.5 37.5q0 9 -6 19.5t-16 21.5
q-8 11 -20.5 23.5t-27 24.5t-29.5 23.5t-28 21.5q-9 6 -16.5 11.5t-12.5 10.5l-140 140h-17q-2 0 -4 0.5t-4 0.5h-4q-28 0 -43.5 -15.5t-24 -38t-11 -48t-3.5 -45.5q0 -2 -0.5 -3t-0.5 -2v-4q0 -7 -0.5 -28t-1.5 -49.5t-2.5 -60t-2.5 -60t-2.5 -49.5t-2.5 -28q0 -5 -3.5 -24
t-7.5 -41.5t-8 -41.5t-5 -23zM272 338q-10 -8 -24.5 -19t-31.5 -22.5t-34 -22t-31 -18.5q1 6 1 12t1 13q1 20 1.5 38.5t0.5 25.5q0 11 1 28t2.5 33t3.5 28t3 13l4 4q28 -28 56.5 -60t46.5 -53zM179 446l-2 2zM153 471l3 -3z" />
    <glyph glyph-name="q" unicode="q" 
d="M190 312q0 -14 7.5 -28.5t19.5 -26t26.5 -18.5t28.5 -7q13 0 34 10t40.5 25.5t33.5 33.5t14 35q0 13 -11 32.5t-26 38t-32 31.5t-29 13q-9 0 -27 -18t-35.5 -42t-30.5 -47t-13 -32zM8 -24q0 33 25 55t55 40.5t55 38t25 47.5q0 26 -17.5 41.5t-38.5 29t-38.5 29.5
t-17.5 43q0 3 1 9t1 9q6 4 19.5 17t29 29t29 30t18.5 20q18 19 37 51.5t40.5 64t46 54.5t53.5 23h10q9 0 17.5 -1.5t11.5 -11.5q8 -40 21 -80.5t39 -75.5q12 -15 29 -27.5t32 -27t26 -31.5t11 -39q0 -25 -13.5 -42.5t-33.5 -30.5t-44 -23.5t-44 -20.5t-33.5 -21t-13.5 -25
l12 -12q10 -9 36.5 -26t53.5 -36.5t48 -39.5t21 -36q0 -4 -1 -15t-2 -15q-12 -12 -27.5 -12.5t-29.5 -0.5q-36 0 -59.5 18.5t-43.5 42t-41 45t-51 27.5q-48 -32 -95 -73t-85 -83q-3 -1 -9.5 -1.5t-8.5 -0.5q-18 0 -37 11t-19 33zM-3 -24q0 -16 9 -27.5t22 -18.5l1 -1
q10 -10 23.5 -15t26.5 -5q3 0 11 0.5t11 1.5q39 44 85 83.5t93 71.5q13 -3 27 -12q9 -8 17 -17l16 -18l26 -28t29 -25q15 -14 33.5 -23t44.5 -9h14q13 0 26 2.5t24 13.5q1 5 2.5 18t1.5 17q0 9 -5.5 18t-14.5 19q-7 12 -20 24.5t-28.5 25t-32.5 24.5t-32 22v-1
q-11 7 -20.5 12.5t-17.5 10.5v1h2l-1 1q5 13 24 22.5l43 21.5q20 9 40 19t36.5 23.5t27 30t10.5 39.5q0 19 -7 33.5t-18 26.5q-9 16 -23.5 28.5t-28.5 24.5q-17 12 -30 27q-21 32 -32 69t-19 74q-3 8 -6 11l-7 6q-5 15 -16.5 17.5t-22.5 2.5h-10q-22 0 -41 -11.5t-36 -29.5
t-32 -41t-29 -46t-26 -41.5t-21 -27.5q-5 -6 -19 -20.5t-29.5 -30t-30 -29.5t-20.5 -18v-6q0 -2 -0.5 -2.5t-0.5 -1.5q-1 -3 -1 -7v-6q0 -30 16.5 -47.5t37.5 -30.5q6 -5 12 -9t13 -8q2 -2 4.5 -4t5.5 -4l1 -1h1q9 -8 15 -18t6 -21q0 -21 -21.5 -38.5t-48.5 -34.5
q-17 -10 -33 -20.5t-28.5 -23.5t-20.5 -28.5t-8 -35.5zM213 297q0 9 12 30.5t28.5 44t32.5 39.5t25 17q7 0 18 -7q10 -9 20 -20t17.5 -23t12 -23t4.5 -19q0 -15 -12.5 -31.5t-30.5 -30t-37 -22.5t-31 -9q-29 0 -52 26q-7 13 -7 28z" />
    <glyph glyph-name="r" unicode="r" horiz-adv-x="475" 
d="M210 346l55 33v24l-42 42h-16q-1 0 -3 -7t-4.5 -17.5t-5 -21.5t-3.5 -18q0 -5 -0.5 -16.5t-2.5 -22.5v-7q9 3 23 11h-1zM1 47q0 38 10.5 76t22.5 76q9 28 16.5 54.5t10.5 47.5q1 14 3.5 43.5t8 65.5t14 74t21 69t30.5 51t41 20q16 0 41 -15t52 -38t54 -52.5t48 -57.5
q26 -32 42 -60t16 -45q0 -14 -6 -24.5t-15.5 -18.5t-21.5 -14t-25 -12q-20 -10 -37 -20t-17 -30v-4l99 -98q12 -10 20 -12q7 -3 10 -5.5t4 -9.5l9 -8q4 -4 4 -23q0 -37 -18.5 -51t-51.5 -14q-34 0 -59 22q-23 12 -39 34.5t-30 45.5q-11 17 -21.5 32.5t-23.5 27.5
q-17 9 -36 9q-11 0 -15 -3t-7 -17q-2 -8 -5.5 -28.5t-7.5 -43.5t-7 -44t-4 -30l-40 -40h-9q-33 0 -49 16l-3 3q-29 13 -29 51zM276 408v-36l-60 -36q-9 -5 -14.5 -7.5t-10.5 -4t-12 -2t-17 -0.5q0 3 1 14t2 23t2 22.5t1 14.5q1 8 4.5 20.5t7.5 24t7.5 19.5t4.5 8h24zM12 47
q0 -25 15 -36t40 -11h5l36 36q1 9 4 29t7 43t7.5 43t5.5 29q4 19 9.5 22.5t20.5 3.5q26 0 44.5 -12.5t33.5 -31.5t27.5 -41.5t27.5 -41.5t33 -31.5t43 -12.5q29 0 45.5 12.5t16.5 44.5q0 12 -1 15.5t-5 5t-11 4.5t-20 15l-108 108q0 1 -0.5 5t-0.5 7q0 23 19 35t42 22.5
t42 23.5t19 38q0 15 -12.5 38.5t-33 50.5t-46 54t-51 49t-48.5 36t-39 14q-21 0 -36.5 -19.5t-27 -49.5t-19.5 -67t-13 -71.5t-7.5 -63t-3.5 -42.5q-4 -29 -14 -60.5t-20 -64t-18 -65t-8 -63.5z" />
    <glyph glyph-name="s" unicode="s" horiz-adv-x="638" 
d="M4 149q0 30 13 48.5t48 18.5q23 0 42.5 -9t39.5 -20q1 -1 2.5 -1.5t2.5 -1.5v1q20 -12 39.5 -21.5t41.5 -9.5q8 0 16 23t15.5 56t14 68.5t10.5 59.5q1 5 1.5 10t1.5 9q0 1 0.5 2t0.5 3q1 9 3.5 23.5t6 32.5t7.5 37t8 37q2 11 3.5 19.5t3.5 15.5q1 4 1.5 8t1.5 7
q11 26 23.5 30.5t29.5 4.5q19 0 29.5 -2.5t29.5 -11.5q6 -3 11.5 -7.5t21 -23.5t45.5 -57.5t86 -110.5q3 -4 5.5 -8t6.5 -8q0 -26 -10 -37t-36 -11q-16 0 -28 5.5t-23 15.5q-13 8 -23 19.5t-19 25.5q-6 7 -11.5 14t-12.5 13q-9 6 -20 6q-1 0 -1.5 -0.5t-1.5 -0.5
q-23 -32 -32.5 -76.5t-16.5 -85.5q-2 -9 -3 -18.5t-3 -17.5q-2 -7 -4.5 -21t-5 -31t-5.5 -34.5t-5 -31.5q-2 -9 -2.5 -16t-1.5 -10q-1 -4 -1 -8v-6v-7q0 -3 1 -7q0 -5 0.5 -10t0.5 -10q0 -23 -10 -39t-46 -16q-17 0 -30.5 7t-26.5 17q-20 14 -37 34l-9.5 9.5l-9.5 9.5
q-12 7 -21 8q-8 1 -17 1h-18h-4q-25 0 -47.5 2.5t-36.5 16.5l-3 2q-14 8 -23 23t-9 43zM15 149q0 -31 13 -44t33 -17t43.5 -3t43.5 -1q19 -2 34.5 -15.5t30.5 -29t31 -28t37 -12.5q25 0 34.5 9t12 23.5t0.5 31.5t0 33q1 7 4 27.5t7 43.5t7.5 44t5.5 29q4 23 8 50.5t10 55
t16 53t26 45.5q1 0 3 0.5t3 0.5q23 0 38 -15.5t29 -34t30 -34t40 -15.5q22 0 30 8.5t8 29.5q-1 1 -15 19t-36.5 46.5t-44.5 56t-39.5 48t-21.5 22.5q-17 8 -27.5 10.5t-27.5 2.5q-14 0 -23.5 -3.5t-17.5 -21.5q-2 -10 -7.5 -35.5t-11.5 -54t-11 -54.5t-6 -36
q-2 -11 -5.5 -33t-8.5 -49t-11 -55t-13.5 -51t-15.5 -38t-17 -15q-24 0 -45 9.5t-41 21.5t-40 21.5t-42 9.5q-29 0 -39.5 -15.5t-10.5 -40.5z" />
    <glyph glyph-name="t" unicode="t" horiz-adv-x="707" 
d="M288 394q-15 0 -28 -5.5t-25.5 -12t-26 -12t-28.5 -5.5q-31 0 -53.5 18.5t-41 44t-35.5 52t-38 42.5q11 24 25 31t36 7q24 0 36 -17t20.5 -38t17.5 -38t27 -17q28 0 52 22.5t45 50t39.5 50t36.5 22.5q27 0 47 -21t39 -46t40 -46t50 -21q20 0 31.5 15t22 32t23.5 29.5
t36 8.5q1 0 6 -4t10.5 -10l11 -12t8.5 -10l0.5 -2.5t0.5 -3.5t-0.5 -3t-0.5 -3q-9 -16 -23 -38.5t-31.5 -43.5t-38.5 -36t-45 -15q-23 0 -41 11t-34.5 23.5t-32.5 23.5t-34 11q0 -9 0.5 -29t1.5 -44t1.5 -50t0.5 -47v-42q0 -11 -1.5 -38.5t-3.5 -58t-4 -58t-3 -37.5
q-14 -17 -25.5 -21t-28.5 -4q-5 0 -12.5 0.5t-14 3t-11 7.5t-4.5 14v370zM154 481q-6 14 -12.5 27t-16.5 23q-8 14 -20 24t-32 10q-25 0 -42 -10t-33 -43q19 -13 32.5 -31t26.5 -38q16 -23 33 -45.5t40 -36.5q14 -11 29.5 -18t35.5 -7q17 0 31 5.5t28 13.5q6 2 11.5 5.5
t11.5 5.5v-342q0 -14 6 -21t14 -10l6 -6q8 -8 20.5 -9.5t21.5 -1.5q20 0 32.5 5t29.5 25q1 10 3 38t4 59t3.5 59t1.5 39v42q0 26 -1 57.5t-2 58.5q-1 14 -1 25v20q9 -2 17.5 -6.5t16.5 -10.5q3 -2 6.5 -5t6.5 -5l0.5 -0.5t1.5 -0.5q18 -14 38.5 -27t46.5 -13q25 0 47.5 15.5
t41.5 37.5t33.5 45.5t23.5 40.5v5q0 1 0.5 1.5t0.5 1.5q0 4 -1 9q-2 2 -5 5.5t-7 7.5v3q-3 3 -8.5 9t-12 12t-12.5 11.5t-10 8.5l1 2q-2 1 -6 1h-8q-25 0 -38.5 -15.5t-24.5 -33.5q-9 -14 -18 -25.5t-23 -11.5q-25 0 -43 18t-35 41q-2 2 -2.5 3t-2.5 3q-10 13 -20 25.5
t-21.5 22t-24 15.5t-27.5 6q-20 0 -37.5 -19t-36.5 -45q-11 -15 -22.5 -29.5t-23.5 -26t-25.5 -18.5t-27.5 -7q-7 0 -11 3q-2 5 -4.5 11t-4.5 12zM112 378q-4 4 -5 6l12 -12q-3 2 -7 6z" />
    <glyph glyph-name="u" unicode="u" horiz-adv-x="513" 
d="M172 230q3 -5 8 -8zM143 576l4 -4q6 -6 8 -9l1 -14v-44l-14 -228q0 -15 22 -40q-16 17 -26.5 31.5t-10.5 23.5l14 228v44l-1 14h-1v1q-17 13 -47 13q-7 0 -16.5 -1t-18 -5t-14.5 -10.5t-6 -16.5v-264h-1l-22 -88q0 -5 0.5 -7.5t1.5 -4.5q3 -5 3 -6v-3l2 -4q5 -3 14 -4
q17 -5 36 -11t22 -8l1 -1q9 -5 32.5 -20t52.5 -33q30 -19 62 -39t60.5 -37t49 -28t27.5 -11q20 0 36 13t27.5 32t17.5 39.5t6 34.5q0 10 0.5 28t1.5 41q1 40 2 91t1 99q0 39 -1 72t-4 55v1q0 14 -3 32.5t-13 32.5q-12 7 -25 7q-9 0 -19 -3t-18.5 -8.5t-14 -14t-5.5 -19.5
v-384q0 -7 -7.5 -17.5t-14.5 -10.5q-11 0 -31 10.5t-43.5 26.5t-47.5 35.5t-43 38.5l-2 1q19 -18 41.5 -35t44 -31t39 -22.5t27.5 -8.5q7 0 14.5 10.5t7.5 17.5v384q0 11 5.5 19.5t14 14t18.5 8.5t19 3q20 0 33 -13l13 -13q8 -14 10.5 -30.5t2.5 -29.5q3 -22 4 -55.5
t1 -73.5q0 -37 -0.5 -75.5t-1.5 -73.5q0 -11 -0.5 -21t-0.5 -20q0 -6 -0.5 -12t-0.5 -11q-1 -15 -1 -27v-19q0 -15 -6.5 -35.5t-18 -40t-28 -33t-37.5 -13.5q-8 0 -29 11t-49.5 28t-60.5 37t-62 39q-31 20 -55 35l-32 20q-6 2 -23.5 7.5t-32.5 10.5q-4 1 -7 1t-5 1l-10 11
q-3 3 -8 13v3q0 1 -3 6q-1 2 -1.5 4.5t-0.5 7.5l23 90v262q0 10 6 16.5t14.5 10.5t18 5t16.5 1q36 0 55 -20l11 -11l1 -12v-44l-14 -228q0 -10 12 -25.5t31 -33.5t42 -36.5t45.5 -33.5t41 -24.5t28.5 -9.5q6 0 12.5 9.5t6.5 15.5v384q0 12 6 21t15 15t19.5 9t19.5 3
q17 0 28 -8.5t18 -20.5l2 -2q14 -14 18.5 -35t4.5 -38q3 -22 4 -55.5t1 -73.5q0 -48 -1 -99t-2 -91q-1 -23 -1.5 -41t-0.5 -28q0 -14 -6 -34.5t-17.5 -39.5t-27.5 -32t-36 -13q-7 0 -27.5 11t-49 28t-60.5 37t-62 39q-31 20 -55 34.5t-32 19.5l-1 1q-6 2 -23.5 7.5
t-32.5 10.5q-16 3 -23 10l-5 4q-9 3 -13 8t-8 15v4q0 1 -3 6q-1 2 -1.5 5t-0.5 8l23 91v260q0 12 6 19t15 10.5t19 5t18 1.5q44 0 66 -31v-3zM132 574q-18 25 -55 25q-6 0 -14 -1t-15.5 -3.5t-12.5 -7.5t-5 -13v-264l-23 -90q0 -4 3 -9t2 -9q3 -7 7.5 -10t17.5 -6
q7 -2 16.5 -5t18.5 -6t15.5 -5.5t8.5 -3.5q8 -4 30.5 -18t51.5 -32.5t62 -39.5t61.5 -38t49.5 -28.5t27 -11.5q18 0 32.5 12.5t25 30t16 36.5t5.5 32t1 41t1.5 63.5t1.5 76t1 78.5q0 39 -1 72.5t-4 55.5q0 10 -2 24t-7 26t-14.5 20.5t-24.5 8.5t-32 -9t-17 -28v-384
q0 -4 -3 -10t-7.5 -12t-10 -10t-9.5 -4q-11 0 -30.5 10t-43 26t-48 35.5t-44.5 39t-32.5 36.5t-12.5 27l14 228v10v33z" />
    <glyph glyph-name="v" unicode="v" horiz-adv-x="473" 
d="M77 360q-5 7 -13.5 29.5t-17.5 48.5t-16.5 48.5t-11.5 29.5q0 1 -0.5 5t-0.5 7q0 24 19 36.5t40 12.5h22q9 0 16 -13l76 -320l15 -30q1 0 8.5 19.5t19 49t25.5 64.5t27.5 67.5t25.5 57t19 32.5q12 12 19 23t14 19t17 13t29 5h5q4 -3 12.5 -11.5t11.5 -12.5v-5
q0 -29 -15 -51q-7 -11 -27 -48t-53 -101q-66 -128 -129 -313q-38 -15 -42 -15zM164 -4q2 0 4 1l13 -13q10 0 55 18q63 189 129 314q33 64 53 101t27 48q16 23 16 55v7l-12 12v4l-32 32h-8q-31 0 -44 -11t-25 -30q0 -1 -0.5 -1.5l-0.5 -0.5q-4 -5 -8 -10.5t-9 -10.5
q-7 -8 -18.5 -31.5t-24.5 -54t-26.5 -64.5t-25.5 -64q-2 -5 -4 -10.5t-4 -10.5q-3 -8 -6 -14.5t-5 -12.5l-71 302q-5 7 -9 12l-2 2l-1 4q-12 19 -27 19h-22q-25 0 -47.5 -15.5t-22.5 -44.5v-5q0 -2 0.5 -2.5t0.5 -1.5v-6q2 -3 5 -13t8 -24q2 -6 5 -12.5t5 -14.5
q11 -32 21.5 -60.5t15.5 -36.5z" />
    <glyph glyph-name="w" unicode="w" horiz-adv-x="635" 
d="M519 230q-11 0 -31 -4t-40 -11.5t-35 -17t-15 -20.5v-13q0 -2 8 -8q5 -4 14 -12t18.5 -15.5t17 -13t9.5 -4.5l20 12zM274 204q-5 12 -20.5 22t-33.5 18.5t-33.5 15.5t-19.5 12h-24q-2 0 -3.5 -5.5t-3 -13t-3 -15.5t-2.5 -14v-68q0 -8 5.5 -15.5t5.5 -8.5l12 -12zM309 238
h6q6 0 13.5 -0.5t8.5 -0.5q21 0 33 5.5t29 15.5q35 22 54.5 50t30 60.5t13.5 69.5t5 78q11 18 20.5 27.5t27.5 9.5q14 0 24 -5.5t24 -19.5v-9q0 -5 0.5 -12t0.5 -13v-8q0 -24 -1 -69.5t-4.5 -99.5t-10 -110.5t-18 -102t-28.5 -75t-41 -29.5t-43.5 22.5t-40.5 50t-45.5 50
t-56.5 22.5q-3 0 -7 -0.5t-5 -0.5q-54 -32 -109.5 -68.5t-106.5 -75.5q-3 -1 -9.5 -1.5t-8.5 -0.5q-18 0 -36 11t-18 32q0 32 4 61t10 57t13 57t13 61q3 10 3 36q0 19 1.5 46t4.5 56.5t8 58.5t13 52t19 37t25 14q5 0 14 -4t18 -9.5t15.5 -12t6.5 -11.5l-11 -184zM511 -23
q26 0 44 29.5t30.5 76.5t19.5 104t11 112t5 101t1 71v8q0 3 -0.5 6t-0.5 7v25l-12 12v4q-18 18 -30 24.5t-29 6.5q-23 0 -34.5 -11t-24.5 -32q-2 -40 -5 -76.5t-12.5 -68.5t-27.5 -59t-50 -47q-1 -1 -3 -2.5t-3 -2.5t-2 -1q-14 -8 -24.5 -12t-26.5 -4h-12q-3 0 -5.5 0.5
t-4.5 0.5h-3l-122 101l11 175q0 7 -9 16l-5 4q-3 7 -11.5 14.5t-18 14t-19 10.5t-14.5 4q-24 0 -40 -31.5t-25.5 -76t-13 -91t-3.5 -76.5q0 -21 -2 -31q-4 -20 -8 -39.5t-9 -37.5q-1 -2 -1 -5q0 -2 -1 -4q-8 -38 -15 -74.5t-7 -80.5q0 -17 8.5 -28t21.5 -17l2 -2
q9 -9 22 -14t26 -5q3 0 10.5 0.5t10.5 1.5q52 39 106.5 75.5t107.5 68.5h2q2 0 4.5 0.5t4.5 0.5q19 0 40 -13q12 -11 23 -24.5t22 -27.5q13 -17 25.5 -32t26.5 -24q11 -11 23 -17.5t26 -6.5zM154 141v65q1 2 1 5q0 4 1 7q2 9 3.5 19t-0.5 12h19q5 -5 15 -9.5t21 -8.5
q10 -5 19.5 -10t19.5 -10q2 -1 2.5 -2t2.5 -3l-103 -71q-1 2 -1 6zM426 152h1l-6 6v4q0 6 7 12t18.5 11.5t25 9.5t26.5 7l-22 -71l-15 -8q-5 3 -15 12t-20 17z" />
    <glyph glyph-name="x" unicode="x" horiz-adv-x="503" 
d="M73 544q1 -1 1.5 -2t2.5 -2zM170 457l-0.5 0.5t-0.5 1.5h-1zM69 549q2 -3 8 -9zM205 322v-1q8 -10 16.5 -16.5t18.5 -6.5q14 0 26 12t12 26q0 12 -8 22q-12 5 -21 5q-17 0 -28.5 -12.5t-16.5 -27.5zM79 271q-14 7 -22.5 18.5t-8.5 34.5q0 15 7.5 29t19 26.5t25.5 24
t28 22.5q10 7 19 14.5t18 15.5q-10 12 -22.5 23.5t-26.5 23.5q-15 12 -29.5 24.5t-26 25t-18.5 23.5t-7 20q0 13 6.5 22.5t16.5 14.5t21.5 7.5t21.5 2.5q15 0 31.5 -11t32.5 -27.5t30 -35.5t25 -34q4 -6 6 -8t4.5 -6t4.5 -5h-1q0 -1 0.5 -1.5t0.5 -1.5h11q13 0 24 6t20.5 15
t18 21t16.5 24h-1q16 26 35.5 47t48.5 21q14 0 26 -8.5t18 -20.5l3 -3q13 -13 13 -30q0 -18 -7.5 -34t-20.5 -30t-29 -26l-32 -24h-1q-14 -11 -27.5 -20t-23.5 -20l77 -75q0 -1 2 -7l11 -10q2 -2 3 -10t1 -13q0 -16 -9 -28.5t-21.5 -22.5t-27 -18t-26.5 -14l-2 -1v-23
l141 -141q0 -1 1 -3t2 -5l10 -9q1 -1 4 -12.5t3 -17.5q0 -23 -8 -34.5t-32 -11.5q-5 0 -10.5 0.5t-11.5 1.5q-12 2 -22 7.5t-19 13.5q-19 11 -33.5 29t-26.5 36l-8 12q0 1 -1 2q-4 5 -6 8.5t-4 5.5q-5 6 -9 10.5t-8.5 9.5t-11.5 13t-19 21h-24q-2 -1 -12.5 -12t-24 -25.5
t-28 -30.5t-24.5 -26q-4 -4 -6.5 -8t-5.5 -9q-10 -16 -22 -31t-31 -15q-17 0 -31.5 3.5t-24.5 13.5l-3 3q-29 13 -29 52v4q0 1 0.5 2t0.5 3v7q6 7 21 23t33.5 34.5t36 35.5t27.5 26q9 9 16 13t12 5v16q0 4 -3 9q-5 2 -9.5 4.5t-9.5 4.5q-12 5 -24 9.5t-21 13.5zM180 336
q6 19 19.5 34.5t34.5 15.5t38 -14t17 -36q0 -19 -15 -34t-34 -15q-21 0 -34.5 16t-25.5 33zM73 11q10 0 19 7.5t16 18t13 20.5t11 15q10 11 26 27.5t31 31.5t26.5 26t12.5 11h24l9 -8t20.5 -19.5t23.5 -24t19 -20.5q9 -11 19 -26.5t22 -30t25.5 -26t29.5 -13.5q32 -5 42.5 4
t10.5 32q0 5 -2 14t-3 10l-156 156v36l25 12.5t28.5 17.5t23 22t9.5 27q0 4 -0.5 10t-1.5 7l-96 96q15 18 40 35t48 35.5t40 39t17 46.5q0 14 -11.5 25t-25.5 11q-26 0 -43 -21t-33.5 -46t-36 -46t-49.5 -21q-3 0 -9 0.5t-9 1.5q-8 11 -22.5 32.5t-32.5 42.5t-37 37t-35 16
q-9 0 -18.5 -1.5t-17.5 -6t-13.5 -11.5t-5.5 -17q0 -12 18.5 -31.5t42.5 -39.5t45.5 -39t27.5 -30q-12 -14 -32.5 -28.5t-40 -31t-34 -34.5t-14.5 -38q0 -26 15.5 -36t34 -16.5t34 -14.5t15.5 -28v-21q0 -5 -6 -5q-3 0 -8 -2t-12 -9q-7 -6 -24.5 -23t-36.5 -36t-36 -36.5
t-23 -24.5q0 -1 -0.5 -5t-0.5 -7q0 -28 18 -38.5t44 -10.5z" />
    <glyph glyph-name="y" unicode="y" horiz-adv-x="551" 
d="M343 437q9 7 24 30t31.5 47.5t33.5 43.5t31 19q52 0 52 -50q0 -22 -14.5 -45t-35.5 -45t-46.5 -43.5t-46.5 -40.5t-35.5 -35.5t-14.5 -29.5v-240q0 -9 -6 -18t-14.5 -15.5t-17.5 -11t-16 -4.5q-2 0 -4 0.5l-2 0.5q-22 17 -30 23.5t-8 23.5q0 43 7.5 82.5t7.5 86.5v22
q0 15 -2.5 27t-2.5 28v20q-9 14 -29 29.5t-45 32.5t-51.5 35t-48.5 37.5t-36 39.5t-14 41q0 12 6 21t15 15.5t19.5 9.5t19.5 3q18 0 31 -10.5t24.5 -27t21.5 -35t21.5 -35t26 -27t33.5 -10.5q1 0 3.5 0.5l2.5 0.5q3 1 8.5 3.5t7.5 5.5q0 7 -1 31t-1 43t1 35.5t1 24.5
q0 7 4.5 16t11.5 16t15.5 12t16.5 5q2 0 6 -0.5t6 -0.5q4 -2 10 -5.5l12 -7t10 -7t4 -4.5l-15 -151zM357 599q0 3 -5 8t-12 10.5t-15 10.5t-13 7h-8q-1 0 -2 0.5t-2 0.5h-2q-10 0 -20.5 -6t-19 -15t-14 -19.5t-5.5 -19.5v-6q0 -3 -0.5 -6t-0.5 -6q-1 -9 -1 -20v-22v-27
q0 -14 1 -26q0 -5 0.5 -9t0.5 -7q-3 -3 -7 -3h-1q-3 -1 -4 -1q-23 0 -41 20q-5 8 -9.5 16.5t-9.5 16.5q-8 13 -15.5 25t-16.5 23q-12 19 -27 31.5t-38 12.5q-11 0 -23 -4t-23 -11.5t-18 -18.5t-7 -26q0 -35 29 -65t67 -57q14 -11 29.5 -21.5t31.5 -21.5q15 -11 29 -21
t26 -19q9 -9 12 -13v-17q0 -12 0.5 -16.5t1.5 -7.5q0 -2 0.5 -2.5t0.5 -2.5v-2q1 -6 1.5 -12t0.5 -12v-22q0 -23 -2.5 -45t-5.5 -43q-3 -20 -5 -39.5t-2 -41.5q0 -18 6 -25.5t21 -18.5l2.5 -2.5t3.5 -2.5l-1 1q2 -2 4 -3q2 -2 8 -6q3 -2 8 -5.5t10 -7.5q3 -1 8 -1
q8 0 18.5 5t20.5 13t16.5 18t6.5 21v240q0 14 22.5 35.5t51.5 46.5q21 18 42 37t38 38.5t28 40t11 41.5q0 28 -15 43l-3 2q-12 31 -57 31q-11 0 -23 -8.5t-24 -22.5t-24 -31t-22 -33q-3 -5 -6.5 -10.5t-6.5 -10.5l12 112q0 2 -4 6l-8 8v1zM41 455l5 -6l-3.5 3.5l-3.5 3.5
q1 0 1 -1h1zM46 449l10 -9v-1zM362 592l-2 2z" />
    <glyph glyph-name="z" unicode="z" horiz-adv-x="623" 
d="M327 345q3 -20 8 -46.5t10.5 -53.5t11.5 -51.5t13 -39.5h1q21 0 41.5 9.5t40.5 21.5v-1q1 1 2.5 1.5t2.5 1.5q20 11 39.5 20t41.5 9q41 0 54 -28l4 -4q8 -8 11.5 -21t3.5 -29q0 -27 -8.5 -41.5t-23 -21t-32.5 -8t-37 -1.5h-4h-18t-17 -1q-17 -2 -30 -14t-27 -26
q-17 -17 -34.5 -31t-42.5 -14q-31 0 -44 13l-4 4q-17 6 -21.5 20t-4.5 32v9q0 2 0.5 4.5t0.5 4.5v7q0 2 0.5 4.5t0.5 4.5v8q0 3 -1 5q-2 5 -5 25t-6 45v-1q-1 3 -1 6t-1 6q-3 21 -6 38.5t-5 25.5l-2 13t-4 23q-1 4 -1.5 8t-1.5 8q-6 34 -14 68.5t-25 63.5
q-17 -3 -29.5 -16.5t-23.5 -28.5q-15 -20 -32 -36.5t-44 -16.5q-26 0 -36 10l-6 6q-22 8 -22 48q56 72 86.5 111t45.5 58t20.5 23t10.5 7q19 9 29.5 11.5t30.5 2.5q16 0 27 -4t22 -24h1q6 -6 14 -22q2 -11 7 -35.5t11 -53.5t11 -55t7 -36q1 -5 1.5 -11t2.5 -14zM589 149
q0 25 -10.5 40.5t-39.5 15.5q-22 0 -42 -9.5t-40 -21.5t-41 -21.5t-45 -9.5q-9 0 -17.5 15t-15.5 38t-13 51t-11 55t-8.5 49t-5.5 33q-2 10 -7 35.5t-11 54.5t-11 54.5t-7 35.5q-8 18 -17.5 21.5t-23.5 3.5q-17 0 -27.5 -2.5t-27.5 -10.5q-4 -2 -21.5 -22.5t-39.5 -48
t-44.5 -56t-36.5 -46.5t-15 -19q0 -21 8 -29.5t30 -8.5q24 0 40 15.5t30 34t29 34t38 15.5q1 0 3 -0.5t3 -0.5q16 -21 25.5 -46.5t15.5 -52.5t10 -54t9 -51q2 -9 5 -30t7 -44t7 -43t5 -27q2 -16 0 -33t0.5 -31.5t12 -23.5t34.5 -9q21 0 37 12.5t31 28t30 29t35 15.5t43.5 1
t43.5 3t33 17t13 44z" />
    <glyph glyph-name="FL007Bh" unicode="{" horiz-adv-x="227" 
d="M12 280q0 12 5 34.5t13.5 49.5t21 55t27 50.5t31 37t33.5 14.5q14 0 26 -5t12 -20q0 -3 -0.5 -7t-0.5 -5q-27 -23 -43 -45t-24.5 -46.5t-11 -53t-2.5 -63.5q0 -49 15 -88.5t32.5 -72.5t32.5 -61t15 -55q-22 0 -44 15.5t-42.5 40.5t-37.5 56t-30 62t-20.5 59.5t-7.5 47.5z
M1 280q0 -23 11 -58.5t29.5 -73.5t43.5 -73.5t53 -58.5q20 -18 39.5 -29t39.5 -11q0 31 -11.5 55.5t-26.5 52.5q-20 35 -38.5 78.5t-18.5 98.5q0 34 2.5 62t11 52t24.5 46t43 45v6q0 2 0.5 4.5t0.5 4.5q0 13 -8 21l-6 5q-5 14 -18.5 19.5t-28.5 5.5q-19 0 -36.5 -15
t-33.5 -38.5t-29 -53t-22.5 -57.5t-15 -51.5t-5.5 -36.5z" />
    <glyph glyph-name="FL007Dh" unicode="|" horiz-adv-x="196" 
d="M7 -90q0 2 0.5 4.5t0.5 4.5v11l57 791q4 24 21.5 35.5t38.5 11.5q14 0 20.5 -6t9.5 -15l6 -5q6 -6 8 -15.5t2 -20.5v-61q0 -10 -1 -36.5t-2.5 -61t-3 -72.5t-3.5 -70.5t-3.5 -56t-2.5 -28.5l-2 -56q-1 -33 -2 -78.5t-4 -94.5t-7.5 -97t-12 -86t-18 -61.5t-24.5 -23.5h-5
q-23 4 -37 19l-3 3q-17 10 -25 25.5t-8 34.5v5zM18 -95q0 -21 12.5 -37.5t36.5 -21.5q16 -4 27 28t17.5 83t10.5 113t5.5 117.5t2.5 97t2 51.5q1 5 2.5 28.5t3.5 56t3.5 70.5t3 72t2.5 60.5t1 36.5v40q0 7 0.5 16.5t-1 18.5t-6.5 15.5t-16 6.5q-17 0 -31.5 -9t-17.5 -28
l-57 -790q0 -3 -0.5 -12t-0.5 -13z" />
    <glyph glyph-name="FL007Ch" unicode="}" horiz-adv-x="227" 
d="M6 -11q-2 0 -2.5 -0.5t-2.5 -0.5q0 32 10 55t24 49l2 4l2 4q20 35 38.5 78.5t18.5 97.5q0 34 -2.5 61.5t-11 51.5t-24.5 46t-43 45v7q0 1 -0.5 1.5t-0.5 2.5v5q0 21 15 28.5t34 7.5q17 0 33 -13t31 -33q19 -21 35.5 -53t28.5 -64.5t19 -61t7 -42.5q0 -30 -17.5 -78.5
t-45.5 -95.5t-63.5 -81t-71.5 -34zM194 280q0 12 -5 34.5t-13.5 49.5t-21 55t-27 50.5t-31 37t-33.5 14.5q-14 0 -26 -5t-12 -20q0 -3 0.5 -7t0.5 -5q27 -23 43 -45t24.5 -46.5t11 -53t2.5 -63.5q0 -49 -15 -88.5t-32.5 -72.5t-32.5 -61t-15 -55q22 0 44 15.5t42.5 40.5
t37.5 56t30 62t20.5 59.5t7.5 47.5z" />
    <glyph glyph-name="FL007Eh" unicode="~" horiz-adv-x="373" 
d="M7 255q5 17 19 35.5t30.5 35t33 28t26.5 14.5q10 2 12 2q13 0 24.5 -6.5t21.5 -15.5t19.5 -18t19.5 -13q14 18 24 34t33 16q9 0 24 -4l31 -8q-5 -17 -18.5 -34.5t-30 -32.5t-32.5 -26t-26 -14l-9 -3q-1 -1 -5 -1q-5 0 -11 3q-7 3 -15.5 10t-17 15t-15 16t-9.5 13l-1 1
l-4 -2l-11 -3q-13 -8 -24.5 -18t-21.5 -19t-18 -15t-14 -6zM2 246l7 -4l10 -9l37 -17q10 0 20 7.5t21 18.5q8 7 18 15.5t22 16.5l4 1q17 -19 37 -32h-1q1 -1 5 -3q10 -11 21 -15h1q7 -4 15 -4q7 0 9 1l8 3q10 3 27 15.5t34.5 29.5t32 37t20.5 39l-13 12l1 2q0 1 1 3l-42 11
q-8 2 -13.5 3t-13.5 1q-21 0 -32 -10.5t-22 -26.5q-4 -6 -7 -10q-9 5 -16 14q-2 1 -2.5 2t-2.5 2l1 -1q-14 12 -27.5 22.5t-33.5 10.5h-7q-3 0 -6 -1v-1h-2q-11 -3 -28.5 -15.5t-35.5 -30t-33 -37.5t-20 -39zM159 262q-4 4 -5 6l12 -13zM194 338q1 -1 2 -1.5t2 -2.5
q-1 2 -2 2.5t-2 1.5z" />
    <glyph glyph-name="FL007Fh" horiz-adv-x="355" 
 />
    <glyph glyph-name="FL00A0h" unicode="&#xa0;" horiz-adv-x="355" 
 />
    <glyph glyph-name="FL00A1h" unicode="&#xa1;" horiz-adv-x="196" 
d="M145 576q0 -28 -15.5 -38.5t-39.5 -10.5q-25 0 -33.5 14t-8.5 35q0 7 3.5 18.5t10 21t15.5 16t20 4.5q21 -5 34.5 -22t13.5 -38zM123 366q0 21 -12.5 37.5t-36.5 21.5q-12 4 -19.5 -12.5t-11.5 -44t-5.5 -61.5t-3 -66t-3 -57.5t-5.5 -35.5l-4 -94q0 -7 -0.5 -16.5
t1 -18.5t6.5 -15.5t16 -6.5q17 0 31.5 9t17.5 28l28 307q0 3 0.5 12t0.5 13zM100 402q-12 10 -26 14v4h-3l-1 -3v1q-8 0 -12.5 -16t-7.5 -41t-4.5 -55.5t-2.5 -58.5q-2 -33 -3 -58.5t-6 -39.5l-3 1l-1 -4l3 -1l1 -1l-4 -90v-21q0 -8 1 -14t5 -10l15 -15q4 -4 9 -4
q14 0 26.5 7.5t14.5 22.5l28 306v11q0 4 0.5 8t0.5 6q0 21 -15 36l-3 3v-1q1 0 1 -1zM69 516q12 -12 36 -12q28 0 45.5 12.5t17.5 44.5q0 29 -20 49h-1q-15 29 -47 37h-7q-13 0 -23 -8t-17.5 -19t-11.5 -23t-4 -21q0 -20 6 -34.5t21 -21.5zM46 5q-1 1 -1 3q14 0 25 6.5
t13 20.5l28 306h3l-28 -306q-2 -15 -14 -22.5t-26 -7.5zM112 366q0 17 -12 31q2 -1 3.5 -2t3.5 -2q8 -13 8 -27q0 -2 -0.5 -6t-0.5 -8v-10h-3v10q0 2 0.5 4.5t0.5 4.5v5z" />
    <glyph glyph-name="FL00A2h" unicode="&#xa2;" horiz-adv-x="487" 
d="M205 70q0 1 -1 1v1l-2 1zM193 83q0 -1 1 -1zM191 276q7 -32 24 -60q3 -4 6.5 -7.5t6.5 -7.5l14 120q-12 -10 -24.5 -21t-26.5 -24zM205 -34q0 2 0.5 4.5t0.5 4.5v12l7 73q-31 27 -63 64t-64 85l-73 106l92 64l55 35l10 7t24.5 18t32 24.5t33.5 26.5l15 134
q4 24 21.5 35.5t38.5 11.5q14 0 20.5 -6t9.5 -15l6 -5q6 -6 8 -15.5t2 -20.5v-35q7 2 15 2h18h7q3 -2 9 -5.5t12.5 -8t12 -9t8.5 -7.5v-4l12 -12v-9q0 -24 -20 -45.5t-51 -41.5q-5 -3 -8.5 -5.5t-7.5 -4.5q-6 -5 -13 -8q-2 -26 -2.5 -53t-2.5 -50q-2 -36 -3 -61.5t-2 -30.5
q-2 -7 -2.5 -19.5t-1.5 -29.5q-1 -14 -2 -30.5t-2 -34.5q3 -2 11 -6q23 -12 39 -22.5t21 -23.5l3 -3q10 -10 10 -20q0 -20 -12 -37.5t-44 -17.5q-23 0 -45 5q-8 -45 -22 -74t-34 -29h-6q-23 4 -37 19l-3 3q-17 10 -25 25.5t-8 34.5v5zM167 294q27 24 50 43.5t42 34.5
l-22 -197q-24 23 -42.5 52t-27.5 67zM216 -39q0 -21 12.5 -37.5t36.5 -21.5q19 -4 32.5 27.5t21.5 78.5q24 -8 51 -8q28 0 38 15t10 32q0 14 -25 27.5t-60 33.5q4 46 5.5 83t3.5 48q1 4 2 23.5t2.5 47.5t3 61t3.5 65l16 10l16 10q29 18 48 38t19 42v5q-2 2 -6.5 5.5t-9.5 7
t-9.5 7t-7.5 4.5h-5q-22 0 -34.5 -2t-21.5 -7v7v40q0 7 0.5 16.5t-1 18.5t-6.5 15.5t-16 6.5q-17 0 -31.5 -9t-17.5 -28l-15 -138q-17 -14 -35.5 -28.5t-34.5 -26.5t-26.5 -19.5l-10.5 -7.5l-52 -33l-83 -58l66 -96q67 -98 130 -152l-8 -78q0 -3 -0.5 -12t-0.5 -13z" />
    <glyph glyph-name="FL00A3h" unicode="&#xa3;" horiz-adv-x="691" 
d="M544 25q1 -2 5 -6zM555 13l-6 6zM594 113l4 -4zM13 434q17 -11 41 -14t57 -5q7 -1 14 -1t15 -1v14q0 4 -0.5 7.5t-0.5 6.5q0 2 -0.5 4t-0.5 4v1q-9 6 -11.5 15t-2.5 18q0 3 0.5 5t0.5 4v8q0 30 14 47t46 17q16 0 26.5 -8.5t17.5 -20.5l3 -2q14 -14 19 -34t5 -34
q1 -19 1 -33t1 -26q37 -3 72 -6t63 -7t46.5 -9.5t23.5 -11.5q0 -2 1 -5l10 -10q1 -2 1.5 -3.5t0.5 -6.5q0 -9 -8.5 -21t-20.5 -22.5t-25 -17.5t-23 -7h-9q-3 0 -7 0.5t-6 0.5q-2 2 -16 3t-38 1q-11 0 -23 -0.5t-25 -0.5q5 -23 11 -62t16 -114q14 3 33.5 21.5t36.5 36.5
q4 4 10 9.5t11 8.5h-5l62 63h17q5 0 9 -4.5t9 -11.5q1 -1 1.5 -2t1.5 -2q2 -2 2.5 -3.5t2.5 -3.5t4 -5t4 -5v-1q5 -7 11 -13t12 -11q9 -7 30 -28l45 -45t45 -46t29 -32v-1q4 -5 7 -8.5t5 -5.5q-7 -18 -15.5 -32t-28.5 -14q-23 0 -40.5 8t-31.5 20q-14 8 -25.5 20t-22.5 26
q-8 9 -16.5 17.5t-17.5 16.5q-4 2 -7.5 4t-7.5 4q-10 -2 -21 -10t-22.5 -20.5t-22.5 -27t-22 -29.5q-20 -29 -39.5 -50.5t-35.5 -21.5h-3q-16 3 -31 18q-23 12 -41.5 46t-33.5 80.5t-26 100.5t-18 106q-23 -1 -44 -1.5t-38.5 -1t-29.5 -0.5h-16l-12 12h-6zM21 300h18
q14 0 33.5 0.5t43 1.5t49.5 2q7 -55 18 -115t27 -111t36.5 -86t46.5 -40q9 -1 21 10t25.5 28t28.5 37.5t30 38.5t30 31t29 15q27 -11 45.5 -30.5t36 -39t37.5 -33.5t50 -14q16 0 23 11.5t12 25.5q-7 9 -27 30t-43 44t-44 43t-30 27q-8 7 -16.5 17t-15.5 19.5t-12 16t-6 6.5
h-12l-54 -55q-7 -6 -20 -20t-27.5 -28t-29 -25t-25.5 -11h-6q-3 3 -7.5 6t-4.5 6q-6 45 -10.5 76.5t-8 54.5t-6.5 39t-6 28q48 1 81 0.5t35 -3.5q3 0 9 -0.5t9 -0.5q10 0 23.5 7.5t24.5 18.5t17.5 22t1.5 19q-3 4 -22.5 8t-49 7t-66.5 6t-76 6q-1 16 -2 36t-2 48
q0 9 -2.5 22t-8 24t-15 19t-22.5 8q-26 0 -37.5 -14t-11.5 -39q0 -2 -0.5 -8.5t0 -14t3.5 -14t10 -7.5q1 -11 1.5 -25t2.5 -30q-50 3 -87 5.5t-42 6.5z" />
    <glyph glyph-name="FL00A4h" unicode="&#xa4;" horiz-adv-x="587" 
d="M229 501q0 1 -1 1zM207 359l3 -3l3 -3zM146 421q-2 2 -3 2.5t-3 2.5l4.5 -4.5l4.5 -4.5zM276 266q0 -11 6.5 -30t16.5 -35q4 -4 9 -4q6 0 15 12t17.5 28.5t14 33.5t5.5 26q0 8 -7.5 20t-16.5 23l-6 2q-5 0 -14 -10t-18 -23t-15.5 -25.5t-6.5 -17.5zM181 281q0 10 8 28.5
t22 41.5q-11 12 -21.5 22.5l-21.5 21.5q-29 26 -50.5 51.5t-21.5 51.5q0 16 7 25t17.5 13t21.5 4.5t20 0.5q26 0 44 -14t32 -35q11 -13 20 -28t17 -31q12 13 23 20.5t19 7.5q14 0 34.5 -16t39.5 -38q8 10 14 19.5t13 19.5q20 32 43.5 57t61.5 25q16 0 24 -6.5t12 -16.5l5 -4
q8 -8 10 -22t2 -28q0 -17 -12 -35t-30 -36.5t-40 -36.5t-41 -33q1 -4 1.5 -7t0.5 -6q0 -17 -9 -46t-24 -58l3 -6q8 -8 12 -11q2 -2 3 -3.5t3 -3.5q8 -9 15 -17.5t14 -17.5q13 -15 22.5 -32t9.5 -37q0 -16 -1 -26t-5.5 -16t-14 -8.5t-26.5 -2.5q-19 0 -32 5.5t-23 15.5
q-16 8 -26 23t-18 32q-24 -24 -40 -24q-15 0 -33 16q-14 7 -30 26q-21 -23 -43.5 -46t-44.5 -42t-41 -31t-33 -12q-17 0 -32 2.5t-26 13.5l-2 2q-10 5 -18 13.5t-14 25.5q-1 1 -1 4v4q0 11 11 25.5t27 30t35 30t34 26.5q3 2 5 3.5t4 3.5l8 6t12 11l55 55q-5 17 -7.5 29.5
t-2.5 20.5zM253 281q0 6 7.5 20t18 28t20.5 25t16 11q7 0 16.5 -8t18.5 -19t15 -22.5t6 -18.5q0 -11 -7 -29.5t-16.5 -36.5t-20.5 -31.5t-19 -13.5t-18 11.5t-18 27.5t-13.5 31.5t-5.5 24.5zM192 281q0 -9 3 -23t9 -30l-60 -60q-7 -7 -30 -24t-47 -37t-41.5 -39.5
t-13.5 -31.5q10 -28 27 -33t39 -5q14 0 34 13.5t43 34.5t46.5 46t44.5 48q14 -23 29 -38t28 -15q10 0 23 11.5t27 31.5q7 -17 13.5 -33.5t16 -30.5t23.5 -22.5t36 -8.5q28 0 33.5 9t5.5 36q0 19 -9 35t-22 31t-27.5 30t-24.5 32q15 30 24.5 58.5t9.5 45.5q0 6 -3 15
q19 15 41 33t40.5 36.5t30.5 36.5t12 33q0 18 -4 34.5t-26 16.5q-24 0 -41.5 -13t-32 -32.5t-28 -41.5t-29.5 -39q-19 23 -40 41t-35 18q-8 0 -20.5 -10.5t-26.5 -27.5q-10 19 -20 39.5t-22.5 38t-28.5 29t-37 11.5q-7 0 -16.5 -0.5t-18 -3.5t-14.5 -9.5t-6 -18.5
q0 -17 12.5 -35t30.5 -36t38.5 -37t36.5 -39q-14 -23 -23.5 -42t-9.5 -28z" />
    <glyph glyph-name="FL00A5h" unicode="&#xa5;" horiz-adv-x="551" 
d="M56 439v1l-10 9zM41 455h-1q0 1 -1 1l3.5 -3.5l3.5 -3.5zM98 337q17 -11 45 -13t66 -3h4h-1q0 1 -1 1q-11 9 -25.5 19.5t-29.5 21.5q-16 11 -31.5 21.5t-29.5 21.5q-38 27 -67 57t-29 65q0 15 7 26t18 18.5t23 11.5t23 4q23 0 38 -12.5t27 -31.5q9 -11 16.5 -23t15.5 -25
q5 -8 9 -15.5t9 -15.5q9 -10 19 -16t24 -6h1v1q0 9 1.5 10.5t10.5 1.5q8 0 25 -9q-1 -2 -3 -4l8 -7q2 -1 8 -1q9 0 22 6.5t30 23.5l12 -12q7 8 13.5 18.5t13.5 21.5q10 16 22 33t24 31t24 22.5t23 8.5q45 0 57 -31l3 -2q15 -15 15 -43q0 -21 -11 -41.5t-28.5 -40.5t-39 -39
t-42.5 -37q-11 -9 -20.5 -18t-18.5 -17q37 -1 61.5 -5t30.5 -14q1 -2 1 -6l11 -10q2 -4 2 -11q0 -9 -7 -21t-16.5 -22t-20.5 -17t-20 -7q-2 0 -4 0.5t-4 0.5h-12q-3 2 -17.5 3t-37.5 2v-28h7q45 0 77 -4t40 -15v-1q1 0 1 -1v1q0 -2 1 -3l9 -9q1 -1 1 -2q1 -2 2 -4.5t1 -6.5
q0 -9 -7 -21t-17 -22t-21.5 -17t-19.5 -7h-8q-2 0 -6 0.5t-5 0.5q-2 2 -17 3t-38 1v-44q0 -11 -6.5 -21t-16.5 -18t-20.5 -13t-18.5 -5q-5 0 -8 1q-5 4 -10 7.5t-8 5.5q-6 4 -8 6q-2 1 -4 3l1 -1q-2 1 -3.5 2.5l-2.5 2.5q-15 11 -21 18.5t-6 25.5q0 5 -0.5 11.5t0.5 13.5
q-37 -2 -66 -2h-36l-12 12h-6l4 114q11 -8 24 -11t28 -3h77q1 7 1.5 14.5t0.5 15.5q-24 -1 -46 -1q-21 0 -35 -1h-31l-12 12h-6v115zM244 437q2 2 3.5 2.5t2.5 2.5q-9 5 -10 2.5t4 -7.5zM109 233q9 0 47 1t83 1v-19q0 -12 -0.5 -22.5t-1.5 -21.5q-25 0 -47.5 -0.5
t-40.5 -0.5q-37 0 -42 4l-3 -82q8 0 43.5 1t79.5 3q-3 -24 -3 -50q0 -17 8 -23.5t30 -23.5l2 -0.5t4 -0.5q7 0 16 4.5t17.5 11t14.5 15.5t6 18v52q28 0 46.5 -1t20.5 -3q2 0 7.5 -0.5t7.5 -0.5q8 0 19 7.5t20.5 18t14.5 21.5t1 19q-5 8 -44.5 10.5t-92.5 1.5v62
q29 0 47.5 -1.5t20.5 -3.5q2 0 7 -0.5t8 -0.5q8 0 19 7.5t20.5 18t14.5 21.5t1 19q-5 8 -42 11t-88 4q14 20 45 45.5t62 54t54.5 58.5t23.5 59q0 50 -52 50q-14 0 -31 -19t-33.5 -43.5t-31.5 -47.5t-24 -30l-12 12q-15 -15 -29 -20.5t-25.5 -5t-20 5t-12.5 8.5q-7 -4 -10 -4
l-2.5 -0.5t-3.5 -0.5q-19 0 -33.5 10.5t-26 27t-21.5 35t-21.5 35t-24.5 27t-31 10.5q-9 0 -19.5 -3t-19.5 -9.5t-15 -15.5t-6 -21q0 -21 14 -41t36 -39.5t48.5 -37.5t51.5 -35t45 -32.5t29 -29.5v-3q-48 1 -84 1.5t-41 4.5v-83z" />
    <glyph glyph-name="FL00A6h" unicode="&#xa6;" horiz-adv-x="196" 
d="M7 -90q0 2 0.5 4.5t0.5 4.5v11l57 791q4 24 21.5 35.5t38.5 11.5q14 0 20.5 -6t9.5 -15l6 -5q6 -6 8 -15.5t2 -20.5v-61q0 -10 -1 -36.5t-2.5 -61t-3 -72.5t-3.5 -70.5t-3.5 -56t-2.5 -28.5l-2 -56q-1 -33 -2 -78.5t-4 -94.5t-7.5 -97t-12 -86t-18 -61.5t-24.5 -23.5h-5
q-23 4 -37 19l-3 3q-17 10 -25 25.5t-8 34.5v5zM18 -95q0 -21 12.5 -37.5t36.5 -21.5q16 -4 27 28t17.5 83t10.5 113t5.5 117.5t2.5 97t2 51.5q1 5 2.5 28.5t3.5 56t3.5 70.5t3 72t2.5 60.5t1 36.5v40q0 7 0.5 16.5t-1 18.5t-6.5 15.5t-16 6.5q-17 0 -31.5 -9t-17.5 -28
l-57 -790q0 -3 -0.5 -12t-0.5 -13z" />
    <glyph glyph-name="FL00A7h" unicode="&#xa7;" horiz-adv-x="614" 
d="M538 301l0.5 -0.5t1.5 -0.5q-1 0 -1 1h-1zM482 704q1 0 0.5 -0.5t0.5 -0.5l-4 5zM293 223l2 -4q1 -2 2 -2.5t2 -2.5q5 -2 10.5 -2.5t10.5 -0.5q27 0 48 20t44 46v1q0 7 -7.5 20.5t-19.5 30t-26.5 35t-29.5 36.5q-16 5 -31.5 8.5t-30.5 3.5q-20 0 -40 -7t-35 -24
q3 -23 14.5 -45.5t27.5 -43.5q17 -22 37 -43l10 -12l10 -12zM123 -104q-14 12 -21.5 24t-7.5 25q0 18 19 40q16 18 36 27t42 17q2 1 3 1q2 0 4 1q21 8 40 17t32 24v2q0 12 -13 34.5t-32 48t-39 51t-35 42.5q-9 11 -16 19q-5 6 -15 18.5t-22.5 29t-26 33.5t-24.5 32
q-5 6 -9 11t-7 10l-9 12q-8 16 -8 27q0 10 4.5 18t11.5 16q7 7 13 12.5t12 9.5t12.5 7.5t16.5 8.5q5 2 39 4.5t80 2.5h12q7 0 15 -1q-11 15 -20 30t-17 29v-1q-10 17 -17.5 28.5t-10.5 15.5q-8 16 -8 27q0 12 12 27q1 2 2 2.5t2 2.5q13 15 23 22.5t30 16.5h14h33t37 -1
t62 -3t108 -5q12 -11 18.5 -19.5t6.5 -18.5q0 -8 -4.5 -16t-12.5 -17q-13 -15 -29 -19.5t-34 -4.5h-15q-7 0 -14 1t-13 1h-12q-14 0 -25.5 -3t-20.5 -12q0 -2 -1 -3q8 -32 25.5 -60.5t38.5 -54.5q21 -29 42 -51q2 -3 5 -6t6 -7q2 -4 5 -7.5t6 -7.5q12 -17 27.5 -34t31.5 -36
q9 -11 16 -20t10 -14l-13 14q-3 4 -10.5 13t-16.5 21l-1 1q-17 20 -33.5 39t-28.5 37q-4 5 -9 11t-10 11q-24 29 -50 63t-39 69l-14 15l8 9l1 -2l2 5l1 -2q9 9 21 12t26 3h12t13 -1t14 -1h15q17 0 32.5 4.5t28.5 18.5q16 18 16 31q0 9 -9 20q-69 3 -107.5 5t-61 3t-36.5 1
h-33h-13q-20 -9 -29.5 -16t-21.5 -21q-7 -9 -11.5 -15.5t-4.5 -15.5q0 -10 8 -26q5 -5 12 -16.5t16 -26.5q7 -12 14 -24.5t15 -23.5q3 0 6.5 -0.5t6.5 -0.5l15 -15l-6 -13l-15 14q-7 1 -14 1h-15q-45 0 -79 -2.5t-39 -4.5q-10 -5 -16.5 -8.5t-12.5 -7.5t-11.5 -9t-12.5 -12
q-7 -8 -11 -15.5t-4 -16.5q0 -11 8 -27l8 -10q9 -12 24 -31.5t30 -39.5t28 -37t20 -25q1 0 1 -1h1q4 -8 13 -16l3 -3q15 -18 35.5 -43.5t39 -51.5t32 -48.5t13.5 -34.5q0 -3 -1 -4q-14 -17 -35.5 -26.5t-44.5 -17.5q-22 -8 -42 -17t-35 -26q-18 -21 -18 -38q0 -16 14 -33
l-7 7q-22 22 -22 41q0 17 18 38q15 17 35 26t42 17q23 8 44.5 17.5t35.5 26.5q1 1 1 4q0 12 -13.5 34.5t-32 48.5t-39 51.5t-35.5 43.5q-9 11 -16 19q-6 7 -19.5 24t-29 37t-30.5 40t-25 33l-8 10q-8 16 -8 27q0 9 4 16.5t11 15.5q7 7 12.5 12t11.5 9t12.5 7.5t16.5 8.5
q5 2 39 4.5t79 2.5q8 0 16 -0.5t16 -0.5q-11 14 -20.5 30.5t-18.5 32.5q-8 14 -15 25t-12 16l-1 2q-8 16 -8 26q0 9 4.5 15.5t11.5 15.5q12 14 21.5 21t29.5 16h13h33t36.5 -1t61.5 -3t108 -5q1 -1 1.5 -2t1.5 -2l18 -18l1 -1q1 0 2 -1q14 -14 14 -26q0 -13 -16 -31
q-13 -14 -28.5 -18.5t-32.5 -4.5h-15q-7 0 -14 1t-13 1h-12q-14 0 -26.5 -3t-21.5 -13q-1 -2 -1 -3t-1 -2q5 -26 19.5 -51.5t32.5 -48.5q7 -9 14.5 -17.5t14.5 -16.5q2 -3 8 -9q3 -4 6 -7t5 -6l2 -4t3 -4t4 -4.5t4 -4.5l3 -6q5 -6 11 -12.5t12 -13.5t11.5 -13.5t11.5 -13.5
q8 -9 14 -17t10 -13q2 -2 2.5 -3t1.5 -2l8.5 -8.5t10.5 -9.5q11 -11 16 -20q6 -7 10.5 -13.5t4.5 -16.5q0 -9 -5.5 -19.5t-19.5 -26.5q-16 -17 -33 -23t-34 -10q-15 -4 -29 -9t-26 -16q-7 -5 -13 -12t-12 -15q-4 -4 -7 -8.5t-6 -8.5l9 -6q2 -2 3.5 -3t3.5 -3
q10 -8 18.5 -16.5t13.5 -18.5q17 -17 17 -34q0 -16 -17 -36q-17 -18 -39 -22t-45 -6q-20 -2 -38 -4.5t-29 -13.5l-12 -12t-12 -13q-17 -19 -35.5 -35.5t-41.5 -16.5t-47 21l-1 1q-8 4 -16 12zM283 218q-15 18 -33 38.5t-34.5 43t-29.5 47t-17 50.5q0 1 1 3t2 2
q29 32 71.5 33t85.5 -17q18 -22 36.5 -45t33 -43.5t21 -36.5t0.5 -23q-14 -17 -28 -31.5t-29 -24.5t-32.5 -13t-39.5 4q-2 4 -4.5 7.5t-3.5 5.5zM130 -96q23 -20 41.5 -19t35 13t31 30t29.5 32q13 13 33 16t41.5 4.5t42 5.5t34.5 19q16 18 15 31t-10.5 24.5t-23 21.5
t-23.5 22q-4 3 -11 14q11 11 21.5 25t22.5 24q14 13 29.5 18.5t31 9t31 9.5t29.5 21q16 18 20.5 29t0.5 20t-13 17t-20 20q-4 5 -17 21t-28 34t-28.5 34.5t-18.5 23.5q-15 18 -33 39t-34.5 44t-29.5 47.5t-17 49.5q3 0 3 4q15 18 36.5 19.5t45 0t45.5 0t38 19.5
q14 16 13.5 27.5t-17.5 25.5q-2 0 -24.5 1t-59 3t-71.5 3.5t-62 2t-31 -0.5q-17 -8 -26 -14.5t-20 -19.5q-10 -11 -13 -20t5 -27q6 -7 15 -21.5t19.5 -32t22 -35.5t22.5 -31q-27 2 -55 1.5t-52 -1.5t-40.5 -3t-20.5 -3q-17 -8 -25.5 -14t-21.5 -19q-9 -11 -12 -20.5t5 -27.5
q6 -8 21.5 -28.5t33.5 -44t34 -44t23 -28.5q7 -9 21 -26t31 -38t34 -44t30 -43.5t19 -36.5t0 -23q-16 -18 -37.5 -28t-43 -17.5t-42 -16.5t-34.5 -25q-20 -23 -15 -40t24 -34z" />
    <glyph glyph-name="FL00A8h" unicode="&#xa8;" horiz-adv-x="402" 
d="M27 729q0 34 18.5 47t47.5 13q20 0 31 -7t16 -20l4 -3q14 -14 14 -45q0 -9 -3.5 -20.5t-10.5 -22t-16.5 -18t-21.5 -7.5h-7q-20 4 -34 19q-17 10 -27.5 27t-10.5 37zM240 729q0 34 18.5 47t47.5 13q20 0 31 -7t16 -20l4 -3q14 -14 14 -45q0 -9 -3.5 -20.5t-10.5 -22
t-16.5 -18t-21.5 -7.5h-7q-20 4 -34 19q-17 10 -27.5 27t-10.5 37zM251 729q0 -21 13.5 -38t34.5 -22q11 -2 20 4t15.5 16t10 21t3.5 19q0 21 -8.5 35t-33.5 14q-24 0 -39.5 -10.5t-15.5 -38.5zM38 729q0 -21 13.5 -38t34.5 -22q11 -2 20 4t15.5 16t10 21t3.5 19
q0 21 -8.5 35t-33.5 14q-24 0 -39.5 -10.5t-15.5 -38.5z" />
    <glyph glyph-name="FL00BCh" unicode="&#xa9;" horiz-adv-x="1604" 
d="M615 350q0 14 -6 20q-12 21 -33 21q-30 0 -52 -51q-1 -1 -1 -12q0 -40 29 -40q18 0 47 15q16 22 16 47zM1003 401l-36 -55h57zM320 269l-42 -13l18 168l33 6zM473 394q-6 2 -10 2h-10q-25 0 -47 -22q-27 -30 -27 -66q0 -32 38 -32q14 0 34 4l2 -28q-11 -3 -19.5 -5
t-16.5 -2q-52 0 -68 73q-1 7 -1.5 11t-0.5 10q0 76 129 94zM647 374q-17 -114 -68 -114q-8 -1 -15 -2t-14 -1q-49 0 -60 29q0 103 66 141l7.5 1.5t1.5 0.5h10q57 0 72 -55zM808 260q-45 0 -110 80v-79l-27 -5l-4 165l103 -104l5 113l33 -9v-161zM883 275l-42 -11l18 166
l33 6zM1035 273q-18 38 -41 38q-22 0 -45 -38h-36q7 82 72 162q7 4 12.5 4.5t10.5 0.5q34 0 46 -51l3 -122zM1225 266q-43 0 -108 80v-79l-27 -3l-4 163l102 -104l6 113l31 -9v-161zM1271 230l-21 20l23 17l27 -11zM1295 307l-29 4l7 125l44 -9zM1503 380l-161 75l101 28h11
l-11 18l-232 47l80 55h-270l20 65l-262 -36l-9 55l-20 8l-181 -82l-79 55l-110 -111q-15 -4 -23 -4q-34 0 -99 41l-20 -129l-130 9l10 -39l70 -82l-130 -9l170 -83l-110 -46l242 -49l-82 -53l281 -11l-29 -64l249 46l32 -36l-10 -37l200 91l91 -54l100 110l131 -38l9 131
l131 -19q3 4 3 9q0 26 -83 112l130 10zM1544 376q0 -2 -2 -4l-19 -38h-90l61 -73q1 -1 1 -10v-8q0 -31 -32 -39l-100 18l-10 -109q-12 -21 -39 -21q-38 0 -103 38l-99 -101l-51 -11l-60 57l-190 -93l-32 10v56l-249 -37l-31 18l10 46l-262 19v36l31 28l-160 27q-30 0 -30 37
l61 47l-111 48l-10 46l109 17l-59 65l10 56l119 -10q0 131 45 131h6l112 -37q71 92 120 110l90 -55l180 84l41 -29l-11 -27l11 -10l200 37l70 -8l-10 -55h240l22 -19q0 -47 -42 -56l202 -47q1 0 1 -6v-6q0 -44 -71 -53q131 -44 131 -69zM1507 483v6q0 10 -2 12l-10 10
q-1 4 -2 6t-6 4l-153 35q5 8 8.5 19t3.5 26l-12 12v4l-29 26h-217l7 36l-12 12l1 6l-84 9l-178 -33l4 11l-13 12l2 4l-53 36l-180 -84l-91 56q-53 -18 -124 -110l-105 35h-10q-53 0 -56 -131l-118 11l-12 -71l49 -54l-101 -16l14 -62l9 -4l9 -9l78 -34l-47 -36q0 -42 24 -51
l6 -5q9 -9 25 -9l113 -20l-9 -8v-50l6 -1l12 -11l238 -18l-6 -31l14 -8l5 -5l38 -22l225 32v-36l7 -2l11 -11l40 -13l186 91l45 -43h2l14 -12l59 13l95 97q32 -18 57.5 -26.5t44.5 -8.5q32 0 47 27l9 101l94 -16q39 9 39 47v8q0 13 -3 16l-5 5l-6 6q-2 6 -7 11l-32 37h78
l20 40q4 4 4 10q0 9 -9 18l-2 1q1 0 1 -1h1l-5 4q-10 24 -79 51q33 15 33 49zM904 450l-55 -10l-18 -172v144l-12 12v5l-55 16l-4 -102l-105 106l1 -58q-2 3 -8 9q-22 40 -73 40h-13v-14l-9 9h-1v3q-2 -2 -6 -4q-21 -5 -16 -7l2 -3q-24 -21 -37 -50l5 53l-13 12l1 6
q-105 -13 -138 -59l3 39l-13 12l1 7l-55 -10l-20 -194l5 1l13 -12l59 19l2 41q13 -35 40 -49q20 -18 47 -18q10 0 17 2t17 4q2 0 6 0.5t5 0.5l-4 46l-12 11v8q-20 -5 -29.5 -6t-14.5 -1q-11 0 -15 2v4q0 31 24 60h1q20 20 41 20h10q1 0 5.5 -1.5t9.5 -3.5q-14 -34 -14 -86
q6 -18 25 -27l3 -3q18 -18 58 -18q5 0 9 0.5t9 1.5q4 1 11 1q43 0 64 68l2 -63l6 1l12 -12l43 8v58q14 -15 28 -25q39 -35 74 -35l8 8v4l3 1l13 -12l59 15v9l13 -12h50q23 38 40 38q3 0 4 -1q7 -9 15 -24l7 -2l10 -10l35 -10v11h4l13 -12l43 5v58q17 -17 35 -30
q36 -30 65 -30l30 -28l1 1l14 -12l35 31l-7 -101l-124 36l-98 -108l-88 53l-171 -78l-10 12l1 1l-40 46l-215 -40l18 39l-13 12l3 6l-233 8l53 34l-12 12l6 4l-206 42l78 33l-13 12l6 3l-131 63l95 7l-10 12h1l-70 81l-6 26l126 -9l19 124q59 -35 93 -35q5 0 11.5 1t16.5 4
l106 107l76 -53l179 81l9 -50h4l13 -12l232 31l-13 -47h7l12 -12h212l-54 -38l11 -3l11 -10l207 -43l-102 -28l15 -7l9 -9l151 -71l-126 -8q89 -92 95 -119l-132 19l-1 -12l-5 5l3 3l-47 20l-24 -18v157l-12 12v5l-52 16l-6 -103l-104 107l2 -74q-7 25 -20 39l-1 1
q-17 30 -47 30q-8 0 -14.5 -0.5t-14.5 -5.5q-26 -32 -43.5 -66t-26.5 -70l7 122l-13 12zM1330 435l-67 15l-8 -149l7 -1l11 -11l44 -6l24 135l-12 12zM604 350q0 -21 -12 -39q-26 -12 -40 -12h-6v14q0 4 -1 5h-1q23 50 47 50q5 0 7 -1q1 -1 1 -2t1 -2q4 -4 4 -13zM532 428
l1.5 1t6.5 2l-5 -5q-3 1 -3 2zM1154 293q-1 0 -1 1q-2 0 -2 2l5 -5l4 -3q0 -1 1 -1q-3 2 -7 6zM1151 296l5 -5l-2 2q-1 0 -1 1q-2 0 -2 2z" />
    <glyph glyph-name="FL00AAh" unicode="&#xaa;" horiz-adv-x="339" 
d="M101 511q28 11 58 28.5t56 33.5v31q-12 -3 -31.5 -14.5t-38 -25t-31.5 -26.5t-13 -19v-8zM234 372q-8 4 -13.5 10.5t-5.5 17.5v81q-14 -7 -28.5 -14.5t-27 -14t-21 -11t-10.5 -4.5l-20 -11q0 -9 1 -13q0 -5 0.5 -9t0.5 -9v-6q0 -3 -0.5 -5t-0.5 -4v-17q-15 -20 -42 -20
q-8 0 -17 1.5t-15 7.5l-6 6q-17 5 -17 22v153q0 2 -0.5 4.5t-0.5 4.5q0 15 5 31.5t19 19.5q6 3 21 12.5t35 23.5v-1l6 4l6 4q19 12 39 24.5t38 22.5t33 16.5t24 6.5q15 0 26.5 -9.5t19.5 -23.5h1q12 -12 18.5 -28t6.5 -26q0 -3 0.5 -7t0.5 -9q1 -9 1 -22v-28
q0 -12 -0.5 -24.5t-0.5 -24.5v-44q0 -16 -0.5 -28.5t-0.5 -18.5v-5q0 -7 -1.5 -16t-5.5 -17t-11.5 -13.5t-19.5 -5.5q-8 0 -16.5 2.5t-14.5 8.5zM80 491q-1 11 -1.5 21.5t-0.5 21.5q0 8 16.5 24t38.5 31.5t43.5 27.5t31.5 12q5 0 11.5 -7t6.5 -12v-44q-16 -10 -35 -21.5
t-38.5 -22t-38 -19t-34.5 -12.5zM86 386q0 5 0.5 9t0.5 9v6q0 9 -1 17.5t-1 18.5l26 14q3 1 16.5 7.5t31.5 16t36.5 19.5t30.5 17v-120q0 -11 10.5 -16t19.5 -5q19 0 24.5 16t5.5 28q0 2 0.5 16.5t0.5 35.5t0.5 45.5t0.5 47.5t-1 40.5t-1 25.5q0 7 -3.5 17.5t-10 20
t-15.5 16.5t-20 7q-13 0 -42 -16t-61 -36.5t-60 -38.5t-38 -22q-6 -1 -9 -9t-4 -18t-0.5 -19t0.5 -12v-144q0 -10 10.5 -12t18.5 -2q23 0 34 14v6z" />
    <glyph glyph-name="FL00ABh" unicode="&#xab;" horiz-adv-x="336" 
d="M144 148q-18 7 -36.5 24.5t-34 38.5t-27 41.5t-14.5 34.5l-3 12q-3 13 7.5 35t28.5 44t39.5 40.5t39.5 25.5l8 -41q1 -8 -5.5 -21.5t-17.5 -28.5t-24.5 -30t-25.5 -27q12 -11 25.5 -26t24.5 -30t17.5 -28.5t5.5 -22.5zM268 151q-18 7 -36.5 24.5t-34 38.5t-27 41.5
t-14.5 34.5l-3 12q-3 13 7.5 35t28.5 44t39.5 40.5t39.5 25.5l8 -41q1 -8 -5.5 -21.5t-17.5 -28.5t-24.5 -30t-25.5 -27q12 -11 25.5 -26t24.5 -30t17.5 -28.5t5.5 -22.5zM175 386v4l-10 50l-12 11l-1 8q-21 -8 -44.5 -27t-43.5 -42t-33.5 -46t-13.5 -39v-4q0 -2 0.5 -3
t0.5 -2l3 -12q3 -12 12.5 -31t24 -39.5t31.5 -38.5t35 -29q17 -14 32 -20l11 5l8 41v4q0 15 -17 40.5t-37 47.5q-4 5 -7.5 9t-7.5 8q10 10 19.5 21.5t18.5 23.5q-3 -11 -3 -18v-4q0 -2 0.5 -3t0.5 -2l3 -12q3 -12 12.5 -31t24 -39.5t31.5 -38.5t35 -29q17 -14 32 -20l11 5
l8 41v4q0 15 -17 40.5t-37 47.5q-4 5 -7.5 9t-7.5 8q12 12 24 26.5t22 29t16.5 27.5t6.5 22v4l-10 50l-12 11l-1 8q-25 -10 -53 -34t-50 -52q2 6 2 10z" />
    <glyph glyph-name="FL00ACh" unicode="&#xac;" horiz-adv-x="484" 
d="M7 242h-6l3 144q17 -11 55 -15t89 -7q5 0 11 -0.5t12 -0.5q45 -3 92.5 -6t87.5 -7t68 -10t34 -15q0 -1 2 -5l9 -9q2 -3 3.5 -11t1.5 -17q0 -10 -2 -20t-6 -16q0 -5 0.5 -9t0.5 -9q1 -21 1 -39v-31v-53l-138 2l-12 12h-7q12 43 17.5 70.5t7.5 45.5h-13q-23 0 -52 -0.5
t-59.5 -1t-60 -1t-54.5 -1.5t-46 -1.5t-27 -0.5zM440 174q0 17 -0.5 40t-1.5 52q4 4 6 12.5t2 16.5q0 9 -1 16.5t-3 10.5q-4 6 -36 11t-78 9t-98.5 7t-98.5 6t-78.5 5.5t-37.5 5.5l-3 -113q9 0 42.5 1t77 2t90 2t81.5 1h24q11 0 18 -1q-2 -17 -5.5 -46.5t-18.5 -80.5l119 -2
v45z" />
    <glyph glyph-name="FL00ADh" unicode="&#xad;" horiz-adv-x="333" 
d="M4 386q17 -11 39.5 -14t51.5 -5q5 -1 11 -1t11 -1q29 -2 59.5 -5t56.5 -6.5t45 -9t24 -12.5q0 -1 0.5 -1.5t0.5 -1.5v1q0 -2 1 -3l9 -9q1 -1 1 -2q1 -2 2 -4.5t1 -6.5q0 -9 -8.5 -21t-20.5 -22.5t-25 -17.5t-23 -7h-9q-3 0 -7.5 0.5t-6.5 0.5l-1 1h-1q-2 2 -7 2
q-17 0 -48 -2t-61 -4q-24 -2 -47.5 -3.5t-32.5 -1.5l-12 12h-6zM12 253q10 0 33.5 1.5t51.5 4t54.5 4t41.5 1.5q12 0 14 -3q3 0 9 -0.5t9 -0.5q10 0 23.5 7.5t24.5 18.5t17.5 22t1.5 19q-4 6 -25 10.5t-50 8t-62.5 6t-62.5 4.5t-50.5 4.5t-26.5 5.5z" />
    <glyph glyph-name="FL00BEh" unicode="&#xae;" horiz-adv-x="1461" 
d="M562 356q0 -11 -3 -22.5t-11 -22.5q-28 -16 -44 -16q-26 0 -26 40v11q21 48 49 48q18 0 30 -19q5 -8 5 -19zM881 352l32 52l21 -52h-53zM271 427l-16 -162l38 12l7 156zM435 436q-118 -18 -118 -91q0 -6 0.5 -10l1.5 -12q15 -69 63 -69q8 0 15.5 1t16.5 6l-1 27
q-9 -4 -31 -4q-35 0 -35 31q0 35 25 63q20 23 42 23q10 0 17 -4zM591 378q-14 54 -66 54h-9q-2 0 -9 -3q-60 -35 -60 -136q10 -28 55 -28q6 0 12 1t15 2q47 0 62 110zM737 424l-31 9l-4 -110l-94 100l4 -158l25 3v78q57 -78 100 -78v156zM783 433l-16 -161l38 11l8 156z
M960 394q-9 49 -42 49q-5 0 -20 -5q-60 -78 -66 -156h33q20 35 40 35q21 0 39 -35l18 -7zM1115 429l-27 10l-6 -109l-93 99l4 -157l24 3v77q58 -78 98 -78v155zM1160 275l-22 -15l20 -19l26 24zM1160 439l-6 -122l25 -4l20 116zM1405 381q0 -4 -2 -4l-16 -37h-83l56 -72
q0 -5 0.5 -8.5t0.5 -6.5q0 -31 -29 -39l-92 18l-9 -106q-10 -19 -35 -19q-36 0 -93 36l-90 -99l-46 -9l-56 54l-172 -89l-28 9v54l-228 -35l-27 16l8 45l-237 19v35l28 27l-146 26q-26 0 -26 36l55 45l-101 46l-9 45l98 16l-53 63l10 53l109 -9q0 127 40 127h6l101 -36
q64 89 108 106l82 -52l164 80l37 -28l-11 -26l11 -9l181 35l65 -8l-9 -52h218l19 -19q0 -45 -37 -54l182 -45q1 -5 1.5 -8t0.5 -4q0 -42 -65 -51q119 -42 119 -66zM1415 387h-1q-9 22 -70 49q30 15 30 47v3q0 6 -1 8.5t-2 7.5l-11 11q0 2 -0.5 3.5t-0.5 3.5l-142 34
q10 18 10 44l-12 12v4l-25 25h-196l6 33l-13 13l1 5l-79 9l-159 -31l4 8l-13 12l2 4l-49 36l-164 -80l-81 53q-25 -9 -52.5 -35.5t-60.5 -70.5l-94 34h-10q-48 0 -51 -127l-108 10l-12 -67l44 -53l-91 -15l13 -61l9 -5l9 -8l69 -32l-42 -34q0 -44 24 -51l6 -5q8 -8 21 -8
l100 -18l-7 -7v-50l6 -1l12 -11l214 -18l-5 -30l14 -9l5 -4l34 -20l204 30v-34l7 -2l11 -11l37 -12l166 87l42 -40h3l13 -12l53 10l87 96q28 -17 51 -25t41 -8q30 0 43 25l8 98l85 -16q37 11 37 47v5q0 2 -0.5 5.5t-0.5 6.5l-12 15v1l-36 46h72l16 38q5 3 5 11t-9 17
q-1 1 -2 1.5t-2 2.5zM644 355l-1 1q-3 4 -5.5 7.5t-5.5 7.5l-1 12l81 -86v4l12 -12l2 59v-66q-34 12 -78 67q-1 2 -2 3t-2 3zM1104 296v-7q-35 13 -91 87l-1 13l80 -85v4zM872 338l10 -9h68v-35l-2 2q-18 32 -43 32q-22 0 -47 -34q4 19 14 44zM933 420q1 0 2.5 -0.5
t3.5 -0.5q3 -5 5.5 -12t4.5 -16v-36l-20 51l-9 9l-1 1q5 2 8.5 3t5.5 1zM526 407q4 2 5 2h9q12 0 24 -5q11 -12 15 -29q-1 -2 -1 -5q0 -2 -1 -4q-2 2 -3.5 4.5t-3.5 4.5l-1 1q-1 2 -1.5 2.5t-1.5 2.5h1q-16 24 -40 24q-2 0 -3 -0.5t-3 -0.5q2 1 2.5 1.5t2.5 1.5zM471 307
q6 -17 20 -21l6 -6q1 -3 4 -4q-21 0 -31 7v12t1 12zM350 280q6 -4 10 -5l4 -3l3.5 -3.5t3.5 -2.5q-9 1 -19 11q0 1 -2 3zM1182 413l2 -1l-3 -22zM793 290l3 27l-1 -26zM678 311l7 -8l-9 9q1 0 1 -1h1zM281 285l1 9v-9h-1zM685 303l8 -7v-1z" />
    <glyph glyph-name="FL00AFh" unicode="&#xaf;" horiz-adv-x="391" 
d="M-23 766q14 -9 48.5 -11.5t81.5 -2.5h100q40 0 79 -1t70.5 -4t53 -7.5t26.5 -10.5q0 -2 1 -5l9 -9q-1 0 -1 1l2 -2q1 -2 1.5 -3.5t0.5 -6.5q0 -9 -8.5 -21t-20.5 -22.5t-25 -17.5t-23 -7h-9q-3 0 -8 0.5t-7 0.5h-1q-3 2 -18.5 3t-37.5 1q-24 0 -52.5 -0.5t-58 -1.5
t-58 -1.5t-52.5 -1.5q-23 -1 -43.5 -1.5t-25.5 -0.5l-12 12h-6zM-6 657q8 0 36 1t66 2t80 2t78 1.5t60 -0.5t25 -3q3 0 9 -0.5t9 -0.5q10 0 23.5 7.5t24.5 18.5t17.5 22t1.5 19q-3 4 -22.5 7t-50 4.5t-68 2.5t-76.5 1h-100q-48 0 -80.5 1t-37.5 4z" />
    <glyph glyph-name="FL00B0h" unicode="&#xb0;" horiz-adv-x="284" 
d="M103 513q0 -9 5.5 -27t13.5 -32q1 -1 4 -1q5 0 12.5 10.5t14 25t11.5 29.5t5 23t-6.5 19t-14.5 20h-1q-4 0 -11 -9t-14.5 -20t-13 -22.5t-5.5 -15.5zM66 425q-4 16 -12 26l-16 20l-4 4q-1 1 -1.5 2t-1.5 2q-10 11 -18 20t-11 19v11q0 2 0.5 4t0.5 3q5 4 13.5 13t17.5 18
q2 2 3 3.5t3 3.5l4 4q2 2 4.5 5t5.5 7l7 10.5t9 14.5v-1q2 3 3.5 6t3.5 6q7 13 14.5 25.5t16.5 22.5t19 16.5t22 6.5h5q8 0 13.5 -2.5t12.5 -17.5l4 -3q5 -5 11 -18l-3 2q4 -17 9 -34.5t13 -31.5l6 -6q7 -7 13 -14t11 -15q8 -10 14 -19.5t6 -20.5q0 -4 -1 -8.5t-4 -8.5
l-1 -1l-109 -165l-13 12l-1 -2zM80 528q0 5 6.5 17.5t15 25t17 22.5t13.5 10q6 0 14 -7t15.5 -17t13 -20.5t5.5 -17.5q0 -9 -6 -26t-14.5 -33t-17.5 -28t-16 -12t-15 10.5t-15 24.5t-11.5 28.5t-4.5 22.5zM133 362l104 157q6 9 3 19.5t-10.5 20t-16.5 19t-15 17.5
q-13 19 -19 40.5t-11 43.5q-2 5 -5.5 6t-8.5 1h-5q-14 0 -26 -12.5t-22.5 -29t-20 -34.5t-18.5 -28q-3 -3 -9.5 -10.5t-14 -16t-14.5 -15.5t-10 -9q0 -2 -0.5 -5t-0.5 -4q4 -12 13 -22.5t19 -21t19 -22.5t13 -27z" />
    <glyph glyph-name="FL00B1h" unicode="&#xb1;" horiz-adv-x="496" 
d="M23 119q17 -8 62 -10t102 -3q45 -1 92 -2t87 -3t66.5 -5.5t30.5 -9.5q1 -1 1.5 -2.5t1.5 -2.5q0 -2 0.5 -2.5t0.5 -1.5l9 -8q2 -4 3.5 -7.5t1.5 -6.5q0 -9 -8.5 -21t-20.5 -22.5t-25 -17.5t-23 -7h-9q-3 0 -8 0.5t-7 0.5q-2 2 -18 3t-39 1q-24 0 -52.5 -0.5t-58 -1.5
t-58 -1.5t-52.5 -1.5q-23 -1 -44 -1.5t-26 -0.5l-12 12h-6zM462 372q6 -7 6 -19q0 -10 -4 -21t-11 -20.5t-16 -16t-18 -6.5q-2 0 -10.5 0.5t-17.5 1.5q-8 1 -14.5 1.5t-9.5 0.5h-1q-3 3 -31 3q-8 0 -16 -0.5t-18 -0.5q2 -29 2.5 -56t2.5 -49q1 -20 2 -38.5t1 -23.5l-141 2
l-12 12h-8q9 16 11.5 40t4.5 57q1 8 1 16t1 16v9t1 10h-4q-34 0 -61.5 1.5t-44.5 3.5q-8 1 -17 1h-13l-12 12h-6l-7 141q17 -12 60.5 -17t98.5 -8q3 0 6 -0.5t6 -0.5h3q3 31 6 59.5t7 51t8.5 37.5t9.5 19h1t2 1q4 2 8 2q13 0 29 -14t28 -31q11 -13 18.5 -26.5t7.5 -23.5
q0 -2 -0.5 -4.5t-0.5 -4.5v-13q-4 -4 -4 -33v-28q60 -5 103 -11.5t50 -14.5q5 -6 6 -10zM26 8q8 0 36 1t66 2t80 2t78 1.5t60 -0.5t25 -3q3 0 9 -0.5t9 -0.5q10 0 23.5 7.5t24.5 18.5t17.5 22t1.5 19q-4 6 -35.5 9.5t-77 5t-98 2.5t-98 1.5t-77.5 1.5t-37 4zM286 151
q0 6 -1 22t-2 38.5t-2.5 50t-2.5 56.5q33 1 54.5 0.5t23.5 -2.5q1 0 8 -0.5t15.5 -1.5t15.5 -1.5t9 -0.5q10 0 18.5 8t14.5 19.5t7.5 23t-3.5 19.5q-3 4 -17 7.5t-36.5 6.5t-51.5 5.5t-61 4.5q-2 38 -1.5 62.5t3.5 26.5q0 3 0.5 9t0.5 9q0 10 -8 23.5t-18.5 24.5t-22 17.5
t-18.5 1.5q-4 -3 -7.5 -17.5t-7 -37.5t-6 -52t-4.5 -61q-32 2 -62 3.5t-53.5 3.5t-38.5 3.5t-18 3.5l6 -107q6 0 21 -1t36 -2.5t47.5 -2t55.5 0.5q-2 -31 -3.5 -59t-3 -49.5t-3 -35.5t-3.5 -17z" />
    <glyph glyph-name="FL00B2h" unicode="&#xb2;" horiz-adv-x="344" 
d="M39 510q11 21 29.5 23.5t40.5 -2.5q22 -7 45.5 -7.5t41.5 11.5q-30 23 -55 39.5t-35 21.5q-24 10 -42 22q-20 11 -32.5 23t-12.5 25v3q2 2 10 8t12 7h4q18 0 27 -2t15.5 -6t12.5 -10t17 -13q10 -7 26 -18.5t31 -22.5t26.5 -19t12.5 -8l35 -20l56 -35q-22 -22 -33 -31.5
t-16 -12.5t-7 -2t-5 0q-8 -4 -25.5 -7.5t-42.5 -0.5q-6 1 -14.5 0.5t-16.5 -0.5q-19 0 -25 7q-16 3 -24.5 -3.5t-16.5 -14.5q6 -11 11.5 -27t10 -32t7.5 -27l3 -11q32 0 72 6t72 6q7 0 11.5 -5t6.5 -12.5t2.5 -16t0.5 -14.5l-21.5 -1.5t-48 -3.5t-50 -4.5t-26.5 -4.5
q-11 -5 -18 -6t-19 -1q-9 0 -15.5 2t-11.5 13q-11 47 -17.5 74t-10 41t-4.5 19.5t-1 9.5q0 6 1 12.5t1 11.5q0 7 4 16h1zM23 494v-5q0 -1 -0.5 -1.5l-0.5 -0.5q-1 -3 -1 -8v-9q0 -7 1.5 -14t6.5 -27q4 -15 9.5 -39.5t14.5 -64.5q5 -12 10.5 -17t11.5 -7l6 -5q6 -6 12 -7
t14 -1q12 0 19.5 1t23.5 9q1 1 4.5 2t17 2t43 2.5t83.5 4.5q0 13 -1.5 31t-11.5 27l-2 1q1 0 1 -1h1l-7 6q-3 8 -9 13t-15 5q-17 0 -35.5 -2t-37.5 -4q-27 -5 -56 -6q-4 16 -10 35.5t-12 33.5q5 5 10 9t12 4q3 0 6 -1q7 -7 28 -7h30q5 -1 10 -1h10q16 0 28.5 3t20.5 6h6
q3 0 7 1.5t11.5 7.5t19.5 17t30 29l-13 13l3 3l-69 43l-37 21q-2 0 -19 12t-36 26q-5 4 -9.5 7t-9.5 7t-8.5 7.5t-7.5 5.5q-13 7 -15 8.5t-3 2.5v-1q0 2 -1 2.5t-2 2.5q-11 9 -22 14t-38 5h-6q-5 -1 -16.5 -9.5t-14.5 -11.5v-8q0 -14 10 -26.5t27 -23.5q5 -5 12.5 -9.5
t15.5 -9.5l1 -1q16 -11 42 -22h1q6 -4 21.5 -13.5t34.5 -23.5q-5 -2 -10 -2h-10q-10 0 -20 2t-21 5h-2q-7 2 -14 3t-15 1q-13 0 -25 -5.5t-22 -19.5h-3q-8 -17 -8 -27z" />
    <glyph glyph-name="FL00B3h" unicode="&#xb3;" horiz-adv-x="374" 
d="M48 498q-6 15 -2 25.5t25 15.5q14 4 29 2t30.5 -5t31.5 -5.5t32 0.5l19 -2q-19 26 -46.5 43.5t-53 29.5t-43.5 20.5t-18 17.5q0 10 7 19t27 9q45 0 92.5 -31t104.5 -100l47 -58l-60 -35l-37 -20q-1 0 -13 -8t-28.5 -18.5t-33.5 -22t-27 -18.5q-11 -8 -17.5 -14
t-13.5 -9.5t-17 -5.5t-28 -2h-3q-4 1 -12.5 6.5t-11.5 7.5v4q0 13 13.5 25t34.5 23l21 10.5l23 11.5q11 5 31.5 18.5t52.5 36.5q-20 13 -38.5 14.5t-41.5 -5.5q-23 -5 -43.5 -2.5t-31.5 22.5h-1zM36 498q1 -6 4 -11h4q8 -11 16 -15l1 -1l5 -4q9 -9 20 -12.5t23 -3.5
q11 0 18.5 1t15.5 3q18 6 30 6h3q-22 -14 -37 -23.5t-25 -14.5q2 2 -2.5 -0.5t-6.5 -3.5l-4 -2q-2 -2 -6 -3.5t-7 -3.5l1 1l-18 -9q-23 -13 -38.5 -27t-15.5 -31v-9q2 -2 5.5 -4.5t8.5 -5.5l4 -4q4 -3 14.5 -10t15.5 -8h5q15 0 24.5 1t16.5 3.5t12.5 6.5t12.5 10q3 2 6 5
t8 6q10 7 26.5 18.5t32.5 22t28 18t13 7.5l39 21l68 40l-11 13l1 1l-56 68q-60 72 -109 103.5t-96 31.5q-26 0 -35.5 -12.5t-9.5 -26.5q0 -8 5.5 -13.5t16.5 -11.5l2 -2q6 -6 17 -12t26 -13q14 -7 29.5 -14.5t31.5 -17.5l18 -15q-2 -1 -4.5 -0.5t-4.5 0.5q-9 0 -20.5 2
t-22.5 4t-21.5 4t-22.5 2q-16 0 -25 -3v-1q-33 -9 -33 -34v-7q0 -3 2 -7l-1 1q0 -2 2 -4z" />
    <glyph glyph-name="FL00B4h" unicode="&#xb4;" horiz-adv-x="210" 
d="M17 702q7 18 22.5 36.5t34 34t37.5 25t33 9.5h25q17 0 21 -3.5t-8 -18.5q-8 -9 -24.5 -25t-35 -31.5t-36.5 -26t-28 -8.5zM13 691l6 -1l11 -11l41 -8h6q12 0 30 11.5t37 26.5t35 31t24 25q11 13 11 21q0 6 -3 9l-9 9q-2 11 -10.5 12.5t-22.5 1.5h-25q-15 0 -35.5 -10.5
t-40.5 -27t-37 -36.5t-24 -39z" />
    <glyph glyph-name="FL00B5h" unicode="&#xb5;" horiz-adv-x="545" 
d="M2 14q0 2 0.5 4.5t0.5 4.5v12l48 412v127q0 12 6 19t15 10.5t19 5t18 1.5q44 0 66 -31v-3l4 -4q6 -6 8 -9l1 -14v-44l-14 -228q0 -15 22 -40q-16 17 -26.5 31.5t-10.5 23.5l14 228v44l-1 14h-1v1q-17 13 -47 13q-7 0 -16.5 -1t-18 -5t-14.5 -10.5t-6 -16.5v-127l-48 -412
v-12q0 -4 -0.5 -8t-0.5 -6q0 -11 3 -21.5t9 -18.5q12 -9 28 -12q2 0 3.5 -0.5t3.5 -0.5q15 0 26.5 19t19 49t13 67t8.5 73l-10 10l3 -1l8 7l15 -15q0 -2 -0.5 -3t-0.5 -3q12 -8 28 -18t34 -21q30 -19 62 -39t60.5 -37t49 -28t27.5 -11q20 0 36 13t27.5 32t17.5 39.5t6 34.5
q0 10 0.5 28t1.5 41q1 40 2 91t1 99q0 39 -1 72t-4 55v1q0 14 -3 32.5t-13 32.5q-12 7 -25 7q-9 0 -19 -3t-18.5 -8.5t-14 -14t-5.5 -19.5v-384q0 -7 -7.5 -17.5t-14.5 -10.5q-11 0 -31 10.5t-43.5 26.5t-47.5 35.5t-43 38.5l-2 1q19 -18 41.5 -35t44 -31t39 -22.5
t27.5 -8.5q7 0 14.5 10.5t7.5 17.5v384q0 11 5.5 19.5t14 14t18.5 8.5t19 3q20 0 33 -13l13 -13q8 -14 10.5 -30.5t2.5 -29.5q3 -22 4 -55.5t1 -73.5q0 -37 -0.5 -75.5t-1.5 -73.5q0 -11 -0.5 -21t-0.5 -20q0 -6 -0.5 -12t-0.5 -11q-1 -15 -1 -27v-19q0 -15 -6.5 -35.5
t-18 -40t-28 -33t-37.5 -13.5q-8 0 -29 11t-49.5 28t-60.5 37t-62 39q-23 14 -41.5 25.5t-30.5 19.5q-3 -37 -8.5 -74.5t-14 -67.5t-20 -48.5t-27.5 -18.5h-4q-1 0 -2 0.5t-2 0.5q-7 2 -13 4.5t-11 5.5l-12 12q-9 9 -13.5 21.5t-4.5 26.5q0 2 0.5 6t0.5 8v12l48 413v126
q0 10 6 16.5t14.5 10.5t18 5t16.5 1q36 0 55 -20l11 -11l1 -12v-44l-14 -228q0 -10 12 -25.5t31 -33.5t42 -36.5t45.5 -33.5t41 -24.5t28.5 -9.5q6 0 12.5 9.5t6.5 15.5v384q0 12 6 21t15 15t19.5 9t19.5 3q17 0 28 -8.5t18 -20.5l2 -2q14 -14 18.5 -35t4.5 -38
q3 -22 4 -55.5t1 -73.5q0 -48 -1 -99t-2 -91q-1 -23 -1.5 -41t-0.5 -28q0 -14 -6 -34.5t-17.5 -39.5t-27.5 -32t-36 -13q-7 0 -27.5 11t-49 28t-60.5 37t-62 39q-25 15 -45 27.5t-32 20.5q-3 -37 -8 -74.5t-13 -68t-19 -50t-27 -19.5q-2 0 -3.5 0.5t-3.5 0.5q-23 4 -37 19
l-3 3q-17 10 -25 25.5t-8 34.5v5zM13 9q0 -21 12.5 -37.5t36.5 -21.5q15 -4 26 15t18.5 51t12.5 72t8 78h1q8 -4 30.5 -18t51.5 -32.5t62 -39.5t61.5 -38t49.5 -28.5t27 -11.5q18 0 32.5 12.5t25 30t16 36.5t5.5 32t1 41t1.5 63.5t1.5 76t1 78.5q0 39 -1 72.5t-4 55.5
q0 10 -2 24t-7 26t-14.5 20.5t-24.5 8.5t-32 -9t-17 -28v-384q0 -4 -3 -10t-7.5 -12t-10 -10t-9.5 -4q-11 0 -30.5 10t-43 26t-48 35.5t-44.5 39t-32.5 36.5t-12.5 27l14 228v43l-1 11q-18 25 -55 25q-6 0 -14 -1t-15.5 -3.5t-12.5 -7.5t-5 -13v-127l-48 -413q0 -3 -0.5 -12
t-0.5 -13z" />
    <glyph glyph-name="FL00B6h" unicode="&#xb6;" horiz-adv-x="467" 
d="M371 -11h-4l-42 42q-1 9 -4.5 30t-7 44t-7 43.5t-5.5 28.5q-2 11 -5.5 34t-8.5 50l-6 36q-5 31 -9 55.5t-7 38.5q-2 10 -5 26.5l-5 27.5h-8l-56 -56v-17l43 -26h-1q8 -6 10 -13l8 -8q6 -6 6 -23v-14q0 -7 -1 -15q-1 -11 -1.5 -21.5t-0.5 -21.5q0 -12 1 -25.5t6 -27.5
q-17 -4 -29 -12t-21 -18.5t-16 -23.5t-13 -26q-8 -16 -16 -31.5t-18.5 -27.5t-25 -19t-34.5 -7q-37 0 -54 17l-2 2q-32 14 -32 61q0 20 2 24t14 8v-1h1q0 1 1 1h-1q3 1 8 3.5t11 7.5h-1l110 110v2q0 1 0.5 2t0.5 3q0 7 -3 12t-8 10q-6 3 -12 6.5t-13 6.5q-14 6 -26.5 12.5
t-22.5 15.5q-16 9 -26.5 22.5t-10.5 33.5q0 15 13.5 40t34.5 53t47.5 56.5t53.5 51.5t51 37.5t41 14.5q16 0 29 -10t24 -27q22 -23 36 -66t23 -89.5t13 -87.5t5 -58q3 -23 10.5 -49t16.5 -54q12 -38 22.5 -75.5t10.5 -75.5q0 -29 -17 -42t-46 -13h-9zM252 468q1 0 4.5 -8
t7.5 -19.5t7.5 -24t4.5 -20.5q3 -15 8 -45.5t10 -64.5t10 -63.5t8 -42.5q2 -9 5.5 -29t7 -43t7 -43t4.5 -29l36 -36h5q25 0 40 11t15 36q0 31 -8 63.5t-18 65t-20 64t-14 60.5q-1 14 -3.5 42.5t-7.5 63t-13 71.5t-19.5 67t-27.5 49.5t-36 19.5q-16 0 -39 -14t-48.5 -36
t-51 -49t-46 -54t-33 -50.5t-12.5 -38.5q0 -25 19 -38t42 -23.5t42 -22.5t19 -35q0 -3 -0.5 -7t-0.5 -5l-108 -108q-13 -12 -20.5 -15t-11 -4.5t-4.5 -5t-1 -15.5q0 -32 16.5 -44.5t45.5 -12.5q23 0 38.5 11t26.5 27.5t19.5 36t19 37.5t24.5 32t35 19q-4 13 -4.5 29.5t0 33
t1.5 31t1 25.5q0 16 -6 19l-60 36v36l60 60h24z" />
    <glyph glyph-name="FL00B7h" unicode="&#xb7;" horiz-adv-x="160" 
d="M18 310q0 28 15.5 38.5t39.5 10.5q25 0 33.5 -14t8.5 -35q0 -8 -3.5 -19t-10 -21t-15.5 -16t-20 -4q-21 5 -34.5 22t-13.5 38zM7 310q0 -20 10.5 -37t27.5 -27q14 -15 34 -19h7q12 0 21.5 7.5t16.5 18t10.5 22t3.5 20.5q0 31 -14 45l-4 3q-5 13 -16 20t-31 7
q-29 0 -47.5 -13t-18.5 -47z" />
    <glyph glyph-name="FL00B8h" unicode="&#xb8;" horiz-adv-x="140" 
d="M73 -41q1 -28 -14.5 -38.5t-39.5 -10.5q-12 0 -34 -1t-42.5 0t-33.5 5t-7 13l32 52q34 -15 57.5 -14.5t38 10t23.5 25t14.5 31t10 27t11.5 13.5q10 -3 9 -16.5t-6.5 -31t-12 -35t-6.5 -29.5zM-89 -101q7 -7 24.5 -10t37.5 -3q11 0 21 0.5t19 0.5h21q27 0 44.5 12t17.5 43
v2q0 7 3.5 18.5t8.5 25.5t9 27t4 26q0 12 -6 18l-7 7q-3 11 -19 17q-12 -2 -17 -11t-10 -23q-1 -2 -1 -3l-1 -2q-4 -11 -9 -22.5t-12.5 -22t-19 -17t-27.5 -6.5q-22 0 -63 17l-37 -60q-2 -2 -2.5 -4t-0.5 -7q0 -11 16 -17z" />
    <glyph glyph-name="FL00B9h" unicode="&#xb9;" horiz-adv-x="182" 
d="M0 378q0 2 0.5 2.5t0.5 2.5v5l49 265q3 14 17 21t32 7q14 0 20.5 -5.5t8.5 -12.5l7 -7q4 -4 5 -9.5t1 -10.5v-31q0 -8 -1 -23.5t-2.5 -32t-3.5 -30.5t-3 -19l-0.5 -7.5t-1.5 -14.5q-2 -19 -4.5 -46t-8.5 -51.5t-17 -42t-29 -17.5h-5q-25 3 -37 15l-3 3q-13 5 -19 14.5
t-6 20.5v4zM11 374q0 -11 10 -19.5t30 -10.5q13 -2 22 8.5t15 27.5t9.5 38.5t5.5 41.5t3 35.5t2 20.5q1 4 3 18t3.5 30.5t2.5 32t1 23.5v21q0 3 0.5 8t-1 9.5t-5.5 8t-13 3.5q-14 0 -25 -4.5t-13 -14.5l-49 -265q0 -1 -0.5 -5.5t-0.5 -6.5z" />
    <glyph glyph-name="FL00BAh" unicode="&#xba;" horiz-adv-x="284" 
d="M103 513q0 -9 5.5 -27t13.5 -32q1 -1 4 -1q5 0 12.5 10.5t14 25t11.5 29.5t5 23t-6.5 19t-14.5 20h-1q-4 0 -11 -9t-14.5 -20t-13 -22.5t-5.5 -15.5zM66 425q-4 16 -12 26l-16 20l-4 4q-1 1 -1.5 2t-1.5 2q-10 11 -18 20t-11 19v11q0 2 0.5 4t0.5 3q5 4 13.5 13t17.5 18
q2 2 3 3.5t3 3.5l4 4q2 2 4.5 5t5.5 7l7 10.5t9 14.5v-1q2 3 3.5 6t3.5 6q7 13 14.5 25.5t16.5 22.5t19 16.5t22 6.5h5q8 0 13.5 -2.5t12.5 -17.5l4 -3q5 -5 11 -18l-3 2q4 -17 9 -34.5t13 -31.5l6 -6q7 -7 13 -14t11 -15q8 -10 14 -19.5t6 -20.5q0 -4 -1 -8.5t-4 -8.5
l-1 -1l-109 -165l-13 12l-1 -2zM80 528q0 5 6.5 17.5t15 25t17 22.5t13.5 10q6 0 14 -7t15.5 -17t13 -20.5t5.5 -17.5q0 -9 -6 -26t-14.5 -33t-17.5 -28t-16 -12t-15 10.5t-15 24.5t-11.5 28.5t-4.5 22.5zM133 362l104 157q6 9 3 19.5t-10.5 20t-16.5 19t-15 17.5
q-13 19 -19 40.5t-11 43.5q-2 5 -5.5 6t-8.5 1h-5q-14 0 -26 -12.5t-22.5 -29t-20 -34.5t-18.5 -28q-3 -3 -9.5 -10.5t-14 -16t-14.5 -15.5t-10 -9q0 -2 -0.5 -5t-0.5 -4q4 -12 13 -22.5t19 -21t19 -22.5t13 -27z" />
    <glyph glyph-name="FL00BBh" unicode="&#xbb;" horiz-adv-x="336" 
d="M143 186v7q0 9 6.5 21.5t16 26.5t22 28t24.5 26q-12 12 -24 27t-22 29t-16.5 27t-6.5 22v6l11 53q25 -10 54 -35.5t51 -54.5q18 -22 30 -43t12 -36q0 -2 -0.5 -4t-0.5 -4l-3 -12q-3 -14 -15.5 -36t-30.5 -44t-39 -41t-41 -27l-13 13l-4 -2zM19 189v7q0 9 6.5 21.5
t16 26.5t22 28t24.5 26q-12 12 -24 27t-22 29t-16.5 27t-6.5 22v6l11 53q25 -10 54 -35.5t51 -54.5q18 -22 30 -43t12 -36q0 -2 -0.5 -4t-0.5 -4l-3 -12q-3 -14 -15.5 -36t-30.5 -44t-39 -41t-41 -27l-13 13l-4 -2zM162 148q18 7 36.5 24.5t34 38.5t27 41.5t14.5 34.5l3 12
q3 13 -7.5 35t-28.5 44t-39.5 40.5t-39.5 25.5l-8 -41q-2 -8 5 -21.5t18.5 -28.5t25 -30.5t24.5 -26.5q-12 -11 -25.5 -25.5t-24.5 -30t-18 -29.5t-5 -22zM38 151q18 7 36.5 24.5t34 38.5t27 41.5t14.5 34.5l3 12q3 13 -7.5 35t-28.5 44t-39.5 40.5t-39.5 25.5l-8 -41
q-2 -8 5 -21.5t18.5 -28.5t25 -30.5t24.5 -26.5q-12 -11 -25.5 -25.5t-24.5 -30t-18 -29.5t-5 -22z" />
    <glyph glyph-name="FL01F3h" unicode="&#xbc;" horiz-adv-x="680" 
d="M328 260q-2 6 -5 19t-3 16q0 10 6 19t17 9q10 0 17.5 -12t12.5 -31.5t8.5 -45t6.5 -51.5q21 16 42 22t40.5 9.5t37.5 9t33 20.5q-2 15 -3 30t-1 30v7q0 4 0.5 9t0.5 10v6q0 2 3 4.5t5 2.5q17 0 29.5 -27.5t20.5 -69.5q8 -6 14 -12.5t6 -11.5q0 -7 -13 -14q4 -23 7 -46.5
t4.5 -43.5t2 -35.5t0.5 -23.5v-7q0 -5 -0.5 -11t-0.5 -11v-6q-2 -2 -7.5 -4.5t-8.5 -2.5q-23 0 -30.5 16.5t-7.5 33.5v10v10q-2 22 -5.5 44t-6.5 44q-26 -5 -56 -13.5t-58 -17t-50 -16.5t-31 -12zM47 59q1 4 5 13t6 12l271 516q11 19 28.5 28t34.5 9q11 0 13.5 -6.5
t0.5 -15.5t-6.5 -18.5t-7.5 -16.5l-16 -40q-4 -10 -12 -27.5t-17.5 -38t-20 -43t-19.5 -42t-16.5 -34t-10.5 -19.5q-5 -10 -18.5 -40t-32 -68.5t-40 -80.5t-43 -76t-41.5 -54.5t-34 -16.5q-22 5 -27.5 21.5t3.5 37.5zM41 324q0 2 0.5 6.5t0.5 5.5l49 265q2 10 13 14.5
t25 4.5q9 0 13 -3.5t5.5 -8t1 -9.5t-0.5 -8v-21q0 -8 -1 -23.5t-2.5 -32t-3.5 -30.5t-3 -18q-1 -6 -2 -21t-3 -35t-5.5 -41.5t-9.5 -38.5t-15 -27.5t-22 -8.5q-20 2 -30 10.5t-10 19.5zM30 35q0 -32 27 -42l3 -3q8 -8 24 -13q1 0 2.5 -0.5t3.5 -0.5q14 0 31 17t35.5 44
t37.5 61.5t36 69t32 66t25 53.5q5 11 9 18t6 12q5 7 18.5 34.5t28.5 60.5t29 64t20 46l15 39h1q1 2 1.5 3.5t1.5 3.5q4 9 8.5 20.5t4.5 20.5q0 11 -5 16l-8 8q-5 15 -25 15t-39.5 -10.5t-33.5 -32.5l-270 -515q-3 -4 -6 -12t-6 -15q-7 -14 -7 -28zM347 100q1 0 5 2l12 -12
q8 4 27.5 11t44.5 15t52.5 16t53.5 14l1 -1v1l4 -30l4 -30v-19q0 -17 5.5 -33.5t22.5 -24.5l4 -3q12 -12 32 -12q5 0 12.5 3.5t11.5 7.5v21q0 3 0.5 5.5t0.5 5.5v7q0 7 -0.5 22t-2 34.5t-4 42t-6.5 45.5q12 7 12 19q0 9 -11 20l-3 2l-1 1l1 -1q-1 5 -9 13q-7 29 -15 51
t-19 33l-3 3q-8 11 -16 18t-17 7q-5 0 -12 -6.5t-7 -11.5v-6q0 -2 -0.5 -3t-0.5 -3v-20q0 -15 0.5 -28.5t2.5 -27.5q-12 -10 -26 -14.5t-28 -6.5q-2 0 -4 -0.5t-3 -0.5q-14 -3 -29.5 -6.5t-32.5 -12.5q-5 34 -12 61t-18 40l-3 1v1q1 0 1 -1h1l-3 2q-12 23 -29 23
t-25.5 -12.5t-8.5 -26.5q0 -3 3 -15.5t5 -20.5zM30 324q0 -11 6 -20.5t19 -14.5l3 -3q12 -12 37 -15h5q18 0 29 17.5t17 42t8.5 51.5t4.5 46q1 7 1.5 14.5l0.5 7.5q1 5 3 19t3.5 30.5t2.5 32t1 23.5v31q0 5 -1 10.5t-5 9.5l-7 7q-2 7 -8.5 12.5t-20.5 5.5q-18 0 -32 -7
t-17 -21l-49 -265v-5q0 -2 -0.5 -2.5t-0.5 -2.5v-4zM601 252l1 -2q-1 1 -1 2z" />
    <glyph glyph-name="FL00BDh" unicode="&#xbd;" horiz-adv-x="691" 
d="M444 165h1l-1 1v-1zM30 328q0 2 0.5 2.5t0.5 2.5v5l49 265q3 14 17 21t32 7q14 0 20.5 -5.5t8.5 -12.5l7 -7q4 -4 5 -9.5t1 -10.5v-31q0 -8 -1 -23.5t-2.5 -32t-3.5 -30.5t-3 -19l-0.5 -7.5t-1.5 -14.5q-2 -19 -4.5 -46t-8.5 -51.5t-17 -42t-29 -17.5h-5q-25 3 -37 15
l-3 3q-13 5 -19 14.5t-6 20.5v4zM363 211q10 14 22 19.5t25 5.5q8 0 15 -1t14 -3h2q11 -3 21 -5t20 -2h10t10 2q-19 14 -34.5 23.5t-21.5 13.5h-1q-13 6 -23.5 11.5t-17.5 10.5q-10 5 -17.5 10t-13.5 11q-17 11 -26.5 23t-9.5 26v8q3 3 14.5 11.5t16.5 9.5h6q28 0 38.5 -5
t21.5 -14l1 -1q1 0 2 -1l4.5 -4.5t10.5 -7.5v1q4 -2 9 -6.5t10 -8.5t9.5 -7t9.5 -7q19 -14 36 -26t19 -12l37 -21l69 -43l-3 -3l13 -13q-18 -18 -30 -29t-19.5 -17t-11.5 -7.5t-7 -1.5h-6q-8 -3 -20.5 -6t-28.5 -3h-10t-10 1h-30q-11 0 -17 1t-11 6q-3 1 -6 1q-7 0 -12 -4
t-10 -9q6 -14 12 -33.5t10 -35.5q29 1 56 6q19 2 37.5 4t35.5 2q9 0 15 -5t9 -13l7 -6q10 -9 11.5 -27t1.5 -31q-54 -3 -83.5 -4.5t-43 -2.5t-17 -2t-4.5 -2q-16 -8 -23.5 -9t-19.5 -1q-8 0 -13.5 1t-11.5 7l-5 5q-6 2 -12 7t-11 17q-8 36 -13.5 58.5t-9.5 37.5l-3 12
q-5 17 -6 23.5t-1 13.5v9q0 5 1 8l0.5 0.5t0.5 1.5v5q0 10 8 27h3zM30 35q0 14 7 28q3 7 6 15t6 12l270 515q14 22 33.5 32.5t39.5 10.5t25 -15l8 -8q5 -5 5 -16q0 -9 -4.5 -20.5t-8.5 -20.5q-1 -2 -1.5 -3.5t-1.5 -3.5h-1l-15 -39q-6 -15 -20 -46t-29 -64t-28.5 -60.5
t-18.5 -34.5q-2 -5 -6 -12t-9 -18q-10 -22 -25 -53.5t-32 -66t-36 -69t-37.5 -61.5t-35.5 -44t-31 -17q-2 0 -3.5 0.5t-2.5 0.5q-16 5 -24 13l-3 3q-27 10 -27 42zM41 324q0 -11 10 -19.5t30 -10.5q13 -2 22 8.5t15 27.5t9.5 38.5t5.5 41.5t3 35t2 21q1 4 3 18t3.5 30.5
t2.5 32t1 23.5v21q0 3 0.5 8t-1 9.5t-5.5 8t-13 3.5q-14 0 -25 -4.5t-13 -14.5l-49 -265q0 -1 -0.5 -5.5t-0.5 -6.5zM367 200q-4 -8 -4 -16q0 -5 -1 -11.5t-1 -12.5q0 -4 1 -9.5t4.5 -19.5t10 -41t17.5 -74q5 -11 11.5 -13t15.5 -2q12 0 19 1t18 6q3 2 26.5 4.5t50 4.5
t48 3.5l21.5 1.5q0 6 -0.5 14.5t-2.5 16t-6.5 12.5t-11.5 5q-32 0 -72 -6t-72 -6l-3 11t-7.5 27t-10 32t-11.5 27q8 8 16.5 14.5t24.5 3.5q6 -7 25 -7q8 0 16.5 0.5t14.5 -0.5q25 -3 42.5 0.5t25.5 7.5q3 1 5 0t7 2t16 12.5t33 31.5l-56 35l-35 20q-1 0 -12.5 8t-26.5 19
t-31 22.5t-26 18.5q-11 7 -17 13t-12 10t-15.5 6t-27.5 2h-4q-4 -1 -12 -7t-10 -8v-3q0 -13 12.5 -25t32.5 -23q16 -11 42 -22q10 -5 35 -21.5t55 -39.5q-18 -12 -41.5 -11.5t-45.5 7.5q-22 5 -40.5 2.5t-29.5 -23.5h-1zM47 59q-9 -21 -3.5 -37.5t27.5 -21.5q14 -4 34 16.5
t41.5 54.5t43 76t40 80.5t32 68.5t18.5 40q3 5 10.5 19.5t16.5 34t19.5 42t20 43t17.5 38t12 27.5l16 40q3 7 7.5 16.5t6.5 18.5t-0.5 15.5t-13.5 6.5q-17 0 -34.5 -9t-28.5 -28l-271 -516q-2 -3 -6 -12t-5 -13z" />
    <glyph glyph-name="FL0222h" unicode="&#xbe;" horiz-adv-x="813" 
d="M46 458q-6 15 -2 25.5t25 15.5q14 4 29 2t30.5 -5t31.5 -5.5t32 0.5l19 -2q-19 26 -46.5 43.5t-53 29.5t-43.5 20.5t-18 17.5q0 10 7 19t27 9q45 0 92.5 -31t104.5 -100l47 -58l-60 -35l-37 -20q-1 0 -13 -8t-28.5 -18.5t-33.5 -22t-27 -18.5q-11 -8 -17.5 -14
t-13.5 -9.5t-17 -5.5t-28 -2h-3q-4 1 -12.5 6.5t-11.5 7.5v4q0 13 13.5 25t34.5 23l21 10.5l23 11.5q11 5 31.5 18.5t52.5 36.5q-20 13 -38.5 14.5t-41.5 -5.5q-23 -5 -43.5 -2.5t-31.5 22.5h-1zM461 260q-2 6 -5 19t-3 16q0 10 6 19t17 9q10 0 17.5 -12t12.5 -31.5t8.5 -45
t6.5 -51.5q21 16 42 22t40.5 9.5t37.5 9t33 20.5q-2 15 -3 30t-1 30v7q0 4 0.5 9t0.5 10v6q0 2 3 4.5t5 2.5q17 0 29.5 -27.5t20.5 -69.5q8 -6 14 -12.5t6 -11.5q0 -7 -13 -14q4 -23 7 -46.5t4.5 -43.5t2 -35.5t0.5 -23.5v-7q0 -5 -0.5 -11t-0.5 -11v-6q-2 -2 -7.5 -4.5
t-8.5 -2.5q-23 0 -30.5 16.5t-7.5 33.5v10v10q-2 22 -5.5 44t-6.5 44q-26 -5 -56 -13.5t-58 -17t-50 -16.5t-31 -12zM180 59q1 4 5 13t6 12l271 516q11 19 28.5 28t34.5 9q11 0 13.5 -6.5t0.5 -15.5t-6.5 -18.5t-7.5 -16.5l-16 -40q-4 -10 -12 -27.5t-17.5 -38t-20 -43
t-19.5 -42t-16.5 -34t-10.5 -19.5q-5 -10 -18.5 -40t-32 -68.5t-40 -80.5t-43 -76t-41.5 -54.5t-34 -16.5q-22 5 -27.5 21.5t3.5 37.5zM163 35q0 -32 27 -42l3 -3q8 -8 24 -13q1 0 2.5 -0.5t3.5 -0.5q14 0 31 17t35.5 44t37.5 61.5t36 69t32 66t25 53.5q5 11 9 18t6 12
q5 7 18.5 34.5t28.5 60.5t29 64t20 46l15 39h1q1 2 1.5 3.5t1.5 3.5q4 9 8.5 20.5t4.5 20.5q0 11 -5 16l-8 8q-5 15 -25 15t-39.5 -10.5t-33.5 -32.5l-270 -515q-3 -4 -6 -12t-6 -15q-7 -14 -7 -28zM34 458q1 -6 4 -11h4q8 -11 16 -15l1 -1l5 -4q9 -9 20 -12.5t23 -3.5
q11 0 18.5 1t15.5 3q18 6 30 6h3q-22 -14 -37 -23.5t-25 -14.5q2 2 -2.5 -0.5t-6.5 -3.5l-4 -2q-2 -2 -6 -3.5t-7 -3.5l1 1l-18 -9q-23 -13 -38.5 -27t-15.5 -31v-9q2 -2 5.5 -4.5t8.5 -5.5l4 -4q4 -3 14.5 -10t15.5 -8h5q15 0 24.5 1t16.5 3.5t12.5 6.5t12.5 10q3 2 6 5
t8 6q10 7 26.5 18.5t32.5 22t28 18t13 7.5l39 21l68 40l-11 13l1 1l-56 68q-60 72 -109 103.5t-96 31.5q-26 0 -35.5 -12.5t-9.5 -26.5q0 -8 5.5 -13.5t16.5 -11.5l2 -2q6 -6 17 -12t26 -13q14 -7 29.5 -14.5t31.5 -17.5l18 -15q-2 -1 -4.5 -0.5t-4.5 0.5q-9 0 -20.5 2
t-22.5 4t-21.5 4t-22.5 2q-16 0 -25 -3v-1q-33 -9 -33 -34v-7q0 -3 2 -7l-1 1q0 -2 2 -4zM480 100q1 0 5 2l12 -12q8 4 27.5 11t44.5 15t52.5 16t53.5 14l1 -1v1l4 -30t4 -29v-20q0 -17 5.5 -33.5t22.5 -24.5l4 -3q12 -12 32 -12q5 0 12.5 3.5t11.5 7.5v21q0 3 0.5 5.5
t0.5 5.5v7q0 7 -0.5 22t-2 34.5t-4 42t-6.5 45.5q12 7 12 19q0 9 -11 20l-3 2q-1 5 -9 13q-7 29 -15 51t-19 33l-3 2q-16 26 -33 26q-5 0 -12 -6.5t-7 -11.5v-6q0 -2 -0.5 -3t-0.5 -3v-20q0 -15 0.5 -28.5t2.5 -27.5q-12 -10 -25.5 -14.5t-27.5 -6.5q-2 0 -4 -0.5t-4 -0.5
q-14 -3 -29.5 -6.5t-32.5 -12.5q-5 34 -12 61t-18 40l-4 3q-12 23 -29 23t-25.5 -12.5t-8.5 -26.5q0 -3 3 -15.5t5 -20.5zM734 252l1 -2q-1 1 -1 2z" />
    <glyph glyph-name="FL00BFh" unicode="&#xbf;" horiz-adv-x="487" 
d="M433 501q0 -28 -15.5 -38.5t-39.5 -10.5q-25 0 -33.5 14t-8.5 35q0 7 3.5 18.5t10 21t15.5 16t20 4.5q21 -5 34.5 -22t13.5 -38zM420 272q-16 -34 -43.5 -38t-60.5 4q-32 11 -67 12t-62 -19q45 -38 82.5 -64.5t51.5 -34.5q17 -9 32.5 -18t29.5 -18q29 -18 48 -38t19 -42
v-5q-4 -4 -16 -13t-17 -11h-5q-26 0 -40 3.5t-23.5 10t-18.5 16t-25 21.5q-15 12 -38.5 30.5t-46.5 36.5t-40 31t-18 13l-52 33l-83 58q32 36 48 51.5t24 20.5t10.5 3.5t7.5 0.5q11 5 37.5 11t63.5 1q9 -1 21.5 -0.5t24.5 0.5t22 -2t16 -9q22 -5 34.5 5t23 22.5t22 22
t31.5 3.5q10 -3 13.5 -12t3.5 -20q0 -10 -1.5 -21t-1.5 -18q0 -9 -5 -27h-2zM30 223l90 -63l55 -34q17 -13 45 -34.5t52 -40.5q8 -6 14.5 -11.5t11.5 -9.5q6 -5 11.5 -10t13.5 -13q5 -5 10.5 -9t10.5 -8q13 -13 29 -19.5t54 -6.5h7q3 1 8.5 4.5t11.5 8t11.5 9t7.5 6.5v9
q0 23 -21 46q-9 16 -25.5 30.5t-37.5 28.5q-13 8 -28 16.5t-35 19.5h1q-13 8 -42.5 27t-65.5 48q20 10 46 10q15 0 31 -3.5t32 -8.5q24 -6 45 -6q20 0 37 8.5t29 31.5h4q3 12 5 21t2 14v6q0 4 1 9q1 6 1.5 12t0.5 12q0 10 -2 18.5t-8 14.5l-2 1q1 0 1 -1h1l-6 6
q-6 14 -21 19q-1 0 -2 0.5t-2 0.5h1q-4 1 -13 1q-17 0 -28 -9t-20 -22q-8 -9 -16.5 -17.5t-21.5 -8.5q-5 0 -8 1q-15 12 -42 12h-45q-8 1 -15.5 1.5t-15.5 0.5q-26 0 -45 -4.5t-29 -9.5l-4 -1h-2q-3 0 -8.5 -2.5t-16.5 -11.5t-28 -26.5t-44 -47.5l14 -10zM444 501
q0 26 -15.5 45.5t-40.5 25.5h-7q-13 0 -23 -8t-17.5 -19t-11.5 -23t-4 -21q0 -20 6 -34.5t21 -21.5l5 -4q12 -12 36 -12q28 0 45.5 12.5t17.5 44.5q0 29 -20 49l-15 15q-15 14 -34 19h-6q-12 0 -22 -7.5t-16.5 -18t-10.5 -22.5t-4 -20q0 -31 14 -45l10 -11q9 -4 26 -4
q29 0 47.5 13t18.5 47zM441 501q0 21 -13 41q-6 4 -12.5 7t-13.5 5h-6q-12 0 -22 -7.5t-16.5 -18t-10.5 -22.5t-4 -20q0 -23 7 -37q9 -5 28 -5q28 0 45.5 12.5t17.5 44.5zM323 307l-3 2z" />
    <glyph glyph-name="FL00C0h" unicode="&#xc0;" horiz-adv-x="473" 
d="M25 22q0 -2 3 -3zM333 649q-11 0 -28 9.5t-34 23.5q-12 9 -24.5 19t-23.5 20.5t-20 19.5t-14 15q-7 8 -9 13.5t-2 8.5q0 14 12 16t34 2h11q11 0 27 -7.5t33 -20t33.5 -29t28.5 -33.5q21 -23 31 -47l-50 -10h-5zM292 580l11 -11l97 -359q5 -9 12.5 -31.5t16.5 -46.5
q8 -26 16 -48t13 -30h1v-5q0 -2 0.5 -4.5t0.5 -4.5q0 -28 -21.5 -42.5t-45.5 -14.5h-23q-10 0 -16 6l-7 7q-14 3 -17 17l-73 307q-1 -4 -5 -14q-11 -29 -26 -68t-30.5 -76t-29 -66t-21.5 -38q-11 -11 -14.5 -16t-7.5 -10h1q-11 -16 -23 -26t-42 -10h-7q-2 2 -5.5 5t-7.5 7
h-3q-5 4 -16 15t-15 17v8q0 33 15 57q7 11 27 47.5t53 100.5q32 62 64.5 141t66.5 178q3 0 9 2l7 2v1q7 3 11.5 4.5t8.5 2.5t9 1.5t14 2.5zM362 680q-7 18 -23 36.5t-34.5 34t-37.5 25t-32 9.5q-29 0 -41.5 -1.5t3.5 -20.5q8 -9 24.5 -25t35 -31.5t36 -26t28.5 -8.5z
M282 576q-2 0 -42 -14q-64 -187 -130 -314q-33 -64 -53 -101t-27 -48q-14 -23 -14 -51v-5q2 -4 11 -12.5t13 -11.5h4q19 0 29.5 5t17.5 13t14 19t19 23q7 8 19 33t25.5 57t27.5 67.5t25.5 65t18.5 49t8 19.5l16 -30l76 -321q4 -13 15 -13h23q21 0 40 12.5t19 36.5
q0 3 -0.5 7t-0.5 5q-5 7 -13 29.5t-16.5 48.5t-16.5 48.5t-13 29.5z" />
    <glyph glyph-name="FL00C1h" unicode="&#xc1;" horiz-adv-x="473" 
d="M157 661q7 18 22.5 36.5t34 34t37.5 25t33 9.5h25q17 0 21 -3.5t-8 -18.5q-8 -9 -24.5 -25t-35 -31.5t-36.5 -26t-28 -8.5zM377 223q5 -7 13 -29.5t16.5 -48.5t16.5 -48.5t13 -29.5q0 -1 0.5 -5t0.5 -7q0 -24 -19 -36.5t-40 -12.5h-23q-11 0 -15 13l-76 321l-16 30
q-1 0 -8 -19.5t-18.5 -49t-25.5 -65t-27.5 -67.5t-25.5 -57t-19 -33q-12 -12 -19 -23t-14 -19t-17.5 -13t-29.5 -5h-4q-4 3 -13 11.5t-11 12.5v5q0 28 14 51q7 11 27 48t53 101q66 127 130 314q40 14 42 14zM247 577v-1l-7 -2q-6 -2 -9 -2q-34 -99 -66.5 -178t-64.5 -141
q-33 -64 -53 -100.5t-27 -47.5q-15 -24 -15 -57v-8q4 -6 15 -17t16 -15h3q4 -4 7.5 -7t5.5 -5h7q30 0 42 10t23 26h-1q4 5 7.5 10t14.5 16q8 9 21.5 38t29 66t30.5 76t26 68q4 10 5 14l73 -307q3 -14 17 -17l7 -7q6 -6 16 -6h23q24 0 45.5 14.5t21.5 42.5q0 2 -0.5 4.5
t-0.5 4.5v5h-1q-5 8 -13 30t-16 48q-9 24 -16.5 46.5t-12.5 31.5l-97 359l-11 11l-2 8q-9 -2 -14 -2.5t-9 -1.5t-8.5 -2.5t-11.5 -4.5zM153 650l6 -1l11 -11l41 -8h6q12 0 30 11.5t37 26.5t35 31t24 25q11 13 11 21q0 6 -3 9l-9 9q-2 11 -10.5 12.5t-22.5 1.5h-25
q-15 0 -35.5 -10.5t-40.5 -27t-37 -36.5t-24 -39zM28 19q-3 1 -3 3zM37 10q-1 0 -3 2z" />
    <glyph glyph-name="FL00C2h" unicode="&#xc2;" horiz-adv-x="473" 
d="M34 12q2 -2 3 -2zM326 683l-3 3zM25 22q0 -2 3 -3zM321 689q-3 1 -4 4q3 -4 9 -10zM379 646q-7 0 -15 4.5t-17 12.5q-16 9 -34 29.5t-34 39.5q-3 1 -4 4q-20 -14 -38 -30t-32 -30q-15 -15 -26 -24.5t-22 -9.5h-4l-50 10l-12 11l-7 2q8 20 30 47.5t49 52.5t53.5 42.5
t42.5 17.5h7l12 -3q10 -2 23 -10.5t27 -21t28.5 -28t27.5 -31.5q17 -20 29.5 -39t19.5 -36l-50 -10h-4zM292 580l11 -11l97 -359q5 -9 12.5 -31.5t16.5 -46.5q8 -26 16.5 -48.5t13.5 -29.5v-5q0 -2 0.5 -4.5t0.5 -4.5q0 -28 -21.5 -42.5t-45.5 -14.5h-23q-10 0 -16 6l-7 7
q-14 3 -17 17l-73 307q-1 -4 -5 -14q-11 -29 -26 -68t-30.5 -76t-29 -66t-21.5 -38q-11 -11 -14.5 -16t-7.5 -10h1q-11 -16 -23 -26t-42 -10h-7q-2 2 -5.5 5t-7.5 7h-3q-5 4 -16 15t-15 17v8q0 33 15 57q7 11 27 47.5t53 100.5q32 62 64.5 141t66.5 178q3 0 9 2l7 2v1
q7 3 11.5 4.5t8.5 2.5t9 1.5t14 2.5zM407 677q-7 18 -23.5 40t-36 42t-39.5 34.5t-33 17.5l-12 3q-14 3 -38.5 -12t-50 -37.5t-47 -48t-28.5 -43.5l41 -8q7 -2 18.5 8t27.5 25.5t36 33.5t44 32q10 -12 24 -29t28 -32t27 -25.5t21 -8.5zM282 576q-2 0 -42 -14
q-64 -187 -130 -314q-33 -64 -53 -101t-27 -48q-14 -23 -14 -51v-5q2 -4 11 -12.5t13 -11.5h4q19 0 29.5 5t17.5 13t14 19t19 23q7 8 19 33t25.5 57t27.5 67.5t25.5 65t18.5 49t8 19.5l16 -30l76 -321q4 -13 15 -13h23q21 0 40 12.5t19 36.5q0 3 -0.5 7t-0.5 5
q-5 7 -13 29.5t-16.5 48.5t-16.5 48.5t-13 29.5z" />
    <glyph glyph-name="FL00C3h" unicode="&#xc3;" horiz-adv-x="473" 
d="M99 681q5 17 19 35.5t30.5 35t33 28t26.5 14.5q16 4 29 -2t24.5 -15.5t21.5 -19.5t22 -14q19 23 43 35.5t38 10.5l31 -8q-5 -17 -18.5 -34.5t-30 -32.5t-32.5 -26t-26 -14l-9 -3q-5 -3 -16 2q-14 6 -32 22t-30 31l-13 18q-9 -11 -20 -24t-22.5 -24t-21.5 -18t-16 -5z
M377 223q5 -7 13 -29.5t16.5 -48.5t16.5 -48.5t13 -29.5q0 -1 0.5 -5t0.5 -7q0 -24 -19 -36.5t-40 -12.5h-23q-11 0 -15 13l-76 321l-16 30q-1 0 -8 -19.5t-18.5 -49t-25.5 -65t-27.5 -67.5t-25.5 -57t-19 -33q-12 -12 -19 -23t-14 -19t-17.5 -13t-29.5 -5h-4q-4 3 -13 11.5
t-11 12.5v5q0 28 14 51q7 11 27 48t53 101q66 127 130 314q40 14 42 14zM247 577v-1l-7 -2q-6 -2 -9 -2q-34 -99 -66.5 -178t-64.5 -141q-33 -64 -53 -100.5t-27 -47.5q-15 -24 -15 -57v-8q4 -6 15 -17t16 -15h3q4 -4 7.5 -7t5.5 -5h7q30 0 42 10t23 26h-1q4 5 7.5 10
t14.5 16q8 9 21.5 38t29 66t30.5 76t26 68q4 10 5 14l73 -307q3 -14 17 -17l7 -7q6 -6 16 -6h23q24 0 45.5 14.5t21.5 42.5q0 2 -0.5 4.5t-0.5 4.5v5q-5 7 -13.5 29.5t-16.5 48.5q-9 24 -16.5 46.5t-12.5 31.5l-97 359l-11 11l-2 8q-9 -2 -14 -2.5t-9 -1.5t-8.5 -2.5
t-11.5 -4.5zM94 670l8 -2l10 -10l31 -8h5q6 0 15 5.5t19 14.5t20 20t19 21q9 -11 21 -22t24 -19q18 -13 31 -19q9 -4 14 -4q7 0 9 1l8 3q10 3 27 15.5t34.5 29.5t32 37t20.5 39l-13 12l1 2q0 1 1 3l-42 11h-7q-15 0 -37 -11.5t-42 -31.5q-15 9 -23 17q-12 12 -26 22.5
t-34 10.5q-5 0 -8.5 -0.5t-6.5 -1.5q-11 -3 -29 -15.5t-36 -30t-33 -38t-20 -39.5zM28 19q-3 1 -3 3zM34 12l3 -2q-1 0 -3 2z" />
    <glyph glyph-name="FL00C4h" unicode="&#xc4;" horiz-adv-x="473" 
d="M34 12q2 -2 3 -2zM25 22q0 -2 3 -3zM306 706q0 34 18.5 47t47.5 13q20 0 31 -7t16 -20l4 -3q14 -14 14 -45q0 -9 -3.5 -20.5t-10.5 -22t-16.5 -18t-21.5 -7.5h-7q-20 4 -34 19q-17 10 -27.5 27t-10.5 37zM93 706q0 34 18.5 47t47.5 13q20 0 31 -7t16 -20l4 -3
q14 -14 14 -45q0 -9 -3.5 -20.5t-10.5 -22t-16.5 -18t-21.5 -7.5h-7q-20 4 -34 19q-17 10 -27.5 27t-10.5 37zM292 580l11 -11l97 -359q5 -9 12.5 -31.5t16.5 -46.5q8 -26 16 -48t13 -30h1v-5q0 -2 0.5 -4.5t0.5 -4.5q0 -28 -21.5 -42.5t-45.5 -14.5h-23q-10 0 -16 6l-7 7
q-14 3 -17 17l-73 307q-1 -4 -5 -14q-11 -29 -26 -68t-30.5 -76t-29 -66t-21.5 -38q-11 -11 -14.5 -16t-7.5 -10h1q-11 -16 -23 -26t-42 -10h-7q-2 2 -5.5 5t-7.5 7h-3q-5 4 -16 15t-15 17v8q0 33 15 57q7 11 27 47.5t53 100.5q32 62 64.5 141t66.5 178q3 0 9 2l7 2v1
q7 3 11.5 4.5t8.5 2.5t9 1.5t14 2.5zM317 706q0 -21 13.5 -38t34.5 -22q11 -2 20 4t15.5 16t10 21t3.5 19q0 21 -8.5 35t-33.5 14q-24 0 -39.5 -10.5t-15.5 -38.5zM104 706q0 -21 13.5 -38t34.5 -22q11 -2 20 4t15.5 16t10 21t3.5 19q0 21 -8.5 35t-33.5 14
q-24 0 -39.5 -10.5t-15.5 -38.5zM282 576q-2 0 -42 -14q-64 -187 -130 -314q-33 -64 -53 -101t-27 -48q-14 -23 -14 -51v-5q2 -4 11 -12.5t13 -11.5h4q19 0 29.5 5t17.5 13t14 19t19 23q7 8 19 33t25.5 57t27.5 67.5t25.5 65t18.5 49t8 19.5l16 -30l76 -321q4 -13 15 -13h23
q21 0 40 12.5t19 36.5q0 3 -0.5 7t-0.5 5q-5 7 -13 29.5t-16.5 48.5t-16.5 48.5t-13 29.5z" />
    <glyph glyph-name="FL00C5h" unicode="&#xc5;" horiz-adv-x="473" 
d="M34 12q2 -2 3 -2zM347 735q0 1 -1 1zM25 22q0 -2 3 -3zM240 711q0 -9 6 -21q2 -1 5 -1t8.5 5.5t10 12.5t8 14.5t3.5 11.5t-7 11q-1 1 -3 1t-7.5 -4.5t-10.5 -10.5t-9 -11.5t-4 -7.5zM205 666q-2 5 -4.5 9t-5.5 7q-3 2 -9 8h-1l-3 3q-1 1 -2 1.5t-2 1.5q-5 5 -10.5 10
t-11.5 17q1 3 1 4v8q3 1 8.5 5t11.5 8.5t11.5 9t7.5 6.5t5.5 7t7.5 10q11 14 25 29t34 15h4q14 0 22 -12v-3l10 -9q1 -1 1 -2l1 -1q3 -18 10 -30q3 -4 5 -4q1 -1 2 -1.5t2 -1.5q7 -7 14 -13t9 -14l2 -1q5 -5 8 -9.5t3 -9.5q0 -8 -6 -14h-1l-81 -92l-14 12l-1 -1zM292 580
l11 -11l97 -359q5 -9 12.5 -31.5t16.5 -46.5q8 -26 16 -48t13 -30h1v-5q0 -2 0.5 -4.5t0.5 -4.5q0 -28 -21.5 -42.5t-45.5 -14.5h-23q-10 0 -16 6l-7 7q-14 3 -17 17l-73 307q-1 -4 -5 -14q-11 -29 -26 -68t-30.5 -76t-29 -66t-21.5 -38q-11 -11 -14.5 -16t-7.5 -10h1
q-11 -16 -23 -26t-42 -10h-7q-2 2 -5.5 5t-7.5 7h-3q-5 4 -16 15t-15 17v8q0 33 15 57q7 11 27 47.5t53 100.5q32 62 64.5 141t66.5 178q3 0 9 2l7 2v1q7 3 11.5 4.5t8.5 2.5t9 1.5t14 2.5zM217 726q0 3 5 10t11.5 14t13 12.5t9.5 5.5q4 0 10.5 -4t12 -9.5t9.5 -11.5t4 -10
q0 -5 -4.5 -14.5t-11 -18.5t-13.5 -15.5t-12 -6.5t-11 6t-11 13.5t-8.5 15.5t-3.5 13zM257 634l77 87q5 5 2.5 11t-8 11.5t-12.5 10.5t-11 9q-10 11 -14.5 23t-7.5 24q-3 4 -11 4h-4q-11 0 -20 -7t-16.5 -16t-14.5 -19t-13 -16q-2 -2 -7 -6.5t-11 -9t-11 -8t-7 -4.5
q0 -1 -0.5 -3l-0.5 -2q3 -7 9.5 -12.5t14 -11.5t14.5 -12.5t10 -15.5zM282 576q-2 0 -42 -14q-64 -187 -130 -314q-33 -64 -53 -101t-27 -48q-14 -23 -14 -51v-5q2 -4 11 -12.5t13 -11.5h4q19 0 29.5 5t17.5 13t14 19t19 23q7 8 19 33t25.5 57t27.5 67.5t25.5 65t18.5 49
t8 19.5l16 -30l76 -321q4 -13 15 -13h23q21 0 40 12.5t19 36.5q0 3 -0.5 7t-0.5 5q-5 7 -13 29.5t-16.5 48.5t-16.5 48.5t-13 29.5z" />
    <glyph glyph-name="FL00C6h" unicode="&#xc6;" horiz-adv-x="806" 
d="M147 289q0 -12 -0.5 -23.5t0.5 -22.5q25 10 52 25t54 31.5t53 34t48 33.5v75q0 5 -5 13q-11 -1 -30 -10.5t-41.5 -25t-45.5 -34.5t-42 -37t-31 -34t-12 -25zM354 5v10t1 14v7q0 4 1 6q-2 8 -2 16v179q-31 -19 -66.5 -39t-60.5 -34q-12 -7 -20 -11.5t-11 -6.5l-38 -24
q0 -5 0.5 -8.5t0.5 -8.5q1 -11 1.5 -22t0.5 -22v-11q0 -5 -0.5 -9t-0.5 -8v-30q-11 -17 -27 -23.5t-36 -6.5q-10 0 -24 2.5t-23 11.5l-4 4q-9 4 -15.5 11t-6.5 20v283q0 4 -0.5 8t-0.5 9q0 12 1 24.5t4 23.5t8.5 19.5t14.5 11.5q11 5 37 23t59 42q32 23 67.5 48.5t68 46.5
t59 34.5t41.5 13.5q18 0 33.5 -12t26.5 -29q16 -16 27 -40q12 5 22 5q8 0 11 -1q19 8 44 21.5t51 30.5q3 2 6 3.5t6 3.5h-1q19 11 39.5 22t46.5 21q15 -5 20 -19l5 -5q7 -7 8.5 -16t1.5 -16v-7q0 -19 -16 -34.5t-41 -29t-56 -25.5t-61 -23q-1 -12 -4 -23t-8 -22h1
q-5 -14 -9 -27t-4 -25v-11q23 0 44.5 14t42.5 31q23 20 49 37t58 17q15 0 28 -2.5t18 -16.5l7 -7q7 -7 7 -23q0 -5 -2 -15q0 -5 -10.5 -15.5t-17.5 -15.5q-9 -6 -28 -18.5t-40 -26t-39.5 -25t-24.5 -14.5q-13 -8 -25.5 -12.5t-25.5 -8.5t-25 -8.5t-21 -11.5t-14.5 -18
t-5.5 -29v-12h2q32 0 72 20t79 43q5 3 9.5 5t9.5 5q15 9 31.5 18.5t38.5 17.5q10 -6 16 -17l6 -6h-1q0 1 -1 1l2 -1q7 -6 9 -16.5t2 -24.5q0 -8 -0.5 -17.5t-0.5 -15.5v-8q0 -19 -16 -34t-41.5 -28t-56.5 -24t-62 -21q-46 -15 -81 -29t-38 -28q-2 -8 -2.5 -16t-0.5 -16
q0 -11 -1 -19t-6 -14t-16 -9t-32 -3q-9 0 -17 4.5t-15 11.5l-1 1q-15 8 -26.5 23.5t-14.5 27.5v3zM128 224q-2 20 -3 40t-1 40q0 10 12.5 27t32.5 36t44.5 39t48 36t43 26t30.5 10q4 0 9.5 -4t10 -10t7.5 -12t3 -10v-80q-26 -19 -57 -40t-62.5 -40.5t-62 -35t-55.5 -22.5z
M365 5q2 -7 6.5 -15t11 -15.5t14 -12.5t16.5 -5q25 0 34.5 5t11.5 14.5t1 23t4 30.5q2 12 24.5 23.5t55 23t70.5 23.5t70 25.5t53 29.5t21 35q0 3 0.5 15.5t0.5 25.5q0 14 -2 25t-8 13q-27 -11 -57.5 -29.5t-61.5 -36t-62 -30.5t-59 -13q-19 0 -22 10.5t-3 27.5
q0 28 12 42.5t30 22.5t39.5 13.5t39.5 16.5q6 3 24.5 14.5t39.5 25t40 26t28 18.5q6 4 15 12.5t9 11.5q3 14 1 21.5t-7 11.5t-12.5 4.5t-16.5 0.5q-29 0 -52.5 -15.5t-46 -34t-45.5 -34t-50 -15.5q-15 0 -19 8t-4 29q0 14 3.5 26.5t8 25t8.5 25t5 26.5q30 11 61 22.5
t55.5 24.5t40.5 27.5t16 31.5q0 7 -1 20t-12 16q-22 -9 -46 -22.5t-48.5 -28t-49 -28t-48.5 -22.5q-1 1 -10 1q-15 0 -28 -10h-6q-4 14 -11 29t-16.5 28t-21.5 21t-26 8t-40.5 -14t-59.5 -35.5t-68.5 -46.5t-67.5 -48t-56.5 -40.5t-35.5 -22.5q-10 -2 -14.5 -16.5
t-5.5 -32.5t-0.5 -34t0.5 -22v-264q0 -9 5 -14t12.5 -7.5t15.5 -3.5t14 -1q17 0 31 6t24 20v10q0 8 0.5 16.5t0.5 16.5v11q0 17 -1 33t-2 33l42 26q5 3 27.5 15.5t51.5 29t59 34.5t50 31v-220q0 -3 2 -13q-1 -14 -1.5 -24.5t-0.5 -15.5z" />
    <glyph glyph-name="FL00C7h" unicode="&#xc7;" horiz-adv-x="487" 
d="M240 185q4 -6 7 -8zM247 177q6 -6 10 -9l-3 3zM177 97q-1 1 -2 1.5t-2 1.5q2 -3 5 -5.5t5 -4.5zM191 276q3 -14 8 -26t11 -23q32 -47 74 -75t77 -46q26 -14 43.5 -25.5t22.5 -25.5l3 -2q11 -11 11 -21q0 -20 -12 -37.5t-44 -17.5q-47 0 -98 28q-1 -3 -2.5 -8t-5.5 -13
l1 -1q-5 -13 -8 -23.5t-3 -15.5v-2q0 -31 -17.5 -43t-44.5 -12h-21q-9 0 -19 -0.5t-21 -0.5q-20 0 -37.5 3t-24.5 10l-6 6q-16 6 -16 17q0 5 0.5 7t2.5 4l37 60q36 -16 55 -16q13 0 22 5.5t15 14.5t10 20t7 22q2 5 3 10t3 10q-1 0 -3 2q-36 29 -65.5 62.5t-63.5 86.5
l-72 105l92 64l55 35q1 0 12.5 8.5t28.5 21.5t36.5 28t36.5 29q8 6 14.5 11.5t11.5 9.5q5 5 11 10t14 13q8 7 15 13t16.5 10t23 6t34.5 2h7q3 -2 9 -5.5t12.5 -8t12 -9t8.5 -7.5v-4l12 -12v-9q0 -24 -20 -45.5t-51 -41.5q-14 -9 -29.5 -18t-32.5 -18q-34 -19 -151 -122z
M246 -41q0 13 8 33.5t13 40.5q52 -33 103 -33q28 0 38 15t10 32q0 11 -16 22t-40.5 24t-54 30t-57.5 41t-50.5 55.5t-32.5 74.5q123 108 156 126q17 9 32.5 18t29.5 18q29 18 48 38t19 42v5q-2 2 -6.5 5.5t-9.5 7t-9.5 7t-7.5 4.5h-5q-26 0 -40 -3.5t-23.5 -10t-18.5 -16
t-25 -21.5q-15 -12 -38.5 -30.5t-46.5 -36.5t-40 -31t-18 -13l-52 -33l-83 -58l66 -96q20 -30 37 -52.5t33 -41t31.5 -33t33.5 -27.5l-2 -7q-6 -16 -11.5 -36t-17.5 -34t-33.5 -18t-58.5 12l-32 -52q-6 -9 7 -13t33.5 -5t42.5 0t34 1q24 0 39.5 10.5t14.5 38.5z" />
    <glyph glyph-name="FL00C8h" unicode="&#xc8;" horiz-adv-x="487" 
d="M306 640q-11 0 -28 9.5t-34 23.5q-12 9 -24.5 19t-23.5 20.5t-20 19.5t-14 15q-7 8 -9 13.5t-2 8.5q0 14 12 16t34 2h11q11 0 27 -7.5t33 -20t33.5 -29t28.5 -33.5q21 -23 31 -47l-50 -10h-5zM429 -24q-38 0 -54 6.5t-29 18.5q-11 7 -21 18q-8 8 -13.5 13t-11.5 10
q-5 4 -11.5 9.5t-14.5 11.5q-24 19 -52 40.5t-45 34.5l-55 34l-90 63l-2 2l-17 12l73 106q79 116 149.5 168t134.5 52q22 0 34.5 -8.5t18.5 -20.5l3 -3q8 -8 11.5 -19t3.5 -22q0 -16 -19 -29t-48 -28q-32 -17 -69 -40.5t-68 -58.5h8q14 0 28.5 3t30.5 7q15 4 30 7t32 3
q19 0 31 -4v-1q30 -8 39 -29l4 -4q12 -11 12 -32q0 -8 -2 -16t-5 -19h-4q-12 -23 -29 -31.5t-37 -8.5q-21 0 -45 6q-26 9 -45 9q-25 0 -49 -14q32 -26 55.5 -43t37.5 -25h-1q20 -11 35 -19.5t28 -16.5q21 -14 37.5 -28.5t25.5 -30.5q21 -23 21 -46v-9q-2 -2 -7.5 -6.5
t-11.5 -9t-11.5 -8t-8.5 -4.5h-7zM335 671q-7 18 -23 36.5t-34.5 34t-37.5 25t-32 9.5q-29 0 -41.5 -1.5t3.5 -20.5q8 -9 24.5 -25t35 -31.5t36 -26t28.5 -8.5zM424 284q8 24 2.5 41.5t-34.5 25.5q-20 6 -41.5 2.5t-43 -8.5t-44 -8.5t-44.5 1.5l-26 -4q26 43 64.5 72
t74 48.5t61 33.5t25.5 29q0 17 -10 32t-38 15q-61 0 -129 -51t-146 -165l-66 -96l83 -58l52 -33q1 0 18 -13t40 -31t46.5 -36.5t38.5 -30.5q16 -12 25 -21.5t18.5 -16t23.5 -10t40 -3.5h5q5 2 17 11t16 13v5q0 22 -19 42t-48 38q-14 9 -29.5 18t-32.5 18q-14 8 -43.5 31
t-74.5 61q27 20 54 22.5t59 -8.5q33 -8 60.5 -4t43.5 38h2z" />
    <glyph glyph-name="FL00C9h" unicode="&#xc9;" horiz-adv-x="487" 
d="M174 644q7 18 22.5 36.5t34 34t37.5 25t33 9.5h25q17 0 21 -3.5t-8 -18.5q-8 -9 -24.5 -25t-35 -31.5t-36.5 -26t-28 -8.5zM422 284q-16 -34 -43.5 -38t-60.5 4q-32 11 -59 8.5t-54 -22.5q45 -38 74.5 -61t43.5 -31q17 -9 32.5 -18t29.5 -18q29 -18 48 -38t19 -42v-5
q-4 -4 -16 -13t-17 -11h-5q-26 0 -40 3.5t-23.5 10t-18.5 16t-25 21.5q-15 12 -38.5 30.5t-46.5 36.5t-40 31t-18 13l-52 33l-83 58l66 96q78 114 146 165t129 51q28 0 38 -15t10 -32q0 -15 -25.5 -29t-61 -33.5t-74 -48.5t-64.5 -72l26 4q22 -5 44.5 -1.5t44 8.5t43 8.5
t41.5 -2.5q29 -8 34.5 -25.5t-2.5 -41.5h-2zM374 445q29 15 48 28t19 29q0 11 -3.5 22t-11.5 19l-3 3q-6 12 -18.5 20.5t-34.5 8.5q-64 0 -134.5 -52t-149.5 -168l-73 -106l17 -12l2 -2l90 -63l55 -34q17 -13 45 -34.5t52 -40.5q8 -6 14.5 -11.5t11.5 -9.5q6 -5 11.5 -10
t13.5 -13q10 -11 21 -18q13 -12 29 -18.5t54 -6.5h7q3 1 8.5 4.5t11.5 8t11.5 9t7.5 6.5v9q0 23 -21 46q-9 16 -25.5 30.5t-37.5 28.5q-13 8 -28 16.5t-35 19.5h1q-14 8 -37.5 25t-55.5 43q24 14 49 14q19 0 45 -9q24 -6 45 -6q20 0 37 8.5t29 31.5h4q3 11 5 19t2 16
q0 21 -12 32l-4 4q-9 21 -39 29v1q-12 4 -31 4q-17 0 -32 -3t-30 -7q-16 -4 -30.5 -7t-28.5 -3h-8q31 35 68 58.5t69 40.5zM170 633l6 -1l11 -11l41 -8h6q12 0 30 11.5t37 26.5t35 31t24 25q11 13 11 21q0 6 -3 9l-9 9q-2 11 -10.5 12.5t-22.5 1.5h-25q-15 0 -35.5 -10.5
t-40.5 -27t-37 -36.5t-24 -39z" />
    <glyph glyph-name="FL00CAh" unicode="&#xca;" horiz-adv-x="487" 
d="M74 607l-7 1q4 22 21 49t38.5 51t43.5 40t37 16h3l12 -1q14 -2 36.5 -11t46.5 -23t46 -31.5t35 -37.5q8 -8 15 -20l-48 -16h-1q-2 -1 -5 -1h-4q-10 0 -23.5 5t-28 13t-29.5 18t-27 19q-11 -14 -24 -28.5t-26 -27t-25.5 -20.5t-21.5 -8l-52 2zM429 -24q-38 0 -54 6.5
t-29 18.5q-11 7 -21 18q-8 8 -13.5 13t-11.5 10q-5 4 -11.5 9.5t-14.5 11.5q-24 19 -52 40.5t-45 34.5l-55 34l-90 63l-2 2l-17 12l73 106q79 116 149.5 168t134.5 52q22 0 34.5 -8.5t18.5 -20.5l3 -3q8 -8 11.5 -19t3.5 -22q0 -16 -19 -29t-48 -28q-32 -17 -69 -40.5
t-68 -58.5h8q14 0 28.5 3t30.5 7q15 4 30 7t32 3q19 0 31 -4v-1q30 -8 39 -29l4 -4q12 -11 12 -32q0 -8 -2 -16t-5 -19h-4q-12 -23 -29 -31.5t-37 -8.5q-21 0 -45 6q-26 9 -45 9q-25 0 -49 -14q32 -26 55.5 -43t37.5 -25h-1q20 -11 35 -19.5t28 -16.5q21 -14 37.5 -28.5
t25.5 -30.5q21 -23 21 -46v-9q-2 -2 -7.5 -6.5t-11.5 -9t-11.5 -8t-8.5 -4.5h-7zM374 660q-9 17 -29 33t-43 28t-45.5 20.5t-35.5 10.5l-12 1q-14 1 -34 -12.5t-39.5 -34t-35 -44.5t-19.5 -43l42 -2q9 0 21 8.5t25.5 21.5t26.5 28.5t23 28.5q13 -10 29.5 -21t33 -20t31 -14
t22.5 -2zM424 284q8 24 2.5 41.5t-34.5 25.5q-20 6 -41.5 2.5t-43 -8.5t-44 -8.5t-44.5 1.5l-26 -4q26 43 64.5 72t74 48.5t61 33.5t25.5 29q0 17 -10 32t-38 15q-61 0 -129 -51t-146 -165l-66 -96l83 -58l52 -33q1 0 18 -13t40 -31t46.5 -36.5t38.5 -30.5q16 -12 25 -21.5
t18.5 -16t23.5 -10t40 -3.5h5q5 2 17 11t16 13v5q0 22 -19 42t-48 38q-14 9 -29.5 18t-32.5 18q-14 8 -43.5 31t-74.5 61q27 20 54 22.5t59 -8.5q33 -8 60.5 -4t43.5 38h2z" />
    <glyph glyph-name="FL00CCh" unicode="&#xcb;" horiz-adv-x="487" 
d="M89 711q0 34 18.5 47t47.5 13q20 0 31 -7t16 -20l4 -3q14 -14 14 -45q0 -9 -3.5 -20.5t-10.5 -22t-16.5 -18t-21.5 -7.5h-7q-20 4 -34 19q-17 10 -27.5 27t-10.5 37zM303 730q0 34 18.5 47t47.5 13q20 0 31 -7t16 -20l4 -3q14 -14 14 -45q0 -9 -3.5 -20.5t-10.5 -22
t-16.5 -18t-21.5 -7.5h-7q-20 4 -34 19q-17 10 -27.5 27t-10.5 37zM429 -24q-38 0 -54 6.5t-29 18.5q-11 7 -21 18q-8 8 -13.5 13t-11.5 10q-5 4 -11.5 9.5t-14.5 11.5q-24 19 -52 40.5t-45 34.5l-55 34l-90 63l-2 2l-17 12l73 106q79 116 149.5 168t134.5 52
q22 0 34.5 -8.5t18.5 -20.5l3 -3q8 -8 11.5 -19t3.5 -22q0 -16 -19 -29t-48 -28q-32 -17 -69 -40.5t-68 -58.5h8q14 0 28.5 3t30.5 7q15 4 30 7t32 3q19 0 31 -4v-1q30 -8 39 -29l4 -4q12 -11 12 -32q0 -8 -2 -16t-5 -19h-4q-12 -23 -29 -31.5t-37 -8.5q-21 0 -45 6
q-26 9 -45 9q-25 0 -49 -14q32 -26 55.5 -43t37.5 -25h-1q20 -11 35 -19.5t28 -16.5q21 -14 37.5 -28.5t25.5 -30.5q21 -23 21 -46v-9q-2 -2 -7.5 -6.5t-11.5 -9t-11.5 -8t-8.5 -4.5h-7zM314 730q0 -21 13.5 -38t34.5 -22q11 -2 20 4t15.5 16t10 21t3.5 19q0 21 -8.5 35
t-33.5 14q-24 0 -39.5 -10.5t-15.5 -38.5zM100 711q0 -21 13.5 -38t34.5 -22q11 -2 20 4t15.5 16t10 21t3.5 19q0 21 -8.5 35t-33.5 14q-24 0 -39.5 -10.5t-15.5 -38.5zM424 284q8 24 2.5 41.5t-34.5 25.5q-20 6 -41.5 2.5t-43 -8.5t-44 -8.5t-44.5 1.5l-26 -4
q26 43 64.5 72t74 48.5t61 33.5t25.5 29q0 17 -10 32t-38 15q-61 0 -129 -51t-146 -165l-66 -96l83 -58l52 -33q1 0 18 -13t40 -31t46.5 -36.5t38.5 -30.5q16 -12 25 -21.5t18.5 -16t23.5 -10t40 -3.5h5q5 2 17 11t16 13v5q0 22 -19 42t-48 38q-14 9 -29.5 18t-32.5 18
q-14 8 -43.5 31t-74.5 61q27 20 54 22.5t59 -8.5q33 -8 60.5 -4t43.5 38h2z" />
    <glyph glyph-name="FL00CEh" unicode="&#xcc;" horiz-adv-x="203" 
d="M162 668q-14 0 -36 14t-43 31q-20 15 -37.5 31t-24.5 26q-12 13 -12 21q0 18 32 18h24q12 0 28.5 -7.5t33.5 -20t33 -29t28 -33.5q9 -11 16 -21t12 -21l-50 -9h-4zM0 64q0 2 0.5 4.5t0.5 4.5v12l60 516q4 24 21.5 35.5t38.5 11.5q14 0 20.5 -6t9.5 -15l6 -5q6 -6 8 -15.5
t2 -20.5v-61q0 -15 -1.5 -45.5t-3.5 -63.5t-4 -60.5t-3 -35.5q0 -2 -0.5 -12.5t-1.5 -20.5q-1 -23 -3 -55t-5.5 -66.5t-8.5 -68.5t-12.5 -61t-18.5 -43.5t-25 -16.5q-2 0 -3.5 0.5t-3.5 0.5q-23 4 -37 19l-3 3q-17 9 -25 25t-8 35v5zM190 698q-7 17 -22.5 35t-33.5 32.5
t-36.5 23.5t-32.5 9h-24q-15 0 -19.5 -3.5t7.5 -17.5q7 -9 23 -24.5t34.5 -29.5t36 -24t27.5 -8zM11 59q0 -21 12.5 -37.5t36.5 -21.5q16 -4 27.5 16.5t19 54.5t12 76t7 80.5t4 68.5t2.5 40q1 8 3 35.5t4 60t3.5 63t1.5 45.5v40q0 7 0.5 16.5t-1 18.5t-6.5 15.5t-16 6.5
q-17 0 -31.5 -9t-17.5 -28l-60 -516q0 -3 -0.5 -12t-0.5 -13z" />
    <glyph glyph-name="FL00CDh" unicode="&#xcd;" horiz-adv-x="196" 
d="M13 701q6 17 21 35t33 32.5t36.5 23.5t31.5 9h23q15 0 19.5 -3.5t-7.5 -17.5q-7 -9 -22.5 -24t-33.5 -29.5t-35 -24.5t-27 -8zM11 59q0 4 0.5 13t0.5 12l60 516q3 19 17.5 28t31.5 9q11 0 16 -6.5t6.5 -15.5t1 -18.5t-0.5 -16.5v-40q0 -15 -1.5 -45.5t-3.5 -63t-4 -60
t-3 -35.5q-1 -10 -2.5 -40t-4 -68.5t-7 -80.5t-12 -76t-19 -54.5t-27.5 -16.5q-24 5 -36.5 21.5t-12.5 37.5zM0 59q0 -19 8 -35t25 -25l3 -3q14 -15 37 -19q2 0 3.5 -0.5t3.5 -0.5q14 0 25 16.5t18.5 43.5t12.5 61t8.5 68.5t5.5 66.5t3 55q1 10 1.5 20.5t0.5 12.5
q1 8 3 35.5t4 60.5t3.5 63.5t1.5 45.5v61q0 11 -2 20.5t-8 15.5l-6 5q-3 9 -9.5 15t-20.5 6q-21 0 -38.5 -11.5t-21.5 -35.5l-60 -516v-12q0 -2 -0.5 -4.5t-0.5 -4.5v-5zM9 690l7 -1l11 -11l39 -7h4q11 0 29 10.5t36 25t33.5 29.5t22.5 24q11 12 11 19q0 6 -3 9l-9 9
q-3 15 -32 15h-23q-14 0 -34.5 -10t-40 -26t-36 -35t-23.5 -38z" />
    <glyph glyph-name="FL00D1h" unicode="&#xce;" horiz-adv-x="196" 
d="M-27 687l-8 2q8 21 27 44.5t42 43.5t46 33.5t39 13.5q1 0 1.5 -0.5t2.5 -0.5h5l12 -3q11 -3 27.5 -12t35 -22t36 -29.5t31.5 -33.5q22 -22 32 -47l-50 -10h-5q-12 0 -32.5 12t-40.5 28l-33 27q-12 -11 -26 -23t-28 -22t-26.5 -16t-21.5 -6h-5l-50 10zM0 64q0 2 0.5 4.5
t0.5 4.5v12l60 516q4 24 21.5 35.5t38.5 11.5q14 0 20.5 -6t9.5 -15l6 -5q6 -6 8 -15.5t2 -20.5v-61q0 -15 -1.5 -45t-3.5 -62.5t-4 -60t-3 -36.5l-0.5 -11.5t-1.5 -22.5q-1 -23 -3 -55t-5.5 -66.5t-8.5 -68.5t-12.5 -61t-18.5 -43.5t-25 -16.5q-2 0 -3.5 0.5t-3.5 0.5
q-23 4 -37 19l-3 3q-17 9 -25 25t-8 35v5zM276 697q-7 18 -24.5 36.5t-38.5 34t-42 27t-34 14.5l-12 3q-14 3 -35.5 -7.5t-43.5 -28.5t-40.5 -39.5t-25.5 -39.5l41 -8q8 -2 21.5 5t28.5 18.5t30.5 25t26.5 24.5q10 -12 25 -25.5t30.5 -24.5t29.5 -18t22 -5zM11 59
q0 -21 12.5 -37.5t36.5 -21.5q16 -4 27.5 16.5t19 54.5t12 76t7 80.5t4 68.5t2.5 40q1 8 3 35.5t4 60t3.5 63t1.5 45.5v40q0 7 0.5 16.5t-1 18.5t-6.5 15.5t-16 6.5q-17 0 -31.5 -9t-17.5 -28l-60 -516q0 -3 -0.5 -12t-0.5 -13z" />
    <glyph glyph-name="FL00CFh" unicode="&#xcf;" horiz-adv-x="196" 
d="M-32 756q0 34 18.5 47t47.5 13q20 0 31 -7t16 -20l4 -3q14 -14 14 -45q0 -9 -3.5 -20.5t-10.5 -22t-16.5 -18t-21.5 -7.5h-7q-20 4 -34 19q-17 10 -27.5 27t-10.5 37zM133 754q0 34 18.5 47t47.5 13q20 0 31 -7t16 -20l4 -3q14 -14 14 -45q0 -9 -3.5 -20.5t-10.5 -22
t-16.5 -18t-21.5 -7.5h-7q-20 4 -34 19q-17 10 -27.5 27t-10.5 37zM0 64q0 2 0.5 4.5t0.5 4.5v12l60 516q4 24 21.5 35.5t38.5 11.5q14 0 20.5 -6t9.5 -15l6 -5q6 -6 8 -15.5t2 -20.5v-61q0 -15 -1.5 -45.5t-3.5 -63.5t-4 -60.5t-3 -35.5q0 -2 -0.5 -12.5t-1.5 -20.5
q-1 -23 -3 -55t-5.5 -66.5t-8.5 -68.5t-12.5 -61t-18.5 -43.5t-25 -16.5q-2 0 -3.5 0.5t-3.5 0.5q-23 4 -37 19l-3 3q-17 9 -25 25t-8 35v5zM144 754q0 -21 13.5 -38t34.5 -22q11 -2 20 4t15.5 16t10 21t3.5 19q0 21 -8.5 35t-33.5 14q-24 0 -39.5 -10.5t-15.5 -38.5z
M-21 756q0 -21 13.5 -38t34.5 -22q11 -2 20 4t15.5 16t10 21t3.5 19q0 21 -8.5 35t-33.5 14q-24 0 -39.5 -10.5t-15.5 -38.5zM11 59q0 -21 12.5 -37.5t36.5 -21.5q16 -4 27.5 16.5t19 54.5t12 76t7 80.5t4 68.5t2.5 40q1 8 3 35.5t4 60t3.5 63t1.5 45.5v40q0 7 0.5 16.5
t-1 18.5t-6.5 15.5t-16 6.5q-17 0 -31.5 -9t-17.5 -28l-60 -516q0 -3 -0.5 -12t-0.5 -13z" />
    <glyph glyph-name="FL00D0h" unicode="&#xd0;" horiz-adv-x="628" 
d="M262 200q-1 -21 -2.5 -46.5t-4.5 -51.5l6 3q25 13 54 29.5t55.5 39t46 51t25.5 65.5q-41 35 -71 60t-50 41l-7 3.5t-5 3.5q-9 5 -17.5 9t-16.5 9q-2 -13 -2 -28t-1 -31q-1 -12 -1.5 -24t-1.5 -23q42 -2 71.5 -7.5t37.5 -13.5q0 -1 0.5 -2t0.5 -2v1q0 -1 0.5 -1.5
t0.5 -2.5l10 -9q1 -2 2 -4.5t1 -5.5q0 -9 -8.5 -21t-20.5 -22.5t-25 -17.5t-23 -7h-9q-3 0 -7 0.5t-6 0.5q-6 4 -32 4zM9 331q16 -10 51 -12.5t80 -3.5l18 181q-2 5 -2 8v7q0 12 1 17q1 4 1 8v10q3 3 8.5 7.5t12 9t12.5 8t9 5.5h14q3 1 10 1h7q10 0 18 -5q16 -5 26 -12.5
t21 -16.5q2 -2 3 -2.5t3 -2.5q7 -7 19 -16q5 -4 11.5 -9.5t14.5 -11.5q17 -14 36.5 -29t36.5 -28t28.5 -21.5t12.5 -8.5l54 -35l93 -64l-2 -3l13 -13l-71 -103q-80 -116 -149.5 -167.5t-132.5 -51.5q-4 0 -7.5 -2.5t-6.5 -4.5q-4 -2 -7 -4t-6 -3q-8 -33 -18 -45.5t-27 -12.5
q-9 0 -12 1q-21 4 -36 19l-3 3q-17 10 -25 25.5t-8 34.5v5q0 2 0.5 4.5t0.5 4.5v12l17 182q-35 -2 -64 -2h-38l-12 12h-6zM298 420q33 -18 156 -126q-6 -49 -33.5 -84t-62.5 -60.5t-71 -43.5t-59 -32q5 42 7.5 81t3.5 68q40 0 44 -4q3 0 9 -0.5t9 -0.5q10 0 23.5 7.5
t24.5 18.5t17.5 22t1.5 19q-5 7 -40.5 10.5t-82.5 5.5q1 15 2 34t2 38.5t2 38t2 33.5q11 -7 22 -13t23 -12zM19 217q11 0 46 1t77 3l-20 -208q0 -3 -0.5 -12t-0.5 -13q0 -21 12.5 -37.5t36.5 -21.5q17 -4 28.5 7.5t19.5 49.5q3 -2 6.5 0t7.5 5t8.5 6t10.5 3q61 0 129 51
t146 165l66 96l-83 58l-52 33q-1 0 -18 13t-40 31t-46.5 36.5t-38.5 30.5q-12 9 -20 16.5t-15 13.5t-15 10.5t-20 7.5q-4 4 -13 4h-7q-5 0 -6 -1h-16q-3 -1 -7.5 -4.5t-9.5 -7t-9.5 -7t-6.5 -5.5v-5q0 -8 -2 -19t3 -19l-20 -194q-49 1 -86.5 2t-43.5 5z" />
    <glyph glyph-name="FL00E2h" unicode="&#xd1;" horiz-adv-x="491" 
d="M60 713q5 17 19 35.5t30.5 35t33 28t26.5 14.5q16 4 29 -2t24.5 -15.5t21.5 -19.5t22 -14q19 23 43 35.5t38 10.5l31 -8q-5 -17 -18.5 -34.5t-30 -32.5t-32.5 -26t-26 -14l-9 -3q-5 -3 -16 2q-14 6 -32 22t-30 31l-13 18q-9 -11 -20 -24t-22.5 -24t-21.5 -18t-16 -5z
M142 36q0 -2 -4 -6t-10 -9.5l-12 -11t-10 -9.5l-2.5 -0.5t-3.5 -0.5q-15 0 -29.5 12.5t-24.5 24.5q4 112 -6 216.5t-30 215.5v6q0 21 12.5 32t29.5 11q14 0 34.5 -13.5t42.5 -32t41.5 -36.5t31.5 -27q10 -8 28 -20.5t35.5 -24t30.5 -19.5t14 -8h19q0 7 1 24t1.5 36t1.5 36
t1 24q-4 30 -15 58.5t-11 60.5q0 24 11.5 36.5t44.5 12.5q24 0 30 -13.5t12 -34.5q10 -38 19 -81.5t15.5 -87.5t10.5 -87t4 -80q0 -28 -11 -44.5t-40 -16.5q-36 0 -69 22.5t-65.5 49t-65.5 49t-70 22.5q0 -4 -2 -11t-2.5 -14t1.5 -13t11 -8v-240zM153 286q0 2 2 8q0 3 1 4
q18 -2 36 -9.5t35 -18.5l18 -14l18 -14q10 -8 19.5 -16t19.5 -16q28 -22 56.5 -38t60.5 -16q34 0 46.5 18.5t12.5 50.5q0 37 -4 80.5t-10.5 88t-15.5 88t-19 81.5q-1 2 -1 4q0 3 -1 5h-1q-3 11 -5.5 20t-8.5 15l-4 4q-5 11 -14.5 17.5t-29.5 6.5q-39 0 -53 -15.5t-14 -44.5
q0 -21 4.5 -38t9.5 -34q4 -12 7 -24t5 -23v-11t-1 -15t-1.5 -16.5t-0.5 -17.5q-1 -12 -1.5 -25t-0.5 -24h-8q-1 0 -13 8t-28 19t-33 22.5t-27 19.5q-7 5 -15.5 12.5t-19.5 17.5q-15 13 -31.5 27.5t-33 26.5t-31.5 20t-26 8q-22 0 -37.5 -14t-15.5 -40v-8q17 -97 27 -187
t10 -184v-31t-1 -31q8 -10 17.5 -19.5t20.5 -16.5q10 -9 20.5 -15t21.5 -6q5 0 10 1q3 3 7.5 7t8.5 8l-1 1q9 8 17 15.5t8 12.5v247l-12 12v6zM55 702l8 -2l10 -10l31 -8h5q6 0 15 5.5t19 14.5t20 20t19 21q9 -11 21 -22t24 -19q18 -13 31 -19q9 -4 14 -4q7 0 9 1l8 3
q10 3 27 15.5t34.5 29.5t32 37t20.5 39l-13 12l1 2q0 1 1 3l-42 11h-7q-15 0 -37 -11.5t-42 -31.5q-15 9 -23 17q-12 12 -26 22.5t-34 10.5q-5 0 -8.5 -0.5t-6.5 -1.5q-11 -3 -29 -15.5t-36 -30t-33 -38t-20 -39.5zM242 800h-1q2 -1 6 -5q-2 2 -3 2.5t-2 2.5z" />
    <glyph glyph-name="FL00D2h" unicode="&#xd2;" 
d="M375 675q-11 0 -28 9.5t-34 23.5q-12 9 -24.5 19t-23.5 20.5t-20 19.5t-14 15q-7 8 -9 13.5t-2 8.5q0 14 12 16t34 2h11q11 0 27 -7.5t33 -20t33.5 -29t28.5 -33.5q21 -23 31 -47l-50 -10h-5zM213 297q0 -11 4.5 -28.5t11.5 -38t16 -40.5t19 -35q11 -11 20 -11
q12 0 29 23.5t32.5 56t26.5 65.5t11 51q0 9 -5 22t-13.5 27t-19 27t-20.5 23q-8 5 -14 5q-9 0 -25 -19t-32.5 -44t-28.5 -49.5t-12 -34.5zM173 102q-8 36 -27.5 61t-41.5 48q-19 20 -35.5 40.5t-23.5 44.5v5v5q0 4 1 7q1 2 1 6v6q7 4 18.5 16t25 26.5t26 29t20.5 24.5
q2 2 4.5 5t6.5 4v1l-2 1q11 12 22.5 32.5t24.5 43.5q14 25 29 51t31.5 46t35.5 33t42 13h10q11 0 23 -3.5t16 -17.5l7 -6q5 -5 6 -11q8 -46 20.5 -90t38.5 -82l-1 1v-1l18 -18q11 -11 21.5 -23t18.5 -25q14 -17 23 -35t9 -35q0 -8 -2 -15.5t-7 -15.5l-217 -334l-13 13l-1 -3
zM404 706q-7 18 -23 36.5t-34.5 34t-37.5 25t-32 9.5q-29 0 -41.5 -1.5t3.5 -20.5q8 -9 24.5 -25t35 -31.5t36 -26t28.5 -8.5zM190 312q0 11 13 36.5t30.5 52t35.5 46.5t27 20q12 0 29 -14.5t32 -35t26 -42t11 -35.5q0 -20 -12 -54.5t-29.5 -68.5t-36.5 -59t-32 -25
q-14 0 -30.5 22t-30.5 51.5t-23.5 59.5t-9.5 46zM299 -32l211 325q13 20 6.5 41t-21.5 41.5t-34 40t-31 36.5q-26 39 -39 83.5t-21 89.5q-3 10 -11.5 12.5t-17.5 2.5h-10q-29 0 -53.5 -25.5t-46 -60.5t-40.5 -71.5t-37 -57.5q-5 -6 -18.5 -21.5t-29 -33t-29 -32.5t-19.5 -19
q0 -4 -1.5 -11t-0.5 -9q8 -25 26 -46t38.5 -42.5t38.5 -46.5t25 -58z" />
    </font>
</defs>
</svg>
