<?xml version="1.0" standalone="no"?>
<!DOCTYPE svg PUBLIC "-//W3C//DTD SVG 1.1//EN" "http://www.w3.org/Graphics/SVG/1.1/DTD/svg11.dtd" >
<svg xmlns="http://www.w3.org/2000/svg" xmlns:xlink="http://www.w3.org/1999/xlink" version="1.1">
<metadata>
Created by FontForge 20170731 at Wed Feb  8 19:51:19 2023
 By Aleksey,,,
Copyright (c) 2016 by deFharo. All rights reserved.
</metadata>
<defs>
<font id="Promenades" horiz-adv-x="716" >
  <font-face 
    font-family="Promenades"
    font-weight="400"
    font-stretch="normal"
    units-per-em="2048"
    panose-1="3 8 0 0 0 0 0 0 0 0"
    ascent="1493"
    descent="-555"
    x-height="743"
    cap-height="1534"
    bbox="-354 -815 2316 2124"
    underline-thickness="139"
    underline-position="-236"
    unicode-range="U+000D-FB06"
  />
<missing-glyph horiz-adv-x="1179" 
d="M317 303v787h469v-318h318v-469h-787zM498 870h114v115h-114v-115zM2 303h315v-317z" />
    <glyph glyph-name="ij" unicode="ij" horiz-adv-x="1019" 
d="M80 911l-80 111l174 123l78 -113zM475 78l-90 -103q-169 153 -251.5 355.5t-82.5 437.5v41l137 -6v-35q0 -425 287 -690zM477 799l178 139q62 -37 111.5 -101t80 -137t51 -159t28.5 -163.5t8 -154.5q0 -138 -31 -270.5t-92 -252t-161.5 -213t-229.5 -142.5l-203 247
l109 86l131 -161q88 47 155 126.5t106 175.5t58 197t19 205q0 356 -146 541l-84 -70zM496 911l-80 111l174 123l78 -113z" />
    <glyph glyph-name="ff" unicode="ff" horiz-adv-x="1384" 
d="M920 942q193 72 444 98l16 -135q-299 -37 -477 -119v-49q0 -184 49.5 -362t145.5 -330l-117 -74q-103 164 -157.5 354t-57.5 386q-62 -40 -109 -84l-94 102q109 94 209 148q0 4 1 11t1 11q-267 -36 -434 -113q0 -8 -1 -24.5t-1 -24.5q0 -183 50.5 -361t146.5 -331
l-117 -74q-207 330 -217 740q-70 -47 -109 -84l-92 102q109 94 209 148q20 199 90 353t207 302l358 -238l-78 -114l-258 172q-128 -157 -172 -410q194 72 443 98q34 139 99 257.5t171 234.5l358 -238l-77 -114l-256 172q-130 -156 -174 -410z" />
    <glyph glyph-name="fi" unicode="fi" horiz-adv-x="1177" 
d="M815 905q-299 -37 -475 -119q0 -8 -1 -24.5t-1 -24.5q0 -183 50.5 -361t146.5 -331l-117 -74q-207 330 -217 740q-70 -47 -109 -84l-92 102q109 94 209 148q20 199 90 353t207 302l358 -238l-78 -114l-258 172q-128 -157 -172 -410q169 63 406 94l145 103l78 -113z
M1210 78l-90 -103q-170 153 -253 355t-83 438v41l140 -6v-35q0 -428 286 -690z" />
    <glyph glyph-name="fl" unicode="fl" horiz-adv-x="1222" 
d="M356 942q193 71 445 98l14 -135q-299 -37 -475 -119q0 -8 -1 -24.5t-1 -24.5q0 -183 50.5 -361t146.5 -331l-117 -74q-207 330 -217 740q-70 -47 -109 -84l-92 102q109 94 209 148q20 199 90 353t207 302l358 -238l-78 -114l-258 172q-128 -157 -172 -410zM1135 51
l-115 -80q-232 357 -232 682q0 281 147.5 515.5t387.5 365.5l63 -123q-216 -114 -338 -316.5t-122 -435.5q0 -307 209 -608z" />
    <glyph glyph-name="ffi" unicode="ffi" horiz-adv-x="1777" 
d="M920 942q190 71 440 98l147 105l80 -113l-172 -121l-43 60l8 -66q-299 -37 -477 -119v-49q0 -184 49.5 -362t145.5 -330l-117 -74q-103 164 -157.5 354t-57.5 386q-62 -40 -109 -84l-94 102q109 94 209 148q0 4 1 11t1 11q-267 -36 -434 -113q0 -8 -1 -24.5t-1 -24.5
q0 -183 50.5 -361t146.5 -331l-117 -74q-207 330 -217 740q-70 -47 -109 -84l-92 102q109 94 209 148q20 199 90 353t207 302l358 -238l-78 -114l-258 172q-128 -157 -172 -410q194 72 443 98q34 139 99 257.5t171 234.5l358 -238l-77 -114l-256 172q-130 -156 -174 -410z
M1810 78l-90 -103q-170 153 -253 355t-83 438v41l140 -6v-35q0 -428 286 -690z" />
    <glyph glyph-name="ffl" unicode="ffl" horiz-adv-x="1781" 
d="M1694 51l-113 -80q-233 359 -233 682q0 281 147 515.5t387 365.5l64 -123q-216 -114 -338.5 -316.5t-122.5 -435.5q0 -302 209 -608zM920 942q193 72 444 98l16 -135q-299 -37 -477 -119v-49q0 -184 49.5 -362t145.5 -330l-117 -74q-103 164 -157.5 354t-57.5 386
q-62 -40 -109 -84l-94 102q109 94 209 148q0 4 1 11t1 11q-267 -36 -434 -113q0 -8 -1 -24.5t-1 -24.5q0 -183 50.5 -361t146.5 -331l-117 -74q-207 330 -217 740q-70 -47 -109 -84l-92 102q109 94 209 148q20 199 90 353t207 302l358 -238l-78 -114l-258 172
q-128 -157 -172 -410q194 72 443 98q34 139 99 257.5t171 234.5l358 -238l-77 -114l-256 172q-130 -156 -174 -410z" />
    <glyph glyph-name="s_t" unicode="st" horiz-adv-x="1318" 
d="M-78 -399l23 137q66 -8 96 -8q92 0 174 35.5t141.5 95.5t103 136.5t65.5 160t22 164.5q0 232 -162 405q-157 -93 -299 -326l-119 74q196 309 434 422q136 -99 210.5 -255.5t74.5 -326.5q0 -137 -50 -268t-135.5 -231t-207 -161t-256.5 -61q-47 0 -115 7zM1192 410
l113 -78q-86 -124 -184 -203t-249 -158q-110 299 -110 627q0 154 24 307q-160 22 -268 29l8 137q136 -8 287 -31q53 207 133 346l121 -67q-72 -128 -117 -301q209 -45 340 -86l-41 -131q-183 52 -325 82q-25 -123 -25 -285q0 -239 53 -426q135 85 240 238z" />
    <glyph glyph-name="c_t" unicode="ct" horiz-adv-x="1388" 
d="M1262 352l112 -78q-86 -124 -183.5 -202.5t-248.5 -157.5q-111 294 -111 627q0 148 25 307q-109 16 -238 26q-150 -70 -275.5 -192.5t-195.5 -263.5q109 -141 251 -222.5t335 -132.5l-35 -135q-231 61 -397 168t-311 303q84 199 240.5 362t363.5 253q134 -8 289 -31
q53 207 133 346l119 -67q-77 -141 -115 -301q208 -46 338 -87l-41 -131q-170 50 -326 82q-22 -120 -22 -284q0 -239 53 -426q132 85 240 237z" />
    <glyph glyph-name="s_p" unicode="sp" horiz-adv-x="1341" 
d="M469 1020q247 -28 470 -146t372 -309q-92 -151 -245 -271.5t-335 -201.5q97 -365 354 -657l-104 -92q-120 135 -215.5 303.5t-151.5 349.5q-82 -178 -236.5 -290t-340.5 -112q-47 0 -115 7l23 137q66 -8 96 -8q92 0 174 35.5t141.5 95.5t103 136.5t65.5 160t22 164.5
q0 232 -162 405q-157 -93 -299 -326l-119 74q196 309 434 422q113 -82 187 -209q20 77 59 156q-111 32 -192 39zM702 231q127 59 242.5 142.5t196.5 183.5q-119 135 -363 238q-90 -160 -90 -385q0 -96 14 -179z" />
    <glyph glyph-name="f_j" unicode="fj" horiz-adv-x="1325" 
d="M356 942q164 60 379 90l160 113l78 -113l-158 -127q-299 -37 -475 -119q0 -8 -1 -24.5t-1 -24.5q0 -183 50.5 -361t146.5 -331l-117 -74q-207 330 -217 740q-70 -47 -109 -84l-92 102q109 94 209 148q20 199 90 353t207 302l358 -238l-78 -114l-258 172
q-128 -157 -172 -410zM782 799l179 139q77 -46 133.5 -130.5t86.5 -187t44 -201t14 -196.5q0 -138 -31 -270.5t-92 -252t-161.5 -213t-229.5 -142.5l-203 247l109 86l131 -161q87 47 154 127t106 175.5t58.5 196.5t19.5 205q0 353 -146 541l-84 -70z" />
    <glyph glyph-name="f_f_j" unicode="ffj" horiz-adv-x="1998" 
d="M1030 942q164 60 379 90l160 113l78 -113l-160 -112l2 -15q-299 -37 -475 -119q0 -8 -1 -24.5t-1 -24.5q0 -183 50 -361.5t146 -330.5l-116 -74q-208 332 -218 740q-67 -45 -108 -84l-92 102q109 94 209 148q20 199 90 353t207 302l358 -238l-78 -114l-258 172
q-128 -157 -172 -410zM356 942q193 71 445 98l14 -135q-299 -37 -475 -119q0 -8 -1 -24.5t-1 -24.5q0 -183 50.5 -361t146.5 -331l-117 -74q-207 330 -217 740q-70 -47 -109 -84l-92 102q109 94 209 148q20 199 90 353t207 302l358 -238l-78 -114l-258 172
q-128 -157 -172 -410zM1456 799l178 139q62 -37 111.5 -101t80 -137t51 -159t28.5 -163.5t8 -154.5q0 -138 -31 -270.5t-92 -252t-161.5 -213t-229.5 -142.5l-203 247l109 86l131 -161q87 47 154 127t106 175.5t58.5 196.5t19.5 205q0 353 -146 541l-84 -70z" />
    <glyph glyph-name=".notdef" horiz-adv-x="1179" 
d="M317 303v787h469v-318h318v-469h-787zM498 870h114v115h-114v-115zM2 303h315v-317z" />
    <glyph glyph-name=".null" horiz-adv-x="0" 
 />
    <glyph glyph-name="nonmarkingreturn" horiz-adv-x="682" 
 />
    <glyph glyph-name="NULL" horiz-adv-x="0" 
 />
    <glyph glyph-name="NULL" horiz-adv-x="0" 
 />
    <glyph glyph-name="CR" unicode="&#xd;" horiz-adv-x="585" 
 />
    <glyph glyph-name="space" unicode=" " horiz-adv-x="585" 
 />
    <glyph glyph-name="exclam" unicode="!" horiz-adv-x="694" 
d="M508 121l-113 -78q-126 183 -195 381.5t-69 392.5q0 214 86 407t266 347l88 -107q-303 -262 -303 -647q0 -349 240 -696zM668 -57l-181 -113l-71 117l180 112z" />
    <glyph glyph-name="quotedbl" unicode="&#x22;" horiz-adv-x="415" 
d="M33 1532h139v-451h-139v451zM238 1532h139v-451h-139v451z" />
    <glyph glyph-name="numbersign" unicode="#" horiz-adv-x="1056" 
d="M430 688l-31 -233q123 24 252 45l23 239q-139 -31 -244 -51zM815 768q-7 -89 -22 -244q139 27 155 31l27 -135q-109 -23 -199 -39q-11 -107 -51 -412l-137 21q41 315 47 368q-36 -7 -124 -22.5t-134 -24.5q-23 -130 -51 -272l-136 31q33 164 39 206q-41 -8 -127 -32
l-36 133q173 45 190 49l33 236q-150 -26 -236 -37l-16 137q118 16 268 43q32 305 35 342l139 -10q-22 -224 -33 -303l240 49q6 88 14 243l140 -8q-6 -105 -15 -207l195 31l18 -137q-96 -13 -223 -37z" />
    <glyph glyph-name="dollar" unicode="$" horiz-adv-x="1142" 
d="M285 188l121 471q-120 53 -191.5 146.5t-71.5 222.5q0 128 55.5 242t162.5 188t241 74q105 0 214.5 -54.5t193.5 -166.5l-113 -82q-52 69 -131.5 117.5t-163.5 48.5q-73 0 -134.5 -32.5t-101.5 -85t-62.5 -117t-22.5 -130.5q0 -155 153 -231l105 461l133 -35
q-89 -429 -254 -1078zM891 1108l-62 -389q104 -26 177 -132.5t73 -234.5q0 -285 -153 -433t-424 -148q-165 0 -308.5 88t-175.5 219l136 31q17 -67 135 -134t211 -67q71 0 133.5 14t119.5 47t98 83.5t65 128t24 175.5q0 67 -33.5 137.5t-99.5 90.5q-43 -235 -111 -430
l-129 49q116 391 189 930z" />
    <glyph glyph-name="percent" unicode="%" horiz-adv-x="1751" 
d="M1370 1530l131 -45l-1169 -1514l-131 45zM670 1141q0 115 -77 183.5t-167 68.5q-100 0 -175 -68.5t-75 -177.5q0 -111 75 -179.5t175 -68.5q56 0 110.5 27t94 84t39.5 131zM809 1153q0 -87 -33.5 -162t-88.5 -125t-125 -78t-144 -28q-65 0 -131.5 26.5t-122.5 74
t-91.5 123t-35.5 163.5q0 87 35 161.5t91 122.5t123.5 74.5t133.5 26.5q99 0 187 -45t145 -133.5t57 -200.5zM1540 348q0 115 -77 183.5t-167 68.5q-100 0 -174.5 -68t-74.5 -178q0 -111 74.5 -179.5t174.5 -68.5q56 0 110.5 27t94 84t39.5 131zM1679 360q0 -87 -33.5 -162
t-88.5 -125t-125 -78t-144 -28q-65 0 -131.5 26.5t-122.5 74t-91.5 123t-35.5 163.5q0 87 35 161.5t91 122.5t123.5 74.5t133.5 26.5q99 0 187 -45t145 -133.5t57 -200.5z" />
    <glyph glyph-name="ampersand" unicode="&#x26;" horiz-adv-x="1327" 
d="M1389 879l22 -136q-151 -22 -281 -28q-5 -79 -17 -154.5t-33 -156.5t-56 -152t-81.5 -133t-112.5 -107t-146 -67q-358 0 -664 198q-4 50 -4 78q0 186 66 365t192 334q-92 22 -206 81q16 74 49 154.5t85 161t114 144t142.5 103.5t164.5 40q17 0 63 -21t84 -42l37 -21
l-62 -123l-137 65q-62 -4 -124 -43.5t-110 -99t-84.5 -122t-58.5 -122.5q83 -29 179.5 -39t248.5 -10l7 -139q-151 0 -230 8q-278 -287 -278 -676q158 -73 275.5 -104t228.5 -31q62 26 112 69t84 98t59 113t39.5 124t22.5 119t12 110q-150 6 -313 37l29 137q171 -37 366 -37
q146 0 316 25z" />
    <glyph glyph-name="quotesingle" unicode="'" horiz-adv-x="200" 
d="M33 1532h139v-451h-139v451z" />
    <glyph glyph-name="parenleft" unicode="(" horiz-adv-x="466" 
d="M369 -121l-127 -59q-205 461 -205 934q0 521 235 962l121 -65q-217 -456 -217 -899q0 -449 193 -873z" />
    <glyph glyph-name="parenright" unicode=")" horiz-adv-x="466" 
d="M82 1657l127 59q205 -461 205 -934q0 -500 -236 -962l-121 65q217 431 217 899q0 451 -192 873z" />
    <glyph glyph-name="asterisk" unicode="*" horiz-adv-x="737" 
d="M614 1462l82 -119l-235 -159l196 -156l-92 -110l-141 112l-8 -139l-144 12l11 158l-170 -131l-93 110l199 152l-184 162l102 102l146 -129l-9 164l144 6l8 -164z" />
    <glyph glyph-name="plus" unicode="+" horiz-adv-x="548" 
d="M37 567v138h172v172h139v-172h172v-138h-172v-172h-139v172h-172z" />
    <glyph glyph-name="comma" unicode="," horiz-adv-x="256" 
d="M-25 -367l-69 119q91 56 127.5 141.5t36.5 198.5q0 16 -4 74l139 10q4 -54 4 -78q0 -326 -234 -465z" />
    <glyph glyph-name="hyphen" unicode="-" horiz-adv-x="548" 
d="M37 408v139h483v-139h-483z" />
    <glyph glyph-name="period" unicode="." horiz-adv-x="204" 
d="M12 0v176h176v-176h-176z" />
    <glyph glyph-name="slash" unicode="/" horiz-adv-x="735" 
d="M578 1530l131 -45l-578 -1673l-131 45z" />
    <glyph glyph-name="zero" unicode="0" horiz-adv-x="1177" 
d="M207 -547h-51v314h196v-48h-145v-81h94v-48h-94v-137zM446 -547h-51v314h197v-48h-146v-81h95v-48h-95v-137zM721 -281h-35v-110h29q69 0 69 57q0 53 -63 53zM635 -547v314h78q55 0 90 -24t35 -77q0 -49 -33.5 -76.5t-81.5 -27.5h-37v-109h-51zM113 768l-19 76
q88 21 178 24q75 97 189 162l37 -69q-78 -43 -129 -97q65 -12 129 -33q103 -42 166 -100q67 81 172 143l34 -69q-95 -55 -155 -129q115 -131 137 -305l-76 -9q-17 135 -104 250q-62 -109 -62 -233q0 -170 119 -338l-63 -47q-134 203 -134 383q0 158 84 291q-54 51 -143 90
q-76 29 -162 35q-73 -113 -73 -254q0 -177 118 -346l-65 -41q-131 195 -131 383q0 134 61 253q-39 -4 -108 -20zM522 1053q-78 0 -144.5 60.5t-66.5 156.5q0 98 66 157.5t147 59.5q87 0 153 -58.5t66 -154.5t-67 -158.5t-154 -62.5zM913 883q-68 0 -126 52t-58 136
t58.5 136.5t127.5 52.5q75 0 134 -52.5t59 -134.5q0 -85 -59 -137.5t-136 -52.5zM526 1409q-57 0 -98 -38.5t-41 -100.5q0 -61 41.5 -99t97.5 -38q50 0 95 37.5t45 97.5q0 64 -45 102.5t-95 38.5zM922 1182q-48 0 -82.5 -30.5t-34.5 -80.5q0 -51 34.5 -82t82.5 -31
q40 0 73 29.5t33 79.5q0 52 -33.5 83.5t-72.5 31.5zM217 115l64 6q-13 -112 -103 -168l-33 53q58 35 72 109zM797 86l65 6q-17 -116 -104 -168l-29 56q59 39 68 106zM420 229l63 4q-14 -112 -102 -165l-31 55q57 38 70 106zM584 -43l61 8q-10 -114 -102 -170l-29 55
q60 35 70 107z" />
    <glyph glyph-name="one" unicode="1" horiz-adv-x="1177" 
d="M207 -547h-51v314h196v-48h-145v-81h94v-48h-94v-137zM446 -547h-51v314h197v-48h-146v-81h95v-48h-95v-137zM721 -281h-35v-110h29q69 0 69 57q0 53 -63 53zM635 -547v314h78q55 0 90 -24t35 -77q0 -49 -33.5 -76.5t-81.5 -27.5h-37v-109h-51zM113 768l-19 76
q88 21 178 24q75 97 189 162l37 -69q-78 -43 -129 -97q65 -12 129 -33q103 -42 166 -100q67 81 172 143l34 -69q-95 -55 -155 -129q115 -131 137 -305l-76 -9q-17 135 -104 250q-62 -109 -62 -233q0 -170 119 -338l-63 -47q-134 203 -134 383q0 158 84 291q-54 51 -143 90
q-76 29 -162 35q-73 -113 -73 -254q0 -177 118 -346l-65 -41q-131 195 -131 383q0 134 61 253q-39 -4 -108 -20zM522 1053q-78 0 -144.5 60.5t-66.5 156.5q0 98 66 157.5t147 59.5q87 0 153 -58.5t66 -154.5t-67 -158.5t-154 -62.5zM913 883q-68 0 -126 52t-58 136
t58.5 136.5t127.5 52.5q75 0 134 -52.5t59 -134.5q0 -85 -59 -137.5t-136 -52.5zM526 1409q-57 0 -98 -38.5t-41 -100.5q0 -61 41.5 -99t97.5 -38q50 0 95 37.5t45 97.5q0 64 -45 102.5t-95 38.5zM922 1182q-48 0 -82.5 -30.5t-34.5 -80.5q0 -51 34.5 -82t82.5 -31
q40 0 73 29.5t33 79.5q0 52 -33.5 83.5t-72.5 31.5zM217 115l64 6q-13 -112 -103 -168l-33 53q58 35 72 109zM797 86l65 6q-17 -116 -104 -168l-29 56q59 39 68 106zM420 229l63 4q-14 -112 -102 -165l-31 55q57 38 70 106zM584 -43l61 8q-10 -114 -102 -170l-29 55
q60 35 70 107z" />
    <glyph glyph-name="two" unicode="2" horiz-adv-x="1177" 
d="M207 -547h-51v314h196v-48h-145v-81h94v-48h-94v-137zM446 -547h-51v314h197v-48h-146v-81h95v-48h-95v-137zM721 -281h-35v-110h29q69 0 69 57q0 53 -63 53zM635 -547v314h78q55 0 90 -24t35 -77q0 -49 -33.5 -76.5t-81.5 -27.5h-37v-109h-51zM113 768l-19 76
q88 21 178 24q75 97 189 162l37 -69q-78 -43 -129 -97q65 -12 129 -33q103 -42 166 -100q67 81 172 143l34 -69q-95 -55 -155 -129q115 -131 137 -305l-76 -9q-17 135 -104 250q-62 -109 -62 -233q0 -170 119 -338l-63 -47q-134 203 -134 383q0 158 84 291q-54 51 -143 90
q-76 29 -162 35q-73 -113 -73 -254q0 -177 118 -346l-65 -41q-131 195 -131 383q0 134 61 253q-39 -4 -108 -20zM522 1053q-78 0 -144.5 60.5t-66.5 156.5q0 98 66 157.5t147 59.5q87 0 153 -58.5t66 -154.5t-67 -158.5t-154 -62.5zM913 883q-68 0 -126 52t-58 136
t58.5 136.5t127.5 52.5q75 0 134 -52.5t59 -134.5q0 -85 -59 -137.5t-136 -52.5zM526 1409q-57 0 -98 -38.5t-41 -100.5q0 -61 41.5 -99t97.5 -38q50 0 95 37.5t45 97.5q0 64 -45 102.5t-95 38.5zM922 1182q-48 0 -82.5 -30.5t-34.5 -80.5q0 -51 34.5 -82t82.5 -31
q40 0 73 29.5t33 79.5q0 52 -33.5 83.5t-72.5 31.5zM217 115l64 6q-13 -112 -103 -168l-33 53q58 35 72 109zM797 86l65 6q-17 -116 -104 -168l-29 56q59 39 68 106zM420 229l63 4q-14 -112 -102 -165l-31 55q57 38 70 106zM584 -43l61 8q-10 -114 -102 -170l-29 55
q60 35 70 107z" />
    <glyph glyph-name="three" unicode="3" horiz-adv-x="1177" 
d="M207 -547h-51v314h196v-48h-145v-81h94v-48h-94v-137zM446 -547h-51v314h197v-48h-146v-81h95v-48h-95v-137zM721 -281h-35v-110h29q69 0 69 57q0 53 -63 53zM635 -547v314h78q55 0 90 -24t35 -77q0 -49 -33.5 -76.5t-81.5 -27.5h-37v-109h-51zM113 768l-19 76
q88 21 178 24q75 97 189 162l37 -69q-78 -43 -129 -97q65 -12 129 -33q103 -42 166 -100q67 81 172 143l34 -69q-95 -55 -155 -129q115 -131 137 -305l-76 -9q-17 135 -104 250q-62 -109 -62 -233q0 -170 119 -338l-63 -47q-134 203 -134 383q0 158 84 291q-54 51 -143 90
q-76 29 -162 35q-73 -113 -73 -254q0 -177 118 -346l-65 -41q-131 195 -131 383q0 134 61 253q-39 -4 -108 -20zM522 1053q-78 0 -144.5 60.5t-66.5 156.5q0 98 66 157.5t147 59.5q87 0 153 -58.5t66 -154.5t-67 -158.5t-154 -62.5zM913 883q-68 0 -126 52t-58 136
t58.5 136.5t127.5 52.5q75 0 134 -52.5t59 -134.5q0 -85 -59 -137.5t-136 -52.5zM526 1409q-57 0 -98 -38.5t-41 -100.5q0 -61 41.5 -99t97.5 -38q50 0 95 37.5t45 97.5q0 64 -45 102.5t-95 38.5zM922 1182q-48 0 -82.5 -30.5t-34.5 -80.5q0 -51 34.5 -82t82.5 -31
q40 0 73 29.5t33 79.5q0 52 -33.5 83.5t-72.5 31.5zM217 115l64 6q-13 -112 -103 -168l-33 53q58 35 72 109zM797 86l65 6q-17 -116 -104 -168l-29 56q59 39 68 106zM420 229l63 4q-14 -112 -102 -165l-31 55q57 38 70 106zM584 -43l61 8q-10 -114 -102 -170l-29 55
q60 35 70 107z" />
    <glyph glyph-name="four" unicode="4" horiz-adv-x="1177" 
d="M207 -547h-51v314h196v-48h-145v-81h94v-48h-94v-137zM446 -547h-51v314h197v-48h-146v-81h95v-48h-95v-137zM721 -281h-35v-110h29q69 0 69 57q0 53 -63 53zM635 -547v314h78q55 0 90 -24t35 -77q0 -49 -33.5 -76.5t-81.5 -27.5h-37v-109h-51zM113 768l-19 76
q88 21 178 24q75 97 189 162l37 -69q-78 -43 -129 -97q65 -12 129 -33q103 -42 166 -100q67 81 172 143l34 -69q-95 -55 -155 -129q115 -131 137 -305l-76 -9q-17 135 -104 250q-62 -109 -62 -233q0 -170 119 -338l-63 -47q-134 203 -134 383q0 158 84 291q-54 51 -143 90
q-76 29 -162 35q-73 -113 -73 -254q0 -177 118 -346l-65 -41q-131 195 -131 383q0 134 61 253q-39 -4 -108 -20zM522 1053q-78 0 -144.5 60.5t-66.5 156.5q0 98 66 157.5t147 59.5q87 0 153 -58.5t66 -154.5t-67 -158.5t-154 -62.5zM913 883q-68 0 -126 52t-58 136
t58.5 136.5t127.5 52.5q75 0 134 -52.5t59 -134.5q0 -85 -59 -137.5t-136 -52.5zM526 1409q-57 0 -98 -38.5t-41 -100.5q0 -61 41.5 -99t97.5 -38q50 0 95 37.5t45 97.5q0 64 -45 102.5t-95 38.5zM922 1182q-48 0 -82.5 -30.5t-34.5 -80.5q0 -51 34.5 -82t82.5 -31
q40 0 73 29.5t33 79.5q0 52 -33.5 83.5t-72.5 31.5zM217 115l64 6q-13 -112 -103 -168l-33 53q58 35 72 109zM797 86l65 6q-17 -116 -104 -168l-29 56q59 39 68 106zM420 229l63 4q-14 -112 -102 -165l-31 55q57 38 70 106zM584 -43l61 8q-10 -114 -102 -170l-29 55
q60 35 70 107z" />
    <glyph glyph-name="five" unicode="5" horiz-adv-x="1177" 
d="M207 -547h-51v314h196v-48h-145v-81h94v-48h-94v-137zM446 -547h-51v314h197v-48h-146v-81h95v-48h-95v-137zM721 -281h-35v-110h29q69 0 69 57q0 53 -63 53zM635 -547v314h78q55 0 90 -24t35 -77q0 -49 -33.5 -76.5t-81.5 -27.5h-37v-109h-51zM113 768l-19 76
q88 21 178 24q75 97 189 162l37 -69q-78 -43 -129 -97q65 -12 129 -33q103 -42 166 -100q67 81 172 143l34 -69q-95 -55 -155 -129q115 -131 137 -305l-76 -9q-17 135 -104 250q-62 -109 -62 -233q0 -170 119 -338l-63 -47q-134 203 -134 383q0 158 84 291q-54 51 -143 90
q-76 29 -162 35q-73 -113 -73 -254q0 -177 118 -346l-65 -41q-131 195 -131 383q0 134 61 253q-39 -4 -108 -20zM522 1053q-78 0 -144.5 60.5t-66.5 156.5q0 98 66 157.5t147 59.5q87 0 153 -58.5t66 -154.5t-67 -158.5t-154 -62.5zM913 883q-68 0 -126 52t-58 136
t58.5 136.5t127.5 52.5q75 0 134 -52.5t59 -134.5q0 -85 -59 -137.5t-136 -52.5zM526 1409q-57 0 -98 -38.5t-41 -100.5q0 -61 41.5 -99t97.5 -38q50 0 95 37.5t45 97.5q0 64 -45 102.5t-95 38.5zM922 1182q-48 0 -82.5 -30.5t-34.5 -80.5q0 -51 34.5 -82t82.5 -31
q40 0 73 29.5t33 79.5q0 52 -33.5 83.5t-72.5 31.5zM217 115l64 6q-13 -112 -103 -168l-33 53q58 35 72 109zM797 86l65 6q-17 -116 -104 -168l-29 56q59 39 68 106zM420 229l63 4q-14 -112 -102 -165l-31 55q57 38 70 106zM584 -43l61 8q-10 -114 -102 -170l-29 55
q60 35 70 107z" />
    <glyph glyph-name="six" unicode="6" horiz-adv-x="1177" 
d="M207 -547h-51v314h196v-48h-145v-81h94v-48h-94v-137zM446 -547h-51v314h197v-48h-146v-81h95v-48h-95v-137zM721 -281h-35v-110h29q69 0 69 57q0 53 -63 53zM635 -547v314h78q55 0 90 -24t35 -77q0 -49 -33.5 -76.5t-81.5 -27.5h-37v-109h-51zM113 768l-19 76
q88 21 178 24q75 97 189 162l37 -69q-78 -43 -129 -97q65 -12 129 -33q103 -42 166 -100q67 81 172 143l34 -69q-95 -55 -155 -129q115 -131 137 -305l-76 -9q-17 135 -104 250q-62 -109 -62 -233q0 -170 119 -338l-63 -47q-134 203 -134 383q0 158 84 291q-54 51 -143 90
q-76 29 -162 35q-73 -113 -73 -254q0 -177 118 -346l-65 -41q-131 195 -131 383q0 134 61 253q-39 -4 -108 -20zM522 1053q-78 0 -144.5 60.5t-66.5 156.5q0 98 66 157.5t147 59.5q87 0 153 -58.5t66 -154.5t-67 -158.5t-154 -62.5zM913 883q-68 0 -126 52t-58 136
t58.5 136.5t127.5 52.5q75 0 134 -52.5t59 -134.5q0 -85 -59 -137.5t-136 -52.5zM526 1409q-57 0 -98 -38.5t-41 -100.5q0 -61 41.5 -99t97.5 -38q50 0 95 37.5t45 97.5q0 64 -45 102.5t-95 38.5zM922 1182q-48 0 -82.5 -30.5t-34.5 -80.5q0 -51 34.5 -82t82.5 -31
q40 0 73 29.5t33 79.5q0 52 -33.5 83.5t-72.5 31.5zM217 115l64 6q-13 -112 -103 -168l-33 53q58 35 72 109zM797 86l65 6q-17 -116 -104 -168l-29 56q59 39 68 106zM420 229l63 4q-14 -112 -102 -165l-31 55q57 38 70 106zM584 -43l61 8q-10 -114 -102 -170l-29 55
q60 35 70 107z" />
    <glyph glyph-name="seven" unicode="7" horiz-adv-x="1177" 
d="M207 -547h-51v314h196v-48h-145v-81h94v-48h-94v-137zM446 -547h-51v314h197v-48h-146v-81h95v-48h-95v-137zM721 -281h-35v-110h29q69 0 69 57q0 53 -63 53zM635 -547v314h78q55 0 90 -24t35 -77q0 -49 -33.5 -76.5t-81.5 -27.5h-37v-109h-51zM113 768l-19 76
q88 21 178 24q75 97 189 162l37 -69q-78 -43 -129 -97q65 -12 129 -33q103 -42 166 -100q67 81 172 143l34 -69q-95 -55 -155 -129q115 -131 137 -305l-76 -9q-17 135 -104 250q-62 -109 -62 -233q0 -170 119 -338l-63 -47q-134 203 -134 383q0 158 84 291q-54 51 -143 90
q-76 29 -162 35q-73 -113 -73 -254q0 -177 118 -346l-65 -41q-131 195 -131 383q0 134 61 253q-39 -4 -108 -20zM522 1053q-78 0 -144.5 60.5t-66.5 156.5q0 98 66 157.5t147 59.5q87 0 153 -58.5t66 -154.5t-67 -158.5t-154 -62.5zM913 883q-68 0 -126 52t-58 136
t58.5 136.5t127.5 52.5q75 0 134 -52.5t59 -134.5q0 -85 -59 -137.5t-136 -52.5zM526 1409q-57 0 -98 -38.5t-41 -100.5q0 -61 41.5 -99t97.5 -38q50 0 95 37.5t45 97.5q0 64 -45 102.5t-95 38.5zM922 1182q-48 0 -82.5 -30.5t-34.5 -80.5q0 -51 34.5 -82t82.5 -31
q40 0 73 29.5t33 79.5q0 52 -33.5 83.5t-72.5 31.5zM217 115l64 6q-13 -112 -103 -168l-33 53q58 35 72 109zM797 86l65 6q-17 -116 -104 -168l-29 56q59 39 68 106zM420 229l63 4q-14 -112 -102 -165l-31 55q57 38 70 106zM584 -43l61 8q-10 -114 -102 -170l-29 55
q60 35 70 107z" />
    <glyph glyph-name="eight" unicode="8" horiz-adv-x="1177" 
d="M207 -547h-51v314h196v-48h-145v-81h94v-48h-94v-137zM446 -547h-51v314h197v-48h-146v-81h95v-48h-95v-137zM721 -281h-35v-110h29q69 0 69 57q0 53 -63 53zM635 -547v314h78q55 0 90 -24t35 -77q0 -49 -33.5 -76.5t-81.5 -27.5h-37v-109h-51zM113 768l-19 76
q88 21 178 24q75 97 189 162l37 -69q-78 -43 -129 -97q65 -12 129 -33q103 -42 166 -100q67 81 172 143l34 -69q-95 -55 -155 -129q115 -131 137 -305l-76 -9q-17 135 -104 250q-62 -109 -62 -233q0 -170 119 -338l-63 -47q-134 203 -134 383q0 158 84 291q-54 51 -143 90
q-76 29 -162 35q-73 -113 -73 -254q0 -177 118 -346l-65 -41q-131 195 -131 383q0 134 61 253q-39 -4 -108 -20zM522 1053q-78 0 -144.5 60.5t-66.5 156.5q0 98 66 157.5t147 59.5q87 0 153 -58.5t66 -154.5t-67 -158.5t-154 -62.5zM913 883q-68 0 -126 52t-58 136
t58.5 136.5t127.5 52.5q75 0 134 -52.5t59 -134.5q0 -85 -59 -137.5t-136 -52.5zM526 1409q-57 0 -98 -38.5t-41 -100.5q0 -61 41.5 -99t97.5 -38q50 0 95 37.5t45 97.5q0 64 -45 102.5t-95 38.5zM922 1182q-48 0 -82.5 -30.5t-34.5 -80.5q0 -51 34.5 -82t82.5 -31
q40 0 73 29.5t33 79.5q0 52 -33.5 83.5t-72.5 31.5zM217 115l64 6q-13 -112 -103 -168l-33 53q58 35 72 109zM797 86l65 6q-17 -116 -104 -168l-29 56q59 39 68 106zM420 229l63 4q-14 -112 -102 -165l-31 55q57 38 70 106zM584 -43l61 8q-10 -114 -102 -170l-29 55
q60 35 70 107z" />
    <glyph glyph-name="nine" unicode="9" horiz-adv-x="1177" 
d="M207 -547h-51v314h196v-48h-145v-81h94v-48h-94v-137zM446 -547h-51v314h197v-48h-146v-81h95v-48h-95v-137zM721 -281h-35v-110h29q69 0 69 57q0 53 -63 53zM635 -547v314h78q55 0 90 -24t35 -77q0 -49 -33.5 -76.5t-81.5 -27.5h-37v-109h-51zM113 768l-19 76
q88 21 178 24q75 97 189 162l37 -69q-78 -43 -129 -97q65 -12 129 -33q103 -42 166 -100q67 81 172 143l34 -69q-95 -55 -155 -129q115 -131 137 -305l-76 -9q-17 135 -104 250q-62 -109 -62 -233q0 -170 119 -338l-63 -47q-134 203 -134 383q0 158 84 291q-54 51 -143 90
q-76 29 -162 35q-73 -113 -73 -254q0 -177 118 -346l-65 -41q-131 195 -131 383q0 134 61 253q-39 -4 -108 -20zM522 1053q-78 0 -144.5 60.5t-66.5 156.5q0 98 66 157.5t147 59.5q87 0 153 -58.5t66 -154.5t-67 -158.5t-154 -62.5zM913 883q-68 0 -126 52t-58 136
t58.5 136.5t127.5 52.5q75 0 134 -52.5t59 -134.5q0 -85 -59 -137.5t-136 -52.5zM526 1409q-57 0 -98 -38.5t-41 -100.5q0 -61 41.5 -99t97.5 -38q50 0 95 37.5t45 97.5q0 64 -45 102.5t-95 38.5zM922 1182q-48 0 -82.5 -30.5t-34.5 -80.5q0 -51 34.5 -82t82.5 -31
q40 0 73 29.5t33 79.5q0 52 -33.5 83.5t-72.5 31.5zM217 115l64 6q-13 -112 -103 -168l-33 53q58 35 72 109zM797 86l65 6q-17 -116 -104 -168l-29 56q59 39 68 106zM420 229l63 4q-14 -112 -102 -165l-31 55q57 38 70 106zM584 -43l61 8q-10 -114 -102 -170l-29 55
q60 35 70 107z" />
    <glyph glyph-name="colon" unicode=":" horiz-adv-x="204" 
d="M12 0v176h176v-176h-176zM12 393v176h176v-176h-176z" />
    <glyph glyph-name="semicolon" unicode=";" horiz-adv-x="256" 
d="M-25 -367l-69 119q91 56 127.5 141.5t36.5 198.5q0 16 -4 74l139 10q4 -54 4 -78q0 -326 -234 -465zM45 393v176h176v-176h-176z" />
    <glyph glyph-name="less" unicode="&#x3c;" horiz-adv-x="577" 
d="M557 231l-37 -133q-138 36 -259 118t-261 210q126 141 243.5 239.5t252.5 151.5l51 -127q-168 -70 -352 -254q213 -167 362 -205z" />
    <glyph glyph-name="equal" unicode="=" horiz-adv-x="548" 
d="M37 692v137h483v-137h-483zM37 426v139h483v-139h-483z" />
    <glyph glyph-name="greater" unicode="&#x3e;" horiz-adv-x="577" 
d="M53 98l-37 133q151 38 363 205q-184 184 -352 254l51 127q135 -53 252 -151t243 -240q-140 -128 -261 -210t-259 -118z" />
    <glyph glyph-name="question" unicode="?" horiz-adv-x="1132" 
d="M643 98l37 -133l-205 -55l-37 135zM516 1534q235 -55 389.5 -194t198.5 -367q-43 -125 -108 -220t-144.5 -154t-159 -93.5t-172.5 -54.5l66 -279l-135 -27l-150 596l133 35l51 -192q166 35 297 137t181 254q-44 166 -154.5 266t-284.5 148q-135 -65 -232.5 -186.5
t-139.5 -270.5l-134 41q55 190 186.5 341t311.5 220z" />
    <glyph glyph-name="at" unicode="@" horiz-adv-x="1787" 
d="M0 276q-4 70 -4 89q0 198 63.5 376.5t178 315t288.5 217t381 80.5q120 0 236.5 -26.5t221 -82.5t184 -134t126.5 -188.5t47 -238.5q0 -219 -104.5 -413t-290.5 -380q-3 0 -124.5 42.5t-131.5 46.5q-84 -23 -153 -23q-175 0 -307.5 128t-168.5 314q25 143 112.5 253
t213.5 167.5t270 57.5h121v-783l131 -45q295 306 295 633q0 126 -58 229.5t-154.5 169t-216 101t-247.5 35.5q-146 0 -271 -44t-216.5 -123t-156.5 -186.5t-97.5 -236t-32.5 -269.5q0 -28 4 -82h-139zM1022 735q-170 -13 -284 -95t-154 -241q51 -154 137.5 -229.5
t196.5 -75.5q52 0 104 15v626z" />
    <glyph glyph-name="A" unicode="A" horiz-adv-x="899" 
d="M147 440q243 41 469 150q-8 156 -8 629q-101 35 -250 116q-167 -408 -211 -895zM743 1319q-2 -82 -2 -209q0 -187 4 -309.5t18 -278t47 -297.5t85 -282l-127 -56q-106 243 -139 557q-234 -106 -490 -145q0 -250 41 -362l-129 -46q-51 135 -51 359q0 183 29 380t76 366
t94 300t94 234q254 -148 450 -211z" />
    <glyph glyph-name="B" unicode="B" horiz-adv-x="876" 
d="M815 856q-44 -53 -99 -102t-88 -72l-34 -23q102 -57 167.5 -148t108.5 -245q-60 -104 -136.5 -192t-156 -151.5t-173 -115.5t-178.5 -86.5t-181 -62.5l-39 133q145 43 274.5 108t248.5 166t192 222q-28 105 -93.5 173t-170.5 113q-134 -71 -297 -100q0 -245 55 -506
l-135 -33q-57 300 -57 574q0 533 167 1032q231 -66 378.5 -231t246.5 -453zM160 612q125 27 240 91.5t259 191.5q-48 148 -148.5 274.5t-231.5 190.5q-104 -374 -119 -748z" />
    <glyph glyph-name="C" unicode="C" horiz-adv-x="720" 
d="M584 276l125 -57q-73 -152 -139.5 -252.5t-170.5 -195.5q-14 14 -37 40t-84 114t-111.5 184t-99.5 244.5t-67 301.5q23 123 59.5 237.5t77 200t84.5 160t83.5 124.5t71 86t50.5 53l18 16q83 -62 137 -126.5t105 -152.5l-123 -65q-48 88 -110 147q-10 -11 -26.5 -32
t-62.5 -90t-84.5 -143t-79.5 -187.5t-61 -227.5q11 -99 42 -203.5t67.5 -183t71.5 -143.5t58 -99l23 -34q109 129 183 284z" />
    <glyph glyph-name="D" unicode="D" horiz-adv-x="862" 
d="M199 37q308 181 487 485q-50 157 -118 291.5t-134 225.5t-158 194q-100 -397 -100 -821q0 -173 23 -375zM358 1487l-34 -98q123 -133 206.5 -245.5t163.5 -274.5t142 -367q-134 -218 -269 -354t-348 -259l17 -79l-138 -29q-59 307 -59 633q0 607 190 1122z" />
    <glyph glyph-name="E" unicode="E" horiz-adv-x="821" 
d="M791 23l22 -138q-73 -12 -149 -12q-358 0 -662 199q0 245 58 425.5t196 350.5q-82 19 -207 82q18 74 49.5 151.5t81.5 159t110 145t141.5 104t168.5 40.5v-139q-66 0 -131 -39t-114.5 -99.5t-85.5 -124t-56 -122.5q172 -54 432 -54v-137q-41 -2 -82 -2q-36 0 -72 2.5
t-55 4.5l-18 3q-137 -139 -209 -311t-72 -365q107 -63 247.5 -99t274.5 -36q57 0 132 11z" />
    <glyph glyph-name="F" unicode="F" horiz-adv-x="763" 
d="M899 1532l8 -137q-435 -27 -651 -176q-51 -202 -70 -375l234 22l14 -139l-264 -22q-12 -153 -12 -306q0 -322 57 -596l-137 -28q-60 309 -60 633q0 605 191 1122l129 -49l-27 -72q229 101 588 123z" />
    <glyph glyph-name="G" unicode="G" horiz-adv-x="927" 
d="M412 709h469q0 -576 -404 -899q-199 194 -317.5 432.5t-118.5 492.5q0 88 15.5 177t46.5 176t81.5 163.5t115.5 136.5t153.5 97.5t191.5 44.5q33 2 105 2v-395h-136v252q-111 -11 -197.5 -74.5t-137 -158.5t-76 -203t-25.5 -220q0 -186 78.5 -372.5t226.5 -358.5
q110 119 178 265.5t78 301.5h-327v140z" />
    <glyph glyph-name="H" unicode="H" horiz-adv-x="890" 
d="M893 793l4 -138q-116 -4 -176 -10q-8 -109 -8 -242q0 -317 55 -598l-135 -28q-60 300 -60 622q0 59 9 230q-266 -38 -422 -133q0 -425 53 -691l-135 -28q-60 303 -60 629q0 108 2 163q29 531 189 963l129 -49q-138 -378 -170 -828q175 84 424 115q39 404 170 762l129 -49
q-115 -319 -158 -699q79 6 160 9z" />
    <glyph glyph-name="I" unicode="I" horiz-adv-x="368" 
d="M215 -193l-137 -28q-60 312 -60 635q0 606 191 1120l129 -49q-180 -488 -180 -1071q0 -325 57 -607z" />
    <glyph glyph-name="J" unicode="J" horiz-adv-x="931" 
d="M0 133l96 100l291 -280q91 118 152 244.5t94 262t46 267t13 291.5v364q-88 13 -190 13q-103 0 -205 -21l-29 135q109 23 234 23q146 0 321 -33v-557q0 -361 -97 -649.5t-329 -538.5z" />
    <glyph glyph-name="K" unicode="K" horiz-adv-x="894" 
d="M406 1012q178 -182 277 -352.5t141 -363t46 -468.5h-137q-2 183 -20.5 316t-66 264.5t-129.5 250.5t-212 252q12 -153 12 -307q0 -329 -59 -627l-133 29q55 287 55 604q0 585 -180 1073l129 50q109 -293 156 -646l428 429l98 -99z" />
    <glyph glyph-name="L" unicode="L" horiz-adv-x="980" 
d="M891 342l98 -96q-274 -277 -719 -277q-55 0 -157 4q-52 190 -80.5 360t-28.5 367q0 250 56 468.5t178 363.5l106 -88q-107 -124 -155 -324.5t-48 -427.5q0 -153 18.5 -284t59.5 -299q222 0 383.5 50.5t288.5 182.5z" />
    <glyph glyph-name="M" unicode="M" horiz-adv-x="980" 
d="M139 1505l154 39q64 -426 164 -723q61 133 130.5 343t106.5 364l137 -23q-34 -222 -34 -477q0 -289 45.5 -575.5t132.5 -526.5l-131 -47q-92 250 -137.5 540t-47.5 580q-96 -300 -223 -512q-82 196 -124.5 335.5t-75.5 314.5q-35 -344 -35 -736q0 -257 16 -548l-137 -9
q-17 313 -17 555q0 541 76 1106z" />
    <glyph glyph-name="N" unicode="N" horiz-adv-x="870" 
d="M686 -137l-129 -49q-107 262 -173 553.5t-114 666.5q-70 -280 -100.5 -554t-30.5 -593h-139q0 433 58.5 797.5t177.5 824.5l122 19q55 -622 197 -1237q24 643 166 1247l135 -33q-94 -405 -135 -819q-31 -297 -35 -823z" />
    <glyph glyph-name="O" unicode="O" horiz-adv-x="999" 
d="M416 -57q65 0 121 43t94.5 112t69 160t49 183t30.5 185.5t16.5 162t4.5 118.5q0 76 -7.5 142.5t-26 131.5t-47 111t-74.5 74.5t-105 28.5q-75 0 -139 -68.5t-107 -177t-74 -243.5t-45 -266t-14 -247q0 -64 6 -122t23.5 -120t44.5 -106.5t73.5 -73t106.5 -28.5zM23 399
q0 70 5.5 155.5t21.5 197t40 217t65 209.5t93 181t128 125t165 48q88 0 157.5 -36.5t113.5 -96.5t73 -142.5t41 -168.5t12 -181q0 -72 -6 -156.5t-22 -193.5t-40.5 -211t-66.5 -202.5t-95.5 -174.5t-131 -120t-168.5 -46q-75 0 -136 25.5t-102 71.5t-70.5 103t-46 126.5
t-23.5 135t-7 134.5z" />
    <glyph glyph-name="P" unicode="P" horiz-adv-x="796" 
d="M184 535q142 26 280.5 130.5t203.5 233.5q-61 139 -177 240t-264 147q-49 -267 -49 -553q0 -99 6 -198zM274 1495l-18 -74q182 -53 327.5 -182t227.5 -338q-47 -112 -118.5 -204t-154.5 -152t-169 -97t-172 -51q19 -263 108 -583l-131 -41q-133 459 -133 952
q0 436 100 807z" />
    <glyph glyph-name="Q" unicode="Q" horiz-adv-x="1001" 
d="M25 399q0 70 5.5 155.5t21.5 197t40 217t65 209.5t93 181t128 125t165 48q88 0 157.5 -36.5t113.5 -96.5t73 -142.5t41 -168.5t12 -181q0 -94 -11 -207t-35 -250.5t-74 -269t-118 -219.5q80 -146 80 -244q-52 -87 -142 -166.5t-177 -130.5t-170 -82l-49 130
q117 43 227 118.5t166 163.5q-17 51 -43 109q-85 -56 -184 -56q-75 0 -136 25.5t-102 71.5t-70.5 103t-46 126.5t-23.5 135t-7 134.5zM418 -57q55 0 108 32q-69 101 -170 199l95 100q91 -75 174 -190q49 80 86.5 201.5t56 242.5t27 217t8.5 162q0 76 -7.5 142.5t-26 131.5
t-47 111t-74.5 74.5t-105 28.5q-75 0 -139 -68.5t-107 -177t-74 -243.5t-45 -266t-14 -247q0 -64 6 -122t23.5 -120t44.5 -106.5t73.5 -73t106.5 -28.5z" />
    <glyph glyph-name="R" unicode="R" horiz-adv-x="925" 
d="M180 537q145 12 293.5 101t224.5 212q-47 146 -151.5 257.5t-247.5 172.5q-103 -351 -119 -743zM530 512l431 -725l-117 -74l-438 740q-112 -48 -228 -54q0 -336 51 -592l-137 -28q-53 292 -53 602q0 299 51 596t148 557l129 -49l-27 -74q179 -71 312 -213.5t190 -357.5
q-70 -124 -146 -200t-166 -128z" />
    <glyph glyph-name="S" unicode="S" horiz-adv-x="815" 
d="M86 -246l-8 137q89 7 171.5 27.5t162.5 57t144 98t99 141.5l-637 520q53 147 101.5 250.5t118 206.5t162.5 186.5t218 157.5l70 -119q-192 -113 -306 -261.5t-202 -375.5l639 -522q-31 -119 -105.5 -214.5t-176 -155.5t-215.5 -93.5t-236 -40.5z" />
    <glyph glyph-name="T" unicode="T" horiz-adv-x="1024" 
d="M1075 1268l-547 -45q-100 -391 -100 -815q0 -318 57 -603l-135 -26q-59 307 -59 627q0 401 92 806l-420 -32v137l457 37q30 99 61 178l129 -47l-43 -123l496 43z" />
    <glyph glyph-name="U" unicode="U" horiz-adv-x="854" 
d="M649 1538l135 -27q-52 -285 -71 -790q-8 -219 -8 -492q0 -124 4 -374q-204 -15 -318 -15q-111 0 -325 21q-5 5 -5 147q-2 76 -2 228q0 794 80 1296l135 -21q-75 -514 -75 -1278q0 -165 2 -247q120 -9 221 -9q24 0 147 5q-2 84 -2 256q0 410 16 713t66 587z" />
    <glyph glyph-name="V" unicode="V" horiz-adv-x="942" 
d="M786 1561l125 -56q-50 -118 -80 -243.5t-45 -302t-19.5 -355t-4.5 -477.5q-255 -85 -451 -211q-133 283 -213 625t-80 655q0 220 52 358l129 -45q-43 -117 -43 -309q0 -255 68 -566t153 -525q106 61 250 116q0 221 2 348.5t10.5 285.5t25 263.5t46.5 220t75 218.5z" />
    <glyph glyph-name="W" unicode="W" horiz-adv-x="1492" 
d="M1368 1559l129 -52q-87 -212 -114 -447t-27 -548v-383q-73 -24 -155 -62t-136 -68t-145 -83q-127 299 -193 606q0 -21 -2 -63.5t-2 -65.5q0 -118 12 -256l-440 -215q-127 252 -202 605.5t-75 670.5q0 213 48 358l131 -45q-41 -119 -41 -311q0 -254 64 -564.5t145 -524.5
l225 110q-6 183 -6 185q0 407 61 811l137 -11q0 -247 57.5 -551.5t147.5 -541.5q129 72 232 114v240q0 173 3.5 284t17 261.5t45.5 285t83 261.5z" />
    <glyph glyph-name="X" unicode="X" horiz-adv-x="1028" 
d="M1028 1534l39 -131q-130 -41 -234 -124t-170 -191t-100.5 -233.5t-34.5 -258.5q0 -362 258 -688l-106 -88q-180 225 -248 469q-77 -178 -219 -306.5t-326 -185.5l-39 131q131 40 235 123t169.5 191.5t100 234t34.5 258.5q0 359 -260 688l109 88q179 -227 247 -469
q75 177 218 306t327 186z" />
    <glyph glyph-name="Y" unicode="Y" horiz-adv-x="1130" 
d="M0 1374l66 121q171 -96 300.5 -241t194.5 -322q67 180 197.5 321.5t308.5 237.5l63 -123q-229 -125 -356.5 -319t-140.5 -449q0 -472 -246 -856l-115 76q224 361 224 700q0 268 -127.5 493.5t-368.5 360.5z" />
    <glyph glyph-name="Z" unicode="Z" horiz-adv-x="976" 
d="M864 -51l27 -133q-173 -37 -359 -37q-264 0 -532 71q90 398 284.5 785.5t452.5 679.5q-210 78 -454 78q-99 0 -191 -15l-20 138q109 16 211 16q201 0 365 -40.5t325 -135.5q-284 -278 -493 -646t-312 -755q179 -37 371 -37q156 0 325 31z" />
    <glyph glyph-name="bracketleft" unicode="[" horiz-adv-x="462" 
d="M420 -41v-139h-402q60 466 60 928q0 434 -55 913q0 2 -1.5 6t-1.5 6h400v-139h-246q41 -351 41 -770q0 -410 -41 -805h246z" />
    <glyph glyph-name="backslash" unicode="\" horiz-adv-x="735" 
d="M0 1485l131 45l578 -1673l-131 -45z" />
    <glyph glyph-name="bracketright" unicode="]" horiz-adv-x="462" 
d="M18 1534v139h402q-60 -443 -60 -925q0 -254 19 -533q12 -153 37 -383q0 -2 1 -5.5t1 -6.5h-400v139h244q-41 380 -41 770q0 410 41 805h-244z" />
    <glyph glyph-name="asciicircum" unicode="^" horiz-adv-x="768" 
d="M707 885l-129 -56l-193 443l-223 -453l-125 62l356 716z" />
    <glyph glyph-name="underscore" unicode="_" horiz-adv-x="841" 
d="M37 -168v139h756v-139h-756z" />
    <glyph glyph-name="grave" unicode="`" horiz-adv-x="395" 
d="M383 1174l-80 -113l-303 213l78 115z" />
    <glyph glyph-name="a" unicode="a" horiz-adv-x="835" 
d="M76 987q164 -40 297.5 -143t219 -243.5t135.5 -299.5t63 -326l-140 -10q-3 57 -16 129q-224 -94 -416 -94q-86 0 -219 18q29 241 98 417t185 306q-106 80 -238 111zM154 139q25 -4 63 -4q97 0 186.5 23.5t200.5 70.5q-69 247 -221 418q-176 -199 -229 -508z" />
    <glyph glyph-name="b" unicode="b" horiz-adv-x="946" 
d="M610 207q144 223 166 399q-133 43 -309 43q-124 0 -238 -18q141 -298 381 -424zM178 762q149 26 291 26q241 0 453 -92q-4 -84 -13 -139q-33 -183 -156 -383.5t-272 -327.5l-88 107q73 65 135 141q-118 67 -215.5 169.5t-164 223t-112 259t-66.5 278.5t-21 281
q0 119 14 217l135 -17q-12 -132 -12 -198q0 -280 92 -545z" />
    <glyph glyph-name="c" unicode="c" horiz-adv-x="720" 
d="M666 102l-39 -133q-201 61 -352.5 165t-284.5 286q74 177 205 325t307 242l57 -123q-131 -73 -239.5 -186t-172.5 -240q99 -128 226 -206.5t293 -129.5z" />
    <glyph glyph-name="d" unicode="d" horiz-adv-x="782" 
d="M137 408q168 -43 379 -43q74 200 74 426q-143 -44 -259 -145t-194 -238zM762 225l-156 -2q-59 -129 -147 -256l-113 78q76 115 109 182q-291 13 -508 105q51 111 107.5 198.5t131 166.5t171 137.5t214.5 95.5q-58 296 -290 493l88 107q180 -154 269 -352.5t89 -421.5
q0 -202 -65 -394h100v-137z" />
    <glyph glyph-name="e" unicode="e" 
d="M256 279q67 16 139.5 50t124.5 77q-53 83 -186 176q-66 -100 -78 -303zM283 762q145 -69 241.5 -156.5t171.5 -228.5q-183 -177 -436 -240q24 -174 122.5 -284t266.5 -127l-12 -138q-215 21 -347.5 162.5t-164.5 362.5q-97 -11 -158 -11v138q86 0 150 10q3 256 166 512z
" />
    <glyph glyph-name="f" unicode="f" horiz-adv-x="821" 
d="M356 942q193 71 445 98l14 -135q-299 -37 -475 -119q0 -8 -1 -24.5t-1 -24.5q0 -183 50.5 -361t146.5 -331l-117 -74q-207 330 -217 740q-70 -47 -109 -84l-92 102q109 94 209 148q20 199 90 353t207 302l358 -238l-78 -114l-258 172q-128 -157 -172 -410z" />
    <glyph glyph-name="g" unicode="g" horiz-adv-x="815" 
d="M137 516q173 -81 359 -96q-31 267 -142 416q-165 -144 -217 -320zM850 317q-106 -31 -209 -34q-1 -116 -16.5 -222t-52.5 -214t-94.5 -199t-145.5 -172t-201 -138l-205 263l111 82l131 -170q120 82 197.5 208t108 262.5t30.5 297.5q-263 17 -531 165l2 9
q47 189 141.5 323t250.5 234q64 -44 114.5 -114t80.5 -152.5t47.5 -162.5t23.5 -163q75 2 180 31z" />
    <glyph glyph-name="h" unicode="h" horiz-adv-x="800" 
d="M145 666q311 0 473 -176t162 -500l-184 -193l-100 97l145 151q-6 235 -119.5 346t-351.5 133q59 -232 209 -442l-115 -78q-127 183 -195.5 382t-68.5 394q0 213 86.5 405t265.5 347l90 -107q-303 -260 -303 -647q0 -75 6 -112z" />
    <glyph glyph-name="i" unicode="i" horiz-adv-x="442" 
d="M80 911l-80 111l174 123l78 -113zM475 78l-90 -103q-169 153 -251.5 355.5t-82.5 437.5v41l137 -6v-35q0 -425 287 -690z" />
    <glyph glyph-name="j" unicode="j" horiz-adv-x="577" 
d="M35 799l178 139q62 -37 111.5 -101t80 -137t51 -159t28.5 -163.5t8 -154.5q0 -138 -31 -270.5t-92 -252t-162 -213t-230 -142.5l-202 247l108 86l131 -161q87 47 154 127t106 175.5t58.5 196.5t19.5 205q0 354 -145 541l-84 -70zM53 911l-80 111l174 123l78 -113z" />
    <glyph glyph-name="k" unicode="k" horiz-adv-x="737" 
d="M743 809l-428 -303l373 -438l-104 -91l-340 396q-17 -103 -49.5 -215t-73.5 -191l-121 64q75 149 117.5 392t42.5 447q0 364 -133 588l118 74q152 -258 152 -658q0 -101 -10 -221l372 267z" />
    <glyph glyph-name="l" unicode="l" horiz-adv-x="460" 
d="M373 51l-115 -80q-233 359 -233 682q0 281 147.5 515t388.5 366l64 -123q-217 -114 -340 -316.5t-123 -435.5q0 -305 211 -608z" />
    <glyph glyph-name="m" unicode="m" horiz-adv-x="1378" 
d="M373 887q41 4 123 4q403 0 874 -227q-154 -476 -289 -697l-116 74q111 181 237 549q-166 70 -325 112q-30 -314 -121 -610l-131 41q84 271 116 600q-123 21 -247 21q-76 0 -152 -9q-10 -82 -10 -151q0 -195 61 -363l-131 -49q-67 184 -67 410q0 88 6 129
q-104 -29 -205 -72l-57 125q115 55 284 92q42 144 105 238l110 -84q-40 -57 -65 -133z" />
    <glyph glyph-name="n" unicode="n" horiz-adv-x="788" 
d="M332 872q126 -31 228 -85.5t208 -141.5q-53 -223 -139 -377t-248 -299l-90 103q247 217 321 522q-152 111 -348 154q-33 -88 -33 -199q0 -126 52 -246l-127 -55q-64 140 -64 303q0 115 33 215l-94 -4l-15 137q36 8 82 8q45 0 84 -8q68 113 170 176l74 -117
q-53 -33 -94 -86z" />
    <glyph glyph-name="o" unicode="o" horiz-adv-x="794" 
d="M633 352q0 115 -77 183.5t-167 68.5q-100 0 -175 -68.5t-75 -177.5q0 -111 75 -179t175 -68q41 0 83 16t78.5 45.5t59.5 76.5t23 103zM772 365q0 -116 -57 -207.5t-145.5 -139t-188.5 -47.5q-65 0 -131.5 26.5t-122.5 74t-91.5 123t-35.5 163.5q0 87 35 161.5t91 122.5
t123.5 74.5t133.5 26.5q154 0 271.5 -105.5t117.5 -272.5z" />
    <glyph glyph-name="p" unicode="p" horiz-adv-x="886" 
d="M248 231q127 59 242 142.5t196 183.5q-62 71 -160.5 133t-201.5 105q-91 -161 -91 -385q0 -90 15 -179zM14 1020q247 -28 470 -146t372 -309q-92 -151 -245 -271.5t-335 -201.5q47 -177 139 -346.5t216 -310.5l-105 -92q-190 215 -311 500t-121 563q0 239 99 438
q-110 31 -193 39z" />
    <glyph glyph-name="q" unicode="q" horiz-adv-x="823" 
d="M561 819q-272 -146 -381 -330q133 -214 381 -329q43 162 43 327q0 175 -43 332zM825 76l-30 -135q-65 13 -150 41q-147 -374 -520 -641l-80 110q337 244 471 580q-158 71 -297 194.5t-201 268.5q64 101 135.5 181t153.5 141t157 104.5t177 91.5q100 -258 100 -525
q0 -201 -51 -374q68 -22 135 -37z" />
    <glyph glyph-name="r" unicode="r" horiz-adv-x="657" 
d="M406 1014q97 -67 149.5 -136t95.5 -186l-129 -45q-31 106 -108 172q-197 -227 -197 -493q0 -95 62 -233t139 -255l-115 -80q-270 401 -270 932q0 115 12 232l139 -17q-11 -92 -14 -203q43 88 99.5 161t136.5 151z" />
    <glyph glyph-name="s" unicode="s" 
d="M-78 -399l23 137q66 -8 96 -8q92 0 174 35.5t141.5 95.5t103 136.5t65.5 160t22 164.5q0 232 -162 405q-157 -93 -299 -326l-119 74q196 309 434 422q136 -99 210.5 -255.5t74.5 -326.5q0 -137 -50 -268t-135.5 -231t-207 -161t-256.5 -61q-47 0 -115 7z" />
    <glyph glyph-name="t" unicode="t" horiz-adv-x="665" 
d="M539 410l112 -78q-86 -124 -184 -203.5t-248 -157.5q-110 299 -110 627q0 154 24 307q-160 22 -268 29l8 137q136 -8 287 -31q53 207 133 346l121 -67q-72 -128 -117 -301q209 -45 340 -86l-41 -131q-180 51 -326 82q-24 -118 -24 -285q0 -239 53 -426q135 85 240 238z
" />
    <glyph glyph-name="u" unicode="u" horiz-adv-x="825" 
d="M748 147l34 -133q-112 -28 -225 -28q-285 0 -557 157q14 227 74 394t198 340l107 -89q-101 -125 -156.5 -257t-75.5 -312q184 -83 349 -92q102 110 102 299q0 192 -96 340l116 76q121 -193 121 -416q0 -165 -71 -295q52 8 80 16z" />
    <glyph glyph-name="v" unicode="v" horiz-adv-x="835" 
d="M727 926l133 -41q-67 -225 -169.5 -405t-264.5 -361q71 -8 154 -8v-140q-317 13 -572 72q-8 118 -8 178q0 369 127 709l129 -49q-119 -325 -119 -664q0 -10 1 -30.5t1 -30.5l115 -19q180 178 290.5 362.5t182.5 426.5z" />
    <glyph glyph-name="w" unicode="w" horiz-adv-x="1488" 
d="M1513 227l56 -127q-308 -129 -643 -129q-245 0 -535 74q-248 62 -391 133q71 482 287 836l116 -72q-171 -287 -249 -676q209 -78 405 -119q34 355 164 668l127 -53q-133 -326 -156 -635q128 -16 238 -16q123 0 246 18q4 78 4 121q0 271 -101 506l127 59
q113 -268 113 -567q0 -22 -4 -88q88 21 196 67z" />
    <glyph glyph-name="x" unicode="x" horiz-adv-x="933" 
d="M481 170q209 -212 527 -279l-29 -135q-360 80 -604 324q-198 -148 -467 -213l-31 133q233 59 410 186q-177 224 -221 590l137 15q20 -156 63 -279.5t127 -237.5q291 282 291 707q0 47 -8 141l137 15q10 -85 10 -156q0 -235 -85 -441.5t-257 -369.5z" />
    <glyph glyph-name="y" unicode="y" horiz-adv-x="905" 
d="M918 451l22 -138q-39 -6 -117 -14q-13 -165 -55.5 -308.5t-119 -270.5t-197 -225.5t-277.5 -156.5l-199 293l117 76l131 -201q110 49 196.5 136t140.5 195t84.5 223t39.5 237q-341 18 -651 225v373h139v-293q257 -151 514 -168q-2 142 -38.5 284.5t-115.5 221.5l93 102
q70 -67 116.5 -177.5t64 -214t19.5 -212.5q18 1 51.5 6.5t41.5 6.5z" />
    <glyph glyph-name="z" unicode="z" horiz-adv-x="788" 
d="M727 25l76 -115q-188 -121 -336 -121q-132 0 -236 79t-196 218q14 15 55 58t60.5 64t51.5 56.5t57.5 67t49.5 63.5q-101 18 -168 25l11 137q105 -10 239 -37q111 187 150 314q-91 36 -189 36q-154 0 -297 -98l-80 113q178 125 379 125q193 0 353 -115q-38 -140 -80 -233
t-99 -181q94 -27 187 -65l-51 -127q-113 44 -209 71q-88 -125 -240 -284q114 -148 252 -148q114 0 260 97z" />
    <glyph glyph-name="braceleft" unicode="{" horiz-adv-x="417" 
d="M205 743q51 -102 51 -241q0 -50 -7 -141t-7 -130q0 -87 26 -141.5t92 -97.5l-69 -119q-109 66 -149 153t-40 199q0 45 8.5 136t8.5 135q0 158 -82 247q82 89 82 246q0 44 -8.5 135.5t-8.5 135.5q0 113 40 199.5t149 154.5l69 -121q-65 -38 -91.5 -95t-26.5 -143
q0 -41 7 -132t7 -140q0 -141 -51 -240z" />
    <glyph glyph-name="bar" unicode="|" horiz-adv-x="317" 
d="M94 0v1532h139v-1532h-139z" />
    <glyph glyph-name="braceright" unicode="}" horiz-adv-x="417" 
d="M195 743q-52 96 -52 240q0 49 7.5 140t7.5 132q0 86 -27.5 143t-93.5 95l72 121q108 -68 148 -155t40 -199q0 -44 -8 -135.5t-8 -135.5q0 -156 79 -246q-79 -90 -79 -247q0 -44 8 -135t8 -136q0 -53 -8 -97t-27.5 -90.5t-58 -88t-94.5 -76.5l-72 119q68 43 94.5 97.5
t26.5 141.5q0 39 -7.5 130t-7.5 141q0 142 52 241z" />
    <glyph glyph-name="asciitilde" unicode="~" horiz-adv-x="790" 
d="M666 793l96 -101l-252 -248l-252 187l-164 -154l-94 101l248 233l250 -184z" />
    <glyph glyph-name="exclamdown" unicode="&#xa1;" horiz-adv-x="638" 
d="M205 1280l112 78q127 -183 196 -382t69 -392q0 -214 -86.5 -406.5t-266.5 -347.5l-88 107q303 262 303 647q0 350 -239 696zM45 1458l180 113l72 -117l-180 -113z" />
    <glyph glyph-name="cent" unicode="&#xa2;" horiz-adv-x="720" 
d="M311 158v284q-176 111 -321 310q105 253 321 436v305h119v-215q41 25 72 41l57 -123q-77 -46 -129 -88v-578q106 -57 236 -96l-39 -133q-120 40 -197 76v-219h-119zM147 770q69 -93 164 -162v391q-96 -96 -164 -229z" />
    <glyph glyph-name="sterling" unicode="&#xa3;" horiz-adv-x="1183" 
d="M1165 166l-78 -117q-198 86 -430 86q-168 0 -305 -49q6 -92 27 -180l-133 -33q-21 101 -25 143q-62 -42 -110 -102l-111 82q89 116 211 178v16q0 208 51 455h-94v137h129q19 73 59 174t94.5 214.5t126 213.5t140.5 148q104 -32 200.5 -141.5t126.5 -208.5l-133 -37
q-19 69 -66.5 131.5t-107.5 99.5q-188 -230 -297 -594h271v-137h-305q-53 -221 -56 -416q139 45 309 45q268 0 506 -108z" />
    <glyph glyph-name="yen" unicode="&#xa5;" horiz-adv-x="1130" 
d="M324 543v137h159q-35 219 -157.5 399t-325.5 295l66 121q171 -96 300.5 -241t194.5 -322q67 180 197.5 321.5t308.5 237.5l63 -123q-211 -115 -335.5 -288.5t-155.5 -399.5h166v-137h-174q0 -45 -8 -127h182v-140h-203q-56 -284 -215 -532l-115 76q147 240 197 456h-145
v140h165q7 61 7 104v23h-172z" />
    <glyph glyph-name="brokenbar" unicode="&#xa6;" horiz-adv-x="317" 
d="M94 901v631h139v-631h-139zM94 0v631h139v-631h-139z" />
    <glyph glyph-name="section" unicode="&#xa7;" horiz-adv-x="702" 
d="M303 846q-59 -40 -103 -92t-44 -105q0 -44 28.5 -93t74.5 -96.5t101 -98.5t110 -105.5t101 -110t74.5 -120.5t28.5 -129q0 -50 -23 -111l-127 51q13 32 13 60q0 48 -28.5 100.5t-74.5 101t-101 99.5t-110.5 104.5t-101.5 107.5t-74.5 116.5t-28.5 123.5q0 156 193 301
q-92 126 -92 248q0 136 87.5 234t215.5 98q58 0 108 -19l-49 -129q-37 11 -59 11q-66 0 -115 -56t-49 -139q0 -48 22.5 -96.5t58.5 -91t79.5 -86t87 -89.5t79.5 -93t58.5 -104.5t22.5 -117.5q0 -48 -19 -94l-125 63q4 19 4 52q-3 34 -17 67t-43 69t-48.5 57t-61 60.5
t-53.5 51.5z" />
    <glyph glyph-name="dieresis" unicode="&#xa8;" horiz-adv-x="548" 
d="M45 1081v179h176v-179h-176zM330 1081v179h176v-179h-176z" />
    <glyph glyph-name="copyright" unicode="&#xa9;" horiz-adv-x="1667" 
d="M1456 727q0 106 -28 201t-76.5 167t-112 130t-136 94.5t-147.5 56t-147 19.5q-126 0 -245 -46.5t-213 -128.5t-151 -207.5t-57 -271.5q0 -148 57 -273.5t151 -207.5t213 -128t245 -46q87 0 177 26.5t174 80.5t150 129t106 180t40 225zM1581 754q0 -142 -43.5 -268.5
t-119.5 -221.5t-176 -164.5t-216 -105t-235 -35.5q-87 0 -177 24t-176 68.5t-162.5 113t-133.5 153t-90.5 194t-33.5 229.5q0 142 47 268.5t125.5 218.5t179 159.5t210 101t215.5 33.5q117 0 231.5 -34t214 -101t176 -158.5t120.5 -214.5t44 -260zM1032 381l-39 -133
q-202 61 -353 164.5t-284 285.5q74 177 205.5 325.5t306.5 242.5l58 -123q-131 -73 -239.5 -186t-172.5 -240q99 -128 225.5 -206.5t292.5 -129.5z" />
    <glyph glyph-name="ordfeminine" unicode="&#xaa;" horiz-adv-x="866" 
d="M199 776q119 -102 243 -102q58 0 113 18q-10 59 -10 152q0 160 24 330q-82 30 -155 30q-97 0 -164 -53q-66 -117 -66 -254q0 -63 15 -121zM842 637l59 -125q-76 -37 -141 -37q-101 0 -158 88q-74 -26 -160 -26q-80 0 -147.5 18t-106.5 43.5t-66.5 51t-37.5 43.5l-10 18
q-27 44 -27 186q0 203 96 344q45 49 119.5 74.5t151.5 25.5q136 0 301 -84q-1 -11 -7.5 -67.5t-11.5 -105.5t-9.5 -120t-4.5 -128q0 -224 78 -224q40 0 82 25zM317 309q0 38 28 65t67 27q40 0 67 -27t27 -65q0 -40 -27 -67t-67 -27q-39 0 -67 27.5t-28 66.5z" />
    <glyph glyph-name="guillemotleft" unicode="&#xab;" horiz-adv-x="1259" 
d="M727 307l-96 -98l-557 424l571 399l98 -96l-438 -311zM1194 307l-98 -98l-555 424l571 399l98 -96l-438 -311z" />
    <glyph glyph-name="registered" unicode="&#xae;" horiz-adv-x="1445" 
d="M1241 1108q0 105 -33.5 197t-88.5 156.5t-125.5 111t-145 68.5t-146.5 22q-105 0 -204.5 -38.5t-177.5 -106.5t-125.5 -172.5t-47.5 -227.5t47.5 -227.5t125.5 -172.5t177.5 -106.5t204.5 -38.5q72 0 146.5 22t145 67t125.5 107.5t88.5 150.5t33.5 188zM1346 1128
q0 -118 -36.5 -223t-100 -184t-147 -137t-180 -87.5t-196.5 -29.5q-110 0 -222 45t-206.5 125t-154.5 206.5t-60 274.5q0 119 39 224.5t104 182t148.5 132.5t175 84t180.5 28q98 0 193.5 -28.5t178.5 -84.5t146.5 -132t100.5 -178.5t37 -217.5zM745 1630q82 -55 125.5 -112
t79.5 -154l-106 -39q-28 89 -90 143q-164 -189 -164 -411q0 -79 51.5 -194t114.5 -212l-94 -65q-226 330 -226 776q0 110 10 192l115 -14q-9 -82 -12 -168q63 128 196 258z" />
    <glyph glyph-name="macron" unicode="&#xaf;" horiz-adv-x="692" 
d="M37 1079v140h614v-140h-614z" />
    <glyph glyph-name="degree" unicode="&#xb0;" horiz-adv-x="583" 
d="M399 1315q0 54 -34.5 85.5t-75.5 31.5q-47 0 -82 -31.5t-35 -81.5q0 -52 35 -84.5t82 -32.5q41 0 75.5 31t34.5 82zM502 1321q0 -96 -66 -157.5t-153 -61.5q-78 0 -144.5 60.5t-66.5 156.5q0 95 67 155t146 60q86 0 151.5 -59.5t65.5 -153.5z" />
    <glyph glyph-name="plusminus" unicode="&#xb1;" horiz-adv-x="548" 
d="M37 561v137h172v172h139v-172h172v-137h-172v-172h-139v172h-172zM37 137v139h483v-139h-483z" />
    <glyph glyph-name="acute" unicode="&#xb4;" horiz-adv-x="395" 
d="M80 1061l-80 113l303 215l80 -115z" />
    <glyph glyph-name="mu" unicode="&#xb5;" horiz-adv-x="825" 
d="M748 147l34 -133q-114 -30 -227 -30q-211 0 -436 100q-41 -128 -117 -214.5t-203 -127.5l-41 131q59 18 102.5 51t71 79t44 93t28.5 109q19 202 80 357.5t188 314.5l107 -89q-105 -130 -159 -264t-73 -305q179 -81 349 -92q102 108 102 297t-96 342l116 76
q121 -193 121 -414q0 -167 -71 -297q52 8 80 16z" />
    <glyph glyph-name="periodcentered" unicode="&#xb7;" horiz-adv-x="204" 
d="M12 543v176h176v-176h-176z" />
    <glyph glyph-name="cedilla" unicode="&#xb8;" horiz-adv-x="391" 
d="M61 -569l-43 129q46 7 78 15.5t61.5 25t44.5 43.5t15 65q0 125 -178 295l96 98q96 -93 159.5 -199t63.5 -198q0 -113 -77 -183.5t-220 -90.5z" />
    <glyph glyph-name="ordmasculine" unicode="&#xba;" horiz-adv-x="866" 
d="M662 905q0 115 -77 183.5t-167 68.5q-100 0 -175 -68.5t-75 -177.5q0 -111 75 -179t175 -68q41 0 83 16t78.5 45.5t59.5 76.5t23 103zM801 918q0 -116 -57 -207.5t-145.5 -139t-188.5 -47.5q-65 0 -131.5 26.5t-122.5 74t-91.5 123t-35.5 163.5q0 87 35 161.5t91 122.5
t123.5 74.5t133.5 26.5q154 0 271.5 -105.5t117.5 -272.5zM317 309q0 38 28 65t67 27q40 0 67 -27t27 -65q0 -40 -27 -67t-67 -27q-39 0 -67 27.5t-28 66.5z" />
    <glyph glyph-name="guillemotright" unicode="&#xbb;" horiz-adv-x="1259" 
d="M653 207l-96 98l422 318l-438 311l98 96l571 -399zM188 207l-98 98l422 318l-438 311l98 96l571 -399z" />
    <glyph glyph-name="questiondown" unicode="&#xbf;" horiz-adv-x="1132" 
d="M479 1346l-37 133l205 55l37 -135zM606 -90q-235 55 -389.5 194t-198.5 367q43 125 108 220t144.5 154t159 93.5t172.5 54.5l-65 279l135 26l149 -596l-133 -34l-51 192q-166 -35 -296.5 -137t-180.5 -254q44 -166 154 -266.5t284 -147.5q135 65 233 187t140 270l133 -41
q-55 -190 -186.5 -341t-311.5 -220z" />
    <glyph glyph-name="Agrave" unicode="&#xc0;" horiz-adv-x="899" 
d="M147 440q243 41 469 150q-8 156 -8 629q-101 35 -250 116q-167 -408 -211 -895zM743 1319q-2 -82 -2 -209q0 -187 4 -309.5t18 -278t47 -297.5t85 -282l-127 -56q-106 243 -139 557q-234 -106 -490 -145q0 -250 41 -362l-129 -46q-51 135 -51 359q0 183 29 380t76 366
t94 300t94 234q254 -148 450 -211zM672 1694l-80 -113l-303 213l78 115z" />
    <glyph glyph-name="Aacute" unicode="&#xc1;" horiz-adv-x="899" 
d="M147 440q243 41 469 150q-8 156 -8 629q-101 35 -250 116q-167 -408 -211 -895zM743 1319q-2 -82 -2 -209q0 -187 4 -309.5t18 -278t47 -297.5t85 -282l-127 -56q-106 243 -139 557q-234 -106 -490 -145q0 -250 41 -362l-129 -46q-51 135 -51 359q0 183 29 380t76 366
t94 300t94 234q254 -148 450 -211zM504 1581l-80 113l303 215l80 -115z" />
    <glyph glyph-name="Acircumflex" unicode="&#xc2;" horiz-adv-x="899" 
d="M147 440q243 41 469 150q-8 156 -8 629q-101 35 -250 116q-167 -408 -211 -895zM743 1319q-2 -82 -2 -209q0 -187 4 -309.5t18 -278t47 -297.5t85 -282l-127 -56q-106 243 -139 557q-234 -106 -490 -145q0 -250 41 -362l-129 -46q-51 135 -51 359q0 183 29 380t76 366
t94 300t94 234q254 -148 450 -211zM403 1561l-110 86l235 290q119 -114 238 -280l-115 -80q-44 66 -116 149z" />
    <glyph glyph-name="Atilde" unicode="&#xc3;" horiz-adv-x="899" 
d="M147 440q243 41 469 150q-8 156 -8 629q-101 35 -250 116q-167 -408 -211 -895zM743 1319q-2 -82 -2 -209q0 -187 4 -309.5t18 -278t47 -297.5t85 -282l-127 -56q-106 243 -139 557q-234 -106 -490 -145q0 -250 41 -362l-129 -46q-51 135 -51 359q0 183 29 380t76 366
t94 300t94 234q254 -148 450 -211zM795 1917l96 -100l-252 -248l-252 186l-164 -153l-94 100l248 233l250 -184z" />
    <glyph glyph-name="Adieresis" unicode="&#xc4;" horiz-adv-x="899" 
d="M147 440q243 41 469 150q-8 156 -8 629q-101 35 -250 116q-167 -408 -211 -895zM743 1319q-2 -82 -2 -209q0 -187 4 -309.5t18 -278t47 -297.5t85 -282l-127 -56q-106 243 -139 557q-234 -106 -490 -145q0 -250 41 -362l-129 -46q-51 135 -51 359q0 183 29 380t76 366
t94 300t94 234q254 -148 450 -211zM283 1602v178h176v-178h-176zM567 1602v178h176v-178h-176z" />
    <glyph glyph-name="Aring" unicode="&#xc5;" horiz-adv-x="899" 
d="M147 440q243 41 469 150q-8 156 -8 629q-101 35 -250 116q-167 -408 -211 -895zM743 1319q-2 -82 -2 -209q0 -187 4 -309.5t18 -278t47 -297.5t85 -282l-127 -56q-106 243 -139 557q-234 -106 -490 -145q0 -250 41 -362l-129 -46q-51 135 -51 359q0 183 29 380t76 366
t94 300t94 234q254 -148 450 -211zM629 1790q0 54 -35 85.5t-76 31.5q-47 0 -82 -31.5t-35 -81.5q0 -52 35 -84.5t82 -32.5q41 0 76 31.5t35 81.5zM731 1796q0 -96 -66 -157.5t-153 -61.5q-78 0 -144.5 60.5t-66.5 156.5q0 95 67 155t146 60q86 0 151.5 -59.5t65.5 -153.5z
" />
    <glyph glyph-name="AE" unicode="&#xc6;" horiz-adv-x="1253" 
d="M768 -113q-106 243 -139 557q-234 -106 -490 -145q0 -250 41 -362l-129 -46q-51 135 -51 359q0 183 29 380t76 366t94 300t94 234q254 -148 450 -211q67 87 160.5 149t208.5 62v-139q-66 0 -131 -39t-114.5 -99.5t-85.5 -124t-56 -122.5q172 -54 432 -54v-137
q-41 -2 -82 -2q-36 0 -72 2.5t-55 4.5l-18 3q-107 -110 -174 -235q26 -315 114 -578q12 0 37 -1t39 -1q145 0 307 43l41 -131q-151 -49 -331 -49q-114 0 -195 16zM147 440q247 43 457 144q65 146 164 264q-82 19 -207 82q28 119 101 260q-142 53 -304 145
q-167 -408 -211 -895z" />
    <glyph glyph-name="Ccedilla" unicode="&#xc7;" horiz-adv-x="673" 
d="M584 276l125 -57q-70 -145 -109 -205q143 -167 143 -309q0 -113 -77 -183.5t-220 -90.5l-43 129q46 7 78 15.5t61.5 25t44.5 43.5t15 65q0 83 -82 191q-58 -72 -121 -129q-14 14 -37 40t-84 114t-111.5 184t-99.5 244.5t-67 301.5q23 123 59.5 237.5t77 200t84.5 160
t83.5 124.5t71 86t50.5 53l18 16q83 -62 137 -126.5t105 -152.5l-123 -65q-48 88 -110 147q-10 -11 -26.5 -32t-62.5 -90t-84.5 -143t-79.5 -187.5t-61 -227.5q11 -99 42 -203.5t67.5 -183t71.5 -143.5t58 -99l23 -34q109 129 183 284z" />
    <glyph glyph-name="Egrave" unicode="&#xc8;" horiz-adv-x="821" 
d="M791 23l22 -138q-73 -12 -149 -12q-358 0 -662 199q0 245 58 425.5t196 350.5q-82 19 -207 82q18 74 49.5 151.5t81.5 159t110 145t141.5 104t168.5 40.5v-139q-66 0 -131 -39t-114.5 -99.5t-85.5 -124t-56 -122.5q172 -54 432 -54v-137q-41 -2 -82 -2q-36 0 -72 2.5
t-55 4.5l-18 3q-137 -139 -209 -311t-72 -365q107 -63 247.5 -99t274.5 -36q57 0 132 11zM584 1694l-80 -113l-303 213l78 115z" />
    <glyph glyph-name="Eacute" unicode="&#xc9;" horiz-adv-x="821" 
d="M791 23l22 -138q-73 -12 -149 -12q-358 0 -662 199q0 245 58 425.5t196 350.5q-82 19 -207 82q18 74 49.5 151.5t81.5 159t110 145t141.5 104t168.5 40.5v-139q-66 0 -131 -39t-114.5 -99.5t-85.5 -124t-56 -122.5q172 -54 432 -54v-137q-41 -2 -82 -2q-36 0 -72 2.5
t-55 4.5l-18 3q-137 -139 -209 -311t-72 -365q107 -63 247.5 -99t274.5 -36q57 0 132 11zM412 1581l-80 113l303 215l80 -115z" />
    <glyph glyph-name="Ecircumflex" unicode="&#xca;" horiz-adv-x="821" 
d="M791 23l22 -138q-73 -12 -149 -12q-358 0 -662 199q0 245 58 425.5t196 350.5q-82 19 -207 82q18 74 49.5 151.5t81.5 159t110 145t141.5 104t168.5 40.5v-139q-66 0 -131 -39t-114.5 -99.5t-85.5 -124t-56 -122.5q172 -54 432 -54v-137q-41 -2 -82 -2q-36 0 -72 2.5
t-55 4.5l-18 3q-137 -139 -209 -311t-72 -365q107 -63 247.5 -99t274.5 -36q57 0 132 11zM358 1561l-110 86l235 290q119 -114 238 -280l-115 -80q-40 61 -117 149z" />
    <glyph glyph-name="Edieresis" unicode="&#xcb;" horiz-adv-x="821" 
d="M791 23l22 -138q-73 -12 -149 -12q-358 0 -662 199q0 245 58 425.5t196 350.5q-82 19 -207 82q18 74 49.5 151.5t81.5 159t110 145t141.5 104t168.5 40.5v-139q-66 0 -131 -39t-114.5 -99.5t-85.5 -124t-56 -122.5q172 -54 432 -54v-137q-41 -2 -82 -2q-36 0 -72 2.5
t-55 4.5l-18 3q-137 -139 -209 -311t-72 -365q107 -63 247.5 -99t274.5 -36q57 0 132 11zM256 1602v178h176v-178h-176zM541 1602v178h176v-178h-176z" />
    <glyph glyph-name="Igrave" unicode="&#xcc;" horiz-adv-x="368" 
d="M215 -193l-137 -28q-60 312 -60 635q0 606 191 1120l129 -49q-180 -488 -180 -1071q0 -325 57 -607zM377 1694l-80 -113l-303 213l78 115z" />
    <glyph glyph-name="Iacute" unicode="&#xcd;" horiz-adv-x="368" 
d="M215 -193l-137 -28q-60 312 -60 635q0 606 191 1120l129 -49q-180 -488 -180 -1071q0 -325 57 -607zM285 1581l-80 113l303 215l80 -115z" />
    <glyph glyph-name="Icircumflex" unicode="&#xce;" horiz-adv-x="368" 
d="M215 -193l-137 -28q-60 312 -60 635q0 606 191 1120l129 -49q-180 -488 -180 -1071q0 -325 57 -607zM145 1561l-110 86l235 290q119 -114 238 -280l-115 -80q-40 61 -117 149z" />
    <glyph glyph-name="Idieresis" unicode="&#xcf;" horiz-adv-x="368" 
d="M215 -193l-137 -28q-60 312 -60 635q0 606 191 1120l129 -49q-180 -488 -180 -1071q0 -325 57 -607zM43 1602v178h176v-178h-176zM328 1602v178h176v-178h-176z" />
    <glyph glyph-name="Eth" unicode="&#xd0;" horiz-adv-x="841" 
d="M-113 578v139h144q39 443 178 819l129 -49l-35 -98q123 -133 206.5 -245.5t163.5 -274.5t142 -367q-134 -218 -268.5 -354t-347.5 -259l16 -79l-137 -29q-60 312 -60 633q0 26 5 164h-136zM178 37q150 88 275.5 212.5t212.5 272.5q-50 157 -118 291.5t-134 225.5
t-158 194q-63 -244 -88 -516h203v-139h-211q-4 -55 -4 -166q0 -182 22 -375z" />
    <glyph glyph-name="Ntilde" unicode="&#xd1;" horiz-adv-x="870" 
d="M686 -137l-129 -49q-107 262 -173 553.5t-114 666.5q-70 -280 -100.5 -554t-30.5 -593h-139q0 433 58.5 797.5t177.5 824.5l122 19q55 -622 197 -1237q24 643 166 1247l135 -33q-94 -405 -135 -819q-31 -297 -35 -823zM850 1917l96 -100l-252 -248l-252 186l-163 -153
l-95 100l248 233l250 -184z" />
    <glyph glyph-name="Ograve" unicode="&#xd2;" horiz-adv-x="999" 
d="M416 -57q65 0 121 43t94.5 112t69 160t49 183t30.5 185.5t16.5 162t4.5 118.5q0 76 -7.5 142.5t-26 131.5t-47 111t-74.5 74.5t-105 28.5q-75 0 -139 -68.5t-107 -177t-74 -243.5t-45 -266t-14 -247q0 -64 6 -122t23.5 -120t44.5 -106.5t73.5 -73t106.5 -28.5zM23 399
q0 70 5.5 155.5t21.5 197t40 217t65 209.5t93 181t128 125t165 48q88 0 157.5 -36.5t113.5 -96.5t73 -142.5t41 -168.5t12 -181q0 -72 -6 -156.5t-22 -193.5t-40.5 -211t-66.5 -202.5t-95.5 -174.5t-131 -120t-168.5 -46q-75 0 -136 25.5t-102 71.5t-70.5 103t-46 126.5
t-23.5 135t-7 134.5zM643 1694l-80 -113l-303 213l78 115z" />
    <glyph glyph-name="Oacute" unicode="&#xd3;" horiz-adv-x="999" 
d="M416 -57q65 0 121 43t94.5 112t69 160t49 183t30.5 185.5t16.5 162t4.5 118.5q0 76 -7.5 142.5t-26 131.5t-47 111t-74.5 74.5t-105 28.5q-75 0 -139 -68.5t-107 -177t-74 -243.5t-45 -266t-14 -247q0 -64 6 -122t23.5 -120t44.5 -106.5t73.5 -73t106.5 -28.5zM23 399
q0 70 5.5 155.5t21.5 197t40 217t65 209.5t93 181t128 125t165 48q88 0 157.5 -36.5t113.5 -96.5t73 -142.5t41 -168.5t12 -181q0 -72 -6 -156.5t-22 -193.5t-40.5 -211t-66.5 -202.5t-95.5 -174.5t-131 -120t-168.5 -46q-75 0 -136 25.5t-102 71.5t-70.5 103t-46 126.5
t-23.5 135t-7 134.5zM551 1581l-80 113l303 215l80 -115z" />
    <glyph glyph-name="Ocircumflex" unicode="&#xd4;" horiz-adv-x="999" 
d="M416 -57q65 0 121 43t94.5 112t69 160t49 183t30.5 185.5t16.5 162t4.5 118.5q0 76 -7.5 142.5t-26 131.5t-47 111t-74.5 74.5t-105 28.5q-75 0 -139 -68.5t-107 -177t-74 -243.5t-45 -266t-14 -247q0 -64 6 -122t23.5 -120t44.5 -106.5t73.5 -73t106.5 -28.5zM23 399
q0 70 5.5 155.5t21.5 197t40 217t65 209.5t93 181t128 125t165 48q88 0 157.5 -36.5t113.5 -96.5t73 -142.5t41 -168.5t12 -181q0 -72 -6 -156.5t-22 -193.5t-40.5 -211t-66.5 -202.5t-95.5 -174.5t-131 -120t-168.5 -46q-75 0 -136 25.5t-102 71.5t-70.5 103t-46 126.5
t-23.5 135t-7 134.5zM453 1561l-111 86l236 290q116 -111 237 -280l-115 -80q-44 66 -116 149z" />
    <glyph glyph-name="Otilde" unicode="&#xd5;" horiz-adv-x="999" 
d="M416 -57q65 0 121 43t94.5 112t69 160t49 183t30.5 185.5t16.5 162t4.5 118.5q0 76 -7.5 142.5t-26 131.5t-47 111t-74.5 74.5t-105 28.5q-75 0 -139 -68.5t-107 -177t-74 -243.5t-45 -266t-14 -247q0 -64 6 -122t23.5 -120t44.5 -106.5t73.5 -73t106.5 -28.5zM23 399
q0 70 5.5 155.5t21.5 197t40 217t65 209.5t93 181t128 125t165 48q88 0 157.5 -36.5t113.5 -96.5t73 -142.5t41 -168.5t12 -181q0 -72 -6 -156.5t-22 -193.5t-40.5 -211t-66.5 -202.5t-95.5 -174.5t-131 -120t-168.5 -46q-75 0 -136 25.5t-102 71.5t-70.5 103t-46 126.5
t-23.5 135t-7 134.5zM883 1917l96 -100l-252 -248l-252 186l-164 -153l-94 100l248 233l250 -184z" />
    <glyph glyph-name="Odieresis" unicode="&#xd6;" horiz-adv-x="999" 
d="M416 -57q65 0 121 43t94.5 112t69 160t49 183t30.5 185.5t16.5 162t4.5 118.5q0 76 -7.5 142.5t-26 131.5t-47 111t-74.5 74.5t-105 28.5q-75 0 -139 -68.5t-107 -177t-74 -243.5t-45 -266t-14 -247q0 -64 6 -122t23.5 -120t44.5 -106.5t73.5 -73t106.5 -28.5zM23 399
q0 70 5.5 155.5t21.5 197t40 217t65 209.5t93 181t128 125t165 48q88 0 157.5 -36.5t113.5 -96.5t73 -142.5t41 -168.5t12 -181q0 -72 -6 -156.5t-22 -193.5t-40.5 -211t-66.5 -202.5t-95.5 -174.5t-131 -120t-168.5 -46q-75 0 -136 25.5t-102 71.5t-70.5 103t-46 126.5
t-23.5 135t-7 134.5zM340 1602v178h176v-178h-176zM625 1602v178h176v-178h-176z" />
    <glyph glyph-name="Oslash" unicode="&#xd8;" horiz-adv-x="976" 
d="M979 1448l131 -45l-213 -277q18 -108 18 -219q0 -72 -6 -156.5t-22 -193.5t-40.5 -211t-66.5 -202.5t-95.5 -174.5t-131 -120t-168.5 -46q-230 0 -328 238l-114 -152l-131 45l204 267q-16 91 -16 198q0 70 5.5 155.5t21.5 197t40 217t65 209.5t93 181t128 125t165 48
q236 0 334 -250zM393 -57q65 0 121 43t94.5 112t69 160t49 183t30.5 185.5t16.5 162t4.5 118.5q0 10 -1 32t-1 32l-616 -797q60 -231 233 -231zM139 393v-35l615 795q-27 111 -85 176.5t-151 65.5q-75 0 -139 -68.5t-107 -177t-74 -243.5t-45 -266t-14 -247z" />
    <glyph glyph-name="Ugrave" unicode="&#xd9;" horiz-adv-x="854" 
d="M649 1538l135 -27q-52 -285 -71 -790q-8 -219 -8 -492q0 -124 4 -374q-204 -15 -318 -15q-111 0 -325 21q-5 5 -5 147q-2 76 -2 228q0 794 80 1296l135 -21q-75 -514 -75 -1278q0 -165 2 -247q120 -9 221 -9q24 0 147 5q-2 84 -2 256q0 410 16 713t66 587zM537 1769
l-80 -112l-303 213l77 115z" />
    <glyph glyph-name="Uacute" unicode="&#xda;" horiz-adv-x="854" 
d="M649 1538l135 -27q-52 -285 -71 -790q-8 -219 -8 -492q0 -124 4 -374q-204 -15 -318 -15q-111 0 -325 21q-5 5 -5 147q-2 76 -2 228q0 794 80 1296l135 -21q-75 -514 -75 -1278q0 -165 2 -247q120 -9 221 -9q24 0 147 5q-2 84 -2 256q0 410 16 713t66 587zM410 1657
l-80 112l303 216l80 -115z" />
    <glyph glyph-name="Ucircumflex" unicode="&#xdb;" horiz-adv-x="854" 
d="M649 1538l135 -27q-52 -285 -71 -790q-8 -219 -8 -492q0 -124 4 -374q-204 -15 -318 -15q-111 0 -325 21q-5 5 -5 147q-2 76 -2 228q0 794 80 1296l135 -21q-75 -514 -75 -1278q0 -165 2 -247q120 -9 221 -9q24 0 147 5q-2 84 -2 256q0 410 16 713t66 587zM340 1636
l-111 86l236 291q116 -111 237 -280l-114 -80q-40 61 -117 149z" />
    <glyph glyph-name="Udieresis" unicode="&#xdc;" horiz-adv-x="854" 
d="M649 1538l135 -27q-52 -285 -71 -790q-8 -219 -8 -492q0 -124 4 -374q-204 -15 -318 -15q-111 0 -325 21q-5 5 -5 147q-2 76 -2 228q0 794 80 1296l135 -21q-75 -514 -75 -1278q0 -165 2 -247q120 -9 221 -9q24 0 147 5q-2 84 -2 256q0 410 16 713t66 587zM233 1677v178
h177v-178h-177zM518 1677v178h176v-178h-176z" />
    <glyph glyph-name="Yacute" unicode="&#xdd;" horiz-adv-x="1130" 
d="M0 1374l66 121q171 -96 300.5 -241t194.5 -322q67 180 197.5 321.5t308.5 237.5l63 -123q-229 -125 -356.5 -319t-140.5 -449q0 -472 -246 -856l-115 76q224 361 224 700q0 268 -127.5 493.5t-368.5 360.5zM528 1581l-79 113l303 215l79 -115z" />
    <glyph glyph-name="Thorn" unicode="&#xde;" horiz-adv-x="888" 
d="M868 700q0 -87 -33.5 -162t-88.5 -125t-125 -78t-144 -28q-135 0 -244 92v-579h-139v1712h139v-545q112 92 246 92q164 0 276.5 -105t112.5 -274zM729 688q0 115 -77 183.5t-167 68.5q-100 0 -174.5 -68.5t-74.5 -179.5q0 -110 74.5 -178t174.5 -68q56 0 110.5 27t94 84
t39.5 131z" />
    <glyph glyph-name="germandbls" unicode="&#xdf;" horiz-adv-x="876" 
d="M346 -223l-45 133q286 152 420 377q-28 105 -93.5 173t-170.5 113q-134 -71 -297 -100q0 -195 41.5 -495t85.5 -453l-135 -33q-47 179 -88 486t-41 530q0 533 167 1032q231 -66 378.5 -231t246.5 -453q-44 -53 -99 -102t-88 -72l-34 -23q102 -57 167.5 -148t108.5 -245
q-183 -318 -524 -489zM160 612q125 27 240 91.5t259 191.5q-48 148 -148.5 274.5t-231.5 190.5q-104 -374 -119 -748z" />
    <glyph glyph-name="agrave" unicode="&#xe0;" horiz-adv-x="835" 
d="M76 987q164 -40 297.5 -143t219 -243.5t135.5 -299.5t63 -326l-140 -10q-3 57 -16 129q-224 -94 -416 -94q-86 0 -219 18q29 241 98 417t185 306q-106 80 -238 111zM154 139q25 -4 63 -4q97 0 186.5 23.5t200.5 70.5q-69 247 -221 418q-176 -199 -229 -508zM428 1174
l-80 -113l-303 213l78 115z" />
    <glyph glyph-name="aacute" unicode="&#xe1;" horiz-adv-x="835" 
d="M76 987q164 -40 297.5 -143t219 -243.5t135.5 -299.5t63 -326l-140 -10q-3 57 -16 129q-224 -94 -416 -94q-86 0 -219 18q29 241 98 417t185 306q-106 80 -238 111zM154 139q25 -4 63 -4q97 0 186.5 23.5t200.5 70.5q-69 247 -221 418q-176 -199 -229 -508zM348 1061
l-80 113l303 215l80 -115z" />
    <glyph glyph-name="acircumflex" unicode="&#xe2;" horiz-adv-x="835" 
d="M76 987q164 -40 297.5 -143t219 -243.5t135.5 -299.5t63 -326l-140 -10q-3 57 -16 129q-224 -94 -416 -94q-86 0 -219 18q29 241 98 417t185 306q-106 80 -238 111zM154 139q25 -4 63 -4q97 0 186.5 23.5t200.5 70.5q-69 247 -221 418q-176 -199 -229 -508zM141 1040
l-110 86l235 291q119 -114 238 -280l-115 -80q-40 61 -117 149z" />
    <glyph glyph-name="atilde" unicode="&#xe3;" horiz-adv-x="835" 
d="M76 987q164 -40 297.5 -143t219 -243.5t135.5 -299.5t63 -326l-140 -10q-3 57 -16 129q-224 -94 -416 -94q-86 0 -219 18q29 241 98 417t185 306q-106 80 -238 111zM154 139q25 -4 63 -4q97 0 186.5 23.5t200.5 70.5q-69 247 -221 418q-176 -199 -229 -508zM610 1397
l97 -101l-252 -247l-252 186l-164 -154l-94 101l248 233l249 -184z" />
    <glyph glyph-name="adieresis" unicode="&#xe4;" horiz-adv-x="835" 
d="M76 987q164 -40 297.5 -143t219 -243.5t135.5 -299.5t63 -326l-140 -10q-3 57 -16 129q-224 -94 -416 -94q-86 0 -219 18q29 241 98 417t185 306q-106 80 -238 111zM154 139q25 -4 63 -4q97 0 186.5 23.5t200.5 70.5q-69 247 -221 418q-176 -199 -229 -508zM61 1081v179
h177v-179h-177zM346 1081v179h176v-179h-176z" />
    <glyph glyph-name="aring" unicode="&#xe5;" horiz-adv-x="835" 
d="M76 987q164 -40 297.5 -143t219 -243.5t135.5 -299.5t63 -326l-140 -10q-3 57 -16 129q-224 -94 -416 -94q-86 0 -219 18q29 241 98 417t185 306q-106 80 -238 111zM154 139q25 -4 63 -4q97 0 186.5 23.5t200.5 70.5q-69 247 -221 418q-176 -199 -229 -508zM389 1270
q0 54 -34.5 85t-75.5 31q-47 0 -82 -31t-35 -81q0 -52 35 -84.5t82 -32.5q41 0 75.5 31t34.5 82zM492 1276q0 -96 -66.5 -157.5t-153.5 -61.5q-78 0 -144.5 60.5t-66.5 156.5q0 95 67 155t146 60q86 0 152 -59.5t66 -153.5z" />
    <glyph glyph-name="ae" unicode="&#xe6;" horiz-adv-x="1148" 
d="M711 1008q145 -69 241 -156.5t170 -228.5q-183 -177 -436 -240l12 -66q30 -146 127 -238.5t250 -107.5l-12 -137q-283 29 -426 264q-242 -98 -442 -98q-87 0 -220 18q29 241 98 417t185 306q-106 80 -238 111l31 135q311 -78 502 -366q33 196 158 387zM193 135
q162 0 389 88l-13 43q-69 223 -211 381q-176 -199 -229 -508q25 -4 64 -4zM682 524q67 16 140 50t124 77q-52 82 -184 176q-68 -99 -80 -303z" />
    <glyph glyph-name="ccedilla" unicode="&#xe7;" horiz-adv-x="727" 
d="M272 -422l-43 129q46 7 78 16t61.5 25t44.5 43.5t15 65.5q0 79 -24.5 134.5t-70.5 96.5t-97.5 78.5t-120.5 104t-125 149.5q74 177 205 325t307 242l57 -123q-131 -73 -239.5 -186t-172.5 -240q99 -128 226 -206.5t293 -129.5l-39 -133l-97 31q39 -76 39 -147
q0 -113 -77 -184t-220 -91z" />
    <glyph glyph-name="egrave" unicode="&#xe8;" 
d="M256 279q67 16 139.5 50t124.5 77q-53 83 -186 176q-66 -100 -78 -303zM283 762q145 -69 241.5 -156.5t171.5 -228.5q-183 -177 -436 -240q24 -174 122.5 -284t266.5 -127l-12 -138q-215 21 -347.5 162.5t-164.5 362.5q-97 -11 -158 -11v138q86 0 150 10q3 256 166 512z
M532 1020l-79 -113l-303 213l77 115z" />
    <glyph glyph-name="eacute" unicode="&#xe9;" 
d="M256 279q67 16 139.5 50t124.5 77q-53 83 -186 176q-66 -100 -78 -303zM283 762q145 -69 241.5 -156.5t171.5 -228.5q-183 -177 -436 -240q24 -174 122.5 -284t266.5 -127l-12 -138q-215 21 -347.5 162.5t-164.5 362.5q-97 -11 -158 -11v138q86 0 150 10q3 256 166 512z
M229 909l-79 113l303 215l79 -115z" />
    <glyph glyph-name="ecircumflex" unicode="&#xea;" 
d="M256 279q67 16 139.5 50t124.5 77q-53 83 -186 176q-66 -100 -78 -303zM283 762q145 -69 241.5 -156.5t171.5 -228.5q-183 -177 -436 -240q24 -174 122.5 -284t266.5 -127l-12 -138q-215 21 -347.5 162.5t-164.5 362.5q-97 -11 -158 -11v138q86 0 150 10q3 256 166 512z
M217 893l-111 86l236 291q117 -112 238 -281l-115 -80q-43 65 -117 150z" />
    <glyph glyph-name="edieresis" unicode="&#xeb;" 
d="M256 279q67 16 139.5 50t124.5 77q-53 83 -186 176q-66 -100 -78 -303zM283 762q145 -69 241.5 -156.5t171.5 -228.5q-183 -177 -436 -240q24 -174 122.5 -284t266.5 -127l-12 -138q-215 21 -347.5 162.5t-164.5 362.5q-97 -11 -158 -11v138q86 0 150 10q3 256 166 512z
M111 909v178h176v-178h-176zM395 909v178h176v-178h-176z" />
    <glyph glyph-name="igrave" unicode="&#xec;" horiz-adv-x="442" 
d="M475 78l-90 -103q-169 153 -251.5 355.5t-82.5 437.5v41l137 -6v-35q0 -425 287 -690zM244 1022l-80 -113l-303 213l78 115z" />
    <glyph glyph-name="iacute" unicode="&#xed;" horiz-adv-x="442" 
d="M475 78l-90 -103q-169 153 -251.5 355.5t-82.5 437.5v41l137 -6v-35q0 -425 287 -690zM100 909l-80 113l304 215l79 -115z" />
    <glyph glyph-name="icircumflex" unicode="&#xee;" horiz-adv-x="442" 
d="M475 78l-90 -103q-169 153 -251.5 355.5t-82.5 437.5v41l137 -6v-35q0 -425 287 -690zM-8 907l-111 86l236 291q116 -111 237 -280l-114 -80q-40 61 -117 149z" />
    <glyph glyph-name="idieresis" unicode="&#xef;" horiz-adv-x="442" 
d="M475 78l-90 -103q-169 153 -251.5 355.5t-82.5 437.5v41l137 -6v-35q0 -425 287 -690zM-113 909v178h176v-178h-176zM172 909v178h176v-178h-176z" />
    <glyph glyph-name="eth" unicode="&#xf0;" horiz-adv-x="913" 
d="M270 918v137l176 43q-209 239 -446 291v143q168 -24 326 -128.5t284 -264.5l275 69v-139l-193 -49q91 -142 142 -296t51 -294q0 -117 -36.5 -226.5t-102 -195t-164 -137t-213.5 -51.5q-67 0 -132 20t-110 56q-76 138 -76 356q0 206 137 373q51 10 129 10q225 0 422 -119
q-63 294 -204 465zM319 496l-59 -2q-74 -136 -74 -258q0 -111 50 -244q62 -33 131 -33q80 0 147.5 35t112.5 93t74 126t40 141q-221 142 -422 142z" />
    <glyph glyph-name="ntilde" unicode="&#xf1;" horiz-adv-x="788" 
d="M332 872q126 -31 228 -85.5t208 -141.5q-53 -223 -139 -377t-248 -299l-90 103q247 217 321 522q-152 111 -348 154q-33 -88 -33 -199q0 -126 52 -246l-127 -55q-64 140 -64 303q0 115 33 215l-94 -4l-15 137q36 8 82 8q45 0 84 -8q68 113 170 176l74 -117
q-53 -33 -94 -86zM678 1397l96 -101l-252 -247l-252 186l-164 -154l-94 101l248 233l250 -184z" />
    <glyph glyph-name="ograve" unicode="&#xf2;" horiz-adv-x="794" 
d="M633 352q0 115 -77 183.5t-167 68.5q-100 0 -175 -68.5t-75 -177.5q0 -111 75 -179t175 -68q41 0 83 16t78.5 45.5t59.5 76.5t23 103zM772 365q0 -116 -57 -207.5t-145.5 -139t-188.5 -47.5q-65 0 -131.5 26.5t-122.5 74t-91.5 123t-35.5 163.5q0 87 35 161.5t91 122.5
t123.5 74.5t133.5 26.5q154 0 271.5 -105.5t117.5 -272.5zM465 1022l-80 -113l-303 213l78 115z" />
    <glyph glyph-name="oacute" unicode="&#xf3;" horiz-adv-x="794" 
d="M633 352q0 115 -77 183.5t-167 68.5q-100 0 -175 -68.5t-75 -177.5q0 -111 75 -179t175 -68q41 0 83 16t78.5 45.5t59.5 76.5t23 103zM772 365q0 -116 -57 -207.5t-145.5 -139t-188.5 -47.5q-65 0 -131.5 26.5t-122.5 74t-91.5 123t-35.5 163.5q0 87 35 161.5t91 122.5
t123.5 74.5t133.5 26.5q154 0 271.5 -105.5t117.5 -272.5zM362 909l-79 113l303 215l80 -115z" />
    <glyph glyph-name="ocircumflex" unicode="&#xf4;" horiz-adv-x="794" 
d="M633 352q0 115 -77 183.5t-167 68.5q-100 0 -175 -68.5t-75 -177.5q0 -111 75 -179t175 -68q41 0 83 16t78.5 45.5t59.5 76.5t23 103zM772 365q0 -116 -57 -207.5t-145.5 -139t-188.5 -47.5q-65 0 -131.5 26.5t-122.5 74t-91.5 123t-35.5 163.5q0 87 35 161.5t91 122.5
t123.5 74.5t133.5 26.5q154 0 271.5 -105.5t117.5 -272.5zM258 909l-111 86l236 291q119 -114 238 -280l-115 -80q-40 61 -117 149z" />
    <glyph glyph-name="otilde" unicode="&#xf5;" horiz-adv-x="794" 
d="M633 352q0 115 -77 183.5t-167 68.5q-100 0 -175 -68.5t-75 -177.5q0 -111 75 -179t175 -68q41 0 83 16t78.5 45.5t59.5 76.5t23 103zM772 365q0 -116 -57 -207.5t-145.5 -139t-188.5 -47.5q-65 0 -131.5 26.5t-122.5 74t-91.5 123t-35.5 163.5q0 87 35 161.5t91 122.5
t123.5 74.5t133.5 26.5q154 0 271.5 -105.5t117.5 -272.5zM674 1225l96 -101l-252 -247l-252 186l-164 -154l-94 101l248 233l250 -184z" />
    <glyph glyph-name="odieresis" unicode="&#xf6;" horiz-adv-x="794" 
d="M633 352q0 115 -77 183.5t-167 68.5q-100 0 -175 -68.5t-75 -177.5q0 -111 75 -179t175 -68q41 0 83 16t78.5 45.5t59.5 76.5t23 103zM772 365q0 -116 -57 -207.5t-145.5 -139t-188.5 -47.5q-65 0 -131.5 26.5t-122.5 74t-91.5 123t-35.5 163.5q0 87 35 161.5t91 122.5
t123.5 74.5t133.5 26.5q154 0 271.5 -105.5t117.5 -272.5zM154 907v178h176v-178h-176zM438 907v178h176v-178h-176z" />
    <glyph glyph-name="divide" unicode="&#xf7;" horiz-adv-x="536" 
d="M174 305v176h176v-176h-176zM174 784v177h176v-177h-176zM23 561v139h483v-139h-483z" />
    <glyph glyph-name="oslash" unicode="&#xf8;" horiz-adv-x="794" 
d="M772 365q0 -116 -57 -207.5t-145.5 -139t-188.5 -47.5q-90 0 -172 43l-35 -43l-131 45l61 78q-104 113 -104 264q0 87 35 161.5t91 122.5t123.5 74.5t133.5 26.5q102 0 188 -47l31 39l137 -37l-63 -82q96 -106 96 -251zM139 358q0 -90 51 -153l293 377q-49 22 -94 22
q-100 0 -175 -68.5t-75 -177.5zM633 352q0 87 -47 150l-291 -375q50 -16 94 -16q41 0 83 16t78.5 45.5t59.5 76.5t23 103z" />
    <glyph glyph-name="ugrave" unicode="&#xf9;" horiz-adv-x="825" 
d="M748 147l34 -133q-112 -28 -225 -28q-285 0 -557 157q14 227 74 394t198 340l107 -89q-101 -125 -156.5 -257t-75.5 -312q184 -83 349 -92q102 110 102 299q0 192 -96 340l116 76q121 -193 121 -416q0 -165 -71 -295q52 8 80 16zM516 1022l-80 -113l-303 213l78 115z" />
    <glyph glyph-name="uacute" unicode="&#xfa;" horiz-adv-x="825" 
d="M748 147l34 -133q-112 -28 -225 -28q-285 0 -557 157q14 227 74 394t198 340l107 -89q-101 -125 -156.5 -257t-75.5 -312q184 -83 349 -92q102 110 102 299q0 192 -96 340l116 76q121 -193 121 -416q0 -165 -71 -295q52 8 80 16zM471 909l-80 113l303 215l80 -115z" />
    <glyph glyph-name="ucircumflex" unicode="&#xfb;" horiz-adv-x="825" 
d="M748 147l34 -133q-112 -28 -225 -28q-285 0 -557 157q14 227 74 394t198 340l107 -89q-101 -125 -156.5 -257t-75.5 -312q184 -83 349 -92q102 110 102 299q0 192 -96 340l116 76q121 -193 121 -416q0 -165 -71 -295q52 8 80 16zM336 909l-111 86l236 291
q116 -111 237 -280l-114 -80q-40 61 -117 149z" />
    <glyph glyph-name="udieresis" unicode="&#xfc;" horiz-adv-x="825" 
d="M748 147l34 -133q-112 -28 -225 -28q-285 0 -557 157q14 227 74 394t198 340l107 -89q-101 -125 -156.5 -257t-75.5 -312q184 -83 349 -92q102 110 102 299q0 192 -96 340l116 76q121 -193 121 -416q0 -165 -71 -295q52 8 80 16zM223 911v179h176v-179h-176zM508 911v179
h176v-179h-176z" />
    <glyph glyph-name="yacute" unicode="&#xfd;" horiz-adv-x="905" 
d="M918 451l22 -138q-39 -6 -117 -14q-13 -165 -55.5 -308.5t-119 -270.5t-197 -225.5t-277.5 -156.5l-199 293l117 76l131 -201q110 49 196.5 136t140.5 195t84.5 223t39.5 237q-341 18 -651 225v373h139v-293q257 -151 514 -168q-2 142 -38.5 284.5t-115.5 221.5l93 102
q70 -67 116.5 -177.5t64 -214t19.5 -212.5q18 1 51.5 6.5t41.5 6.5zM236 1061l-80 113l303 215l80 -115z" />
    <glyph glyph-name="thorn" unicode="&#xfe;" horiz-adv-x="894" 
d="M262 266q-10 14 -29 58v-324h-139v1532h139v-389q387 -124 627 -457q-36 -54 -86 -111q-91 -98 -225.5 -178t-286.5 -131zM332 442q101 44 199.5 109.5t158.5 136.5q-96 114 -237 205q-110 69 -211 113q-9 -74 -9 -152q0 -235 99 -412z" />
    <glyph glyph-name="ydieresis" unicode="&#xff;" horiz-adv-x="905" 
d="M918 451l22 -138q-39 -6 -117 -14q-13 -165 -55.5 -308.5t-119 -270.5t-197 -225.5t-277.5 -156.5l-199 293l117 76l131 -201q110 49 196.5 136t140.5 195t84.5 223t39.5 237q-341 18 -651 225v373h139v-293q257 -151 514 -168q-2 142 -38.5 284.5t-115.5 221.5l93 102
q70 -67 116.5 -177.5t64 -214t19.5 -212.5q18 1 51.5 6.5t41.5 6.5zM27 1081v179h176v-179h-176zM311 1081v179h176v-179h-176z" />
    <glyph glyph-name="Amacron" unicode="&#x100;" horiz-adv-x="899" 
d="M147 440q243 41 469 150q-8 156 -8 629q-101 35 -250 116q-167 -408 -211 -895zM743 1319q-2 -82 -2 -209q0 -187 4 -309.5t18 -278t47 -297.5t85 -282l-127 -56q-106 243 -139 557q-234 -106 -490 -145q0 -250 41 -362l-129 -46q-51 135 -51 359q0 183 29 380t76 366
t94 300t94 234q254 -148 450 -211zM170 1599v140h614v-140h-614z" />
    <glyph glyph-name="amacron" unicode="&#x101;" horiz-adv-x="835" 
d="M76 987q164 -40 297.5 -143t219 -243.5t135.5 -299.5t63 -326l-140 -10q-3 57 -16 129q-224 -94 -416 -94q-86 0 -219 18q29 241 98 417t185 306q-106 80 -238 111zM154 139q25 -4 63 -4q97 0 186.5 23.5t200.5 70.5q-69 247 -221 418q-176 -199 -229 -508zM35 1079v140
h614v-140h-614z" />
    <glyph glyph-name="Abreve" unicode="&#x102;" horiz-adv-x="899" 
d="M147 440q243 41 469 150q-8 156 -8 629q-101 35 -250 116q-167 -408 -211 -895zM743 1319q-2 -82 -2 -209q0 -187 4 -309.5t18 -278t47 -297.5t85 -282l-127 -56q-106 243 -139 557q-234 -106 -490 -145q0 -250 41 -362l-129 -46q-51 135 -51 359q0 183 29 380t76 366
t94 300t94 234q254 -148 450 -211zM729 1855l117 -73q-65 -100 -148.5 -152.5t-171.5 -52.5q-173 0 -303 188l113 76q88 -125 192 -125q107 0 201 139z" />
    <glyph glyph-name="abreve" unicode="&#x103;" horiz-adv-x="835" 
d="M76 987q164 -40 297.5 -143t219 -243.5t135.5 -299.5t63 -326l-140 -10q-3 57 -16 129q-224 -94 -416 -94q-86 0 -219 18q29 241 98 417t185 306q-106 80 -238 111zM154 139q25 -4 63 -4q97 0 186.5 23.5t200.5 70.5q-69 247 -221 418q-176 -199 -229 -508zM524 1335
l117 -73q-65 -100 -148 -152.5t-171 -52.5q-174 0 -304 188l113 76q88 -125 193 -125q106 0 200 139z" />
    <glyph glyph-name="Aogonek" unicode="&#x104;" horiz-adv-x="899" 
d="M895 -440l-43 -129q-143 20 -220 90.5t-77 183.5q0 148 158 328q-62 193 -84 411q-234 -106 -490 -145q0 -250 41 -362l-129 -46q-51 135 -51 359q0 183 29 380t76 366t94 300t94 234q254 -148 450 -211q-2 -82 -2 -209q0 -143 2 -238.5t10 -231.5t24 -241t45.5 -227
t72.5 -229l-123 -54q-76 -97 -76 -180q0 -38 15 -65t44.5 -43.5t61.5 -25t78 -15.5zM147 440q243 41 469 150q-8 156 -8 629q-101 35 -250 116q-167 -408 -211 -895z" />
    <glyph glyph-name="aogonek" unicode="&#x105;" horiz-adv-x="847" 
d="M803 -440l-43 -129q-143 20 -220 90.5t-77 183.5q0 82 49.5 174t128.5 178l-6 37q-224 -94 -416 -94q-86 0 -219 18q29 241 98 417t185 306q-106 80 -238 111l31 135q164 -40 297.5 -143t219 -243.5t135.5 -299.5t63 -326l-41 -2q-146 -158 -146 -264q0 -38 15 -65
t44.5 -43.5t61.5 -25t78 -15.5zM154 139q25 -4 63 -4q97 0 186.5 23.5t200.5 70.5q-69 247 -221 418q-176 -199 -229 -508z" />
    <glyph glyph-name="Cacute" unicode="&#x106;" horiz-adv-x="720" 
d="M584 276l125 -57q-73 -152 -139.5 -252.5t-170.5 -195.5q-14 14 -37 40t-84 114t-111.5 184t-99.5 244.5t-67 301.5q23 123 59.5 237.5t77 200t84.5 160t83.5 124.5t71 86t50.5 53l18 16q83 -62 137 -126.5t105 -152.5l-123 -65q-48 88 -110 147q-10 -11 -26.5 -32
t-62.5 -90t-84.5 -143t-79.5 -187.5t-61 -227.5q11 -99 42 -203.5t67.5 -183t71.5 -143.5t58 -99l23 -34q109 129 183 284zM440 1581l-80 113l304 215l79 -115z" />
    <glyph glyph-name="cacute" unicode="&#x107;" horiz-adv-x="720" 
d="M666 102l-39 -133q-201 61 -352.5 165t-284.5 286q74 177 205 325t307 242l57 -123q-131 -73 -239.5 -186t-172.5 -240q99 -128 226 -206.5t293 -129.5zM289 1061l-80 113l303 215l80 -115z" />
    <glyph glyph-name="Ccircumflex" unicode="&#x108;" horiz-adv-x="720" 
d="M584 276l125 -57q-73 -152 -139.5 -252.5t-170.5 -195.5q-14 14 -37 40t-84 114t-111.5 184t-99.5 244.5t-67 301.5q23 123 59.5 237.5t77 200t84.5 160t83.5 124.5t71 86t50.5 53l18 16q83 -62 137 -126.5t105 -152.5l-123 -65q-48 88 -110 147q-10 -11 -26.5 -32
t-62.5 -90t-84.5 -143t-79.5 -187.5t-61 -227.5q11 -99 42 -203.5t67.5 -183t71.5 -143.5t58 -99l23 -34q109 129 183 284zM319 1561l-110 86l235 290q119 -114 238 -280l-115 -80q-44 66 -116 149z" />
    <glyph glyph-name="ccircumflex" unicode="&#x109;" horiz-adv-x="720" 
d="M666 102l-39 -133q-201 61 -352.5 165t-284.5 286q74 177 205 325t307 242l57 -123q-131 -73 -239.5 -186t-172.5 -240q99 -128 226 -206.5t293 -129.5zM238 1040l-111 86l235 291q119 -114 238 -280l-115 -80q-44 66 -116 149z" />
    <glyph glyph-name="Cdotaccent" unicode="&#x10a;" horiz-adv-x="720" 
d="M584 276l125 -57q-73 -152 -139.5 -252.5t-170.5 -195.5q-14 14 -37 40t-84 114t-111.5 184t-99.5 244.5t-67 301.5q23 123 59.5 237.5t77 200t84.5 160t83.5 124.5t71 86t50.5 53l18 16q83 -62 137 -126.5t105 -152.5l-123 -65q-48 88 -110 147q-10 -11 -26.5 -32
t-62.5 -90t-84.5 -143t-79.5 -187.5t-61 -227.5q11 -99 42 -203.5t67.5 -183t71.5 -143.5t58 -99l23 -34q109 129 183 284zM350 1722q0 38 28 65.5t66 27.5q40 0 67.5 -27.5t27.5 -65.5q0 -40 -27.5 -67t-67.5 -27q-39 0 -66.5 27.5t-27.5 66.5z" />
    <glyph glyph-name="cdotaccent" unicode="&#x10b;" horiz-adv-x="720" 
d="M666 102l-39 -133q-201 61 -352.5 165t-284.5 286q74 177 205 325t307 242l57 -123q-131 -73 -239.5 -186t-172.5 -240q99 -128 226 -206.5t293 -129.5zM268 1202q0 38 28 65t66 27q40 0 67.5 -27t27.5 -65q0 -40 -27.5 -67t-67.5 -27q-39 0 -66.5 27.5t-27.5 66.5z" />
    <glyph glyph-name="Ccaron" unicode="&#x10c;" horiz-adv-x="720" 
d="M584 276l125 -57q-73 -152 -139.5 -252.5t-170.5 -195.5q-14 14 -37 40t-84 114t-111.5 184t-99.5 244.5t-67 301.5q23 123 59.5 237.5t77 200t84.5 160t83.5 124.5t71 86t50.5 53l18 16q83 -62 137 -126.5t105 -152.5l-123 -65q-48 88 -110 147q-10 -11 -26.5 -32
t-62.5 -90t-84.5 -143t-79.5 -187.5t-61 -227.5q11 -99 42 -203.5t67.5 -183t71.5 -143.5t58 -99l23 -34q109 129 183 284zM573 1937l111 -84l-238 -292q-118 117 -235 282l113 80q56 -80 116 -149z" />
    <glyph glyph-name="ccaron" unicode="&#x10d;" horiz-adv-x="720" 
d="M666 102l-39 -133q-201 61 -352.5 165t-284.5 286q74 177 205 325t307 242l57 -123q-131 -73 -239.5 -186t-172.5 -240q99 -128 226 -206.5t293 -129.5zM516 1417l111 -84l-238 -293q-115 115 -235 283l112 80q56 -79 117 -150z" />
    <glyph glyph-name="Dcaron" unicode="&#x10e;" horiz-adv-x="862" 
d="M199 37q308 181 487 485q-50 157 -118 291.5t-134 225.5t-158 194q-100 -397 -100 -821q0 -173 23 -375zM358 1487l-34 -98q123 -133 206.5 -245.5t163.5 -274.5t142 -367q-134 -218 -269 -354t-348 -259l17 -79l-138 -29q-59 307 -59 633q0 607 190 1122zM418 1937
l110 -84l-237 -292q-121 121 -236 282l113 80q52 -74 117 -149z" />
    <glyph glyph-name="dcaron" unicode="&#x10f;" horiz-adv-x="782" 
d="M137 408q168 -43 379 -43q74 200 74 426q-143 -44 -259 -145t-194 -238zM762 225l-156 -2q-59 -129 -147 -256l-113 78q76 115 109 182q-291 13 -508 105q51 111 107.5 198.5t131 166.5t171 137.5t214.5 95.5q-58 296 -290 493l88 107q180 -154 269 -352.5t89 -421.5
q0 -202 -65 -394h100v-137zM162 2l143 12q-30 -253 -229 -372l-70 120q132 79 156 240z" />
    <glyph glyph-name="Dcroat" unicode="&#x110;" horiz-adv-x="862" 
d="M199 37q308 181 487 485q-50 157 -118 291.5t-134 225.5t-158 194q-100 -397 -100 -821q0 -173 23 -375zM358 1487l-34 -98q123 -133 206.5 -245.5t163.5 -274.5t142 -367q-134 -218 -269 -354t-348 -259l17 -79l-138 -29q-59 307 -59 633q0 607 190 1122zM-39 1599v140
h614v-140h-614z" />
    <glyph glyph-name="dcroat" unicode="&#x111;" horiz-adv-x="782" 
d="M313 1116v139h121q-64 91 -153 168l88 107q141 -123 229 -275h199v-139h-135q65 -174 65 -360q0 -202 -65 -394h100v-139h-156q-59 -129 -147 -256l-113 78q76 115 109 182q-291 13 -508 105q51 111 107.5 198.5t131 166.5t171 137.5t214.5 95.5q-23 106 -59 186h-199z
M137 408q168 -43 379 -43q74 200 74 426q-143 -44 -259 -145t-194 -238z" />
    <glyph glyph-name="Emacron" unicode="&#x112;" horiz-adv-x="821" 
d="M791 23l22 -138q-73 -12 -149 -12q-358 0 -662 199q0 245 58 425.5t196 350.5q-82 19 -207 82q18 74 49.5 151.5t81.5 159t110 145t141.5 104t168.5 40.5v-139q-66 0 -131 -39t-114.5 -99.5t-85.5 -124t-56 -122.5q172 -54 432 -54v-137q-41 -2 -82 -2q-36 0 -72 2.5
t-55 4.5l-18 3q-137 -139 -209 -311t-72 -365q107 -63 247.5 -99t274.5 -36q57 0 132 11zM135 1599v140h615v-140h-615z" />
    <glyph glyph-name="emacron" unicode="&#x113;" 
d="M256 279q67 16 139.5 50t124.5 77q-53 83 -186 176q-66 -100 -78 -303zM283 762q145 -69 241.5 -156.5t171.5 -228.5q-183 -177 -436 -240q24 -174 122.5 -284t266.5 -127l-12 -138q-215 21 -347.5 162.5t-164.5 362.5q-97 -11 -158 -11v138q86 0 150 10q3 256 166 512z
M35 909v140h614v-140h-614z" />
    <glyph glyph-name="Ebreve" unicode="&#x114;" horiz-adv-x="821" 
d="M791 23l22 -138q-73 -12 -149 -12q-358 0 -662 199q0 245 58 425.5t196 350.5q-82 19 -207 82q18 74 49.5 151.5t81.5 159t110 145t141.5 104t168.5 40.5v-139q-66 0 -131 -39t-114.5 -99.5t-85.5 -124t-56 -122.5q172 -54 432 -54v-137q-41 -2 -82 -2q-36 0 -72 2.5
t-55 4.5l-18 3q-137 -139 -209 -311t-72 -365q107 -63 247.5 -99t274.5 -36q57 0 132 11zM684 1855l117 -73q-65 -100 -148.5 -152.5t-171.5 -52.5q-173 0 -303 188l113 76q88 -125 192 -125q107 0 201 139z" />
    <glyph glyph-name="ebreve" unicode="&#x115;" 
d="M256 279q67 16 139.5 50t124.5 77q-53 83 -186 176q-66 -100 -78 -303zM283 762q145 -69 241.5 -156.5t171.5 -228.5q-183 -177 -436 -240q24 -174 122.5 -284t266.5 -127l-12 -138q-215 21 -347.5 162.5t-164.5 362.5q-97 -11 -158 -11v138q86 0 150 10q3 256 166 512z
M537 1188l116 -74q-65 -100 -148 -152.5t-171 -52.5q-172 0 -303 189l112 76q88 -125 193 -125q107 0 201 139z" />
    <glyph glyph-name="Edotaccent" unicode="&#x116;" horiz-adv-x="821" 
d="M791 23l22 -138q-73 -12 -149 -12q-358 0 -662 199q0 245 58 425.5t196 350.5q-82 19 -207 82q18 74 49.5 151.5t81.5 159t110 145t141.5 104t168.5 40.5v-139q-66 0 -131 -39t-114.5 -99.5t-85.5 -124t-56 -122.5q172 -54 432 -54v-137q-41 -2 -82 -2q-36 0 -72 2.5
t-55 4.5l-18 3q-137 -139 -209 -311t-72 -365q107 -63 247.5 -99t274.5 -36q57 0 132 11zM422 1722q0 38 28 65.5t66 27.5q40 0 67 -27.5t27 -65.5q0 -40 -27 -67t-67 -27q-39 0 -66.5 27.5t-27.5 66.5z" />
    <glyph glyph-name="edotaccent" unicode="&#x117;" 
d="M256 279q67 16 139.5 50t124.5 77q-53 83 -186 176q-66 -100 -78 -303zM283 762q145 -69 241.5 -156.5t171.5 -228.5q-183 -177 -436 -240q24 -174 122.5 -284t266.5 -127l-12 -138q-215 21 -347.5 162.5t-164.5 362.5q-97 -11 -158 -11v138q86 0 150 10q3 256 166 512z
M248 999q0 38 28 65.5t66 27.5q40 0 67 -27t27 -66q0 -40 -27 -67t-67 -27q-39 0 -66.5 27.5t-27.5 66.5z" />
    <glyph glyph-name="Eogonek" unicode="&#x118;" horiz-adv-x="821" 
d="M791 23l22 -138q-73 -12 -149 -12q-205 0 -408 72q-121 -135 -121 -236q0 -38 15 -65t44.5 -43.5t61.5 -25t78 -15.5l-43 -129q-143 20 -220 90.5t-77 183.5q0 136 131 295q-84 45 -123 72q0 245 58 425.5t196 350.5q-82 19 -207 82q18 74 49.5 151.5t81.5 159t110 145
t141.5 104t168.5 40.5v-139q-66 0 -131 -39t-114.5 -99.5t-85.5 -124t-56 -122.5q172 -54 432 -54v-137q-41 -2 -82 -2q-36 0 -72 2.5t-55 4.5l-18 3q-137 -139 -209 -311t-72 -365q107 -63 247.5 -99t274.5 -36q57 0 132 11z" />
    <glyph glyph-name="eogonek" unicode="&#x119;" 
d="M481 -686l-43 -129q-143 20 -220 90.5t-77 183.5q0 133 138 303q-127 139 -154 351q-97 -11 -158 -11v138q86 0 150 10q3 256 166 512q145 -69 241.5 -156.5t171.5 -228.5q-183 -177 -436 -240q24 -174 122.5 -284t266.5 -127l-12 -138q-142 14 -256 86
q-98 -117 -98 -211q0 -38 14.5 -65t44.5 -43.5t61.5 -25t77.5 -15.5zM256 279q67 16 139.5 50t124.5 77q-53 83 -186 176q-66 -100 -78 -303z" />
    <glyph glyph-name="Ecaron" unicode="&#x11a;" horiz-adv-x="821" 
d="M791 23l22 -138q-73 -12 -149 -12q-358 0 -662 199q0 245 58 425.5t196 350.5q-82 19 -207 82q18 74 49.5 151.5t81.5 159t110 145t141.5 104t168.5 40.5v-139q-66 0 -131 -39t-114.5 -99.5t-85.5 -124t-56 -122.5q172 -54 432 -54v-137q-41 -2 -82 -2q-36 0 -72 2.5
t-55 4.5l-18 3q-137 -139 -209 -311t-72 -365q107 -63 247.5 -99t274.5 -36q57 0 132 11zM604 1937l111 -84l-238 -292q-118 117 -235 282l112 80q52 -74 117 -149z" />
    <glyph glyph-name="ecaron" unicode="&#x11b;" 
d="M256 279q67 16 139.5 50t124.5 77q-53 83 -186 176q-66 -100 -78 -303zM283 762q145 -69 241.5 -156.5t171.5 -228.5q-183 -177 -436 -240q24 -174 122.5 -284t266.5 -127l-12 -138q-215 21 -347.5 162.5t-164.5 362.5q-97 -11 -158 -11v138q86 0 150 10q3 256 166 512z
M469 1288l111 -84l-238 -293q-118 119 -236 283l113 80q55 -80 117 -150z" />
    <glyph glyph-name="Gcircumflex" unicode="&#x11c;" horiz-adv-x="927" 
d="M412 709h469q0 -576 -404 -899q-199 194 -317.5 432.5t-118.5 492.5q0 88 15.5 177t46.5 176t81.5 163.5t115.5 136.5t153.5 97.5t191.5 44.5q33 2 105 2v-395h-136v252q-111 -11 -197.5 -74.5t-137 -158.5t-76 -203t-25.5 -220q0 -186 78.5 -372.5t226.5 -358.5
q110 119 178 265.5t78 301.5h-327v140zM475 1561l-110 86l235 290q119 -114 238 -280l-115 -80q-40 61 -117 149z" />
    <glyph glyph-name="gcircumflex" unicode="&#x11d;" horiz-adv-x="815" 
d="M137 516q173 -81 359 -96q-31 267 -142 416q-165 -144 -217 -320zM850 317q-106 -31 -209 -34q-1 -116 -16.5 -222t-52.5 -214t-94.5 -199t-145.5 -172t-201 -138l-205 263l111 82l131 -170q120 82 197.5 208t108 262.5t30.5 297.5q-263 17 -531 165l2 9
q47 189 141.5 323t250.5 234q64 -44 114.5 -114t80.5 -152.5t47.5 -162.5t23.5 -163q75 2 180 31zM283 1040l-111 86l236 291q116 -111 237 -280l-115 -80q-44 66 -116 149z" />
    <glyph glyph-name="Gbreve" unicode="&#x11e;" horiz-adv-x="927" 
d="M412 709h469q0 -576 -404 -899q-199 194 -317.5 432.5t-118.5 492.5q0 88 15.5 177t46.5 176t81.5 163.5t115.5 136.5t153.5 97.5t191.5 44.5q33 2 105 2v-395h-136v252q-111 -11 -197.5 -74.5t-137 -158.5t-76 -203t-25.5 -220q0 -186 78.5 -372.5t226.5 -358.5
q110 119 178 265.5t78 301.5h-327v140zM811 1855l117 -73q-65 -100 -148.5 -152.5t-171.5 -52.5q-173 0 -303 188l113 76q88 -125 192 -125q107 0 201 139z" />
    <glyph glyph-name="gbreve" unicode="&#x11f;" horiz-adv-x="815" 
d="M137 516q173 -81 359 -96q-31 267 -142 416q-165 -144 -217 -320zM850 317q-106 -31 -209 -34q-1 -116 -16.5 -222t-52.5 -214t-94.5 -199t-145.5 -172t-201 -138l-205 263l111 82l131 -170q120 82 197.5 208t108 262.5t30.5 297.5q-263 17 -531 165l2 9
q47 189 141.5 323t250.5 234q64 -44 114.5 -114t80.5 -152.5t47.5 -162.5t23.5 -163q75 2 180 31zM602 1335l117 -73q-65 -100 -148.5 -152.5t-171.5 -52.5q-173 0 -303 188l113 76q88 -125 192 -125q107 0 201 139z" />
    <glyph glyph-name="Gdotaccent" unicode="&#x120;" horiz-adv-x="927" 
d="M412 709h469q0 -576 -404 -899q-199 194 -317.5 432.5t-118.5 492.5q0 88 15.5 177t46.5 176t81.5 163.5t115.5 136.5t153.5 97.5t191.5 44.5q33 2 105 2v-395h-136v252q-111 -11 -197.5 -74.5t-137 -158.5t-76 -203t-25.5 -220q0 -186 78.5 -372.5t226.5 -358.5
q110 119 178 265.5t78 301.5h-327v140zM520 1722q0 38 28 65.5t66 27.5q40 0 67.5 -27.5t27.5 -65.5q0 -40 -27.5 -67t-67.5 -27q-39 0 -66.5 27.5t-27.5 66.5z" />
    <glyph glyph-name="gdotaccent" unicode="&#x121;" horiz-adv-x="815" 
d="M137 516q173 -81 359 -96q-31 267 -142 416q-165 -144 -217 -320zM850 317q-106 -31 -209 -34q-1 -116 -16.5 -222t-52.5 -214t-94.5 -199t-145.5 -172t-201 -138l-205 263l111 82l131 -170q120 82 197.5 208t108 262.5t30.5 297.5q-263 17 -531 165l2 9
q47 189 141.5 323t250.5 234q64 -44 114.5 -114t80.5 -152.5t47.5 -162.5t23.5 -163q75 2 180 31zM313 1202q0 38 28 65t67 27q40 0 67 -27t27 -65q0 -40 -27 -67t-67 -27q-39 0 -67 27.5t-28 66.5z" />
    <glyph glyph-name="Gcommaaccent" unicode="&#x122;" horiz-adv-x="927" 
d="M412 709h469q0 -576 -404 -899q-199 194 -317.5 432.5t-118.5 492.5q0 88 15.5 177t46.5 176t81.5 163.5t115.5 136.5t153.5 97.5t191.5 44.5q33 2 105 2v-395h-136v252q-111 -11 -197.5 -74.5t-137 -158.5t-76 -203t-25.5 -220q0 -186 78.5 -372.5t226.5 -358.5
q110 119 178 265.5t78 301.5h-327v140zM244 -139l143 12q-30 -254 -229 -373l-70 121q132 79 156 240z" />
    <glyph glyph-name="gcommaaccent" unicode="&#x123;" horiz-adv-x="815" 
d="M137 516q173 -81 359 -96q-31 267 -142 416q-165 -144 -217 -320zM850 317q-106 -31 -209 -34q-1 -116 -16.5 -222t-52.5 -214t-94.5 -199t-145.5 -172t-201 -138l-205 263l111 82l131 -170q120 82 197.5 208t108 262.5t30.5 297.5q-263 17 -531 165l2 9
q47 189 141.5 323t250.5 234q64 -44 114.5 -114t80.5 -152.5t47.5 -162.5t23.5 -163q75 2 180 31zM240 150l143 12q-30 -254 -229 -373l-70 121q132 79 156 240z" />
    <glyph glyph-name="Hcircumflex" unicode="&#x124;" horiz-adv-x="890" 
d="M893 793l4 -138q-116 -4 -176 -10q-8 -109 -8 -242q0 -317 55 -598l-135 -28q-60 300 -60 622q0 59 9 230q-266 -38 -422 -133q0 -425 53 -691l-135 -28q-60 303 -60 629q0 108 2 163q29 531 189 963l129 -49q-138 -378 -170 -828q175 84 424 115q39 404 170 762l129 -49
q-115 -319 -158 -699q79 6 160 9zM426 1561l-111 86l236 290q116 -111 237 -280l-114 -80q-40 61 -117 149z" />
    <glyph glyph-name="hcircumflex" unicode="&#x125;" horiz-adv-x="800" 
d="M145 666q311 0 473 -176t162 -500l-184 -193l-100 97l145 151q-6 235 -119.5 346t-351.5 133q59 -232 209 -442l-115 -78q-127 183 -195.5 382t-68.5 394q0 213 86.5 405t265.5 347l90 -107q-303 -260 -303 -647q0 -75 6 -112zM305 762l-110 86l235 291
q117 -112 238 -281l-115 -80q-43 65 -117 150z" />
    <glyph glyph-name="Hbar" unicode="&#x126;" horiz-adv-x="890" 
d="M893 793l4 -138q-116 -4 -176 -10q-8 -109 -8 -242q0 -317 55 -598l-135 -28q-60 300 -60 622q0 59 9 230q-266 -38 -422 -133q0 -425 53 -691l-135 -28q-60 303 -60 629q0 108 2 163q29 531 189 963l129 -49q-52 -140 -94 -316l418 31q43 179 100 334l129 -49
q-115 -319 -158 -699q79 6 160 9zM592 770q9 106 39 287l-416 -31q-35 -189 -47 -371q175 84 424 115z" />
    <glyph glyph-name="hbar" unicode="&#x127;" horiz-adv-x="800" 
d="M-76 1079v140h178q87 172 250 313l90 -107q-107 -91 -180 -206h277v-140h-349q-51 -137 -51 -301q0 -75 6 -112q311 0 473 -176t162 -500l-184 -193l-100 97l145 151q-6 235 -119.5 346t-351.5 133q59 -232 209 -442l-115 -78q-127 183 -195.5 382t-68.5 394
q0 157 45 299h-121z" />
    <glyph glyph-name="Itilde" unicode="&#x128;" horiz-adv-x="368" 
d="M215 -193l-137 -28q-60 312 -60 635q0 606 191 1120l129 -49q-180 -488 -180 -1071q0 -325 57 -607zM604 1917l96 -100l-251 -248l-252 186l-164 -153l-94 100l247 233l250 -184z" />
    <glyph glyph-name="itilde" unicode="&#x129;" horiz-adv-x="442" 
d="M475 78l-90 -103q-169 153 -251.5 355.5t-82.5 437.5v41l137 -6v-35q0 -425 287 -690zM401 1257l97 -100l-252 -248l-252 187l-164 -154l-94 100l248 234l249 -184z" />
    <glyph glyph-name="Imacron" unicode="&#x12a;" horiz-adv-x="368" 
d="M215 -193l-137 -28q-60 312 -60 635q0 606 191 1120l129 -49q-180 -488 -180 -1071q0 -325 57 -607zM-27 1599v140h615v-140h-615z" />
    <glyph glyph-name="imacron" unicode="&#x12b;" horiz-adv-x="442" 
d="M475 78l-90 -103q-169 153 -251.5 355.5t-82.5 437.5v41l137 -6v-35q0 -425 287 -690zM-190 909v140h614v-140h-614z" />
    <glyph glyph-name="Ibreve" unicode="&#x12c;" horiz-adv-x="368" 
d="M215 -193l-137 -28q-60 312 -60 635q0 606 191 1120l129 -49q-180 -488 -180 -1071q0 -325 57 -607zM506 1855l117 -73q-65 -100 -148.5 -152.5t-171.5 -52.5q-173 0 -303 188l113 76q88 -125 192 -125q107 0 201 139z" />
    <glyph glyph-name="ibreve" unicode="&#x12d;" horiz-adv-x="442" 
d="M475 78l-90 -103q-169 153 -251.5 355.5t-82.5 437.5v41l137 -6v-35q0 -425 287 -690zM311 1188l117 -74q-65 -100 -148 -152.5t-171 -52.5q-173 0 -304 189l113 76q88 -125 193 -125q106 0 200 139z" />
    <glyph glyph-name="Iogonek" unicode="&#x12e;" horiz-adv-x="368" 
d="M215 -193l-137 -28q-15 75 -17 94q-63 -90 -63 -164q0 -38 15 -65t44.5 -43.5t61.5 -25t78 -15.5l-43 -129q-143 20 -220 90.5t-77 183.5q0 157 180 352q-19 185 -19 357q0 606 191 1120l129 -49q-180 -488 -180 -1071q0 -325 57 -607z" />
    <glyph glyph-name="iogonek" unicode="&#x12f;" horiz-adv-x="442" 
d="M432 -440l-43 -129q-143 20 -220 90.5t-77 183.5q0 86 55.5 184t141.5 187q-238 283 -238 692v41l137 -6v-35q0 -425 287 -690q-128 -136 -185 -219t-57 -150q0 -38 15 -65t44.5 -43.5t61.5 -25t78 -15.5zM80 911l-80 111l174 123l78 -113z" />
    <glyph glyph-name="Idotaccent" unicode="&#x130;" horiz-adv-x="368" 
d="M215 -193l-137 -28q-60 312 -60 635q0 606 191 1120l129 -49q-180 -488 -180 -1071q0 -325 57 -607zM223 1722q0 38 28 65.5t66 27.5q40 0 67.5 -27.5t27.5 -65.5q0 -40 -27.5 -67t-67.5 -27q-39 0 -66.5 27.5t-27.5 66.5z" />
    <glyph glyph-name="dotlessi" unicode="&#x131;" horiz-adv-x="442" 
d="M475 78l-90 -103q-169 153 -251.5 355.5t-82.5 437.5v41l137 -6v-35q0 -425 287 -690z" />
    <glyph glyph-name="Jcircumflex" unicode="&#x134;" horiz-adv-x="931" 
d="M0 133l96 100l291 -280q91 118 152 244.5t94 262t46 267t13 291.5v364q-88 13 -190 13q-103 0 -205 -21l-29 135q109 23 234 23q146 0 321 -33v-557q0 -361 -97 -649.5t-329 -538.5zM420 1561l-111 86l236 290q116 -111 237 -280l-114 -80q-40 61 -117 149z" />
    <glyph glyph-name="jcircumflex" unicode="&#x135;" horiz-adv-x="577" 
d="M94 1040l-110 86l235 291q119 -114 238 -280l-115 -80q-40 61 -117 149zM35 799l178 139q62 -37 111.5 -101t80 -137t51 -159t28.5 -163.5t8 -154.5q0 -138 -31 -270.5t-92 -252t-162 -213t-230 -142.5l-202 247l108 86l131 -161q87 47 154 127t106 175.5t58.5 196.5
t19.5 205q0 354 -145 541l-84 -70z" />
    <glyph glyph-name="Kcommaaccent" unicode="&#x136;" horiz-adv-x="894" 
d="M406 1012q178 -182 277 -352.5t141 -363t46 -468.5h-137q-2 183 -20.5 316t-66 264.5t-129.5 250.5t-212 252q12 -153 12 -307q0 -329 -59 -627l-133 29q55 287 55 604q0 585 -180 1073l129 50q109 -293 156 -646l428 429l98 -99zM440 -139l144 12q-30 -253 -230 -373
l-69 121q131 78 155 240z" />
    <glyph glyph-name="kcommaaccent" unicode="&#x137;" horiz-adv-x="737" 
d="M743 809l-428 -303l373 -438l-104 -91l-340 396q-17 -103 -49.5 -215t-73.5 -191l-121 64q75 149 117.5 392t42.5 447q0 364 -133 588l118 74q152 -258 152 -658q0 -101 -10 -221l372 267zM254 -139l143 12q-30 -254 -229 -373l-70 121q132 79 156 240z" />
    <glyph glyph-name="kgreenlandic" unicode="&#x138;" horiz-adv-x="737" 
d="M143 1100l136 41q18 -113 18 -267q0 -101 -10 -221l372 267l84 -111l-428 -303l373 -438l-104 -91l-340 396q-17 -103 -49.5 -215t-73.5 -191l-121 64q75 149 117.5 392t42.5 447q0 104 -17 230z" />
    <glyph glyph-name="Lacute" unicode="&#x139;" horiz-adv-x="980" 
d="M891 342l98 -96q-274 -277 -719 -277q-55 0 -157 4q-52 190 -80.5 360t-28.5 367q0 250 56 468.5t178 363.5l106 -88q-107 -124 -155 -324.5t-48 -427.5q0 -153 18.5 -284t59.5 -299q222 0 383.5 50.5t288.5 182.5zM334 1581l-80 113l303 215l80 -115z" />
    <glyph glyph-name="lacute" unicode="&#x13a;" horiz-adv-x="460" 
d="M373 51l-115 -80q-233 359 -233 682q0 281 147.5 515t388.5 366l64 -123q-217 -114 -340 -316.5t-123 -435.5q0 -305 211 -608zM344 1491l-80 113l303 215l80 -115z" />
    <glyph glyph-name="Lcommaaccent" unicode="&#x13b;" horiz-adv-x="980" 
d="M891 342l98 -96q-274 -277 -719 -277q-55 0 -157 4q-52 190 -80.5 360t-28.5 367q0 250 56 468.5t178 363.5l106 -88q-107 -124 -155 -324.5t-48 -427.5q0 -153 18.5 -284t59.5 -299q222 0 383.5 50.5t288.5 182.5zM332 -139l143 12q-30 -254 -229 -373l-70 121
q132 79 156 240z" />
    <glyph glyph-name="lcommaaccent" unicode="&#x13c;" horiz-adv-x="460" 
d="M373 51l-115 -80q-233 359 -233 682q0 281 147.5 515t388.5 366l64 -123q-217 -114 -340 -316.5t-123 -435.5q0 -305 211 -608zM272 -139l144 12q-30 -253 -230 -373l-69 121q131 78 155 240z" />
    <glyph glyph-name="Lcaron" unicode="&#x13d;" horiz-adv-x="980" 
d="M891 342l98 -96q-274 -277 -719 -277q-55 0 -157 4q-52 190 -80.5 360t-28.5 367q0 250 56 468.5t178 363.5l106 -88q-107 -124 -155 -324.5t-48 -427.5q0 -153 18.5 -284t59.5 -299q222 0 383.5 50.5t288.5 182.5zM524 1874l111 -84l-238 -293q-115 115 -235 283l112 80
q56 -80 117 -150z" />
    <glyph glyph-name="lcaron" unicode="&#x13e;" horiz-adv-x="460" 
d="M373 51l-115 -80q-233 359 -233 682q0 281 147.5 515t388.5 366l64 -123q-217 -114 -340 -316.5t-123 -435.5q0 -305 211 -608zM512 1909l111 -84l-238 -293q-115 115 -235 283l112 79q52 -74 117 -149z" />
    <glyph glyph-name="Ldot" unicode="&#x13f;" horiz-adv-x="980" 
d="M891 342l98 -96q-274 -277 -719 -277q-55 0 -157 4q-52 190 -80.5 360t-28.5 367q0 250 56 468.5t178 363.5l106 -88q-107 -124 -155 -324.5t-48 -427.5q0 -153 18.5 -284t59.5 -299q222 0 383.5 50.5t288.5 182.5zM375 758q0 38 28 65t66 27q40 0 67 -27t27 -65
q0 -40 -27 -67t-67 -27q-39 0 -66.5 27.5t-27.5 66.5z" />
    <glyph glyph-name="ldot" unicode="&#x140;" horiz-adv-x="460" 
d="M373 51l-115 -80q-233 359 -233 682q0 281 147.5 515t388.5 366l64 -123q-217 -114 -340 -316.5t-123 -435.5q0 -305 211 -608zM346 762q0 38 28 65t66 27q40 0 67.5 -27t27.5 -65q0 -40 -27.5 -67t-67.5 -27q-39 0 -66.5 27.5t-27.5 66.5z" />
    <glyph glyph-name="Lslash" unicode="&#x141;" horiz-adv-x="980" 
d="M-154 936v139l207 64q61 247 185 393l106 -88q-86 -103 -135 -256l252 80v-140l-291 -92q-29 -164 -29 -344q0 -153 18.5 -284t59.5 -299q222 0 383.5 50.5t288.5 182.5l98 -96q-274 -277 -719 -277q-55 0 -157 4q-52 190 -80.5 360t-28.5 367q0 139 19 291z" />
    <glyph glyph-name="lslash" unicode="&#x142;" horiz-adv-x="460" 
d="M-82 813v139l172 54q67 169 189 305t282 223l64 -123q-235 -125 -361 -350l268 84v-139l-335 -105q-35 -119 -35 -242q0 -305 211 -608l-115 -80q-233 359 -233 682q0 109 20 199z" />
    <glyph glyph-name="Nacute" unicode="&#x143;" horiz-adv-x="870" 
d="M686 -137l-129 -49q-107 262 -173 553.5t-114 666.5q-70 -280 -100.5 -554t-30.5 -593h-139q0 433 58.5 797.5t177.5 824.5l122 19q55 -622 197 -1237q24 643 166 1247l135 -33q-94 -405 -135 -819q-31 -297 -35 -823zM522 1581l-80 113l303 215l80 -115z" />
    <glyph glyph-name="nacute" unicode="&#x144;" horiz-adv-x="788" 
d="M332 872q126 -31 228 -85.5t208 -141.5q-53 -223 -139 -377t-248 -299l-90 103q247 217 321 522q-152 111 -348 154q-33 -88 -33 -199q0 -126 52 -246l-127 -55q-64 140 -64 303q0 115 33 215l-94 -4l-15 137q36 8 82 8q45 0 84 -8q68 113 170 176l74 -117
q-53 -33 -94 -86zM485 1061l-79 113l303 215l79 -115z" />
    <glyph glyph-name="Ncommaaccent" unicode="&#x145;" horiz-adv-x="870" 
d="M686 -137l-129 -49q-107 262 -173 553.5t-114 666.5q-70 -280 -100.5 -554t-30.5 -593h-139q0 433 58.5 797.5t177.5 824.5l122 19q55 -622 197 -1237q24 643 166 1247l135 -33q-94 -405 -135 -819q-31 -297 -35 -823zM266 -139l144 12q-30 -253 -230 -373l-69 121
q131 78 155 240z" />
    <glyph glyph-name="ncommaaccent" unicode="&#x146;" horiz-adv-x="788" 
d="M332 872q126 -31 228 -85.5t208 -141.5q-53 -223 -139 -377t-248 -299l-90 103q247 217 321 522q-152 111 -348 154q-33 -88 -33 -199q0 -126 52 -246l-127 -55q-64 140 -64 303q0 115 33 215l-94 -4l-15 137q36 8 82 8q45 0 84 -8q68 113 170 176l74 -117
q-53 -33 -94 -86zM139 -139l144 12q-30 -253 -230 -373l-69 121q131 78 155 240z" />
    <glyph glyph-name="Ncaron" unicode="&#x147;" horiz-adv-x="870" 
d="M686 -137l-129 -49q-107 262 -173 553.5t-114 666.5q-70 -280 -100.5 -554t-30.5 -593h-139q0 433 58.5 797.5t177.5 824.5l122 19q55 -622 197 -1237q24 643 166 1247l135 -33q-94 -405 -135 -819q-31 -297 -35 -823zM664 1937l110 -84l-237 -292q-121 121 -236 282
l113 80q56 -80 116 -149z" />
    <glyph glyph-name="ncaron" unicode="&#x148;" horiz-adv-x="788" 
d="M332 872q126 -31 228 -85.5t208 -141.5q-53 -223 -139 -377t-248 -299l-90 103q247 217 321 522q-152 111 -348 154q-33 -88 -33 -199q0 -126 52 -246l-127 -55q-64 140 -64 303q0 115 33 215l-94 -4l-15 137q36 8 82 8q45 0 84 -8q68 113 170 176l74 -117
q-53 -33 -94 -86zM606 1417l111 -84l-238 -293q-115 115 -235 283l112 80q56 -79 117 -150z" />
    <glyph glyph-name="napostrophe" unicode="&#x149;" horiz-adv-x="788" 
d="M332 872q126 -31 228 -85.5t208 -141.5q-53 -223 -139 -377t-248 -299l-90 103q247 217 321 522q-152 111 -348 154q-33 -88 -33 -199q0 -126 52 -246l-127 -55q-64 140 -64 303q0 115 33 215l-94 -4l-15 137q36 8 82 8q45 0 84 -8q68 113 170 176l74 -117
q-53 -33 -94 -86zM170 1415l143 12q-30 -253 -229 -372l-70 121q133 79 156 239z" />
    <glyph glyph-name="Omacron" unicode="&#x14c;" horiz-adv-x="999" 
d="M416 -57q65 0 121 43t94.5 112t69 160t49 183t30.5 185.5t16.5 162t4.5 118.5q0 76 -7.5 142.5t-26 131.5t-47 111t-74.5 74.5t-105 28.5q-75 0 -139 -68.5t-107 -177t-74 -243.5t-45 -266t-14 -247q0 -64 6 -122t23.5 -120t44.5 -106.5t73.5 -73t106.5 -28.5zM23 399
q0 70 5.5 155.5t21.5 197t40 217t65 209.5t93 181t128 125t165 48q88 0 157.5 -36.5t113.5 -96.5t73 -142.5t41 -168.5t12 -181q0 -72 -6 -156.5t-22 -193.5t-40.5 -211t-66.5 -202.5t-95.5 -174.5t-131 -120t-168.5 -46q-75 0 -136 25.5t-102 71.5t-70.5 103t-46 126.5
t-23.5 135t-7 134.5zM274 1599v140h615v-140h-615z" />
    <glyph glyph-name="omacron" unicode="&#x14d;" horiz-adv-x="794" 
d="M633 352q0 115 -77 183.5t-167 68.5q-100 0 -175 -68.5t-75 -177.5q0 -111 75 -179t175 -68q41 0 83 16t78.5 45.5t59.5 76.5t23 103zM772 365q0 -116 -57 -207.5t-145.5 -139t-188.5 -47.5q-65 0 -131.5 26.5t-122.5 74t-91.5 123t-35.5 163.5q0 87 35 161.5t91 122.5
t123.5 74.5t133.5 26.5q154 0 271.5 -105.5t117.5 -272.5zM88 909v140h614v-140h-614z" />
    <glyph glyph-name="Obreve" unicode="&#x14e;" horiz-adv-x="999" 
d="M416 -57q65 0 121 43t94.5 112t69 160t49 183t30.5 185.5t16.5 162t4.5 118.5q0 76 -7.5 142.5t-26 131.5t-47 111t-74.5 74.5t-105 28.5q-75 0 -139 -68.5t-107 -177t-74 -243.5t-45 -266t-14 -247q0 -64 6 -122t23.5 -120t44.5 -106.5t73.5 -73t106.5 -28.5zM23 399
q0 70 5.5 155.5t21.5 197t40 217t65 209.5t93 181t128 125t165 48q88 0 157.5 -36.5t113.5 -96.5t73 -142.5t41 -168.5t12 -181q0 -72 -6 -156.5t-22 -193.5t-40.5 -211t-66.5 -202.5t-95.5 -174.5t-131 -120t-168.5 -46q-75 0 -136 25.5t-102 71.5t-70.5 103t-46 126.5
t-23.5 135t-7 134.5zM776 1855l117 -73q-65 -100 -148.5 -152.5t-171.5 -52.5q-173 0 -303 188l113 76q88 -125 192 -125q107 0 201 139z" />
    <glyph glyph-name="obreve" unicode="&#x14f;" horiz-adv-x="794" 
d="M633 352q0 115 -77 183.5t-167 68.5q-100 0 -175 -68.5t-75 -177.5q0 -111 75 -179t175 -68q41 0 83 16t78.5 45.5t59.5 76.5t23 103zM772 365q0 -116 -57 -207.5t-145.5 -139t-188.5 -47.5q-65 0 -131.5 26.5t-122.5 74t-91.5 123t-35.5 163.5q0 87 35 161.5t91 122.5
t123.5 74.5t133.5 26.5q154 0 271.5 -105.5t117.5 -272.5zM575 1188l117 -74q-65 -100 -148 -152.5t-171 -52.5q-172 0 -303 189l112 76q88 -125 193 -125q106 0 200 139z" />
    <glyph glyph-name="Ohungarumlaut" unicode="&#x150;" horiz-adv-x="999" 
d="M416 -57q65 0 121 43t94.5 112t69 160t49 183t30.5 185.5t16.5 162t4.5 118.5q0 76 -7.5 142.5t-26 131.5t-47 111t-74.5 74.5t-105 28.5q-75 0 -139 -68.5t-107 -177t-74 -243.5t-45 -266t-14 -247q0 -64 6 -122t23.5 -120t44.5 -106.5t73.5 -73t106.5 -28.5zM23 399
q0 70 5.5 155.5t21.5 197t40 217t65 209.5t93 181t128 125t165 48q88 0 157.5 -36.5t113.5 -96.5t73 -142.5t41 -168.5t12 -181q0 -72 -6 -156.5t-22 -193.5t-40.5 -211t-66.5 -202.5t-95.5 -174.5t-131 -120t-168.5 -46q-75 0 -136 25.5t-102 71.5t-70.5 103t-46 126.5
t-23.5 135t-7 134.5zM555 1853l80 -114l-225 -158l-80 113zM866 1853l78 -114l-223 -158l-80 113z" />
    <glyph glyph-name="ohungarumlaut" unicode="&#x151;" horiz-adv-x="794" 
d="M633 352q0 115 -77 183.5t-167 68.5q-100 0 -175 -68.5t-75 -177.5q0 -111 75 -179t175 -68q41 0 83 16t78.5 45.5t59.5 76.5t23 103zM772 365q0 -116 -57 -207.5t-145.5 -139t-188.5 -47.5q-65 0 -131.5 26.5t-122.5 74t-91.5 123t-35.5 163.5q0 87 35 161.5t91 122.5
t123.5 74.5t133.5 26.5q154 0 271.5 -105.5t117.5 -272.5zM406 1182l79 -115l-225 -158l-80 113zM717 1182l78 -115l-224 -158l-79 113z" />
    <glyph glyph-name="OE" unicode="&#x152;" horiz-adv-x="1507" 
d="M1481 23l22 -138q-73 -12 -149 -12q-329 0 -621 172q-135 -242 -348 -242q-75 0 -136 25.5t-102 71.5t-70.5 103t-46 126.5t-23.5 135t-7 134.5q0 70 5.5 155.5t21.5 197t40 217t65 209.5t93 181t128 125t165 48q258 0 344 -305q80 135 188 219t240 84v-139
q-67 0 -132 -39t-114.5 -100t-85 -124t-55.5 -122q172 -54 432 -54v-137q-41 -2 -82 -2q-36 0 -72 2.5t-55 4.5l-18 3q-137 -139 -209 -311t-72 -365q107 -63 248 -99t275 -36q56 0 131 11zM393 -57q75 0 139 56.5t107 142t74 198.5q46 280 233 508q-82 19 -207 82l23 78
q-27 387 -244 387q-75 0 -139 -68.5t-107 -177t-74 -243.5t-45 -266t-14 -247q0 -64 6 -122t23.5 -120t44.5 -106.5t73.5 -73t106.5 -28.5z" />
    <glyph glyph-name="oe" unicode="&#x153;" horiz-adv-x="1222" 
d="M797 1008q145 -69 241.5 -156.5t171.5 -228.5q-182 -176 -436 -240q24 -174 122.5 -284.5t266.5 -127.5l-12 -137q-156 15 -270 94.5t-179 210.5q-55 -79 -141 -123.5t-180 -44.5q-65 0 -131.5 26.5t-122.5 74t-91.5 123t-35.5 163.5q0 87 35 161.5t91 122.5t123.5 74.5
t133.5 26.5q147 0 262 -98q36 184 152 363zM633 352q-102 -4 -152 -4v137q74 0 113 4q-35 55 -91.5 85t-113.5 30q-100 0 -175 -68.5t-75 -177.5q0 -111 75 -179t175 -68q41 0 83 16t78.5 45.5t59.5 76.5t23 103zM768 524q68 15 140.5 49.5t125.5 77.5q-50 79 -186 176
q-64 -96 -80 -303z" />
    <glyph glyph-name="Racute" unicode="&#x154;" horiz-adv-x="925" 
d="M180 537q145 12 293.5 101t224.5 212q-47 146 -151.5 257.5t-247.5 172.5q-103 -351 -119 -743zM530 512l431 -725l-117 -74l-438 740q-112 -48 -228 -54q0 -336 51 -592l-137 -28q-53 292 -53 602q0 299 51 596t148 557l129 -49l-27 -74q179 -71 312 -213.5t190 -357.5
q-70 -124 -146 -200t-166 -128zM387 1581l-80 113l303 215l80 -115z" />
    <glyph glyph-name="racute" unicode="&#x155;" horiz-adv-x="657" 
d="M406 1014q97 -67 149.5 -136t95.5 -186l-129 -45q-31 106 -108 172q-197 -227 -197 -493q0 -95 62 -233t139 -255l-115 -80q-270 401 -270 932q0 115 12 232l139 -17q-11 -92 -14 -203q43 88 99.5 161t136.5 151zM293 1061l-80 113l303 215l80 -115z" />
    <glyph glyph-name="Rcommaaccent" unicode="&#x156;" horiz-adv-x="925" 
d="M180 537q145 12 293.5 101t224.5 212q-47 146 -151.5 257.5t-247.5 172.5q-103 -351 -119 -743zM530 512l431 -725l-117 -74l-438 740q-112 -48 -228 -54q0 -336 51 -592l-137 -28q-53 292 -53 602q0 299 51 596t148 557l129 -49l-27 -74q179 -71 312 -213.5t190 -357.5
q-70 -124 -146 -200t-166 -128zM414 -139l143 12q-30 -254 -229 -373l-70 121q132 79 156 240z" />
    <glyph glyph-name="rcommaaccent" unicode="&#x157;" horiz-adv-x="657" 
d="M406 1014q97 -67 149.5 -136t95.5 -186l-129 -45q-31 106 -108 172q-197 -227 -197 -493q0 -95 62 -233t139 -255l-115 -80q-270 401 -270 932q0 115 12 232l139 -17q-11 -92 -14 -203q43 88 99.5 161t136.5 151zM29 -139l143 12q-30 -254 -229 -373l-70 121
q132 79 156 240z" />
    <glyph glyph-name="Rcaron" unicode="&#x158;" horiz-adv-x="925" 
d="M180 537q145 12 293.5 101t224.5 212q-47 146 -151.5 257.5t-247.5 172.5q-103 -351 -119 -743zM530 512l431 -725l-117 -74l-438 740q-112 -48 -228 -54q0 -336 51 -592l-137 -28q-53 292 -53 602q0 299 51 596t148 557l129 -49l-27 -74q179 -71 312 -213.5t190 -357.5
q-70 -124 -146 -200t-166 -128zM547 1937l110 -84l-237 -292q-121 121 -236 282l113 80q52 -74 117 -149z" />
    <glyph glyph-name="rcaron" unicode="&#x159;" horiz-adv-x="657" 
d="M406 1014q97 -67 149.5 -136t95.5 -186l-129 -45q-31 106 -108 172q-197 -227 -197 -493q0 -95 62 -233t139 -255l-115 -80q-270 401 -270 932q0 115 12 232l139 -17q-11 -92 -14 -203q43 88 99.5 161t136.5 151zM383 1417l111 -84l-238 -293q-118 118 -236 283l113 80
q55 -79 117 -150z" />
    <glyph glyph-name="Sacute" unicode="&#x15a;" horiz-adv-x="815" 
d="M86 -246l-8 137q89 7 171.5 27.5t162.5 57t144 98t99 141.5l-637 520q53 147 101.5 250.5t118 206.5t162.5 186.5t218 157.5l70 -119q-192 -113 -306 -261.5t-202 -375.5l639 -522q-31 -119 -105.5 -214.5t-176 -155.5t-215.5 -93.5t-236 -40.5zM455 1581l-80 113
l303 215l80 -115z" />
    <glyph glyph-name="sacute" unicode="&#x15b;" 
d="M-78 -399l23 137q66 -8 96 -8q92 0 174 35.5t141.5 95.5t103 136.5t65.5 160t22 164.5q0 232 -162 405q-157 -93 -299 -326l-119 74q196 309 434 422q136 -99 210.5 -255.5t74.5 -326.5q0 -137 -50 -268t-135.5 -231t-207 -161t-256.5 -61q-47 0 -115 7zM330 1061
l-80 113l303 215l80 -115z" />
    <glyph glyph-name="Scircumflex" unicode="&#x15c;" horiz-adv-x="815" 
d="M86 -246l-8 137q89 7 171.5 27.5t162.5 57t144 98t99 141.5l-637 520q53 147 101.5 250.5t118 206.5t162.5 186.5t218 157.5l70 -119q-192 -113 -306 -261.5t-202 -375.5l639 -522q-31 -119 -105.5 -214.5t-176 -155.5t-215.5 -93.5t-236 -40.5zM373 1561l-111 86
l236 290q116 -111 237 -280l-114 -80q-40 61 -117 149z" />
    <glyph glyph-name="scircumflex" unicode="&#x15d;" 
d="M-78 -399l23 137q66 -8 96 -8q92 0 174 35.5t141.5 95.5t103 136.5t65.5 160t22 164.5q0 232 -162 405q-157 -93 -299 -326l-119 74q196 309 434 422q136 -99 210.5 -255.5t74.5 -326.5q0 -137 -50 -268t-135.5 -231t-207 -161t-256.5 -61q-47 0 -115 7zM258 1040
l-111 86l236 291q119 -114 238 -280l-115 -80q-40 61 -117 149z" />
    <glyph glyph-name="Scedilla" unicode="&#x15e;" horiz-adv-x="815" 
d="M86 -246l-8 137q89 7 171.5 27.5t162.5 57t144 98t99 141.5l-637 520q53 147 101.5 250.5t118 206.5t162.5 186.5t218 157.5l70 -119q-192 -113 -306 -261.5t-202 -375.5l639 -522q-40 -144 -135 -250q139 -163 139 -303q0 -113 -77 -183.5t-220 -90.5l-43 129
q46 7 78 15.5t61.5 25t44.5 43.5t15 65q0 87 -100 211q-101 -74 -231 -116t-265 -50z" />
    <glyph glyph-name="scedilla" unicode="&#x15f;" 
d="M492 -569l-43 129q46 7 77.5 15.5t61.5 25t44.5 43.5t14.5 65q0 83 -84 193q-91 -140 -229 -224t-297 -84q-47 0 -115 7l23 137q66 -8 96 -8q92 0 174 35.5t141.5 95.5t103 136.5t65.5 160t22 164.5q0 232 -162 405q-157 -93 -299 -326l-119 74q196 309 434 422
q136 -99 210.5 -255.5t74.5 -326.5q0 -144 -55 -282q71 -80 114 -166t43 -162q0 -113 -76.5 -183.5t-219.5 -90.5z" />
    <glyph glyph-name="Scaron" unicode="&#x160;" horiz-adv-x="815" 
d="M86 -246l-8 137q89 7 171.5 27.5t162.5 57t144 98t99 141.5l-637 520q53 147 101.5 250.5t118 206.5t162.5 186.5t218 157.5l70 -119q-192 -113 -306 -261.5t-202 -375.5l639 -522q-31 -119 -105.5 -214.5t-176 -155.5t-215.5 -93.5t-236 -40.5zM621 1937l110 -84
l-237 -292q-121 121 -236 282l113 80q56 -80 116 -149z" />
    <glyph glyph-name="scaron" unicode="&#x161;" 
d="M-78 -399l23 137q66 -8 96 -8q92 0 174 35.5t141.5 95.5t103 136.5t65.5 160t22 164.5q0 232 -162 405q-157 -93 -299 -326l-119 74q196 309 434 422q136 -99 210.5 -255.5t74.5 -326.5q0 -137 -50 -268t-135.5 -231t-207 -161t-256.5 -61q-47 0 -115 7zM483 1417
l111 -84l-238 -293q-115 115 -235 283l112 80q55 -79 117 -150z" />
    <glyph glyph-name="Tcommaaccent" unicode="&#x162;" horiz-adv-x="1024" 
d="M1075 1268l-547 -45q-100 -391 -100 -815q0 -318 57 -603l-135 -26q-59 307 -59 627q0 401 92 806l-420 -32v137l457 37q30 99 61 178l129 -47l-43 -123l496 43zM571 -139l144 12q-30 -253 -230 -373l-69 121q131 78 155 240z" />
    <glyph glyph-name="tcommaaccent" unicode="&#x163;" horiz-adv-x="665" 
d="M539 410l112 -78q-86 -124 -184 -203.5t-248 -157.5q-110 299 -110 627q0 154 24 307q-160 22 -268 29l8 137q136 -8 287 -31q53 207 133 346l121 -67q-72 -128 -117 -301q209 -45 340 -86l-41 -131q-180 51 -326 82q-24 -118 -24 -285q0 -239 53 -426q135 85 240 238z
M236 -139l143 12q-30 -254 -229 -373l-70 121q132 79 156 240z" />
    <glyph glyph-name="Tcaron" unicode="&#x164;" horiz-adv-x="1024" 
d="M1075 1268l-547 -45q-100 -391 -100 -815q0 -318 57 -603l-135 -26q-59 307 -59 627q0 401 92 806l-420 -32v137l457 37q30 99 61 178l129 -47l-43 -123l496 43zM692 1937l111 -84l-238 -292q-118 117 -235 282l112 80q52 -74 117 -149z" />
    <glyph glyph-name="tcaron" unicode="&#x165;" horiz-adv-x="665" 
d="M539 410l112 -78q-86 -124 -184 -203.5t-248 -157.5q-110 299 -110 627q0 154 24 307q-160 22 -268 29l8 137q136 -8 287 -31q53 207 133 346l121 -67q-72 -128 -117 -301q209 -45 340 -86l-41 -131q-180 51 -326 82q-24 -118 -24 -285q0 -239 53 -426q135 85 240 238z
M502 1798l110 -84l-237 -293q-118 119 -236 283l113 80q56 -80 117 -150z" />
    <glyph glyph-name="Tbar" unicode="&#x166;" horiz-adv-x="1073" 
d="M1075 1268l-547 -45q-32 -117 -61 -308l225 19v-139l-246 -21q-18 -182 -18 -366q0 -318 57 -603l-135 -26q-59 307 -59 627q0 180 18 358l-231 -19v140l248 18q23 170 57 309l-420 -32v137l457 37q30 99 61 178l129 -47l-43 -123l496 43z" />
    <glyph glyph-name="tbar" unicode="&#x167;" horiz-adv-x="665" 
d="M-94 578v139h205q5 82 22 188q-160 22 -268 29l8 137q136 -8 287 -31q53 207 133 346l121 -67q-72 -128 -117 -301q209 -45 340 -86l-41 -131q-180 51 -326 82q-15 -70 -22 -166h272v-139h-274q0 -220 53 -406q135 85 240 238l112 -78q-86 -124 -184 -203.5t-248 -157.5
q-107 290 -110 607h-203z" />
    <glyph glyph-name="Utilde" unicode="&#x168;" horiz-adv-x="854" 
d="M649 1538l135 -27q-52 -285 -71 -790q-8 -219 -8 -492q0 -124 4 -374q-204 -15 -318 -15q-111 0 -325 21q-5 5 -5 147q-2 76 -2 228q0 794 80 1296l135 -21q-75 -514 -75 -1278q0 -165 2 -247q120 -9 221 -9q24 0 147 5q-2 84 -2 256q0 410 16 713t66 587zM700 1993
l97 -101l-252 -247l-252 186l-164 -154l-94 101l248 233l249 -184z" />
    <glyph glyph-name="utilde" unicode="&#x169;" horiz-adv-x="825" 
d="M748 147l34 -133q-112 -28 -225 -28q-285 0 -557 157q14 227 74 394t198 340l107 -89q-101 -125 -156.5 -257t-75.5 -312q184 -83 349 -92q102 110 102 299q0 192 -96 340l116 76q121 -193 121 -416q0 -165 -71 -295q52 8 80 16zM729 1257l96 -100l-252 -248l-251 187
l-164 -154l-95 100l248 234l250 -184z" />
    <glyph glyph-name="Umacron" unicode="&#x16a;" horiz-adv-x="854" 
d="M649 1538l135 -27q-52 -285 -71 -790q-8 -219 -8 -492q0 -124 4 -374q-204 -15 -318 -15q-111 0 -325 21q-5 5 -5 147q-2 76 -2 228q0 794 80 1296l135 -21q-75 -514 -75 -1278q0 -165 2 -247q120 -9 221 -9q24 0 147 5q-2 84 -2 256q0 410 16 713t66 587zM172 1675v140
h614v-140h-614z" />
    <glyph glyph-name="umacron" unicode="&#x16b;" horiz-adv-x="825" 
d="M748 147l34 -133q-112 -28 -225 -28q-285 0 -557 157q14 227 74 394t198 340l107 -89q-101 -125 -156.5 -257t-75.5 -312q184 -83 349 -92q102 110 102 299q0 192 -96 340l116 76q121 -193 121 -416q0 -165 -71 -295q52 8 80 16zM133 909v140h615v-140h-615z" />
    <glyph glyph-name="Ubreve" unicode="&#x16c;" horiz-adv-x="854" 
d="M649 1538l135 -27q-52 -285 -71 -790q-8 -219 -8 -492q0 -124 4 -374q-204 -15 -318 -15q-111 0 -325 21q-5 5 -5 147q-2 76 -2 228q0 794 80 1296l135 -21q-75 -514 -75 -1278q0 -165 2 -247q120 -9 221 -9q24 0 147 5q-2 84 -2 256q0 410 16 713t66 587zM653 1931
l117 -73q-65 -100 -148 -152.5t-171 -52.5q-174 0 -304 188l113 76q88 -125 193 -125q106 0 200 139z" />
    <glyph glyph-name="ubreve" unicode="&#x16d;" horiz-adv-x="825" 
d="M748 147l34 -133q-112 -28 -225 -28q-285 0 -557 157q14 227 74 394t198 340l107 -89q-101 -125 -156.5 -257t-75.5 -312q184 -83 349 -92q102 110 102 299q0 192 -96 340l116 76q121 -193 121 -416q0 -165 -71 -295q52 8 80 16zM666 1188l116 -74q-65 -100 -148 -152.5
t-171 -52.5q-172 0 -303 189l112 76q88 -125 193 -125q107 0 201 139z" />
    <glyph glyph-name="Uring" unicode="&#x16e;" horiz-adv-x="854" 
d="M649 1538l135 -27q-52 -285 -71 -790q-8 -219 -8 -492q0 -124 4 -374q-204 -15 -318 -15q-111 0 -325 21q-5 5 -5 147q-2 76 -2 228q0 794 80 1296l135 -21q-75 -514 -75 -1278q0 -165 2 -247q120 -9 221 -9q24 0 147 5q-2 84 -2 256q0 410 16 713t66 587zM526 1866
q0 54 -34.5 85t-75.5 31q-47 0 -82 -31t-35 -81q0 -52 35 -84.5t82 -32.5q41 0 75.5 31t34.5 82zM629 1872q0 -96 -66 -157.5t-153 -61.5q-78 0 -144.5 60.5t-66.5 156.5q0 95 67 155t146 60q86 0 151.5 -59.5t65.5 -153.5z" />
    <glyph glyph-name="uring" unicode="&#x16f;" horiz-adv-x="825" 
d="M748 147l34 -133q-112 -28 -225 -28q-285 0 -557 157q14 227 74 394t198 340l107 -89q-101 -125 -156.5 -257t-75.5 -312q184 -83 349 -92q102 110 102 299q0 192 -96 340l116 76q121 -193 121 -416q0 -165 -71 -295q52 8 80 16zM567 1122q0 54 -34.5 85.5t-75.5 31.5
q-47 0 -82 -31.5t-35 -81.5q0 -52 35 -84t82 -32q41 0 75.5 31t34.5 81zM670 1128q0 -96 -66 -157.5t-153 -61.5q-78 0 -144.5 60.5t-66.5 156.5q0 95 67 155t146 60q86 0 151.5 -59.5t65.5 -153.5z" />
    <glyph glyph-name="Uhungarumlaut" unicode="&#x170;" horiz-adv-x="854" 
d="M649 1538l135 -27q-52 -285 -71 -790q-8 -219 -8 -492q0 -124 4 -374q-204 -15 -318 -15q-111 0 -325 21q-5 5 -5 147q-2 76 -2 228q0 794 80 1296l135 -21q-75 -514 -75 -1278q0 -165 2 -247q120 -9 221 -9q24 0 147 5q-2 84 -2 256q0 410 16 713t66 587zM444 1929
l80 -114l-225 -158l-80 112zM756 1929l78 -114l-224 -158l-80 112z" />
    <glyph glyph-name="uhungarumlaut" unicode="&#x171;" horiz-adv-x="825" 
d="M748 147l34 -133q-112 -28 -225 -28q-285 0 -557 157q14 227 74 394t198 340l107 -89q-101 -125 -156.5 -257t-75.5 -312q184 -83 349 -92q102 110 102 299q0 192 -96 340l116 76q121 -193 121 -416q0 -165 -71 -295q52 8 80 16zM453 1182l79 -115l-225 -158l-80 113z
M764 1182l78 -115l-224 -158l-79 113z" />
    <glyph glyph-name="Uogonek" unicode="&#x172;" horiz-adv-x="747" 
d="M170 -440l-43 -129q-143 20 -220 90.5t-77 183.5q0 84 52 179t136 184q0 505 16.5 837.5t63.5 626.5l135 -21q-75 -514 -75 -1278q0 -165 2 -247q120 -9 221 -9q25 0 147 5q-2 84 -2 256q0 410 16 713t66 587l135 -27q-52 -285 -71 -790q-8 -219 -8 -492q0 -124 4 -374
q-204 -15 -318 -15q-109 0 -323 21q-56 -89 -56 -152q0 -38 15 -65t44.5 -43.5t61.5 -25t78 -15.5z" />
    <glyph glyph-name="uogonek" unicode="&#x173;" horiz-adv-x="825" 
d="M723 -440l-43 -129q-143 20 -220 90.5t-77 183.5q0 130 119 283q-261 14 -502 155q14 227 74 394t198 340l107 -89q-101 -125 -156.5 -257t-75.5 -312q184 -83 349 -92q102 110 102 299q0 192 -96 340l116 76q121 -193 121 -416q0 -165 -71 -295q52 8 80 16l34 -133
q-42 -12 -88 -18q-170 -165 -170 -287q0 -38 15 -65t44.5 -43.5t61.5 -25t78 -15.5z" />
    <glyph glyph-name="Wcircumflex" unicode="&#x174;" horiz-adv-x="1492" 
d="M1368 1559l129 -52q-87 -212 -114 -447t-27 -548v-383q-73 -24 -155 -62t-136 -68t-145 -83q-127 299 -193 606q0 -21 -2 -63.5t-2 -65.5q0 -118 12 -256l-440 -215q-127 252 -202 605.5t-75 670.5q0 213 48 358l131 -45q-41 -119 -41 -311q0 -254 64 -564.5t145 -524.5
l225 110q-6 183 -6 185q0 407 61 811l137 -11q0 -247 57.5 -551.5t147.5 -541.5q129 72 232 114v240q0 173 3.5 284t17 261.5t45.5 285t83 261.5zM590 1561l-111 86l236 290q116 -111 237 -280l-114 -80q-40 61 -117 149z" />
    <glyph glyph-name="wcircumflex" unicode="&#x175;" horiz-adv-x="1488" 
d="M1513 227l56 -127q-308 -129 -643 -129q-245 0 -535 74q-248 62 -391 133q71 482 287 836l116 -72q-171 -287 -249 -676q209 -78 405 -119q34 355 164 668l127 -53q-133 -326 -156 -635q128 -16 238 -16q123 0 246 18q4 78 4 121q0 271 -101 506l127 59
q113 -268 113 -567q0 -22 -4 -88q88 21 196 67zM682 1040l-111 86l236 291q116 -111 237 -280l-114 -80q-40 61 -117 149z" />
    <glyph glyph-name="Ycircumflex" unicode="&#x176;" horiz-adv-x="1130" 
d="M0 1374l66 121q171 -96 300.5 -241t194.5 -322q67 180 197.5 321.5t308.5 237.5l63 -123q-229 -125 -356.5 -319t-140.5 -449q0 -472 -246 -856l-115 76q224 361 224 700q0 268 -127.5 493.5t-368.5 360.5zM438 1561l-110 86l235 290q119 -114 238 -280l-115 -80
q-40 61 -117 149z" />
    <glyph glyph-name="ycircumflex" unicode="&#x177;" horiz-adv-x="905" 
d="M918 451l22 -138q-39 -6 -117 -14q-13 -165 -55.5 -308.5t-119 -270.5t-197 -225.5t-277.5 -156.5l-199 293l117 76l131 -201q110 49 196.5 136t140.5 195t84.5 223t39.5 237q-341 18 -651 225v373h139v-293q257 -151 514 -168q-2 142 -38.5 284.5t-115.5 221.5l93 102
q70 -67 116.5 -177.5t64 -214t19.5 -212.5q18 1 51.5 6.5t41.5 6.5zM166 1040l-111 86l236 291q116 -111 237 -280l-114 -80q-40 61 -117 149z" />
    <glyph glyph-name="Ydieresis" unicode="&#x178;" horiz-adv-x="1130" 
d="M0 1374l66 121q171 -96 300.5 -241t194.5 -322q67 180 197.5 321.5t308.5 237.5l63 -123q-229 -125 -356.5 -319t-140.5 -449q0 -472 -246 -856l-115 76q224 361 224 700q0 268 -127.5 493.5t-368.5 360.5zM334 1602v178h176v-178h-176zM618 1602v178h177v-178h-177z" />
    <glyph glyph-name="Zacute" unicode="&#x179;" horiz-adv-x="976" 
d="M864 -51l27 -133q-173 -37 -359 -37q-264 0 -532 71q90 398 284.5 785.5t452.5 679.5q-210 78 -454 78q-99 0 -191 -15l-20 138q109 16 211 16q201 0 365 -40.5t325 -135.5q-284 -278 -493 -646t-312 -755q179 -37 371 -37q156 0 325 31zM487 1581l-79 113l303 215
l80 -115z" />
    <glyph glyph-name="zacute" unicode="&#x17a;" horiz-adv-x="788" 
d="M727 25l76 -115q-188 -121 -336 -121q-132 0 -236 79t-196 218q14 15 55 58t60.5 64t51.5 56.5t57.5 67t49.5 63.5q-101 18 -168 25l11 137q105 -10 239 -37q111 187 150 314q-91 36 -189 36q-154 0 -297 -98l-80 113q178 125 379 125q193 0 353 -115q-38 -140 -80 -233
t-99 -181q94 -27 187 -65l-51 -127q-113 44 -209 71q-88 -125 -240 -284q114 -148 252 -148q114 0 260 97zM377 1061l-80 113l303 215l80 -115z" />
    <glyph glyph-name="Zdotaccent" unicode="&#x17b;" horiz-adv-x="976" 
d="M864 -51l27 -133q-173 -37 -359 -37q-264 0 -532 71q90 398 284.5 785.5t452.5 679.5q-210 78 -454 78q-99 0 -191 -15l-20 138q109 16 211 16q201 0 365 -40.5t325 -135.5q-284 -278 -493 -646t-312 -755q179 -37 371 -37q156 0 325 31zM455 1722q0 38 28 65.5t66 27.5
q39 0 66.5 -27.5t27.5 -65.5q0 -40 -27 -67t-67 -27q-39 0 -66.5 27.5t-27.5 66.5z" />
    <glyph glyph-name="zdotaccent" unicode="&#x17c;" horiz-adv-x="788" 
d="M727 25l76 -115q-188 -121 -336 -121q-132 0 -236 79t-196 218q14 15 55 58t60.5 64t51.5 56.5t57.5 67t49.5 63.5q-101 18 -168 25l11 137q105 -10 239 -37q111 187 150 314q-91 36 -189 36q-154 0 -297 -98l-80 113q178 125 379 125q193 0 353 -115q-38 -140 -80 -233
t-99 -181q94 -27 187 -65l-51 -127q-113 44 -209 71q-88 -125 -240 -284q114 -148 252 -148q114 0 260 97zM258 1202q0 38 28 65t66 27q40 0 67 -27t27 -65q0 -40 -27 -67t-67 -27q-39 0 -66.5 27.5t-27.5 66.5z" />
    <glyph glyph-name="Zcaron" unicode="&#x17d;" horiz-adv-x="976" 
d="M864 -51l27 -133q-173 -37 -359 -37q-264 0 -532 71q90 398 284.5 785.5t452.5 679.5q-210 78 -454 78q-99 0 -191 -15l-20 138q109 16 211 16q201 0 365 -40.5t325 -135.5q-284 -278 -493 -646t-312 -755q179 -37 371 -37q156 0 325 31zM647 1937l111 -84l-238 -292
q-117 117 -235 282l112 80q52 -74 117 -149z" />
    <glyph glyph-name="zcaron" unicode="&#x17e;" horiz-adv-x="788" 
d="M727 25l76 -115q-188 -121 -336 -121q-132 0 -236 79t-196 218q14 15 55 58t60.5 64t51.5 56.5t57.5 67t49.5 63.5q-101 18 -168 25l11 137q105 -10 239 -37q111 187 150 314q-91 36 -189 36q-154 0 -297 -98l-80 113q178 125 379 125q193 0 353 -115q-38 -140 -80 -233
t-99 -181q94 -27 187 -65l-51 -127q-113 44 -209 71q-88 -125 -240 -284q114 -148 252 -148q114 0 260 97zM479 1417l111 -84l-238 -293q-115 115 -235 283l112 80q55 -79 117 -150z" />
    <glyph glyph-name="longs" unicode="&#x17f;" horiz-adv-x="708" 
d="M356 942q-12 -123 -12 -229q0 -179 43 -335t148 -333l-117 -74q-207 330 -217 740q-70 -47 -109 -84l-92 102q109 94 209 148q20 199 90 353t207 302l358 -238l-78 -114l-258 172q-128 -157 -172 -410z" />
    <glyph glyph-name="florin" unicode="&#x192;" horiz-adv-x="821" 
d="M762 731h-373q0 -55 3 -171t3 -177q0 -87 -5.5 -157t-22 -149.5t-44.5 -143.5t-76 -126t-114 -110l-78 115q86 62 129 147q74 147 74 438q0 62 -4 175t-4 159h-232v139h238q11 229 91 392.5t261 271.5l70 -119q-77 -46 -131 -105t-85.5 -130t-47 -144.5t-21.5 -165.5h369
v-139z" />
    <glyph glyph-name="AEacute" unicode="&#x1fc;" horiz-adv-x="1720" 
d="M768 -113q-106 243 -139 557q-234 -106 -490 -145q0 -250 41 -362l-129 -46q-51 135 -51 359q0 183 29 380t76 366t94 300t94 234q254 -148 450 -211q67 87 160.5 149t208.5 62v-139q-66 0 -131 -39t-114.5 -99.5t-85.5 -124t-56 -122.5q172 -54 432 -54v-137
q-41 -2 -82 -2q-36 0 -72 2.5t-55 4.5l-18 3q-107 -110 -174 -235q26 -315 114 -578q12 0 37 -1t39 -1q145 0 307 43l41 -131q-151 -49 -331 -49q-114 0 -195 16zM147 440q247 43 457 144q65 146 164 264q-82 19 -207 82q28 119 101 260q-142 53 -304 145
q-167 -408 -211 -895zM641 1581l-80 113l303 215l80 -115z" />
    <glyph glyph-name="aeacute" unicode="&#x1fd;" horiz-adv-x="1132" 
d="M713 1008q145 -69 241 -156.5t170 -228.5q-183 -177 -436 -240q26 -174 124 -284.5t265 -127.5l-12 -137q-58 6 -107.5 18.5t-110.5 39t-121.5 78t-115.5 124.5q-224 -94 -415 -94q-87 0 -220 18q29 241 98 417t185 306q-106 80 -238 111l31 135q311 -75 504 -369
q33 199 158 390zM129 139q25 -4 64 -4q97 0 186.5 23.5t200.5 70.5q-69 246 -222 418q-176 -199 -229 -508zM684 524q67 16 140 50t124 77q-52 82 -184 176q-68 -99 -80 -303zM410 1061l-80 113l303 215l80 -115z" />
    <glyph glyph-name="Oslashacute" unicode="&#x1fe;" horiz-adv-x="999" 
d="M979 1448l131 -45l-213 -277q18 -108 18 -219q0 -72 -6 -156.5t-22 -193.5t-40.5 -211t-66.5 -202.5t-95.5 -174.5t-131 -120t-168.5 -46q-230 0 -328 238l-114 -152l-131 45l204 267q-16 91 -16 198q0 70 5.5 155.5t21.5 197t40 217t65 209.5t93 181t128 125t165 48
q236 0 334 -250zM393 -57q65 0 121 43t94.5 112t69 160t49 183t30.5 185.5t16.5 162t4.5 118.5q0 10 -1 32t-1 32l-616 -797q60 -231 233 -231zM139 393v-35l615 795q-27 111 -85 176.5t-151 65.5q-75 0 -139 -68.5t-107 -177t-74 -243.5t-45 -266t-14 -247zM539 1581
l-80 113l303 215l80 -115z" />
    <glyph glyph-name="oslashacute" unicode="&#x1ff;" horiz-adv-x="794" 
d="M772 365q0 -116 -57 -207.5t-145.5 -139t-188.5 -47.5q-90 0 -172 43l-35 -43l-131 45l61 78q-104 113 -104 264q0 87 35 161.5t91 122.5t123.5 74.5t133.5 26.5q102 0 188 -47l31 39l137 -37l-63 -82q96 -106 96 -251zM139 358q0 -90 51 -153l293 377q-49 22 -94 22
q-100 0 -175 -68.5t-75 -177.5zM633 352q0 87 -47 150l-291 -375q50 -16 94 -16q41 0 83 16t78.5 45.5t59.5 76.5t23 103zM395 909l-80 113l303 215l80 -115z" />
    <glyph glyph-name="Scommaaccent" unicode="&#x218;" horiz-adv-x="815" 
d="M86 -246l-8 137q89 7 171.5 27.5t162.5 57t144 98t99 141.5l-637 520q53 147 101.5 250.5t118 206.5t162.5 186.5t218 157.5l70 -119q-192 -113 -306 -261.5t-202 -375.5l639 -522q-31 -119 -105.5 -214.5t-176 -155.5t-215.5 -93.5t-236 -40.5zM618 -139l144 12
q-30 -253 -230 -373l-69 121q131 78 155 240z" />
    <glyph glyph-name="scommaaccent" unicode="&#x219;" 
d="M-78 -399l23 137q66 -8 96 -8q92 0 174 35.5t141.5 95.5t103 136.5t65.5 160t22 164.5q0 232 -162 405q-157 -93 -299 -326l-119 74q196 309 434 422q136 -99 210.5 -255.5t74.5 -326.5q0 -137 -50 -268t-135.5 -231t-207 -161t-256.5 -61q-47 0 -115 7zM573 -139l144 12
q-30 -253 -230 -373l-69 121q131 78 155 240z" />
    <glyph glyph-name="dotlessj" unicode="&#x237;" horiz-adv-x="577" 
d="M35 799l178 139q62 -37 111.5 -101t80 -137t51 -159t28.5 -163.5t8 -154.5q0 -138 -31 -270.5t-92 -252t-162 -213t-230 -142.5l-202 247l108 86l131 -161q87 47 154 127t106 175.5t58.5 196.5t19.5 205q0 354 -145 541l-84 -70z" />
    <glyph glyph-name="circumflex" unicode="&#x2c6;" horiz-adv-x="548" 
d="M145 1040l-110 86l235 291q119 -114 238 -280l-115 -80q-40 61 -117 149z" />
    <glyph glyph-name="caron" unicode="&#x2c7;" horiz-adv-x="540" 
d="M397 1417l111 -84l-238 -293q-115 115 -235 283l112 80q55 -79 117 -150z" />
    <glyph glyph-name="breve" unicode="&#x2d8;" horiz-adv-x="808" 
d="M592 1335l117 -73q-65 -100 -148.5 -152.5t-171.5 -52.5q-173 0 -303 188l113 76q88 -125 192 -125q107 0 201 139z" />
    <glyph glyph-name="dotaccent" unicode="&#x2d9;" horiz-adv-x="204" 
d="M6 1202q0 38 28 65t66 27q40 0 67.5 -27t27.5 -65q0 -40 -27.5 -67t-67.5 -27q-39 0 -66.5 27.5t-27.5 66.5z" />
    <glyph glyph-name="ring" unicode="&#x2da;" horiz-adv-x="583" 
d="M399 1270q0 54 -34.5 85t-75.5 31q-47 0 -82 -31t-35 -81q0 -52 35 -84.5t82 -32.5q41 0 75.5 31t34.5 82zM502 1276q0 -96 -66 -157.5t-153 -61.5q-78 0 -144.5 60.5t-66.5 156.5q0 95 67 155t146 60q86 0 151.5 -59.5t65.5 -153.5z" />
    <glyph glyph-name="ogonek" unicode="&#x2db;" horiz-adv-x="391" 
d="M358 -440l-43 -129q-143 20 -220 90.5t-77 183.5q0 92 63.5 198t160.5 199l96 -98q-178 -170 -178 -295q0 -38 14.5 -65t44.5 -43.5t61.5 -25t77.5 -15.5z" />
    <glyph glyph-name="tilde" unicode="&#x2dc;" horiz-adv-x="790" 
d="M666 1397l96 -101l-252 -247l-252 186l-164 -154l-94 101l248 233l250 -184z" />
    <glyph glyph-name="hungarumlaut" unicode="&#x2dd;" horiz-adv-x="694" 
d="M264 1333l80 -114l-225 -158l-80 113zM575 1333l78 -114l-223 -158l-80 113z" />
    <glyph glyph-name="Wgrave" unicode="&#x1e80;" horiz-adv-x="1492" 
d="M1368 1559l129 -52q-87 -212 -114 -447t-27 -548v-383q-73 -24 -155 -62t-136 -68t-145 -83q-127 299 -193 606q0 -21 -2 -63.5t-2 -65.5q0 -118 12 -256l-440 -215q-127 252 -202 605.5t-75 670.5q0 213 48 358l131 -45q-41 -119 -41 -311q0 -254 64 -564.5t145 -524.5
l225 110q-6 183 -6 185q0 407 61 811l137 -11q0 -247 57.5 -551.5t147.5 -541.5q129 72 232 114v240q0 173 3.5 284t17 261.5t45.5 285t83 261.5zM838 1694l-80 -113l-303 213l77 115z" />
    <glyph glyph-name="wgrave" unicode="&#x1e81;" horiz-adv-x="1488" 
d="M1513 227l56 -127q-308 -129 -643 -129q-245 0 -535 74q-248 62 -391 133q71 482 287 836l116 -72q-171 -287 -249 -676q209 -78 405 -119q34 355 164 668l127 -53q-133 -326 -156 -635q128 -16 238 -16q123 0 246 18q4 78 4 121q0 271 -101 506l127 59
q113 -268 113 -567q0 -22 -4 -88q88 21 196 67zM893 1174l-80 -113l-303 213l78 115z" />
    <glyph glyph-name="Wacute" unicode="&#x1e82;" horiz-adv-x="1492" 
d="M1368 1559l129 -52q-87 -212 -114 -447t-27 -548v-383q-73 -24 -155 -62t-136 -68t-145 -83q-127 299 -193 606q0 -21 -2 -63.5t-2 -65.5q0 -118 12 -256l-440 -215q-127 252 -202 605.5t-75 670.5q0 213 48 358l131 -45q-41 -119 -41 -311q0 -254 64 -564.5t145 -524.5
l225 110q-6 183 -6 185q0 407 61 811l137 -11q0 -247 57.5 -551.5t147.5 -541.5q129 72 232 114v240q0 173 3.5 284t17 261.5t45.5 285t83 261.5zM705 1581l-80 113l303 215l80 -115z" />
    <glyph glyph-name="wacute" unicode="&#x1e83;" horiz-adv-x="1488" 
d="M1513 227l56 -127q-308 -129 -643 -129q-245 0 -535 74q-248 62 -391 133q71 482 287 836l116 -72q-171 -287 -249 -676q209 -78 405 -119q34 355 164 668l127 -53q-133 -326 -156 -635q128 -16 238 -16q123 0 246 18q4 78 4 121q0 271 -101 506l127 59
q113 -268 113 -567q0 -22 -4 -88q88 21 196 67zM786 1061l-79 113l303 215l80 -115z" />
    <glyph glyph-name="Wdieresis" unicode="&#x1e84;" horiz-adv-x="1492" 
d="M1368 1559l129 -52q-87 -212 -114 -447t-27 -548v-383q-73 -24 -155 -62t-136 -68t-145 -83q-127 299 -193 606q0 -21 -2 -63.5t-2 -65.5q0 -118 12 -256l-440 -215q-127 252 -202 605.5t-75 670.5q0 213 48 358l131 -45q-41 -119 -41 -311q0 -254 64 -564.5t145 -524.5
l225 110q-6 183 -6 185q0 407 61 811l137 -11q0 -247 57.5 -551.5t147.5 -541.5q129 72 232 114v240q0 173 3.5 284t17 261.5t45.5 285t83 261.5zM483 1602v178h176v-178h-176zM768 1602v178h176v-178h-176z" />
    <glyph glyph-name="wdieresis" unicode="&#x1e85;" horiz-adv-x="1488" 
d="M1513 227l56 -127q-308 -129 -643 -129q-245 0 -535 74q-248 62 -391 133q71 482 287 836l116 -72q-171 -287 -249 -676q209 -78 405 -119q34 355 164 668l127 -53q-133 -326 -156 -635q128 -16 238 -16q123 0 246 18q4 78 4 121q0 271 -101 506l127 59
q113 -268 113 -567q0 -22 -4 -88q88 21 196 67zM586 1081v179h176v-179h-176zM870 1081v179h177v-179h-177z" />
    <glyph glyph-name="Ygrave" unicode="&#x1ef2;" horiz-adv-x="1130" 
d="M0 1374l66 121q171 -96 300.5 -241t194.5 -322q67 180 197.5 321.5t308.5 237.5l63 -123q-229 -125 -356.5 -319t-140.5 -449q0 -472 -246 -856l-115 76q224 361 224 700q0 268 -127.5 493.5t-368.5 360.5zM680 1694l-80 -113l-303 213l78 115z" />
    <glyph glyph-name="ygrave" unicode="&#x1ef3;" horiz-adv-x="905" 
d="M918 451l22 -138q-39 -6 -117 -14q-13 -165 -55.5 -308.5t-119 -270.5t-197 -225.5t-277.5 -156.5l-199 293l117 76l131 -201q110 49 196.5 136t140.5 195t84.5 223t39.5 237q-341 18 -651 225v373h139v-293q257 -151 514 -168q-2 142 -38.5 284.5t-115.5 221.5l93 102
q70 -67 116.5 -177.5t64 -214t19.5 -212.5q18 1 51.5 6.5t41.5 6.5zM403 1174l-79 -113l-304 213l78 115z" />
    <glyph glyph-name="endash" unicode="&#x2013;" horiz-adv-x="952" 
d="M37 408v139h889v-139h-889z" />
    <glyph glyph-name="emdash" unicode="&#x2014;" horiz-adv-x="1417" 
d="M37 408v139h1327v-139h-1327z" />
    <glyph glyph-name="quoteleft" unicode="&#x2018;" horiz-adv-x="446" 
d="M88 991l-70 119q164 102 164 340q0 11 -1 36t-1 38l137 10q5 -68 5 -78q0 -326 -234 -465z" />
    <glyph glyph-name="quoteright" unicode="&#x2019;" horiz-adv-x="391" 
d="M252 1534l70 -119q-91 -56 -127.5 -141.5t-36.5 -198.5q0 -11 1 -35.5t1 -38.5l-137 -10q-5 67 -5 78q0 326 234 465z" />
    <glyph glyph-name="quotesinglbase" unicode="&#x201a;" horiz-adv-x="200" 
d="M33 152h139v-451h-139v451z" />
    <glyph glyph-name="quotedblleft" unicode="&#x201c;" horiz-adv-x="739" 
d="M88 991l-70 119q164 102 164 340q0 11 -1 36t-1 38l137 10q5 -68 5 -78q0 -326 -234 -465zM422 991l-70 119q164 102 164 340q0 49 -2 74l137 10q4 -54 4 -78q0 -326 -233 -465z" />
    <glyph glyph-name="quotedblright" unicode="&#x201d;" horiz-adv-x="763" 
d="M252 1534l70 -119q-91 -56 -127.5 -141.5t-36.5 -198.5q0 -11 1 -35.5t1 -38.5l-137 -10q-5 67 -5 78q0 326 234 465zM596 1534l70 -119q-91 -56 -127.5 -141.5t-36.5 -198.5q0 -47 2 -74l-139 -10q0 14 -1.5 40t-1.5 38q0 326 234 465z" />
    <glyph glyph-name="quotedblbase" unicode="&#x201e;" horiz-adv-x="419" 
d="M33 152h139v-451h-139v451zM246 152h139v-451h-139v451z" />
    <glyph glyph-name="dagger" unicode="&#x2020;" horiz-adv-x="696" 
d="M420 1143q148 0 262 -13l-18 -137q-120 15 -244 15v-1080h-137v1076q-129 -6 -252 -21l-15 137q132 15 267 21v391h137v-389z" />
    <glyph glyph-name="daggerdbl" unicode="&#x2021;" horiz-adv-x="704" 
d="M420 1143q148 0 262 -13l-18 -137q-120 15 -244 15v-394q130 0 262 -12l-18 -137q-96 12 -244 12v-549h-137v547q-90 -4 -252 -20l-15 135q154 17 267 20v394q-129 -6 -252 -21l-15 137q132 15 267 21v391h137v-389z" />
    <glyph glyph-name="bullet" unicode="&#x2022;" horiz-adv-x="532" 
d="M33 575q0 94 68 160t163 66q97 0 163.5 -65.5t66.5 -160.5q0 -97 -66.5 -163t-163.5 -66q-95 0 -163 66.5t-68 162.5z" />
    <glyph glyph-name="ellipsis" unicode="&#x2026;" horiz-adv-x="651" 
d="M12 0v176h176v-176h-176zM236 0v176h178v-176h-178zM461 0v176h176v-176h-176z" />
    <glyph glyph-name="perthousand" unicode="&#x2030;" horiz-adv-x="2361" 
d="M2316 360q0 -87 -33.5 -162t-88.5 -125t-125 -78t-144 -28q-86 0 -173 44.5t-142 123.5q-55 -79 -141 -123.5t-181 -44.5q-65 0 -131.5 26.5t-122.5 74t-91.5 123t-35.5 163.5q0 87 35 161.5t91 122.5t123.5 74.5t133.5 26.5q94 0 181.5 -44.5t142.5 -121.5
q56 78 141 122t172 44q99 0 187 -45t145 -133.5t57 -200.5zM1370 1530l131 -45l-1169 -1514l-131 45zM2177 348q0 115 -77 183.5t-167 68.5q-100 0 -175 -68.5t-75 -177.5q0 -111 75 -179.5t175 -68.5q56 0 110.5 27t94 84t39.5 131zM1540 348q0 115 -77 183.5t-167 68.5
q-100 0 -174.5 -68t-74.5 -178q0 -111 74.5 -179.5t174.5 -68.5q56 0 110.5 27t94 84t39.5 131zM670 1141q0 115 -77 183.5t-167 68.5q-100 0 -175 -68.5t-75 -177.5q0 -111 75 -179.5t175 -68.5q56 0 110.5 27t94 84t39.5 131zM809 1153q0 -87 -33.5 -162t-88.5 -125
t-125 -78t-144 -28q-65 0 -131.5 26.5t-122.5 74t-91.5 123t-35.5 163.5q0 87 35 161.5t91 122.5t123.5 74.5t133.5 26.5q99 0 187 -45t145 -133.5t57 -200.5z" />
    <glyph glyph-name="guilsinglleft" unicode="&#x2039;" horiz-adv-x="768" 
d="M727 154l-96 -99l-557 424l571 400l98 -97l-438 -311z" />
    <glyph glyph-name="guilsinglright" unicode="&#x203a;" horiz-adv-x="768" 
d="M188 55l-98 99l422 317l-438 311l98 97l571 -400z" />
    <glyph glyph-name="exclamdbl" unicode="&#x203c;" horiz-adv-x="1148" 
d="M508 121l-113 -78q-126 183 -195 381.5t-69 392.5q0 214 86 407t266 347l88 -107q-303 -262 -303 -647q0 -349 240 -696zM668 -57l-181 -113l-71 117l180 112zM928 121l-113 -78q-126 183 -195 381.5t-69 392.5q0 214 86 407t266 347l88 -107q-303 -262 -303 -647
q0 -349 240 -696zM1087 -57l-180 -113l-71 117l180 112z" />
    <glyph glyph-name="interrobang" unicode="&#x203d;" horiz-adv-x="1132" 
d="M719 121l-113 -78q-126 183 -195 381.5t-69 392.5q0 323 182 572q-135 -65 -232.5 -186.5t-139.5 -270.5l-134 41q55 190 186.5 341t311.5 220q45 -10 107 -31l165 152l89 -107l-117 -104q283 -156 344 -471q-42 -121 -103.5 -213.5t-137.5 -151.5t-152 -94.5t-166 -56.5
q61 -174 174 -336zM963 975q-69 251 -304 364q-180 -228 -180 -522q0 -115 27 -229q160 39 284 139t173 248zM879 -57l-181 -113l-71 117l180 112z" />
    <glyph glyph-name="asterism" unicode="&#x2042;" horiz-adv-x="1413" 
d="M614 1462l82 -119l-235 -159l196 -156l-92 -110l-141 112l-8 -139l-144 12l11 158l-170 -131l-93 110l199 152l-184 162l102 102l146 -129l-9 164l144 6l8 -164zM614 530l82 -118l-235 -160l196 -156l-92 -110l-141 112l-8 -139l-144 12l11 158l-170 -131l-93 111
l199 151l-184 162l102 102l146 -129l-9 164l144 6l8 -164zM1243 995l82 -118l-235 -160l196 -156l-92 -110l-141 112l-9 -139l-143 12l10 158l-170 -131l-92 110l199 152l-184 162l102 102l145 -129l-8 164l144 6l8 -164z" />
    <glyph glyph-name="fraction" unicode="&#x2044;" horiz-adv-x="585" 
d="M815 1530l131 -45l-1169 -1514l-131 45z" />
    <glyph glyph-name="Euro" unicode="&#x20ac;" horiz-adv-x="874" 
d="M803 1536l61 -123q-342 -183 -475 -520h295v-139h-336q-22 -96 -22 -189h325v-139h-319q37 -296 237 -592l-114 -78q-226 339 -260 670h-177v139h170q0 92 19 189h-156v139h191q71 211 215 374t346 269z" />
    <glyph glyph-name="trademark" unicode="&#x2122;" horiz-adv-x="1234" 
d="M651 1520l92 24q38 -252 101 -436q36 81 78.5 208t64.5 218l82 -14q-20 -129 -20 -287q0 -376 106 -666l-80 -28q-108 297 -108 675q-56 -173 -136 -309q-50 119 -75.5 202.5t-46.5 190.5q-21 -221 -21 -444q0 -166 12 -332l-84 -4q-10 185 -10 334q0 241 25 516
l-207 -18q-59 -236 -59 -492q0 -202 32 -362l-82 -19q-34 167 -34 379q0 252 55 487l-254 -18v82l276 23q12 42 37 108l78 -31l-27 -71l197 14z" />
    <glyph glyph-name="minus" unicode="&#x2212;" horiz-adv-x="548" 
d="M37 408v139h483v-139h-483z" />
    <glyph glyph-name="integral" unicode="&#x222b;" horiz-adv-x="477" 
d="M262 870q-2 -63 -2 -165q0 -80 2 -182.5t2 -139.5q0 -87 -5.5 -157t-22 -149.5t-44.5 -143.5t-76 -126t-114 -110l-78 115q86 62 129 147q74 147 74 438q0 37 -2 134.5t-2 168.5q0 104 2 170q6 226 88 390.5t264 273.5l70 -119q-149 -90 -213 -223.5t-72 -321.5z" />
    <glyph glyph-name="approxequal" unicode="&#x2248;" horiz-adv-x="790" 
d="M666 752l96 -101l-252 -248l-252 187l-164 -154l-94 101l248 233l250 -184zM680 1098l96 -101l-252 -247l-252 186l-163 -154l-95 101l248 233l250 -184z" />
    <glyph glyph-name="commaaccent" unicode="&#xf6c3;" horiz-adv-x="256" 
d="M98 -139l144 12q-30 -253 -230 -373l-69 121q131 78 155 240z" />
    <glyph glyph-name="zerooldstyle" unicode="&#xf730;" horiz-adv-x="851" 
d="M801 555q0 -75 -14 -153t-45.5 -157t-76.5 -141t-114 -100.5t-152 -38.5q-98 0 -177 56t-126 144.5t-71.5 188t-24.5 195.5q0 97 25 196.5t72.5 187t126 142.5t175.5 55q68 0 127 -26.5t102 -71.5t77 -102.5t54.5 -122.5t31 -129t10.5 -123zM139 549q0 -88 25.5 -186.5
t75.5 -165.5l264 761q-54 35 -107 35q-65 0 -117 -45.5t-81.5 -115.5t-44.5 -143.5t-15 -139.5zM664 541v8q0 87 -25.5 185t-75.5 165l-264 -762q51 -33 104 -33q64 0 116 45.5t82.5 114.5t46.5 141.5t16 135.5z" />
    <glyph glyph-name="oneoldstyle" unicode="&#xf731;" horiz-adv-x="618" 
d="M403 133q69 -5 160 -29l-37 -131q-2 0 -45 8.5t-82.5 14.5t-62.5 6q-100 0 -201 -37l-49 129q100 32 172 39q-33 114 -33 279q0 215 60 450q-128 -115 -230 -135l-26 135q35 8 83.5 41t86 65.5t95 93t76.5 82t64 73.5l98 -91q-74 -138 -122 -336t-48 -380q0 -164 41 -277
z" />
    <glyph glyph-name="twooldstyle" unicode="&#xf732;" horiz-adv-x="831" 
d="M723 283l119 -74q-72 -121 -175.5 -182.5t-226.5 -61.5q-58 0 -112.5 12t-110 38.5t-92.5 48.5t-98 61q538 336 538 670q0 126 -96 204q-109 -18 -178.5 -98t-85.5 -190l-135 24q26 172 142.5 283t291.5 131q201 -164 201 -356q0 -91 -38 -189.5t-101 -184.5t-132 -157
t-143 -129q77 -29 149 -29q179 0 283 179z" />
    <glyph glyph-name="threeoldstyle" unicode="&#xf733;" horiz-adv-x="950" 
d="M207 -555h-51v313h196v-47h-145v-82h94v-47h-94v-137zM446 -555h-51v313h197v-47h-146v-82h95v-47h-95v-137zM721 -289h-35v-110h29q69 0 69 57q0 53 -63 53zM635 -555v313h78q125 0 125 -100q0 -49 -33.5 -76.5t-81.5 -27.5h-37v-109h-51zM113 760l-19 76q88 21 178 24
q75 97 189 162l37 -70q-80 -44 -129 -96q65 -12 129 -33q103 -42 166 -100q67 81 172 143l34 -69q-95 -55 -155 -129q115 -130 137 -306l-76 -8q-17 135 -104 250q-62 -109 -62 -233q0 -170 119 -338l-63 -47q-134 203 -134 383q0 157 84 290q-56 53 -143 91q-73 28 -162 34
q-73 -113 -73 -254q0 -177 118 -346l-65 -41q-131 195 -131 383q0 135 61 254q-39 -4 -108 -20zM522 1044q-78 0 -144.5 61t-66.5 157q0 98 66 157.5t147 59.5q87 0 153 -58.5t66 -154.5t-67 -159t-154 -63zM913 874q-68 0 -126 52.5t-58 136.5t58.5 136t127.5 52
q75 0 134 -52t59 -134q0 -85 -59 -138t-136 -53zM526 1401q-57 0 -98 -38.5t-41 -100.5q0 -61 41.5 -99.5t97.5 -38.5q50 0 95 38t45 98q0 64 -45 102.5t-95 38.5zM922 1174q-48 0 -82.5 -30.5t-34.5 -80.5q0 -51 34.5 -82t82.5 -31q40 0 73 29.5t33 79.5q0 52 -33.5 83.5
t-72.5 31.5zM217 106l64 7q-13 -112 -103 -168l-33 53q58 35 72 108zM797 78l65 6q-17 -116 -104 -168l-29 55q58 38 68 107zM420 221l63 4q-14 -113 -102 -166l-31 56q57 38 70 106zM584 -51l61 8q-10 -114 -102 -170l-29 55q60 35 70 107z" />
    <glyph glyph-name="fouroldstyle" unicode="&#xf734;" horiz-adv-x="1093" 
d="M207 -557h-51v313h196v-47h-145v-82h94v-47h-94v-137zM446 -557h-51v313h197v-47h-146v-82h95v-47h-95v-137zM721 -291h-35v-110h29q69 0 69 57q0 53 -63 53zM635 -557v313h78q125 0 125 -100q0 -49 -33.5 -77t-81.5 -28h-37v-108h-51zM113 758l-19 76q88 21 178 24
q75 97 189 162l37 -70q-80 -44 -129 -96q65 -12 129 -33q103 -42 166 -100q67 81 172 143l34 -69q-95 -55 -155 -129q115 -130 137 -306l-76 -8q-17 135 -104 250q-62 -109 -62 -233q0 -170 119 -338l-63 -47q-134 203 -134 383q0 157 84 290q-56 53 -143 91q-73 28 -162 34
q-73 -113 -73 -254q0 -177 118 -346l-65 -41q-131 195 -131 383q0 135 61 254q-39 -4 -108 -20zM522 1042q-78 0 -144.5 61t-66.5 157q0 98 66 157.5t147 59.5q87 0 153 -58.5t66 -154.5t-67 -159t-154 -63zM913 872q-68 0 -126 52.5t-58 136.5t58.5 136t127.5 52
q75 0 134 -52t59 -134q0 -85 -59 -138t-136 -53zM526 1399q-57 0 -98 -38.5t-41 -100.5q0 -61 41.5 -99.5t97.5 -38.5q50 0 95 37.5t45 97.5q0 64 -45 103t-95 39zM922 1171q-48 0 -82.5 -30t-34.5 -80q0 -51 34.5 -82t82.5 -31q40 0 73 29.5t33 79.5q0 52 -33.5 83
t-72.5 31zM217 104l64 7q-13 -112 -103 -168l-33 53q58 35 72 108zM797 76l65 6q-17 -116 -104 -168l-29 55q58 38 68 107zM420 219l63 4q-14 -113 -102 -166l-31 56q57 38 70 106zM584 -53l61 8q-10 -114 -102 -170l-29 55q60 35 70 107z" />
    <glyph glyph-name="fiveoldstyle" unicode="&#xf735;" horiz-adv-x="958" 
d="M207 -557h-51v313h196v-47h-145v-82h94v-47h-94v-137zM446 -557h-51v313h197v-47h-146v-82h95v-47h-95v-137zM721 -291h-35v-110h29q69 0 69 57q0 53 -63 53zM635 -557v313h78q125 0 125 -100q0 -49 -33.5 -77t-81.5 -28h-37v-108h-51zM113 758l-19 76q88 21 178 24
q75 97 189 162l37 -70q-80 -44 -129 -96q65 -12 129 -33q103 -42 166 -100q67 81 172 143l34 -69q-95 -55 -155 -129q115 -130 137 -306l-76 -8q-17 135 -104 250q-62 -109 -62 -233q0 -170 119 -338l-63 -47q-134 203 -134 383q0 157 84 290q-56 53 -143 91q-73 28 -162 34
q-73 -113 -73 -254q0 -177 118 -346l-65 -41q-131 195 -131 383q0 135 61 254q-39 -4 -108 -20zM522 1042q-78 0 -144.5 61t-66.5 157q0 98 66 157.5t147 59.5q87 0 153 -58.5t66 -154.5t-67 -159t-154 -63zM913 872q-68 0 -126 52.5t-58 136.5t58.5 136t127.5 52
q75 0 134 -52t59 -134q0 -85 -59 -138t-136 -53zM526 1399q-57 0 -98 -38.5t-41 -100.5q0 -61 41.5 -99.5t97.5 -38.5q50 0 95 37.5t45 97.5q0 64 -45 103t-95 39zM922 1171q-48 0 -82.5 -30t-34.5 -80q0 -51 34.5 -82t82.5 -31q40 0 73 29.5t33 79.5q0 52 -33.5 83
t-72.5 31zM217 104l64 7q-13 -112 -103 -168l-33 53q58 35 72 108zM797 76l65 6q-17 -116 -104 -168l-29 55q58 38 68 107zM420 219l63 4q-14 -113 -102 -166l-31 56q57 38 70 106zM584 -53l61 8q-10 -114 -102 -170l-29 55q60 35 70 107z" />
    <glyph glyph-name="sixoldstyle" unicode="&#xf736;" horiz-adv-x="978" 
d="M207 -547h-51v314h196v-48h-145v-81h94v-48h-94v-137zM446 -547h-51v314h197v-48h-146v-81h95v-48h-95v-137zM721 -281h-35v-110h29q69 0 69 57q0 53 -63 53zM635 -547v314h78q55 0 90 -24t35 -77q0 -49 -33.5 -76.5t-81.5 -27.5h-37v-109h-51zM113 768l-19 76
q88 21 178 24q75 97 189 162l37 -69q-78 -43 -129 -97q65 -12 129 -33q103 -42 166 -100q67 81 172 143l34 -69q-95 -55 -155 -129q115 -131 137 -305l-76 -9q-17 135 -104 250q-62 -109 -62 -233q0 -170 119 -338l-63 -47q-134 203 -134 383q0 158 84 291q-54 51 -143 90
q-76 29 -162 35q-73 -113 -73 -254q0 -177 118 -346l-65 -41q-131 195 -131 383q0 134 61 253q-39 -4 -108 -20zM522 1053q-78 0 -144.5 60.5t-66.5 156.5q0 98 66 157.5t147 59.5q87 0 153 -58.5t66 -154.5t-67 -158.5t-154 -62.5zM913 883q-68 0 -126 52t-58 136
t58.5 136.5t127.5 52.5q75 0 134 -52.5t59 -134.5q0 -85 -59 -137.5t-136 -52.5zM526 1409q-57 0 -98 -38.5t-41 -100.5q0 -61 41.5 -99t97.5 -38q50 0 95 37.5t45 97.5q0 64 -45 102.5t-95 38.5zM922 1182q-48 0 -82.5 -30.5t-34.5 -80.5q0 -51 34.5 -82t82.5 -31
q40 0 73 29.5t33 79.5q0 52 -33.5 83.5t-72.5 31.5zM217 115l64 6q-13 -112 -103 -168l-33 53q58 35 72 109zM797 86l65 6q-17 -116 -104 -168l-29 56q59 39 68 106zM420 229l63 4q-14 -112 -102 -165l-31 55q57 38 70 106zM584 -43l61 8q-10 -114 -102 -170l-29 55
q60 35 70 107z" />
    <glyph glyph-name="sevenoldstyle" unicode="&#xf737;" horiz-adv-x="886" 
d="M207 -557h-51v313h196v-47h-145v-82h94v-47h-94v-137zM446 -557h-51v313h197v-47h-146v-82h95v-47h-95v-137zM721 -291h-35v-110h29q69 0 69 57q0 53 -63 53zM635 -557v313h78q125 0 125 -100q0 -49 -33.5 -77t-81.5 -28h-37v-108h-51zM113 758l-19 76q88 21 178 24
q75 97 189 162l37 -70q-80 -44 -129 -96q65 -12 129 -33q103 -42 166 -100q67 81 172 143l34 -69q-95 -55 -155 -129q115 -130 137 -306l-76 -8q-17 135 -104 250q-62 -109 -62 -233q0 -170 119 -338l-63 -47q-134 203 -134 383q0 157 84 290q-56 53 -143 91q-73 28 -162 34
q-73 -113 -73 -254q0 -177 118 -346l-65 -41q-131 195 -131 383q0 135 61 254q-39 -4 -108 -20zM522 1042q-78 0 -144.5 61t-66.5 157q0 98 66 157.5t147 59.5q87 0 153 -58.5t66 -154.5t-67 -159t-154 -63zM913 872q-68 0 -126 52.5t-58 136.5t58.5 136t127.5 52
q75 0 134 -52t59 -134q0 -85 -59 -138t-136 -53zM526 1399q-57 0 -98 -38.5t-41 -100.5q0 -61 41.5 -99.5t97.5 -38.5q50 0 95 37.5t45 97.5q0 64 -45 103t-95 39zM922 1171q-48 0 -82.5 -30t-34.5 -80q0 -51 34.5 -82t82.5 -31q40 0 73 29.5t33 79.5q0 52 -33.5 83
t-72.5 31zM217 104l64 7q-13 -112 -103 -168l-33 53q58 35 72 108zM797 76l65 6q-17 -116 -104 -168l-29 55q58 38 68 107zM420 219l63 4q-14 -113 -102 -166l-31 56q57 38 70 106zM584 -53l61 8q-10 -114 -102 -170l-29 55q60 35 70 107z" />
    <glyph glyph-name="eightoldstyle" unicode="&#xf738;" horiz-adv-x="1175" 
d="M207 -547h-51v314h196v-48h-145v-81h94v-48h-94v-137zM446 -547h-51v314h197v-48h-146v-81h95v-48h-95v-137zM721 -281h-35v-110h29q69 0 69 57q0 53 -63 53zM635 -547v314h78q55 0 90 -24t35 -77q0 -49 -33.5 -76.5t-81.5 -27.5h-37v-109h-51zM113 768l-19 76
q88 21 178 24q75 97 189 162l37 -69q-78 -43 -129 -97q65 -12 129 -33q103 -42 166 -100q67 81 172 143l34 -69q-95 -55 -155 -129q115 -131 137 -305l-76 -9q-17 135 -104 250q-62 -109 -62 -233q0 -170 119 -338l-63 -47q-134 203 -134 383q0 158 84 291q-54 51 -143 90
q-76 29 -162 35q-73 -113 -73 -254q0 -177 118 -346l-65 -41q-131 195 -131 383q0 134 61 253q-39 -4 -108 -20zM522 1053q-78 0 -144.5 60.5t-66.5 156.5q0 98 66 157.5t147 59.5q87 0 153 -58.5t66 -154.5t-67 -158.5t-154 -62.5zM913 883q-68 0 -126 52t-58 136
t58.5 136.5t127.5 52.5q75 0 134 -52.5t59 -134.5q0 -85 -59 -137.5t-136 -52.5zM526 1409q-57 0 -98 -38.5t-41 -100.5q0 -61 41.5 -99t97.5 -38q50 0 95 37.5t45 97.5q0 64 -45 102.5t-95 38.5zM922 1182q-48 0 -82.5 -30.5t-34.5 -80.5q0 -51 34.5 -82t82.5 -31
q40 0 73 29.5t33 79.5q0 52 -33.5 83.5t-72.5 31.5zM217 115l64 6q-13 -112 -103 -168l-33 53q58 35 72 109zM797 86l65 6q-17 -116 -104 -168l-29 56q59 39 68 106zM420 229l63 4q-14 -112 -102 -165l-31 55q57 38 70 106zM584 -43l61 8q-10 -114 -102 -170l-29 55
q60 35 70 107z" />
    <glyph glyph-name="nineoldstyle" unicode="&#xf739;" horiz-adv-x="913" 
d="M207 -555h-51v313h196v-47h-145v-82h94v-47h-94v-137zM446 -555h-51v313h197v-47h-146v-82h95v-47h-95v-137zM721 -289h-35v-110h29q69 0 69 57q0 53 -63 53zM635 -555v313h78q125 0 125 -100q0 -49 -33.5 -76.5t-81.5 -27.5h-37v-109h-51zM113 760l-19 76q88 21 178 24
q75 97 189 162l37 -70q-80 -44 -129 -96q65 -12 129 -33q103 -42 166 -100q67 81 172 143l34 -69q-95 -55 -155 -129q115 -130 137 -306l-76 -8q-17 135 -104 250q-62 -109 -62 -233q0 -170 119 -338l-63 -47q-134 203 -134 383q0 157 84 290q-56 53 -143 91q-73 28 -162 34
q-73 -113 -73 -254q0 -177 118 -346l-65 -41q-131 195 -131 383q0 135 61 254q-39 -4 -108 -20zM522 1044q-78 0 -144.5 61t-66.5 157q0 98 66 157.5t147 59.5q87 0 153 -58.5t66 -154.5t-67 -159t-154 -63zM913 874q-68 0 -126 52.5t-58 136.5t58.5 136t127.5 52
q75 0 134 -52t59 -134q0 -85 -59 -138t-136 -53zM526 1401q-57 0 -98 -38.5t-41 -100.5q0 -61 41.5 -99.5t97.5 -38.5q50 0 95 38t45 98q0 64 -45 102.5t-95 38.5zM922 1174q-48 0 -82.5 -30.5t-34.5 -80.5q0 -51 34.5 -82t82.5 -31q40 0 73 29.5t33 79.5q0 52 -33.5 83.5
t-72.5 31.5zM217 106l64 7q-13 -112 -103 -168l-33 53q58 35 72 108zM797 78l65 6q-17 -116 -104 -168l-29 55q58 38 68 107zM420 221l63 4q-14 -113 -102 -166l-31 56q57 38 70 106zM584 -51l61 8q-10 -114 -102 -170l-29 55q60 35 70 107z" />
    <glyph glyph-name="apple" unicode="&#xf8ff;" horiz-adv-x="1335" 
d="M63 618l-22 93q116 25 217 28q91 119 227 195l43 -84q-93 -52 -155 -117q78 -12 155 -39q115 -44 201 -121q82 100 209 172l43 -83q-113 -61 -188 -154q137 -158 165 -369l-92 -10q-20 165 -127 301q-73 -128 -73 -280q0 -206 143 -410l-78 -57q-160 245 -160 462
q0 194 103 353q-68 62 -174 108q-87 34 -195 41q-90 -140 -90 -307q0 -210 143 -416l-79 -51q-158 244 -158 463q0 164 76 307q-62 -8 -134 -25zM559 963q-60 0 -117.5 30t-98 91.5t-40.5 140.5q0 117 80.5 189.5t177.5 72.5q105 0 184.5 -71t79.5 -187q0 -117 -80.5 -191.5
t-185.5 -74.5zM1032 756q-81 0 -152 63.5t-71 163.5q0 101 70.5 164t154.5 63q91 0 161.5 -62.5t70.5 -160.5q0 -103 -70.5 -167t-163.5 -64zM565 1393q-69 0 -119.5 -47t-50.5 -121t50.5 -120t119.5 -46q60 0 113 44.5t53 117.5q0 79 -52.5 125.5t-113.5 46.5zM1040 1118
q-58 0 -98.5 -37t-40.5 -98t40.5 -98t98.5 -37q48 0 89.5 35.5t41.5 95.5q0 63 -41.5 101t-89.5 38zM190 -170l78 6q-17 -137 -125 -203l-39 66q69 40 86 131zM891 -205l78 6q-17 -138 -125 -202l-35 67q69 47 82 129zM436 -33l76 6q-17 -135 -123 -200l-37 65q68 46 84 129
zM633 -360l76 8q-13 -136 -125 -203l-35 66q74 45 84 129z" />
    <glyph glyph-name="longs_t" unicode="&#xfb05;" horiz-adv-x="1341" 
d="M356 942q-12 -123 -12 -229q0 -179 43 -335t148 -333l-117 -74q-207 330 -217 740q-70 -47 -109 -84l-92 102q109 94 209 148q20 199 90 353t207 302l358 -238l-78 -114l-258 172q-128 -157 -172 -410zM1214 410l113 -78q-86 -124 -184 -203.5t-248 -157.5
q-111 302 -111 627q0 148 25 307q-160 22 -268 29l8 137q136 -8 287 -31q53 207 133 346l121 -67q-72 -128 -117 -301q209 -45 340 -86l-41 -131q-180 51 -326 82q-24 -118 -24 -285q0 -239 53 -426q133 84 239 238z" />
    <glyph glyph-name="e.alt" 
d="M344 848q-127 -145 -139 -334q202 12 327 66q-26 85 -73.5 158t-114.5 110zM444 127l123 133l101 -94l-183 -195q-157 32 -271.5 140.5t-137.5 261.5l-76 4l10 137l56 -4q17 286 247 500q107 -30 188 -110.5t125.5 -180.5t61.5 -217q-100 -55 -213.5 -85t-259.5 -42
q25 -95 80 -152.5t149 -95.5z" />
    <glyph glyph-name="e.alt2" horiz-adv-x="618" 
d="M147 408l306 43q-8 194 -78 311q-84 -60 -146 -156t-82 -198zM209 1075q377 -144 377 -676q0 -43 -2 -63l-443 -70q13 -106 78.5 -170t173.5 -88l-28 -137q-178 40 -271.5 162t-93.5 286q0 151 78 300t213 251q-60 51 -131 74z" />
    <glyph glyph-name="b.alt" horiz-adv-x="829" 
d="M293 201q211 95 340 270q-128 191 -336 297q-47 -146 -47 -291q0 -143 43 -276zM350 897q139 -69 246.5 -173.5t206.5 -254.5q-202 -316 -574 -442q-116 184 -116 446q0 179 57 350q-92 26 -133 33l24 137q106 -23 160 -43q73 179 211 336.5t311 245.5l66 -123
q-157 -77 -283 -218.5t-176 -293.5z" />
    <glyph glyph-name="ft" horiz-adv-x="1122" 
d="M995 545l113 -78q-75 -110 -148.5 -168t-207.5 -125q-95 290 -95 498q0 89 19 233q-161 21 -326 21q-43 -165 -43 -346q0 -187 43.5 -371t124.5 -340l-123 -64q-89 173 -136.5 372.5t-47.5 400.5q0 161 37 340q-174 -20 -309 -70l-48 129q198 69 398 84q147 414 545 616
l61 -125q-157 -79 -276.5 -203t-180.5 -284q151 0 307 -25q34 134 101 258l121 -67q-49 -85 -84 -215q116 -22 247 -62l-38 -131q-211 53 -238 58q-14 -116 -14 -205q0 -158 34 -297q85 55 164 166z" />
    <glyph glyph-name="s.alt" horiz-adv-x="622" 
d="M506 700q32 -96 47.5 -150t29 -132.5t13.5 -155.5q0 -140 -47.5 -256t-133.5 -198t-196.5 -137.5t-245.5 -86.5l-30 133q245 58 379.5 193.5t134.5 351.5q0 72 -15 148q-85 -81 -178.5 -115.5t-224.5 -44.5q3 84 7 141.5t14.5 128t28.5 125.5t46 115.5t70.5 117
t99.5 113.5l94 -100q-197 -186 -219 -483q106 35 176 103t150 189z" />
    <glyph glyph-name="g.alt" horiz-adv-x="647" 
d="M131 440q149 -96 350 -102q0 251 -55 416q-91 -41 -174.5 -130.5t-120.5 -183.5zM438 1032q180 -269 180 -653q0 -319 -77 -506q-78 -86 -170 -149t-192 -101t-185.5 -59t-190.5 -37l-18 137q113 16 223.5 47.5t228.5 92.5t181 139q35 117 51 256q-146 7 -254 48.5
t-246 131.5q37 155 145 295t257 207q-18 32 -45 71z" />
    <glyph glyph-name="e.alt3" horiz-adv-x="753" 
d="M365 823q-35 -133 -35 -233q0 -48 6 -88q142 15 260 96q-89 153 -231 225zM705 272l86 -108l-226 -180q-124 57 -213.5 153t-126.5 221q-162 8 -338 91l60 122q127 -57 248 -71q-5 72 -5 86q0 100 22.5 198t66.5 228q183 -72 290 -168.5t203 -284.5q-192 -160 -403 -194
q52 -133 182 -215z" />
    <glyph glyph-name="l.alt" horiz-adv-x="460" 
d="M373 248l-115 -80q-233 359 -233 682q0 281 147.5 515t388.5 366l64 -123q-217 -114 -340 -316.5t-123 -435.5q0 -305 211 -608z" />
    <glyph glyph-name="l.ini" horiz-adv-x="651" 
d="M770 164l23 -137q-197 -33 -373 -33q-120 0 -217 10q-75 106 -117.5 270.5t-42.5 317.5q0 203 83 374.5t255 288.5l76 -112q-142 -98 -208.5 -241t-66.5 -312q0 -236 107 -455q39 -4 119 -4q152 0 362 33z" />
    <glyph glyph-name="k.alt" horiz-adv-x="737" 
d="M385 569l-16 -57l424 -549l-111 -82l-365 471q-73 -196 -206 -383l-111 84q297 405 297 985q0 43 -4 133l139 9q2 -43 2 -129q0 -160 -22 -338l575 51l12 -139z" />
    <glyph glyph-name="L.alt" horiz-adv-x="835" 
d="M774 68l98 -97q-139 -120 -355.5 -181.5t-420.5 -61.5q-3 7 -8.5 21t-19 70t-23.5 126t-18.5 193.5t-8.5 267.5q0 293 49 586.5t142 547.5l129 -49q-178 -486 -178 -1071q0 -152 11 -289t21 -197l11 -61q186 18 328.5 60.5t242.5 134.5z" />
    <glyph glyph-name="idotaccent" horiz-adv-x="442" 
d="M475 78l-90 -103q-169 153 -251.5 355.5t-82.5 437.5v41l137 -6v-35q0 -425 287 -690zM29 1004q0 38 28 65t66 27q40 0 67 -27t27 -65q0 -40 -27 -67.5t-67 -27.5q-39 0 -66.5 27.5t-27.5 67.5z" />
    <glyph glyph-name="T_h" horiz-adv-x="1574" 
d="M920 666q309 0 471.5 -176t162.5 -500l-184 -193l-100 97l145 151q-6 235 -119.5 346t-351.5 133q59 -229 207 -442l-113 -78q-127 183 -195.5 382t-68.5 394q0 257 121 473l-367 -30q-100 -391 -100 -815q0 -318 57 -603l-135 -26q-59 307 -59 627q0 401 92 806
l-420 -32v137l457 37q30 99 61 178l129 -47l-43 -123l428 37q53 65 131 133l91 -107q-143 -121 -223.5 -288.5t-80.5 -358.5q0 -69 7 -112z" />
    <glyph glyph-name="T_h.caron" horiz-adv-x="1574" 
d="M920 666q309 0 471.5 -176t162.5 -500l-184 -193l-100 97l145 151q-6 235 -119.5 346t-351.5 133q59 -229 207 -442l-113 -78q-127 183 -195.5 382t-68.5 394q0 257 121 473l-367 -30q-100 -391 -100 -815q0 -318 57 -603l-135 -26q-59 307 -59 627q0 401 92 806
l-420 -32v137l457 37q30 99 61 178l129 -47l-43 -123l428 37q53 65 131 133l91 -107q-143 -121 -223.5 -288.5t-80.5 -358.5q0 -69 7 -112zM920 1911l110 -84l-237 -293q-119 118 -236 283l113 79q56 -80 116 -149z" />
    <glyph glyph-name="T_h.commaaccent" horiz-adv-x="1574" 
d="M920 666q309 0 471.5 -176t162.5 -500l-184 -193l-100 97l145 151q-6 235 -119.5 346t-351.5 133q59 -229 207 -442l-113 -78q-127 183 -195.5 382t-68.5 394q0 257 121 473l-367 -30q-100 -391 -100 -815q0 -318 57 -603l-135 -26q-59 307 -59 627q0 401 92 806
l-420 -32v137l457 37q30 99 61 178l129 -47l-43 -123l428 37q53 65 131 133l91 -107q-143 -121 -223.5 -288.5t-80.5 -358.5q0 -69 7 -112zM723 -139l143 12q-30 -254 -229 -373l-70 121q132 79 156 240z" />
    <glyph glyph-name="h.alt" horiz-adv-x="710" 
d="M346 946q162 -211 245 -430.5t116 -509.5l-138 -14q-17 180 -70 357t-169 384q-41 -38 -80.5 -94t-58.5 -93l-19 -36q42 -296 184 -453l-100 -94q-238 264 -238 772q0 227 54 438.5t157 358.5l113 -80q-93 -133 -138.5 -327.5t-45.5 -383.5q69 89 188 205z" />
    <glyph glyph-name="z.end" horiz-adv-x="876" 
d="M907 -358l51 -129q-156 -62 -266 -62q-91 0 -159.5 35.5t-109 99t-60 144.5t-19.5 178q0 114 29 266q-105 -44 -164 -74l-62 123q109 55 261 115q81 302 196 512q-33 -2 -98 -2q-64 0 -244 4q-12 -97 -59.5 -181t-124.5 -136l-78 112q141 99 141 348q242 -8 361 -8
q177 0 372 19q-114 -160 -181 -290.5t-126 -322.5q82 26 176 45l27 -135q-122 -26 -246 -70q-43 -199 -43 -331q0 -314 211 -314q88 0 215 54z" />
    <glyph glyph-name="zero.slash" horiz-adv-x="1177" 
d="M1112 717q0 -86 -14.5 -176.5t-42.5 -181t-74 -170t-104.5 -141.5t-139 -98t-172.5 -36q-91 0 -171.5 37t-139 100t-105 143.5t-74.5 171.5t-42.5 181t-14.5 174q0 105 20 215t64 217.5t106.5 191t154.5 135.5t200 52q95 0 177.5 -37.5t141 -102.5t104 -146.5t72.5 -174
t40.5 -182t13.5 -172.5zM973 721q0 168 -62 348l-635 -821q116 -197 289 -197q84 0 155 48.5t116.5 122.5t77.5 166t45.5 176.5t13.5 156.5zM158 721q0 -175 57 -338l635 817q-116 193 -287 193q-83 0 -153.5 -48.5t-115.5 -123t-77 -167t-45.5 -177t-13.5 -156.5z" />
    <glyph glyph-name="a.alt" horiz-adv-x="796" 
d="M170 223q119 -102 244 -102q56 0 112 18q-10 59 -10 152q0 153 25 330q-82 30 -156 30q-97 0 -164 -53q-65 -115 -65 -254q0 -66 14 -121zM813 84l59 -125q-76 -37 -141 -37q-101 0 -158 88q-74 -26 -159 -26q-80 0 -147.5 18t-107 43.5t-67 51t-37.5 43.5l-10 18
q-27 44 -27 186q0 201 97 344q45 49 119 74.5t151 25.5q138 0 301 -83q-1 -11 -7.5 -68t-11.5 -106t-9.5 -120t-4.5 -128q0 -224 78 -224q40 0 82 25z" />
    <glyph glyph-name="aacute.alt" horiz-adv-x="796" 
d="M170 223q119 -102 244 -102q56 0 112 18q-10 59 -10 152q0 153 25 330q-82 30 -156 30q-97 0 -164 -53q-65 -115 -65 -254q0 -66 14 -121zM813 84l59 -125q-76 -37 -141 -37q-101 0 -158 88q-74 -26 -159 -26q-80 0 -147.5 18t-107 43.5t-67 51t-37.5 43.5l-10 18
q-27 44 -27 186q0 201 97 344q45 49 119 74.5t151 25.5q138 0 301 -83q-1 -11 -7.5 -68t-11.5 -106t-9.5 -120t-4.5 -128q0 -224 78 -224q40 0 82 25zM385 909l-80 113l303 215l80 -115z" />
    <glyph glyph-name="abreve.alt" horiz-adv-x="796" 
d="M170 223q119 -102 244 -102q56 0 112 18q-10 59 -10 152q0 153 25 330q-82 30 -156 30q-97 0 -164 -53q-65 -115 -65 -254q0 -66 14 -121zM813 84l59 -125q-76 -37 -141 -37q-101 0 -158 88q-74 -26 -159 -26q-80 0 -147.5 18t-107 43.5t-67 51t-37.5 43.5l-10 18
q-27 44 -27 186q0 201 97 344q45 49 119 74.5t151 25.5q138 0 301 -83q-1 -11 -7.5 -68t-11.5 -106t-9.5 -120t-4.5 -128q0 -224 78 -224q40 0 82 25zM586 1188l116 -74q-65 -100 -148 -152.5t-171 -52.5q-172 0 -303 189l113 76q88 -125 192 -125q107 0 201 139z" />
    <glyph glyph-name="acircumflex.alt" horiz-adv-x="796" 
d="M170 223q119 -102 244 -102q56 0 112 18q-10 59 -10 152q0 153 25 330q-82 30 -156 30q-97 0 -164 -53q-65 -115 -65 -254q0 -66 14 -121zM813 84l59 -125q-76 -37 -141 -37q-101 0 -158 88q-74 -26 -159 -26q-80 0 -147.5 18t-107 43.5t-67 51t-37.5 43.5l-10 18
q-27 44 -27 186q0 201 97 344q45 49 119 74.5t151 25.5q138 0 301 -83q-1 -11 -7.5 -68t-11.5 -106t-9.5 -120t-4.5 -128q0 -224 78 -224q40 0 82 25zM260 909l-110 86l235 291q119 -114 238 -280l-115 -80q-40 61 -117 149z" />
    <glyph glyph-name="adieresis.alt" horiz-adv-x="796" 
d="M170 223q119 -102 244 -102q56 0 112 18q-10 59 -10 152q0 153 25 330q-82 30 -156 30q-97 0 -164 -53q-65 -115 -65 -254q0 -66 14 -121zM813 84l59 -125q-76 -37 -141 -37q-101 0 -158 88q-74 -26 -159 -26q-80 0 -147.5 18t-107 43.5t-67 51t-37.5 43.5l-10 18
q-27 44 -27 186q0 201 97 344q45 49 119 74.5t151 25.5q138 0 301 -83q-1 -11 -7.5 -68t-11.5 -106t-9.5 -120t-4.5 -128q0 -224 78 -224q40 0 82 25zM164 909v178h176v-178h-176zM449 909v178h176v-178h-176z" />
    <glyph glyph-name="agrave.alt" horiz-adv-x="796" 
d="M170 223q119 -102 244 -102q56 0 112 18q-10 59 -10 152q0 153 25 330q-82 30 -156 30q-97 0 -164 -53q-65 -115 -65 -254q0 -66 14 -121zM813 84l59 -125q-76 -37 -141 -37q-101 0 -158 88q-74 -26 -159 -26q-80 0 -147.5 18t-107 43.5t-67 51t-37.5 43.5l-10 18
q-27 44 -27 186q0 201 97 344q45 49 119 74.5t151 25.5q138 0 301 -83q-1 -11 -7.5 -68t-11.5 -106t-9.5 -120t-4.5 -128q0 -224 78 -224q40 0 82 25zM512 1022l-80 -113l-303 213l78 115z" />
    <glyph glyph-name="amacron.alt" horiz-adv-x="796" 
d="M170 223q119 -102 244 -102q56 0 112 18q-10 59 -10 152q0 153 25 330q-82 30 -156 30q-97 0 -164 -53q-65 -115 -65 -254q0 -66 14 -121zM813 84l59 -125q-76 -37 -141 -37q-101 0 -158 88q-74 -26 -159 -26q-80 0 -147.5 18t-107 43.5t-67 51t-37.5 43.5l-10 18
q-27 44 -27 186q0 201 97 344q45 49 119 74.5t151 25.5q138 0 301 -83q-1 -11 -7.5 -68t-11.5 -106t-9.5 -120t-4.5 -128q0 -224 78 -224q40 0 82 25zM68 909v140h614v-140h-614z" />
    <glyph glyph-name="aogonek.alt" horiz-adv-x="796" 
d="M782 -440l-43 -129q-143 20 -220 90.5t-77 183.5q0 135 133 299l-2 6q-74 -26 -159 -26q-80 0 -147.5 18t-107 43.5t-67 51t-37.5 43.5l-10 18q-27 44 -27 186q0 201 97 344q45 49 119 74.5t151 25.5q138 0 301 -83q-1 -11 -7.5 -68t-11.5 -106t-9.5 -120t-4.5 -128
q0 -224 78 -224q40 0 82 25l59 -125q-76 -37 -141 -37q-22 0 -43 6q-104 -124 -104 -219q0 -38 14.5 -65t44.5 -43.5t61.5 -25t77.5 -15.5zM170 223q119 -102 244 -102q56 0 112 18q-10 59 -10 152q0 153 25 330q-82 30 -156 30q-97 0 -164 -53q-65 -115 -65 -254
q0 -66 14 -121z" />
    <glyph glyph-name="aring.alt" horiz-adv-x="796" 
d="M170 223q119 -102 244 -102q56 0 112 18q-10 59 -10 152q0 153 25 330q-82 30 -156 30q-97 0 -164 -53q-65 -115 -65 -254q0 -66 14 -121zM813 84l59 -125q-76 -37 -141 -37q-101 0 -158 88q-74 -26 -159 -26q-80 0 -147.5 18t-107 43.5t-67 51t-37.5 43.5l-10 18
q-27 44 -27 186q0 201 97 344q45 49 119 74.5t151 25.5q138 0 301 -83q-1 -11 -7.5 -68t-11.5 -106t-9.5 -120t-4.5 -128q0 -224 78 -224q40 0 82 25zM508 1122q0 54 -35 85.5t-76 31.5q-47 0 -81.5 -31.5t-34.5 -81.5q0 -52 34.5 -84t81.5 -32q41 0 76 31t35 81zM610 1128
q0 -96 -66 -157.5t-153 -61.5q-78 0 -144.5 60.5t-66.5 156.5q0 95 67 155t146 60q86 0 151.5 -59.5t65.5 -153.5z" />
    <glyph glyph-name="atilde.alt" horiz-adv-x="796" 
d="M170 223q119 -102 244 -102q56 0 112 18q-10 59 -10 152q0 153 25 330q-82 30 -156 30q-97 0 -164 -53q-65 -115 -65 -254q0 -66 14 -121zM813 84l59 -125q-76 -37 -141 -37q-101 0 -158 88q-74 -26 -159 -26q-80 0 -147.5 18t-107 43.5t-67 51t-37.5 43.5l-10 18
q-27 44 -27 186q0 201 97 344q45 49 119 74.5t151 25.5q138 0 301 -83q-1 -11 -7.5 -68t-11.5 -106t-9.5 -120t-4.5 -128q0 -224 78 -224q40 0 82 25zM694 1255l97 -100l-252 -248l-252 187l-164 -154l-94 100l247 234l250 -184z" />
    <glyph glyph-name="eacute.alt" 
d="M344 848q-127 -145 -139 -334q202 12 327 66q-26 85 -73.5 158t-114.5 110zM444 127l123 133l101 -94l-183 -195q-157 32 -271.5 140.5t-137.5 261.5l-76 4l10 137l56 -4q17 286 247 500q107 -30 188 -110.5t125.5 -180.5t61.5 -217q-100 -55 -213.5 -85t-259.5 -42
q25 -95 80 -152.5t149 -95.5zM305 1061l-80 113l303 215l80 -115z" />
    <glyph glyph-name="ebreve.alt" 
d="M344 848q-127 -145 -139 -334q202 12 327 66q-26 85 -73.5 158t-114.5 110zM444 127l123 133l101 -94l-183 -195q-157 32 -271.5 140.5t-137.5 261.5l-76 4l10 137l56 -4q17 286 247 500q107 -30 188 -110.5t125.5 -180.5t61.5 -217q-100 -55 -213.5 -85t-259.5 -42
q25 -95 80 -152.5t149 -95.5zM528 1335l117 -73q-65 -100 -148 -152.5t-171 -52.5q-173 0 -303 188l112 76q88 -125 193 -125q106 0 200 139z" />
    <glyph glyph-name="ecaron.alt" 
d="M344 848q-127 -145 -139 -334q202 12 327 66q-26 85 -73.5 158t-114.5 110zM444 127l123 133l101 -94l-183 -195q-157 32 -271.5 140.5t-137.5 261.5l-76 4l10 137l56 -4q17 286 247 500q107 -30 188 -110.5t125.5 -180.5t61.5 -217q-100 -55 -213.5 -85t-259.5 -42
q25 -95 80 -152.5t149 -95.5zM442 1417l111 -84l-238 -293q-115 115 -235 283l113 80q60 -85 116 -150z" />
    <glyph glyph-name="ecircumflex.alt" 
d="M344 848q-127 -145 -139 -334q202 12 327 66q-26 85 -73.5 158t-114.5 110zM444 127l123 133l101 -94l-183 -195q-157 32 -271.5 140.5t-137.5 261.5l-76 4l10 137l56 -4q17 286 247 500q107 -30 188 -110.5t125.5 -180.5t61.5 -217q-100 -55 -213.5 -85t-259.5 -42
q25 -95 80 -152.5t149 -95.5zM186 1040l-110 86l235 291q119 -114 238 -280l-115 -80q-40 61 -117 149z" />
    <glyph glyph-name="edieresis.alt" 
d="M344 848q-127 -145 -139 -334q202 12 327 66q-26 85 -73.5 158t-114.5 110zM444 127l123 133l101 -94l-183 -195q-157 32 -271.5 140.5t-137.5 261.5l-76 4l10 137l56 -4q17 286 247 500q107 -30 188 -110.5t125.5 -180.5t61.5 -217q-100 -55 -213.5 -85t-259.5 -42
q25 -95 80 -152.5t149 -95.5zM86 1081v179h176v-179h-176zM371 1081v179h176v-179h-176z" />
    <glyph glyph-name="edotaccent.alt" 
d="M344 848q-127 -145 -139 -334q202 12 327 66q-26 85 -73.5 158t-114.5 110zM444 127l123 133l101 -94l-183 -195q-157 32 -271.5 140.5t-137.5 261.5l-76 4l10 137l56 -4q17 286 247 500q107 -30 188 -110.5t125.5 -180.5t61.5 -217q-100 -55 -213.5 -85t-259.5 -42
q25 -95 80 -152.5t149 -95.5zM231 1239q0 38 28 65t67 27q40 0 67 -27t27 -65q0 -40 -27 -67t-67 -27q-39 0 -67 27.5t-28 66.5z" />
    <glyph glyph-name="egrave.alt" 
d="M344 848q-127 -145 -139 -334q202 12 327 66q-26 85 -73.5 158t-114.5 110zM444 127l123 133l101 -94l-183 -195q-157 32 -271.5 140.5t-137.5 261.5l-76 4l10 137l56 -4q17 286 247 500q107 -30 188 -110.5t125.5 -180.5t61.5 -217q-100 -55 -213.5 -85t-259.5 -42
q25 -95 80 -152.5t149 -95.5zM506 1174l-80 -113l-303 213l78 115z" />
    <glyph glyph-name="emacron.alt" 
d="M344 848q-127 -145 -139 -334q202 12 327 66q-26 85 -73.5 158t-114.5 110zM444 127l123 133l101 -94l-183 -195q-157 32 -271.5 140.5t-137.5 261.5l-76 4l10 137l56 -4q17 286 247 500q107 -30 188 -110.5t125.5 -180.5t61.5 -217q-100 -55 -213.5 -85t-259.5 -42
q25 -95 80 -152.5t149 -95.5zM31 1079v140h614v-140h-614z" />
    <glyph glyph-name="eogonek.alt" 
d="M535 -444l-43 -129q-143 20 -220 90.5t-77 183.5q0 143 149 317q-108 54 -179.5 146t-88.5 209l-76 4l10 137l56 -4q17 286 247 500q107 -30 188 -110.5t125.5 -180.5t61.5 -217q-100 -55 -213.5 -85t-259.5 -42q25 -95 80 -152.5t149 -95.5l123 133l101 -94l-156 -166
q-176 -182 -176 -295q0 -38 15 -65t44.5 -43.5t61.5 -25t78 -15.5zM344 848q-127 -145 -139 -334q202 12 327 66q-26 85 -73.5 158t-114.5 110z" />
    <glyph glyph-name="eacute.alt2" horiz-adv-x="618" 
d="M147 408l306 43q-8 194 -78 311q-84 -60 -146 -156t-82 -198zM209 1075q377 -144 377 -676q0 -43 -2 -63l-443 -70q13 -106 78.5 -170t173.5 -88l-28 -137q-178 40 -271.5 162t-93.5 286q0 151 78 300t213 251q-60 51 -131 74zM424 1061l-80 113l303 215l80 -115z" />
    <glyph glyph-name="ebreve.alt2" horiz-adv-x="618" 
d="M147 408l306 43q-8 194 -78 311q-84 -60 -146 -156t-82 -198zM209 1075q377 -144 377 -676q0 -43 -2 -63l-443 -70q13 -106 78.5 -170t173.5 -88l-28 -137q-178 40 -271.5 162t-93.5 286q0 151 78 300t213 251q-60 51 -131 74zM535 1335l116 -73q-65 -100 -148 -152.5
t-171 -52.5q-173 0 -303 188l112 76q88 -125 193 -125q107 0 201 139z" />
    <glyph glyph-name="ecaron.alt2" horiz-adv-x="618" 
d="M147 408l306 43q-8 194 -78 311q-84 -60 -146 -156t-82 -198zM209 1075q377 -144 377 -676q0 -43 -2 -63l-443 -70q13 -106 78.5 -170t173.5 -88l-28 -137q-178 40 -271.5 162t-93.5 286q0 151 78 300t213 251q-60 51 -131 74zM432 1417l111 -84l-238 -293
q-115 115 -235 283l112 80q56 -79 117 -150z" />
    <glyph glyph-name="ecircumflex.alt2" horiz-adv-x="618" 
d="M147 408l306 43q-8 194 -78 311q-84 -60 -146 -156t-82 -198zM209 1075q377 -144 377 -676q0 -43 -2 -63l-443 -70q13 -106 78.5 -170t173.5 -88l-28 -137q-178 40 -271.5 162t-93.5 286q0 151 78 300t213 251q-60 51 -131 74zM160 1040l-111 86l236 291
q116 -111 237 -280l-114 -80q-40 61 -117 149z" />
    <glyph glyph-name="edieresis.alt2" horiz-adv-x="618" 
d="M147 408l306 43q-8 194 -78 311q-84 -60 -146 -156t-82 -198zM209 1075q377 -144 377 -676q0 -43 -2 -63l-443 -70q13 -106 78.5 -170t173.5 -88l-28 -137q-178 40 -271.5 162t-93.5 286q0 151 78 300t213 251q-60 51 -131 74zM29 1137v178h176v-178h-176zM313 1137v178
h176v-178h-176z" />
    <glyph glyph-name="edotaccent.alt2" horiz-adv-x="618" 
d="M147 408l306 43q-8 194 -78 311q-84 -60 -146 -156t-82 -198zM209 1075q377 -144 377 -676q0 -43 -2 -63l-443 -70q13 -106 78.5 -170t173.5 -88l-28 -137q-178 40 -271.5 162t-93.5 286q0 151 78 300t213 251q-60 51 -131 74zM150 1217q0 38 28 65t66 27q40 0 67 -27
t27 -65q0 -40 -27 -67.5t-67 -27.5q-38 0 -66 28t-28 67z" />
    <glyph glyph-name="egrave.alt2" horiz-adv-x="618" 
d="M147 408l306 43q-8 194 -78 311q-84 -60 -146 -156t-82 -198zM209 1075q377 -144 377 -676q0 -43 -2 -63l-443 -70q13 -106 78.5 -170t173.5 -88l-28 -137q-178 40 -271.5 162t-93.5 286q0 151 78 300t213 251q-60 51 -131 74zM498 1174l-80 -113l-303 213l78 115z" />
    <glyph glyph-name="emacron.alt2" horiz-adv-x="618" 
d="M147 408l306 43q-8 194 -78 311q-84 -60 -146 -156t-82 -198zM209 1075q377 -144 377 -676q0 -43 -2 -63l-443 -70q13 -106 78.5 -170t173.5 -88l-28 -137q-178 40 -271.5 162t-93.5 286q0 151 78 300t213 251q-60 51 -131 74zM-27 1079v140h615v-140h-615z" />
    <glyph glyph-name="eogonek.alt2" horiz-adv-x="618" 
d="M322 -440l-43 -129q-143 20 -220 90.5t-77 183.5q0 138 135 301q-117 126 -117 313q0 151 78 300t213 251q-60 51 -131 74l49 131q377 -144 377 -676q0 -43 -2 -63l-443 -70q13 -106 78.5 -170t173.5 -88l-28 -137q-80 18 -142 53q-100 -124 -100 -215q0 -38 15 -65
t44.5 -43.5t61.5 -25t78 -15.5zM147 408l306 43q-8 194 -78 311q-84 -60 -146 -156t-82 -198z" />
    <glyph glyph-name="eacute.alt3" horiz-adv-x="753" 
d="M365 823q-35 -133 -35 -233q0 -48 6 -88q142 15 260 96q-89 153 -231 225zM705 272l86 -108l-226 -180q-124 57 -213.5 153t-126.5 221q-162 8 -338 91l60 122q127 -57 248 -71q-5 72 -5 86q0 100 22.5 198t66.5 228q183 -72 290 -168.5t203 -284.5q-192 -160 -403 -194
q52 -133 182 -215zM377 1061l-80 113l303 215l80 -115z" />
    <glyph glyph-name="ebreve.alt3" horiz-adv-x="753" 
d="M365 823q-35 -133 -35 -233q0 -48 6 -88q142 15 260 96q-89 153 -231 225zM705 272l86 -108l-226 -180q-124 57 -213.5 153t-126.5 221q-162 8 -338 91l60 122q127 -57 248 -71q-5 72 -5 86q0 100 22.5 198t66.5 228q183 -72 290 -168.5t203 -284.5q-192 -160 -403 -194
q52 -133 182 -215zM537 1335l116 -73q-65 -100 -148 -152.5t-171 -52.5q-173 0 -303 188l112 76q88 -125 193 -125q107 0 201 139z" />
    <glyph glyph-name="ecaron.alt3" horiz-adv-x="753" 
d="M365 823q-35 -133 -35 -233q0 -48 6 -88q142 15 260 96q-89 153 -231 225zM705 272l86 -108l-226 -180q-124 57 -213.5 153t-126.5 221q-162 8 -338 91l60 122q127 -57 248 -71q-5 72 -5 86q0 100 22.5 198t66.5 228q183 -72 290 -168.5t203 -284.5q-192 -160 -403 -194
q52 -133 182 -215zM504 1417l110 -84l-237 -293q-119 118 -236 283l113 80q56 -79 117 -150z" />
    <glyph glyph-name="ecircumflex.alt3" horiz-adv-x="753" 
d="M365 823q-35 -133 -35 -233q0 -48 6 -88q142 15 260 96q-89 153 -231 225zM705 272l86 -108l-226 -180q-124 57 -213.5 153t-126.5 221q-162 8 -338 91l60 122q127 -57 248 -71q-5 72 -5 86q0 100 22.5 198t66.5 228q183 -72 290 -168.5t203 -284.5q-192 -160 -403 -194
q52 -133 182 -215zM279 1040l-111 86l235 291q119 -114 238 -280l-115 -80q-44 66 -116 149z" />
    <glyph glyph-name="edieresis.alt3" horiz-adv-x="753" 
d="M365 823q-35 -133 -35 -233q0 -48 6 -88q142 15 260 96q-89 153 -231 225zM705 272l86 -108l-226 -180q-124 57 -213.5 153t-126.5 221q-162 8 -338 91l60 122q127 -57 248 -71q-5 72 -5 86q0 100 22.5 198t66.5 228q183 -72 290 -168.5t203 -284.5q-192 -160 -403 -194
q52 -133 182 -215zM100 1081v179h176v-179h-176zM385 1081v179h176v-179h-176z" />
    <glyph glyph-name="edotaccent.alt3" horiz-adv-x="753" 
d="M365 823q-35 -133 -35 -233q0 -48 6 -88q142 15 260 96q-89 153 -231 225zM705 272l86 -108l-226 -180q-124 57 -213.5 153t-126.5 221q-162 8 -338 91l60 122q127 -57 248 -71q-5 72 -5 86q0 100 22.5 198t66.5 228q183 -72 290 -168.5t203 -284.5q-192 -160 -403 -194
q52 -133 182 -215zM260 1202q0 38 28 65t66 27q40 0 67.5 -27t27.5 -65q0 -40 -27.5 -67t-67.5 -27q-39 0 -66.5 27.5t-27.5 66.5z" />
    <glyph glyph-name="egrave.alt3" horiz-adv-x="753" 
d="M365 823q-35 -133 -35 -233q0 -48 6 -88q142 15 260 96q-89 153 -231 225zM705 272l86 -108l-226 -180q-124 57 -213.5 153t-126.5 221q-162 8 -338 91l60 122q127 -57 248 -71q-5 72 -5 86q0 100 22.5 198t66.5 228q183 -72 290 -168.5t203 -284.5q-192 -160 -403 -194
q52 -133 182 -215zM514 1174l-80 -113l-303 213l78 115z" />
    <glyph glyph-name="emacron.alt3" horiz-adv-x="753" 
d="M365 823q-35 -133 -35 -233q0 -48 6 -88q142 15 260 96q-89 153 -231 225zM705 272l86 -108l-226 -180q-124 57 -213.5 153t-126.5 221q-162 8 -338 91l60 122q127 -57 248 -71q-5 72 -5 86q0 100 22.5 198t66.5 228q183 -72 290 -168.5t203 -284.5q-192 -160 -403 -194
q52 -133 182 -215zM72 1079v140h614v-140h-614z" />
    <glyph glyph-name="eogonek.alt3" horiz-adv-x="753" 
d="M705 272l86 -108l-226 -180q-63 -61 -110 -135t-47 -140q0 -38 14.5 -65t44.5 -43.5t61.5 -25t77.5 -15.5l-43 -129q-143 20 -220 90.5t-77 183.5q0 156 176 350q-163 122 -217 303q-162 8 -338 91l60 122q127 -57 248 -71q-5 72 -5 86q0 100 22.5 198t66.5 228
q183 -72 290 -168.5t203 -284.5q-192 -160 -403 -194q52 -133 182 -215zM365 823q-35 -133 -35 -233q0 -48 6 -88q142 15 260 96q-89 153 -231 225z" />
    <glyph glyph-name="gbreve.alt" horiz-adv-x="647" 
d="M131 440q149 -96 350 -102q0 251 -55 416q-91 -41 -174.5 -130.5t-120.5 -183.5zM438 1032q180 -269 180 -653q0 -319 -77 -506q-78 -86 -170 -149t-192 -101t-185.5 -59t-190.5 -37l-18 137q113 16 223.5 47.5t228.5 92.5t181 139q35 117 51 256q-146 7 -254 48.5
t-246 131.5q37 155 145 295t257 207q-18 32 -45 71zM291 1061l-80 113l303 215l80 -115z" />
    <glyph glyph-name="gcircumflex.alt" horiz-adv-x="647" 
d="M131 440q149 -96 350 -102q0 251 -55 416q-91 -41 -174.5 -130.5t-120.5 -183.5zM438 1032q180 -269 180 -653q0 -319 -77 -506q-78 -86 -170 -149t-192 -101t-185.5 -59t-190.5 -37l-18 137q113 16 223.5 47.5t228.5 92.5t181 139q35 117 51 256q-146 7 -254 48.5
t-246 131.5q37 155 145 295t257 207q-18 32 -45 71zM270 1040l-110 86l235 291q119 -114 238 -280l-115 -80q-40 61 -117 149z" />
    <glyph glyph-name="gcommaaccent.alt" horiz-adv-x="647" 
d="M131 440q149 -96 350 -102q0 251 -55 416q-91 -41 -174.5 -130.5t-120.5 -183.5zM438 1032q180 -269 180 -653q0 -319 -77 -506q-78 -86 -170 -149t-192 -101t-185.5 -59t-190.5 -37l-18 137q113 16 223.5 47.5t228.5 92.5t181 139q35 117 51 256q-146 7 -254 48.5
t-246 131.5q37 155 145 295t257 207q-18 32 -45 71zM68 180l143 13q-30 -254 -229 -373l-70 121q133 79 156 239z" />
    <glyph glyph-name="gdotaccent.alt" horiz-adv-x="647" 
d="M131 440q149 -96 350 -102q0 251 -55 416q-91 -41 -174.5 -130.5t-120.5 -183.5zM438 1032q180 -269 180 -653q0 -319 -77 -506q-78 -86 -170 -149t-192 -101t-185.5 -59t-190.5 -37l-18 137q113 16 223.5 47.5t228.5 92.5t181 139q35 117 51 256q-146 7 -254 48.5
t-246 131.5q37 155 145 295t257 207q-18 32 -45 71zM291 1202q0 38 28 65t66 27q40 0 67 -27t27 -65q0 -40 -27 -67t-67 -27q-39 0 -66.5 27.5t-27.5 66.5z" />
    <glyph glyph-name="lacute.alt" horiz-adv-x="460" 
d="M373 248l-115 -80q-233 359 -233 682q0 281 147.5 515t388.5 366l64 -123q-217 -114 -340 -316.5t-123 -435.5q0 -305 211 -608zM449 1767l-80 113l303 215l80 -115z" />
    <glyph glyph-name="lcaron.alt" horiz-adv-x="460" 
d="M373 248l-115 -80q-233 359 -233 682q0 281 147.5 515t388.5 366l64 -123q-217 -114 -340 -316.5t-123 -435.5q0 -305 211 -608zM586 2124l110 -84l-237 -293q-118 119 -236 283l113 79q52 -74 117 -149z" />
    <glyph glyph-name="lcommaaccent.alt" horiz-adv-x="460" 
d="M373 248l-115 -80q-233 359 -233 682q0 281 147.5 515t388.5 366l64 -123q-217 -114 -340 -316.5t-123 -435.5q0 -305 211 -608zM281 0l143 12q-30 -253 -229 -372l-70 120q132 79 156 240z" />
    <glyph glyph-name="ldot.alt" horiz-adv-x="460" 
d="M373 248l-115 -80q-233 359 -233 682q0 281 147.5 515t388.5 366l64 -123q-217 -114 -340 -316.5t-123 -435.5q0 -305 211 -608zM459 1898q0 38 28 65.5t66 27.5q39 0 66.5 -27.5t27.5 -65.5q0 -40 -27 -67t-67 -27q-39 0 -66.5 27.5t-27.5 66.5z" />
    <glyph glyph-name="lslash.alt" horiz-adv-x="532" 
d="M-96 995v140l186 57q142 444 555 653l60 -125q-313 -160 -449 -475l262 82v-139l-317 -101q-41 -154 -41 -339q0 -189 44 -373t126 -338l-121 -66q-89 171 -137.5 372t-48.5 405q0 156 26 292z" />
    <glyph glyph-name="zacute.end" horiz-adv-x="876" 
d="M907 -358l51 -129q-156 -62 -266 -62q-91 0 -159.5 35.5t-109 99t-60 144.5t-19.5 178q0 114 29 266q-105 -44 -164 -74l-62 123q109 55 261 115q81 302 196 512q-33 -2 -98 -2q-64 0 -244 4q-12 -97 -59.5 -181t-124.5 -136l-78 112q141 99 141 348q242 -8 361 -8
q177 0 372 19q-114 -160 -181 -290.5t-126 -322.5q82 26 176 45l27 -135q-122 -26 -246 -70q-43 -199 -43 -331q0 -314 211 -314q88 0 215 54zM461 1061l-80 113l303 215l80 -115z" />
    <glyph glyph-name="zcaron.end" horiz-adv-x="876" 
d="M907 -358l51 -129q-156 -62 -266 -62q-91 0 -159.5 35.5t-109 99t-60 144.5t-19.5 178q0 114 29 266q-105 -44 -164 -74l-62 123q109 55 261 115q81 302 196 512q-33 -2 -98 -2q-64 0 -244 4q-12 -97 -59.5 -181t-124.5 -136l-78 112q141 99 141 348q242 -8 361 -8
q177 0 372 19q-114 -160 -181 -290.5t-126 -322.5q82 26 176 45l27 -135q-122 -26 -246 -70q-43 -199 -43 -331q0 -314 211 -314q88 0 215 54zM602 1417l111 -84l-238 -293q-115 115 -235 283l112 80q56 -79 117 -150z" />
    <glyph glyph-name="zdotaccent.end" horiz-adv-x="876" 
d="M907 -358l51 -129q-156 -62 -266 -62q-91 0 -159.5 35.5t-109 99t-60 144.5t-19.5 178q0 114 29 266q-105 -44 -164 -74l-62 123q109 55 261 115q81 302 196 512q-33 -2 -98 -2q-64 0 -244 4q-12 -97 -59.5 -181t-124.5 -136l-78 112q141 99 141 348q242 -8 361 -8
q177 0 372 19q-114 -160 -181 -290.5t-126 -322.5q82 26 176 45l27 -135q-122 -26 -246 -70q-43 -199 -43 -331q0 -314 211 -314q88 0 215 54zM420 1202q0 38 28 65t66 27q40 0 67 -27t27 -65q0 -40 -27 -67t-67 -27q-39 0 -66.5 27.5t-27.5 66.5z" />
    <glyph glyph-name="hbar.alt" horiz-adv-x="710" 
d="M-117 1079v140h201q55 183 145 313l113 -80q-67 -97 -113 -233h269v-140h-305q-35 -164 -35 -338q69 89 188 205q162 -211 245 -430.5t116 -509.5l-138 -14q-17 180 -70 357t-169 384q-41 -38 -80.5 -94t-58.5 -93l-19 -36q42 -296 184 -453l-100 -94q-238 264 -238 772
q0 182 33 344h-168z" />
    <glyph glyph-name="hcircumflex.alt" horiz-adv-x="710" 
d="M346 946q162 -211 245 -430.5t116 -509.5l-138 -14q-17 180 -70 357t-169 384q-41 -38 -80.5 -94t-58.5 -93l-19 -36q42 -296 184 -453l-100 -94q-238 264 -238 772q0 227 54 438.5t157 358.5l113 -80q-93 -133 -138.5 -327.5t-45.5 -383.5q69 89 188 205zM336 997
l-111 86l236 291q116 -111 237 -280l-114 -80q-40 61 -117 149z" />
    <glyph glyph-name="sacute.alt" horiz-adv-x="622" 
d="M506 700q32 -96 47.5 -150t29 -132.5t13.5 -155.5q0 -140 -47.5 -256t-133.5 -198t-196.5 -137.5t-245.5 -86.5l-30 133q245 58 379.5 193.5t134.5 351.5q0 72 -15 148q-85 -81 -178.5 -115.5t-224.5 -44.5q3 84 7 141.5t14.5 128t28.5 125.5t46 115.5t70.5 117
t99.5 113.5l94 -100q-197 -186 -219 -483q106 35 176 103t150 189zM283 1061l-80 113l303 215l80 -115z" />
    <glyph glyph-name="scaron.alt" horiz-adv-x="622" 
d="M506 700q32 -96 47.5 -150t29 -132.5t13.5 -155.5q0 -140 -47.5 -256t-133.5 -198t-196.5 -137.5t-245.5 -86.5l-30 133q245 58 379.5 193.5t134.5 351.5q0 72 -15 148q-85 -81 -178.5 -115.5t-224.5 -44.5q3 84 7 141.5t14.5 128t28.5 125.5t46 115.5t70.5 117
t99.5 113.5l94 -100q-197 -186 -219 -483q106 35 176 103t150 189zM432 1417l111 -84l-238 -293q-115 115 -235 283l112 80q56 -79 117 -150z" />
    <glyph glyph-name="scedilla.alt" horiz-adv-x="622" 
d="M506 700q32 -96 47.5 -150t29 -132.5t13.5 -155.5q0 -128 -37 -229q158 -180 158 -328q0 -113 -77 -183.5t-220 -90.5l-43 129q46 7 77.5 15.5t61.5 25t44.5 43.5t14.5 65q0 86 -83 191q-157 -232 -519 -316l-30 133q245 58 379.5 193.5t134.5 351.5q0 72 -15 148
q-85 -81 -178.5 -115.5t-224.5 -44.5q3 84 7 141.5t14.5 128t28.5 125.5t46 115.5t70.5 117t99.5 113.5l94 -100q-197 -186 -219 -483q106 35 176 103t150 189z" />
    <glyph glyph-name="scircumflex.alt" horiz-adv-x="622" 
d="M506 700q32 -96 47.5 -150t29 -132.5t13.5 -155.5q0 -140 -47.5 -256t-133.5 -198t-196.5 -137.5t-245.5 -86.5l-30 133q245 58 379.5 193.5t134.5 351.5q0 72 -15 148q-85 -81 -178.5 -115.5t-224.5 -44.5q3 84 7 141.5t14.5 128t28.5 125.5t46 115.5t70.5 117
t99.5 113.5l94 -100q-197 -186 -219 -483q106 35 176 103t150 189zM182 1040l-110 86l235 291q119 -114 238 -280l-115 -80q-40 61 -117 149z" />
    <glyph glyph-name="scommaaccent.alt" horiz-adv-x="622" 
d="M506 700q32 -96 47.5 -150t29 -132.5t13.5 -155.5q0 -140 -47.5 -256t-133.5 -198t-196.5 -137.5t-245.5 -86.5l-30 133q245 58 379.5 193.5t134.5 351.5q0 72 -15 148q-85 -81 -178.5 -115.5t-224.5 -44.5q3 84 7 141.5t14.5 128t28.5 125.5t46 115.5t70.5 117
t99.5 113.5l94 -100q-197 -186 -219 -483q106 35 176 103t150 189zM485 -139l144 12q-30 -253 -230 -373l-69 121q131 78 155 240z" />
    <glyph glyph-name="o.alt" horiz-adv-x="794" 
d="M633 649q0 115 -77 183.5t-167 68.5q-100 0 -175 -68.5t-75 -177.5q0 -111 75 -179t175 -68q41 0 83 16t78.5 45.5t59.5 76.5t23 103zM772 662q0 -116 -57 -207.5t-145.5 -139t-188.5 -47.5q-65 0 -131.5 26.5t-122.5 74t-91.5 123t-35.5 163.5q0 87 35 161.5t91 122.5
t123.5 74.5t133.5 26.5q154 0 271.5 -105.5t117.5 -272.5z" />
    <glyph glyph-name="oacute.alt" horiz-adv-x="794" 
d="M633 649q0 115 -77 183.5t-167 68.5q-100 0 -175 -68.5t-75 -177.5q0 -111 75 -179t175 -68q41 0 83 16t78.5 45.5t59.5 76.5t23 103zM772 662q0 -116 -57 -207.5t-145.5 -139t-188.5 -47.5q-65 0 -131.5 26.5t-122.5 74t-91.5 123t-35.5 163.5q0 87 35 161.5t91 122.5
t123.5 74.5t133.5 26.5q154 0 271.5 -105.5t117.5 -272.5zM260 1061l-80 113l303 215l80 -115z" />
    <glyph glyph-name="obreve.alt" horiz-adv-x="794" 
d="M633 649q0 115 -77 183.5t-167 68.5q-100 0 -175 -68.5t-75 -177.5q0 -111 75 -179t175 -68q41 0 83 16t78.5 45.5t59.5 76.5t23 103zM772 662q0 -116 -57 -207.5t-145.5 -139t-188.5 -47.5q-65 0 -131.5 26.5t-122.5 74t-91.5 123t-35.5 163.5q0 87 35 161.5t91 122.5
t123.5 74.5t133.5 26.5q154 0 271.5 -105.5t117.5 -272.5zM582 1335l116 -73q-65 -100 -148 -152.5t-171 -52.5q-173 0 -303 188l112 76q88 -125 193 -125q107 0 201 139z" />
    <glyph glyph-name="ocircumflex.alt" horiz-adv-x="794" 
d="M633 649q0 115 -77 183.5t-167 68.5q-100 0 -175 -68.5t-75 -177.5q0 -111 75 -179t175 -68q41 0 83 16t78.5 45.5t59.5 76.5t23 103zM772 662q0 -116 -57 -207.5t-145.5 -139t-188.5 -47.5q-65 0 -131.5 26.5t-122.5 74t-91.5 123t-35.5 163.5q0 87 35 161.5t91 122.5
t123.5 74.5t133.5 26.5q154 0 271.5 -105.5t117.5 -272.5zM256 1040l-111 86l236 291q116 -111 237 -280l-114 -80q-40 61 -117 149z" />
    <glyph glyph-name="odieresis.alt" horiz-adv-x="794" 
d="M633 649q0 115 -77 183.5t-167 68.5q-100 0 -175 -68.5t-75 -177.5q0 -111 75 -179t175 -68q41 0 83 16t78.5 45.5t59.5 76.5t23 103zM772 662q0 -116 -57 -207.5t-145.5 -139t-188.5 -47.5q-65 0 -131.5 26.5t-122.5 74t-91.5 123t-35.5 163.5q0 87 35 161.5t91 122.5
t123.5 74.5t133.5 26.5q154 0 271.5 -105.5t117.5 -272.5zM156 1081v179h176v-179h-176zM440 1081v179h176v-179h-176z" />
    <glyph glyph-name="ograve.alt" horiz-adv-x="794" 
d="M633 649q0 115 -77 183.5t-167 68.5q-100 0 -175 -68.5t-75 -177.5q0 -111 75 -179t175 -68q41 0 83 16t78.5 45.5t59.5 76.5t23 103zM772 662q0 -116 -57 -207.5t-145.5 -139t-188.5 -47.5q-65 0 -131.5 26.5t-122.5 74t-91.5 123t-35.5 163.5q0 87 35 161.5t91 122.5
t123.5 74.5t133.5 26.5q154 0 271.5 -105.5t117.5 -272.5zM600 1174l-80 -113l-303 213l78 115z" />
    <glyph glyph-name="ohungarumlaut.alt" horiz-adv-x="794" 
d="M633 649q0 115 -77 183.5t-167 68.5q-100 0 -175 -68.5t-75 -177.5q0 -111 75 -179t175 -68q41 0 83 16t78.5 45.5t59.5 76.5t23 103zM772 662q0 -116 -57 -207.5t-145.5 -139t-188.5 -47.5q-65 0 -131.5 26.5t-122.5 74t-91.5 123t-35.5 163.5q0 87 35 161.5t91 122.5
t123.5 74.5t133.5 26.5q154 0 271.5 -105.5t117.5 -272.5zM371 1333l80 -114l-226 -158l-80 113zM682 1333l78 -114l-223 -158l-80 113z" />
    <glyph glyph-name="omacron.alt" horiz-adv-x="794" 
d="M633 649q0 115 -77 183.5t-167 68.5q-100 0 -175 -68.5t-75 -177.5q0 -111 75 -179t175 -68q41 0 83 16t78.5 45.5t59.5 76.5t23 103zM772 662q0 -116 -57 -207.5t-145.5 -139t-188.5 -47.5q-65 0 -131.5 26.5t-122.5 74t-91.5 123t-35.5 163.5q0 87 35 161.5t91 122.5
t123.5 74.5t133.5 26.5q154 0 271.5 -105.5t117.5 -272.5zM80 1079v140h614v-140h-614z" />
    <glyph glyph-name="oslash.alt" horiz-adv-x="794" 
d="M772 662q0 -116 -57 -207.5t-145.5 -139t-188.5 -47.5q-90 0 -172 43l-35 -43l-131 45l61 78q-104 113 -104 264q0 87 35 161.5t91 122.5t123.5 74.5t133.5 26.5q102 0 188 -47l31 39l137 -37l-63 -82q96 -106 96 -251zM139 655q0 -90 51 -153l293 377q-49 22 -94 22
q-100 0 -175 -68.5t-75 -177.5zM633 649q0 87 -47 150l-291 -375q50 -16 94 -16q41 0 83 16t78.5 45.5t59.5 76.5t23 103z" />
    <glyph glyph-name="oslashacute.alt" horiz-adv-x="794" 
d="M772 662q0 -116 -57 -207.5t-145.5 -139t-188.5 -47.5q-90 0 -172 43l-35 -43l-131 45l61 78q-104 113 -104 264q0 87 35 161.5t91 122.5t123.5 74.5t133.5 26.5q102 0 188 -47l31 39l137 -37l-63 -82q96 -106 96 -251zM139 655q0 -90 51 -153l293 377q-49 22 -94 22
q-100 0 -175 -68.5t-75 -177.5zM633 649q0 87 -47 150l-291 -375q50 -16 94 -16q41 0 83 16t78.5 45.5t59.5 76.5t23 103zM315 1061l-79 113l303 215l79 -115z" />
    <glyph glyph-name="otilde.alt" horiz-adv-x="794" 
d="M633 649q0 115 -77 183.5t-167 68.5q-100 0 -175 -68.5t-75 -177.5q0 -111 75 -179t175 -68q41 0 83 16t78.5 45.5t59.5 76.5t23 103zM772 662q0 -116 -57 -207.5t-145.5 -139t-188.5 -47.5q-65 0 -131.5 26.5t-122.5 74t-91.5 123t-35.5 163.5q0 87 35 161.5t91 122.5
t123.5 74.5t133.5 26.5q154 0 271.5 -105.5t117.5 -272.5zM674 1397l96 -101l-252 -247l-252 186l-164 -154l-94 101l248 233l250 -184z" />
    <glyph glyph-name="oo.alt" horiz-adv-x="1427" 
d="M1405 561q0 -87 -33.5 -162t-88.5 -125t-125 -78t-144 -28q-87 0 -173 43.5t-141 122.5q-55 -78 -140.5 -122t-178.5 -44q-65 0 -131.5 26.5t-122.5 74t-91.5 123t-35.5 163.5q0 87 35 161.5t91 122.5t123.5 74.5t133.5 26.5q94 0 180.5 -43.5t141.5 -120.5
q56 76 141 120t170 44q99 0 187 -45t145 -133.5t57 -200.5zM633 549q0 115 -77 183.5t-167 68.5q-100 0 -175 -68.5t-75 -177.5q0 -111 75 -179.5t175 -68.5q56 0 110.5 27t94 84t39.5 131zM1266 549q0 115 -77 183.5t-167 68.5q-100 0 -175 -68.5t-75 -177.5
q0 -111 75 -179.5t175 -68.5q56 0 110.5 27t94 84t39.5 131z" />
    <glyph glyph-name="o.alt2" horiz-adv-x="645" 
d="M487 293q0 94 -61.5 149.5t-134.5 55.5q-82 0 -142.5 -55t-60.5 -144q0 -90 60.5 -145.5t142.5 -55.5q72 0 134 54t62 141zM623 305q0 -151 -102.5 -246.5t-237.5 -95.5q-56 0 -113.5 23t-106.5 64.5t-79.5 107t-30.5 141.5q0 75 30.5 139.5t79 106t106.5 65t116 23.5
q86 0 162.5 -39t126 -115.5t49.5 -173.5z" />
    <glyph glyph-name="k.alt2" horiz-adv-x="737" 
d="M743 1204l-428 -303l373 -438l-104 -90l-340 395q-17 -103 -49.5 -215t-73.5 -191l-121 64q75 148 117.5 392t42.5 448q0 363 -133 587l118 74q152 -258 152 -657q0 -101 -10 -221l372 266z" />
    <glyph glyph-name="e.alt4" horiz-adv-x="659" 
d="M201 924q-15 -70 -15 -154q0 -133 37 -219q66 45 123.5 100.5t87.5 108.5q-85 82 -233 164zM629 365l16 -138q-105 -6 -108 -6q-124 0 -219.5 42t-153.5 117.5t-87.5 173.5t-29.5 216q0 92 25 213q-61 24 -72 27l37 133q152 -42 302 -143t267 -222q-67 -115 -141 -196
t-164 -146q74 -76 240 -76q49 0 88 5z" />
    <glyph glyph-name="f.alt" horiz-adv-x="821" 
d="M356 377q193 71 445 98l14 -135q-299 -37 -475 -119q0 -8 -1 -24.5t-1 -24.5q0 -183 50.5 -361t146.5 -331l-117 -74q-207 330 -217 739q-70 -47 -109 -84l-92 103q106 91 209 147q20 199 90 353.5t207 302.5l358 -238l-78 -115l-258 172q-128 -157 -172 -409z" />
    <glyph glyph-name="eacute.alt4" horiz-adv-x="659" 
d="M201 924q-15 -70 -15 -154q0 -133 37 -219q66 45 123.5 100.5t87.5 108.5q-85 82 -233 164zM629 365l16 -138q-105 -6 -108 -6q-124 0 -219.5 42t-153.5 117.5t-87.5 173.5t-29.5 216q0 92 25 213q-61 24 -72 27l37 133q152 -42 302 -143t267 -222q-67 -115 -141 -196
t-164 -146q74 -76 240 -76q49 0 88 5zM301 1061l-80 113l303 215l80 -115z" />
    <glyph glyph-name="ebreve.alt4" horiz-adv-x="659" 
d="M455 1335l116 -73q-65 -100 -149.5 -152.5t-177.5 -52.5q197 -111 362 -279q-67 -115 -141 -196t-164 -146q74 -76 240 -76q49 0 88 5l16 -138q-105 -6 -108 -6q-124 0 -219.5 42t-153.5 117.5t-87.5 173.5t-29.5 216q0 92 25 213q-61 24 -72 27l39 131q-49 45 -90 104
l112 76q88 -125 193 -125q107 0 201 139zM201 924q-15 -70 -15 -154q0 -133 37 -219q66 45 123.5 100.5t87.5 108.5q-85 82 -233 164z" />
    <glyph glyph-name="ecaron.alt4" horiz-adv-x="659" 
d="M201 924q-15 -70 -15 -154q0 -133 37 -219q66 45 123.5 100.5t87.5 108.5q-85 82 -233 164zM629 365l16 -138q-105 -6 -108 -6q-124 0 -219.5 42t-153.5 117.5t-87.5 173.5t-29.5 216q0 92 25 213q-61 24 -72 27l37 133q152 -42 302 -143t267 -222q-67 -115 -141 -196
t-164 -146q74 -76 240 -76q49 0 88 5zM457 1417l110 -84l-237 -293q-118 118 -236 283l113 80q55 -79 117 -150z" />
    <glyph glyph-name="ecircumflex.alt4" horiz-adv-x="659" 
d="M629 365l16 -138q-105 -6 -108 -6q-124 0 -219.5 42t-153.5 117.5t-87.5 173.5t-29.5 216q0 92 25 213q-61 24 -72 27l37 133l59 -17l236 291q116 -111 237 -280l-114 -80q-40 61 -117 149l-111 -141q198 -102 379 -287q-67 -115 -141 -196t-164 -146q74 -76 240 -76
q49 0 88 5zM201 924q-15 -70 -15 -154q0 -133 37 -219q66 45 123.5 100.5t87.5 108.5q-85 82 -233 164z" />
    <glyph glyph-name="edieresis.alt4" horiz-adv-x="659" 
d="M201 924q-15 -70 -15 -154q0 -133 37 -219q66 45 123.5 100.5t87.5 108.5q-85 82 -233 164zM629 365l16 -138q-105 -6 -108 -6q-124 0 -219.5 42t-153.5 117.5t-87.5 173.5t-29.5 216q0 92 25 213q-61 24 -72 27l37 133q152 -42 302 -143t267 -222q-67 -115 -141 -196
t-164 -146q74 -76 240 -76q49 0 88 5zM227 1092v168h164v-168h-164zM494 1092v168h165v-168h-165z" />
    <glyph glyph-name="edotaccent.alt4" horiz-adv-x="659" 
d="M201 924q-15 -70 -15 -154q0 -133 37 -219q66 45 123.5 100.5t87.5 108.5q-85 82 -233 164zM629 365l16 -138q-105 -6 -108 -6q-124 0 -219.5 42t-153.5 117.5t-87.5 173.5t-29.5 216q0 92 25 213q-61 24 -72 27l37 133q152 -42 302 -143t267 -222q-67 -115 -141 -196
t-164 -146q74 -76 240 -76q49 0 88 5zM219 1202q0 38 28 65t66 27q40 0 67.5 -27t27.5 -65q0 -40 -27.5 -67t-67.5 -27q-39 0 -66.5 27.5t-27.5 66.5z" />
    <glyph glyph-name="egrave.alt4" horiz-adv-x="659" 
d="M201 924q-15 -70 -15 -154q0 -133 37 -219q66 45 123.5 100.5t87.5 108.5q-85 82 -233 164zM629 365l16 -138q-105 -6 -108 -6q-124 0 -219.5 42t-153.5 117.5t-87.5 173.5t-29.5 216q0 92 25 213q-61 24 -72 27l37 133q152 -42 302 -143t267 -222q-67 -115 -141 -196
t-164 -146q74 -76 240 -76q49 0 88 5zM385 1174l-80 -113l-303 213l78 115z" />
    <glyph glyph-name="emacron.alt4" horiz-adv-x="659" 
d="M629 365l16 -138q-105 -6 -108 -6q-124 0 -219.5 42t-153.5 117.5t-87.5 173.5t-29.5 216q0 92 25 213q-61 24 -72 27l35 209h614v-140h-448q213 -105 405 -301q-67 -115 -141 -196t-164 -146q74 -76 240 -76q49 0 88 5zM201 924q-15 -70 -15 -154q0 -133 37 -219
q66 45 123.5 100.5t87.5 108.5q-85 82 -233 164z" />
    <glyph glyph-name="eogonek.alt4" horiz-adv-x="659" 
d="M629 365l16 -138q-178 -170 -178 -295q0 -38 15 -65t44.5 -43.5t61.5 -25t78 -15.5l-43 -129q-143 20 -220 90.5t-77 183.5q0 135 131 297q-104 13 -183.5 60t-128.5 120t-73.5 165t-24.5 200q0 92 25 213q-61 24 -72 27l37 133q152 -42 302 -143t267 -222
q-67 -115 -141 -196t-164 -146q74 -76 240 -76q49 0 88 5zM201 924q-15 -70 -15 -154q0 -133 37 -219q66 45 123.5 100.5t87.5 108.5q-85 82 -233 164z" />
    <glyph glyph-name="kcommaaccent.alt" horiz-adv-x="737" 
d="M385 569l-16 -57l424 -549l-111 -82l-365 471q-73 -196 -206 -383l-111 84q297 405 297 985q0 43 -4 133l139 9q2 -43 2 -129q0 -160 -22 -338l575 51l12 -139zM305 -139l144 12q-30 -253 -230 -373l-69 121q131 78 155 240z" />
    <glyph glyph-name="longs_h" horiz-adv-x="1525" 
d="M356 942q-12 -123 -12 -229q0 -179 43 -335t148 -333l-117 -74q-207 330 -217 740q-70 -47 -109 -84l-92 102q109 94 209 148q20 199 90 353t207 302l358 -238l-78 -114l-258 172q-128 -157 -172 -410zM1112 946q162 -211 245 -430.5t116 -509.5l-138 -14
q-17 180 -70 357t-169 384q-41 -38 -80.5 -94t-58.5 -93l-19 -36q42 -296 184 -453l-100 -94q-238 264 -238 772q0 227 54 438.5t157 358.5l113 -80q-93 -133 -138.5 -327.5t-45.5 -383.5q69 89 188 205z" />
    <glyph glyph-name="longs_l" horiz-adv-x="1282" 
d="M356 942q-12 -123 -12 -229q0 -179 43 -335t148 -333l-117 -74q-207 330 -217 740q-70 -47 -109 -84l-92 102q109 94 209 148q20 199 90 353t207 302l358 -238l-78 -114l-258 172q-128 -157 -172 -410zM1374 164l23 -137q-197 -33 -373 -33q-120 0 -217 10
q-75 106 -117.5 270.5t-42.5 317.5q0 203 83 374.5t255 288.5l76 -112q-142 -98 -208.5 -241t-66.5 -312q0 -236 107 -455q39 -4 119 -4q152 0 362 33z" />
    <glyph glyph-name="longs_i" horiz-adv-x="1058" 
d="M356 942q-12 -123 -12 -229q0 -179 43 -335t148 -333l-117 -74q-207 330 -217 740q-70 -47 -109 -84l-92 102q109 94 209 148q20 199 90 353t207 302l358 -238l-78 -114l-258 172q-128 -157 -172 -410zM696 911l-80 111l175 123l77 -113zM1092 78l-91 -103
q-333 301 -333 793v41l137 -6v-35q0 -425 287 -690z" />
    <glyph glyph-name="longs_longs" horiz-adv-x="1349" 
d="M864 942q-12 -123 -12 -229q0 -179 42.5 -335t147.5 -333l-116 -74q-207 330 -217 740q-70 -47 -109 -84l-92 102q109 94 209 148q15 165 67 303l-256 172q-128 -157 -172 -410q-12 -123 -12 -229q0 -179 43 -335t148 -333l-117 -74q-207 330 -217 740q-70 -47 -109 -84
l-92 102q109 94 209 148q20 199 90 353t207 302l340 -225q58 106 168 225l358 -238l-78 -114l-258 172q-128 -157 -172 -410z" />
    <glyph glyph-name="e.alt5" horiz-adv-x="638" 
d="M389 549l45 33q-113 156 -241 254q-56 -109 -56 -232q0 -82 31 -180q129 58 221 125zM371 135q65 60 106 141l123 -61q-39 -80 -98 -147.5t-121 -100.5q-102 62 -178.5 143.5t-119 167t-63 167.5t-20.5 161q0 162 76 305q-7 3 -21.5 10.5t-21.5 10.5l53 127
q82 -35 161.5 -92t146.5 -127.5t121.5 -141.5t102.5 -149q-227 -178 -393 -250q59 -101 146 -164z" />
    <glyph glyph-name="eacute.alt5" horiz-adv-x="638" 
d="M389 549l45 33q-113 156 -241 254q-56 -109 -56 -232q0 -82 31 -180q129 58 221 125zM371 135q65 60 106 141l123 -61q-39 -80 -98 -147.5t-121 -100.5q-102 62 -178.5 143.5t-119 167t-63 167.5t-20.5 161q0 162 76 305q-7 3 -21.5 10.5t-21.5 10.5l53 127
q82 -35 161.5 -92t146.5 -127.5t121.5 -141.5t102.5 -149q-227 -178 -393 -250q59 -101 146 -164zM186 1061l-80 113l304 215l79 -115z" />
    <glyph glyph-name="ebreve.alt5" horiz-adv-x="638" 
d="M389 549l45 33q-113 156 -241 254q-56 -109 -56 -232q0 -82 31 -180q129 58 221 125zM371 135q65 60 106 141l123 -61q-39 -80 -98 -147.5t-121 -100.5q-102 62 -178.5 143.5t-119 167t-63 167.5t-20.5 161q0 162 76 305q-7 3 -21.5 10.5t-21.5 10.5l53 127
q82 -35 161.5 -92t146.5 -127.5t121.5 -141.5t102.5 -149q-227 -178 -393 -250q59 -101 146 -164zM489 1335l117 -73q-65 -100 -148 -152.5t-171 -52.5q-173 0 -303 188l112 76q88 -125 193 -125q106 0 200 139z" />
    <glyph glyph-name="ecaron.alt5" horiz-adv-x="638" 
d="M389 549l45 33q-113 156 -241 254q-56 -109 -56 -232q0 -82 31 -180q129 58 221 125zM371 135q65 60 106 141l123 -61q-39 -80 -98 -147.5t-121 -100.5q-102 62 -178.5 143.5t-119 167t-63 167.5t-20.5 161q0 162 76 305q-7 3 -21.5 10.5t-21.5 10.5l53 127
q82 -35 161.5 -92t146.5 -127.5t121.5 -141.5t102.5 -149q-227 -178 -393 -250q59 -101 146 -164zM393 1417l111 -84l-238 -293q-115 115 -235 283l112 80q55 -79 117 -150z" />
    <glyph glyph-name="ecircumflex.alt5" horiz-adv-x="638" 
d="M389 549l45 33q-113 156 -241 254q-56 -109 -56 -232q0 -82 31 -180q129 58 221 125zM371 135q65 60 106 141l123 -61q-39 -80 -98 -147.5t-121 -100.5q-102 62 -178.5 143.5t-119 167t-63 167.5t-20.5 161q0 162 76 305q-7 3 -21.5 10.5t-21.5 10.5l53 127
q82 -35 161.5 -92t146.5 -127.5t121.5 -141.5t102.5 -149q-227 -178 -393 -250q59 -101 146 -164zM-2 1040l-111 86l236 291q116 -111 237 -280l-114 -80q-40 61 -117 149z" />
    <glyph glyph-name="edieresis.alt5" horiz-adv-x="638" 
d="M389 549l45 33q-113 156 -241 254q-56 -109 -56 -232q0 -82 31 -180q129 58 221 125zM371 135q65 60 106 141l123 -61q-39 -80 -98 -147.5t-121 -100.5q-102 62 -178.5 143.5t-119 167t-63 167.5t-20.5 161q0 162 76 305q-7 3 -21.5 10.5t-21.5 10.5l53 127
q82 -35 161.5 -92t146.5 -127.5t121.5 -141.5t102.5 -149q-227 -178 -393 -250q59 -101 146 -164zM-117 1120v178h176v-178h-176zM168 1120v178h176v-178h-176z" />
    <glyph glyph-name="edotaccent.alt5" horiz-adv-x="638" 
d="M389 549l45 33q-113 156 -241 254q-56 -109 -56 -232q0 -82 31 -180q129 58 221 125zM371 135q65 60 106 141l123 -61q-39 -80 -98 -147.5t-121 -100.5q-102 62 -178.5 143.5t-119 167t-63 167.5t-20.5 161q0 162 76 305q-7 3 -21.5 10.5t-21.5 10.5l53 127
q82 -35 161.5 -92t146.5 -127.5t121.5 -141.5t102.5 -149q-227 -178 -393 -250q59 -101 146 -164zM72 1202q0 38 28 65t66 27q40 0 67 -27t27 -65q0 -40 -27 -67t-67 -27q-39 0 -66.5 27.5t-27.5 66.5z" />
    <glyph glyph-name="egrave.alt5" horiz-adv-x="638" 
d="M389 549l45 33q-113 156 -241 254q-56 -109 -56 -232q0 -82 31 -180q129 58 221 125zM371 135q65 60 106 141l123 -61q-39 -80 -98 -147.5t-121 -100.5q-102 62 -178.5 143.5t-119 167t-63 167.5t-20.5 161q0 162 76 305q-7 3 -21.5 10.5t-21.5 10.5l53 127
q82 -35 161.5 -92t146.5 -127.5t121.5 -141.5t102.5 -149q-227 -178 -393 -250q59 -101 146 -164zM352 1174l-80 -113l-303 213l78 115z" />
    <glyph glyph-name="emacron.alt5" horiz-adv-x="638" 
d="M389 549l45 33q-113 156 -241 254q-56 -109 -56 -232q0 -82 31 -180q129 58 221 125zM371 135q65 60 106 141l123 -61q-39 -80 -98 -147.5t-121 -100.5q-102 62 -178.5 143.5t-119 167t-63 167.5t-20.5 161q0 162 76 305q-7 3 -21.5 10.5t-21.5 10.5l53 127
q82 -35 161.5 -92t146.5 -127.5t121.5 -141.5t102.5 -149q-227 -178 -393 -250q59 -101 146 -164zM-31 1124v140h615v-140h-615z" />
    <glyph glyph-name="eogonek.alt5" horiz-adv-x="638" 
d="M389 549l45 33q-113 156 -241 254q-56 -109 -56 -232q0 -82 31 -180q129 58 221 125zM371 135q65 60 106 141l123 -61q-39 -80 -98 -147.5t-121 -100.5q-102 62 -178.5 143.5t-119 167t-63 167.5t-20.5 161q0 162 76 305q-7 3 -21.5 10.5t-21.5 10.5l53 127
q82 -35 161.5 -92t146.5 -127.5t121.5 -141.5t102.5 -149q-227 -178 -393 -250q59 -101 146 -164zM455 -440l-43 -129q-143 20 -220 90.5t-77 183.5q0 92 63.5 198t159.5 199l96 -98q-178 -170 -178 -295q0 -38 15 -65t44.5 -43.5t61.5 -25t78 -15.5z" />
    </font>
</defs>
</svg>
